<?xml version="1.0" encoding="UTF-8"?>
<svg xmlns="http://www.w3.org/2000/svg" xmlns:xlink="http://www.w3.org/1999/xlink" width="640.255371" height="81.052203" viewBox="0 0 640.255371 81.052203">
<path fill="none" stroke-width="0.3985" stroke-linecap="butt" stroke-linejoin="miter" stroke="rgb(0%, 0%, 0%)" stroke-opacity="1" stroke-miterlimit="10" d="M -0.000330745 0.00140667 L 178.007482 0.00140667 " transform="matrix(2.466667, 0, 0, -2.466667, 190.848472, 37.148001)"/>
<path fill-rule="nonzero" fill="rgb(0%, 0%, 0%)" fill-opacity="1" d="M 634.859375 37.144531 L 626.984375 33.214844 L 629.933594 37.144531 L 626.984375 41.074219 "/>
<path fill-rule="nonzero" fill="rgb(0%, 0%, 0%)" fill-opacity="1" d="M 17.460938 26.214844 L 13.914062 26.484375 L 13.914062 27.257812 C 15.648438 27.257812 15.84375 27.410156 15.84375 28.644531 L 15.84375 41.441406 C 15.84375 42.519531 15.570312 42.519531 13.914062 42.519531 L 13.914062 43.289062 C 14.722656 43.25 16.035156 43.214844 16.652344 43.214844 C 17.269531 43.214844 18.460938 43.25 19.386719 43.289062 L 19.386719 42.519531 C 17.730469 42.519531 17.460938 42.519531 17.460938 41.441406 Z M 17.460938 26.214844 "/>
<path fill-rule="nonzero" fill="rgb(0%, 0%, 0%)" fill-opacity="1" d="M 28.101562 41.441406 C 28.21875 42.402344 28.875 43.445312 30.03125 43.445312 C 30.570312 43.445312 32.074219 43.097656 32.074219 41.09375 L 32.074219 39.707031 L 31.457031 39.707031 L 31.457031 41.09375 C 31.457031 42.519531 30.839844 42.671875 30.570312 42.671875 C 29.761719 42.671875 29.644531 41.554688 29.644531 41.441406 L 29.644531 36.546875 C 29.644531 35.503906 29.644531 34.542969 28.757812 33.617188 C 27.792969 32.652344 26.5625 32.265625 25.40625 32.265625 C 23.363281 32.265625 21.667969 33.421875 21.667969 35.042969 C 21.667969 35.773438 22.167969 36.199219 22.824219 36.199219 C 23.515625 36.199219 23.941406 35.699219 23.941406 35.082031 C 23.941406 34.773438 23.824219 33.964844 22.667969 33.964844 C 23.363281 33.078125 24.558594 32.808594 25.328125 32.808594 C 26.5625 32.808594 27.949219 33.769531 27.949219 35.96875 L 27.949219 36.855469 C 26.675781 36.929688 24.980469 37.007812 23.441406 37.738281 C 21.589844 38.589844 20.972656 39.859375 20.972656 40.9375 C 20.972656 42.941406 23.363281 43.558594 24.902344 43.558594 C 26.523438 43.558594 27.640625 42.558594 28.101562 41.441406 Z M 27.949219 37.394531 L 27.949219 39.859375 C 27.949219 42.171875 26.175781 43.019531 25.058594 43.019531 C 23.863281 43.019531 22.863281 42.171875 22.863281 40.9375 C 22.863281 39.589844 23.902344 37.546875 27.949219 37.394531 Z M 27.949219 37.394531 "/>
<path fill-rule="nonzero" fill="rgb(0%, 0%, 0%)" fill-opacity="1" d="M 36.457031 34 L 36.457031 26.214844 L 32.914062 26.484375 L 32.914062 27.257812 C 34.648438 27.257812 34.839844 27.410156 34.839844 28.644531 L 34.839844 43.289062 L 35.457031 43.289062 C 35.457031 43.25 35.648438 42.90625 36.34375 41.75 C 36.691406 42.328125 37.730469 43.558594 39.542969 43.558594 C 42.472656 43.558594 45.015625 41.132812 45.015625 37.972656 C 45.015625 34.847656 42.625 32.421875 39.8125 32.421875 C 37.886719 32.421875 36.84375 33.578125 36.457031 34 Z M 36.535156 40.476562 L 36.535156 35.425781 C 36.535156 34.964844 36.535156 34.925781 36.804688 34.542969 C 37.769531 33.152344 39.117188 32.960938 39.695312 32.960938 C 40.8125 32.960938 41.699219 33.617188 42.277344 34.542969 C 42.933594 35.542969 42.972656 36.929688 42.972656 37.972656 C 42.972656 38.859375 42.933594 40.324219 42.238281 41.441406 C 41.699219 42.210938 40.777344 43.019531 39.464844 43.019531 C 38.347656 43.019531 37.460938 42.441406 36.882812 41.515625 C 36.535156 41.015625 36.535156 40.9375 36.535156 40.476562 Z M 36.535156 40.476562 "/>
<path fill-rule="nonzero" fill="rgb(0%, 0%, 0%)" fill-opacity="1" d="M 49.296875 37.085938 C 49.453125 33.421875 51.53125 32.808594 52.378906 32.808594 C 54.886719 32.808594 55.15625 36.121094 55.15625 37.085938 Z M 49.296875 37.625 L 56.15625 37.625 C 56.699219 37.625 56.773438 37.625 56.773438 37.085938 C 56.773438 34.65625 55.425781 32.265625 52.378906 32.265625 C 49.527344 32.265625 47.253906 34.8125 47.253906 37.894531 C 47.253906 41.171875 49.835938 43.558594 52.652344 43.558594 C 55.65625 43.558594 56.773438 40.824219 56.773438 40.359375 C 56.773438 40.128906 56.582031 40.050781 56.425781 40.050781 C 56.234375 40.050781 56.15625 40.207031 56.121094 40.398438 C 55.269531 42.941406 53.035156 42.941406 52.804688 42.941406 C 51.570312 42.941406 50.609375 42.210938 50.03125 41.285156 C 49.296875 40.128906 49.296875 38.511719 49.296875 37.625 Z M 49.296875 37.625 "/>
<path fill-rule="nonzero" fill="rgb(0%, 0%, 0%)" fill-opacity="1" d="M 61.835938 26.214844 L 58.292969 26.484375 L 58.292969 27.257812 C 60.027344 27.257812 60.21875 27.410156 60.21875 28.644531 L 60.21875 41.441406 C 60.21875 42.519531 59.949219 42.519531 58.292969 42.519531 L 58.292969 43.289062 C 59.101562 43.25 60.410156 43.214844 61.027344 43.214844 C 61.644531 43.214844 62.839844 43.25 63.765625 43.289062 L 63.765625 42.519531 C 62.105469 42.519531 61.835938 42.519531 61.835938 41.441406 Z M 61.835938 26.214844 "/>
<path fill-rule="nonzero" fill="rgb(0%, 0%, 0%)" fill-opacity="1" d="M 77.964844 39.050781 C 75.804688 39.050781 75.804688 36.582031 75.804688 36.042969 C 75.804688 35.390625 75.84375 34.578125 76.191406 33.964844 C 76.382812 33.691406 76.960938 33 77.964844 33 C 80.085938 33 80.085938 35.425781 80.085938 36.003906 C 80.085938 36.660156 80.085938 37.46875 79.699219 38.085938 C 79.507812 38.355469 78.929688 39.050781 77.964844 39.050781 Z M 75.113281 40.015625 C 75.113281 39.9375 75.113281 39.359375 75.5 38.859375 C 76.460938 39.550781 77.503906 39.628906 77.964844 39.628906 C 80.238281 39.628906 81.933594 37.933594 81.933594 36.042969 C 81.933594 35.121094 81.550781 34.234375 80.933594 33.65625 C 81.820312 32.808594 82.707031 32.691406 83.128906 32.691406 C 83.207031 32.691406 83.320312 32.691406 83.398438 32.730469 C 83.128906 32.808594 82.976562 33.078125 82.976562 33.386719 C 82.976562 33.808594 83.320312 34.078125 83.707031 34.078125 C 83.9375 34.078125 84.402344 33.925781 84.402344 33.347656 C 84.402344 32.921875 84.132812 32.152344 83.167969 32.152344 C 82.667969 32.152344 81.585938 32.304688 80.546875 33.308594 C 79.507812 32.5 78.503906 32.421875 77.964844 32.421875 C 75.652344 32.421875 73.957031 34.117188 73.957031 36.003906 C 73.957031 37.085938 74.496094 38.011719 75.113281 38.550781 C 74.804688 38.894531 74.34375 39.707031 74.34375 40.59375 C 74.34375 41.363281 74.6875 42.289062 75.460938 42.789062 C 73.957031 43.175781 73.1875 44.253906 73.1875 45.21875 C 73.1875 46.988281 75.613281 48.339844 78.621094 48.339844 C 81.511719 48.339844 84.054688 47.105469 84.054688 45.179688 C 84.054688 44.332031 83.746094 43.058594 82.472656 42.363281 C 81.164062 41.710938 79.738281 41.710938 78.234375 41.710938 C 77.617188 41.710938 76.578125 41.710938 76.382812 41.671875 C 75.613281 41.554688 75.113281 40.824219 75.113281 40.015625 Z M 78.660156 47.800781 C 76.152344 47.800781 74.457031 46.527344 74.457031 45.21875 C 74.457031 44.097656 75.382812 43.175781 76.460938 43.136719 L 77.925781 43.136719 C 80.046875 43.136719 82.78125 43.136719 82.78125 45.21875 C 82.78125 46.566406 81.046875 47.800781 78.660156 47.800781 Z M 78.660156 47.800781 "/>
<path fill-rule="nonzero" fill="rgb(0%, 0%, 0%)" fill-opacity="1" d="M 96.339844 38.011719 C 96.339844 34.886719 93.914062 32.265625 90.945312 32.265625 C 87.863281 32.265625 85.472656 34.964844 85.472656 38.011719 C 85.472656 41.207031 88.015625 43.558594 90.90625 43.558594 C 93.875 43.558594 96.339844 41.132812 96.339844 38.011719 Z M 90.945312 42.941406 C 89.867188 42.941406 88.789062 42.441406 88.132812 41.285156 C 87.515625 40.207031 87.515625 38.703125 87.515625 37.816406 C 87.515625 36.855469 87.515625 35.542969 88.09375 34.464844 C 88.75 33.347656 89.90625 32.808594 90.90625 32.808594 C 91.988281 32.808594 93.027344 33.347656 93.683594 34.425781 C 94.335938 35.464844 94.335938 36.890625 94.335938 37.816406 C 94.335938 38.703125 94.335938 40.050781 93.796875 41.132812 C 93.21875 42.25 92.140625 42.941406 90.945312 42.941406 Z M 90.945312 42.941406 "/>
<path fill-rule="nonzero" fill="rgb(0%, 0%, 0%)" fill-opacity="1" d="M 100.492188 37.085938 C 100.644531 33.421875 102.726562 32.808594 103.574219 32.808594 C 106.078125 32.808594 106.347656 36.121094 106.347656 37.085938 Z M 100.492188 37.625 L 107.351562 37.625 C 107.890625 37.625 107.96875 37.625 107.96875 37.085938 C 107.96875 34.65625 106.617188 32.265625 103.574219 32.265625 C 100.722656 32.265625 98.449219 34.8125 98.449219 37.894531 C 98.449219 41.171875 101.03125 43.558594 103.84375 43.558594 C 106.851562 43.558594 107.96875 40.824219 107.96875 40.359375 C 107.96875 40.128906 107.773438 40.050781 107.621094 40.050781 C 107.429688 40.050781 107.351562 40.207031 107.3125 40.398438 C 106.464844 42.941406 104.230469 42.941406 104 42.941406 C 102.765625 42.941406 101.800781 42.210938 101.222656 41.285156 C 100.492188 40.128906 100.492188 38.511719 100.492188 37.625 Z M 100.492188 37.625 "/>
<path fill-rule="nonzero" fill="rgb(0%, 0%, 0%)" fill-opacity="1" d="M 113.800781 38.511719 C 114.339844 38.625 116.34375 39.011719 116.34375 40.785156 C 116.34375 42.019531 115.496094 43.019531 113.570312 43.019531 C 111.488281 43.019531 110.601562 41.632812 110.140625 39.511719 C 110.0625 39.203125 110.0625 39.128906 109.792969 39.128906 C 109.484375 39.128906 109.484375 39.28125 109.484375 39.707031 L 109.484375 42.980469 C 109.484375 43.40625 109.484375 43.558594 109.753906 43.558594 C 109.871094 43.558594 109.910156 43.519531 110.371094 43.058594 C 110.410156 43.019531 110.410156 42.980469 110.871094 42.519531 C 111.953125 43.519531 113.070312 43.558594 113.570312 43.558594 C 116.382812 43.558594 117.539062 41.902344 117.539062 40.128906 C 117.539062 38.859375 116.808594 38.085938 116.5 37.816406 C 115.691406 37.007812 114.726562 36.816406 113.6875 36.621094 C 112.296875 36.351562 110.679688 36.042969 110.679688 34.617188 C 110.679688 33.730469 111.296875 32.730469 113.414062 32.730469 C 116.113281 32.730469 116.269531 34.964844 116.304688 35.699219 C 116.304688 35.929688 116.539062 35.929688 116.578125 35.929688 C 116.921875 35.929688 116.921875 35.8125 116.921875 35.351562 L 116.921875 32.84375 C 116.921875 32.460938 116.921875 32.265625 116.652344 32.265625 C 116.539062 32.265625 116.460938 32.265625 116.152344 32.574219 C 116.074219 32.652344 115.84375 32.882812 115.726562 32.960938 C 114.804688 32.265625 113.800781 32.265625 113.414062 32.265625 C 110.410156 32.265625 109.484375 33.925781 109.484375 35.3125 C 109.484375 36.160156 109.871094 36.855469 110.523438 37.394531 C 111.335938 38.011719 112.027344 38.164062 113.800781 38.511719 Z M 113.800781 38.511719 "/>
<path fill-rule="nonzero" fill="rgb(0%, 0%, 0%)" fill-opacity="1" d="M 129.25 41.441406 C 129.25 42.519531 128.980469 42.519531 127.320312 42.519531 L 127.320312 43.289062 C 128.207031 43.25 129.441406 43.214844 130.136719 43.214844 C 130.75 43.214844 132.023438 43.25 132.871094 43.289062 L 132.871094 42.519531 C 131.214844 42.519531 130.945312 42.519531 130.945312 41.441406 L 130.945312 36.890625 C 130.945312 34.347656 132.71875 32.960938 134.257812 32.960938 C 135.839844 32.960938 136.109375 34.269531 136.109375 35.699219 L 136.109375 41.441406 C 136.109375 42.519531 135.839844 42.519531 134.183594 42.519531 L 134.183594 43.289062 C 135.03125 43.25 136.300781 43.214844 136.957031 43.214844 C 137.574219 43.214844 138.882812 43.25 139.695312 43.289062 L 139.695312 42.519531 C 138.421875 42.519531 137.804688 42.519531 137.804688 41.785156 L 137.804688 37.085938 C 137.804688 34.964844 137.804688 34.234375 137.035156 33.347656 C 136.6875 32.921875 135.878906 32.421875 134.453125 32.421875 C 132.371094 32.421875 131.292969 33.886719 130.867188 34.847656 L 130.867188 26.214844 L 127.320312 26.484375 L 127.320312 27.257812 C 129.054688 27.257812 129.25 27.410156 129.25 28.644531 Z M 129.25 41.441406 "/>
<path fill-rule="nonzero" fill="rgb(0%, 0%, 0%)" fill-opacity="1" d="M 142.941406 37.085938 C 143.09375 33.421875 145.175781 32.808594 146.023438 32.808594 C 148.527344 32.808594 148.800781 36.121094 148.800781 37.085938 Z M 142.941406 37.625 L 149.800781 37.625 C 150.339844 37.625 150.417969 37.625 150.417969 37.085938 C 150.417969 34.65625 149.070312 32.265625 146.023438 32.265625 C 143.171875 32.265625 140.898438 34.8125 140.898438 37.894531 C 140.898438 41.171875 143.480469 43.558594 146.292969 43.558594 C 149.300781 43.558594 150.417969 40.824219 150.417969 40.359375 C 150.417969 40.128906 150.226562 40.050781 150.070312 40.050781 C 149.878906 40.050781 149.800781 40.207031 149.761719 40.398438 C 148.914062 42.941406 146.679688 42.941406 146.449219 42.941406 C 145.214844 42.941406 144.25 42.210938 143.671875 41.285156 C 142.941406 40.128906 142.941406 38.511719 142.941406 37.625 Z M 142.941406 37.625 "/>
<path fill-rule="nonzero" fill="rgb(0%, 0%, 0%)" fill-opacity="1" d="M 155.25 35.121094 L 155.25 32.421875 L 151.820312 32.691406 L 151.820312 33.460938 C 153.554688 33.460938 153.746094 33.617188 153.746094 34.847656 L 153.746094 41.441406 C 153.746094 42.519531 153.476562 42.519531 151.820312 42.519531 L 151.820312 43.289062 C 152.78125 43.25 153.9375 43.214844 154.632812 43.214844 C 155.597656 43.214844 156.753906 43.214844 157.753906 43.289062 L 157.753906 42.519531 L 157.214844 42.519531 C 155.402344 42.519531 155.363281 42.25 155.363281 41.363281 L 155.363281 37.585938 C 155.363281 35.15625 156.40625 32.960938 158.253906 32.960938 C 158.410156 32.960938 158.488281 32.960938 158.523438 33 C 158.449219 33 157.945312 33.308594 157.945312 33.964844 C 157.945312 34.617188 158.488281 35.003906 159.027344 35.003906 C 159.449219 35.003906 160.066406 34.695312 160.066406 33.925781 C 160.066406 33.152344 159.296875 32.421875 158.253906 32.421875 C 156.445312 32.421875 155.558594 34.078125 155.25 35.121094 Z M 155.25 35.121094 "/>
<path fill-rule="nonzero" fill="rgb(0%, 0%, 0%)" fill-opacity="1" d="M 163.488281 37.085938 C 163.640625 33.421875 165.722656 32.808594 166.570312 32.808594 C 169.074219 32.808594 169.347656 36.121094 169.347656 37.085938 Z M 163.488281 37.625 L 170.347656 37.625 C 170.886719 37.625 170.964844 37.625 170.964844 37.085938 C 170.964844 34.65625 169.617188 32.265625 166.570312 32.265625 C 163.71875 32.265625 161.445312 34.8125 161.445312 37.894531 C 161.445312 41.171875 164.027344 43.558594 166.839844 43.558594 C 169.847656 43.558594 170.964844 40.824219 170.964844 40.359375 C 170.964844 40.128906 170.773438 40.050781 170.617188 40.050781 C 170.425781 40.050781 170.347656 40.207031 170.308594 40.398438 C 169.460938 42.941406 167.226562 42.941406 166.996094 42.941406 C 165.761719 42.941406 164.796875 42.210938 164.21875 41.285156 C 163.488281 40.128906 163.488281 38.511719 163.488281 37.625 Z M 163.488281 37.625 "/>
<path fill="none" stroke-width="0.3487" stroke-linecap="round" stroke-linejoin="miter" stroke="rgb(0%, 0%, 0%)" stroke-opacity="1" stroke-miterlimit="10" d="M 8.503681 -3.487297 L 8.503681 3.485359 Z M 8.503681 -3.487297 " transform="matrix(2.466667, 0, 0, -2.466667, 190.848472, 37.148001)"/>
<path fill="none" stroke-width="0.3487" stroke-linecap="round" stroke-linejoin="miter" stroke="rgb(0%, 0%, 0%)" stroke-opacity="1" stroke-miterlimit="10" d="M 28.347959 -3.487297 L 28.347959 3.485359 Z M 28.347959 -3.487297 " transform="matrix(2.466667, 0, 0, -2.466667, 190.848472, 37.148001)"/>
<path fill="none" stroke-width="0.3487" stroke-linecap="round" stroke-linejoin="miter" stroke="rgb(0%, 0%, 0%)" stroke-opacity="1" stroke-miterlimit="10" d="M 48.192237 -3.487297 L 48.192237 3.485359 Z M 48.192237 -3.487297 " transform="matrix(2.466667, 0, 0, -2.466667, 190.848472, 37.148001)"/>
<path fill="none" stroke-width="0.3487" stroke-linecap="round" stroke-linejoin="miter" stroke="rgb(0%, 0%, 0%)" stroke-opacity="1" stroke-miterlimit="10" d="M 68.031764 -3.487297 L 68.031764 3.485359 Z M 68.031764 -3.487297 " transform="matrix(2.466667, 0, 0, -2.466667, 190.848472, 37.148001)"/>
<path fill="none" stroke-width="0.3487" stroke-linecap="round" stroke-linejoin="miter" stroke="rgb(0%, 0%, 0%)" stroke-opacity="1" stroke-miterlimit="10" d="M 87.874458 -3.487297 L 87.874458 3.485359 Z M 87.874458 -3.487297 " transform="matrix(2.466667, 0, 0, -2.466667, 190.848472, 37.148001)"/>
<path fill="none" stroke-width="0.3487" stroke-linecap="round" stroke-linejoin="miter" stroke="rgb(0%, 0%, 0%)" stroke-opacity="1" stroke-miterlimit="10" d="M 107.718736 -3.487297 L 107.718736 3.485359 Z M 107.718736 -3.487297 " transform="matrix(2.466667, 0, 0, -2.466667, 190.848472, 37.148001)"/>
<path fill="none" stroke-width="0.3487" stroke-linecap="round" stroke-linejoin="miter" stroke="rgb(0%, 0%, 0%)" stroke-opacity="1" stroke-miterlimit="10" d="M 127.558263 -3.487297 L 127.558263 3.485359 Z M 127.558263 -3.487297 " transform="matrix(2.466667, 0, 0, -2.466667, 190.848472, 37.148001)"/>
<path fill="none" stroke-width="0.3487" stroke-linecap="round" stroke-linejoin="miter" stroke="rgb(0%, 0%, 0%)" stroke-opacity="1" stroke-miterlimit="10" d="M 147.402541 -3.487297 L 147.402541 3.485359 Z M 147.402541 -3.487297 " transform="matrix(2.466667, 0, 0, -2.466667, 190.848472, 37.148001)"/>
<path fill="none" stroke-width="0.3487" stroke-linecap="round" stroke-linejoin="miter" stroke="rgb(0%, 0%, 0%)" stroke-opacity="1" stroke-miterlimit="10" d="M 167.246819 -3.487297 L 167.246819 3.485359 Z M 167.246819 -3.487297 " transform="matrix(2.466667, 0, 0, -2.466667, 190.848472, 37.148001)"/>
<path fill-rule="nonzero" fill="rgb(0%, 0%, 0%)" fill-opacity="1" d="M 337.796875 26.886719 C 337.910156 27.808594 338.566406 28.582031 339.53125 28.582031 C 340.070312 28.582031 341.457031 28.273438 341.457031 26.5 L 341.457031 25.265625 L 340.839844 25.265625 L 340.839844 26.460938 C 340.839844 26.730469 340.839844 27.808594 340.03125 27.808594 C 339.261719 27.808594 339.261719 26.769531 339.261719 26.421875 L 339.261719 22.53125 C 339.261719 21.257812 339.261719 20.527344 338.257812 19.601562 C 337.449219 18.867188 336.371094 18.558594 335.253906 18.558594 C 333.402344 18.558594 331.859375 19.484375 331.859375 20.910156 C 331.859375 21.566406 332.324219 21.953125 332.902344 21.953125 C 333.480469 21.953125 333.902344 21.527344 333.902344 20.949219 C 333.902344 19.984375 332.941406 19.871094 332.902344 19.871094 C 333.519531 19.292969 334.597656 19.101562 335.214844 19.101562 C 336.332031 19.101562 337.605469 19.949219 337.605469 21.914062 L 337.605469 22.605469 C 336.410156 22.683594 334.75 22.761719 333.285156 23.492188 C 331.667969 24.265625 331.207031 25.421875 331.207031 26.308594 C 331.207031 28.117188 333.324219 28.695312 334.828125 28.695312 C 336.640625 28.695312 337.488281 27.5 337.796875 26.886719 Z M 337.605469 25.34375 C 337.605469 27.5 335.945312 28.15625 334.984375 28.15625 C 333.941406 28.15625 332.980469 27.386719 332.980469 26.308594 C 332.980469 24.84375 334.210938 23.300781 337.605469 23.148438 Z M 337.605469 25.34375 "/>
<path fill-rule="nonzero" fill="rgb(0%, 0%, 0%)" fill-opacity="1" d="M 345.617188 21.414062 C 345.617188 20.988281 345.617188 20.949219 345.847656 20.601562 C 346.617188 19.601562 347.699219 19.253906 348.546875 19.253906 C 349.472656 19.253906 350.355469 19.753906 350.933594 20.71875 C 351.511719 21.644531 351.550781 22.953125 351.550781 23.648438 C 351.550781 24.6875 351.4375 25.882812 350.859375 26.769531 C 350.355469 27.464844 349.472656 28.15625 348.277344 28.15625 C 347.3125 28.15625 346.464844 27.617188 345.925781 26.808594 C 345.617188 26.34375 345.617188 26.308594 345.617188 25.882812 Z M 345.425781 27.117188 C 346.117188 28.078125 347.195312 28.695312 348.390625 28.695312 C 351.050781 28.695312 353.480469 26.578125 353.480469 23.6875 C 353.480469 20.910156 351.28125 18.675781 348.621094 18.675781 C 347.121094 18.675781 346.078125 19.445312 345.539062 20.0625 L 345.539062 13.125 L 342.261719 13.355469 L 342.261719 14.050781 C 343.765625 14.050781 343.960938 14.203125 343.960938 15.285156 L 343.960938 28.464844 L 344.574219 28.464844 Z M 345.425781 27.117188 "/>
<path fill-rule="nonzero" fill="rgb(0%, 0%, 0%)" fill-opacity="1" d="M 365.570312 23.761719 C 365.570312 20.871094 363.257812 18.558594 360.5625 18.558594 C 357.746094 18.558594 355.511719 20.910156 355.511719 23.761719 C 355.511719 26.5 357.785156 28.695312 360.523438 28.695312 C 363.335938 28.695312 365.570312 26.460938 365.570312 23.761719 Z M 360.5625 28.078125 C 359.441406 28.078125 358.519531 27.539062 358.015625 26.691406 C 357.4375 25.730469 357.398438 24.574219 357.398438 23.570312 C 357.398438 22.722656 357.398438 21.488281 357.941406 20.5625 C 358.632812 19.445312 359.710938 19.101562 360.523438 19.101562 C 361.792969 19.101562 362.679688 19.832031 363.144531 20.5625 C 363.644531 21.488281 363.644531 22.605469 363.644531 23.570312 C 363.644531 24.378906 363.644531 25.652344 363.105469 26.617188 C 362.488281 27.65625 361.484375 28.078125 360.5625 28.078125 Z M 360.5625 28.078125 "/>
<path fill-rule="nonzero" fill="rgb(0%, 0%, 0%)" fill-opacity="1" d="M 369.574219 20.601562 C 369.535156 20.488281 369.457031 20.332031 369.457031 20.179688 C 369.457031 19.601562 370.265625 19.601562 370.691406 19.601562 L 370.691406 18.945312 C 369.726562 18.984375 369.226562 18.984375 368.261719 18.984375 C 367.492188 18.984375 366.835938 18.984375 366.027344 18.945312 L 366.027344 19.601562 C 367.066406 19.601562 367.492188 19.601562 367.839844 20.449219 L 371.074219 28.273438 C 371.191406 28.65625 371.382812 28.695312 371.578125 28.695312 C 371.769531 28.695312 371.960938 28.65625 372.117188 28.273438 L 375.121094 21.027344 C 375.585938 19.910156 376.355469 19.640625 377.128906 19.601562 L 377.128906 18.945312 C 376.472656 18.984375 375.46875 18.984375 375.429688 18.984375 C 374.816406 18.984375 374.121094 18.984375 373.503906 18.945312 L 373.503906 19.601562 C 374.160156 19.679688 374.507812 19.984375 374.507812 20.5625 C 374.507812 20.796875 374.507812 20.835938 374.390625 21.066406 L 372.117188 26.652344 Z M 369.574219 20.601562 "/>
<path fill-rule="nonzero" fill="rgb(0%, 0%, 0%)" fill-opacity="1" d="M 385.824219 23.417969 C 386.285156 23.417969 386.402344 23.417969 386.402344 22.914062 C 386.402344 20.640625 385.167969 18.558594 382.316406 18.558594 C 379.695312 18.558594 377.613281 20.871094 377.613281 23.609375 C 377.613281 26.5 379.925781 28.695312 382.625 28.695312 C 385.320312 28.695312 386.402344 26.34375 386.402344 25.84375 C 386.402344 25.691406 386.285156 25.535156 386.09375 25.535156 C 385.859375 25.535156 385.824219 25.691406 385.785156 25.804688 C 385.050781 28.042969 383.046875 28.078125 382.738281 28.078125 C 381.660156 28.078125 380.773438 27.5 380.273438 26.730469 C 379.539062 25.652344 379.5 24.339844 379.5 23.417969 Z M 379.539062 22.875 C 379.734375 19.445312 381.699219 19.101562 382.316406 19.101562 C 383.546875 19.101562 384.859375 20.023438 384.898438 22.875 Z M 379.539062 22.875 "/>
<path fill-rule="nonzero" fill="rgb(0%, 0%, 0%)" fill-opacity="1" d="M 322.304688 67.695312 C 322.304688 67.582031 322.230469 67.503906 322.113281 67.351562 C 319.261719 64.730469 318.375 60.757812 318.375 56.867188 C 318.375 53.476562 319.03125 49.3125 322.152344 46.34375 C 322.265625 46.230469 322.304688 46.191406 322.304688 46.074219 C 322.304688 45.921875 322.191406 45.804688 322.035156 45.804688 C 321.765625 45.804688 319.761719 47.421875 318.566406 49.8125 C 317.527344 51.933594 316.988281 54.246094 316.988281 56.867188 C 316.988281 58.445312 317.179688 60.992188 318.414062 63.574219 C 319.722656 66.308594 321.765625 67.929688 322.035156 67.929688 C 322.191406 67.929688 322.304688 67.851562 322.304688 67.695312 Z M 322.304688 67.695312 "/>
<path fill-rule="nonzero" fill="rgb(0%, 0%, 0%)" fill-opacity="1" d="M 327.714844 56.671875 C 327.714844 54.285156 329.449219 53.203125 330.761719 53.203125 C 331.992188 53.203125 332.378906 54.054688 332.378906 55.59375 L 332.378906 60.71875 C 332.378906 61.722656 332.148438 61.722656 330.683594 61.722656 L 330.683594 62.417969 C 331.722656 62.378906 332.148438 62.339844 333.1875 62.339844 C 334.269531 62.339844 334.539062 62.378906 335.734375 62.417969 L 335.734375 61.722656 C 334.269531 61.722656 334 61.722656 334 60.71875 L 334 56.671875 C 334 54.285156 335.734375 53.203125 337.082031 53.203125 C 338.277344 53.203125 338.660156 54.054688 338.660156 55.59375 L 338.660156 60.71875 C 338.660156 61.722656 338.429688 61.722656 336.964844 61.722656 L 336.964844 62.417969 C 338.007812 62.378906 338.429688 62.339844 339.507812 62.339844 C 340.550781 62.339844 340.859375 62.378906 342.015625 62.417969 L 342.015625 61.722656 C 340.898438 61.722656 340.359375 61.722656 340.320312 61.027344 L 340.320312 56.789062 C 340.320312 54.863281 340.320312 54.246094 339.585938 53.4375 C 339.125 52.898438 338.238281 52.625 337.234375 52.625 C 335.617188 52.625 334.539062 53.550781 333.921875 54.746094 C 333.652344 53.4375 332.765625 52.625 330.914062 52.625 C 329.140625 52.625 328.0625 53.78125 327.601562 54.824219 L 327.5625 54.824219 L 327.5625 52.625 L 324.363281 52.898438 L 324.363281 53.550781 C 325.867188 53.550781 326.058594 53.707031 326.058594 54.824219 L 326.058594 60.71875 C 326.058594 61.722656 325.828125 61.722656 324.363281 61.722656 L 324.363281 62.417969 C 325.402344 62.378906 325.828125 62.339844 326.90625 62.339844 C 327.945312 62.339844 328.253906 62.378906 329.410156 62.417969 L 329.410156 61.722656 C 327.945312 61.722656 327.714844 61.722656 327.714844 60.71875 Z M 327.714844 56.671875 "/>
<path fill-rule="nonzero" fill="rgb(0%, 0%, 0%)" fill-opacity="1" d="M 350.089844 60.835938 C 350.203125 61.761719 350.859375 62.53125 351.824219 62.53125 C 352.363281 62.53125 353.75 62.222656 353.75 60.449219 L 353.75 59.21875 L 353.132812 59.21875 L 353.132812 60.414062 C 353.132812 60.683594 353.132812 61.761719 352.324219 61.761719 C 351.554688 61.761719 351.554688 60.71875 351.554688 60.375 L 351.554688 56.480469 C 351.554688 55.210938 351.554688 54.476562 350.550781 53.550781 C 349.742188 52.820312 348.664062 52.511719 347.546875 52.511719 C 345.695312 52.511719 344.152344 53.4375 344.152344 54.863281 C 344.152344 55.515625 344.617188 55.902344 345.195312 55.902344 C 345.773438 55.902344 346.195312 55.480469 346.195312 54.902344 C 346.195312 53.9375 345.234375 53.820312 345.195312 53.820312 C 345.8125 53.242188 346.890625 53.050781 347.507812 53.050781 C 348.625 53.050781 349.898438 53.898438 349.898438 55.863281 L 349.898438 56.558594 C 348.703125 56.636719 347.042969 56.710938 345.578125 57.445312 C 343.960938 58.214844 343.5 59.371094 343.5 60.257812 C 343.5 62.070312 345.617188 62.648438 347.121094 62.648438 C 348.933594 62.648438 349.78125 61.453125 350.089844 60.835938 Z M 349.898438 59.292969 C 349.898438 61.453125 348.238281 62.109375 347.277344 62.109375 C 346.234375 62.109375 345.273438 61.335938 345.273438 60.257812 C 345.273438 58.792969 346.503906 57.25 349.898438 57.097656 Z M 349.898438 59.292969 "/>
<path fill-rule="nonzero" fill="rgb(0%, 0%, 0%)" fill-opacity="1" d="M 357.832031 57.367188 C 357.832031 56.441406 358.0625 53.203125 360.605469 53.203125 C 360.570312 53.242188 360.222656 53.511719 360.222656 54.015625 C 360.222656 54.632812 360.683594 55.015625 361.183594 55.015625 C 361.648438 55.015625 362.148438 54.667969 362.148438 54.015625 C 362.148438 53.320312 361.492188 52.625 360.492188 52.625 C 359.179688 52.625 358.257812 53.550781 357.714844 54.9375 L 357.714844 52.625 L 354.554688 52.898438 L 354.554688 53.550781 C 356.058594 53.550781 356.253906 53.707031 356.253906 54.824219 L 356.253906 60.71875 C 356.253906 61.722656 356.019531 61.722656 354.554688 61.722656 L 354.554688 62.417969 C 355.75 62.378906 356.019531 62.339844 357.136719 62.339844 C 358.023438 62.339844 358.566406 62.378906 359.953125 62.417969 L 359.953125 61.722656 L 359.527344 61.722656 C 357.910156 61.722656 357.832031 61.492188 357.832031 60.683594 Z M 357.832031 57.367188 "/>
<path fill-rule="nonzero" fill="rgb(0%, 0%, 0%)" fill-opacity="1" d="M 366.722656 57.597656 L 366.722656 47.078125 L 363.449219 47.308594 L 363.449219 48 C 364.949219 48 365.144531 48.15625 365.144531 49.234375 L 365.144531 60.71875 C 365.144531 61.722656 364.910156 61.722656 363.449219 61.722656 L 363.449219 62.417969 C 364.410156 62.378906 364.988281 62.339844 365.914062 62.339844 C 366.800781 62.339844 367.378906 62.378906 368.378906 62.417969 L 368.378906 61.722656 C 366.917969 61.722656 366.644531 61.722656 366.644531 60.71875 L 366.644531 58.484375 L 368.074219 57.289062 L 370.230469 60.179688 C 370.578125 60.683594 370.769531 60.953125 370.769531 61.261719 C 370.769531 61.453125 370.691406 61.722656 370 61.722656 L 370 62.417969 C 371 62.378906 371.542969 62.339844 372.390625 62.339844 C 373.042969 62.339844 373.738281 62.339844 374.394531 62.417969 L 374.394531 61.722656 C 373.660156 61.722656 373.121094 61.722656 372.3125 60.644531 L 369.191406 56.367188 C 371.347656 54.515625 372.390625 53.628906 373.890625 53.550781 L 373.890625 52.898438 C 373.082031 52.933594 373.042969 52.933594 372.234375 52.933594 C 371.578125 52.933594 371 52.933594 369.808594 52.898438 L 369.808594 53.550781 C 370.152344 53.589844 370.386719 53.746094 370.386719 54.089844 C 370.386719 54.515625 370.039062 54.824219 369.84375 54.976562 Z M 366.722656 57.597656 "/>
<path fill-rule="nonzero" fill="rgb(0%, 0%, 0%)" fill-opacity="1" d="M 381.109375 58.332031 L 381.109375 56.945312 L 375.019531 56.945312 L 375.019531 58.332031 Z M 381.109375 58.332031 "/>
<path fill-rule="nonzero" fill="rgb(0%, 0%, 0%)" fill-opacity="1" d="M 383.019531 58.0625 L 383.019531 58.753906 L 389.035156 58.753906 L 389.035156 60.683594 C 389.035156 61.492188 388.996094 61.722656 387.335938 61.722656 L 386.835938 61.722656 L 386.835938 62.417969 C 388.222656 62.339844 389.765625 62.339844 389.921875 62.339844 C 390.035156 62.339844 391.65625 62.339844 393.042969 62.417969 L 393.042969 61.722656 L 392.539062 61.722656 C 390.882812 61.722656 390.804688 61.492188 390.804688 60.683594 L 390.804688 58.753906 L 393.082031 58.753906 L 393.082031 58.0625 L 390.804688 58.0625 L 390.804688 48.039062 C 390.804688 47.578125 390.804688 47.421875 390.382812 47.421875 C 390.113281 47.421875 390.113281 47.460938 389.921875 47.769531 Z M 383.714844 58.0625 L 389.1875 49.890625 L 389.1875 58.0625 Z M 383.714844 58.0625 "/>
<path fill-rule="nonzero" fill="rgb(0%, 0%, 0%)" fill-opacity="1" d="M 400.324219 56.867188 C 400.324219 55.054688 400.050781 52.625 398.894531 50.160156 C 397.585938 47.421875 395.542969 45.804688 395.273438 45.804688 C 395.042969 45.804688 395.003906 45.996094 395.003906 46.074219 C 395.003906 46.191406 395.042969 46.230469 395.195312 46.382812 C 396.507812 47.539062 398.933594 50.546875 398.933594 56.867188 C 398.933594 60.027344 398.355469 64.421875 395.15625 67.425781 C 395.121094 67.464844 395.003906 67.582031 395.003906 67.695312 C 395.003906 67.734375 395.042969 67.929688 395.273438 67.929688 C 395.542969 67.929688 397.546875 66.347656 398.742188 63.917969 C 399.78125 61.800781 400.324219 59.527344 400.324219 56.867188 Z M 400.324219 56.867188 "/>
</svg>
