<?xml version="1.0" encoding="UTF-8"?>
<svg xmlns="http://www.w3.org/2000/svg" xmlns:xlink="http://www.w3.org/1999/xlink" width="671.451312" height="48.055601" viewBox="0 0 671.451312 48.055601">
<path fill="none" stroke-width="0.3985" stroke-linecap="butt" stroke-linejoin="miter" stroke="rgb(0%, 0%, 0%)" stroke-opacity="1" stroke-miterlimit="10" d="M 0.00100564 -0.00139847 L 178.008818 -0.00139847 " transform="matrix(2.466667, 0, 0, -2.466667, 222.044394, 24.0278)"/>
<path fill-rule="nonzero" fill="rgb(0%, 0%, 0%)" fill-opacity="1" d="M 666.046875 24.03125 L 658.1875 20.097656 L 661.132812 24.03125 L 658.1875 27.960938 "/>
<path fill-rule="nonzero" fill="rgb(0%, 0%, 0%)" fill-opacity="1" d="M 21.277344 28.324219 C 21.390625 29.285156 22.046875 30.328125 23.203125 30.328125 C 23.742188 30.328125 25.246094 29.980469 25.246094 27.976562 L 25.246094 26.589844 L 24.628906 26.589844 L 24.628906 27.976562 C 24.628906 29.402344 24.011719 29.554688 23.742188 29.554688 C 22.933594 29.554688 22.816406 28.4375 22.816406 28.324219 L 22.816406 23.425781 C 22.816406 22.386719 22.816406 21.421875 21.929688 20.5 C 20.96875 19.535156 19.734375 19.148438 18.578125 19.148438 C 16.535156 19.148438 14.839844 20.304688 14.839844 21.925781 C 14.839844 22.65625 15.339844 23.082031 15.996094 23.082031 C 16.691406 23.082031 17.113281 22.578125 17.113281 21.964844 C 17.113281 21.65625 17 20.84375 15.84375 20.84375 C 16.535156 19.957031 17.730469 19.6875 18.5 19.6875 C 19.734375 19.6875 21.121094 20.652344 21.121094 22.847656 L 21.121094 23.734375 C 19.851562 23.8125 18.15625 23.890625 16.613281 24.621094 C 14.761719 25.46875 14.144531 26.742188 14.144531 27.820312 C 14.144531 29.824219 16.535156 30.441406 18.078125 30.441406 C 19.695312 30.441406 20.8125 29.441406 21.277344 28.324219 Z M 21.121094 24.277344 L 21.121094 26.742188 C 21.121094 29.054688 19.347656 29.902344 18.230469 29.902344 C 17.035156 29.902344 16.035156 29.054688 16.035156 27.820312 C 16.035156 26.472656 17.074219 24.429688 21.121094 24.277344 Z M 21.121094 24.277344 "/>
<path fill-rule="nonzero" fill="rgb(0%, 0%, 0%)" fill-opacity="1" d="M 28.285156 24.816406 C 28.285156 20.808594 30.289062 19.765625 31.597656 19.765625 C 31.828125 19.765625 33.371094 19.804688 34.21875 20.691406 C 33.214844 20.769531 33.0625 21.5 33.0625 21.808594 C 33.0625 22.464844 33.523438 22.925781 34.179688 22.925781 C 34.835938 22.925781 35.335938 22.542969 35.335938 21.769531 C 35.335938 20.113281 33.449219 19.148438 31.558594 19.148438 C 28.476562 19.148438 26.242188 21.808594 26.242188 24.855469 C 26.242188 28.015625 28.667969 30.441406 31.519531 30.441406 C 34.796875 30.441406 35.605469 27.472656 35.605469 27.242188 C 35.605469 27.011719 35.335938 27.011719 35.257812 27.011719 C 35.066406 27.011719 34.988281 27.089844 34.949219 27.242188 C 34.257812 29.515625 32.636719 29.824219 31.753906 29.824219 C 30.441406 29.824219 28.285156 28.785156 28.285156 24.816406 Z M 28.285156 24.816406 "/>
<path fill-rule="nonzero" fill="rgb(0%, 0%, 0%)" fill-opacity="1" d="M 45.523438 14.640625 C 45.757812 14.449219 45.949219 14.175781 45.949219 13.90625 C 45.949219 13.445312 45.523438 13.019531 45.0625 13.019531 C 44.714844 13.019531 44.445312 13.292969 44.332031 13.445312 L 41.363281 17.183594 L 41.785156 17.644531 Z M 45.523438 14.640625 "/>
<path fill-rule="nonzero" fill="rgb(0%, 0%, 0%)" fill-opacity="1" d="M 44.484375 28.324219 C 44.601562 29.285156 45.253906 30.328125 46.410156 30.328125 C 46.949219 30.328125 48.453125 29.980469 48.453125 27.976562 L 48.453125 26.589844 L 47.835938 26.589844 L 47.835938 27.976562 C 47.835938 29.402344 47.222656 29.554688 46.949219 29.554688 C 46.140625 29.554688 46.027344 28.4375 46.027344 28.324219 L 46.027344 23.425781 C 46.027344 22.386719 46.027344 21.421875 45.140625 20.5 C 44.175781 19.535156 42.941406 19.148438 41.785156 19.148438 C 39.742188 19.148438 38.046875 20.304688 38.046875 21.925781 C 38.046875 22.65625 38.550781 23.082031 39.203125 23.082031 C 39.898438 23.082031 40.320312 22.578125 40.320312 21.964844 C 40.320312 21.65625 40.207031 20.84375 39.050781 20.84375 C 39.742188 19.957031 40.9375 19.6875 41.710938 19.6875 C 42.941406 19.6875 44.332031 20.652344 44.332031 22.847656 L 44.332031 23.734375 C 43.058594 23.8125 41.363281 23.890625 39.820312 24.621094 C 37.972656 25.46875 37.355469 26.742188 37.355469 27.820312 C 37.355469 29.824219 39.742188 30.441406 41.285156 30.441406 C 42.902344 30.441406 44.023438 29.441406 44.484375 28.324219 Z M 44.332031 24.277344 L 44.332031 26.742188 C 44.332031 29.054688 42.558594 29.902344 41.441406 29.902344 C 40.246094 29.902344 39.242188 29.054688 39.242188 27.820312 C 39.242188 26.472656 40.285156 24.429688 44.332031 24.277344 Z M 44.332031 24.277344 "/>
<path fill-rule="nonzero" fill="rgb(0%, 0%, 0%)" fill-opacity="1" d="M 66.996094 22 C 67.230469 21.421875 67.652344 20.34375 69.269531 20.34375 L 69.269531 19.574219 C 68.691406 19.613281 68 19.652344 67.421875 19.652344 C 66.84375 19.652344 65.726562 19.613281 65.300781 19.574219 L 65.300781 20.34375 C 66.1875 20.34375 66.457031 20.921875 66.457031 21.386719 C 66.457031 21.617188 66.417969 21.730469 66.34375 22 L 63.796875 28.246094 L 61.0625 21.386719 C 60.90625 21.078125 60.90625 21.039062 60.90625 20.960938 C 60.90625 20.34375 61.871094 20.34375 62.332031 20.34375 L 62.332031 19.574219 C 61.5625 19.613281 60.214844 19.652344 59.636719 19.652344 C 58.980469 19.652344 57.980469 19.613281 57.246094 19.574219 L 57.246094 20.34375 C 58.789062 20.34375 58.902344 20.5 59.210938 21.230469 L 62.757812 29.980469 C 62.910156 30.328125 62.949219 30.441406 63.257812 30.441406 C 63.605469 30.441406 63.683594 30.210938 63.796875 29.980469 Z M 66.996094 22 "/>
<path fill-rule="nonzero" fill="rgb(0%, 0%, 0%)" fill-opacity="1" d="M 76.574219 28.324219 C 76.6875 29.285156 77.34375 30.328125 78.5 30.328125 C 79.039062 30.328125 80.542969 29.980469 80.542969 27.976562 L 80.542969 26.589844 L 79.925781 26.589844 L 79.925781 27.976562 C 79.925781 29.402344 79.308594 29.554688 79.039062 29.554688 C 78.230469 29.554688 78.117188 28.4375 78.117188 28.324219 L 78.117188 23.425781 C 78.117188 22.386719 78.117188 21.421875 77.230469 20.5 C 76.265625 19.535156 75.03125 19.148438 73.875 19.148438 C 71.832031 19.148438 70.136719 20.304688 70.136719 21.925781 C 70.136719 22.65625 70.636719 23.082031 71.292969 23.082031 C 71.988281 23.082031 72.410156 22.578125 72.410156 21.964844 C 72.410156 21.65625 72.296875 20.84375 71.140625 20.84375 C 71.832031 19.957031 73.027344 19.6875 73.796875 19.6875 C 75.03125 19.6875 76.417969 20.652344 76.417969 22.847656 L 76.417969 23.734375 C 75.148438 23.8125 73.453125 23.890625 71.910156 24.621094 C 70.058594 25.46875 69.445312 26.742188 69.445312 27.820312 C 69.445312 29.824219 71.832031 30.441406 73.375 30.441406 C 74.992188 30.441406 76.109375 29.441406 76.574219 28.324219 Z M 76.417969 24.277344 L 76.417969 26.742188 C 76.417969 29.054688 74.648438 29.902344 73.527344 29.902344 C 72.335938 29.902344 71.332031 29.054688 71.332031 27.820312 C 71.332031 26.472656 72.371094 24.429688 76.417969 24.277344 Z M 76.417969 24.277344 "/>
<path fill-rule="nonzero" fill="rgb(0%, 0%, 0%)" fill-opacity="1" d="M 93.226562 13.097656 L 89.683594 13.367188 L 89.683594 14.140625 C 91.417969 14.140625 91.609375 14.292969 91.609375 15.527344 L 91.609375 28.324219 C 91.609375 29.402344 91.339844 29.402344 89.683594 29.402344 L 89.683594 30.171875 C 90.492188 30.132812 91.800781 30.09375 92.417969 30.09375 C 93.035156 30.09375 94.230469 30.132812 95.15625 30.171875 L 95.15625 29.402344 C 93.5 29.402344 93.226562 29.402344 93.226562 28.324219 Z M 93.226562 13.097656 "/>
<path fill-rule="nonzero" fill="rgb(0%, 0%, 0%)" fill-opacity="1" d="M 103.871094 28.324219 C 103.988281 29.285156 104.640625 30.328125 105.796875 30.328125 C 106.335938 30.328125 107.839844 29.980469 107.839844 27.976562 L 107.839844 26.589844 L 107.222656 26.589844 L 107.222656 27.976562 C 107.222656 29.402344 106.605469 29.554688 106.335938 29.554688 C 105.527344 29.554688 105.414062 28.4375 105.414062 28.324219 L 105.414062 23.425781 C 105.414062 22.386719 105.414062 21.421875 104.527344 20.5 C 103.5625 19.535156 102.328125 19.148438 101.171875 19.148438 C 99.128906 19.148438 97.433594 20.304688 97.433594 21.925781 C 97.433594 22.65625 97.933594 23.082031 98.589844 23.082031 C 99.285156 23.082031 99.707031 22.578125 99.707031 21.964844 C 99.707031 21.65625 99.59375 20.84375 98.4375 20.84375 C 99.128906 19.957031 100.324219 19.6875 101.097656 19.6875 C 102.328125 19.6875 103.714844 20.652344 103.714844 22.847656 L 103.714844 23.734375 C 102.445312 23.8125 100.75 23.890625 99.207031 24.621094 C 97.355469 25.46875 96.742188 26.742188 96.742188 27.820312 C 96.742188 29.824219 99.128906 30.441406 100.671875 30.441406 C 102.289062 30.441406 103.410156 29.441406 103.871094 28.324219 Z M 103.714844 24.277344 L 103.714844 26.742188 C 103.714844 29.054688 101.945312 29.902344 100.824219 29.902344 C 99.632812 29.902344 98.628906 29.054688 98.628906 27.820312 C 98.628906 26.472656 99.667969 24.429688 103.714844 24.277344 Z M 103.714844 24.277344 "/>
<path fill-rule="nonzero" fill="rgb(0%, 0%, 0%)" fill-opacity="1" d="M 118.90625 23.96875 C 119.0625 20.304688 121.140625 19.6875 121.992188 19.6875 C 124.496094 19.6875 124.765625 23.003906 124.765625 23.96875 Z M 118.90625 24.507812 L 125.765625 24.507812 C 126.308594 24.507812 126.382812 24.507812 126.382812 23.96875 C 126.382812 21.539062 125.035156 19.148438 121.992188 19.148438 C 119.136719 19.148438 116.863281 21.691406 116.863281 24.777344 C 116.863281 28.050781 119.445312 30.441406 122.261719 30.441406 C 125.265625 30.441406 126.382812 27.707031 126.382812 27.242188 C 126.382812 27.011719 126.191406 26.933594 126.039062 26.933594 C 125.84375 26.933594 125.765625 27.089844 125.730469 27.28125 C 124.882812 29.824219 122.644531 29.824219 122.414062 29.824219 C 121.179688 29.824219 120.21875 29.09375 119.640625 28.167969 C 118.90625 27.011719 118.90625 25.394531 118.90625 24.507812 Z M 118.90625 24.507812 "/>
<path fill-rule="nonzero" fill="rgb(0%, 0%, 0%)" fill-opacity="1" d="M 131.355469 20.34375 L 134.902344 20.34375 L 134.902344 19.574219 L 131.355469 19.574219 L 131.355469 15.0625 L 130.738281 15.0625 C 130.738281 17.066406 130.007812 19.6875 127.578125 19.804688 L 127.578125 20.34375 L 129.660156 20.34375 L 129.660156 27.128906 C 129.660156 30.132812 131.972656 30.441406 132.859375 30.441406 C 134.59375 30.441406 135.285156 28.707031 135.285156 27.128906 L 135.285156 25.738281 L 134.671875 25.738281 L 134.671875 27.089844 C 134.671875 28.902344 133.9375 29.824219 133.011719 29.824219 C 131.355469 29.824219 131.355469 27.589844 131.355469 27.167969 Z M 131.355469 20.34375 "/>
<path fill-rule="nonzero" fill="rgb(0%, 0%, 0%)" fill-opacity="1" d="M 141.027344 19.304688 L 137.597656 19.574219 L 137.597656 20.34375 C 139.179688 20.34375 139.410156 20.5 139.410156 21.691406 L 139.410156 28.324219 C 139.410156 29.402344 139.140625 29.402344 137.480469 29.402344 L 137.480469 30.171875 C 138.253906 30.132812 139.601562 30.09375 140.179688 30.09375 C 141.066406 30.09375 141.914062 30.132812 142.761719 30.171875 L 142.761719 29.402344 C 141.105469 29.402344 141.027344 29.285156 141.027344 28.324219 Z M 141.105469 15.027344 C 141.105469 14.253906 140.527344 13.714844 139.832031 13.714844 C 139.0625 13.714844 138.523438 14.371094 138.523438 15.027344 C 138.523438 15.679688 139.0625 16.335938 139.832031 16.335938 C 140.527344 16.335938 141.105469 15.796875 141.105469 15.027344 Z M 141.105469 15.027344 "/>
<path fill-rule="nonzero" fill="rgb(0%, 0%, 0%)" fill-opacity="1" d="M 152.800781 28.667969 L 152.800781 33.0625 C 152.800781 34.179688 152.53125 34.179688 150.914062 34.179688 L 150.914062 34.953125 C 151.722656 34.914062 153.035156 34.875 153.648438 34.875 C 154.304688 34.875 155.578125 34.914062 156.425781 34.953125 L 156.425781 34.179688 C 154.769531 34.179688 154.496094 34.179688 154.496094 33.0625 L 154.496094 19.304688 L 153.957031 19.304688 L 153.035156 21.539062 C 152.726562 20.84375 151.722656 19.304688 149.757812 19.304688 C 146.90625 19.304688 144.324219 21.691406 144.324219 24.890625 C 144.324219 27.976562 146.710938 30.441406 149.566406 30.441406 C 151.261719 30.441406 152.261719 29.402344 152.800781 28.667969 Z M 152.878906 23.351562 L 152.878906 26.820312 C 152.878906 27.628906 152.457031 28.324219 151.914062 28.902344 C 151.605469 29.246094 150.796875 29.902344 149.640625 29.902344 C 147.867188 29.902344 146.367188 27.707031 146.367188 24.890625 C 146.367188 21.964844 148.0625 19.921875 149.910156 19.921875 C 151.878906 19.921875 152.878906 22.039062 152.878906 23.351562 Z M 152.878906 23.351562 "/>
<path fill-rule="nonzero" fill="rgb(0%, 0%, 0%)" fill-opacity="1" d="M 166.042969 28.246094 L 166.042969 30.441406 L 169.589844 30.171875 L 169.589844 29.402344 C 167.890625 29.402344 167.699219 29.246094 167.699219 28.015625 L 167.699219 19.304688 L 164.078125 19.574219 L 164.078125 20.34375 C 165.773438 20.34375 166.003906 20.5 166.003906 21.730469 L 166.003906 26.085938 C 166.003906 28.246094 164.808594 29.902344 162.996094 29.902344 C 160.953125 29.902344 160.839844 28.746094 160.839844 27.472656 L 160.839844 19.304688 L 157.214844 19.574219 L 157.214844 20.34375 C 159.144531 20.34375 159.144531 20.421875 159.144531 22.578125 L 159.144531 26.28125 C 159.144531 28.207031 159.144531 30.441406 162.882812 30.441406 C 164.269531 30.441406 165.347656 29.75 166.042969 28.246094 Z M 166.042969 28.246094 "/>
<path fill-rule="nonzero" fill="rgb(0%, 0%, 0%)" fill-opacity="1" d="M 172.835938 23.96875 C 172.988281 20.304688 175.070312 19.6875 175.917969 19.6875 C 178.425781 19.6875 178.695312 23.003906 178.695312 23.96875 Z M 172.835938 24.507812 L 179.695312 24.507812 C 180.234375 24.507812 180.3125 24.507812 180.3125 23.96875 C 180.3125 21.539062 178.964844 19.148438 175.917969 19.148438 C 173.066406 19.148438 170.792969 21.691406 170.792969 24.777344 C 170.792969 28.050781 173.375 30.441406 176.1875 30.441406 C 179.195312 30.441406 180.3125 27.707031 180.3125 27.242188 C 180.3125 27.011719 180.121094 26.933594 179.964844 26.933594 C 179.773438 26.933594 179.695312 27.089844 179.65625 27.28125 C 178.808594 29.824219 176.574219 29.824219 176.34375 29.824219 C 175.109375 29.824219 174.144531 29.09375 173.566406 28.167969 C 172.835938 27.011719 172.835938 25.394531 172.835938 24.507812 Z M 172.835938 24.507812 "/>
<path fill-rule="nonzero" fill="rgb(0%, 0%, 0%)" fill-opacity="1" d="M 185.257812 20.34375 L 188.804688 20.34375 L 188.804688 19.574219 L 185.257812 19.574219 L 185.257812 15.0625 L 184.644531 15.0625 C 184.644531 17.066406 183.910156 19.6875 181.480469 19.804688 L 181.480469 20.34375 L 183.5625 20.34375 L 183.5625 27.128906 C 183.5625 30.132812 185.875 30.441406 186.761719 30.441406 C 188.496094 30.441406 189.191406 28.707031 189.191406 27.128906 L 189.191406 25.738281 L 188.574219 25.738281 L 188.574219 27.089844 C 188.574219 28.902344 187.839844 29.824219 186.917969 29.824219 C 185.257812 29.824219 185.257812 27.589844 185.257812 27.167969 Z M 185.257812 20.34375 "/>
<path fill-rule="nonzero" fill="rgb(0%, 0%, 0%)" fill-opacity="1" d="M 198.746094 28.324219 C 198.863281 29.285156 199.519531 30.328125 200.675781 30.328125 C 201.214844 30.328125 202.71875 29.980469 202.71875 27.976562 L 202.71875 26.589844 L 202.101562 26.589844 L 202.101562 27.976562 C 202.101562 29.402344 201.484375 29.554688 201.214844 29.554688 C 200.40625 29.554688 200.289062 28.4375 200.289062 28.324219 L 200.289062 23.425781 C 200.289062 22.386719 200.289062 21.421875 199.402344 20.5 C 198.4375 19.535156 197.207031 19.148438 196.050781 19.148438 C 194.007812 19.148438 192.3125 20.304688 192.3125 21.925781 C 192.3125 22.65625 192.8125 23.082031 193.46875 23.082031 C 194.160156 23.082031 194.585938 22.578125 194.585938 21.964844 C 194.585938 21.65625 194.46875 20.84375 193.3125 20.84375 C 194.007812 19.957031 195.203125 19.6875 195.972656 19.6875 C 197.207031 19.6875 198.59375 20.652344 198.59375 22.847656 L 198.59375 23.734375 C 197.320312 23.8125 195.625 23.890625 194.085938 24.621094 C 192.234375 25.46875 191.617188 26.742188 191.617188 27.820312 C 191.617188 29.824219 194.007812 30.441406 195.546875 30.441406 C 197.167969 30.441406 198.285156 29.441406 198.746094 28.324219 Z M 198.59375 24.277344 L 198.59375 26.742188 C 198.59375 29.054688 196.820312 29.902344 195.703125 29.902344 C 194.507812 29.902344 193.507812 29.054688 193.507812 27.820312 C 193.507812 26.472656 194.546875 24.429688 198.59375 24.277344 Z M 198.59375 24.277344 "/>
</svg>
