<?xml version="1.0" encoding="UTF-8"?>
<svg xmlns="http://www.w3.org/2000/svg" xmlns:xlink="http://www.w3.org/1999/xlink" width="603.886867" height="158.463592" viewBox="0 0 603.886867 158.463592">
<defs>
<clipPath id="clip-0">
<path clip-rule="nonzero" d="M 418 0 L 514 0 L 514 158.464844 L 418 158.464844 Z M 418 0 "/>
</clipPath>
</defs>
<path fill="none" stroke-width="0.3985" stroke-linecap="butt" stroke-linejoin="miter" stroke="rgb(0%, 0%, 0%)" stroke-opacity="1" stroke-miterlimit="10" d="M 0.00235387 -0.000589268 L 178.010166 -0.000589268 " transform="matrix(2.466667, 0, 0, -2.466667, 151.724663, 47.490734)"/>
<path fill-rule="nonzero" fill="rgb(0%, 0%, 0%)" fill-opacity="1" d="M 595.730469 47.492188 L 587.867188 43.5625 L 590.816406 47.492188 L 587.867188 51.425781 "/>
<path fill-rule="nonzero" fill="rgb(0%, 0%, 0%)" fill-opacity="1" d="M 28.328125 45.386719 C 28.753906 44.152344 29.523438 43.804688 30.410156 43.804688 L 30.410156 43.035156 C 29.832031 43.074219 29.140625 43.109375 28.597656 43.109375 C 27.867188 43.109375 26.789062 43.074219 26.324219 43.035156 L 26.324219 43.804688 C 27.210938 43.804688 27.75 44.265625 27.75 44.960938 C 27.75 45.113281 27.75 45.191406 27.597656 45.5 L 25.363281 51.78125 L 22.933594 44.921875 C 22.855469 44.613281 22.816406 44.574219 22.816406 44.460938 C 22.816406 43.804688 23.78125 43.804688 24.28125 43.804688 L 24.28125 43.035156 C 23.550781 43.074219 22.316406 43.109375 21.699219 43.109375 C 20.96875 43.109375 20.273438 43.074219 19.542969 43.035156 L 19.542969 43.804688 C 20.429688 43.804688 20.8125 43.84375 21.082031 44.152344 C 21.199219 44.304688 21.46875 45.039062 21.625 45.5 L 19.542969 51.472656 L 17.191406 44.921875 C 17.074219 44.613281 17.074219 44.574219 17.074219 44.460938 C 17.074219 43.804688 18.039062 43.804688 18.5 43.804688 L 18.5 43.035156 C 17.769531 43.074219 16.382812 43.109375 15.84375 43.109375 C 15.726562 43.109375 14.414062 43.074219 13.53125 43.035156 L 13.53125 43.804688 C 14.761719 43.804688 15.070312 43.882812 15.378906 44.652344 L 18.460938 53.363281 C 18.578125 53.710938 18.65625 53.902344 18.964844 53.902344 C 19.3125 53.902344 19.347656 53.75 19.464844 53.402344 L 21.96875 46.464844 L 24.476562 53.441406 C 24.550781 53.710938 24.628906 53.902344 24.976562 53.902344 C 25.285156 53.902344 25.363281 53.671875 25.4375 53.441406 Z M 28.328125 45.386719 "/>
<path fill-rule="nonzero" fill="rgb(0%, 0%, 0%)" fill-opacity="1" d="M 38.335938 51.78125 C 38.453125 52.746094 39.105469 53.785156 40.261719 53.785156 C 40.800781 53.785156 42.304688 53.441406 42.304688 51.4375 L 42.304688 50.046875 L 41.6875 50.046875 L 41.6875 51.4375 C 41.6875 52.863281 41.070312 53.015625 40.800781 53.015625 C 39.992188 53.015625 39.878906 51.898438 39.878906 51.78125 L 39.878906 46.886719 C 39.878906 45.847656 39.878906 44.882812 38.992188 43.957031 C 38.027344 42.996094 36.792969 42.609375 35.636719 42.609375 C 33.59375 42.609375 31.898438 43.765625 31.898438 45.386719 C 31.898438 46.117188 32.398438 46.542969 33.054688 46.542969 C 33.75 46.542969 34.171875 46.039062 34.171875 45.421875 C 34.171875 45.113281 34.058594 44.304688 32.902344 44.304688 C 33.59375 43.417969 34.789062 43.148438 35.5625 43.148438 C 36.792969 43.148438 38.179688 44.113281 38.179688 46.308594 L 38.179688 47.195312 C 36.910156 47.273438 35.214844 47.351562 33.671875 48.082031 C 31.820312 48.929688 31.207031 50.203125 31.207031 51.28125 C 31.207031 53.285156 33.59375 53.902344 35.136719 53.902344 C 36.753906 53.902344 37.875 52.902344 38.335938 51.78125 Z M 38.179688 47.734375 L 38.179688 50.203125 C 38.179688 52.515625 36.410156 53.363281 35.289062 53.363281 C 34.097656 53.363281 33.09375 52.515625 33.09375 51.28125 C 33.09375 49.933594 34.132812 47.890625 38.179688 47.734375 Z M 38.179688 47.734375 "/>
<path fill-rule="nonzero" fill="rgb(0%, 0%, 0%)" fill-opacity="1" d="M 46.691406 43.804688 L 50.238281 43.804688 L 50.238281 43.035156 L 46.691406 43.035156 L 46.691406 38.523438 L 46.074219 38.523438 C 46.074219 40.527344 45.34375 43.148438 42.914062 43.265625 L 42.914062 43.804688 L 44.996094 43.804688 L 44.996094 50.589844 C 44.996094 53.59375 47.308594 53.902344 48.195312 53.902344 C 49.929688 53.902344 50.621094 52.167969 50.621094 50.589844 L 50.621094 49.199219 L 50.007812 49.199219 L 50.007812 50.550781 C 50.007812 52.359375 49.273438 53.285156 48.347656 53.285156 C 46.691406 53.285156 46.691406 51.050781 46.691406 50.625 Z M 46.691406 43.804688 "/>
<path fill-rule="nonzero" fill="rgb(0%, 0%, 0%)" fill-opacity="1" d="M 54.746094 47.425781 C 54.898438 43.765625 56.980469 43.148438 57.828125 43.148438 C 60.335938 43.148438 60.605469 46.464844 60.605469 47.425781 Z M 54.746094 47.96875 L 61.605469 47.96875 C 62.144531 47.96875 62.222656 47.96875 62.222656 47.425781 C 62.222656 45 60.875 42.609375 57.828125 42.609375 C 54.976562 42.609375 52.703125 45.152344 52.703125 48.238281 C 52.703125 51.511719 55.285156 53.902344 58.097656 53.902344 C 61.105469 53.902344 62.222656 51.167969 62.222656 50.703125 C 62.222656 50.472656 62.03125 50.394531 61.875 50.394531 C 61.683594 50.394531 61.605469 50.550781 61.566406 50.742188 C 60.71875 53.285156 58.484375 53.285156 58.253906 53.285156 C 57.019531 53.285156 56.054688 52.554688 55.476562 51.628906 C 54.746094 50.472656 54.746094 48.855469 54.746094 47.96875 Z M 54.746094 47.96875 "/>
<path fill-rule="nonzero" fill="rgb(0%, 0%, 0%)" fill-opacity="1" d="M 67.054688 45.460938 L 67.054688 42.765625 L 63.625 43.035156 L 63.625 43.804688 C 65.359375 43.804688 65.550781 43.957031 65.550781 45.191406 L 65.550781 51.78125 C 65.550781 52.863281 65.28125 52.863281 63.625 52.863281 L 63.625 53.632812 C 64.585938 53.59375 65.742188 53.554688 66.4375 53.554688 C 67.402344 53.554688 68.558594 53.554688 69.558594 53.632812 L 69.558594 52.863281 L 69.019531 52.863281 C 67.207031 52.863281 67.167969 52.59375 67.167969 51.707031 L 67.167969 47.929688 C 67.167969 45.5 68.210938 43.304688 70.058594 43.304688 C 70.214844 43.304688 70.292969 43.304688 70.328125 43.34375 C 70.253906 43.34375 69.75 43.652344 69.75 44.304688 C 69.75 44.960938 70.292969 45.347656 70.832031 45.347656 C 71.253906 45.347656 71.871094 45.039062 71.871094 44.265625 C 71.871094 43.496094 71.101562 42.765625 70.058594 42.765625 C 68.25 42.765625 67.363281 44.421875 67.054688 45.460938 Z M 67.054688 45.460938 "/>
<path fill-rule="nonzero" fill="rgb(0%, 0%, 0%)" fill-opacity="1" d="M 88.894531 59.53125 C 88.894531 59.453125 88.894531 59.414062 88.472656 58.988281 C 85.425781 55.90625 84.617188 51.242188 84.617188 47.464844 C 84.617188 43.1875 85.542969 38.910156 88.585938 35.863281 C 88.894531 35.558594 88.894531 35.519531 88.894531 35.441406 C 88.894531 35.25 88.820312 35.171875 88.664062 35.171875 C 88.394531 35.171875 86.199219 36.867188 84.734375 39.988281 C 83.5 42.6875 83.191406 45.421875 83.191406 47.464844 C 83.191406 49.394531 83.460938 52.359375 84.8125 55.175781 C 86.3125 58.179688 88.394531 59.800781 88.664062 59.800781 C 88.820312 59.800781 88.894531 59.722656 88.894531 59.53125 Z M 88.894531 59.53125 "/>
<path fill-rule="nonzero" fill="rgb(0%, 0%, 0%)" fill-opacity="1" d="M 93.019531 45.191406 L 93.019531 51.78125 C 93.019531 52.863281 92.75 52.863281 91.089844 52.863281 L 91.089844 53.632812 C 91.976562 53.59375 93.210938 53.554688 93.90625 53.554688 C 94.523438 53.554688 95.792969 53.59375 96.640625 53.632812 L 96.640625 52.863281 C 94.984375 52.863281 94.714844 52.863281 94.714844 51.78125 L 94.714844 47.234375 C 94.714844 44.691406 96.488281 43.304688 98.027344 43.304688 C 99.609375 43.304688 99.878906 44.613281 99.878906 46.039062 L 99.878906 51.78125 C 99.878906 52.863281 99.609375 52.863281 97.953125 52.863281 L 97.953125 53.632812 C 98.800781 53.59375 100.070312 53.554688 100.726562 53.554688 C 101.34375 53.554688 102.652344 53.59375 103.464844 53.632812 L 103.464844 52.863281 C 101.84375 52.863281 101.574219 52.863281 101.574219 51.78125 L 101.574219 47.234375 C 101.574219 44.691406 103.308594 43.304688 104.890625 43.304688 C 106.429688 43.304688 106.699219 44.613281 106.699219 46.039062 L 106.699219 51.78125 C 106.699219 52.863281 106.429688 52.863281 104.773438 52.863281 L 104.773438 53.632812 C 105.621094 53.59375 106.894531 53.554688 107.546875 53.554688 C 108.203125 53.554688 109.476562 53.59375 110.324219 53.632812 L 110.324219 52.863281 C 109.050781 52.863281 108.433594 52.863281 108.398438 52.128906 L 108.398438 47.425781 C 108.398438 45.308594 108.398438 44.574219 107.625 43.6875 C 107.277344 43.265625 106.46875 42.765625 105.042969 42.765625 C 103 42.765625 101.882812 44.230469 101.496094 45.191406 C 101.152344 43.035156 99.339844 42.765625 98.222656 42.765625 C 96.410156 42.765625 95.253906 43.804688 94.558594 45.347656 L 94.558594 42.765625 L 91.089844 43.035156 L 91.089844 43.804688 C 92.824219 43.804688 93.019531 43.957031 93.019531 45.191406 Z M 93.019531 45.191406 "/>
<path fill-rule="nonzero" fill="rgb(0%, 0%, 0%)" fill-opacity="1" d="M 115.152344 36.558594 L 111.609375 36.828125 L 111.609375 37.597656 C 113.34375 37.597656 113.535156 37.753906 113.535156 38.988281 L 113.535156 51.78125 C 113.535156 52.863281 113.265625 52.863281 111.609375 52.863281 L 111.609375 53.632812 C 112.417969 53.59375 113.726562 53.554688 114.34375 53.554688 C 114.960938 53.554688 116.15625 53.59375 117.082031 53.632812 L 117.082031 52.863281 C 115.421875 52.863281 115.152344 52.863281 115.152344 51.78125 Z M 115.152344 36.558594 "/>
<path fill-rule="nonzero" fill="rgb(0%, 0%, 0%)" fill-opacity="1" d="M 124.71875 47.464844 C 124.71875 45.578125 124.445312 42.609375 123.097656 39.796875 C 121.632812 36.789062 119.515625 35.171875 119.28125 35.171875 C 119.128906 35.171875 119.011719 35.285156 119.011719 35.441406 C 119.011719 35.519531 119.011719 35.558594 119.476562 36.019531 C 121.902344 38.449219 123.289062 42.339844 123.289062 47.464844 C 123.289062 51.707031 122.40625 56.023438 119.359375 59.105469 C 119.011719 59.414062 119.011719 59.453125 119.011719 59.53125 C 119.011719 59.683594 119.128906 59.800781 119.28125 59.800781 C 119.515625 59.800781 121.75 58.105469 123.175781 54.980469 C 124.445312 52.285156 124.71875 49.546875 124.71875 47.464844 Z M 124.71875 47.464844 "/>
<path fill="none" stroke-width="0.3487" stroke-linecap="round" stroke-linejoin="miter" stroke="rgb(0%, 0%, 0%)" stroke-opacity="1" stroke-miterlimit="10" d="M 8.506366 -3.484542 L 8.506366 3.488114 Z M 8.506366 -3.484542 " transform="matrix(2.466667, 0, 0, -2.466667, 151.724663, 47.490734)"/>
<path fill="none" stroke-width="0.3487" stroke-linecap="round" stroke-linejoin="miter" stroke="rgb(0%, 0%, 0%)" stroke-opacity="1" stroke-miterlimit="10" d="M 48.188587 -3.484542 L 48.188587 3.488114 Z M 48.188587 -3.484542 " transform="matrix(2.466667, 0, 0, -2.466667, 151.724663, 47.490734)"/>
<path fill="none" stroke-width="0.3487" stroke-linecap="round" stroke-linejoin="miter" stroke="rgb(0%, 0%, 0%)" stroke-opacity="1" stroke-miterlimit="10" d="M 87.877143 -3.484542 L 87.877143 3.488114 Z M 87.877143 -3.484542 " transform="matrix(2.466667, 0, 0, -2.466667, 151.724663, 47.490734)"/>
<path fill="none" stroke-width="0.3487" stroke-linecap="round" stroke-linejoin="miter" stroke="rgb(0%, 0%, 0%)" stroke-opacity="1" stroke-miterlimit="10" d="M 127.560948 -3.484542 L 127.560948 3.488114 Z M 127.560948 -3.484542 " transform="matrix(2.466667, 0, 0, -2.466667, 151.724663, 47.490734)"/>
<path fill="none" stroke-width="0.3487" stroke-linecap="round" stroke-linejoin="miter" stroke="rgb(0%, 0%, 0%)" stroke-opacity="1" stroke-miterlimit="10" d="M 167.24792 -3.484542 L 167.24792 3.488114 Z M 167.24792 -3.484542 " transform="matrix(2.466667, 0, 0, -2.466667, 151.724663, 47.490734)"/>
<path fill-rule="nonzero" fill="rgb(0%, 0%, 0%)" fill-opacity="1" d="M 177.5 24.527344 C 177.5 23.0625 177.425781 21.132812 176.652344 19.476562 C 175.652344 17.394531 173.992188 16.894531 172.722656 16.894531 C 171.375 16.894531 169.675781 17.394531 168.714844 19.554688 C 168.019531 21.058594 167.90625 22.867188 167.90625 24.527344 C 167.90625 25.992188 167.941406 28.109375 168.90625 29.882812 C 169.945312 31.734375 171.679688 32.117188 172.683594 32.117188 C 174.109375 32.117188 175.765625 31.503906 176.691406 29.460938 C 177.347656 27.957031 177.5 26.300781 177.5 24.527344 Z M 172.722656 31.539062 C 172.027344 31.539062 170.449219 31.230469 170.023438 28.726562 C 169.792969 27.457031 169.792969 25.527344 169.792969 24.257812 C 169.792969 22.753906 169.792969 21.019531 170.0625 19.785156 C 170.523438 17.820312 171.914062 17.433594 172.683594 17.433594 C 173.53125 17.433594 174.917969 17.898438 175.34375 19.941406 C 175.574219 21.132812 175.574219 22.867188 175.574219 24.257812 C 175.574219 25.644531 175.574219 27.492188 175.34375 28.804688 C 174.878906 31.347656 173.261719 31.539062 172.722656 31.539062 Z M 172.722656 31.539062 "/>
<path fill-rule="nonzero" fill="rgb(0%, 0%, 0%)" fill-opacity="1" d="M 256.511719 24.292969 C 256.511719 22.019531 256.742188 20.789062 257.359375 19.632812 C 257.785156 18.707031 258.863281 17.433594 260.519531 17.433594 C 260.945312 17.433594 261.984375 17.511719 262.484375 18.320312 C 261.675781 18.320312 261.289062 18.746094 261.289062 19.324219 C 261.289062 19.902344 261.714844 20.363281 262.332031 20.363281 C 262.949219 20.363281 263.371094 19.941406 263.371094 19.285156 C 263.371094 18.050781 262.484375 16.894531 260.480469 16.894531 C 257.628906 16.894531 254.507812 19.707031 254.507812 24.640625 C 254.507812 30.617188 257.207031 32.117188 259.285156 32.117188 C 261.714844 32.117188 263.949219 30.039062 263.949219 27.109375 C 263.949219 24.332031 261.90625 22.175781 259.402344 22.175781 C 258.089844 22.175781 257.128906 22.984375 256.511719 24.292969 Z M 259.246094 31.503906 C 257.976562 31.503906 257.242188 30.460938 257.011719 29.804688 C 256.589844 28.804688 256.550781 26.953125 256.550781 26.605469 C 256.550781 25.144531 257.242188 22.753906 259.363281 22.753906 C 259.710938 22.753906 260.789062 22.753906 261.523438 24.101562 C 261.945312 24.949219 261.945312 26.027344 261.945312 27.109375 C 261.945312 28.148438 261.945312 29.265625 261.523438 30.074219 C 260.828125 31.347656 259.863281 31.503906 259.246094 31.503906 Z M 259.246094 31.503906 "/>
<path fill-rule="nonzero" fill="rgb(0%, 0%, 0%)" fill-opacity="1" d="M 275.394531 24.527344 C 275.394531 23.0625 275.316406 21.132812 274.546875 19.476562 C 273.542969 17.394531 271.886719 16.894531 270.613281 16.894531 C 269.265625 16.894531 267.570312 17.394531 266.605469 19.554688 C 265.910156 21.058594 265.796875 22.867188 265.796875 24.527344 C 265.796875 25.992188 265.835938 28.109375 266.796875 29.882812 C 267.839844 31.734375 269.574219 32.117188 270.574219 32.117188 C 272 32.117188 273.660156 31.503906 274.582031 29.460938 C 275.238281 27.957031 275.394531 26.300781 275.394531 24.527344 Z M 270.613281 31.539062 C 269.921875 31.539062 268.339844 31.230469 267.914062 28.726562 C 267.683594 27.457031 267.683594 25.527344 267.683594 24.257812 C 267.683594 22.753906 267.683594 21.019531 267.953125 19.785156 C 268.417969 17.820312 269.804688 17.433594 270.574219 17.433594 C 271.421875 17.433594 272.8125 17.898438 273.234375 19.941406 C 273.464844 21.132812 273.464844 22.867188 273.464844 24.257812 C 273.464844 25.644531 273.464844 27.492188 273.234375 28.804688 C 272.773438 31.347656 271.152344 31.539062 270.613281 31.539062 Z M 270.613281 31.539062 "/>
<path fill-rule="nonzero" fill="rgb(0%, 0%, 0%)" fill-opacity="1" d="M 286.757812 24.527344 C 286.757812 23.0625 286.683594 21.132812 285.910156 19.476562 C 284.910156 17.394531 283.25 16.894531 281.980469 16.894531 C 280.632812 16.894531 278.933594 17.394531 277.972656 19.554688 C 277.277344 21.058594 277.164062 22.867188 277.164062 24.527344 C 277.164062 25.992188 277.199219 28.109375 278.164062 29.882812 C 279.203125 31.734375 280.9375 32.117188 281.941406 32.117188 C 283.367188 32.117188 285.023438 31.503906 285.949219 29.460938 C 286.605469 27.957031 286.757812 26.300781 286.757812 24.527344 Z M 281.980469 31.539062 C 281.285156 31.539062 279.707031 31.230469 279.28125 28.726562 C 279.050781 27.457031 279.050781 25.527344 279.050781 24.257812 C 279.050781 22.753906 279.050781 21.019531 279.320312 19.785156 C 279.78125 17.820312 281.171875 17.433594 281.941406 17.433594 C 282.789062 17.433594 284.175781 17.898438 284.601562 19.941406 C 284.832031 21.132812 284.832031 22.867188 284.832031 24.257812 C 284.832031 25.644531 284.832031 27.492188 284.601562 28.804688 C 284.136719 31.347656 282.519531 31.539062 281.980469 31.539062 Z M 281.980469 31.539062 "/>
<path fill-rule="nonzero" fill="rgb(0%, 0%, 0%)" fill-opacity="1" d="M 352.457031 17.472656 C 352.457031 16.933594 352.457031 16.894531 351.917969 16.894531 C 350.53125 18.28125 348.488281 18.28125 347.792969 18.28125 L 347.792969 18.976562 C 348.21875 18.976562 349.566406 18.976562 350.761719 18.398438 L 350.761719 29.84375 C 350.761719 30.652344 350.722656 30.925781 348.640625 30.925781 L 347.945312 30.925781 L 347.945312 31.617188 C 348.71875 31.539062 350.722656 31.539062 351.609375 31.539062 C 352.535156 31.539062 354.5 31.539062 355.308594 31.617188 L 355.308594 30.925781 L 354.613281 30.925781 C 352.535156 30.925781 352.457031 30.652344 352.457031 29.84375 Z M 352.457031 17.472656 "/>
<path fill-rule="nonzero" fill="rgb(0%, 0%, 0%)" fill-opacity="1" d="M 367.328125 27.6875 L 366.714844 27.6875 C 366.675781 27.996094 366.480469 29.304688 366.210938 29.652344 C 366.058594 29.84375 364.554688 29.84375 364.09375 29.84375 L 360.160156 29.84375 L 362.359375 27.761719 C 365.980469 24.640625 367.328125 23.445312 367.328125 21.210938 C 367.328125 18.667969 365.25 16.894531 362.511719 16.894531 C 359.96875 16.894531 358.234375 18.898438 358.234375 20.902344 C 358.234375 22.019531 359.199219 22.136719 359.390625 22.136719 C 359.890625 22.136719 360.546875 21.789062 360.546875 20.980469 C 360.546875 20.324219 360.082031 19.824219 359.390625 19.824219 C 359.273438 19.824219 359.234375 19.824219 359.121094 19.863281 C 359.660156 18.28125 361.085938 17.589844 362.28125 17.589844 C 364.515625 17.589844 365.285156 19.667969 365.285156 21.210938 C 365.285156 23.445312 363.589844 25.296875 362.550781 26.453125 L 358.503906 30.808594 C 358.234375 31.078125 358.234375 31.117188 358.234375 31.617188 L 366.714844 31.617188 Z M 367.328125 27.6875 "/>
<path fill-rule="nonzero" fill="rgb(0%, 0%, 0%)" fill-opacity="1" d="M 378.964844 24.527344 C 378.964844 23.0625 378.886719 21.132812 378.117188 19.476562 C 377.117188 17.394531 375.457031 16.894531 374.1875 16.894531 C 372.835938 16.894531 371.140625 17.394531 370.179688 19.554688 C 369.484375 21.058594 369.367188 22.867188 369.367188 24.527344 C 369.367188 25.992188 369.40625 28.109375 370.371094 29.882812 C 371.410156 31.734375 373.144531 32.117188 374.148438 32.117188 C 375.574219 32.117188 377.230469 31.503906 378.15625 29.460938 C 378.8125 27.957031 378.964844 26.300781 378.964844 24.527344 Z M 374.1875 31.539062 C 373.492188 31.539062 371.914062 31.230469 371.488281 28.726562 C 371.257812 27.457031 371.257812 25.527344 371.257812 24.257812 C 371.257812 22.753906 371.257812 21.019531 371.527344 19.785156 C 371.988281 17.820312 373.375 17.433594 374.148438 17.433594 C 374.996094 17.433594 376.382812 17.898438 376.808594 19.941406 C 377.039062 21.132812 377.039062 22.867188 377.039062 24.257812 C 377.039062 25.644531 377.039062 27.492188 376.808594 28.804688 C 376.34375 31.347656 374.726562 31.539062 374.1875 31.539062 Z M 374.1875 31.539062 "/>
<path fill-rule="nonzero" fill="rgb(0%, 0%, 0%)" fill-opacity="1" d="M 390.332031 24.527344 C 390.332031 23.0625 390.253906 21.132812 389.484375 19.476562 C 388.480469 17.394531 386.824219 16.894531 385.550781 16.894531 C 384.203125 16.894531 382.507812 17.394531 381.542969 19.554688 C 380.851562 21.058594 380.734375 22.867188 380.734375 24.527344 C 380.734375 25.992188 380.773438 28.109375 381.738281 29.882812 C 382.777344 31.734375 384.511719 32.117188 385.515625 32.117188 C 386.941406 32.117188 388.597656 31.503906 389.523438 29.460938 C 390.175781 27.957031 390.332031 26.300781 390.332031 24.527344 Z M 385.550781 31.539062 C 384.859375 31.539062 383.277344 31.230469 382.855469 28.726562 C 382.625 27.457031 382.625 25.527344 382.625 24.257812 C 382.625 22.753906 382.625 21.019531 382.894531 19.785156 C 383.355469 17.820312 384.742188 17.433594 385.515625 17.433594 C 386.363281 17.433594 387.75 17.898438 388.171875 19.941406 C 388.40625 21.132812 388.40625 22.867188 388.40625 24.257812 C 388.40625 25.644531 388.40625 27.492188 388.171875 28.804688 C 387.710938 31.347656 386.09375 31.539062 385.550781 31.539062 Z M 385.550781 31.539062 "/>
<path fill-rule="nonzero" fill="rgb(0%, 0%, 0%)" fill-opacity="1" d="M 450.347656 17.472656 C 450.347656 16.933594 450.347656 16.894531 449.804688 16.894531 C 448.417969 18.28125 446.375 18.28125 445.683594 18.28125 L 445.683594 18.976562 C 446.105469 18.976562 447.457031 18.976562 448.648438 18.398438 L 448.648438 29.84375 C 448.648438 30.652344 448.613281 30.925781 446.53125 30.925781 L 445.835938 30.925781 L 445.835938 31.617188 C 446.609375 31.539062 448.613281 31.539062 449.5 31.539062 C 450.421875 31.539062 452.390625 31.539062 453.199219 31.617188 L 453.199219 30.925781 L 452.503906 30.925781 C 450.421875 30.925781 450.347656 30.652344 450.347656 29.84375 Z M 450.347656 17.472656 "/>
<path fill-rule="nonzero" fill="rgb(0%, 0%, 0%)" fill-opacity="1" d="M 458.820312 21.558594 C 458.167969 21.132812 457.625 20.554688 457.625 19.746094 C 457.625 18.28125 459.167969 17.433594 460.632812 17.433594 C 462.367188 17.433594 463.714844 18.628906 463.714844 20.171875 C 463.714844 21.710938 462.40625 22.753906 461.519531 23.253906 Z M 462.058594 23.601562 C 463.175781 23.0625 464.796875 21.980469 464.796875 20.171875 C 464.796875 18.089844 462.714844 16.894531 460.710938 16.894531 C 458.398438 16.894531 456.585938 18.550781 456.585938 20.59375 C 456.585938 21.402344 456.894531 22.214844 457.433594 22.867188 C 457.78125 23.292969 457.933594 23.371094 459.207031 24.179688 C 457.28125 25.105469 455.96875 26.453125 455.96875 28.265625 C 455.96875 30.617188 458.28125 32.117188 460.671875 32.117188 C 463.253906 32.117188 465.414062 30.308594 465.414062 27.917969 C 465.414062 25.757812 463.753906 24.679688 463.214844 24.332031 C 462.984375 24.179688 462.328125 23.753906 462.058594 23.601562 Z M 459.824219 24.566406 L 462.597656 26.300781 C 463.101562 26.605469 464.21875 27.339844 464.21875 28.6875 C 464.21875 30.421875 462.445312 31.503906 460.710938 31.503906 C 458.78125 31.503906 457.164062 30.113281 457.164062 28.265625 C 457.164062 26.683594 458.242188 25.375 459.824219 24.566406 Z M 459.824219 24.566406 "/>
<path fill-rule="nonzero" fill="rgb(0%, 0%, 0%)" fill-opacity="1" d="M 476.855469 24.527344 C 476.855469 23.0625 476.777344 21.132812 476.007812 19.476562 C 475.003906 17.394531 473.347656 16.894531 472.074219 16.894531 C 470.726562 16.894531 469.03125 17.394531 468.066406 19.554688 C 467.375 21.058594 467.257812 22.867188 467.257812 24.527344 C 467.257812 25.992188 467.296875 28.109375 468.261719 29.882812 C 469.300781 31.734375 471.035156 32.117188 472.039062 32.117188 C 473.464844 32.117188 475.121094 31.503906 476.046875 29.460938 C 476.699219 27.957031 476.855469 26.300781 476.855469 24.527344 Z M 472.074219 31.539062 C 471.382812 31.539062 469.800781 31.230469 469.378906 28.726562 C 469.148438 27.457031 469.148438 25.527344 469.148438 24.257812 C 469.148438 22.753906 469.148438 21.019531 469.417969 19.785156 C 469.878906 17.820312 471.265625 17.433594 472.039062 17.433594 C 472.886719 17.433594 474.273438 17.898438 474.695312 19.941406 C 474.929688 21.132812 474.929688 22.867188 474.929688 24.257812 C 474.929688 25.644531 474.929688 27.492188 474.695312 28.804688 C 474.234375 31.347656 472.617188 31.539062 472.074219 31.539062 Z M 472.074219 31.539062 "/>
<path fill-rule="nonzero" fill="rgb(0%, 0%, 0%)" fill-opacity="1" d="M 488.222656 24.527344 C 488.222656 23.0625 488.144531 21.132812 487.375 19.476562 C 486.371094 17.394531 484.714844 16.894531 483.441406 16.894531 C 482.09375 16.894531 480.398438 17.394531 479.433594 19.554688 C 478.738281 21.058594 478.625 22.867188 478.625 24.527344 C 478.625 25.992188 478.664062 28.109375 479.625 29.882812 C 480.667969 31.734375 482.402344 32.117188 483.402344 32.117188 C 484.828125 32.117188 486.488281 31.503906 487.410156 29.460938 C 488.066406 27.957031 488.222656 26.300781 488.222656 24.527344 Z M 483.441406 31.539062 C 482.75 31.539062 481.167969 31.230469 480.742188 28.726562 C 480.511719 27.457031 480.511719 25.527344 480.511719 24.257812 C 480.511719 22.753906 480.511719 21.019531 480.78125 19.785156 C 481.246094 17.820312 482.632812 17.433594 483.402344 17.433594 C 484.25 17.433594 485.640625 17.898438 486.0625 19.941406 C 486.292969 21.132812 486.292969 22.867188 486.292969 24.257812 C 486.292969 25.644531 486.292969 27.492188 486.0625 28.804688 C 485.601562 31.347656 483.980469 31.539062 483.441406 31.539062 Z M 483.441406 31.539062 "/>
<path fill-rule="nonzero" fill="rgb(0%, 0%, 0%)" fill-opacity="1" d="M 551.742188 27.6875 L 551.125 27.6875 C 551.085938 27.996094 550.894531 29.304688 550.625 29.652344 C 550.472656 29.84375 548.96875 29.84375 548.503906 29.84375 L 544.574219 29.84375 L 546.769531 27.761719 C 550.394531 24.640625 551.742188 23.445312 551.742188 21.210938 C 551.742188 18.667969 549.660156 16.894531 546.925781 16.894531 C 544.382812 16.894531 542.648438 18.898438 542.648438 20.902344 C 542.648438 22.019531 543.609375 22.136719 543.804688 22.136719 C 544.304688 22.136719 544.960938 21.789062 544.960938 20.980469 C 544.960938 20.324219 544.496094 19.824219 543.804688 19.824219 C 543.6875 19.824219 543.648438 19.824219 543.535156 19.863281 C 544.074219 18.28125 545.5 17.589844 546.695312 17.589844 C 548.929688 17.589844 549.699219 19.667969 549.699219 21.210938 C 549.699219 23.445312 548.003906 25.296875 546.964844 26.453125 L 542.917969 30.808594 C 542.648438 31.078125 542.648438 31.117188 542.648438 31.617188 L 551.125 31.617188 Z M 551.742188 27.6875 "/>
<path fill-rule="nonzero" fill="rgb(0%, 0%, 0%)" fill-opacity="1" d="M 553.550781 27.261719 L 553.550781 27.957031 L 559.5625 27.957031 L 559.5625 29.882812 C 559.5625 30.691406 559.523438 30.925781 557.867188 30.925781 L 557.367188 30.925781 L 557.367188 31.617188 C 558.753906 31.539062 560.296875 31.539062 560.449219 31.539062 C 560.566406 31.539062 562.183594 31.539062 563.570312 31.617188 L 563.570312 30.925781 L 563.070312 30.925781 C 561.414062 30.925781 561.335938 30.691406 561.335938 29.882812 L 561.335938 27.957031 L 563.609375 27.957031 L 563.609375 27.261719 L 561.335938 27.261719 L 561.335938 17.242188 C 561.335938 16.777344 561.335938 16.625 560.914062 16.625 C 560.640625 16.625 560.640625 16.664062 560.449219 16.972656 Z M 554.246094 27.261719 L 559.71875 19.089844 L 559.71875 27.261719 Z M 554.246094 27.261719 "/>
<path fill-rule="nonzero" fill="rgb(0%, 0%, 0%)" fill-opacity="1" d="M 574.746094 24.527344 C 574.746094 23.0625 574.667969 21.132812 573.898438 19.476562 C 572.894531 17.394531 571.238281 16.894531 569.964844 16.894531 C 568.617188 16.894531 566.921875 17.394531 565.957031 19.554688 C 565.261719 21.058594 565.148438 22.867188 565.148438 24.527344 C 565.148438 25.992188 565.1875 28.109375 566.148438 29.882812 C 567.191406 31.734375 568.925781 32.117188 569.925781 32.117188 C 571.351562 32.117188 573.011719 31.503906 573.933594 29.460938 C 574.589844 27.957031 574.746094 26.300781 574.746094 24.527344 Z M 569.964844 31.539062 C 569.273438 31.539062 567.691406 31.230469 567.269531 28.726562 C 567.035156 27.457031 567.035156 25.527344 567.035156 24.257812 C 567.035156 22.753906 567.035156 21.019531 567.304688 19.785156 C 567.769531 17.820312 569.15625 17.433594 569.925781 17.433594 C 570.773438 17.433594 572.164062 17.898438 572.585938 19.941406 C 572.816406 21.132812 572.816406 22.867188 572.816406 24.257812 C 572.816406 25.644531 572.816406 27.492188 572.585938 28.804688 C 572.125 31.347656 570.503906 31.539062 569.964844 31.539062 Z M 569.964844 31.539062 "/>
<path fill-rule="nonzero" fill="rgb(0%, 0%, 0%)" fill-opacity="1" d="M 586.109375 24.527344 C 586.109375 23.0625 586.035156 21.132812 585.261719 19.476562 C 584.261719 17.394531 582.605469 16.894531 581.332031 16.894531 C 579.984375 16.894531 578.285156 17.394531 577.324219 19.554688 C 576.628906 21.058594 576.515625 22.867188 576.515625 24.527344 C 576.515625 25.992188 576.550781 28.109375 577.515625 29.882812 C 578.558594 31.734375 580.292969 32.117188 581.292969 32.117188 C 582.71875 32.117188 584.375 31.503906 585.300781 29.460938 C 585.957031 27.957031 586.109375 26.300781 586.109375 24.527344 Z M 581.332031 31.539062 C 580.636719 31.539062 579.058594 31.230469 578.632812 28.726562 C 578.402344 27.457031 578.402344 25.527344 578.402344 24.257812 C 578.402344 22.753906 578.402344 21.019531 578.671875 19.785156 C 579.136719 17.820312 580.523438 17.433594 581.292969 17.433594 C 582.140625 17.433594 583.527344 17.898438 583.953125 19.941406 C 584.183594 21.132812 584.183594 22.867188 584.183594 24.257812 C 584.183594 25.644531 584.183594 27.492188 583.953125 28.804688 C 583.488281 31.347656 581.871094 31.539062 581.332031 31.539062 Z M 581.332031 31.539062 "/>
<path fill="none" stroke-width="0.3985" stroke-linecap="butt" stroke-linejoin="miter" stroke="rgb(0%, 0%, 0%)" stroke-opacity="1" stroke-miterlimit="10" d="M 0.00235387 -25.735914 L 178.010166 -25.735914 " transform="matrix(2.466667, 0, 0, -2.466667, 151.724663, 47.490734)"/>
<path fill-rule="nonzero" fill="rgb(0%, 0%, 0%)" fill-opacity="1" d="M 595.730469 110.972656 L 587.867188 107.039062 L 590.816406 110.972656 L 587.867188 114.910156 "/>
<path fill="none" stroke-width="0.3487" stroke-linecap="round" stroke-linejoin="miter" stroke="rgb(0%, 0%, 0%)" stroke-opacity="1" stroke-miterlimit="10" d="M 8.506366 -29.223034 L 8.506366 -22.250378 Z M 8.506366 -29.223034 " transform="matrix(2.466667, 0, 0, -2.466667, 151.724663, 47.490734)"/>
<path fill="none" stroke-width="0.3487" stroke-linecap="round" stroke-linejoin="miter" stroke="rgb(0%, 0%, 0%)" stroke-opacity="1" stroke-miterlimit="10" d="M 48.188587 -29.223034 L 48.188587 -22.250378 Z M 48.188587 -29.223034 " transform="matrix(2.466667, 0, 0, -2.466667, 151.724663, 47.490734)"/>
<path fill="none" stroke-width="0.3487" stroke-linecap="round" stroke-linejoin="miter" stroke="rgb(0%, 0%, 0%)" stroke-opacity="1" stroke-miterlimit="10" d="M 87.877143 -29.223034 L 87.877143 -22.250378 Z M 87.877143 -29.223034 " transform="matrix(2.466667, 0, 0, -2.466667, 151.724663, 47.490734)"/>
<path fill="none" stroke-width="0.3487" stroke-linecap="round" stroke-linejoin="miter" stroke="rgb(0%, 0%, 0%)" stroke-opacity="1" stroke-miterlimit="10" d="M 127.560948 -29.223034 L 127.560948 -22.250378 Z M 127.560948 -29.223034 " transform="matrix(2.466667, 0, 0, -2.466667, 151.724663, 47.490734)"/>
<path fill="none" stroke-width="0.3487" stroke-linecap="round" stroke-linejoin="miter" stroke="rgb(0%, 0%, 0%)" stroke-opacity="1" stroke-miterlimit="10" d="M 167.24792 -29.223034 L 167.24792 -22.250378 Z M 167.24792 -29.223034 " transform="matrix(2.466667, 0, 0, -2.466667, 151.724663, 47.490734)"/>
<path fill-rule="nonzero" fill="rgb(0%, 0%, 0%)" fill-opacity="1" d="M 168.03125 133.507812 C 168.03125 132.042969 167.953125 130.117188 167.183594 128.460938 C 166.183594 126.378906 164.523438 125.878906 163.253906 125.878906 C 161.902344 125.878906 160.207031 126.378906 159.246094 128.535156 C 158.550781 130.039062 158.433594 131.851562 158.433594 133.507812 C 158.433594 134.972656 158.472656 137.09375 159.4375 138.867188 C 160.476562 140.714844 162.210938 141.101562 163.214844 141.101562 C 164.640625 141.101562 166.296875 140.484375 167.222656 138.441406 C 167.878906 136.9375 168.03125 135.28125 168.03125 133.507812 Z M 163.253906 140.523438 C 162.558594 140.523438 160.980469 140.214844 160.554688 137.710938 C 160.324219 136.4375 160.324219 134.511719 160.324219 133.238281 C 160.324219 131.734375 160.324219 130 160.59375 128.769531 C 161.054688 126.800781 162.441406 126.417969 163.214844 126.417969 C 164.0625 126.417969 165.449219 126.878906 165.875 128.921875 C 166.105469 130.117188 166.105469 131.851562 166.105469 133.238281 C 166.105469 134.625 166.105469 136.476562 165.875 137.785156 C 165.410156 140.332031 163.792969 140.523438 163.253906 140.523438 Z M 163.253906 140.523438 "/>
<path fill-rule="nonzero" fill="rgb(0%, 0%, 0%)" fill-opacity="1" d="M 184.484375 124.875 C 184.601562 124.722656 184.679688 124.644531 184.679688 124.488281 C 184.679688 124.179688 184.410156 123.988281 184.214844 123.988281 C 183.945312 123.988281 183.832031 124.144531 183.714844 124.335938 C 182.289062 126.183594 180.4375 126.457031 179.4375 126.457031 C 177.277344 126.457031 175.851562 125.375 175.082031 124.644531 C 174.503906 124.105469 173.925781 123.988281 173.5 123.988281 C 171.804688 123.988281 170.1875 125.839844 170.1875 128.460938 C 170.1875 131.15625 171.84375 132.929688 173.5 132.929688 C 175.160156 132.929688 176.46875 130.964844 176.46875 128.460938 C 176.46875 128.152344 176.46875 127.148438 176.042969 126.070312 C 177.394531 126.839844 178.664062 126.996094 179.4375 126.996094 C 180.398438 126.996094 181.402344 126.761719 182.328125 126.261719 L 182.367188 126.300781 L 172.269531 140.910156 C 172.269531 140.945312 172.074219 141.179688 172.074219 141.371094 C 172.074219 141.640625 172.304688 141.832031 172.574219 141.832031 C 172.808594 141.832031 172.921875 141.679688 173.039062 141.488281 Z M 173.578125 132.351562 C 173.078125 132.351562 171.652344 132.082031 171.652344 128.460938 C 171.652344 124.835938 173.078125 124.566406 173.578125 124.566406 C 174.734375 124.566406 175.851562 126.183594 175.851562 128.460938 C 175.851562 130.808594 174.695312 132.351562 173.578125 132.351562 Z M 186.566406 137.402344 C 186.566406 134.820312 185.21875 132.929688 183.597656 132.929688 C 181.902344 132.929688 180.246094 134.742188 180.246094 137.363281 C 180.246094 140.058594 181.941406 141.832031 183.597656 141.832031 C 185.257812 141.832031 186.566406 139.90625 186.566406 137.402344 Z M 183.636719 141.292969 C 183.175781 141.292969 181.710938 140.984375 181.710938 137.402344 C 181.710938 133.738281 183.175781 133.46875 183.636719 133.46875 C 184.832031 133.46875 185.949219 135.128906 185.949219 137.363281 C 185.949219 139.714844 184.792969 141.292969 183.636719 141.292969 Z M 183.636719 141.292969 "/>
<path fill-rule="nonzero" fill="rgb(0%, 0%, 0%)" fill-opacity="1" d="M 259.96875 136.667969 L 259.351562 136.667969 C 259.3125 136.976562 259.121094 138.289062 258.851562 138.632812 C 258.695312 138.828125 257.195312 138.828125 256.730469 138.828125 L 252.800781 138.828125 L 254.996094 136.746094 C 258.621094 133.625 259.96875 132.429688 259.96875 130.195312 C 259.96875 127.648438 257.886719 125.878906 255.152344 125.878906 C 252.605469 125.878906 250.871094 127.882812 250.871094 129.886719 C 250.871094 131.003906 251.835938 131.117188 252.027344 131.117188 C 252.53125 131.117188 253.183594 130.773438 253.183594 129.960938 C 253.183594 129.308594 252.722656 128.804688 252.027344 128.804688 C 251.914062 128.804688 251.875 128.804688 251.757812 128.84375 C 252.296875 127.265625 253.726562 126.570312 254.917969 126.570312 C 257.15625 126.570312 257.925781 128.652344 257.925781 130.195312 C 257.925781 132.429688 256.230469 134.277344 255.1875 135.433594 L 251.140625 139.789062 C 250.871094 140.058594 250.871094 140.097656 250.871094 140.601562 L 259.351562 140.601562 Z M 259.96875 136.667969 "/>
<path fill-rule="nonzero" fill="rgb(0%, 0%, 0%)" fill-opacity="1" d="M 263.433594 132.96875 C 263.433594 133.355469 263.433594 133.625 263.742188 133.625 C 263.894531 133.625 263.972656 133.507812 264.089844 133.316406 C 264.78125 132.390625 265.824219 131.851562 266.980469 131.851562 C 269.367188 131.851562 269.367188 135.28125 269.367188 136.050781 C 269.367188 136.746094 269.367188 138.132812 268.714844 139.136719 C 268.136719 140.058594 267.210938 140.484375 266.324219 140.484375 C 265.050781 140.484375 263.550781 139.636719 263.007812 138.019531 C 263.046875 138.019531 263.164062 138.054688 263.316406 138.054688 C 263.78125 138.054688 264.433594 137.785156 264.433594 136.976562 C 264.433594 136.285156 263.933594 135.898438 263.316406 135.898438 C 262.855469 135.898438 262.238281 136.167969 262.238281 137.054688 C 262.238281 139.058594 263.933594 141.101562 266.402344 141.101562 C 269.058594 141.101562 271.335938 138.902344 271.335938 136.167969 C 271.335938 133.507812 269.445312 131.3125 267.019531 131.3125 C 265.976562 131.3125 264.898438 131.660156 264.089844 132.46875 L 264.089844 128.113281 C 264.78125 128.304688 265.476562 128.421875 266.132812 128.421875 C 268.867188 128.421875 270.449219 126.457031 270.449219 126.148438 C 270.449219 125.953125 270.332031 125.878906 270.214844 125.878906 C 270.179688 125.878906 270.140625 125.878906 269.910156 125.992188 C 268.867188 126.378906 267.867188 126.570312 266.941406 126.570312 C 265.976562 126.570312 264.976562 126.378906 263.972656 125.992188 C 263.742188 125.878906 263.703125 125.878906 263.703125 125.878906 C 263.433594 125.878906 263.433594 126.070312 263.433594 126.457031 Z M 263.433594 132.96875 "/>
<path fill-rule="nonzero" fill="rgb(0%, 0%, 0%)" fill-opacity="1" d="M 288.058594 124.875 C 288.171875 124.722656 288.25 124.644531 288.25 124.488281 C 288.25 124.179688 287.980469 123.988281 287.789062 123.988281 C 287.519531 123.988281 287.402344 124.144531 287.285156 124.335938 C 285.859375 126.183594 284.011719 126.457031 283.007812 126.457031 C 280.851562 126.457031 279.425781 125.375 278.652344 124.644531 C 278.074219 124.105469 277.496094 123.988281 277.074219 123.988281 C 275.378906 123.988281 273.757812 125.839844 273.757812 128.460938 C 273.757812 131.15625 275.417969 132.929688 277.074219 132.929688 C 278.730469 132.929688 280.042969 130.964844 280.042969 128.460938 C 280.042969 128.152344 280.042969 127.148438 279.617188 126.070312 C 280.964844 126.839844 282.238281 126.996094 283.007812 126.996094 C 283.972656 126.996094 284.972656 126.761719 285.898438 126.261719 L 285.9375 126.300781 L 275.839844 140.910156 C 275.839844 140.945312 275.648438 141.179688 275.648438 141.371094 C 275.648438 141.640625 275.878906 141.832031 276.148438 141.832031 C 276.378906 141.832031 276.496094 141.679688 276.609375 141.488281 Z M 277.152344 132.351562 C 276.648438 132.351562 275.222656 132.082031 275.222656 128.460938 C 275.222656 124.835938 276.648438 124.566406 277.152344 124.566406 C 278.308594 124.566406 279.425781 126.183594 279.425781 128.460938 C 279.425781 130.808594 278.269531 132.351562 277.152344 132.351562 Z M 290.140625 137.402344 C 290.140625 134.820312 288.789062 132.929688 287.171875 132.929688 C 285.476562 132.929688 283.816406 134.742188 283.816406 137.363281 C 283.816406 140.058594 285.515625 141.832031 287.171875 141.832031 C 288.828125 141.832031 290.140625 139.90625 290.140625 137.402344 Z M 287.210938 141.292969 C 286.746094 141.292969 285.28125 140.984375 285.28125 137.402344 C 285.28125 133.738281 286.746094 133.46875 287.210938 133.46875 C 288.40625 133.46875 289.523438 135.128906 289.523438 137.363281 C 289.523438 139.714844 288.367188 141.292969 287.210938 141.292969 Z M 287.210938 141.292969 "/>
<path fill-rule="nonzero" fill="rgb(0%, 0%, 0%)" fill-opacity="1" d="M 349.957031 132.96875 C 349.957031 133.355469 349.957031 133.625 350.265625 133.625 C 350.417969 133.625 350.496094 133.507812 350.613281 133.316406 C 351.304688 132.390625 352.347656 131.851562 353.503906 131.851562 C 355.890625 131.851562 355.890625 135.28125 355.890625 136.050781 C 355.890625 136.746094 355.890625 138.132812 355.238281 139.136719 C 354.660156 140.058594 353.734375 140.484375 352.847656 140.484375 C 351.574219 140.484375 350.074219 139.636719 349.53125 138.019531 C 349.570312 138.019531 349.6875 138.054688 349.839844 138.054688 C 350.304688 138.054688 350.960938 137.785156 350.960938 136.976562 C 350.960938 136.285156 350.457031 135.898438 349.839844 135.898438 C 349.378906 135.898438 348.761719 136.167969 348.761719 137.054688 C 348.761719 139.058594 350.457031 141.101562 352.925781 141.101562 C 355.585938 141.101562 357.859375 138.902344 357.859375 136.167969 C 357.859375 133.507812 355.96875 131.3125 353.542969 131.3125 C 352.5 131.3125 351.421875 131.660156 350.613281 132.46875 L 350.613281 128.113281 C 351.304688 128.304688 352 128.421875 352.65625 128.421875 C 355.390625 128.421875 356.972656 126.457031 356.972656 126.148438 C 356.972656 125.953125 356.855469 125.878906 356.742188 125.878906 C 356.703125 125.878906 356.664062 125.878906 356.433594 125.992188 C 355.390625 126.378906 354.390625 126.570312 353.464844 126.570312 C 352.5 126.570312 351.5 126.378906 350.496094 125.992188 C 350.265625 125.878906 350.226562 125.878906 350.226562 125.878906 C 349.957031 125.878906 349.957031 126.070312 349.957031 126.457031 Z M 349.957031 132.96875 "/>
<path fill-rule="nonzero" fill="rgb(0%, 0%, 0%)" fill-opacity="1" d="M 369.492188 133.507812 C 369.492188 132.042969 369.417969 130.117188 368.644531 128.460938 C 367.644531 126.378906 365.988281 125.878906 364.714844 125.878906 C 363.367188 125.878906 361.671875 126.378906 360.707031 128.535156 C 360.011719 130.039062 359.898438 131.851562 359.898438 133.507812 C 359.898438 134.972656 359.9375 137.09375 360.898438 138.867188 C 361.941406 140.714844 363.675781 141.101562 364.675781 141.101562 C 366.101562 141.101562 367.757812 140.484375 368.683594 138.441406 C 369.339844 136.9375 369.492188 135.28125 369.492188 133.507812 Z M 364.714844 140.523438 C 364.019531 140.523438 362.441406 140.214844 362.015625 137.710938 C 361.785156 136.4375 361.785156 134.511719 361.785156 133.238281 C 361.785156 131.734375 361.785156 130 362.054688 128.769531 C 362.519531 126.800781 363.90625 126.417969 364.675781 126.417969 C 365.523438 126.417969 366.910156 126.878906 367.335938 128.921875 C 367.566406 130.117188 367.566406 131.851562 367.566406 133.238281 C 367.566406 134.625 367.566406 136.476562 367.335938 137.785156 C 366.875 140.332031 365.253906 140.523438 364.714844 140.523438 Z M 364.714844 140.523438 "/>
<path fill-rule="nonzero" fill="rgb(0%, 0%, 0%)" fill-opacity="1" d="M 385.949219 124.875 C 386.0625 124.722656 386.140625 124.644531 386.140625 124.488281 C 386.140625 124.179688 385.871094 123.988281 385.675781 123.988281 C 385.40625 123.988281 385.292969 124.144531 385.175781 124.335938 C 383.75 126.183594 381.902344 126.457031 380.898438 126.457031 C 378.738281 126.457031 377.3125 125.375 376.542969 124.644531 C 375.964844 124.105469 375.386719 123.988281 374.964844 123.988281 C 373.265625 123.988281 371.648438 125.839844 371.648438 128.460938 C 371.648438 131.15625 373.304688 132.929688 374.964844 132.929688 C 376.621094 132.929688 377.929688 130.964844 377.929688 128.460938 C 377.929688 128.152344 377.929688 127.148438 377.507812 126.070312 C 378.855469 126.839844 380.128906 126.996094 380.898438 126.996094 C 381.863281 126.996094 382.863281 126.761719 383.789062 126.261719 L 383.828125 126.300781 L 373.730469 140.910156 C 373.730469 140.945312 373.535156 141.179688 373.535156 141.371094 C 373.535156 141.640625 373.769531 141.832031 374.039062 141.832031 C 374.269531 141.832031 374.386719 141.679688 374.5 141.488281 Z M 375.039062 132.351562 C 374.539062 132.351562 373.113281 132.082031 373.113281 128.460938 C 373.113281 124.835938 374.539062 124.566406 375.039062 124.566406 C 376.195312 124.566406 377.3125 126.183594 377.3125 128.460938 C 377.3125 130.808594 376.15625 132.351562 375.039062 132.351562 Z M 388.027344 137.402344 C 388.027344 134.820312 386.679688 132.929688 385.0625 132.929688 C 383.363281 132.929688 381.707031 134.742188 381.707031 137.363281 C 381.707031 140.058594 383.402344 141.832031 385.0625 141.832031 C 386.71875 141.832031 388.027344 139.90625 388.027344 137.402344 Z M 385.097656 141.292969 C 384.636719 141.292969 383.171875 140.984375 383.171875 137.402344 C 383.171875 133.738281 384.636719 133.46875 385.097656 133.46875 C 386.292969 133.46875 387.410156 135.128906 387.410156 137.363281 C 387.410156 139.714844 386.253906 141.292969 385.097656 141.292969 Z M 385.097656 141.292969 "/>
<path fill-rule="nonzero" fill="rgb(0%, 0%, 0%)" fill-opacity="1" d="M 456.363281 127.109375 C 456.558594 126.878906 456.558594 126.800781 456.558594 126.339844 L 451.085938 126.339844 C 448.269531 126.339844 448.195312 126.070312 448.15625 125.644531 L 447.539062 125.644531 L 446.804688 130.269531 L 447.421875 130.269531 C 447.5 129.769531 447.691406 128.535156 447.960938 128.265625 C 448.117188 128.113281 449.890625 128.113281 450.199219 128.113281 L 454.824219 128.113281 L 452.703125 131.003906 C 449.8125 134.972656 449.542969 138.597656 449.542969 139.828125 C 449.542969 140.097656 449.542969 141.101562 450.582031 141.101562 C 451.625 141.101562 451.625 140.097656 451.625 139.828125 L 451.625 138.75 C 451.625 135.472656 452.085938 132.929688 453.28125 131.3125 Z M 456.363281 127.109375 "/>
<path fill-rule="nonzero" fill="rgb(0%, 0%, 0%)" fill-opacity="1" d="M 459.210938 132.96875 C 459.210938 133.355469 459.210938 133.625 459.519531 133.625 C 459.675781 133.625 459.753906 133.507812 459.867188 133.316406 C 460.5625 132.390625 461.601562 131.851562 462.757812 131.851562 C 465.148438 131.851562 465.148438 135.28125 465.148438 136.050781 C 465.148438 136.746094 465.148438 138.132812 464.492188 139.136719 C 463.914062 140.058594 462.988281 140.484375 462.101562 140.484375 C 460.832031 140.484375 459.328125 139.636719 458.789062 138.019531 C 458.828125 138.019531 458.941406 138.054688 459.097656 138.054688 C 459.558594 138.054688 460.214844 137.785156 460.214844 136.976562 C 460.214844 136.285156 459.714844 135.898438 459.097656 135.898438 C 458.632812 135.898438 458.019531 136.167969 458.019531 137.054688 C 458.019531 139.058594 459.714844 141.101562 462.179688 141.101562 C 464.839844 141.101562 467.113281 138.902344 467.113281 136.167969 C 467.113281 133.507812 465.226562 131.3125 462.796875 131.3125 C 461.757812 131.3125 460.675781 131.660156 459.867188 132.46875 L 459.867188 128.113281 C 460.5625 128.304688 461.253906 128.421875 461.910156 128.421875 C 464.648438 128.421875 466.226562 126.457031 466.226562 126.148438 C 466.226562 125.953125 466.113281 125.878906 465.996094 125.878906 C 465.957031 125.878906 465.917969 125.878906 465.6875 125.992188 C 464.648438 126.378906 463.644531 126.570312 462.71875 126.570312 C 461.757812 126.570312 460.753906 126.378906 459.753906 125.992188 C 459.519531 125.878906 459.484375 125.878906 459.484375 125.878906 C 459.210938 125.878906 459.210938 126.070312 459.210938 126.457031 Z M 459.210938 132.96875 "/>
<path fill-rule="nonzero" fill="rgb(0%, 0%, 0%)" fill-opacity="1" d="M 483.835938 124.875 C 483.953125 124.722656 484.03125 124.644531 484.03125 124.488281 C 484.03125 124.179688 483.761719 123.988281 483.566406 123.988281 C 483.296875 123.988281 483.183594 124.144531 483.066406 124.335938 C 481.640625 126.183594 479.789062 126.457031 478.789062 126.457031 C 476.628906 126.457031 475.203125 125.375 474.433594 124.644531 C 473.855469 124.105469 473.277344 123.988281 472.851562 123.988281 C 471.15625 123.988281 469.539062 125.839844 469.539062 128.460938 C 469.539062 131.15625 471.195312 132.929688 472.851562 132.929688 C 474.511719 132.929688 475.820312 130.964844 475.820312 128.460938 C 475.820312 128.152344 475.820312 127.148438 475.394531 126.070312 C 476.746094 126.839844 478.015625 126.996094 478.789062 126.996094 C 479.75 126.996094 480.753906 126.761719 481.679688 126.261719 L 481.71875 126.300781 L 471.621094 140.910156 C 471.621094 140.945312 471.425781 141.179688 471.425781 141.371094 C 471.425781 141.640625 471.65625 141.832031 471.925781 141.832031 C 472.160156 141.832031 472.273438 141.679688 472.390625 141.488281 Z M 472.929688 132.351562 C 472.429688 132.351562 471.003906 132.082031 471.003906 128.460938 C 471.003906 124.835938 472.429688 124.566406 472.929688 124.566406 C 474.085938 124.566406 475.203125 126.183594 475.203125 128.460938 C 475.203125 130.808594 474.046875 132.351562 472.929688 132.351562 Z M 485.917969 137.402344 C 485.917969 134.820312 484.570312 132.929688 482.949219 132.929688 C 481.253906 132.929688 479.597656 134.742188 479.597656 137.363281 C 479.597656 140.058594 481.292969 141.832031 482.949219 141.832031 C 484.609375 141.832031 485.917969 139.90625 485.917969 137.402344 Z M 482.988281 141.292969 C 482.527344 141.292969 481.0625 140.984375 481.0625 137.402344 C 481.0625 133.738281 482.527344 133.46875 482.988281 133.46875 C 484.183594 133.46875 485.300781 135.128906 485.300781 137.363281 C 485.300781 139.714844 484.144531 141.292969 482.988281 141.292969 Z M 482.988281 141.292969 "/>
<path fill-rule="nonzero" fill="rgb(0%, 0%, 0%)" fill-opacity="1" d="M 544.445312 126.457031 C 544.445312 125.914062 544.445312 125.878906 543.90625 125.878906 C 542.519531 127.265625 540.476562 127.265625 539.785156 127.265625 L 539.785156 127.957031 C 540.207031 127.957031 541.554688 127.957031 542.75 127.378906 L 542.75 138.828125 C 542.75 139.636719 542.710938 139.90625 540.632812 139.90625 L 539.9375 139.90625 L 539.9375 140.601562 C 540.707031 140.523438 542.710938 140.523438 543.597656 140.523438 C 544.523438 140.523438 546.488281 140.523438 547.300781 140.601562 L 547.300781 139.90625 L 546.605469 139.90625 C 544.523438 139.90625 544.445312 139.636719 544.445312 138.828125 Z M 544.445312 126.457031 "/>
<path fill-rule="nonzero" fill="rgb(0%, 0%, 0%)" fill-opacity="1" d="M 559.589844 133.507812 C 559.589844 132.042969 559.511719 130.117188 558.742188 128.460938 C 557.738281 126.378906 556.082031 125.878906 554.8125 125.878906 C 553.460938 125.878906 551.765625 126.378906 550.800781 128.535156 C 550.109375 130.039062 549.992188 131.851562 549.992188 133.507812 C 549.992188 134.972656 550.03125 137.09375 550.996094 138.867188 C 552.035156 140.714844 553.769531 141.101562 554.773438 141.101562 C 556.199219 141.101562 557.855469 140.484375 558.78125 138.441406 C 559.4375 136.9375 559.589844 135.28125 559.589844 133.507812 Z M 554.8125 140.523438 C 554.117188 140.523438 552.535156 140.214844 552.113281 137.710938 C 551.882812 136.4375 551.882812 134.511719 551.882812 133.238281 C 551.882812 131.734375 551.882812 130 552.152344 128.769531 C 552.613281 126.800781 554 126.417969 554.773438 126.417969 C 555.621094 126.417969 557.007812 126.878906 557.433594 128.921875 C 557.664062 130.117188 557.664062 131.851562 557.664062 133.238281 C 557.664062 134.625 557.664062 136.476562 557.433594 137.785156 C 556.96875 140.332031 555.351562 140.523438 554.8125 140.523438 Z M 554.8125 140.523438 "/>
<path fill-rule="nonzero" fill="rgb(0%, 0%, 0%)" fill-opacity="1" d="M 570.957031 133.507812 C 570.957031 132.042969 570.878906 130.117188 570.109375 128.460938 C 569.105469 126.378906 567.449219 125.878906 566.175781 125.878906 C 564.828125 125.878906 563.132812 126.378906 562.167969 128.535156 C 561.476562 130.039062 561.359375 131.851562 561.359375 133.507812 C 561.359375 134.972656 561.398438 137.09375 562.359375 138.867188 C 563.402344 140.714844 565.136719 141.101562 566.136719 141.101562 C 567.5625 141.101562 569.222656 140.484375 570.148438 138.441406 C 570.800781 136.9375 570.957031 135.28125 570.957031 133.507812 Z M 566.175781 140.523438 C 565.484375 140.523438 563.902344 140.214844 563.480469 137.710938 C 563.246094 136.4375 563.246094 134.511719 563.246094 133.238281 C 563.246094 131.734375 563.246094 130 563.515625 128.769531 C 563.980469 126.800781 565.367188 126.417969 566.136719 126.417969 C 566.984375 126.417969 568.375 126.878906 568.796875 128.921875 C 569.027344 130.117188 569.027344 131.851562 569.027344 133.238281 C 569.027344 134.625 569.027344 136.476562 568.796875 137.785156 C 568.335938 140.332031 566.714844 140.523438 566.175781 140.523438 Z M 566.175781 140.523438 "/>
<path fill-rule="nonzero" fill="rgb(0%, 0%, 0%)" fill-opacity="1" d="M 587.410156 124.875 C 587.523438 124.722656 587.601562 124.644531 587.601562 124.488281 C 587.601562 124.179688 587.332031 123.988281 587.140625 123.988281 C 586.871094 123.988281 586.753906 124.144531 586.640625 124.335938 C 585.210938 126.183594 583.363281 126.457031 582.359375 126.457031 C 580.203125 126.457031 578.777344 125.375 578.003906 124.644531 C 577.425781 124.105469 576.847656 123.988281 576.425781 123.988281 C 574.730469 123.988281 573.109375 125.839844 573.109375 128.460938 C 573.109375 131.15625 574.769531 132.929688 576.425781 132.929688 C 578.082031 132.929688 579.394531 130.964844 579.394531 128.460938 C 579.394531 128.152344 579.394531 127.148438 578.96875 126.070312 C 580.316406 126.839844 581.589844 126.996094 582.359375 126.996094 C 583.324219 126.996094 584.328125 126.761719 585.25 126.261719 L 585.289062 126.300781 L 575.191406 140.910156 C 575.191406 140.945312 575 141.179688 575 141.371094 C 575 141.640625 575.230469 141.832031 575.5 141.832031 C 575.730469 141.832031 575.847656 141.679688 575.960938 141.488281 Z M 576.503906 132.351562 C 576 132.351562 574.574219 132.082031 574.574219 128.460938 C 574.574219 124.835938 576 124.566406 576.503906 124.566406 C 577.660156 124.566406 578.777344 126.183594 578.777344 128.460938 C 578.777344 130.808594 577.621094 132.351562 576.503906 132.351562 Z M 589.492188 137.402344 C 589.492188 134.820312 588.140625 132.929688 586.523438 132.929688 C 584.828125 132.929688 583.171875 134.742188 583.171875 137.363281 C 583.171875 140.058594 584.867188 141.832031 586.523438 141.832031 C 588.179688 141.832031 589.492188 139.90625 589.492188 137.402344 Z M 586.5625 141.292969 C 586.097656 141.292969 584.632812 140.984375 584.632812 137.402344 C 584.632812 133.738281 586.097656 133.46875 586.5625 133.46875 C 587.757812 133.46875 588.875 135.128906 588.875 137.363281 C 588.875 139.714844 587.71875 141.292969 586.5625 141.292969 Z M 586.5625 141.292969 "/>
<g clip-path="url(#clip-0)">
<path fill="none" stroke-width="0.3985" stroke-linecap="butt" stroke-linejoin="miter" stroke="rgb(0%, 0%, 0%)" stroke-opacity="1" stroke-dasharray="2.98883 1.99255" stroke-miterlimit="10" d="M 134.701467 17.061277 L 120.420428 17.061277 C 116.86838 17.061277 113.986201 14.179098 113.986201 10.628634 L 113.986201 -36.363554 C 113.986201 -39.918769 116.86838 -42.797781 120.420428 -42.797781 L 134.701467 -42.797781 C 138.255099 -42.797781 141.134111 -39.918769 141.134111 -36.363554 L 141.134111 10.628634 C 141.134111 14.179098 138.255099 17.061277 134.701467 17.061277 Z M 134.701467 17.061277 " transform="matrix(2.466667, 0, 0, -2.466667, 151.724663, 47.490734)"/>
</g>
</svg>
