<?xml version="1.0" encoding="UTF-8"?>
<svg xmlns="http://www.w3.org/2000/svg" xmlns:xlink="http://www.w3.org/1999/xlink" width="640.255371" height="48.055601" viewBox="0 0 640.255371 48.055601">
<path fill="none" stroke-width="0.3985" stroke-linecap="butt" stroke-linejoin="miter" stroke="rgb(0%, 0%, 0%)" stroke-opacity="1" stroke-miterlimit="10" d="M -0.000330745 -0.00139847 L 178.007482 -0.00139847 " transform="matrix(2.466667, 0, 0, -2.466667, 190.848472, 24.0278)"/>
<path fill-rule="nonzero" fill="rgb(0%, 0%, 0%)" fill-opacity="1" d="M 634.859375 24.03125 L 626.984375 20.097656 L 629.933594 24.03125 L 626.984375 27.960938 "/>
<path fill-rule="nonzero" fill="rgb(0%, 0%, 0%)" fill-opacity="1" d="M 17.460938 13.097656 L 13.914062 13.367188 L 13.914062 14.140625 C 15.648438 14.140625 15.84375 14.292969 15.84375 15.527344 L 15.84375 28.324219 C 15.84375 29.402344 15.570312 29.402344 13.914062 29.402344 L 13.914062 30.171875 C 14.722656 30.132812 16.035156 30.09375 16.652344 30.09375 C 17.269531 30.09375 18.460938 30.132812 19.386719 30.171875 L 19.386719 29.402344 C 17.730469 29.402344 17.460938 29.402344 17.460938 28.324219 Z M 17.460938 13.097656 "/>
<path fill-rule="nonzero" fill="rgb(0%, 0%, 0%)" fill-opacity="1" d="M 28.101562 28.324219 C 28.21875 29.285156 28.875 30.328125 30.03125 30.328125 C 30.570312 30.328125 32.074219 29.980469 32.074219 27.976562 L 32.074219 26.589844 L 31.457031 26.589844 L 31.457031 27.976562 C 31.457031 29.402344 30.839844 29.554688 30.570312 29.554688 C 29.761719 29.554688 29.644531 28.4375 29.644531 28.324219 L 29.644531 23.425781 C 29.644531 22.386719 29.644531 21.421875 28.757812 20.5 C 27.792969 19.535156 26.5625 19.148438 25.40625 19.148438 C 23.363281 19.148438 21.667969 20.304688 21.667969 21.925781 C 21.667969 22.65625 22.167969 23.082031 22.824219 23.082031 C 23.515625 23.082031 23.941406 22.578125 23.941406 21.964844 C 23.941406 21.65625 23.824219 20.84375 22.667969 20.84375 C 23.363281 19.957031 24.558594 19.6875 25.328125 19.6875 C 26.5625 19.6875 27.949219 20.652344 27.949219 22.847656 L 27.949219 23.734375 C 26.675781 23.8125 24.980469 23.890625 23.441406 24.621094 C 21.589844 25.46875 20.972656 26.742188 20.972656 27.820312 C 20.972656 29.824219 23.363281 30.441406 24.902344 30.441406 C 26.523438 30.441406 27.640625 29.441406 28.101562 28.324219 Z M 27.949219 24.277344 L 27.949219 26.742188 C 27.949219 29.054688 26.175781 29.902344 25.058594 29.902344 C 23.863281 29.902344 22.863281 29.054688 22.863281 27.820312 C 22.863281 26.472656 23.902344 24.429688 27.949219 24.277344 Z M 27.949219 24.277344 "/>
<path fill-rule="nonzero" fill="rgb(0%, 0%, 0%)" fill-opacity="1" d="M 36.457031 20.882812 L 36.457031 13.097656 L 32.914062 13.367188 L 32.914062 14.140625 C 34.648438 14.140625 34.839844 14.292969 34.839844 15.527344 L 34.839844 30.171875 L 35.457031 30.171875 C 35.457031 30.132812 35.648438 29.785156 36.34375 28.628906 C 36.691406 29.207031 37.730469 30.441406 39.542969 30.441406 C 42.472656 30.441406 45.015625 28.015625 45.015625 24.855469 C 45.015625 21.730469 42.625 19.304688 39.8125 19.304688 C 37.886719 19.304688 36.84375 20.460938 36.457031 20.882812 Z M 36.535156 27.359375 L 36.535156 22.308594 C 36.535156 21.847656 36.535156 21.808594 36.804688 21.421875 C 37.769531 20.035156 39.117188 19.84375 39.695312 19.84375 C 40.8125 19.84375 41.699219 20.5 42.277344 21.421875 C 42.933594 22.425781 42.972656 23.8125 42.972656 24.855469 C 42.972656 25.738281 42.933594 27.203125 42.238281 28.324219 C 41.699219 29.09375 40.777344 29.902344 39.464844 29.902344 C 38.347656 29.902344 37.460938 29.324219 36.882812 28.398438 C 36.535156 27.898438 36.535156 27.820312 36.535156 27.359375 Z M 36.535156 27.359375 "/>
<path fill-rule="nonzero" fill="rgb(0%, 0%, 0%)" fill-opacity="1" d="M 49.296875 23.96875 C 49.453125 20.304688 51.53125 19.6875 52.378906 19.6875 C 54.886719 19.6875 55.15625 23.003906 55.15625 23.96875 Z M 49.296875 24.507812 L 56.15625 24.507812 C 56.699219 24.507812 56.773438 24.507812 56.773438 23.96875 C 56.773438 21.539062 55.425781 19.148438 52.378906 19.148438 C 49.527344 19.148438 47.253906 21.691406 47.253906 24.777344 C 47.253906 28.050781 49.835938 30.441406 52.652344 30.441406 C 55.65625 30.441406 56.773438 27.707031 56.773438 27.242188 C 56.773438 27.011719 56.582031 26.933594 56.425781 26.933594 C 56.234375 26.933594 56.15625 27.089844 56.121094 27.28125 C 55.269531 29.824219 53.035156 29.824219 52.804688 29.824219 C 51.570312 29.824219 50.609375 29.09375 50.03125 28.167969 C 49.296875 27.011719 49.296875 25.394531 49.296875 24.507812 Z M 49.296875 24.507812 "/>
<path fill-rule="nonzero" fill="rgb(0%, 0%, 0%)" fill-opacity="1" d="M 61.835938 13.097656 L 58.292969 13.367188 L 58.292969 14.140625 C 60.027344 14.140625 60.21875 14.292969 60.21875 15.527344 L 60.21875 28.324219 C 60.21875 29.402344 59.949219 29.402344 58.292969 29.402344 L 58.292969 30.171875 C 59.101562 30.132812 60.410156 30.09375 61.027344 30.09375 C 61.644531 30.09375 62.839844 30.132812 63.765625 30.171875 L 63.765625 29.402344 C 62.105469 29.402344 61.835938 29.402344 61.835938 28.324219 Z M 61.835938 13.097656 "/>
<path fill-rule="nonzero" fill="rgb(0%, 0%, 0%)" fill-opacity="1" d="M 77.964844 25.933594 C 75.804688 25.933594 75.804688 23.464844 75.804688 22.925781 C 75.804688 22.269531 75.84375 21.460938 76.191406 20.84375 C 76.382812 20.574219 76.960938 19.882812 77.964844 19.882812 C 80.085938 19.882812 80.085938 22.308594 80.085938 22.886719 C 80.085938 23.542969 80.085938 24.351562 79.699219 24.96875 C 79.507812 25.238281 78.929688 25.933594 77.964844 25.933594 Z M 75.113281 26.894531 C 75.113281 26.820312 75.113281 26.242188 75.5 25.738281 C 76.460938 26.433594 77.503906 26.511719 77.964844 26.511719 C 80.238281 26.511719 81.933594 24.816406 81.933594 22.925781 C 81.933594 22 81.550781 21.113281 80.933594 20.535156 C 81.820312 19.6875 82.707031 19.574219 83.128906 19.574219 C 83.207031 19.574219 83.320312 19.574219 83.398438 19.613281 C 83.128906 19.6875 82.976562 19.957031 82.976562 20.265625 C 82.976562 20.691406 83.320312 20.960938 83.707031 20.960938 C 83.9375 20.960938 84.402344 20.808594 84.402344 20.230469 C 84.402344 19.804688 84.132812 19.035156 83.167969 19.035156 C 82.667969 19.035156 81.585938 19.1875 80.546875 20.191406 C 79.507812 19.378906 78.503906 19.304688 77.964844 19.304688 C 75.652344 19.304688 73.957031 21 73.957031 22.886719 C 73.957031 23.96875 74.496094 24.890625 75.113281 25.433594 C 74.804688 25.777344 74.34375 26.589844 74.34375 27.472656 C 74.34375 28.246094 74.6875 29.171875 75.460938 29.671875 C 73.957031 30.058594 73.1875 31.136719 73.1875 32.097656 C 73.1875 33.871094 75.613281 35.222656 78.621094 35.222656 C 81.511719 35.222656 84.054688 33.988281 84.054688 32.0625 C 84.054688 31.214844 83.746094 29.941406 82.472656 29.246094 C 81.164062 28.59375 79.738281 28.59375 78.234375 28.59375 C 77.617188 28.59375 76.578125 28.59375 76.382812 28.554688 C 75.613281 28.4375 75.113281 27.707031 75.113281 26.894531 Z M 78.660156 34.683594 C 76.152344 34.683594 74.457031 33.410156 74.457031 32.097656 C 74.457031 30.980469 75.382812 30.058594 76.460938 30.019531 L 77.925781 30.019531 C 80.046875 30.019531 82.78125 30.019531 82.78125 32.097656 C 82.78125 33.449219 81.046875 34.683594 78.660156 34.683594 Z M 78.660156 34.683594 "/>
<path fill-rule="nonzero" fill="rgb(0%, 0%, 0%)" fill-opacity="1" d="M 96.339844 24.890625 C 96.339844 21.769531 93.914062 19.148438 90.945312 19.148438 C 87.863281 19.148438 85.472656 21.847656 85.472656 24.890625 C 85.472656 28.089844 88.015625 30.441406 90.90625 30.441406 C 93.875 30.441406 96.339844 28.015625 96.339844 24.890625 Z M 90.945312 29.824219 C 89.867188 29.824219 88.789062 29.324219 88.132812 28.167969 C 87.515625 27.089844 87.515625 25.585938 87.515625 24.699219 C 87.515625 23.734375 87.515625 22.425781 88.09375 21.347656 C 88.75 20.230469 89.90625 19.6875 90.90625 19.6875 C 91.988281 19.6875 93.027344 20.230469 93.683594 21.308594 C 94.335938 22.347656 94.335938 23.773438 94.335938 24.699219 C 94.335938 25.585938 94.335938 26.933594 93.796875 28.015625 C 93.21875 29.132812 92.140625 29.824219 90.945312 29.824219 Z M 90.945312 29.824219 "/>
<path fill-rule="nonzero" fill="rgb(0%, 0%, 0%)" fill-opacity="1" d="M 100.492188 23.96875 C 100.644531 20.304688 102.726562 19.6875 103.574219 19.6875 C 106.078125 19.6875 106.347656 23.003906 106.347656 23.96875 Z M 100.492188 24.507812 L 107.351562 24.507812 C 107.890625 24.507812 107.96875 24.507812 107.96875 23.96875 C 107.96875 21.539062 106.617188 19.148438 103.574219 19.148438 C 100.722656 19.148438 98.449219 21.691406 98.449219 24.777344 C 98.449219 28.050781 101.03125 30.441406 103.84375 30.441406 C 106.851562 30.441406 107.96875 27.707031 107.96875 27.242188 C 107.96875 27.011719 107.773438 26.933594 107.621094 26.933594 C 107.429688 26.933594 107.351562 27.089844 107.3125 27.28125 C 106.464844 29.824219 104.230469 29.824219 104 29.824219 C 102.765625 29.824219 101.800781 29.09375 101.222656 28.167969 C 100.492188 27.011719 100.492188 25.394531 100.492188 24.507812 Z M 100.492188 24.507812 "/>
<path fill-rule="nonzero" fill="rgb(0%, 0%, 0%)" fill-opacity="1" d="M 113.800781 25.394531 C 114.339844 25.507812 116.34375 25.894531 116.34375 27.667969 C 116.34375 28.902344 115.496094 29.902344 113.570312 29.902344 C 111.488281 29.902344 110.601562 28.515625 110.140625 26.394531 C 110.0625 26.085938 110.0625 26.011719 109.792969 26.011719 C 109.484375 26.011719 109.484375 26.164062 109.484375 26.589844 L 109.484375 29.863281 C 109.484375 30.289062 109.484375 30.441406 109.753906 30.441406 C 109.871094 30.441406 109.910156 30.402344 110.371094 29.941406 C 110.410156 29.902344 110.410156 29.863281 110.871094 29.402344 C 111.953125 30.402344 113.070312 30.441406 113.570312 30.441406 C 116.382812 30.441406 117.539062 28.785156 117.539062 27.011719 C 117.539062 25.738281 116.808594 24.96875 116.5 24.699219 C 115.691406 23.890625 114.726562 23.699219 113.6875 23.503906 C 112.296875 23.234375 110.679688 22.925781 110.679688 21.5 C 110.679688 20.613281 111.296875 19.613281 113.414062 19.613281 C 116.113281 19.613281 116.269531 21.847656 116.304688 22.578125 C 116.304688 22.8125 116.539062 22.8125 116.578125 22.8125 C 116.921875 22.8125 116.921875 22.695312 116.921875 22.234375 L 116.921875 19.726562 C 116.921875 19.34375 116.921875 19.148438 116.652344 19.148438 C 116.539062 19.148438 116.460938 19.148438 116.152344 19.457031 C 116.074219 19.535156 115.84375 19.765625 115.726562 19.84375 C 114.804688 19.148438 113.800781 19.148438 113.414062 19.148438 C 110.410156 19.148438 109.484375 20.808594 109.484375 22.195312 C 109.484375 23.042969 109.871094 23.734375 110.523438 24.277344 C 111.335938 24.890625 112.027344 25.046875 113.800781 25.394531 Z M 113.800781 25.394531 "/>
<path fill-rule="nonzero" fill="rgb(0%, 0%, 0%)" fill-opacity="1" d="M 129.25 28.324219 C 129.25 29.402344 128.980469 29.402344 127.320312 29.402344 L 127.320312 30.171875 C 128.207031 30.132812 129.441406 30.09375 130.136719 30.09375 C 130.75 30.09375 132.023438 30.132812 132.871094 30.171875 L 132.871094 29.402344 C 131.214844 29.402344 130.945312 29.402344 130.945312 28.324219 L 130.945312 23.773438 C 130.945312 21.230469 132.71875 19.84375 134.257812 19.84375 C 135.839844 19.84375 136.109375 21.152344 136.109375 22.578125 L 136.109375 28.324219 C 136.109375 29.402344 135.839844 29.402344 134.183594 29.402344 L 134.183594 30.171875 C 135.03125 30.132812 136.300781 30.09375 136.957031 30.09375 C 137.574219 30.09375 138.882812 30.132812 139.695312 30.171875 L 139.695312 29.402344 C 138.421875 29.402344 137.804688 29.402344 137.804688 28.667969 L 137.804688 23.96875 C 137.804688 21.847656 137.804688 21.113281 137.035156 20.230469 C 136.6875 19.804688 135.878906 19.304688 134.453125 19.304688 C 132.371094 19.304688 131.292969 20.769531 130.867188 21.730469 L 130.867188 13.097656 L 127.320312 13.367188 L 127.320312 14.140625 C 129.054688 14.140625 129.25 14.292969 129.25 15.527344 Z M 129.25 28.324219 "/>
<path fill-rule="nonzero" fill="rgb(0%, 0%, 0%)" fill-opacity="1" d="M 142.941406 23.96875 C 143.09375 20.304688 145.175781 19.6875 146.023438 19.6875 C 148.527344 19.6875 148.800781 23.003906 148.800781 23.96875 Z M 142.941406 24.507812 L 149.800781 24.507812 C 150.339844 24.507812 150.417969 24.507812 150.417969 23.96875 C 150.417969 21.539062 149.070312 19.148438 146.023438 19.148438 C 143.171875 19.148438 140.898438 21.691406 140.898438 24.777344 C 140.898438 28.050781 143.480469 30.441406 146.292969 30.441406 C 149.300781 30.441406 150.417969 27.707031 150.417969 27.242188 C 150.417969 27.011719 150.226562 26.933594 150.070312 26.933594 C 149.878906 26.933594 149.800781 27.089844 149.761719 27.28125 C 148.914062 29.824219 146.679688 29.824219 146.449219 29.824219 C 145.214844 29.824219 144.25 29.09375 143.671875 28.167969 C 142.941406 27.011719 142.941406 25.394531 142.941406 24.507812 Z M 142.941406 24.507812 "/>
<path fill-rule="nonzero" fill="rgb(0%, 0%, 0%)" fill-opacity="1" d="M 155.25 22 L 155.25 19.304688 L 151.820312 19.574219 L 151.820312 20.34375 C 153.554688 20.34375 153.746094 20.5 153.746094 21.730469 L 153.746094 28.324219 C 153.746094 29.402344 153.476562 29.402344 151.820312 29.402344 L 151.820312 30.171875 C 152.78125 30.132812 153.9375 30.09375 154.632812 30.09375 C 155.597656 30.09375 156.753906 30.09375 157.753906 30.171875 L 157.753906 29.402344 L 157.214844 29.402344 C 155.402344 29.402344 155.363281 29.132812 155.363281 28.246094 L 155.363281 24.46875 C 155.363281 22.039062 156.40625 19.84375 158.253906 19.84375 C 158.410156 19.84375 158.488281 19.84375 158.523438 19.882812 C 158.449219 19.882812 157.945312 20.191406 157.945312 20.84375 C 157.945312 21.5 158.488281 21.886719 159.027344 21.886719 C 159.449219 21.886719 160.066406 21.578125 160.066406 20.808594 C 160.066406 20.035156 159.296875 19.304688 158.253906 19.304688 C 156.445312 19.304688 155.558594 20.960938 155.25 22 Z M 155.25 22 "/>
<path fill-rule="nonzero" fill="rgb(0%, 0%, 0%)" fill-opacity="1" d="M 163.488281 23.96875 C 163.640625 20.304688 165.722656 19.6875 166.570312 19.6875 C 169.074219 19.6875 169.347656 23.003906 169.347656 23.96875 Z M 163.488281 24.507812 L 170.347656 24.507812 C 170.886719 24.507812 170.964844 24.507812 170.964844 23.96875 C 170.964844 21.539062 169.617188 19.148438 166.570312 19.148438 C 163.71875 19.148438 161.445312 21.691406 161.445312 24.777344 C 161.445312 28.050781 164.027344 30.441406 166.839844 30.441406 C 169.847656 30.441406 170.964844 27.707031 170.964844 27.242188 C 170.964844 27.011719 170.773438 26.933594 170.617188 26.933594 C 170.425781 26.933594 170.347656 27.089844 170.308594 27.28125 C 169.460938 29.824219 167.226562 29.824219 166.996094 29.824219 C 165.761719 29.824219 164.796875 29.09375 164.21875 28.167969 C 163.488281 27.011719 163.488281 25.394531 163.488281 24.507812 Z M 163.488281 24.507812 "/>
<path fill="none" stroke-width="0.3487" stroke-linecap="round" stroke-linejoin="miter" stroke="rgb(0%, 0%, 0%)" stroke-opacity="1" stroke-miterlimit="10" d="M 8.503681 -3.485351 L 8.503681 3.487305 Z M 8.503681 -3.485351 " transform="matrix(2.466667, 0, 0, -2.466667, 190.848472, 24.0278)"/>
<path fill="none" stroke-width="0.3487" stroke-linecap="round" stroke-linejoin="miter" stroke="rgb(0%, 0%, 0%)" stroke-opacity="1" stroke-miterlimit="10" d="M 28.347959 -3.485351 L 28.347959 3.487305 Z M 28.347959 -3.485351 " transform="matrix(2.466667, 0, 0, -2.466667, 190.848472, 24.0278)"/>
<path fill="none" stroke-width="0.3487" stroke-linecap="round" stroke-linejoin="miter" stroke="rgb(0%, 0%, 0%)" stroke-opacity="1" stroke-miterlimit="10" d="M 48.192237 -3.485351 L 48.192237 3.487305 Z M 48.192237 -3.485351 " transform="matrix(2.466667, 0, 0, -2.466667, 190.848472, 24.0278)"/>
<path fill="none" stroke-width="0.3487" stroke-linecap="round" stroke-linejoin="miter" stroke="rgb(0%, 0%, 0%)" stroke-opacity="1" stroke-miterlimit="10" d="M 68.031764 -3.485351 L 68.031764 3.487305 Z M 68.031764 -3.485351 " transform="matrix(2.466667, 0, 0, -2.466667, 190.848472, 24.0278)"/>
<path fill="none" stroke-width="0.3487" stroke-linecap="round" stroke-linejoin="miter" stroke="rgb(0%, 0%, 0%)" stroke-opacity="1" stroke-miterlimit="10" d="M 87.874458 -3.485351 L 87.874458 3.487305 Z M 87.874458 -3.485351 " transform="matrix(2.466667, 0, 0, -2.466667, 190.848472, 24.0278)"/>
<path fill="none" stroke-width="0.3487" stroke-linecap="round" stroke-linejoin="miter" stroke="rgb(0%, 0%, 0%)" stroke-opacity="1" stroke-miterlimit="10" d="M 107.718736 -3.485351 L 107.718736 3.487305 Z M 107.718736 -3.485351 " transform="matrix(2.466667, 0, 0, -2.466667, 190.848472, 24.0278)"/>
<path fill="none" stroke-width="0.3487" stroke-linecap="round" stroke-linejoin="miter" stroke="rgb(0%, 0%, 0%)" stroke-opacity="1" stroke-miterlimit="10" d="M 127.558263 -3.485351 L 127.558263 3.487305 Z M 127.558263 -3.485351 " transform="matrix(2.466667, 0, 0, -2.466667, 190.848472, 24.0278)"/>
<path fill="none" stroke-width="0.3487" stroke-linecap="round" stroke-linejoin="miter" stroke="rgb(0%, 0%, 0%)" stroke-opacity="1" stroke-miterlimit="10" d="M 147.402541 -3.485351 L 147.402541 3.487305 Z M 147.402541 -3.485351 " transform="matrix(2.466667, 0, 0, -2.466667, 190.848472, 24.0278)"/>
<path fill="none" stroke-width="0.3487" stroke-linecap="round" stroke-linejoin="miter" stroke="rgb(0%, 0%, 0%)" stroke-opacity="1" stroke-miterlimit="10" d="M 167.246819 -3.485351 L 167.246819 3.487305 Z M 167.246819 -3.485351 " transform="matrix(2.466667, 0, 0, -2.466667, 190.848472, 24.0278)"/>
</svg>
