<?xml version="1.0" encoding="UTF-8"?>
<svg xmlns="http://www.w3.org/2000/svg" xmlns:xlink="http://www.w3.org/1999/xlink" width="628.309336" height="158.463592" viewBox="0 0 628.309336 158.463592">
<defs>
<clipPath id="clip-0">
<path clip-rule="nonzero" d="M 444 0 L 540 0 L 540 158.464844 L 444 158.464844 Z M 444 0 "/>
</clipPath>
</defs>
<path fill="none" stroke-width="0.3985" stroke-linecap="butt" stroke-linejoin="miter" stroke="rgb(0%, 0%, 0%)" stroke-opacity="1" stroke-miterlimit="10" d="M -0.00013836 -0.000589268 L 176.593506 -0.000589268 " transform="matrix(2.466667, 0, 0, -2.466667, 179.644873, 47.490734)"/>
<path fill-rule="nonzero" fill="rgb(0%, 0%, 0%)" fill-opacity="1" d="M 620.15625 47.492188 L 612.292969 43.5625 L 615.242188 47.492188 L 612.292969 51.425781 "/>
<path fill-rule="nonzero" fill="rgb(0%, 0%, 0%)" fill-opacity="1" d="M 15.996094 48.277344 C 15.996094 44.265625 18 43.226562 19.3125 43.226562 C 19.542969 43.226562 21.082031 43.265625 21.929688 44.152344 C 20.929688 44.230469 20.773438 44.960938 20.773438 45.269531 C 20.773438 45.925781 21.238281 46.386719 21.894531 46.386719 C 22.546875 46.386719 23.050781 46 23.050781 45.230469 C 23.050781 43.574219 21.160156 42.609375 19.273438 42.609375 C 16.1875 42.609375 13.953125 45.269531 13.953125 48.3125 C 13.953125 51.472656 16.382812 53.902344 19.234375 53.902344 C 22.507812 53.902344 23.320312 50.933594 23.320312 50.703125 C 23.320312 50.472656 23.050781 50.472656 22.972656 50.472656 C 22.78125 50.472656 22.703125 50.550781 22.664062 50.703125 C 21.96875 52.976562 20.351562 53.285156 19.464844 53.285156 C 18.15625 53.285156 15.996094 52.246094 15.996094 48.277344 Z M 15.996094 48.277344 "/>
<path fill-rule="nonzero" fill="rgb(0%, 0%, 0%)" fill-opacity="1" d="M 32.195312 51.78125 C 32.3125 52.746094 32.96875 53.785156 34.125 53.785156 C 34.664062 53.785156 36.167969 53.441406 36.167969 51.4375 L 36.167969 50.046875 L 35.550781 50.046875 L 35.550781 51.4375 C 35.550781 52.863281 34.933594 53.015625 34.664062 53.015625 C 33.855469 53.015625 33.738281 51.898438 33.738281 51.78125 L 33.738281 46.886719 C 33.738281 45.847656 33.738281 44.882812 32.851562 43.957031 C 31.890625 42.996094 30.65625 42.609375 29.5 42.609375 C 27.457031 42.609375 25.761719 43.765625 25.761719 45.386719 C 25.761719 46.117188 26.261719 46.542969 26.917969 46.542969 C 27.609375 46.542969 28.035156 46.039062 28.035156 45.421875 C 28.035156 45.113281 27.917969 44.304688 26.761719 44.304688 C 27.457031 43.417969 28.652344 43.148438 29.421875 43.148438 C 30.65625 43.148438 32.042969 44.113281 32.042969 46.308594 L 32.042969 47.195312 C 30.769531 47.273438 29.074219 47.351562 27.535156 48.082031 C 25.683594 48.929688 25.066406 50.203125 25.066406 51.28125 C 25.066406 53.285156 27.457031 53.902344 29 53.902344 C 30.617188 53.902344 31.734375 52.902344 32.195312 51.78125 Z M 32.042969 47.734375 L 32.042969 50.203125 C 32.042969 52.515625 30.269531 53.363281 29.152344 53.363281 C 27.957031 53.363281 26.957031 52.515625 26.957031 51.28125 C 26.957031 49.933594 27.996094 47.890625 32.042969 47.734375 Z M 32.042969 47.734375 "/>
<path fill-rule="nonzero" fill="rgb(0%, 0%, 0%)" fill-opacity="1" d="M 40.667969 36.558594 L 37.121094 36.828125 L 37.121094 37.597656 C 38.855469 37.597656 39.050781 37.753906 39.050781 38.988281 L 39.050781 51.78125 C 39.050781 52.863281 38.78125 52.863281 37.121094 52.863281 L 37.121094 53.632812 C 37.933594 53.59375 39.242188 53.554688 39.859375 53.554688 C 40.476562 53.554688 41.671875 53.59375 42.597656 53.632812 L 42.597656 52.863281 C 40.9375 52.863281 40.667969 52.863281 40.667969 51.78125 Z M 40.667969 36.558594 "/>
<path fill-rule="nonzero" fill="rgb(0%, 0%, 0%)" fill-opacity="1" d="M 46.03125 48.277344 C 46.03125 44.265625 48.035156 43.226562 49.34375 43.226562 C 49.578125 43.226562 51.117188 43.265625 51.964844 44.152344 C 50.964844 44.230469 50.808594 44.960938 50.808594 45.269531 C 50.808594 45.925781 51.273438 46.386719 51.929688 46.386719 C 52.582031 46.386719 53.085938 46 53.085938 45.230469 C 53.085938 43.574219 51.195312 42.609375 49.308594 42.609375 C 46.222656 42.609375 43.988281 45.269531 43.988281 48.3125 C 43.988281 51.472656 46.417969 53.902344 49.269531 53.902344 C 52.542969 53.902344 53.355469 50.933594 53.355469 50.703125 C 53.355469 50.472656 53.085938 50.472656 53.007812 50.472656 C 52.8125 50.472656 52.738281 50.550781 52.699219 50.703125 C 52.003906 52.976562 50.386719 53.285156 49.5 53.285156 C 48.1875 53.285156 46.03125 52.246094 46.03125 48.277344 Z M 46.03125 48.277344 "/>
<path fill-rule="nonzero" fill="rgb(0%, 0%, 0%)" fill-opacity="1" d="M 58.417969 42.765625 L 54.984375 43.035156 L 54.984375 43.804688 C 56.566406 43.804688 56.796875 43.957031 56.796875 45.152344 L 56.796875 51.78125 C 56.796875 52.863281 56.527344 52.863281 54.871094 52.863281 L 54.871094 53.632812 C 55.640625 53.59375 56.992188 53.554688 57.570312 53.554688 C 58.453125 53.554688 59.304688 53.59375 60.152344 53.632812 L 60.152344 52.863281 C 58.492188 52.863281 58.417969 52.746094 58.417969 51.78125 Z M 58.492188 38.484375 C 58.492188 37.714844 57.914062 37.175781 57.222656 37.175781 C 56.449219 37.175781 55.910156 37.832031 55.910156 38.484375 C 55.910156 39.140625 56.449219 39.796875 57.222656 39.796875 C 57.914062 39.796875 58.492188 39.257812 58.492188 38.484375 Z M 58.492188 38.484375 "/>
<path fill-rule="nonzero" fill="rgb(0%, 0%, 0%)" fill-opacity="1" d="M 70.484375 51.707031 L 70.484375 53.902344 L 74.03125 53.632812 L 74.03125 52.863281 C 72.335938 52.863281 72.140625 52.707031 72.140625 51.472656 L 72.140625 42.765625 L 68.519531 43.035156 L 68.519531 43.804688 C 70.214844 43.804688 70.445312 43.957031 70.445312 45.191406 L 70.445312 49.546875 C 70.445312 51.707031 69.25 53.363281 67.441406 53.363281 C 65.398438 53.363281 65.28125 52.207031 65.28125 50.933594 L 65.28125 42.765625 L 61.660156 43.035156 L 61.660156 43.804688 C 63.585938 43.804688 63.585938 43.882812 63.585938 46.039062 L 63.585938 49.738281 C 63.585938 51.667969 63.585938 53.902344 67.324219 53.902344 C 68.710938 53.902344 69.789062 53.207031 70.484375 51.707031 Z M 70.484375 51.707031 "/>
<path fill-rule="nonzero" fill="rgb(0%, 0%, 0%)" fill-opacity="1" d="M 77.238281 45.191406 L 77.238281 51.78125 C 77.238281 52.863281 76.96875 52.863281 75.3125 52.863281 L 75.3125 53.632812 C 76.199219 53.59375 77.433594 53.554688 78.125 53.554688 C 78.742188 53.554688 80.015625 53.59375 80.863281 53.632812 L 80.863281 52.863281 C 79.203125 52.863281 78.933594 52.863281 78.933594 51.78125 L 78.933594 47.234375 C 78.933594 44.691406 80.707031 43.304688 82.25 43.304688 C 83.828125 43.304688 84.101562 44.613281 84.101562 46.039062 L 84.101562 51.78125 C 84.101562 52.863281 83.828125 52.863281 82.171875 52.863281 L 82.171875 53.632812 C 83.019531 53.59375 84.292969 53.554688 84.949219 53.554688 C 85.5625 53.554688 86.875 53.59375 87.683594 53.632812 L 87.683594 52.863281 C 86.066406 52.863281 85.796875 52.863281 85.796875 51.78125 L 85.796875 47.234375 C 85.796875 44.691406 87.53125 43.304688 89.109375 43.304688 C 90.652344 43.304688 90.921875 44.613281 90.921875 46.039062 L 90.921875 51.78125 C 90.921875 52.863281 90.652344 52.863281 88.996094 52.863281 L 88.996094 53.632812 C 89.84375 53.59375 91.113281 53.554688 91.769531 53.554688 C 92.425781 53.554688 93.695312 53.59375 94.542969 53.632812 L 94.542969 52.863281 C 93.273438 52.863281 92.65625 52.863281 92.617188 52.128906 L 92.617188 47.425781 C 92.617188 45.308594 92.617188 44.574219 91.847656 43.6875 C 91.5 43.265625 90.691406 42.765625 89.265625 42.765625 C 87.222656 42.765625 86.105469 44.230469 85.71875 45.191406 C 85.371094 43.035156 83.558594 42.765625 82.441406 42.765625 C 80.632812 42.765625 79.476562 43.804688 78.78125 45.347656 L 78.78125 42.765625 L 75.3125 43.035156 L 75.3125 43.804688 C 77.046875 43.804688 77.238281 43.957031 77.238281 45.191406 Z M 77.238281 45.191406 "/>
<path fill-rule="nonzero" fill="rgb(0%, 0%, 0%)" fill-opacity="1" d="M 111.335938 59.53125 C 111.335938 59.453125 111.335938 59.414062 110.910156 58.988281 C 107.867188 55.90625 107.058594 51.242188 107.058594 47.464844 C 107.058594 43.1875 107.980469 38.910156 111.027344 35.863281 C 111.335938 35.558594 111.335938 35.519531 111.335938 35.441406 C 111.335938 35.25 111.257812 35.171875 111.105469 35.171875 C 110.832031 35.171875 108.636719 36.867188 107.171875 39.988281 C 105.9375 42.6875 105.628906 45.421875 105.628906 47.464844 C 105.628906 49.394531 105.902344 52.359375 107.25 55.175781 C 108.753906 58.179688 110.832031 59.800781 111.105469 59.800781 C 111.257812 59.800781 111.335938 59.722656 111.335938 59.53125 Z M 111.335938 59.53125 "/>
<path fill-rule="nonzero" fill="rgb(0%, 0%, 0%)" fill-opacity="1" d="M 115.457031 45.191406 L 115.457031 51.78125 C 115.457031 52.863281 115.1875 52.863281 113.53125 52.863281 L 113.53125 53.632812 C 114.417969 53.59375 115.648438 53.554688 116.34375 53.554688 C 116.960938 53.554688 118.234375 53.59375 119.082031 53.632812 L 119.082031 52.863281 C 117.421875 52.863281 117.152344 52.863281 117.152344 51.78125 L 117.152344 47.234375 C 117.152344 44.691406 118.925781 43.304688 120.46875 43.304688 C 122.046875 43.304688 122.316406 44.613281 122.316406 46.039062 L 122.316406 51.78125 C 122.316406 52.863281 122.046875 52.863281 120.390625 52.863281 L 120.390625 53.632812 C 121.238281 53.59375 122.511719 53.554688 123.164062 53.554688 C 123.78125 53.554688 125.09375 53.59375 125.902344 53.632812 L 125.902344 52.863281 C 124.285156 52.863281 124.015625 52.863281 124.015625 51.78125 L 124.015625 47.234375 C 124.015625 44.691406 125.75 43.304688 127.328125 43.304688 C 128.871094 43.304688 129.140625 44.613281 129.140625 46.039062 L 129.140625 51.78125 C 129.140625 52.863281 128.871094 52.863281 127.210938 52.863281 L 127.210938 53.632812 C 128.0625 53.59375 129.332031 53.554688 129.988281 53.554688 C 130.644531 53.554688 131.914062 53.59375 132.761719 53.632812 L 132.761719 52.863281 C 131.492188 52.863281 130.875 52.863281 130.835938 52.128906 L 130.835938 47.425781 C 130.835938 45.308594 130.835938 44.574219 130.066406 43.6875 C 129.71875 43.265625 128.910156 42.765625 127.484375 42.765625 C 125.441406 42.765625 124.320312 44.230469 123.9375 45.191406 C 123.589844 43.035156 121.777344 42.765625 120.660156 42.765625 C 118.847656 42.765625 117.691406 43.804688 117 45.347656 L 117 42.765625 L 113.53125 43.035156 L 113.53125 43.804688 C 115.265625 43.804688 115.457031 43.957031 115.457031 45.191406 Z M 115.457031 45.191406 "/>
<path fill-rule="nonzero" fill="rgb(0%, 0%, 0%)" fill-opacity="1" d="M 138.710938 49.394531 C 136.550781 49.394531 136.550781 46.925781 136.550781 46.386719 C 136.550781 45.730469 136.589844 44.921875 136.9375 44.304688 C 137.128906 44.035156 137.707031 43.34375 138.710938 43.34375 C 140.832031 43.34375 140.832031 45.769531 140.832031 46.347656 C 140.832031 47.003906 140.832031 47.8125 140.445312 48.429688 C 140.253906 48.699219 139.675781 49.394531 138.710938 49.394531 Z M 135.859375 50.355469 C 135.859375 50.28125 135.859375 49.703125 136.242188 49.199219 C 137.207031 49.894531 138.246094 49.972656 138.710938 49.972656 C 140.984375 49.972656 142.679688 48.277344 142.679688 46.386719 C 142.679688 45.460938 142.292969 44.574219 141.679688 43.996094 C 142.566406 43.148438 143.449219 43.035156 143.875 43.035156 C 143.953125 43.035156 144.066406 43.035156 144.144531 43.074219 C 143.875 43.148438 143.722656 43.417969 143.722656 43.726562 C 143.722656 44.152344 144.066406 44.421875 144.453125 44.421875 C 144.683594 44.421875 145.148438 44.265625 145.148438 43.6875 C 145.148438 43.265625 144.878906 42.496094 143.914062 42.496094 C 143.414062 42.496094 142.332031 42.648438 141.292969 43.652344 C 140.253906 42.839844 139.25 42.765625 138.710938 42.765625 C 136.398438 42.765625 134.703125 44.460938 134.703125 46.347656 C 134.703125 47.425781 135.242188 48.351562 135.859375 48.890625 C 135.550781 49.238281 135.085938 50.046875 135.085938 50.933594 C 135.085938 51.707031 135.433594 52.628906 136.207031 53.132812 C 134.703125 53.515625 133.929688 54.597656 133.929688 55.558594 C 133.929688 57.332031 136.359375 58.683594 139.367188 58.683594 C 142.257812 58.683594 144.800781 57.449219 144.800781 55.519531 C 144.800781 54.671875 144.492188 53.402344 143.21875 52.707031 C 141.910156 52.050781 140.484375 52.050781 138.980469 52.050781 C 138.363281 52.050781 137.324219 52.050781 137.128906 52.015625 C 136.359375 51.898438 135.859375 51.167969 135.859375 50.355469 Z M 139.402344 58.140625 C 136.898438 58.140625 135.203125 56.871094 135.203125 55.558594 C 135.203125 54.441406 136.128906 53.515625 137.207031 53.480469 L 138.671875 53.480469 C 140.792969 53.480469 143.527344 53.480469 143.527344 55.558594 C 143.527344 56.910156 141.792969 58.140625 139.402344 58.140625 Z M 139.402344 58.140625 "/>
<path fill-rule="nonzero" fill="rgb(0%, 0%, 0%)" fill-opacity="1" d="M 152.617188 47.464844 C 152.617188 45.578125 152.347656 42.609375 150.996094 39.796875 C 149.53125 36.789062 147.414062 35.171875 147.183594 35.171875 C 147.027344 35.171875 146.914062 35.285156 146.914062 35.441406 C 146.914062 35.519531 146.914062 35.558594 147.375 36.019531 C 149.804688 38.449219 151.191406 42.339844 151.191406 47.464844 C 151.191406 51.707031 150.304688 56.023438 147.257812 59.105469 C 146.914062 59.414062 146.914062 59.453125 146.914062 59.53125 C 146.914062 59.683594 147.027344 59.800781 147.183594 59.800781 C 147.414062 59.800781 149.648438 58.105469 151.074219 54.980469 C 152.347656 52.285156 152.617188 49.546875 152.617188 47.464844 Z M 152.617188 47.464844 "/>
<path fill="none" stroke-width="0.3487" stroke-linecap="round" stroke-linejoin="miter" stroke="rgb(0%, 0%, 0%)" stroke-opacity="1" stroke-miterlimit="10" d="M 8.50229 -3.484542 L 8.50229 3.488114 Z M 8.50229 -3.484542 " transform="matrix(2.466667, 0, 0, -2.466667, 179.644873, 47.490734)"/>
<path fill="none" stroke-width="0.3487" stroke-linecap="round" stroke-linejoin="miter" stroke="rgb(0%, 0%, 0%)" stroke-opacity="1" stroke-miterlimit="10" d="M 47.834532 -3.484542 L 47.834532 3.488114 Z M 47.834532 -3.484542 " transform="matrix(2.466667, 0, 0, -2.466667, 179.644873, 47.490734)"/>
<path fill="none" stroke-width="0.3487" stroke-linecap="round" stroke-linejoin="miter" stroke="rgb(0%, 0%, 0%)" stroke-opacity="1" stroke-miterlimit="10" d="M 87.166775 -3.484542 L 87.166775 3.488114 Z M 87.166775 -3.484542 " transform="matrix(2.466667, 0, 0, -2.466667, 179.644873, 47.490734)"/>
<path fill="none" stroke-width="0.3487" stroke-linecap="round" stroke-linejoin="miter" stroke="rgb(0%, 0%, 0%)" stroke-opacity="1" stroke-miterlimit="10" d="M 126.499017 -3.484542 L 126.499017 3.488114 Z M 126.499017 -3.484542 " transform="matrix(2.466667, 0, 0, -2.466667, 179.644873, 47.490734)"/>
<path fill="none" stroke-width="0.3487" stroke-linecap="round" stroke-linejoin="miter" stroke="rgb(0%, 0%, 0%)" stroke-opacity="1" stroke-miterlimit="10" d="M 165.826509 -3.484542 L 165.826509 3.488114 Z M 165.826509 -3.484542 " transform="matrix(2.466667, 0, 0, -2.466667, 179.644873, 47.490734)"/>
<path fill-rule="nonzero" fill="rgb(0%, 0%, 0%)" fill-opacity="1" d="M 205.421875 24.527344 C 205.421875 23.0625 205.34375 21.132812 204.574219 19.476562 C 203.570312 17.394531 201.914062 16.894531 200.640625 16.894531 C 199.292969 16.894531 197.597656 17.394531 196.632812 19.554688 C 195.941406 21.058594 195.824219 22.867188 195.824219 24.527344 C 195.824219 25.992188 195.863281 28.109375 196.828125 29.882812 C 197.867188 31.734375 199.601562 32.117188 200.605469 32.117188 C 202.03125 32.117188 203.6875 31.503906 204.613281 29.460938 C 205.265625 27.957031 205.421875 26.300781 205.421875 24.527344 Z M 200.640625 31.539062 C 199.949219 31.539062 198.367188 31.230469 197.945312 28.726562 C 197.714844 27.457031 197.714844 25.527344 197.714844 24.257812 C 197.714844 22.753906 197.714844 21.019531 197.984375 19.785156 C 198.445312 17.820312 199.832031 17.433594 200.605469 17.433594 C 201.453125 17.433594 202.839844 17.898438 203.261719 19.941406 C 203.496094 21.132812 203.496094 22.867188 203.496094 24.257812 C 203.496094 25.644531 203.496094 27.492188 203.261719 28.804688 C 202.800781 31.347656 201.183594 31.539062 200.640625 31.539062 Z M 200.640625 31.539062 "/>
<path fill-rule="nonzero" fill="rgb(0%, 0%, 0%)" fill-opacity="1" d="M 287.332031 23.832031 C 289.375 23.0625 290.378906 21.441406 290.378906 19.902344 C 290.378906 18.207031 288.488281 16.894531 286.175781 16.894531 C 283.902344 16.894531 282.167969 18.207031 282.167969 19.863281 C 282.167969 20.59375 282.632812 21.019531 283.285156 21.019531 C 283.941406 21.019531 284.402344 20.554688 284.402344 19.902344 C 284.402344 19.128906 283.863281 18.820312 283.09375 18.820312 C 283.671875 17.898438 285.019531 17.433594 286.136719 17.433594 C 287.949219 17.433594 288.296875 18.898438 288.296875 19.941406 C 288.296875 20.59375 288.179688 21.675781 287.640625 22.523438 C 286.949219 23.484375 286.175781 23.523438 285.523438 23.601562 C 284.980469 23.640625 284.945312 23.640625 284.75 23.640625 C 284.558594 23.640625 284.367188 23.679688 284.367188 23.910156 C 284.367188 24.21875 284.558594 24.21875 284.945312 24.21875 L 285.945312 24.21875 C 287.871094 24.21875 288.71875 25.757812 288.71875 27.839844 C 288.71875 30.691406 287.21875 31.503906 286.101562 31.503906 C 285.675781 31.503906 283.515625 31.386719 282.554688 29.730469 C 283.324219 29.84375 283.941406 29.304688 283.941406 28.535156 C 283.941406 27.800781 283.402344 27.339844 282.746094 27.339844 C 282.207031 27.339844 281.550781 27.6875 281.550781 28.613281 C 281.550781 30.578125 283.59375 32.117188 286.175781 32.117188 C 288.914062 32.117188 290.996094 30.113281 290.996094 27.839844 C 290.996094 25.914062 289.453125 24.292969 287.332031 23.832031 Z M 287.332031 23.832031 "/>
<path fill-rule="nonzero" fill="rgb(0%, 0%, 0%)" fill-opacity="1" d="M 302.4375 24.527344 C 302.4375 23.0625 302.359375 21.132812 301.589844 19.476562 C 300.585938 17.394531 298.929688 16.894531 297.660156 16.894531 C 296.308594 16.894531 294.613281 17.394531 293.648438 19.554688 C 292.957031 21.058594 292.839844 22.867188 292.839844 24.527344 C 292.839844 25.992188 292.878906 28.109375 293.84375 29.882812 C 294.882812 31.734375 296.617188 32.117188 297.621094 32.117188 C 299.046875 32.117188 300.703125 31.503906 301.628906 29.460938 C 302.285156 27.957031 302.4375 26.300781 302.4375 24.527344 Z M 297.660156 31.539062 C 296.964844 31.539062 295.382812 31.230469 294.960938 28.726562 C 294.730469 27.457031 294.730469 25.527344 294.730469 24.257812 C 294.730469 22.753906 294.730469 21.019531 295 19.785156 C 295.460938 17.820312 296.847656 17.433594 297.621094 17.433594 C 298.46875 17.433594 299.855469 17.898438 300.277344 19.941406 C 300.511719 21.132812 300.511719 22.867188 300.511719 24.257812 C 300.511719 25.644531 300.511719 27.492188 300.277344 28.804688 C 299.816406 31.347656 298.199219 31.539062 297.660156 31.539062 Z M 297.660156 31.539062 "/>
<path fill-rule="nonzero" fill="rgb(0%, 0%, 0%)" fill-opacity="1" d="M 313.804688 24.527344 C 313.804688 23.0625 313.726562 21.132812 312.957031 19.476562 C 311.953125 17.394531 310.296875 16.894531 309.023438 16.894531 C 307.675781 16.894531 305.980469 17.394531 305.015625 19.554688 C 304.324219 21.058594 304.207031 22.867188 304.207031 24.527344 C 304.207031 25.992188 304.246094 28.109375 305.207031 29.882812 C 306.25 31.734375 307.984375 32.117188 308.984375 32.117188 C 310.410156 32.117188 312.070312 31.503906 312.996094 29.460938 C 313.648438 27.957031 313.804688 26.300781 313.804688 24.527344 Z M 309.023438 31.539062 C 308.332031 31.539062 306.75 31.230469 306.328125 28.726562 C 306.09375 27.457031 306.09375 25.527344 306.09375 24.257812 C 306.09375 22.753906 306.09375 21.019531 306.363281 19.785156 C 306.828125 17.820312 308.214844 17.433594 308.984375 17.433594 C 309.832031 17.433594 311.222656 17.898438 311.644531 19.941406 C 311.875 21.132812 311.875 22.867188 311.875 24.257812 C 311.875 25.644531 311.875 27.492188 311.644531 28.804688 C 311.183594 31.347656 309.5625 31.539062 309.023438 31.539062 Z M 309.023438 31.539062 "/>
<path fill-rule="nonzero" fill="rgb(0%, 0%, 0%)" fill-opacity="1" d="M 380.574219 24.292969 C 380.574219 22.019531 380.804688 20.789062 381.421875 19.632812 C 381.84375 18.707031 382.921875 17.433594 384.582031 17.433594 C 385.003906 17.433594 386.046875 17.511719 386.546875 18.320312 C 385.738281 18.320312 385.351562 18.746094 385.351562 19.324219 C 385.351562 19.902344 385.777344 20.363281 386.390625 20.363281 C 387.007812 20.363281 387.433594 19.941406 387.433594 19.285156 C 387.433594 18.050781 386.546875 16.894531 384.542969 16.894531 C 381.691406 16.894531 378.566406 19.707031 378.566406 24.640625 C 378.566406 30.617188 381.265625 32.117188 383.347656 32.117188 C 385.777344 32.117188 388.011719 30.039062 388.011719 27.109375 C 388.011719 24.332031 385.96875 22.175781 383.464844 22.175781 C 382.152344 22.175781 381.1875 22.984375 380.574219 24.292969 Z M 383.308594 31.503906 C 382.035156 31.503906 381.304688 30.460938 381.074219 29.804688 C 380.648438 28.804688 380.609375 26.953125 380.609375 26.605469 C 380.609375 25.144531 381.304688 22.753906 383.425781 22.753906 C 383.769531 22.753906 384.851562 22.753906 385.582031 24.101562 C 386.007812 24.949219 386.007812 26.027344 386.007812 27.109375 C 386.007812 28.148438 386.007812 29.265625 385.582031 30.074219 C 384.890625 31.347656 383.925781 31.503906 383.308594 31.503906 Z M 383.308594 31.503906 "/>
<path fill-rule="nonzero" fill="rgb(0%, 0%, 0%)" fill-opacity="1" d="M 399.453125 24.527344 C 399.453125 23.0625 399.378906 21.132812 398.605469 19.476562 C 397.605469 17.394531 395.945312 16.894531 394.675781 16.894531 C 393.324219 16.894531 391.628906 17.394531 390.667969 19.554688 C 389.972656 21.058594 389.855469 22.867188 389.855469 24.527344 C 389.855469 25.992188 389.894531 28.109375 390.859375 29.882812 C 391.898438 31.734375 393.632812 32.117188 394.636719 32.117188 C 396.0625 32.117188 397.71875 31.503906 398.644531 29.460938 C 399.300781 27.957031 399.453125 26.300781 399.453125 24.527344 Z M 394.675781 31.539062 C 393.980469 31.539062 392.402344 31.230469 391.976562 28.726562 C 391.746094 27.457031 391.746094 25.527344 391.746094 24.257812 C 391.746094 22.753906 391.746094 21.019531 392.015625 19.785156 C 392.476562 17.820312 393.867188 17.433594 394.636719 17.433594 C 395.484375 17.433594 396.871094 17.898438 397.296875 19.941406 C 397.527344 21.132812 397.527344 22.867188 397.527344 24.257812 C 397.527344 25.644531 397.527344 27.492188 397.296875 28.804688 C 396.832031 31.347656 395.214844 31.539062 394.675781 31.539062 Z M 394.675781 31.539062 "/>
<path fill-rule="nonzero" fill="rgb(0%, 0%, 0%)" fill-opacity="1" d="M 410.820312 24.527344 C 410.820312 23.0625 410.742188 21.132812 409.972656 19.476562 C 408.96875 17.394531 407.3125 16.894531 406.039062 16.894531 C 404.691406 16.894531 402.996094 17.394531 402.03125 19.554688 C 401.339844 21.058594 401.222656 22.867188 401.222656 24.527344 C 401.222656 25.992188 401.261719 28.109375 402.226562 29.882812 C 403.265625 31.734375 405 32.117188 406.003906 32.117188 C 407.429688 32.117188 409.085938 31.503906 410.011719 29.460938 C 410.664062 27.957031 410.820312 26.300781 410.820312 24.527344 Z M 406.039062 31.539062 C 405.347656 31.539062 403.765625 31.230469 403.34375 28.726562 C 403.113281 27.457031 403.113281 25.527344 403.113281 24.257812 C 403.113281 22.753906 403.113281 21.019531 403.382812 19.785156 C 403.84375 17.820312 405.230469 17.433594 406.003906 17.433594 C 406.851562 17.433594 408.238281 17.898438 408.660156 19.941406 C 408.894531 21.132812 408.894531 22.867188 408.894531 24.257812 C 408.894531 25.644531 408.894531 27.492188 408.660156 28.804688 C 408.199219 31.347656 406.582031 31.539062 406.039062 31.539062 Z M 406.039062 31.539062 "/>
<path fill-rule="nonzero" fill="rgb(0%, 0%, 0%)" fill-opacity="1" d="M 483.023438 24.640625 L 483.023438 25.144531 C 483.023438 30.539062 480.554688 31.503906 479.285156 31.503906 C 478.785156 31.503906 477.664062 31.386719 477.085938 30.652344 L 477.164062 30.652344 C 477.359375 30.691406 478.207031 30.539062 478.207031 29.652344 C 478.207031 29.074219 477.820312 28.648438 477.203125 28.648438 C 476.585938 28.648438 476.164062 29.035156 476.164062 29.691406 C 476.164062 31.15625 477.320312 32.117188 479.324219 32.117188 C 482.175781 32.117188 485.027344 29.191406 485.027344 24.332031 C 485.027344 18.359375 482.367188 16.894531 480.363281 16.894531 C 477.820312 16.894531 475.585938 18.9375 475.585938 21.828125 C 475.585938 24.640625 477.589844 26.761719 480.09375 26.761719 C 481.710938 26.761719 482.597656 25.605469 483.023438 24.640625 Z M 480.171875 26.222656 C 479.785156 26.222656 478.707031 26.222656 478.011719 24.835938 C 477.589844 24.023438 477.589844 22.90625 477.589844 21.867188 C 477.589844 20.789062 477.589844 19.707031 478.050781 18.859375 C 478.707031 17.742188 479.59375 17.433594 480.363281 17.433594 C 481.867188 17.433594 482.484375 18.976562 482.5625 19.167969 C 482.867188 20.015625 482.945312 21.367188 482.945312 22.289062 C 482.945312 23.910156 482.214844 26.222656 480.171875 26.222656 Z M 480.171875 26.222656 "/>
<path fill-rule="nonzero" fill="rgb(0%, 0%, 0%)" fill-opacity="1" d="M 496.46875 24.527344 C 496.46875 23.0625 496.394531 21.132812 495.621094 19.476562 C 494.621094 17.394531 492.964844 16.894531 491.691406 16.894531 C 490.34375 16.894531 488.648438 17.394531 487.683594 19.554688 C 486.988281 21.058594 486.875 22.867188 486.875 24.527344 C 486.875 25.992188 486.914062 28.109375 487.875 29.882812 C 488.917969 31.734375 490.652344 32.117188 491.652344 32.117188 C 493.078125 32.117188 494.734375 31.503906 495.660156 29.460938 C 496.316406 27.957031 496.46875 26.300781 496.46875 24.527344 Z M 491.691406 31.539062 C 490.996094 31.539062 489.417969 31.230469 488.992188 28.726562 C 488.761719 27.457031 488.761719 25.527344 488.761719 24.257812 C 488.761719 22.753906 488.761719 21.019531 489.03125 19.785156 C 489.496094 17.820312 490.882812 17.433594 491.652344 17.433594 C 492.5 17.433594 493.886719 17.898438 494.3125 19.941406 C 494.542969 21.132812 494.542969 22.867188 494.542969 24.257812 C 494.542969 25.644531 494.542969 27.492188 494.3125 28.804688 C 493.851562 31.347656 492.230469 31.539062 491.691406 31.539062 Z M 491.691406 31.539062 "/>
<path fill-rule="nonzero" fill="rgb(0%, 0%, 0%)" fill-opacity="1" d="M 507.835938 24.527344 C 507.835938 23.0625 507.757812 21.132812 506.988281 19.476562 C 505.988281 17.394531 504.328125 16.894531 503.058594 16.894531 C 501.707031 16.894531 500.011719 17.394531 499.050781 19.554688 C 498.355469 21.058594 498.238281 22.867188 498.238281 24.527344 C 498.238281 25.992188 498.277344 28.109375 499.242188 29.882812 C 500.28125 31.734375 502.015625 32.117188 503.019531 32.117188 C 504.445312 32.117188 506.101562 31.503906 507.027344 29.460938 C 507.683594 27.957031 507.835938 26.300781 507.835938 24.527344 Z M 503.058594 31.539062 C 502.363281 31.539062 500.785156 31.230469 500.359375 28.726562 C 500.128906 27.457031 500.128906 25.527344 500.128906 24.257812 C 500.128906 22.753906 500.128906 21.019531 500.398438 19.785156 C 500.859375 17.820312 502.246094 17.433594 503.019531 17.433594 C 503.867188 17.433594 505.253906 17.898438 505.679688 19.941406 C 505.910156 21.132812 505.910156 22.867188 505.910156 24.257812 C 505.910156 25.644531 505.910156 27.492188 505.679688 28.804688 C 505.214844 31.347656 503.597656 31.539062 503.058594 31.539062 Z M 503.058594 31.539062 "/>
<path fill-rule="nonzero" fill="rgb(0%, 0%, 0%)" fill-opacity="1" d="M 572.660156 17.472656 C 572.660156 16.933594 572.660156 16.894531 572.117188 16.894531 C 570.730469 18.28125 568.6875 18.28125 567.996094 18.28125 L 567.996094 18.976562 C 568.417969 18.976562 569.769531 18.976562 570.960938 18.398438 L 570.960938 29.84375 C 570.960938 30.652344 570.925781 30.925781 568.84375 30.925781 L 568.148438 30.925781 L 568.148438 31.617188 C 568.917969 31.539062 570.925781 31.539062 571.808594 31.539062 C 572.734375 31.539062 574.699219 31.539062 575.511719 31.617188 L 575.511719 30.925781 L 574.816406 30.925781 C 572.734375 30.925781 572.660156 30.652344 572.660156 29.84375 Z M 572.660156 17.472656 "/>
<path fill-rule="nonzero" fill="rgb(0%, 0%, 0%)" fill-opacity="1" d="M 587.53125 27.6875 L 586.914062 27.6875 C 586.875 27.996094 586.683594 29.304688 586.414062 29.652344 C 586.257812 29.84375 584.757812 29.84375 584.292969 29.84375 L 580.363281 29.84375 L 582.558594 27.761719 C 586.183594 24.640625 587.53125 23.445312 587.53125 21.210938 C 587.53125 18.667969 585.449219 16.894531 582.714844 16.894531 C 580.171875 16.894531 578.4375 18.898438 578.4375 20.902344 C 578.4375 22.019531 579.398438 22.136719 579.59375 22.136719 C 580.09375 22.136719 580.75 21.789062 580.75 20.980469 C 580.75 20.324219 580.285156 19.824219 579.59375 19.824219 C 579.476562 19.824219 579.4375 19.824219 579.320312 19.863281 C 579.863281 18.28125 581.289062 17.589844 582.484375 17.589844 C 584.71875 17.589844 585.488281 19.667969 585.488281 21.210938 C 585.488281 23.445312 583.792969 25.296875 582.753906 26.453125 L 578.707031 30.808594 C 578.4375 31.078125 578.4375 31.117188 578.4375 31.617188 L 586.914062 31.617188 Z M 587.53125 27.6875 "/>
<path fill-rule="nonzero" fill="rgb(0%, 0%, 0%)" fill-opacity="1" d="M 599.167969 24.527344 C 599.167969 23.0625 599.089844 21.132812 598.320312 19.476562 C 597.316406 17.394531 595.660156 16.894531 594.386719 16.894531 C 593.039062 16.894531 591.34375 17.394531 590.378906 19.554688 C 589.6875 21.058594 589.570312 22.867188 589.570312 24.527344 C 589.570312 25.992188 589.609375 28.109375 590.574219 29.882812 C 591.613281 31.734375 593.347656 32.117188 594.351562 32.117188 C 595.777344 32.117188 597.433594 31.503906 598.359375 29.460938 C 599.011719 27.957031 599.167969 26.300781 599.167969 24.527344 Z M 594.386719 31.539062 C 593.695312 31.539062 592.113281 31.230469 591.691406 28.726562 C 591.460938 27.457031 591.460938 25.527344 591.460938 24.257812 C 591.460938 22.753906 591.460938 21.019531 591.730469 19.785156 C 592.191406 17.820312 593.578125 17.433594 594.351562 17.433594 C 595.199219 17.433594 596.585938 17.898438 597.007812 19.941406 C 597.242188 21.132812 597.242188 22.867188 597.242188 24.257812 C 597.242188 25.644531 597.242188 27.492188 597.007812 28.804688 C 596.546875 31.347656 594.929688 31.539062 594.386719 31.539062 Z M 594.386719 31.539062 "/>
<path fill-rule="nonzero" fill="rgb(0%, 0%, 0%)" fill-opacity="1" d="M 610.535156 24.527344 C 610.535156 23.0625 610.457031 21.132812 609.683594 19.476562 C 608.683594 17.394531 607.027344 16.894531 605.753906 16.894531 C 604.40625 16.894531 602.710938 17.394531 601.746094 19.554688 C 601.050781 21.058594 600.9375 22.867188 600.9375 24.527344 C 600.9375 25.992188 600.976562 28.109375 601.9375 29.882812 C 602.980469 31.734375 604.714844 32.117188 605.714844 32.117188 C 607.140625 32.117188 608.800781 31.503906 609.722656 29.460938 C 610.378906 27.957031 610.535156 26.300781 610.535156 24.527344 Z M 605.753906 31.539062 C 605.058594 31.539062 603.480469 31.230469 603.054688 28.726562 C 602.824219 27.457031 602.824219 25.527344 602.824219 24.257812 C 602.824219 22.753906 602.824219 21.019531 603.09375 19.785156 C 603.558594 17.820312 604.945312 17.433594 605.714844 17.433594 C 606.5625 17.433594 607.949219 17.898438 608.375 19.941406 C 608.605469 21.132812 608.605469 22.867188 608.605469 24.257812 C 608.605469 25.644531 608.605469 27.492188 608.375 28.804688 C 607.914062 31.347656 606.292969 31.539062 605.753906 31.539062 Z M 605.753906 31.539062 "/>
<path fill="none" stroke-width="0.3985" stroke-linecap="butt" stroke-linejoin="miter" stroke="rgb(0%, 0%, 0%)" stroke-opacity="1" stroke-miterlimit="10" d="M -0.00013836 -25.735914 L 176.593506 -25.735914 " transform="matrix(2.466667, 0, 0, -2.466667, 179.644873, 47.490734)"/>
<path fill-rule="nonzero" fill="rgb(0%, 0%, 0%)" fill-opacity="1" d="M 620.15625 110.972656 L 612.292969 107.039062 L 615.242188 110.972656 L 612.292969 114.910156 "/>
<path fill="none" stroke-width="0.3487" stroke-linecap="round" stroke-linejoin="miter" stroke="rgb(0%, 0%, 0%)" stroke-opacity="1" stroke-miterlimit="10" d="M 8.50229 -29.223034 L 8.50229 -22.250378 Z M 8.50229 -29.223034 " transform="matrix(2.466667, 0, 0, -2.466667, 179.644873, 47.490734)"/>
<path fill="none" stroke-width="0.3487" stroke-linecap="round" stroke-linejoin="miter" stroke="rgb(0%, 0%, 0%)" stroke-opacity="1" stroke-miterlimit="10" d="M 47.834532 -29.223034 L 47.834532 -22.250378 Z M 47.834532 -29.223034 " transform="matrix(2.466667, 0, 0, -2.466667, 179.644873, 47.490734)"/>
<path fill="none" stroke-width="0.3487" stroke-linecap="round" stroke-linejoin="miter" stroke="rgb(0%, 0%, 0%)" stroke-opacity="1" stroke-miterlimit="10" d="M 87.166775 -29.223034 L 87.166775 -22.250378 Z M 87.166775 -29.223034 " transform="matrix(2.466667, 0, 0, -2.466667, 179.644873, 47.490734)"/>
<path fill="none" stroke-width="0.3487" stroke-linecap="round" stroke-linejoin="miter" stroke="rgb(0%, 0%, 0%)" stroke-opacity="1" stroke-miterlimit="10" d="M 126.499017 -29.223034 L 126.499017 -22.250378 Z M 126.499017 -29.223034 " transform="matrix(2.466667, 0, 0, -2.466667, 179.644873, 47.490734)"/>
<path fill="none" stroke-width="0.3487" stroke-linecap="round" stroke-linejoin="miter" stroke="rgb(0%, 0%, 0%)" stroke-opacity="1" stroke-miterlimit="10" d="M 165.826509 -29.223034 L 165.826509 -22.250378 Z M 165.826509 -29.223034 " transform="matrix(2.466667, 0, 0, -2.466667, 179.644873, 47.490734)"/>
<path fill-rule="nonzero" fill="rgb(0%, 0%, 0%)" fill-opacity="1" d="M 195.949219 133.507812 C 195.949219 132.042969 195.871094 130.117188 195.101562 128.460938 C 194.097656 126.378906 192.441406 125.878906 191.171875 125.878906 C 189.820312 125.878906 188.125 126.378906 187.160156 128.535156 C 186.46875 130.039062 186.351562 131.851562 186.351562 133.507812 C 186.351562 134.972656 186.390625 137.09375 187.355469 138.867188 C 188.394531 140.714844 190.128906 141.101562 191.132812 141.101562 C 192.558594 141.101562 194.214844 140.484375 195.140625 138.441406 C 195.796875 136.9375 195.949219 135.28125 195.949219 133.507812 Z M 191.171875 140.523438 C 190.476562 140.523438 188.894531 140.214844 188.472656 137.710938 C 188.242188 136.4375 188.242188 134.511719 188.242188 133.238281 C 188.242188 131.734375 188.242188 130 188.511719 128.769531 C 188.972656 126.800781 190.359375 126.417969 191.132812 126.417969 C 191.980469 126.417969 193.367188 126.878906 193.792969 128.921875 C 194.023438 130.117188 194.023438 131.851562 194.023438 133.238281 C 194.023438 134.625 194.023438 136.476562 193.792969 137.785156 C 193.328125 140.332031 191.710938 140.523438 191.171875 140.523438 Z M 191.171875 140.523438 "/>
<path fill-rule="nonzero" fill="rgb(0%, 0%, 0%)" fill-opacity="1" d="M 212.402344 124.875 C 212.519531 124.722656 212.597656 124.644531 212.597656 124.488281 C 212.597656 124.179688 212.324219 123.988281 212.132812 123.988281 C 211.863281 123.988281 211.746094 124.144531 211.632812 124.335938 C 210.207031 126.183594 208.355469 126.457031 207.355469 126.457031 C 205.195312 126.457031 203.769531 125.375 203 124.644531 C 202.421875 124.105469 201.84375 123.988281 201.417969 123.988281 C 199.722656 123.988281 198.105469 125.839844 198.105469 128.460938 C 198.105469 131.15625 199.761719 132.929688 201.417969 132.929688 C 203.074219 132.929688 204.386719 130.964844 204.386719 128.460938 C 204.386719 128.152344 204.386719 127.148438 203.960938 126.070312 C 205.3125 126.839844 206.582031 126.996094 207.355469 126.996094 C 208.316406 126.996094 209.320312 126.761719 210.246094 126.261719 L 210.285156 126.300781 L 200.183594 140.910156 C 200.183594 140.945312 199.992188 141.179688 199.992188 141.371094 C 199.992188 141.640625 200.222656 141.832031 200.492188 141.832031 C 200.726562 141.832031 200.839844 141.679688 200.957031 141.488281 Z M 201.496094 132.351562 C 200.996094 132.351562 199.570312 132.082031 199.570312 128.460938 C 199.570312 124.835938 200.996094 124.566406 201.496094 124.566406 C 202.652344 124.566406 203.769531 126.183594 203.769531 128.460938 C 203.769531 130.808594 202.613281 132.351562 201.496094 132.351562 Z M 214.484375 137.402344 C 214.484375 134.820312 213.136719 132.929688 211.515625 132.929688 C 209.820312 132.929688 208.164062 134.742188 208.164062 137.363281 C 208.164062 140.058594 209.859375 141.832031 211.515625 141.832031 C 213.175781 141.832031 214.484375 139.90625 214.484375 137.402344 Z M 211.554688 141.292969 C 211.09375 141.292969 209.628906 140.984375 209.628906 137.402344 C 209.628906 133.738281 211.09375 133.46875 211.554688 133.46875 C 212.75 133.46875 213.867188 135.128906 213.867188 137.363281 C 213.867188 139.714844 212.710938 141.292969 211.554688 141.292969 Z M 211.554688 141.292969 "/>
<path fill-rule="nonzero" fill="rgb(0%, 0%, 0%)" fill-opacity="1" d="M 287.011719 136.667969 L 286.394531 136.667969 C 286.359375 136.976562 286.164062 138.289062 285.894531 138.632812 C 285.742188 138.828125 284.238281 138.828125 283.777344 138.828125 L 279.84375 138.828125 L 282.042969 136.746094 C 285.664062 133.625 287.011719 132.429688 287.011719 130.195312 C 287.011719 127.648438 284.933594 125.878906 282.195312 125.878906 C 279.652344 125.878906 277.917969 127.882812 277.917969 129.886719 C 277.917969 131.003906 278.878906 131.117188 279.074219 131.117188 C 279.574219 131.117188 280.230469 130.773438 280.230469 129.960938 C 280.230469 129.308594 279.765625 128.804688 279.074219 128.804688 C 278.957031 128.804688 278.917969 128.804688 278.804688 128.84375 C 279.34375 127.265625 280.769531 126.570312 281.964844 126.570312 C 284.199219 126.570312 284.96875 128.652344 284.96875 130.195312 C 284.96875 132.429688 283.273438 134.277344 282.234375 135.433594 L 278.1875 139.789062 C 277.917969 140.058594 277.917969 140.097656 277.917969 140.601562 L 286.394531 140.601562 Z M 287.011719 136.667969 "/>
<path fill-rule="nonzero" fill="rgb(0%, 0%, 0%)" fill-opacity="1" d="M 290.476562 132.96875 C 290.476562 133.355469 290.476562 133.625 290.785156 133.625 C 290.941406 133.625 291.015625 133.507812 291.132812 133.316406 C 291.828125 132.390625 292.867188 131.851562 294.023438 131.851562 C 296.414062 131.851562 296.414062 135.28125 296.414062 136.050781 C 296.414062 136.746094 296.414062 138.132812 295.757812 139.136719 C 295.179688 140.058594 294.253906 140.484375 293.367188 140.484375 C 292.097656 140.484375 290.59375 139.636719 290.054688 138.019531 C 290.09375 138.019531 290.207031 138.054688 290.363281 138.054688 C 290.824219 138.054688 291.480469 137.785156 291.480469 136.976562 C 291.480469 136.285156 290.980469 135.898438 290.363281 135.898438 C 289.898438 135.898438 289.28125 136.167969 289.28125 137.054688 C 289.28125 139.058594 290.980469 141.101562 293.445312 141.101562 C 296.105469 141.101562 298.378906 138.902344 298.378906 136.167969 C 298.378906 133.507812 296.492188 131.3125 294.0625 131.3125 C 293.023438 131.3125 291.941406 131.660156 291.132812 132.46875 L 291.132812 128.113281 C 291.828125 128.304688 292.519531 128.421875 293.175781 128.421875 C 295.914062 128.421875 297.492188 126.457031 297.492188 126.148438 C 297.492188 125.953125 297.375 125.878906 297.261719 125.878906 C 297.222656 125.878906 297.183594 125.878906 296.953125 125.992188 C 295.914062 126.378906 294.910156 126.570312 293.984375 126.570312 C 293.023438 126.570312 292.019531 126.378906 291.015625 125.992188 C 290.785156 125.878906 290.746094 125.878906 290.746094 125.878906 C 290.476562 125.878906 290.476562 126.070312 290.476562 126.457031 Z M 290.476562 132.96875 "/>
<path fill-rule="nonzero" fill="rgb(0%, 0%, 0%)" fill-opacity="1" d="M 315.101562 124.875 C 315.21875 124.722656 315.296875 124.644531 315.296875 124.488281 C 315.296875 124.179688 315.023438 123.988281 314.832031 123.988281 C 314.5625 123.988281 314.445312 124.144531 314.332031 124.335938 C 312.90625 126.183594 311.054688 126.457031 310.054688 126.457031 C 307.894531 126.457031 306.46875 125.375 305.699219 124.644531 C 305.121094 124.105469 304.542969 123.988281 304.117188 123.988281 C 302.421875 123.988281 300.804688 125.839844 300.804688 128.460938 C 300.804688 131.15625 302.460938 132.929688 304.117188 132.929688 C 305.773438 132.929688 307.085938 130.964844 307.085938 128.460938 C 307.085938 128.152344 307.085938 127.148438 306.660156 126.070312 C 308.011719 126.839844 309.28125 126.996094 310.054688 126.996094 C 311.015625 126.996094 312.019531 126.761719 312.945312 126.261719 L 312.984375 126.300781 L 302.882812 140.910156 C 302.882812 140.945312 302.691406 141.179688 302.691406 141.371094 C 302.691406 141.640625 302.921875 141.832031 303.191406 141.832031 C 303.425781 141.832031 303.539062 141.679688 303.65625 141.488281 Z M 304.195312 132.351562 C 303.695312 132.351562 302.269531 132.082031 302.269531 128.460938 C 302.269531 124.835938 303.695312 124.566406 304.195312 124.566406 C 305.351562 124.566406 306.46875 126.183594 306.46875 128.460938 C 306.46875 130.808594 305.3125 132.351562 304.195312 132.351562 Z M 317.183594 137.402344 C 317.183594 134.820312 315.835938 132.929688 314.214844 132.929688 C 312.519531 132.929688 310.863281 134.742188 310.863281 137.363281 C 310.863281 140.058594 312.558594 141.832031 314.214844 141.832031 C 315.875 141.832031 317.183594 139.90625 317.183594 137.402344 Z M 314.253906 141.292969 C 313.792969 141.292969 312.328125 140.984375 312.328125 137.402344 C 312.328125 133.738281 313.792969 133.46875 314.253906 133.46875 C 315.449219 133.46875 316.566406 135.128906 316.566406 137.363281 C 316.566406 139.714844 315.410156 141.292969 314.253906 141.292969 Z M 314.253906 141.292969 "/>
<path fill-rule="nonzero" fill="rgb(0%, 0%, 0%)" fill-opacity="1" d="M 376.128906 132.96875 C 376.128906 133.355469 376.128906 133.625 376.4375 133.625 C 376.589844 133.625 376.667969 133.507812 376.785156 133.316406 C 377.476562 132.390625 378.519531 131.851562 379.675781 131.851562 C 382.0625 131.851562 382.0625 135.28125 382.0625 136.050781 C 382.0625 136.746094 382.0625 138.132812 381.410156 139.136719 C 380.832031 140.058594 379.90625 140.484375 379.019531 140.484375 C 377.746094 140.484375 376.242188 139.636719 375.703125 138.019531 C 375.742188 138.019531 375.859375 138.054688 376.011719 138.054688 C 376.476562 138.054688 377.128906 137.785156 377.128906 136.976562 C 377.128906 136.285156 376.628906 135.898438 376.011719 135.898438 C 375.550781 135.898438 374.933594 136.167969 374.933594 137.054688 C 374.933594 139.058594 376.628906 141.101562 379.097656 141.101562 C 381.753906 141.101562 384.03125 138.902344 384.03125 136.167969 C 384.03125 133.507812 382.140625 131.3125 379.710938 131.3125 C 378.671875 131.3125 377.59375 131.660156 376.785156 132.46875 L 376.785156 128.113281 C 377.476562 128.304688 378.171875 128.421875 378.828125 128.421875 C 381.5625 128.421875 383.144531 126.457031 383.144531 126.148438 C 383.144531 125.953125 383.027344 125.878906 382.910156 125.878906 C 382.875 125.878906 382.835938 125.878906 382.601562 125.992188 C 381.5625 126.378906 380.5625 126.570312 379.636719 126.570312 C 378.671875 126.570312 377.671875 126.378906 376.667969 125.992188 C 376.4375 125.878906 376.398438 125.878906 376.398438 125.878906 C 376.128906 125.878906 376.128906 126.070312 376.128906 126.457031 Z M 376.128906 132.96875 "/>
<path fill-rule="nonzero" fill="rgb(0%, 0%, 0%)" fill-opacity="1" d="M 395.664062 133.507812 C 395.664062 132.042969 395.589844 130.117188 394.816406 128.460938 C 393.816406 126.378906 392.15625 125.878906 390.886719 125.878906 C 389.539062 125.878906 387.839844 126.378906 386.878906 128.535156 C 386.183594 130.039062 386.070312 131.851562 386.070312 133.507812 C 386.070312 134.972656 386.105469 137.09375 387.070312 138.867188 C 388.109375 140.714844 389.84375 141.101562 390.847656 141.101562 C 392.273438 141.101562 393.929688 140.484375 394.855469 138.441406 C 395.511719 136.9375 395.664062 135.28125 395.664062 133.507812 Z M 390.886719 140.523438 C 390.191406 140.523438 388.613281 140.214844 388.1875 137.710938 C 387.957031 136.4375 387.957031 134.511719 387.957031 133.238281 C 387.957031 131.734375 387.957031 130 388.226562 128.769531 C 388.6875 126.800781 390.078125 126.417969 390.847656 126.417969 C 391.695312 126.417969 393.082031 126.878906 393.507812 128.921875 C 393.738281 130.117188 393.738281 131.851562 393.738281 133.238281 C 393.738281 134.625 393.738281 136.476562 393.507812 137.785156 C 393.042969 140.332031 391.425781 140.523438 390.886719 140.523438 Z M 390.886719 140.523438 "/>
<path fill-rule="nonzero" fill="rgb(0%, 0%, 0%)" fill-opacity="1" d="M 412.117188 124.875 C 412.234375 124.722656 412.3125 124.644531 412.3125 124.488281 C 412.3125 124.179688 412.042969 123.988281 411.847656 123.988281 C 411.578125 123.988281 411.464844 124.144531 411.347656 124.335938 C 409.921875 126.183594 408.070312 126.457031 407.070312 126.457031 C 404.910156 126.457031 403.484375 125.375 402.714844 124.644531 C 402.136719 124.105469 401.558594 123.988281 401.132812 123.988281 C 399.4375 123.988281 397.820312 125.839844 397.820312 128.460938 C 397.820312 131.15625 399.476562 132.929688 401.132812 132.929688 C 402.792969 132.929688 404.101562 130.964844 404.101562 128.460938 C 404.101562 128.152344 404.101562 127.148438 403.679688 126.070312 C 405.027344 126.839844 406.300781 126.996094 407.070312 126.996094 C 408.035156 126.996094 409.035156 126.761719 409.960938 126.261719 L 410 126.300781 L 399.902344 140.910156 C 399.902344 140.945312 399.707031 141.179688 399.707031 141.371094 C 399.707031 141.640625 399.941406 141.832031 400.210938 141.832031 C 400.441406 141.832031 400.554688 141.679688 400.671875 141.488281 Z M 401.210938 132.351562 C 400.710938 132.351562 399.285156 132.082031 399.285156 128.460938 C 399.285156 124.835938 400.710938 124.566406 401.210938 124.566406 C 402.367188 124.566406 403.484375 126.183594 403.484375 128.460938 C 403.484375 130.808594 402.328125 132.351562 401.210938 132.351562 Z M 414.199219 137.402344 C 414.199219 134.820312 412.851562 132.929688 411.230469 132.929688 C 409.535156 132.929688 407.878906 134.742188 407.878906 137.363281 C 407.878906 140.058594 409.574219 141.832031 411.230469 141.832031 C 412.890625 141.832031 414.199219 139.90625 414.199219 137.402344 Z M 411.269531 141.292969 C 410.808594 141.292969 409.34375 140.984375 409.34375 137.402344 C 409.34375 133.738281 410.808594 133.46875 411.269531 133.46875 C 412.464844 133.46875 413.582031 135.128906 413.582031 137.363281 C 413.582031 139.714844 412.425781 141.292969 411.269531 141.292969 Z M 411.269531 141.292969 "/>
<path fill-rule="nonzero" fill="rgb(0%, 0%, 0%)" fill-opacity="1" d="M 481.664062 127.109375 C 481.855469 126.878906 481.855469 126.800781 481.855469 126.339844 L 476.382812 126.339844 C 473.570312 126.339844 473.492188 126.070312 473.453125 125.644531 L 472.835938 125.644531 L 472.105469 130.269531 L 472.722656 130.269531 C 472.796875 129.769531 472.992188 128.535156 473.261719 128.265625 C 473.414062 128.113281 475.1875 128.113281 475.496094 128.113281 L 480.121094 128.113281 L 478 131.003906 C 475.109375 134.972656 474.839844 138.597656 474.839844 139.828125 C 474.839844 140.097656 474.839844 141.101562 475.882812 141.101562 C 476.921875 141.101562 476.921875 140.097656 476.921875 139.828125 L 476.921875 138.75 C 476.921875 135.472656 477.382812 132.929688 478.578125 131.3125 Z M 481.664062 127.109375 "/>
<path fill-rule="nonzero" fill="rgb(0%, 0%, 0%)" fill-opacity="1" d="M 484.511719 132.96875 C 484.511719 133.355469 484.511719 133.625 484.820312 133.625 C 484.972656 133.625 485.050781 133.507812 485.167969 133.316406 C 485.859375 132.390625 486.902344 131.851562 488.058594 131.851562 C 490.445312 131.851562 490.445312 135.28125 490.445312 136.050781 C 490.445312 136.746094 490.445312 138.132812 489.792969 139.136719 C 489.214844 140.058594 488.289062 140.484375 487.402344 140.484375 C 486.128906 140.484375 484.625 139.636719 484.085938 138.019531 C 484.125 138.019531 484.242188 138.054688 484.394531 138.054688 C 484.859375 138.054688 485.511719 137.785156 485.511719 136.976562 C 485.511719 136.285156 485.011719 135.898438 484.394531 135.898438 C 483.933594 135.898438 483.316406 136.167969 483.316406 137.054688 C 483.316406 139.058594 485.011719 141.101562 487.480469 141.101562 C 490.136719 141.101562 492.410156 138.902344 492.410156 136.167969 C 492.410156 133.507812 490.523438 131.3125 488.09375 131.3125 C 487.054688 131.3125 485.976562 131.660156 485.167969 132.46875 L 485.167969 128.113281 C 485.859375 128.304688 486.554688 128.421875 487.207031 128.421875 C 489.945312 128.421875 491.527344 126.457031 491.527344 126.148438 C 491.527344 125.953125 491.410156 125.878906 491.292969 125.878906 C 491.253906 125.878906 491.21875 125.878906 490.984375 125.992188 C 489.945312 126.378906 488.941406 126.570312 488.019531 126.570312 C 487.054688 126.570312 486.050781 126.378906 485.050781 125.992188 C 484.820312 125.878906 484.78125 125.878906 484.78125 125.878906 C 484.511719 125.878906 484.511719 126.070312 484.511719 126.457031 Z M 484.511719 132.96875 "/>
<path fill-rule="nonzero" fill="rgb(0%, 0%, 0%)" fill-opacity="1" d="M 509.136719 124.875 C 509.25 124.722656 509.328125 124.644531 509.328125 124.488281 C 509.328125 124.179688 509.058594 123.988281 508.867188 123.988281 C 508.59375 123.988281 508.480469 124.144531 508.363281 124.335938 C 506.9375 126.183594 505.089844 126.457031 504.085938 126.457031 C 501.929688 126.457031 500.5 125.375 499.730469 124.644531 C 499.152344 124.105469 498.574219 123.988281 498.152344 123.988281 C 496.453125 123.988281 494.835938 125.839844 494.835938 128.460938 C 494.835938 131.15625 496.492188 132.929688 498.152344 132.929688 C 499.808594 132.929688 501.117188 130.964844 501.117188 128.460938 C 501.117188 128.152344 501.117188 127.148438 500.695312 126.070312 C 502.042969 126.839844 503.316406 126.996094 504.085938 126.996094 C 505.050781 126.996094 506.050781 126.761719 506.976562 126.261719 L 507.015625 126.300781 L 496.917969 140.910156 C 496.917969 140.945312 496.726562 141.179688 496.726562 141.371094 C 496.726562 141.640625 496.957031 141.832031 497.226562 141.832031 C 497.457031 141.832031 497.574219 141.679688 497.6875 141.488281 Z M 498.226562 132.351562 C 497.726562 132.351562 496.300781 132.082031 496.300781 128.460938 C 496.300781 124.835938 497.726562 124.566406 498.226562 124.566406 C 499.382812 124.566406 500.5 126.183594 500.5 128.460938 C 500.5 130.808594 499.34375 132.351562 498.226562 132.351562 Z M 511.214844 137.402344 C 511.214844 134.820312 509.867188 132.929688 508.25 132.929688 C 506.554688 132.929688 504.894531 134.742188 504.894531 137.363281 C 504.894531 140.058594 506.589844 141.832031 508.25 141.832031 C 509.90625 141.832031 511.214844 139.90625 511.214844 137.402344 Z M 508.289062 141.292969 C 507.824219 141.292969 506.359375 140.984375 506.359375 137.402344 C 506.359375 133.738281 507.824219 133.46875 508.289062 133.46875 C 509.480469 133.46875 510.601562 135.128906 510.601562 137.363281 C 510.601562 139.714844 509.445312 141.292969 508.289062 141.292969 Z M 508.289062 141.292969 "/>
<path fill-rule="nonzero" fill="rgb(0%, 0%, 0%)" fill-opacity="1" d="M 568.871094 126.457031 C 568.871094 125.914062 568.871094 125.878906 568.328125 125.878906 C 566.941406 127.265625 564.898438 127.265625 564.207031 127.265625 L 564.207031 127.957031 C 564.628906 127.957031 565.980469 127.957031 567.171875 127.378906 L 567.171875 138.828125 C 567.171875 139.636719 567.136719 139.90625 565.054688 139.90625 L 564.359375 139.90625 L 564.359375 140.601562 C 565.132812 140.523438 567.136719 140.523438 568.023438 140.523438 C 568.945312 140.523438 570.914062 140.523438 571.722656 140.601562 L 571.722656 139.90625 L 571.027344 139.90625 C 568.945312 139.90625 568.871094 139.636719 568.871094 138.828125 Z M 568.871094 126.457031 "/>
<path fill-rule="nonzero" fill="rgb(0%, 0%, 0%)" fill-opacity="1" d="M 584.011719 133.507812 C 584.011719 132.042969 583.933594 130.117188 583.164062 128.460938 C 582.164062 126.378906 580.503906 125.878906 579.234375 125.878906 C 577.882812 125.878906 576.1875 126.378906 575.226562 128.535156 C 574.53125 130.039062 574.414062 131.851562 574.414062 133.507812 C 574.414062 134.972656 574.453125 137.09375 575.417969 138.867188 C 576.457031 140.714844 578.191406 141.101562 579.195312 141.101562 C 580.621094 141.101562 582.277344 140.484375 583.203125 138.441406 C 583.859375 136.9375 584.011719 135.28125 584.011719 133.507812 Z M 579.234375 140.523438 C 578.539062 140.523438 576.960938 140.214844 576.535156 137.710938 C 576.304688 136.4375 576.304688 134.511719 576.304688 133.238281 C 576.304688 131.734375 576.304688 130 576.574219 128.769531 C 577.035156 126.800781 578.425781 126.417969 579.195312 126.417969 C 580.042969 126.417969 581.429688 126.878906 581.855469 128.921875 C 582.085938 130.117188 582.085938 131.851562 582.085938 133.238281 C 582.085938 134.625 582.085938 136.476562 581.855469 137.785156 C 581.390625 140.332031 579.773438 140.523438 579.234375 140.523438 Z M 579.234375 140.523438 "/>
<path fill-rule="nonzero" fill="rgb(0%, 0%, 0%)" fill-opacity="1" d="M 595.378906 133.507812 C 595.378906 132.042969 595.300781 130.117188 594.53125 128.460938 C 593.527344 126.378906 591.871094 125.878906 590.597656 125.878906 C 589.25 125.878906 587.554688 126.378906 586.589844 128.535156 C 585.898438 130.039062 585.78125 131.851562 585.78125 133.507812 C 585.78125 134.972656 585.820312 137.09375 586.785156 138.867188 C 587.824219 140.714844 589.558594 141.101562 590.5625 141.101562 C 591.988281 141.101562 593.644531 140.484375 594.570312 138.441406 C 595.222656 136.9375 595.378906 135.28125 595.378906 133.507812 Z M 590.597656 140.523438 C 589.90625 140.523438 588.324219 140.214844 587.902344 137.710938 C 587.671875 136.4375 587.671875 134.511719 587.671875 133.238281 C 587.671875 131.734375 587.671875 130 587.941406 128.769531 C 588.402344 126.800781 589.789062 126.417969 590.5625 126.417969 C 591.410156 126.417969 592.796875 126.878906 593.21875 128.921875 C 593.453125 130.117188 593.453125 131.851562 593.453125 133.238281 C 593.453125 134.625 593.453125 136.476562 593.21875 137.785156 C 592.757812 140.332031 591.140625 140.523438 590.597656 140.523438 Z M 590.597656 140.523438 "/>
<path fill-rule="nonzero" fill="rgb(0%, 0%, 0%)" fill-opacity="1" d="M 611.832031 124.875 C 611.949219 124.722656 612.023438 124.644531 612.023438 124.488281 C 612.023438 124.179688 611.753906 123.988281 611.5625 123.988281 C 611.292969 123.988281 611.175781 124.144531 611.0625 124.335938 C 609.636719 126.183594 607.785156 126.457031 606.78125 126.457031 C 604.625 126.457031 603.199219 125.375 602.429688 124.644531 C 601.851562 124.105469 601.273438 123.988281 600.847656 123.988281 C 599.152344 123.988281 597.53125 125.839844 597.53125 128.460938 C 597.53125 131.15625 599.191406 132.929688 600.847656 132.929688 C 602.503906 132.929688 603.816406 130.964844 603.816406 128.460938 C 603.816406 128.152344 603.816406 127.148438 603.390625 126.070312 C 604.742188 126.839844 606.011719 126.996094 606.78125 126.996094 C 607.746094 126.996094 608.75 126.761719 609.671875 126.261719 L 609.710938 126.300781 L 599.613281 140.910156 C 599.613281 140.945312 599.421875 141.179688 599.421875 141.371094 C 599.421875 141.640625 599.652344 141.832031 599.921875 141.832031 C 600.152344 141.832031 600.269531 141.679688 600.386719 141.488281 Z M 600.925781 132.351562 C 600.421875 132.351562 598.996094 132.082031 598.996094 128.460938 C 598.996094 124.835938 600.421875 124.566406 600.925781 124.566406 C 602.082031 124.566406 603.199219 126.183594 603.199219 128.460938 C 603.199219 130.808594 602.042969 132.351562 600.925781 132.351562 Z M 613.914062 137.402344 C 613.914062 134.820312 612.5625 132.929688 610.945312 132.929688 C 609.25 132.929688 607.59375 134.742188 607.59375 137.363281 C 607.59375 140.058594 609.289062 141.832031 610.945312 141.832031 C 612.601562 141.832031 613.914062 139.90625 613.914062 137.402344 Z M 610.984375 141.292969 C 610.523438 141.292969 609.058594 140.984375 609.058594 137.402344 C 609.058594 133.738281 610.523438 133.46875 610.984375 133.46875 C 612.179688 133.46875 613.296875 135.128906 613.296875 137.363281 C 613.296875 139.714844 612.140625 141.292969 610.984375 141.292969 Z M 610.984375 141.292969 "/>
<g clip-path="url(#clip-0)">
<path fill="none" stroke-width="0.3985" stroke-linecap="butt" stroke-linejoin="miter" stroke="rgb(0%, 0%, 0%)" stroke-opacity="1" stroke-dasharray="2.98883 1.99255" stroke-miterlimit="10" d="M 133.636369 17.061277 L 119.358498 17.061277 C 115.803282 17.061277 112.92427 14.179098 112.92427 10.628634 L 112.92427 -36.363554 C 112.92427 -39.918769 115.803282 -42.797781 119.358498 -42.797781 L 133.636369 -42.797781 C 137.190001 -42.797781 140.073764 -39.918769 140.073764 -36.363554 L 140.073764 10.628634 C 140.073764 14.179098 137.190001 17.061277 133.636369 17.061277 Z M 133.636369 17.061277 " transform="matrix(2.466667, 0, 0, -2.466667, 179.644873, 47.490734)"/>
</g>
</svg>
