<?xml version="1.0" encoding="UTF-8"?>
<svg xmlns="http://www.w3.org/2000/svg" xmlns:xlink="http://www.w3.org/1999/xlink" width="601.277137" height="153.848463" viewBox="0 0 601.277137 153.848463">
<path fill="none" stroke-width="0.3985" stroke-linecap="butt" stroke-linejoin="miter" stroke="rgb(0%, 0%, 0%)" stroke-opacity="1" stroke-miterlimit="10" d="M -0.000320641 -0.00145026 L 142.008759 -0.00145026 " transform="matrix(2.466667, 0, 0, -2.466667, 240.672666, 43.230798)"/>
<path fill-rule="nonzero" fill="rgb(0%, 0%, 0%)" fill-opacity="1" d="M 595.875 43.234375 L 588.011719 39.304688 L 590.960938 43.234375 L 588.011719 47.164062 "/>
<path fill-rule="nonzero" fill="rgb(0%, 0%, 0%)" fill-opacity="1" d="M 15.804688 40.933594 L 15.804688 47.523438 C 15.804688 48.601562 15.535156 48.601562 13.875 48.601562 L 13.875 49.371094 C 14.761719 49.335938 15.996094 49.296875 16.691406 49.296875 C 17.304688 49.296875 18.578125 49.335938 19.425781 49.371094 L 19.425781 48.601562 C 17.769531 48.601562 17.5 48.601562 17.5 47.523438 L 17.5 42.976562 C 17.5 40.429688 19.273438 39.042969 20.8125 39.042969 C 22.394531 39.042969 22.664062 40.355469 22.664062 41.78125 L 22.664062 47.523438 C 22.664062 48.601562 22.394531 48.601562 20.738281 48.601562 L 20.738281 49.371094 C 21.585938 49.335938 22.855469 49.296875 23.511719 49.296875 C 24.128906 49.296875 25.4375 49.335938 26.25 49.371094 L 26.25 48.601562 C 24.976562 48.601562 24.359375 48.601562 24.359375 47.871094 L 24.359375 43.167969 C 24.359375 41.046875 24.359375 40.316406 23.589844 39.429688 C 23.242188 39.003906 22.433594 38.503906 21.007812 38.503906 C 19.195312 38.503906 18.039062 39.542969 17.34375 41.085938 L 17.34375 38.503906 L 13.875 38.773438 L 13.875 39.542969 C 15.609375 39.542969 15.804688 39.699219 15.804688 40.933594 Z M 15.804688 40.933594 "/>
<path fill-rule="nonzero" fill="rgb(0%, 0%, 0%)" fill-opacity="1" d="M 36.660156 33.839844 C 36.890625 33.648438 37.082031 33.378906 37.082031 33.109375 C 37.082031 32.644531 36.660156 32.222656 36.195312 32.222656 C 35.847656 32.222656 35.578125 32.492188 35.464844 32.644531 L 32.496094 36.382812 L 32.921875 36.847656 Z M 36.660156 33.839844 "/>
<path fill-rule="nonzero" fill="rgb(0%, 0%, 0%)" fill-opacity="1" d="M 36.355469 47.445312 L 36.355469 49.644531 L 39.902344 49.371094 L 39.902344 48.601562 C 38.207031 48.601562 38.011719 48.449219 38.011719 47.214844 L 38.011719 38.503906 L 34.390625 38.773438 L 34.390625 39.542969 C 36.085938 39.542969 36.316406 39.699219 36.316406 40.933594 L 36.316406 45.289062 C 36.316406 47.445312 35.121094 49.101562 33.3125 49.101562 C 31.269531 49.101562 31.152344 47.945312 31.152344 46.675781 L 31.152344 38.503906 L 27.53125 38.773438 L 27.53125 39.542969 C 29.457031 39.542969 29.457031 39.621094 29.457031 41.78125 L 29.457031 45.480469 C 29.457031 47.40625 29.457031 49.644531 33.195312 49.644531 C 34.582031 49.644531 35.660156 48.949219 36.355469 47.445312 Z M 36.355469 47.445312 "/>
<path fill-rule="nonzero" fill="rgb(0%, 0%, 0%)" fill-opacity="1" d="M 43.109375 40.933594 L 43.109375 47.523438 C 43.109375 48.601562 42.839844 48.601562 41.183594 48.601562 L 41.183594 49.371094 C 42.070312 49.335938 43.304688 49.296875 43.996094 49.296875 C 44.613281 49.296875 45.886719 49.335938 46.734375 49.371094 L 46.734375 48.601562 C 45.074219 48.601562 44.804688 48.601562 44.804688 47.523438 L 44.804688 42.976562 C 44.804688 40.429688 46.578125 39.042969 48.121094 39.042969 C 49.699219 39.042969 49.972656 40.355469 49.972656 41.78125 L 49.972656 47.523438 C 49.972656 48.601562 49.699219 48.601562 48.042969 48.601562 L 48.042969 49.371094 C 48.890625 49.335938 50.164062 49.296875 50.820312 49.296875 C 51.433594 49.296875 52.746094 49.335938 53.554688 49.371094 L 53.554688 48.601562 C 51.9375 48.601562 51.667969 48.601562 51.667969 47.523438 L 51.667969 42.976562 C 51.667969 40.429688 53.402344 39.042969 54.980469 39.042969 C 56.523438 39.042969 56.792969 40.355469 56.792969 41.78125 L 56.792969 47.523438 C 56.792969 48.601562 56.523438 48.601562 54.867188 48.601562 L 54.867188 49.371094 C 55.714844 49.335938 56.984375 49.296875 57.640625 49.296875 C 58.296875 49.296875 59.566406 49.335938 60.414062 49.371094 L 60.414062 48.601562 C 59.144531 48.601562 58.527344 48.601562 58.488281 47.871094 L 58.488281 43.167969 C 58.488281 41.046875 58.488281 40.316406 57.71875 39.429688 C 57.371094 39.003906 56.5625 38.503906 55.136719 38.503906 C 53.09375 38.503906 51.976562 39.96875 51.589844 40.933594 C 51.242188 38.773438 49.429688 38.503906 48.3125 38.503906 C 46.503906 38.503906 45.347656 39.542969 44.652344 41.085938 L 44.652344 38.503906 L 41.183594 38.773438 L 41.183594 39.542969 C 42.917969 39.542969 43.109375 39.699219 43.109375 40.933594 Z M 43.109375 40.933594 "/>
<path fill-rule="nonzero" fill="rgb(0%, 0%, 0%)" fill-opacity="1" d="M 63.625 43.167969 C 63.78125 39.507812 65.863281 38.890625 66.710938 38.890625 C 69.214844 38.890625 69.484375 42.203125 69.484375 43.167969 Z M 63.625 43.707031 L 70.488281 43.707031 C 71.027344 43.707031 71.105469 43.707031 71.105469 43.167969 C 71.105469 40.738281 69.753906 38.351562 66.710938 38.351562 C 63.859375 38.351562 61.585938 40.894531 61.585938 43.976562 C 61.585938 47.253906 64.167969 49.644531 66.980469 49.644531 C 69.984375 49.644531 71.105469 46.90625 71.105469 46.445312 C 71.105469 46.210938 70.910156 46.136719 70.757812 46.136719 C 70.5625 46.136719 70.488281 46.289062 70.449219 46.480469 C 69.601562 49.027344 67.367188 49.027344 67.132812 49.027344 C 65.902344 49.027344 64.9375 48.292969 64.359375 47.367188 C 63.625 46.210938 63.625 44.59375 63.625 43.707031 Z M 63.625 43.707031 "/>
<path fill-rule="nonzero" fill="rgb(0%, 0%, 0%)" fill-opacity="1" d="M 75.933594 41.203125 L 75.933594 38.503906 L 72.503906 38.773438 L 72.503906 39.542969 C 74.238281 39.542969 74.433594 39.699219 74.433594 40.933594 L 74.433594 47.523438 C 74.433594 48.601562 74.164062 48.601562 72.503906 48.601562 L 72.503906 49.371094 C 73.46875 49.335938 74.625 49.296875 75.320312 49.296875 C 76.28125 49.296875 77.4375 49.296875 78.441406 49.371094 L 78.441406 48.601562 L 77.902344 48.601562 C 76.089844 48.601562 76.050781 48.332031 76.050781 47.445312 L 76.050781 43.667969 C 76.050781 41.242188 77.089844 39.042969 78.941406 39.042969 C 79.09375 39.042969 79.171875 39.042969 79.210938 39.082031 C 79.132812 39.082031 78.632812 39.390625 78.632812 40.046875 C 78.632812 40.699219 79.171875 41.085938 79.710938 41.085938 C 80.136719 41.085938 80.753906 40.777344 80.753906 40.007812 C 80.753906 39.238281 79.980469 38.503906 78.941406 38.503906 C 77.128906 38.503906 76.242188 40.160156 75.933594 41.203125 Z M 75.933594 41.203125 "/>
<path fill-rule="nonzero" fill="rgb(0%, 0%, 0%)" fill-opacity="1" d="M 93 44.09375 C 93 40.972656 90.570312 38.351562 87.605469 38.351562 C 84.519531 38.351562 82.128906 41.046875 82.128906 44.09375 C 82.128906 47.292969 84.675781 49.644531 87.566406 49.644531 C 90.53125 49.644531 93 47.214844 93 44.09375 Z M 87.605469 49.027344 C 86.523438 49.027344 85.445312 48.523438 84.789062 47.367188 C 84.171875 46.289062 84.171875 44.785156 84.171875 43.898438 C 84.171875 42.9375 84.171875 41.625 84.75 40.546875 C 85.40625 39.429688 86.5625 38.890625 87.566406 38.890625 C 88.644531 38.890625 89.683594 39.429688 90.339844 40.507812 C 90.996094 41.550781 90.996094 42.976562 90.996094 43.898438 C 90.996094 44.785156 90.996094 46.136719 90.457031 47.214844 C 89.878906 48.332031 88.796875 49.027344 87.605469 49.027344 Z M 87.605469 49.027344 "/>
<path fill-rule="nonzero" fill="rgb(0%, 0%, 0%)" fill-opacity="1" d="M 111.234375 48.023438 L 111.234375 49.644531 L 114.859375 49.371094 L 114.859375 48.601562 C 113.160156 48.601562 112.929688 48.449219 112.929688 47.214844 L 112.929688 32.300781 L 109.421875 32.570312 L 109.421875 33.339844 C 111.117188 33.339844 111.3125 33.492188 111.3125 34.726562 L 111.3125 40.046875 C 110.617188 39.160156 109.539062 38.503906 108.226562 38.503906 C 105.335938 38.503906 102.753906 40.933594 102.753906 44.09375 C 102.753906 47.214844 105.144531 49.644531 107.957031 49.644531 C 109.539062 49.644531 110.617188 48.792969 111.234375 48.023438 Z M 111.234375 41.433594 L 111.234375 46.480469 C 111.234375 46.90625 111.234375 46.945312 110.964844 47.367188 C 110.234375 48.5625 109.152344 49.101562 108.074219 49.101562 C 106.957031 49.101562 106.070312 48.449219 105.492188 47.523438 C 104.875 46.519531 104.796875 45.132812 104.796875 44.09375 C 104.796875 43.207031 104.835938 41.742188 105.53125 40.625 C 106.070312 39.851562 106.996094 39.042969 108.34375 39.042969 C 109.191406 39.042969 110.234375 39.429688 110.964844 40.507812 C 111.234375 40.933594 111.234375 40.972656 111.234375 41.433594 Z M 111.234375 41.433594 "/>
<path fill-rule="nonzero" fill="rgb(0%, 0%, 0%)" fill-opacity="1" d="M 118.296875 43.167969 C 118.453125 39.507812 120.53125 38.890625 121.378906 38.890625 C 123.886719 38.890625 124.15625 42.203125 124.15625 43.167969 Z M 118.296875 43.707031 L 125.15625 43.707031 C 125.699219 43.707031 125.773438 43.707031 125.773438 43.167969 C 125.773438 40.738281 124.425781 38.351562 121.378906 38.351562 C 118.527344 38.351562 116.253906 40.894531 116.253906 43.976562 C 116.253906 47.253906 118.835938 49.644531 121.652344 49.644531 C 124.65625 49.644531 125.773438 46.90625 125.773438 46.445312 C 125.773438 46.210938 125.582031 46.136719 125.425781 46.136719 C 125.234375 46.136719 125.15625 46.289062 125.121094 46.480469 C 124.269531 49.027344 122.035156 49.027344 121.804688 49.027344 C 120.570312 49.027344 119.609375 48.292969 119.03125 47.367188 C 118.296875 46.210938 118.296875 44.59375 118.296875 43.707031 Z M 118.296875 43.707031 "/>
<path fill-rule="nonzero" fill="rgb(0%, 0%, 0%)" fill-opacity="1" d="M 138.929688 39.542969 L 142.476562 39.542969 L 142.476562 38.773438 L 138.929688 38.773438 L 138.929688 34.265625 L 138.3125 34.265625 C 138.3125 36.269531 137.582031 38.890625 135.152344 39.003906 L 135.152344 39.542969 L 137.234375 39.542969 L 137.234375 46.328125 C 137.234375 49.335938 139.546875 49.644531 140.433594 49.644531 C 142.167969 49.644531 142.859375 47.910156 142.859375 46.328125 L 142.859375 44.941406 L 142.242188 44.941406 L 142.242188 46.289062 C 142.242188 48.101562 141.511719 49.027344 140.585938 49.027344 C 138.929688 49.027344 138.929688 46.789062 138.929688 46.367188 Z M 138.929688 39.542969 "/>
<path fill-rule="nonzero" fill="rgb(0%, 0%, 0%)" fill-opacity="1" d="M 152.417969 47.523438 C 152.535156 48.488281 153.1875 49.527344 154.34375 49.527344 C 154.882812 49.527344 156.386719 49.179688 156.386719 47.175781 L 156.386719 45.789062 L 155.769531 45.789062 L 155.769531 47.175781 C 155.769531 48.601562 155.152344 48.757812 154.882812 48.757812 C 154.074219 48.757812 153.960938 47.636719 153.960938 47.523438 L 153.960938 42.628906 C 153.960938 41.585938 153.960938 40.625 153.074219 39.699219 C 152.109375 38.734375 150.875 38.351562 149.71875 38.351562 C 147.675781 38.351562 145.980469 39.507812 145.980469 41.125 C 145.980469 41.855469 146.480469 42.28125 147.136719 42.28125 C 147.832031 42.28125 148.253906 41.78125 148.253906 41.164062 C 148.253906 40.855469 148.140625 40.046875 146.984375 40.046875 C 147.675781 39.160156 148.871094 38.890625 149.644531 38.890625 C 150.875 38.890625 152.261719 39.851562 152.261719 42.050781 L 152.261719 42.9375 C 150.992188 43.011719 149.296875 43.089844 147.753906 43.824219 C 145.902344 44.671875 145.289062 45.941406 145.289062 47.023438 C 145.289062 49.027344 147.675781 49.644531 149.21875 49.644531 C 150.835938 49.644531 151.957031 48.640625 152.417969 47.523438 Z M 152.261719 43.476562 L 152.261719 45.941406 C 152.261719 48.253906 150.492188 49.101562 149.371094 49.101562 C 148.179688 49.101562 147.175781 48.253906 147.175781 47.023438 C 147.175781 45.671875 148.214844 43.628906 152.261719 43.476562 Z M 152.261719 43.476562 "/>
<path fill-rule="nonzero" fill="rgb(0%, 0%, 0%)" fill-opacity="1" d="M 160.65625 41.203125 L 160.65625 38.503906 L 157.226562 38.773438 L 157.226562 39.542969 C 158.960938 39.542969 159.15625 39.699219 159.15625 40.933594 L 159.15625 47.523438 C 159.15625 48.601562 158.886719 48.601562 157.226562 48.601562 L 157.226562 49.371094 C 158.191406 49.335938 159.347656 49.296875 160.042969 49.296875 C 161.003906 49.296875 162.160156 49.296875 163.164062 49.371094 L 163.164062 48.601562 L 162.625 48.601562 C 160.8125 48.601562 160.773438 48.332031 160.773438 47.445312 L 160.773438 43.667969 C 160.773438 41.242188 161.8125 39.042969 163.664062 39.042969 C 163.816406 39.042969 163.894531 39.042969 163.933594 39.082031 C 163.855469 39.082031 163.355469 39.390625 163.355469 40.046875 C 163.355469 40.699219 163.894531 41.085938 164.433594 41.085938 C 164.859375 41.085938 165.476562 40.777344 165.476562 40.007812 C 165.476562 39.238281 164.703125 38.503906 163.664062 38.503906 C 161.851562 38.503906 160.964844 40.160156 160.65625 41.203125 Z M 160.65625 41.203125 "/>
<path fill-rule="nonzero" fill="rgb(0%, 0%, 0%)" fill-opacity="1" d="M 171.324219 38.503906 L 167.585938 38.773438 L 167.585938 39.542969 C 169.472656 39.542969 169.707031 39.699219 169.707031 40.933594 L 169.707031 50.644531 C 169.707031 51.761719 169.472656 53.882812 167.894531 53.882812 C 167.777344 53.882812 167.199219 53.882812 166.582031 53.535156 C 166.929688 53.457031 167.433594 53.113281 167.433594 52.457031 C 167.433594 51.800781 167.007812 51.300781 166.3125 51.300781 C 165.621094 51.300781 165.15625 51.800781 165.15625 52.457031 C 165.15625 53.726562 166.546875 54.421875 167.972656 54.421875 C 169.78125 54.421875 171.324219 52.839844 171.324219 50.605469 Z M 171.324219 34.226562 C 171.324219 33.492188 170.746094 32.914062 170.015625 32.914062 C 169.320312 32.914062 168.703125 33.492188 168.703125 34.226562 C 168.703125 34.917969 169.320312 35.535156 170.015625 35.535156 C 170.746094 35.535156 171.324219 34.917969 171.324219 34.226562 Z M 171.324219 34.226562 "/>
<path fill-rule="nonzero" fill="rgb(0%, 0%, 0%)" fill-opacity="1" d="M 176.40625 43.167969 C 176.558594 39.507812 178.640625 38.890625 179.488281 38.890625 C 181.996094 38.890625 182.265625 42.203125 182.265625 43.167969 Z M 176.40625 43.707031 L 183.265625 43.707031 C 183.804688 43.707031 183.882812 43.707031 183.882812 43.167969 C 183.882812 40.738281 182.535156 38.351562 179.488281 38.351562 C 176.636719 38.351562 174.363281 40.894531 174.363281 43.976562 C 174.363281 47.253906 176.945312 49.644531 179.757812 49.644531 C 182.765625 49.644531 183.882812 46.90625 183.882812 46.445312 C 183.882812 46.210938 183.691406 46.136719 183.535156 46.136719 C 183.34375 46.136719 183.265625 46.289062 183.226562 46.480469 C 182.378906 49.027344 180.144531 49.027344 179.914062 49.027344 C 178.679688 49.027344 177.714844 48.292969 177.136719 47.367188 C 176.40625 46.210938 176.40625 44.59375 176.40625 43.707031 Z M 176.40625 43.707031 "/>
<path fill-rule="nonzero" fill="rgb(0%, 0%, 0%)" fill-opacity="1" d="M 188.832031 39.542969 L 192.375 39.542969 L 192.375 38.773438 L 188.832031 38.773438 L 188.832031 34.265625 L 188.214844 34.265625 C 188.214844 36.269531 187.480469 38.890625 185.054688 39.003906 L 185.054688 39.542969 L 187.132812 39.542969 L 187.132812 46.328125 C 187.132812 49.335938 189.445312 49.644531 190.332031 49.644531 C 192.066406 49.644531 192.761719 47.910156 192.761719 46.328125 L 192.761719 44.941406 L 192.144531 44.941406 L 192.144531 46.289062 C 192.144531 48.101562 191.414062 49.027344 190.488281 49.027344 C 188.832031 49.027344 188.832031 46.789062 188.832031 46.367188 Z M 188.832031 39.542969 "/>
<path fill-rule="nonzero" fill="rgb(0%, 0%, 0%)" fill-opacity="1" d="M 202.320312 47.523438 C 202.433594 48.488281 203.089844 49.527344 204.246094 49.527344 C 204.785156 49.527344 206.289062 49.179688 206.289062 47.175781 L 206.289062 45.789062 L 205.671875 45.789062 L 205.671875 47.175781 C 205.671875 48.601562 205.054688 48.757812 204.785156 48.757812 C 203.976562 48.757812 203.859375 47.636719 203.859375 47.523438 L 203.859375 42.628906 C 203.859375 41.585938 203.859375 40.625 202.972656 39.699219 C 202.011719 38.734375 200.777344 38.351562 199.621094 38.351562 C 197.578125 38.351562 195.882812 39.507812 195.882812 41.125 C 195.882812 41.855469 196.382812 42.28125 197.039062 42.28125 C 197.730469 42.28125 198.15625 41.78125 198.15625 41.164062 C 198.15625 40.855469 198.039062 40.046875 196.882812 40.046875 C 197.578125 39.160156 198.773438 38.890625 199.542969 38.890625 C 200.777344 38.890625 202.164062 39.851562 202.164062 42.050781 L 202.164062 42.9375 C 200.890625 43.011719 199.195312 43.089844 197.65625 43.824219 C 195.804688 44.671875 195.1875 45.941406 195.1875 47.023438 C 195.1875 49.027344 197.578125 49.644531 199.121094 49.644531 C 200.738281 49.644531 201.855469 48.640625 202.320312 47.523438 Z M 202.164062 43.476562 L 202.164062 45.941406 C 202.164062 48.253906 200.390625 49.101562 199.273438 49.101562 C 198.078125 49.101562 197.078125 48.253906 197.078125 47.023438 C 197.078125 45.671875 198.117188 43.628906 202.164062 43.476562 Z M 202.164062 43.476562 "/>
<path fill-rule="nonzero" fill="rgb(0%, 0%, 0%)" fill-opacity="1" d="M 211.5625 44.59375 C 212.101562 44.710938 214.105469 45.09375 214.105469 46.867188 C 214.105469 48.101562 213.257812 49.101562 211.328125 49.101562 C 209.25 49.101562 208.363281 47.714844 207.898438 45.597656 C 207.824219 45.289062 207.824219 45.210938 207.550781 45.210938 C 207.246094 45.210938 207.246094 45.363281 207.246094 45.789062 L 207.246094 49.066406 C 207.246094 49.488281 207.246094 49.644531 207.515625 49.644531 C 207.628906 49.644531 207.667969 49.605469 208.128906 49.140625 C 208.167969 49.101562 208.167969 49.066406 208.632812 48.601562 C 209.710938 49.605469 210.828125 49.644531 211.328125 49.644531 C 214.144531 49.644531 215.300781 47.984375 215.300781 46.210938 C 215.300781 44.941406 214.566406 44.167969 214.257812 43.898438 C 213.449219 43.089844 212.484375 42.898438 211.445312 42.707031 C 210.058594 42.433594 208.4375 42.128906 208.4375 40.699219 C 208.4375 39.816406 209.054688 38.8125 211.175781 38.8125 C 213.875 38.8125 214.027344 41.046875 214.066406 41.78125 C 214.066406 42.011719 214.296875 42.011719 214.335938 42.011719 C 214.683594 42.011719 214.683594 41.894531 214.683594 41.433594 L 214.683594 38.929688 C 214.683594 38.542969 214.683594 38.351562 214.414062 38.351562 C 214.296875 38.351562 214.21875 38.351562 213.910156 38.660156 C 213.835938 38.734375 213.605469 38.964844 213.488281 39.042969 C 212.5625 38.351562 211.5625 38.351562 211.175781 38.351562 C 208.167969 38.351562 207.246094 40.007812 207.246094 41.394531 C 207.246094 42.242188 207.628906 42.9375 208.285156 43.476562 C 209.09375 44.09375 209.789062 44.246094 211.5625 44.59375 Z M 211.5625 44.59375 "/>
<path fill="none" stroke-width="0.3487" stroke-linecap="round" stroke-linejoin="miter" stroke="rgb(0%, 0%, 0%)" stroke-opacity="1" stroke-miterlimit="10" d="M 8.503691 -3.485403 L 8.503691 3.487253 Z M 8.503691 -3.485403 " transform="matrix(2.466667, 0, 0, -2.466667, 240.672666, 43.230798)"/>
<path fill="none" stroke-width="0.3487" stroke-linecap="round" stroke-linejoin="miter" stroke="rgb(0%, 0%, 0%)" stroke-opacity="1" stroke-miterlimit="10" d="M 39.187813 -3.485403 L 39.187813 3.487253 Z M 39.187813 -3.485403 " transform="matrix(2.466667, 0, 0, -2.466667, 240.672666, 43.230798)"/>
<path fill="none" stroke-width="0.3487" stroke-linecap="round" stroke-linejoin="miter" stroke="rgb(0%, 0%, 0%)" stroke-opacity="1" stroke-miterlimit="10" d="M 69.875102 -3.485403 L 69.875102 3.487253 Z M 69.875102 -3.485403 " transform="matrix(2.466667, 0, 0, -2.466667, 240.672666, 43.230798)"/>
<path fill="none" stroke-width="0.3487" stroke-linecap="round" stroke-linejoin="miter" stroke="rgb(0%, 0%, 0%)" stroke-opacity="1" stroke-miterlimit="10" d="M 100.559223 -3.485403 L 100.559223 3.487253 Z M 100.559223 -3.485403 " transform="matrix(2.466667, 0, 0, -2.466667, 240.672666, 43.230798)"/>
<path fill="none" stroke-width="0.3487" stroke-linecap="round" stroke-linejoin="miter" stroke="rgb(0%, 0%, 0%)" stroke-opacity="1" stroke-miterlimit="10" d="M 131.246512 -3.485403 L 131.246512 3.487253 Z M 131.246512 -3.485403 " transform="matrix(2.466667, 0, 0, -2.466667, 240.672666, 43.230798)"/>
<path fill-rule="nonzero" fill="rgb(0%, 0%, 0%)" fill-opacity="1" d="M 266.449219 20.269531 C 266.449219 18.804688 266.371094 16.875 265.601562 15.21875 C 264.597656 13.136719 262.941406 12.636719 261.671875 12.636719 C 260.320312 12.636719 258.625 13.136719 257.660156 15.296875 C 256.96875 16.800781 256.851562 18.609375 256.851562 20.269531 C 256.851562 21.734375 256.890625 23.851562 257.855469 25.625 C 258.894531 27.476562 260.628906 27.859375 261.632812 27.859375 C 263.058594 27.859375 264.714844 27.246094 265.640625 25.203125 C 266.296875 23.699219 266.449219 22.042969 266.449219 20.269531 Z M 261.671875 27.28125 C 260.976562 27.28125 259.394531 26.976562 258.972656 24.46875 C 258.742188 23.199219 258.742188 21.269531 258.742188 20 C 258.742188 18.496094 258.742188 16.761719 259.011719 15.527344 C 259.472656 13.5625 260.859375 13.175781 261.632812 13.175781 C 262.480469 13.175781 263.867188 13.640625 264.289062 15.683594 C 264.523438 16.875 264.523438 18.609375 264.523438 20 C 264.523438 21.386719 264.523438 23.234375 264.289062 24.546875 C 263.828125 27.089844 262.210938 27.28125 261.671875 27.28125 Z M 261.671875 27.28125 "/>
<path fill-rule="nonzero" fill="rgb(0%, 0%, 0%)" fill-opacity="1" d="M 328.285156 19.730469 C 328.285156 20.113281 328.285156 20.382812 328.59375 20.382812 C 328.746094 20.382812 328.824219 20.269531 328.941406 20.074219 C 329.632812 19.152344 330.675781 18.609375 331.832031 18.609375 C 334.21875 18.609375 334.21875 22.042969 334.21875 22.8125 C 334.21875 23.507812 334.21875 24.894531 333.566406 25.894531 C 332.988281 26.820312 332.0625 27.246094 331.175781 27.246094 C 329.902344 27.246094 328.402344 26.398438 327.859375 24.777344 C 327.898438 24.777344 328.015625 24.816406 328.167969 24.816406 C 328.632812 24.816406 329.285156 24.546875 329.285156 23.738281 C 329.285156 23.042969 328.785156 22.65625 328.167969 22.65625 C 327.707031 22.65625 327.089844 22.929688 327.089844 23.8125 C 327.089844 25.820312 328.785156 27.859375 331.253906 27.859375 C 333.910156 27.859375 336.1875 25.664062 336.1875 22.929688 C 336.1875 20.269531 334.296875 18.070312 331.871094 18.070312 C 330.828125 18.070312 329.75 18.417969 328.941406 19.226562 L 328.941406 14.871094 C 329.632812 15.066406 330.328125 15.179688 330.984375 15.179688 C 333.71875 15.179688 335.300781 13.214844 335.300781 12.90625 C 335.300781 12.714844 335.183594 12.636719 335.066406 12.636719 C 335.03125 12.636719 334.992188 12.636719 334.761719 12.753906 C 333.71875 13.136719 332.71875 13.332031 331.792969 13.332031 C 330.828125 13.332031 329.828125 13.136719 328.824219 12.753906 C 328.59375 12.636719 328.554688 12.636719 328.554688 12.636719 C 328.285156 12.636719 328.285156 12.828125 328.285156 13.214844 Z M 328.285156 19.730469 "/>
<path fill-rule="nonzero" fill="rgb(0%, 0%, 0%)" fill-opacity="1" d="M 347.820312 20.269531 C 347.820312 18.804688 347.746094 16.875 346.972656 15.21875 C 345.972656 13.136719 344.316406 12.636719 343.042969 12.636719 C 341.695312 12.636719 339.996094 13.136719 339.035156 15.296875 C 338.339844 16.800781 338.226562 18.609375 338.226562 20.269531 C 338.226562 21.734375 338.261719 23.851562 339.226562 25.625 C 340.269531 27.476562 342.003906 27.859375 343.003906 27.859375 C 344.429688 27.859375 346.085938 27.246094 347.011719 25.203125 C 347.667969 23.699219 347.820312 22.042969 347.820312 20.269531 Z M 343.042969 27.28125 C 342.347656 27.28125 340.769531 26.976562 340.34375 24.46875 C 340.113281 23.199219 340.113281 21.269531 340.113281 20 C 340.113281 18.496094 340.113281 16.761719 340.382812 15.527344 C 340.847656 13.5625 342.234375 13.175781 343.003906 13.175781 C 343.851562 13.175781 345.238281 13.640625 345.664062 15.683594 C 345.894531 16.875 345.894531 18.609375 345.894531 20 C 345.894531 21.386719 345.894531 23.234375 345.664062 24.546875 C 345.199219 27.089844 343.582031 27.28125 343.042969 27.28125 Z M 343.042969 27.28125 "/>
<path fill-rule="nonzero" fill="rgb(0%, 0%, 0%)" fill-opacity="1" d="M 557.570312 23.429688 L 556.957031 23.429688 C 556.917969 23.738281 556.722656 25.046875 556.453125 25.394531 C 556.300781 25.585938 554.796875 25.585938 554.335938 25.585938 L 550.402344 25.585938 L 552.601562 23.507812 C 556.222656 20.382812 557.570312 19.1875 557.570312 16.953125 C 557.570312 14.410156 555.492188 12.636719 552.753906 12.636719 C 550.210938 12.636719 548.476562 14.640625 548.476562 16.644531 C 548.476562 17.761719 549.441406 17.878906 549.632812 17.878906 C 550.132812 17.878906 550.789062 17.53125 550.789062 16.722656 C 550.789062 16.066406 550.324219 15.566406 549.632812 15.566406 C 549.515625 15.566406 549.476562 15.566406 549.363281 15.605469 C 549.902344 14.023438 551.328125 13.332031 552.523438 13.332031 C 554.757812 13.332031 555.527344 15.414062 555.527344 16.953125 C 555.527344 19.1875 553.832031 21.039062 552.792969 22.195312 L 548.746094 26.550781 C 548.476562 26.820312 548.476562 26.859375 548.476562 27.359375 L 556.957031 27.359375 Z M 557.570312 23.429688 "/>
<path fill-rule="nonzero" fill="rgb(0%, 0%, 0%)" fill-opacity="1" d="M 569.207031 20.269531 C 569.207031 18.804688 569.128906 16.875 568.359375 15.21875 C 567.359375 13.136719 565.699219 12.636719 564.429688 12.636719 C 563.078125 12.636719 561.382812 13.136719 560.421875 15.296875 C 559.726562 16.800781 559.609375 18.609375 559.609375 20.269531 C 559.609375 21.734375 559.648438 23.851562 560.613281 25.625 C 561.652344 27.476562 563.386719 27.859375 564.390625 27.859375 C 565.816406 27.859375 567.472656 27.246094 568.398438 25.203125 C 569.054688 23.699219 569.207031 22.042969 569.207031 20.269531 Z M 564.429688 27.28125 C 563.734375 27.28125 562.15625 26.976562 561.730469 24.46875 C 561.5 23.199219 561.5 21.269531 561.5 20 C 561.5 18.496094 561.5 16.761719 561.769531 15.527344 C 562.230469 13.5625 563.617188 13.175781 564.390625 13.175781 C 565.238281 13.175781 566.625 13.640625 567.050781 15.683594 C 567.28125 16.875 567.28125 18.609375 567.28125 20 C 567.28125 21.386719 567.28125 23.234375 567.050781 24.546875 C 566.585938 27.089844 564.96875 27.28125 564.429688 27.28125 Z M 564.429688 27.28125 "/>
<path fill-rule="nonzero" fill="rgb(0%, 0%, 0%)" fill-opacity="1" d="M 580.574219 20.269531 C 580.574219 18.804688 580.496094 16.875 579.726562 15.21875 C 578.722656 13.136719 577.066406 12.636719 575.792969 12.636719 C 574.445312 12.636719 572.75 13.136719 571.785156 15.296875 C 571.09375 16.800781 570.976562 18.609375 570.976562 20.269531 C 570.976562 21.734375 571.015625 23.851562 571.980469 25.625 C 573.019531 27.476562 574.753906 27.859375 575.753906 27.859375 C 577.183594 27.859375 578.839844 27.246094 579.765625 25.203125 C 580.417969 23.699219 580.574219 22.042969 580.574219 20.269531 Z M 575.792969 27.28125 C 575.101562 27.28125 573.519531 26.976562 573.097656 24.46875 C 572.863281 23.199219 572.863281 21.269531 572.863281 20 C 572.863281 18.496094 572.863281 16.761719 573.136719 15.527344 C 573.597656 13.5625 574.984375 13.175781 575.753906 13.175781 C 576.605469 13.175781 577.992188 13.640625 578.414062 15.683594 C 578.644531 16.875 578.644531 18.609375 578.644531 20 C 578.644531 21.386719 578.644531 23.234375 578.414062 24.546875 C 577.953125 27.089844 576.332031 27.28125 575.792969 27.28125 Z M 575.792969 27.28125 "/>
<path fill="none" stroke-width="0.3985" stroke-linecap="butt" stroke-linejoin="miter" stroke="rgb(0%, 0%, 0%)" stroke-opacity="1" stroke-miterlimit="10" d="M -0.000320641 -25.735192 L 142.008759 -25.735192 " transform="matrix(2.466667, 0, 0, -2.466667, 240.672666, 43.230798)"/>
<path fill-rule="nonzero" fill="rgb(0%, 0%, 0%)" fill-opacity="1" d="M 595.875 106.710938 L 588.011719 102.78125 L 590.960938 106.710938 L 588.011719 110.644531 "/>
<path fill-rule="nonzero" fill="rgb(0%, 0%, 0%)" fill-opacity="1" d="M 107.65625 103.28125 L 107.65625 101.664062 L 104.109375 101.933594 L 104.109375 102.703125 C 105.84375 102.703125 106.039062 102.859375 106.039062 103.9375 L 106.039062 115.421875 C 106.039062 116.539062 105.769531 116.539062 104.109375 116.539062 L 104.109375 117.3125 C 104.960938 117.273438 106.230469 117.234375 106.847656 117.234375 C 107.542969 117.234375 108.773438 117.273438 109.621094 117.3125 L 109.621094 116.539062 C 108.003906 116.539062 107.734375 116.539062 107.734375 115.421875 L 107.734375 111.066406 C 107.851562 111.492188 108.890625 112.800781 110.742188 112.800781 C 113.667969 112.800781 116.214844 110.375 116.214844 107.214844 C 116.214844 104.089844 113.863281 101.664062 111.085938 101.664062 C 109.160156 101.664062 108.121094 102.742188 107.65625 103.28125 Z M 107.734375 109.71875 L 107.734375 104.246094 C 108.429688 102.972656 109.621094 102.28125 110.894531 102.28125 C 112.707031 102.28125 114.171875 104.4375 114.171875 107.214844 C 114.171875 110.179688 112.476562 112.261719 110.664062 112.261719 C 109.660156 112.261719 108.734375 111.761719 108.082031 110.757812 C 107.734375 110.257812 107.734375 110.21875 107.734375 109.71875 Z M 107.734375 109.71875 "/>
<path fill-rule="nonzero" fill="rgb(0%, 0%, 0%)" fill-opacity="1" d="M 129.320312 107.25 C 129.320312 104.128906 126.894531 101.507812 123.925781 101.507812 C 120.84375 101.507812 118.453125 104.207031 118.453125 107.25 C 118.453125 110.449219 120.996094 112.800781 123.886719 112.800781 C 126.855469 112.800781 129.320312 110.375 129.320312 107.25 Z M 123.925781 112.183594 C 122.847656 112.183594 121.765625 111.683594 121.113281 110.527344 C 120.496094 109.449219 120.496094 107.945312 120.496094 107.058594 C 120.496094 106.09375 120.496094 104.785156 121.074219 103.707031 C 121.730469 102.589844 122.886719 102.046875 123.886719 102.046875 C 124.964844 102.046875 126.007812 102.589844 126.664062 103.667969 C 127.316406 104.707031 127.316406 106.132812 127.316406 107.058594 C 127.316406 107.945312 127.316406 109.292969 126.777344 110.375 C 126.199219 111.492188 125.121094 112.183594 123.925781 112.183594 Z M 123.925781 112.183594 "/>
<path fill-rule="nonzero" fill="rgb(0%, 0%, 0%)" fill-opacity="1" d="M 134.171875 104.359375 L 134.171875 101.664062 L 130.738281 101.933594 L 130.738281 102.703125 C 132.472656 102.703125 132.667969 102.859375 132.667969 104.089844 L 132.667969 110.683594 C 132.667969 111.761719 132.398438 111.761719 130.738281 111.761719 L 130.738281 112.53125 C 131.703125 112.492188 132.859375 112.453125 133.554688 112.453125 C 134.515625 112.453125 135.671875 112.453125 136.675781 112.53125 L 136.675781 111.761719 L 136.136719 111.761719 C 134.324219 111.761719 134.285156 111.492188 134.285156 110.605469 L 134.285156 106.828125 C 134.285156 104.398438 135.328125 102.203125 137.175781 102.203125 C 137.332031 102.203125 137.40625 102.203125 137.445312 102.242188 C 137.371094 102.242188 136.867188 102.550781 136.867188 103.203125 C 136.867188 103.859375 137.40625 104.246094 137.949219 104.246094 C 138.371094 104.246094 138.988281 103.9375 138.988281 103.167969 C 138.988281 102.394531 138.21875 101.664062 137.175781 101.664062 C 135.363281 101.664062 134.480469 103.320312 134.171875 104.359375 Z M 134.171875 104.359375 "/>
<path fill-rule="nonzero" fill="rgb(0%, 0%, 0%)" fill-opacity="1" d="M 142.5625 107.175781 C 142.5625 103.167969 144.566406 102.125 145.878906 102.125 C 146.109375 102.125 147.648438 102.164062 148.5 103.050781 C 147.496094 103.128906 147.34375 103.859375 147.34375 104.167969 C 147.34375 104.824219 147.804688 105.285156 148.460938 105.285156 C 149.113281 105.285156 149.617188 104.902344 149.617188 104.128906 C 149.617188 102.472656 147.726562 101.507812 145.839844 101.507812 C 142.753906 101.507812 140.519531 104.167969 140.519531 107.214844 C 140.519531 110.375 142.949219 112.800781 145.800781 112.800781 C 149.078125 112.800781 149.886719 109.832031 149.886719 109.601562 C 149.886719 109.371094 149.617188 109.371094 149.539062 109.371094 C 149.347656 109.371094 149.269531 109.449219 149.230469 109.601562 C 148.535156 111.875 146.917969 112.183594 146.03125 112.183594 C 144.722656 112.183594 142.5625 111.144531 142.5625 107.175781 Z M 142.5625 107.175781 "/>
<path fill-rule="nonzero" fill="rgb(0%, 0%, 0%)" fill-opacity="1" d="M 153.328125 106.328125 C 153.484375 102.664062 155.566406 102.046875 156.414062 102.046875 C 158.917969 102.046875 159.1875 105.363281 159.1875 106.328125 Z M 153.328125 106.867188 L 160.191406 106.867188 C 160.730469 106.867188 160.804688 106.867188 160.804688 106.328125 C 160.804688 103.898438 159.457031 101.507812 156.414062 101.507812 C 153.5625 101.507812 151.285156 104.050781 151.285156 107.136719 C 151.285156 110.410156 153.867188 112.800781 156.683594 112.800781 C 159.6875 112.800781 160.804688 110.066406 160.804688 109.601562 C 160.804688 109.371094 160.613281 109.292969 160.460938 109.292969 C 160.265625 109.292969 160.191406 109.449219 160.152344 109.640625 C 159.304688 112.183594 157.066406 112.183594 156.835938 112.183594 C 155.601562 112.183594 154.640625 111.453125 154.0625 110.527344 C 153.328125 109.371094 153.328125 107.753906 153.328125 106.867188 Z M 153.328125 106.867188 "/>
<path fill-rule="nonzero" fill="rgb(0%, 0%, 0%)" fill-opacity="1" d="M 164.210938 104.089844 L 164.210938 110.683594 C 164.210938 111.761719 163.941406 111.761719 162.285156 111.761719 L 162.285156 112.53125 C 163.171875 112.492188 164.40625 112.453125 165.097656 112.453125 C 165.714844 112.453125 166.988281 112.492188 167.835938 112.53125 L 167.835938 111.761719 C 166.175781 111.761719 165.90625 111.761719 165.90625 110.683594 L 165.90625 106.132812 C 165.90625 103.589844 167.679688 102.203125 169.222656 102.203125 C 170.800781 102.203125 171.070312 103.511719 171.070312 104.9375 L 171.070312 110.683594 C 171.070312 111.761719 170.800781 111.761719 169.144531 111.761719 L 169.144531 112.53125 C 169.992188 112.492188 171.265625 112.453125 171.921875 112.453125 C 172.535156 112.453125 173.847656 112.492188 174.65625 112.53125 L 174.65625 111.761719 C 173.382812 111.761719 172.769531 111.761719 172.769531 111.027344 L 172.769531 106.328125 C 172.769531 104.207031 172.769531 103.472656 171.996094 102.589844 C 171.648438 102.164062 170.839844 101.664062 169.414062 101.664062 C 167.601562 101.664062 166.445312 102.703125 165.753906 104.246094 L 165.753906 101.664062 L 162.285156 101.933594 L 162.285156 102.703125 C 164.019531 102.703125 164.210938 102.859375 164.210938 104.089844 Z M 164.210938 104.089844 "/>
<path fill-rule="nonzero" fill="rgb(0%, 0%, 0%)" fill-opacity="1" d="M 178.71875 102.703125 L 182.265625 102.703125 L 182.265625 101.933594 L 178.71875 101.933594 L 178.71875 97.421875 L 178.101562 97.421875 C 178.101562 99.425781 177.371094 102.046875 174.941406 102.164062 L 174.941406 102.703125 L 177.023438 102.703125 L 177.023438 109.488281 C 177.023438 112.492188 179.335938 112.800781 180.222656 112.800781 C 181.957031 112.800781 182.648438 111.066406 182.648438 109.488281 L 182.648438 108.097656 L 182.035156 108.097656 L 182.035156 109.449219 C 182.035156 111.261719 181.300781 112.183594 180.375 112.183594 C 178.71875 112.183594 178.71875 109.949219 178.71875 109.527344 Z M 178.71875 102.703125 "/>
<path fill-rule="nonzero" fill="rgb(0%, 0%, 0%)" fill-opacity="1" d="M 192.207031 110.683594 C 192.324219 111.644531 192.976562 112.6875 194.132812 112.6875 C 194.671875 112.6875 196.175781 112.339844 196.175781 110.335938 L 196.175781 108.949219 L 195.558594 108.949219 L 195.558594 110.335938 C 195.558594 111.761719 194.945312 111.914062 194.671875 111.914062 C 193.863281 111.914062 193.75 110.796875 193.75 110.683594 L 193.75 105.785156 C 193.75 104.746094 193.75 103.78125 192.863281 102.859375 C 191.898438 101.894531 190.664062 101.507812 189.507812 101.507812 C 187.464844 101.507812 185.769531 102.664062 185.769531 104.285156 C 185.769531 105.015625 186.273438 105.441406 186.925781 105.441406 C 187.621094 105.441406 188.042969 104.9375 188.042969 104.324219 C 188.042969 104.015625 187.929688 103.203125 186.773438 103.203125 C 187.464844 102.316406 188.660156 102.046875 189.433594 102.046875 C 190.664062 102.046875 192.054688 103.011719 192.054688 105.207031 L 192.054688 106.09375 C 190.78125 106.171875 189.085938 106.25 187.542969 106.980469 C 185.695312 107.828125 185.078125 109.101562 185.078125 110.179688 C 185.078125 112.183594 187.464844 112.800781 189.007812 112.800781 C 190.625 112.800781 191.746094 111.800781 192.207031 110.683594 Z M 192.054688 106.636719 L 192.054688 109.101562 C 192.054688 111.414062 190.28125 112.261719 189.164062 112.261719 C 187.96875 112.261719 186.964844 111.414062 186.964844 110.179688 C 186.964844 108.832031 188.007812 106.789062 192.054688 106.636719 Z M 192.054688 106.636719 "/>
<path fill-rule="nonzero" fill="rgb(0%, 0%, 0%)" fill-opacity="1" d="M 202.863281 101.664062 L 199.125 101.933594 L 199.125 102.703125 C 201.015625 102.703125 201.246094 102.859375 201.246094 104.089844 L 201.246094 113.804688 C 201.246094 114.921875 201.015625 117.042969 199.433594 117.042969 C 199.320312 117.042969 198.742188 117.042969 198.125 116.695312 C 198.46875 116.617188 198.972656 116.269531 198.972656 115.613281 C 198.972656 114.960938 198.546875 114.457031 197.855469 114.457031 C 197.160156 114.457031 196.699219 114.960938 196.699219 115.613281 C 196.699219 116.886719 198.085938 117.582031 199.511719 117.582031 C 201.324219 117.582031 202.863281 116 202.863281 113.765625 Z M 202.863281 97.386719 C 202.863281 96.652344 202.285156 96.074219 201.554688 96.074219 C 200.859375 96.074219 200.242188 96.652344 200.242188 97.386719 C 200.242188 98.078125 200.859375 98.695312 201.554688 98.695312 C 202.285156 98.695312 202.863281 98.078125 202.863281 97.386719 Z M 202.863281 97.386719 "/>
<path fill-rule="nonzero" fill="rgb(0%, 0%, 0%)" fill-opacity="1" d="M 207.921875 106.328125 C 208.074219 102.664062 210.15625 102.046875 211.003906 102.046875 C 213.511719 102.046875 213.78125 105.363281 213.78125 106.328125 Z M 207.921875 106.867188 L 214.78125 106.867188 C 215.320312 106.867188 215.398438 106.867188 215.398438 106.328125 C 215.398438 103.898438 214.050781 101.507812 211.003906 101.507812 C 208.152344 101.507812 205.878906 104.050781 205.878906 107.136719 C 205.878906 110.410156 208.460938 112.800781 211.273438 112.800781 C 214.28125 112.800781 215.398438 110.066406 215.398438 109.601562 C 215.398438 109.371094 215.207031 109.292969 215.050781 109.292969 C 214.859375 109.292969 214.78125 109.449219 214.742188 109.640625 C 213.894531 112.183594 211.660156 112.183594 211.429688 112.183594 C 210.195312 112.183594 209.230469 111.453125 208.652344 110.527344 C 207.921875 109.371094 207.921875 107.753906 207.921875 106.867188 Z M 207.921875 106.867188 "/>
<path fill="none" stroke-width="0.3487" stroke-linecap="round" stroke-linejoin="miter" stroke="rgb(0%, 0%, 0%)" stroke-opacity="1" stroke-miterlimit="10" d="M 8.503691 -29.223895 L 8.503691 -22.251239 Z M 8.503691 -29.223895 " transform="matrix(2.466667, 0, 0, -2.466667, 240.672666, 43.230798)"/>
<path fill="none" stroke-width="0.3487" stroke-linecap="round" stroke-linejoin="miter" stroke="rgb(0%, 0%, 0%)" stroke-opacity="1" stroke-miterlimit="10" d="M 39.187813 -29.223895 L 39.187813 -22.251239 Z M 39.187813 -29.223895 " transform="matrix(2.466667, 0, 0, -2.466667, 240.672666, 43.230798)"/>
<path fill="none" stroke-width="0.3487" stroke-linecap="round" stroke-linejoin="miter" stroke="rgb(0%, 0%, 0%)" stroke-opacity="1" stroke-miterlimit="10" d="M 69.875102 -29.223895 L 69.875102 -22.251239 Z M 69.875102 -29.223895 " transform="matrix(2.466667, 0, 0, -2.466667, 240.672666, 43.230798)"/>
<path fill="none" stroke-width="0.3487" stroke-linecap="round" stroke-linejoin="miter" stroke="rgb(0%, 0%, 0%)" stroke-opacity="1" stroke-miterlimit="10" d="M 100.559223 -29.223895 L 100.559223 -22.251239 Z M 100.559223 -29.223895 " transform="matrix(2.466667, 0, 0, -2.466667, 240.672666, 43.230798)"/>
<path fill="none" stroke-width="0.3487" stroke-linecap="round" stroke-linejoin="miter" stroke="rgb(0%, 0%, 0%)" stroke-opacity="1" stroke-miterlimit="10" d="M 131.246512 -29.223895 L 131.246512 -22.251239 Z M 131.246512 -29.223895 " transform="matrix(2.466667, 0, 0, -2.466667, 240.672666, 43.230798)"/>
<path fill-rule="nonzero" fill="rgb(0%, 0%, 0%)" fill-opacity="1" d="M 256.976562 132.421875 C 256.976562 130.957031 256.898438 129.03125 256.128906 127.375 C 255.128906 125.292969 253.46875 124.792969 252.199219 124.792969 C 250.847656 124.792969 249.152344 125.292969 248.191406 127.449219 C 247.496094 128.953125 247.378906 130.765625 247.378906 132.421875 C 247.378906 133.886719 247.417969 136.007812 248.382812 137.78125 C 249.421875 139.628906 251.15625 140.015625 252.160156 140.015625 C 253.585938 140.015625 255.242188 139.398438 256.167969 137.355469 C 256.824219 135.851562 256.976562 134.195312 256.976562 132.421875 Z M 252.199219 139.4375 C 251.503906 139.4375 249.925781 139.128906 249.5 136.625 C 249.269531 135.351562 249.269531 133.425781 249.269531 132.152344 C 249.269531 130.648438 249.269531 128.914062 249.539062 127.683594 C 250 125.714844 251.390625 125.332031 252.160156 125.332031 C 253.007812 125.332031 254.394531 125.792969 254.820312 127.835938 C 255.050781 129.03125 255.050781 130.765625 255.050781 132.152344 C 255.050781 133.539062 255.050781 135.390625 254.820312 136.699219 C 254.355469 139.246094 252.738281 139.4375 252.199219 139.4375 Z M 252.199219 139.4375 "/>
<path fill-rule="nonzero" fill="rgb(0%, 0%, 0%)" fill-opacity="1" d="M 273.429688 123.789062 C 273.546875 123.636719 273.625 123.558594 273.625 123.402344 C 273.625 123.097656 273.355469 122.902344 273.160156 122.902344 C 272.890625 122.902344 272.777344 123.058594 272.660156 123.25 C 271.234375 125.101562 269.382812 125.371094 268.382812 125.371094 C 266.222656 125.371094 264.796875 124.289062 264.027344 123.558594 C 263.449219 123.019531 262.871094 122.902344 262.445312 122.902344 C 260.75 122.902344 259.132812 124.753906 259.132812 127.375 C 259.132812 130.070312 260.789062 131.84375 262.445312 131.84375 C 264.105469 131.84375 265.414062 129.878906 265.414062 127.375 C 265.414062 127.066406 265.414062 126.0625 264.988281 124.984375 C 266.339844 125.753906 267.609375 125.910156 268.382812 125.910156 C 269.34375 125.910156 270.347656 125.679688 271.273438 125.175781 L 271.3125 125.214844 L 261.214844 139.824219 C 261.214844 139.863281 261.019531 140.09375 261.019531 140.285156 C 261.019531 140.554688 261.25 140.746094 261.519531 140.746094 C 261.753906 140.746094 261.867188 140.59375 261.984375 140.402344 Z M 262.523438 131.265625 C 262.023438 131.265625 260.597656 130.996094 260.597656 127.375 C 260.597656 123.75 262.023438 123.480469 262.523438 123.480469 C 263.679688 123.480469 264.796875 125.101562 264.796875 127.375 C 264.796875 129.726562 263.640625 131.265625 262.523438 131.265625 Z M 275.511719 136.316406 C 275.511719 133.734375 274.164062 131.84375 272.542969 131.84375 C 270.847656 131.84375 269.191406 133.65625 269.191406 136.277344 C 269.191406 138.976562 270.886719 140.746094 272.542969 140.746094 C 274.203125 140.746094 275.511719 138.820312 275.511719 136.316406 Z M 272.582031 140.207031 C 272.121094 140.207031 270.65625 139.898438 270.65625 136.316406 C 270.65625 132.652344 272.121094 132.382812 272.582031 132.382812 C 273.777344 132.382812 274.894531 134.042969 274.894531 136.277344 C 274.894531 138.628906 273.738281 140.207031 272.582031 140.207031 Z M 272.582031 140.207031 "/>
<path fill-rule="nonzero" fill="rgb(0%, 0%, 0%)" fill-opacity="1" d="M 323.207031 125.371094 C 323.207031 124.832031 323.207031 124.792969 322.667969 124.792969 C 321.28125 126.179688 319.238281 126.179688 318.542969 126.179688 L 318.542969 126.871094 C 318.96875 126.871094 320.316406 126.871094 321.511719 126.292969 L 321.511719 137.742188 C 321.511719 138.550781 321.472656 138.820312 319.390625 138.820312 L 318.699219 138.820312 L 318.699219 139.515625 C 319.46875 139.4375 321.472656 139.4375 322.359375 139.4375 C 323.285156 139.4375 325.25 139.4375 326.058594 139.515625 L 326.058594 138.820312 L 325.363281 138.820312 C 323.285156 138.820312 323.207031 138.550781 323.207031 137.742188 Z M 323.207031 125.371094 "/>
<path fill-rule="nonzero" fill="rgb(0%, 0%, 0%)" fill-opacity="1" d="M 338.351562 132.421875 C 338.351562 130.957031 338.273438 129.03125 337.5 127.375 C 336.5 125.292969 334.84375 124.792969 333.570312 124.792969 C 332.222656 124.792969 330.527344 125.292969 329.5625 127.449219 C 328.867188 128.953125 328.753906 130.765625 328.753906 132.421875 C 328.753906 133.886719 328.792969 136.007812 329.753906 137.78125 C 330.796875 139.628906 332.53125 140.015625 333.53125 140.015625 C 334.957031 140.015625 336.617188 139.398438 337.539062 137.355469 C 338.195312 135.851562 338.351562 134.195312 338.351562 132.421875 Z M 333.570312 139.4375 C 332.875 139.4375 331.296875 139.128906 330.871094 136.625 C 330.640625 135.351562 330.640625 133.425781 330.640625 132.152344 C 330.640625 130.648438 330.640625 128.914062 330.910156 127.683594 C 331.375 125.714844 332.761719 125.332031 333.53125 125.332031 C 334.378906 125.332031 335.765625 125.792969 336.191406 127.835938 C 336.421875 129.03125 336.421875 130.765625 336.421875 132.152344 C 336.421875 133.539062 336.421875 135.390625 336.191406 136.699219 C 335.730469 139.246094 334.109375 139.4375 333.570312 139.4375 Z M 333.570312 139.4375 "/>
<path fill-rule="nonzero" fill="rgb(0%, 0%, 0%)" fill-opacity="1" d="M 354.804688 123.789062 C 354.917969 123.636719 354.996094 123.558594 354.996094 123.402344 C 354.996094 123.097656 354.726562 122.902344 354.535156 122.902344 C 354.265625 122.902344 354.148438 123.058594 354.03125 123.25 C 352.605469 125.101562 350.757812 125.371094 349.753906 125.371094 C 347.597656 125.371094 346.171875 124.289062 345.398438 123.558594 C 344.820312 123.019531 344.242188 122.902344 343.820312 122.902344 C 342.125 122.902344 340.503906 124.753906 340.503906 127.375 C 340.503906 130.070312 342.160156 131.84375 343.820312 131.84375 C 345.476562 131.84375 346.785156 129.878906 346.785156 127.375 C 346.785156 127.066406 346.785156 126.0625 346.363281 124.984375 C 347.710938 125.753906 348.984375 125.910156 349.753906 125.910156 C 350.71875 125.910156 351.71875 125.679688 352.644531 125.175781 L 352.683594 125.214844 L 342.585938 139.824219 C 342.585938 139.863281 342.394531 140.09375 342.394531 140.285156 C 342.394531 140.554688 342.625 140.746094 342.894531 140.746094 C 343.125 140.746094 343.242188 140.59375 343.355469 140.402344 Z M 343.894531 131.265625 C 343.394531 131.265625 341.96875 130.996094 341.96875 127.375 C 341.96875 123.75 343.394531 123.480469 343.894531 123.480469 C 345.050781 123.480469 346.171875 125.101562 346.171875 127.375 C 346.171875 129.726562 345.015625 131.265625 343.894531 131.265625 Z M 356.882812 136.316406 C 356.882812 133.734375 355.535156 131.84375 353.917969 131.84375 C 352.222656 131.84375 350.5625 133.65625 350.5625 136.277344 C 350.5625 138.976562 352.257812 140.746094 353.917969 140.746094 C 355.574219 140.746094 356.882812 138.820312 356.882812 136.316406 Z M 353.957031 140.207031 C 353.492188 140.207031 352.027344 139.898438 352.027344 136.316406 C 352.027344 132.652344 353.492188 132.382812 353.957031 132.382812 C 355.148438 132.382812 356.269531 134.042969 356.269531 136.277344 C 356.269531 138.628906 355.113281 140.207031 353.957031 140.207031 Z M 353.957031 140.207031 "/>
<path fill-rule="nonzero" fill="rgb(0%, 0%, 0%)" fill-opacity="1" d="M 563.78125 134.964844 C 563.78125 135.121094 563.78125 135.351562 564.089844 135.351562 C 564.398438 135.351562 564.398438 135.160156 564.398438 134.773438 L 564.398438 134.117188 C 564.398438 132 565.554688 130.378906 567.210938 129.222656 C 567.90625 128.722656 568.484375 128.066406 568.484375 126.910156 C 568.484375 125.5625 567.519531 123.90625 564.167969 123.90625 C 561.699219 123.90625 560.3125 125.410156 560.3125 126.871094 C 560.3125 127.644531 560.8125 127.953125 561.351562 127.953125 C 561.929688 127.953125 562.355469 127.527344 562.355469 126.910156 C 562.355469 126.566406 562.199219 125.871094 561.199219 125.871094 C 561.96875 124.636719 563.472656 124.484375 564.128906 124.484375 C 566.554688 124.484375 566.59375 125.949219 566.59375 126.835938 C 566.59375 128.066406 566.171875 128.492188 565.824219 128.878906 C 563.78125 130.957031 563.78125 133.464844 563.78125 134.351562 Z M 565.285156 138.320312 C 565.285156 137.664062 564.746094 137.125 564.089844 137.125 C 563.433594 137.125 562.894531 137.664062 562.894531 138.320312 C 562.894531 138.976562 563.433594 139.515625 564.089844 139.515625 C 564.746094 139.515625 565.285156 138.976562 565.285156 138.320312 Z M 565.285156 138.320312 "/>
</svg>
