<?xml version="1.0" encoding="UTF-8"?>
<svg xmlns="http://www.w3.org/2000/svg" xmlns:xlink="http://www.w3.org/1999/xlink" width="622.45345" height="158.463592" viewBox="0 0 622.45345 158.463592">
<defs>
<clipPath id="clip-0">
<path clip-rule="nonzero" d="M 437 0 L 532.800781 0 L 532.800781 158.464844 L 437 158.464844 Z M 437 0 "/>
</clipPath>
</defs>
<path fill="none" stroke-width="0.3985" stroke-linecap="butt" stroke-linejoin="miter" stroke="rgb(0%, 0%, 0%)" stroke-opacity="1" stroke-miterlimit="10" d="M 0.00127163 -0.000589268 L 178.009084 -0.000589268 " transform="matrix(2.466667, 0, 0, -2.466667, 170.293738, 47.490734)"/>
<path fill-rule="nonzero" fill="rgb(0%, 0%, 0%)" fill-opacity="1" d="M 614.296875 47.492188 L 606.433594 43.5625 L 609.382812 47.492188 L 606.433594 51.425781 "/>
<path fill-rule="nonzero" fill="rgb(0%, 0%, 0%)" fill-opacity="1" d="M 21.277344 51.78125 C 21.390625 52.746094 22.046875 53.785156 23.203125 53.785156 C 23.742188 53.785156 25.246094 53.441406 25.246094 51.4375 L 25.246094 50.046875 L 24.628906 50.046875 L 24.628906 51.4375 C 24.628906 52.863281 24.011719 53.015625 23.742188 53.015625 C 22.933594 53.015625 22.816406 51.898438 22.816406 51.78125 L 22.816406 46.886719 C 22.816406 45.847656 22.816406 44.882812 21.929688 43.957031 C 20.96875 42.996094 19.734375 42.609375 18.578125 42.609375 C 16.535156 42.609375 14.839844 43.765625 14.839844 45.386719 C 14.839844 46.117188 15.339844 46.542969 15.996094 46.542969 C 16.691406 46.542969 17.113281 46.039062 17.113281 45.421875 C 17.113281 45.113281 17 44.304688 15.84375 44.304688 C 16.535156 43.417969 17.730469 43.148438 18.5 43.148438 C 19.734375 43.148438 21.121094 44.113281 21.121094 46.308594 L 21.121094 47.195312 C 19.851562 47.273438 18.15625 47.351562 16.613281 48.082031 C 14.761719 48.929688 14.144531 50.203125 14.144531 51.28125 C 14.144531 53.285156 16.535156 53.902344 18.078125 53.902344 C 19.695312 53.902344 20.8125 52.902344 21.277344 51.78125 Z M 21.121094 47.734375 L 21.121094 50.203125 C 21.121094 52.515625 19.347656 53.363281 18.230469 53.363281 C 17.035156 53.363281 16.035156 52.515625 16.035156 51.28125 C 16.035156 49.933594 17.074219 47.890625 21.121094 47.734375 Z M 21.121094 47.734375 "/>
<path fill-rule="nonzero" fill="rgb(0%, 0%, 0%)" fill-opacity="1" d="M 30.867188 49.394531 C 28.707031 49.394531 28.707031 46.925781 28.707031 46.386719 C 28.707031 45.730469 28.746094 44.921875 29.09375 44.304688 C 29.285156 44.035156 29.863281 43.34375 30.867188 43.34375 C 32.984375 43.34375 32.984375 45.769531 32.984375 46.347656 C 32.984375 47.003906 32.984375 47.8125 32.601562 48.429688 C 32.40625 48.699219 31.828125 49.394531 30.867188 49.394531 Z M 28.011719 50.355469 C 28.011719 50.28125 28.011719 49.703125 28.398438 49.199219 C 29.363281 49.894531 30.402344 49.972656 30.867188 49.972656 C 33.140625 49.972656 34.835938 48.277344 34.835938 46.386719 C 34.835938 45.460938 34.449219 44.574219 33.832031 43.996094 C 34.71875 43.148438 35.605469 43.035156 36.03125 43.035156 C 36.105469 43.035156 36.222656 43.035156 36.300781 43.074219 C 36.03125 43.148438 35.875 43.417969 35.875 43.726562 C 35.875 44.152344 36.222656 44.421875 36.609375 44.421875 C 36.839844 44.421875 37.300781 44.265625 37.300781 43.6875 C 37.300781 43.265625 37.03125 42.496094 36.070312 42.496094 C 35.566406 42.496094 34.488281 42.648438 33.449219 43.652344 C 32.40625 42.839844 31.40625 42.765625 30.867188 42.765625 C 28.554688 42.765625 26.855469 44.460938 26.855469 46.347656 C 26.855469 47.425781 27.398438 48.351562 28.011719 48.890625 C 27.707031 49.238281 27.242188 50.046875 27.242188 50.933594 C 27.242188 51.707031 27.589844 52.628906 28.359375 53.132812 C 26.855469 53.515625 26.085938 54.597656 26.085938 55.558594 C 26.085938 57.332031 28.515625 58.683594 31.519531 58.683594 C 34.410156 58.683594 36.957031 57.449219 36.957031 55.519531 C 36.957031 54.671875 36.648438 53.402344 35.375 52.707031 C 34.066406 52.050781 32.636719 52.050781 31.136719 52.050781 C 30.519531 52.050781 29.476562 52.050781 29.285156 52.015625 C 28.515625 51.898438 28.011719 51.167969 28.011719 50.355469 Z M 31.558594 58.140625 C 29.054688 58.140625 27.359375 56.871094 27.359375 55.558594 C 27.359375 54.441406 28.285156 53.515625 29.363281 53.480469 L 30.828125 53.480469 C 32.945312 53.480469 35.683594 53.480469 35.683594 55.558594 C 35.683594 56.910156 33.949219 58.140625 31.558594 58.140625 Z M 31.558594 58.140625 "/>
<path fill-rule="nonzero" fill="rgb(0%, 0%, 0%)" fill-opacity="1" d="M 47.277344 51.707031 L 47.277344 53.902344 L 50.824219 53.632812 L 50.824219 52.863281 C 49.125 52.863281 48.933594 52.707031 48.933594 51.472656 L 48.933594 42.765625 L 45.3125 43.035156 L 45.3125 43.804688 C 47.007812 43.804688 47.238281 43.957031 47.238281 45.191406 L 47.238281 49.546875 C 47.238281 51.707031 46.042969 53.363281 44.230469 53.363281 C 42.1875 53.363281 42.074219 52.207031 42.074219 50.933594 L 42.074219 42.765625 L 38.449219 43.035156 L 38.449219 43.804688 C 40.378906 43.804688 40.378906 43.882812 40.378906 46.039062 L 40.378906 49.738281 C 40.378906 51.667969 40.378906 53.902344 44.117188 53.902344 C 45.503906 53.902344 46.582031 53.207031 47.277344 51.707031 Z M 47.277344 51.707031 "/>
<path fill-rule="nonzero" fill="rgb(0%, 0%, 0%)" fill-opacity="1" d="M 59.503906 51.78125 C 59.621094 52.746094 60.273438 53.785156 61.429688 53.785156 C 61.972656 53.785156 63.472656 53.441406 63.472656 51.4375 L 63.472656 50.046875 L 62.855469 50.046875 L 62.855469 51.4375 C 62.855469 52.863281 62.242188 53.015625 61.972656 53.015625 C 61.160156 53.015625 61.046875 51.898438 61.046875 51.78125 L 61.046875 46.886719 C 61.046875 45.847656 61.046875 44.882812 60.160156 43.957031 C 59.195312 42.996094 57.960938 42.609375 56.804688 42.609375 C 54.761719 42.609375 53.066406 43.765625 53.066406 45.386719 C 53.066406 46.117188 53.570312 46.542969 54.222656 46.542969 C 54.917969 46.542969 55.339844 46.039062 55.339844 45.421875 C 55.339844 45.113281 55.226562 44.304688 54.070312 44.304688 C 54.761719 43.417969 55.957031 43.148438 56.730469 43.148438 C 57.960938 43.148438 59.351562 44.113281 59.351562 46.308594 L 59.351562 47.195312 C 58.078125 47.273438 56.382812 47.351562 54.839844 48.082031 C 52.992188 48.929688 52.375 50.203125 52.375 51.28125 C 52.375 53.285156 54.761719 53.902344 56.304688 53.902344 C 57.925781 53.902344 59.042969 52.902344 59.503906 51.78125 Z M 59.351562 47.734375 L 59.351562 50.203125 C 59.351562 52.515625 57.578125 53.363281 56.460938 53.363281 C 55.265625 53.363281 54.261719 52.515625 54.261719 51.28125 C 54.261719 49.933594 55.304688 47.890625 59.351562 47.734375 Z M 59.351562 47.734375 "/>
<path fill-rule="nonzero" fill="rgb(0%, 0%, 0%)" fill-opacity="1" d="M 79.9375 59.53125 C 79.9375 59.453125 79.9375 59.414062 79.511719 58.988281 C 76.46875 55.90625 75.65625 51.242188 75.65625 47.464844 C 75.65625 43.1875 76.582031 38.910156 79.628906 35.863281 C 79.9375 35.558594 79.9375 35.519531 79.9375 35.441406 C 79.9375 35.25 79.859375 35.171875 79.703125 35.171875 C 79.433594 35.171875 77.238281 36.867188 75.773438 39.988281 C 74.539062 42.6875 74.230469 45.421875 74.230469 47.464844 C 74.230469 49.394531 74.5 52.359375 75.851562 55.175781 C 77.355469 58.179688 79.433594 59.800781 79.703125 59.800781 C 79.859375 59.800781 79.9375 59.722656 79.9375 59.53125 Z M 79.9375 59.53125 "/>
<path fill-rule="nonzero" fill="rgb(0%, 0%, 0%)" fill-opacity="1" d="M 85.714844 36.558594 L 82.171875 36.828125 L 82.171875 37.597656 C 83.90625 37.597656 84.097656 37.753906 84.097656 38.988281 L 84.097656 51.78125 C 84.097656 52.863281 83.828125 52.863281 82.171875 52.863281 L 82.171875 53.632812 C 82.980469 53.59375 84.289062 53.554688 84.90625 53.554688 C 85.523438 53.554688 86.71875 53.59375 87.644531 53.632812 L 87.644531 52.863281 C 85.984375 52.863281 85.714844 52.863281 85.714844 51.78125 Z M 85.714844 36.558594 "/>
<path fill-rule="nonzero" fill="rgb(0%, 0%, 0%)" fill-opacity="1" d="M 92.542969 42.765625 L 89.113281 43.035156 L 89.113281 43.804688 C 90.691406 43.804688 90.925781 43.957031 90.925781 45.152344 L 90.925781 51.78125 C 90.925781 52.863281 90.652344 52.863281 88.996094 52.863281 L 88.996094 53.632812 C 89.769531 53.59375 91.117188 53.554688 91.695312 53.554688 C 92.582031 53.554688 93.429688 53.59375 94.277344 53.632812 L 94.277344 52.863281 C 92.621094 52.863281 92.542969 52.746094 92.542969 51.78125 Z M 92.621094 38.484375 C 92.621094 37.714844 92.042969 37.175781 91.347656 37.175781 C 90.578125 37.175781 90.039062 37.832031 90.039062 38.484375 C 90.039062 39.140625 90.578125 39.796875 91.347656 39.796875 C 92.042969 39.796875 92.621094 39.257812 92.621094 38.484375 Z M 92.621094 38.484375 "/>
<path fill-rule="nonzero" fill="rgb(0%, 0%, 0%)" fill-opacity="1" d="M 99.253906 43.804688 L 102.800781 43.804688 L 102.800781 43.035156 L 99.253906 43.035156 L 99.253906 38.523438 L 98.636719 38.523438 C 98.636719 40.527344 97.90625 43.148438 95.476562 43.265625 L 95.476562 43.804688 L 97.558594 43.804688 L 97.558594 50.589844 C 97.558594 53.59375 99.871094 53.902344 100.757812 53.902344 C 102.492188 53.902344 103.183594 52.167969 103.183594 50.589844 L 103.183594 49.199219 L 102.570312 49.199219 L 102.570312 50.550781 C 102.570312 52.359375 101.835938 53.285156 100.910156 53.285156 C 99.253906 53.285156 99.253906 51.050781 99.253906 50.625 Z M 99.253906 43.804688 "/>
<path fill-rule="nonzero" fill="rgb(0%, 0%, 0%)" fill-opacity="1" d="M 108.695312 45.460938 L 108.695312 42.765625 L 105.265625 43.035156 L 105.265625 43.804688 C 107 43.804688 107.191406 43.957031 107.191406 45.191406 L 107.191406 51.78125 C 107.191406 52.863281 106.921875 52.863281 105.265625 52.863281 L 105.265625 53.632812 C 106.230469 53.59375 107.386719 53.554688 108.078125 53.554688 C 109.042969 53.554688 110.199219 53.554688 111.199219 53.632812 L 111.199219 52.863281 L 110.660156 52.863281 C 108.847656 52.863281 108.8125 52.59375 108.8125 51.707031 L 108.8125 47.929688 C 108.8125 45.5 109.851562 43.304688 111.703125 43.304688 C 111.855469 43.304688 111.933594 43.304688 111.972656 43.34375 C 111.894531 43.34375 111.394531 43.652344 111.394531 44.304688 C 111.394531 44.960938 111.933594 45.347656 112.472656 45.347656 C 112.894531 45.347656 113.511719 45.039062 113.511719 44.265625 C 113.511719 43.496094 112.742188 42.765625 111.703125 42.765625 C 109.890625 42.765625 109.003906 44.421875 108.695312 45.460938 Z M 108.695312 45.460938 "/>
<path fill-rule="nonzero" fill="rgb(0%, 0%, 0%)" fill-opacity="1" d="M 125.757812 48.351562 C 125.757812 45.230469 123.332031 42.609375 120.363281 42.609375 C 117.28125 42.609375 114.890625 45.308594 114.890625 48.351562 C 114.890625 51.550781 117.433594 53.902344 120.324219 53.902344 C 123.292969 53.902344 125.757812 51.472656 125.757812 48.351562 Z M 120.363281 53.285156 C 119.285156 53.285156 118.207031 52.785156 117.550781 51.628906 C 116.933594 50.550781 116.933594 49.046875 116.933594 48.160156 C 116.933594 47.195312 116.933594 45.886719 117.511719 44.808594 C 118.167969 43.6875 119.324219 43.148438 120.324219 43.148438 C 121.40625 43.148438 122.445312 43.6875 123.101562 44.769531 C 123.753906 45.808594 123.753906 47.234375 123.753906 48.160156 C 123.753906 49.046875 123.753906 50.394531 123.214844 51.472656 C 122.636719 52.59375 121.558594 53.285156 120.363281 53.285156 Z M 120.363281 53.285156 "/>
<path fill-rule="nonzero" fill="rgb(0%, 0%, 0%)" fill-opacity="1" d="M 131.609375 48.855469 C 132.148438 48.96875 134.152344 49.355469 134.152344 51.128906 C 134.152344 52.359375 133.304688 53.363281 131.378906 53.363281 C 129.296875 53.363281 128.410156 51.976562 127.949219 49.855469 C 127.871094 49.546875 127.871094 49.46875 127.601562 49.46875 C 127.292969 49.46875 127.292969 49.625 127.292969 50.046875 L 127.292969 53.324219 C 127.292969 53.75 127.292969 53.902344 127.5625 53.902344 C 127.679688 53.902344 127.71875 53.863281 128.179688 53.402344 C 128.21875 53.363281 128.21875 53.324219 128.679688 52.863281 C 129.761719 53.863281 130.878906 53.902344 131.378906 53.902344 C 134.191406 53.902344 135.347656 52.246094 135.347656 50.472656 C 135.347656 49.199219 134.617188 48.429688 134.308594 48.160156 C 133.5 47.351562 132.535156 47.15625 131.496094 46.964844 C 130.105469 46.695312 128.488281 46.386719 128.488281 44.960938 C 128.488281 44.074219 129.105469 43.074219 131.226562 43.074219 C 133.921875 43.074219 134.078125 45.308594 134.117188 46.039062 C 134.117188 46.269531 134.347656 46.269531 134.386719 46.269531 C 134.730469 46.269531 134.730469 46.15625 134.730469 45.691406 L 134.730469 43.1875 C 134.730469 42.800781 134.730469 42.609375 134.460938 42.609375 C 134.347656 42.609375 134.269531 42.609375 133.960938 42.917969 C 133.882812 42.996094 133.652344 43.226562 133.539062 43.304688 C 132.613281 42.609375 131.609375 42.609375 131.226562 42.609375 C 128.21875 42.609375 127.292969 44.265625 127.292969 45.65625 C 127.292969 46.503906 127.679688 47.195312 128.335938 47.734375 C 129.144531 48.351562 129.835938 48.507812 131.609375 48.855469 Z M 131.609375 48.855469 "/>
<path fill-rule="nonzero" fill="rgb(0%, 0%, 0%)" fill-opacity="1" d="M 143.269531 47.464844 C 143.269531 45.578125 143 42.609375 141.648438 39.796875 C 140.183594 36.789062 138.066406 35.171875 137.832031 35.171875 C 137.679688 35.171875 137.5625 35.285156 137.5625 35.441406 C 137.5625 35.519531 137.5625 35.558594 138.027344 36.019531 C 140.453125 38.449219 141.84375 42.339844 141.84375 47.464844 C 141.84375 51.707031 140.957031 56.023438 137.910156 59.105469 C 137.5625 59.414062 137.5625 59.453125 137.5625 59.53125 C 137.5625 59.683594 137.679688 59.800781 137.832031 59.800781 C 138.066406 59.800781 140.300781 58.105469 141.726562 54.980469 C 143 52.285156 143.269531 49.546875 143.269531 47.464844 Z M 143.269531 47.464844 "/>
<path fill="none" stroke-width="0.3487" stroke-linecap="round" stroke-linejoin="miter" stroke="rgb(0%, 0%, 0%)" stroke-opacity="1" stroke-miterlimit="10" d="M 8.505283 -3.484542 L 8.505283 3.488114 Z M 8.505283 -3.484542 " transform="matrix(2.466667, 0, 0, -2.466667, 170.293738, 47.490734)"/>
<path fill="none" stroke-width="0.3487" stroke-linecap="round" stroke-linejoin="miter" stroke="rgb(0%, 0%, 0%)" stroke-opacity="1" stroke-miterlimit="10" d="M 48.189088 -3.484542 L 48.189088 3.488114 Z M 48.189088 -3.484542 " transform="matrix(2.466667, 0, 0, -2.466667, 170.293738, 47.490734)"/>
<path fill="none" stroke-width="0.3487" stroke-linecap="round" stroke-linejoin="miter" stroke="rgb(0%, 0%, 0%)" stroke-opacity="1" stroke-miterlimit="10" d="M 87.87606 -3.484542 L 87.87606 3.488114 Z M 87.87606 -3.484542 " transform="matrix(2.466667, 0, 0, -2.466667, 170.293738, 47.490734)"/>
<path fill="none" stroke-width="0.3487" stroke-linecap="round" stroke-linejoin="miter" stroke="rgb(0%, 0%, 0%)" stroke-opacity="1" stroke-miterlimit="10" d="M 127.559865 -3.484542 L 127.559865 3.488114 Z M 127.559865 -3.484542 " transform="matrix(2.466667, 0, 0, -2.466667, 170.293738, 47.490734)"/>
<path fill="none" stroke-width="0.3487" stroke-linecap="round" stroke-linejoin="miter" stroke="rgb(0%, 0%, 0%)" stroke-opacity="1" stroke-miterlimit="10" d="M 167.246838 -3.484542 L 167.246838 3.488114 Z M 167.246838 -3.484542 " transform="matrix(2.466667, 0, 0, -2.466667, 170.293738, 47.490734)"/>
<path fill-rule="nonzero" fill="rgb(0%, 0%, 0%)" fill-opacity="1" d="M 196.070312 24.527344 C 196.070312 23.0625 195.992188 21.132812 195.222656 19.476562 C 194.21875 17.394531 192.5625 16.894531 191.292969 16.894531 C 189.941406 16.894531 188.246094 17.394531 187.28125 19.554688 C 186.589844 21.058594 186.472656 22.867188 186.472656 24.527344 C 186.472656 25.992188 186.511719 28.109375 187.476562 29.882812 C 188.515625 31.734375 190.25 32.117188 191.253906 32.117188 C 192.679688 32.117188 194.335938 31.503906 195.261719 29.460938 C 195.917969 27.957031 196.070312 26.300781 196.070312 24.527344 Z M 191.292969 31.539062 C 190.597656 31.539062 189.015625 31.230469 188.59375 28.726562 C 188.363281 27.457031 188.363281 25.527344 188.363281 24.257812 C 188.363281 22.753906 188.363281 21.019531 188.632812 19.785156 C 189.09375 17.820312 190.480469 17.433594 191.253906 17.433594 C 192.101562 17.433594 193.488281 17.898438 193.910156 19.941406 C 194.144531 21.132812 194.144531 22.867188 194.144531 24.257812 C 194.144531 25.644531 194.144531 27.492188 193.910156 28.804688 C 193.449219 31.347656 191.832031 31.539062 191.292969 31.539062 Z M 191.292969 31.539062 "/>
<path fill-rule="nonzero" fill="rgb(0%, 0%, 0%)" fill-opacity="1" d="M 275.078125 24.292969 C 275.078125 22.019531 275.308594 20.789062 275.925781 19.632812 C 276.351562 18.707031 277.429688 17.433594 279.085938 17.433594 C 279.511719 17.433594 280.550781 17.511719 281.050781 18.320312 C 280.242188 18.320312 279.855469 18.746094 279.855469 19.324219 C 279.855469 19.902344 280.28125 20.363281 280.898438 20.363281 C 281.515625 20.363281 281.9375 19.941406 281.9375 19.285156 C 281.9375 18.050781 281.050781 16.894531 279.046875 16.894531 C 276.195312 16.894531 273.074219 19.707031 273.074219 24.640625 C 273.074219 30.617188 275.773438 32.117188 277.851562 32.117188 C 280.28125 32.117188 282.515625 30.039062 282.515625 27.109375 C 282.515625 24.332031 280.472656 22.175781 277.96875 22.175781 C 276.660156 22.175781 275.695312 22.984375 275.078125 24.292969 Z M 277.816406 31.503906 C 276.542969 31.503906 275.808594 30.460938 275.578125 29.804688 C 275.15625 28.804688 275.117188 26.953125 275.117188 26.605469 C 275.117188 25.144531 275.808594 22.753906 277.929688 22.753906 C 278.277344 22.753906 279.355469 22.753906 280.089844 24.101562 C 280.511719 24.949219 280.511719 26.027344 280.511719 27.109375 C 280.511719 28.148438 280.511719 29.265625 280.089844 30.074219 C 279.394531 31.347656 278.429688 31.503906 277.816406 31.503906 Z M 277.816406 31.503906 "/>
<path fill-rule="nonzero" fill="rgb(0%, 0%, 0%)" fill-opacity="1" d="M 293.960938 24.527344 C 293.960938 23.0625 293.882812 21.132812 293.113281 19.476562 C 292.109375 17.394531 290.453125 16.894531 289.179688 16.894531 C 287.832031 16.894531 286.136719 17.394531 285.171875 19.554688 C 284.476562 21.058594 284.363281 22.867188 284.363281 24.527344 C 284.363281 25.992188 284.402344 28.109375 285.363281 29.882812 C 286.40625 31.734375 288.140625 32.117188 289.140625 32.117188 C 290.566406 32.117188 292.226562 31.503906 293.148438 29.460938 C 293.804688 27.957031 293.960938 26.300781 293.960938 24.527344 Z M 289.179688 31.539062 C 288.488281 31.539062 286.90625 31.230469 286.484375 28.726562 C 286.25 27.457031 286.25 25.527344 286.25 24.257812 C 286.25 22.753906 286.25 21.019531 286.519531 19.785156 C 286.984375 17.820312 288.371094 17.433594 289.140625 17.433594 C 289.988281 17.433594 291.378906 17.898438 291.800781 19.941406 C 292.03125 21.132812 292.03125 22.867188 292.03125 24.257812 C 292.03125 25.644531 292.03125 27.492188 291.800781 28.804688 C 291.339844 31.347656 289.71875 31.539062 289.179688 31.539062 Z M 289.179688 31.539062 "/>
<path fill-rule="nonzero" fill="rgb(0%, 0%, 0%)" fill-opacity="1" d="M 305.324219 24.527344 C 305.324219 23.0625 305.25 21.132812 304.476562 19.476562 C 303.476562 17.394531 301.816406 16.894531 300.546875 16.894531 C 299.199219 16.894531 297.5 17.394531 296.539062 19.554688 C 295.84375 21.058594 295.730469 22.867188 295.730469 24.527344 C 295.730469 25.992188 295.765625 28.109375 296.730469 29.882812 C 297.769531 31.734375 299.503906 32.117188 300.507812 32.117188 C 301.933594 32.117188 303.589844 31.503906 304.515625 29.460938 C 305.171875 27.957031 305.324219 26.300781 305.324219 24.527344 Z M 300.546875 31.539062 C 299.851562 31.539062 298.273438 31.230469 297.847656 28.726562 C 297.617188 27.457031 297.617188 25.527344 297.617188 24.257812 C 297.617188 22.753906 297.617188 21.019531 297.886719 19.785156 C 298.347656 17.820312 299.738281 17.433594 300.507812 17.433594 C 301.355469 17.433594 302.742188 17.898438 303.167969 19.941406 C 303.398438 21.132812 303.398438 22.867188 303.398438 24.257812 C 303.398438 25.644531 303.398438 27.492188 303.167969 28.804688 C 302.703125 31.347656 301.085938 31.539062 300.546875 31.539062 Z M 300.546875 31.539062 "/>
<path fill-rule="nonzero" fill="rgb(0%, 0%, 0%)" fill-opacity="1" d="M 371.023438 17.472656 C 371.023438 16.933594 371.023438 16.894531 370.484375 16.894531 C 369.097656 18.28125 367.054688 18.28125 366.359375 18.28125 L 366.359375 18.976562 C 366.785156 18.976562 368.132812 18.976562 369.328125 18.398438 L 369.328125 29.84375 C 369.328125 30.652344 369.289062 30.925781 367.207031 30.925781 L 366.515625 30.925781 L 366.515625 31.617188 C 367.285156 31.539062 369.289062 31.539062 370.175781 31.539062 C 371.101562 31.539062 373.066406 31.539062 373.875 31.617188 L 373.875 30.925781 L 373.179688 30.925781 C 371.101562 30.925781 371.023438 30.652344 371.023438 29.84375 Z M 371.023438 17.472656 "/>
<path fill-rule="nonzero" fill="rgb(0%, 0%, 0%)" fill-opacity="1" d="M 385.894531 27.6875 L 385.28125 27.6875 C 385.242188 27.996094 385.046875 29.304688 384.777344 29.652344 C 384.625 29.84375 383.121094 29.84375 382.660156 29.84375 L 378.726562 29.84375 L 380.925781 27.761719 C 384.546875 24.640625 385.894531 23.445312 385.894531 21.210938 C 385.894531 18.667969 383.816406 16.894531 381.078125 16.894531 C 378.535156 16.894531 376.800781 18.898438 376.800781 20.902344 C 376.800781 22.019531 377.765625 22.136719 377.957031 22.136719 C 378.457031 22.136719 379.113281 21.789062 379.113281 20.980469 C 379.113281 20.324219 378.652344 19.824219 377.957031 19.824219 C 377.839844 19.824219 377.800781 19.824219 377.6875 19.863281 C 378.226562 18.28125 379.652344 17.589844 380.847656 17.589844 C 383.082031 17.589844 383.855469 19.667969 383.855469 21.210938 C 383.855469 23.445312 382.15625 25.296875 381.117188 26.453125 L 377.070312 30.808594 C 376.800781 31.078125 376.800781 31.117188 376.800781 31.617188 L 385.28125 31.617188 Z M 385.894531 27.6875 "/>
<path fill-rule="nonzero" fill="rgb(0%, 0%, 0%)" fill-opacity="1" d="M 397.53125 24.527344 C 397.53125 23.0625 397.453125 21.132812 396.683594 19.476562 C 395.683594 17.394531 394.023438 16.894531 392.753906 16.894531 C 391.402344 16.894531 389.707031 17.394531 388.746094 19.554688 C 388.050781 21.058594 387.933594 22.867188 387.933594 24.527344 C 387.933594 25.992188 387.972656 28.109375 388.9375 29.882812 C 389.976562 31.734375 391.710938 32.117188 392.714844 32.117188 C 394.140625 32.117188 395.796875 31.503906 396.722656 29.460938 C 397.378906 27.957031 397.53125 26.300781 397.53125 24.527344 Z M 392.753906 31.539062 C 392.058594 31.539062 390.480469 31.230469 390.054688 28.726562 C 389.824219 27.457031 389.824219 25.527344 389.824219 24.257812 C 389.824219 22.753906 389.824219 21.019531 390.09375 19.785156 C 390.554688 17.820312 391.945312 17.433594 392.714844 17.433594 C 393.5625 17.433594 394.949219 17.898438 395.375 19.941406 C 395.605469 21.132812 395.605469 22.867188 395.605469 24.257812 C 395.605469 25.644531 395.605469 27.492188 395.375 28.804688 C 394.910156 31.347656 393.292969 31.539062 392.753906 31.539062 Z M 392.753906 31.539062 "/>
<path fill-rule="nonzero" fill="rgb(0%, 0%, 0%)" fill-opacity="1" d="M 408.898438 24.527344 C 408.898438 23.0625 408.820312 21.132812 408.050781 19.476562 C 407.046875 17.394531 405.390625 16.894531 404.117188 16.894531 C 402.769531 16.894531 401.074219 17.394531 400.109375 19.554688 C 399.417969 21.058594 399.300781 22.867188 399.300781 24.527344 C 399.300781 25.992188 399.339844 28.109375 400.304688 29.882812 C 401.34375 31.734375 403.078125 32.117188 404.082031 32.117188 C 405.507812 32.117188 407.164062 31.503906 408.089844 29.460938 C 408.742188 27.957031 408.898438 26.300781 408.898438 24.527344 Z M 404.117188 31.539062 C 403.425781 31.539062 401.84375 31.230469 401.421875 28.726562 C 401.191406 27.457031 401.191406 25.527344 401.191406 24.257812 C 401.191406 22.753906 401.191406 21.019531 401.460938 19.785156 C 401.921875 17.820312 403.308594 17.433594 404.082031 17.433594 C 404.929688 17.433594 406.316406 17.898438 406.738281 19.941406 C 406.972656 21.132812 406.972656 22.867188 406.972656 24.257812 C 406.972656 25.644531 406.972656 27.492188 406.738281 28.804688 C 406.277344 31.347656 404.660156 31.539062 404.117188 31.539062 Z M 404.117188 31.539062 "/>
<path fill-rule="nonzero" fill="rgb(0%, 0%, 0%)" fill-opacity="1" d="M 468.914062 17.472656 C 468.914062 16.933594 468.914062 16.894531 468.375 16.894531 C 466.984375 18.28125 464.941406 18.28125 464.25 18.28125 L 464.25 18.976562 C 464.671875 18.976562 466.023438 18.976562 467.21875 18.398438 L 467.21875 29.84375 C 467.21875 30.652344 467.179688 30.925781 465.097656 30.925781 L 464.402344 30.925781 L 464.402344 31.617188 C 465.175781 31.539062 467.179688 31.539062 468.066406 31.539062 C 468.988281 31.539062 470.957031 31.539062 471.765625 31.617188 L 471.765625 30.925781 L 471.070312 30.925781 C 468.988281 30.925781 468.914062 30.652344 468.914062 29.84375 Z M 468.914062 17.472656 "/>
<path fill-rule="nonzero" fill="rgb(0%, 0%, 0%)" fill-opacity="1" d="M 477.386719 21.558594 C 476.734375 21.132812 476.191406 20.554688 476.191406 19.746094 C 476.191406 18.28125 477.734375 17.433594 479.199219 17.433594 C 480.933594 17.433594 482.28125 18.628906 482.28125 20.171875 C 482.28125 21.710938 480.972656 22.753906 480.085938 23.253906 Z M 480.625 23.601562 C 481.742188 23.0625 483.363281 21.980469 483.363281 20.171875 C 483.363281 18.089844 481.28125 16.894531 479.277344 16.894531 C 476.964844 16.894531 475.152344 18.550781 475.152344 20.59375 C 475.152344 21.402344 475.460938 22.214844 476 22.867188 C 476.347656 23.292969 476.5 23.371094 477.773438 24.179688 C 475.847656 25.105469 474.535156 26.453125 474.535156 28.265625 C 474.535156 30.617188 476.847656 32.117188 479.238281 32.117188 C 481.820312 32.117188 483.980469 30.308594 483.980469 27.917969 C 483.980469 25.757812 482.320312 24.679688 481.78125 24.332031 C 481.550781 24.179688 480.894531 23.753906 480.625 23.601562 Z M 478.390625 24.566406 L 481.164062 26.300781 C 481.667969 26.605469 482.785156 27.339844 482.785156 28.6875 C 482.785156 30.421875 481.011719 31.503906 479.277344 31.503906 C 477.347656 31.503906 475.730469 30.113281 475.730469 28.265625 C 475.730469 26.683594 476.808594 25.375 478.390625 24.566406 Z M 478.390625 24.566406 "/>
<path fill-rule="nonzero" fill="rgb(0%, 0%, 0%)" fill-opacity="1" d="M 495.421875 24.527344 C 495.421875 23.0625 495.34375 21.132812 494.574219 19.476562 C 493.570312 17.394531 491.914062 16.894531 490.644531 16.894531 C 489.292969 16.894531 487.597656 17.394531 486.632812 19.554688 C 485.941406 21.058594 485.824219 22.867188 485.824219 24.527344 C 485.824219 25.992188 485.863281 28.109375 486.828125 29.882812 C 487.867188 31.734375 489.601562 32.117188 490.605469 32.117188 C 492.03125 32.117188 493.6875 31.503906 494.613281 29.460938 C 495.269531 27.957031 495.421875 26.300781 495.421875 24.527344 Z M 490.644531 31.539062 C 489.949219 31.539062 488.367188 31.230469 487.945312 28.726562 C 487.714844 27.457031 487.714844 25.527344 487.714844 24.257812 C 487.714844 22.753906 487.714844 21.019531 487.984375 19.785156 C 488.445312 17.820312 489.832031 17.433594 490.605469 17.433594 C 491.453125 17.433594 492.839844 17.898438 493.261719 19.941406 C 493.496094 21.132812 493.496094 22.867188 493.496094 24.257812 C 493.496094 25.644531 493.496094 27.492188 493.261719 28.804688 C 492.800781 31.347656 491.183594 31.539062 490.644531 31.539062 Z M 490.644531 31.539062 "/>
<path fill-rule="nonzero" fill="rgb(0%, 0%, 0%)" fill-opacity="1" d="M 506.789062 24.527344 C 506.789062 23.0625 506.710938 21.132812 505.941406 19.476562 C 504.9375 17.394531 503.28125 16.894531 502.007812 16.894531 C 500.660156 16.894531 498.964844 17.394531 498 19.554688 C 497.304688 21.058594 497.191406 22.867188 497.191406 24.527344 C 497.191406 25.992188 497.230469 28.109375 498.191406 29.882812 C 499.234375 31.734375 500.96875 32.117188 501.96875 32.117188 C 503.394531 32.117188 505.054688 31.503906 505.976562 29.460938 C 506.632812 27.957031 506.789062 26.300781 506.789062 24.527344 Z M 502.007812 31.539062 C 501.316406 31.539062 499.734375 31.230469 499.3125 28.726562 C 499.078125 27.457031 499.078125 25.527344 499.078125 24.257812 C 499.078125 22.753906 499.078125 21.019531 499.347656 19.785156 C 499.8125 17.820312 501.199219 17.433594 501.96875 17.433594 C 502.816406 17.433594 504.207031 17.898438 504.628906 19.941406 C 504.859375 21.132812 504.859375 22.867188 504.859375 24.257812 C 504.859375 25.644531 504.859375 27.492188 504.628906 28.804688 C 504.167969 31.347656 502.546875 31.539062 502.007812 31.539062 Z M 502.007812 31.539062 "/>
<path fill-rule="nonzero" fill="rgb(0%, 0%, 0%)" fill-opacity="1" d="M 570.308594 27.6875 L 569.691406 27.6875 C 569.65625 27.996094 569.460938 29.304688 569.191406 29.652344 C 569.039062 29.84375 567.535156 29.84375 567.070312 29.84375 L 563.140625 29.84375 L 565.335938 27.761719 C 568.960938 24.640625 570.308594 23.445312 570.308594 21.210938 C 570.308594 18.667969 568.226562 16.894531 565.492188 16.894531 C 562.949219 16.894531 561.214844 18.898438 561.214844 20.902344 C 561.214844 22.019531 562.175781 22.136719 562.371094 22.136719 C 562.871094 22.136719 563.527344 21.789062 563.527344 20.980469 C 563.527344 20.324219 563.0625 19.824219 562.371094 19.824219 C 562.253906 19.824219 562.214844 19.824219 562.101562 19.863281 C 562.640625 18.28125 564.066406 17.589844 565.261719 17.589844 C 567.496094 17.589844 568.265625 19.667969 568.265625 21.210938 C 568.265625 23.445312 566.570312 25.296875 565.53125 26.453125 L 561.484375 30.808594 C 561.214844 31.078125 561.214844 31.117188 561.214844 31.617188 L 569.691406 31.617188 Z M 570.308594 27.6875 "/>
<path fill-rule="nonzero" fill="rgb(0%, 0%, 0%)" fill-opacity="1" d="M 572.117188 27.261719 L 572.117188 27.957031 L 578.128906 27.957031 L 578.128906 29.882812 C 578.128906 30.691406 578.089844 30.925781 576.433594 30.925781 L 575.933594 30.925781 L 575.933594 31.617188 C 577.320312 31.539062 578.863281 31.539062 579.015625 31.539062 C 579.132812 31.539062 580.75 31.539062 582.136719 31.617188 L 582.136719 30.925781 L 581.636719 30.925781 C 579.980469 30.925781 579.902344 30.691406 579.902344 29.882812 L 579.902344 27.957031 L 582.175781 27.957031 L 582.175781 27.261719 L 579.902344 27.261719 L 579.902344 17.242188 C 579.902344 16.777344 579.902344 16.625 579.480469 16.625 C 579.210938 16.625 579.210938 16.664062 579.015625 16.972656 Z M 572.8125 27.261719 L 578.285156 19.089844 L 578.285156 27.261719 Z M 572.8125 27.261719 "/>
<path fill-rule="nonzero" fill="rgb(0%, 0%, 0%)" fill-opacity="1" d="M 593.3125 24.527344 C 593.3125 23.0625 593.234375 21.132812 592.464844 19.476562 C 591.460938 17.394531 589.804688 16.894531 588.53125 16.894531 C 587.183594 16.894531 585.488281 17.394531 584.523438 19.554688 C 583.832031 21.058594 583.714844 22.867188 583.714844 24.527344 C 583.714844 25.992188 583.753906 28.109375 584.714844 29.882812 C 585.757812 31.734375 587.492188 32.117188 588.492188 32.117188 C 589.917969 32.117188 591.578125 31.503906 592.503906 29.460938 C 593.15625 27.957031 593.3125 26.300781 593.3125 24.527344 Z M 588.53125 31.539062 C 587.839844 31.539062 586.257812 31.230469 585.835938 28.726562 C 585.601562 27.457031 585.601562 25.527344 585.601562 24.257812 C 585.601562 22.753906 585.601562 21.019531 585.871094 19.785156 C 586.335938 17.820312 587.722656 17.433594 588.492188 17.433594 C 589.339844 17.433594 590.730469 17.898438 591.152344 19.941406 C 591.382812 21.132812 591.382812 22.867188 591.382812 24.257812 C 591.382812 25.644531 591.382812 27.492188 591.152344 28.804688 C 590.691406 31.347656 589.070312 31.539062 588.53125 31.539062 Z M 588.53125 31.539062 "/>
<path fill-rule="nonzero" fill="rgb(0%, 0%, 0%)" fill-opacity="1" d="M 604.675781 24.527344 C 604.675781 23.0625 604.601562 21.132812 603.828125 19.476562 C 602.828125 17.394531 601.171875 16.894531 599.898438 16.894531 C 598.550781 16.894531 596.851562 17.394531 595.890625 19.554688 C 595.195312 21.058594 595.082031 22.867188 595.082031 24.527344 C 595.082031 25.992188 595.117188 28.109375 596.082031 29.882812 C 597.125 31.734375 598.859375 32.117188 599.859375 32.117188 C 601.285156 32.117188 602.941406 31.503906 603.867188 29.460938 C 604.523438 27.957031 604.675781 26.300781 604.675781 24.527344 Z M 599.898438 31.539062 C 599.203125 31.539062 597.625 31.230469 597.199219 28.726562 C 596.96875 27.457031 596.96875 25.527344 596.96875 24.257812 C 596.96875 22.753906 596.96875 21.019531 597.238281 19.785156 C 597.703125 17.820312 599.089844 17.433594 599.859375 17.433594 C 600.707031 17.433594 602.09375 17.898438 602.519531 19.941406 C 602.75 21.132812 602.75 22.867188 602.75 24.257812 C 602.75 25.644531 602.75 27.492188 602.519531 28.804688 C 602.054688 31.347656 600.4375 31.539062 599.898438 31.539062 Z M 599.898438 31.539062 "/>
<path fill="none" stroke-width="0.3985" stroke-linecap="butt" stroke-linejoin="miter" stroke="rgb(0%, 0%, 0%)" stroke-opacity="1" stroke-miterlimit="10" d="M 0.00127163 -25.735914 L 178.009084 -25.735914 " transform="matrix(2.466667, 0, 0, -2.466667, 170.293738, 47.490734)"/>
<path fill-rule="nonzero" fill="rgb(0%, 0%, 0%)" fill-opacity="1" d="M 614.296875 110.972656 L 606.433594 107.039062 L 609.382812 110.972656 L 606.433594 114.910156 "/>
<path fill="none" stroke-width="0.3487" stroke-linecap="round" stroke-linejoin="miter" stroke="rgb(0%, 0%, 0%)" stroke-opacity="1" stroke-miterlimit="10" d="M 8.505283 -29.223034 L 8.505283 -22.250378 Z M 8.505283 -29.223034 " transform="matrix(2.466667, 0, 0, -2.466667, 170.293738, 47.490734)"/>
<path fill="none" stroke-width="0.3487" stroke-linecap="round" stroke-linejoin="miter" stroke="rgb(0%, 0%, 0%)" stroke-opacity="1" stroke-miterlimit="10" d="M 48.189088 -29.223034 L 48.189088 -22.250378 Z M 48.189088 -29.223034 " transform="matrix(2.466667, 0, 0, -2.466667, 170.293738, 47.490734)"/>
<path fill="none" stroke-width="0.3487" stroke-linecap="round" stroke-linejoin="miter" stroke="rgb(0%, 0%, 0%)" stroke-opacity="1" stroke-miterlimit="10" d="M 87.87606 -29.223034 L 87.87606 -22.250378 Z M 87.87606 -29.223034 " transform="matrix(2.466667, 0, 0, -2.466667, 170.293738, 47.490734)"/>
<path fill="none" stroke-width="0.3487" stroke-linecap="round" stroke-linejoin="miter" stroke="rgb(0%, 0%, 0%)" stroke-opacity="1" stroke-miterlimit="10" d="M 127.559865 -29.223034 L 127.559865 -22.250378 Z M 127.559865 -29.223034 " transform="matrix(2.466667, 0, 0, -2.466667, 170.293738, 47.490734)"/>
<path fill="none" stroke-width="0.3487" stroke-linecap="round" stroke-linejoin="miter" stroke="rgb(0%, 0%, 0%)" stroke-opacity="1" stroke-miterlimit="10" d="M 167.246838 -29.223034 L 167.246838 -22.250378 Z M 167.246838 -29.223034 " transform="matrix(2.466667, 0, 0, -2.466667, 170.293738, 47.490734)"/>
<path fill-rule="nonzero" fill="rgb(0%, 0%, 0%)" fill-opacity="1" d="M 186.597656 133.507812 C 186.597656 132.042969 186.519531 130.117188 185.75 128.460938 C 184.75 126.378906 183.089844 125.878906 181.820312 125.878906 C 180.46875 125.878906 178.773438 126.378906 177.8125 128.535156 C 177.117188 130.039062 177 131.851562 177 133.507812 C 177 134.972656 177.039062 137.09375 178.003906 138.867188 C 179.042969 140.714844 180.777344 141.101562 181.78125 141.101562 C 183.207031 141.101562 184.863281 140.484375 185.789062 138.441406 C 186.445312 136.9375 186.597656 135.28125 186.597656 133.507812 Z M 181.820312 140.523438 C 181.125 140.523438 179.546875 140.214844 179.121094 137.710938 C 178.890625 136.4375 178.890625 134.511719 178.890625 133.238281 C 178.890625 131.734375 178.890625 130 179.160156 128.769531 C 179.621094 126.800781 181.011719 126.417969 181.78125 126.417969 C 182.628906 126.417969 184.015625 126.878906 184.441406 128.921875 C 184.671875 130.117188 184.671875 131.851562 184.671875 133.238281 C 184.671875 134.625 184.671875 136.476562 184.441406 137.785156 C 183.976562 140.332031 182.359375 140.523438 181.820312 140.523438 Z M 181.820312 140.523438 "/>
<path fill-rule="nonzero" fill="rgb(0%, 0%, 0%)" fill-opacity="1" d="M 203.050781 124.875 C 203.167969 124.722656 203.246094 124.644531 203.246094 124.488281 C 203.246094 124.179688 202.976562 123.988281 202.78125 123.988281 C 202.511719 123.988281 202.398438 124.144531 202.28125 124.335938 C 200.855469 126.183594 199.003906 126.457031 198.003906 126.457031 C 195.84375 126.457031 194.417969 125.375 193.648438 124.644531 C 193.070312 124.105469 192.492188 123.988281 192.066406 123.988281 C 190.371094 123.988281 188.753906 125.839844 188.753906 128.460938 C 188.753906 131.15625 190.410156 132.929688 192.066406 132.929688 C 193.726562 132.929688 195.035156 130.964844 195.035156 128.460938 C 195.035156 128.152344 195.035156 127.148438 194.609375 126.070312 C 195.960938 126.839844 197.230469 126.996094 198.003906 126.996094 C 198.964844 126.996094 199.96875 126.761719 200.894531 126.261719 L 200.933594 126.300781 L 190.835938 140.910156 C 190.835938 140.945312 190.640625 141.179688 190.640625 141.371094 C 190.640625 141.640625 190.871094 141.832031 191.140625 141.832031 C 191.375 141.832031 191.488281 141.679688 191.605469 141.488281 Z M 192.144531 132.351562 C 191.644531 132.351562 190.21875 132.082031 190.21875 128.460938 C 190.21875 124.835938 191.644531 124.566406 192.144531 124.566406 C 193.300781 124.566406 194.417969 126.183594 194.417969 128.460938 C 194.417969 130.808594 193.261719 132.351562 192.144531 132.351562 Z M 205.132812 137.402344 C 205.132812 134.820312 203.785156 132.929688 202.164062 132.929688 C 200.46875 132.929688 198.8125 134.742188 198.8125 137.363281 C 198.8125 140.058594 200.507812 141.832031 202.164062 141.832031 C 203.824219 141.832031 205.132812 139.90625 205.132812 137.402344 Z M 202.203125 141.292969 C 201.742188 141.292969 200.277344 140.984375 200.277344 137.402344 C 200.277344 133.738281 201.742188 133.46875 202.203125 133.46875 C 203.398438 133.46875 204.515625 135.128906 204.515625 137.363281 C 204.515625 139.714844 203.359375 141.292969 202.203125 141.292969 Z M 202.203125 141.292969 "/>
<path fill-rule="nonzero" fill="rgb(0%, 0%, 0%)" fill-opacity="1" d="M 278.535156 136.667969 L 277.917969 136.667969 C 277.878906 136.976562 277.6875 138.289062 277.417969 138.632812 C 277.261719 138.828125 275.761719 138.828125 275.296875 138.828125 L 271.367188 138.828125 L 273.5625 136.746094 C 277.1875 133.625 278.535156 132.429688 278.535156 130.195312 C 278.535156 127.648438 276.453125 125.878906 273.71875 125.878906 C 271.171875 125.878906 269.4375 127.882812 269.4375 129.886719 C 269.4375 131.003906 270.402344 131.117188 270.59375 131.117188 C 271.097656 131.117188 271.75 130.773438 271.75 129.960938 C 271.75 129.308594 271.289062 128.804688 270.59375 128.804688 C 270.480469 128.804688 270.441406 128.804688 270.324219 128.84375 C 270.867188 127.265625 272.292969 126.570312 273.484375 126.570312 C 275.722656 126.570312 276.492188 128.652344 276.492188 130.195312 C 276.492188 132.429688 274.796875 134.277344 273.757812 135.433594 L 269.710938 139.789062 C 269.4375 140.058594 269.4375 140.097656 269.4375 140.601562 L 277.917969 140.601562 Z M 278.535156 136.667969 "/>
<path fill-rule="nonzero" fill="rgb(0%, 0%, 0%)" fill-opacity="1" d="M 282 132.96875 C 282 133.355469 282 133.625 282.308594 133.625 C 282.460938 133.625 282.539062 133.507812 282.65625 133.316406 C 283.347656 132.390625 284.390625 131.851562 285.546875 131.851562 C 287.933594 131.851562 287.933594 135.28125 287.933594 136.050781 C 287.933594 136.746094 287.933594 138.132812 287.28125 139.136719 C 286.703125 140.058594 285.777344 140.484375 284.890625 140.484375 C 283.617188 140.484375 282.117188 139.636719 281.574219 138.019531 C 281.613281 138.019531 281.730469 138.054688 281.882812 138.054688 C 282.347656 138.054688 283.003906 137.785156 283.003906 136.976562 C 283.003906 136.285156 282.5 135.898438 281.882812 135.898438 C 281.421875 135.898438 280.804688 136.167969 280.804688 137.054688 C 280.804688 139.058594 282.5 141.101562 284.96875 141.101562 C 287.628906 141.101562 289.902344 138.902344 289.902344 136.167969 C 289.902344 133.507812 288.011719 131.3125 285.585938 131.3125 C 284.542969 131.3125 283.464844 131.660156 282.65625 132.46875 L 282.65625 128.113281 C 283.347656 128.304688 284.042969 128.421875 284.699219 128.421875 C 287.433594 128.421875 289.015625 126.457031 289.015625 126.148438 C 289.015625 125.953125 288.898438 125.878906 288.785156 125.878906 C 288.746094 125.878906 288.707031 125.878906 288.476562 125.992188 C 287.433594 126.378906 286.433594 126.570312 285.507812 126.570312 C 284.542969 126.570312 283.542969 126.378906 282.539062 125.992188 C 282.308594 125.878906 282.269531 125.878906 282.269531 125.878906 C 282 125.878906 282 126.070312 282 126.457031 Z M 282 132.96875 "/>
<path fill-rule="nonzero" fill="rgb(0%, 0%, 0%)" fill-opacity="1" d="M 306.625 124.875 C 306.738281 124.722656 306.816406 124.644531 306.816406 124.488281 C 306.816406 124.179688 306.546875 123.988281 306.355469 123.988281 C 306.085938 123.988281 305.96875 124.144531 305.851562 124.335938 C 304.425781 126.183594 302.578125 126.457031 301.574219 126.457031 C 299.417969 126.457031 297.992188 125.375 297.21875 124.644531 C 296.640625 124.105469 296.0625 123.988281 295.640625 123.988281 C 293.945312 123.988281 292.324219 125.839844 292.324219 128.460938 C 292.324219 131.15625 293.984375 132.929688 295.640625 132.929688 C 297.296875 132.929688 298.609375 130.964844 298.609375 128.460938 C 298.609375 128.152344 298.609375 127.148438 298.183594 126.070312 C 299.53125 126.839844 300.804688 126.996094 301.574219 126.996094 C 302.539062 126.996094 303.539062 126.761719 304.464844 126.261719 L 304.503906 126.300781 L 294.40625 140.910156 C 294.40625 140.945312 294.214844 141.179688 294.214844 141.371094 C 294.214844 141.640625 294.445312 141.832031 294.714844 141.832031 C 294.945312 141.832031 295.0625 141.679688 295.175781 141.488281 Z M 295.71875 132.351562 C 295.214844 132.351562 293.789062 132.082031 293.789062 128.460938 C 293.789062 124.835938 295.214844 124.566406 295.71875 124.566406 C 296.875 124.566406 297.992188 126.183594 297.992188 128.460938 C 297.992188 130.808594 296.835938 132.351562 295.71875 132.351562 Z M 308.707031 137.402344 C 308.707031 134.820312 307.355469 132.929688 305.738281 132.929688 C 304.042969 132.929688 302.382812 134.742188 302.382812 137.363281 C 302.382812 140.058594 304.082031 141.832031 305.738281 141.832031 C 307.394531 141.832031 308.707031 139.90625 308.707031 137.402344 Z M 305.777344 141.292969 C 305.3125 141.292969 303.847656 140.984375 303.847656 137.402344 C 303.847656 133.738281 305.3125 133.46875 305.777344 133.46875 C 306.972656 133.46875 308.089844 135.128906 308.089844 137.363281 C 308.089844 139.714844 306.933594 141.292969 305.777344 141.292969 Z M 305.777344 141.292969 "/>
<path fill-rule="nonzero" fill="rgb(0%, 0%, 0%)" fill-opacity="1" d="M 368.523438 132.96875 C 368.523438 133.355469 368.523438 133.625 368.832031 133.625 C 368.984375 133.625 369.0625 133.507812 369.179688 133.316406 C 369.871094 132.390625 370.914062 131.851562 372.070312 131.851562 C 374.460938 131.851562 374.460938 135.28125 374.460938 136.050781 C 374.460938 136.746094 374.460938 138.132812 373.804688 139.136719 C 373.226562 140.058594 372.300781 140.484375 371.414062 140.484375 C 370.140625 140.484375 368.640625 139.636719 368.101562 138.019531 C 368.136719 138.019531 368.253906 138.054688 368.40625 138.054688 C 368.871094 138.054688 369.527344 137.785156 369.527344 136.976562 C 369.527344 136.285156 369.023438 135.898438 368.40625 135.898438 C 367.945312 135.898438 367.328125 136.167969 367.328125 137.054688 C 367.328125 139.058594 369.023438 141.101562 371.492188 141.101562 C 374.152344 141.101562 376.425781 138.902344 376.425781 136.167969 C 376.425781 133.507812 374.535156 131.3125 372.109375 131.3125 C 371.066406 131.3125 369.988281 131.660156 369.179688 132.46875 L 369.179688 128.113281 C 369.871094 128.304688 370.566406 128.421875 371.222656 128.421875 C 373.957031 128.421875 375.539062 126.457031 375.539062 126.148438 C 375.539062 125.953125 375.421875 125.878906 375.308594 125.878906 C 375.269531 125.878906 375.230469 125.878906 375 125.992188 C 373.957031 126.378906 372.957031 126.570312 372.03125 126.570312 C 371.066406 126.570312 370.066406 126.378906 369.0625 125.992188 C 368.832031 125.878906 368.792969 125.878906 368.792969 125.878906 C 368.523438 125.878906 368.523438 126.070312 368.523438 126.457031 Z M 368.523438 132.96875 "/>
<path fill-rule="nonzero" fill="rgb(0%, 0%, 0%)" fill-opacity="1" d="M 388.058594 133.507812 C 388.058594 132.042969 387.984375 130.117188 387.210938 128.460938 C 386.210938 126.378906 384.554688 125.878906 383.28125 125.878906 C 381.933594 125.878906 380.238281 126.378906 379.273438 128.535156 C 378.578125 130.039062 378.464844 131.851562 378.464844 133.507812 C 378.464844 134.972656 378.503906 137.09375 379.464844 138.867188 C 380.507812 140.714844 382.242188 141.101562 383.242188 141.101562 C 384.667969 141.101562 386.324219 140.484375 387.25 138.441406 C 387.90625 136.9375 388.058594 135.28125 388.058594 133.507812 Z M 383.28125 140.523438 C 382.585938 140.523438 381.007812 140.214844 380.582031 137.710938 C 380.351562 136.4375 380.351562 134.511719 380.351562 133.238281 C 380.351562 131.734375 380.351562 130 380.621094 128.769531 C 381.085938 126.800781 382.472656 126.417969 383.242188 126.417969 C 384.089844 126.417969 385.476562 126.878906 385.902344 128.921875 C 386.132812 130.117188 386.132812 131.851562 386.132812 133.238281 C 386.132812 134.625 386.132812 136.476562 385.902344 137.785156 C 385.441406 140.332031 383.820312 140.523438 383.28125 140.523438 Z M 383.28125 140.523438 "/>
<path fill-rule="nonzero" fill="rgb(0%, 0%, 0%)" fill-opacity="1" d="M 404.515625 124.875 C 404.628906 124.722656 404.707031 124.644531 404.707031 124.488281 C 404.707031 124.179688 404.4375 123.988281 404.246094 123.988281 C 403.972656 123.988281 403.859375 124.144531 403.742188 124.335938 C 402.316406 126.183594 400.46875 126.457031 399.464844 126.457031 C 397.308594 126.457031 395.878906 125.375 395.109375 124.644531 C 394.53125 124.105469 393.953125 123.988281 393.53125 123.988281 C 391.832031 123.988281 390.214844 125.839844 390.214844 128.460938 C 390.214844 131.15625 391.871094 132.929688 393.53125 132.929688 C 395.1875 132.929688 396.496094 130.964844 396.496094 128.460938 C 396.496094 128.152344 396.496094 127.148438 396.074219 126.070312 C 397.421875 126.839844 398.695312 126.996094 399.464844 126.996094 C 400.429688 126.996094 401.429688 126.761719 402.355469 126.261719 L 402.394531 126.300781 L 392.296875 140.910156 C 392.296875 140.945312 392.105469 141.179688 392.105469 141.371094 C 392.105469 141.640625 392.335938 141.832031 392.605469 141.832031 C 392.835938 141.832031 392.953125 141.679688 393.066406 141.488281 Z M 393.605469 132.351562 C 393.105469 132.351562 391.679688 132.082031 391.679688 128.460938 C 391.679688 124.835938 393.105469 124.566406 393.605469 124.566406 C 394.761719 124.566406 395.878906 126.183594 395.878906 128.460938 C 395.878906 130.808594 394.722656 132.351562 393.605469 132.351562 Z M 406.59375 137.402344 C 406.59375 134.820312 405.246094 132.929688 403.628906 132.929688 C 401.933594 132.929688 400.273438 134.742188 400.273438 137.363281 C 400.273438 140.058594 401.96875 141.832031 403.628906 141.832031 C 405.285156 141.832031 406.59375 139.90625 406.59375 137.402344 Z M 403.667969 141.292969 C 403.203125 141.292969 401.738281 140.984375 401.738281 137.402344 C 401.738281 133.738281 403.203125 133.46875 403.667969 133.46875 C 404.859375 133.46875 405.980469 135.128906 405.980469 137.363281 C 405.980469 139.714844 404.824219 141.292969 403.667969 141.292969 Z M 403.667969 141.292969 "/>
<path fill-rule="nonzero" fill="rgb(0%, 0%, 0%)" fill-opacity="1" d="M 474.929688 127.109375 C 475.125 126.878906 475.125 126.800781 475.125 126.339844 L 469.652344 126.339844 C 466.835938 126.339844 466.761719 126.070312 466.722656 125.644531 L 466.105469 125.644531 L 465.371094 130.269531 L 465.988281 130.269531 C 466.066406 129.769531 466.257812 128.535156 466.527344 128.265625 C 466.683594 128.113281 468.457031 128.113281 468.765625 128.113281 L 473.390625 128.113281 L 471.269531 131.003906 C 468.378906 134.972656 468.109375 138.597656 468.109375 139.828125 C 468.109375 140.097656 468.109375 141.101562 469.148438 141.101562 C 470.191406 141.101562 470.191406 140.097656 470.191406 139.828125 L 470.191406 138.75 C 470.191406 135.472656 470.652344 132.929688 471.847656 131.3125 Z M 474.929688 127.109375 "/>
<path fill-rule="nonzero" fill="rgb(0%, 0%, 0%)" fill-opacity="1" d="M 477.78125 132.96875 C 477.78125 133.355469 477.78125 133.625 478.085938 133.625 C 478.242188 133.625 478.320312 133.507812 478.433594 133.316406 C 479.128906 132.390625 480.167969 131.851562 481.324219 131.851562 C 483.714844 131.851562 483.714844 135.28125 483.714844 136.050781 C 483.714844 136.746094 483.714844 138.132812 483.058594 139.136719 C 482.480469 140.058594 481.554688 140.484375 480.671875 140.484375 C 479.398438 140.484375 477.894531 139.636719 477.355469 138.019531 C 477.394531 138.019531 477.507812 138.054688 477.664062 138.054688 C 478.125 138.054688 478.78125 137.785156 478.78125 136.976562 C 478.78125 136.285156 478.28125 135.898438 477.664062 135.898438 C 477.203125 135.898438 476.585938 136.167969 476.585938 137.054688 C 476.585938 139.058594 478.28125 141.101562 480.746094 141.101562 C 483.40625 141.101562 485.679688 138.902344 485.679688 136.167969 C 485.679688 133.507812 483.792969 131.3125 481.363281 131.3125 C 480.324219 131.3125 479.242188 131.660156 478.433594 132.46875 L 478.433594 128.113281 C 479.128906 128.304688 479.820312 128.421875 480.476562 128.421875 C 483.214844 128.421875 484.792969 126.457031 484.792969 126.148438 C 484.792969 125.953125 484.679688 125.878906 484.5625 125.878906 C 484.523438 125.878906 484.484375 125.878906 484.253906 125.992188 C 483.214844 126.378906 482.210938 126.570312 481.285156 126.570312 C 480.324219 126.570312 479.320312 126.378906 478.320312 125.992188 C 478.085938 125.878906 478.050781 125.878906 478.050781 125.878906 C 477.78125 125.878906 477.78125 126.070312 477.78125 126.457031 Z M 477.78125 132.96875 "/>
<path fill-rule="nonzero" fill="rgb(0%, 0%, 0%)" fill-opacity="1" d="M 502.402344 124.875 C 502.519531 124.722656 502.597656 124.644531 502.597656 124.488281 C 502.597656 124.179688 502.328125 123.988281 502.132812 123.988281 C 501.863281 123.988281 501.75 124.144531 501.632812 124.335938 C 500.207031 126.183594 498.355469 126.457031 497.355469 126.457031 C 495.195312 126.457031 493.769531 125.375 493 124.644531 C 492.421875 124.105469 491.84375 123.988281 491.417969 123.988281 C 489.722656 123.988281 488.105469 125.839844 488.105469 128.460938 C 488.105469 131.15625 489.761719 132.929688 491.417969 132.929688 C 493.078125 132.929688 494.386719 130.964844 494.386719 128.460938 C 494.386719 128.152344 494.386719 127.148438 493.964844 126.070312 C 495.3125 126.839844 496.582031 126.996094 497.355469 126.996094 C 498.316406 126.996094 499.320312 126.761719 500.246094 126.261719 L 500.285156 126.300781 L 490.1875 140.910156 C 490.1875 140.945312 489.992188 141.179688 489.992188 141.371094 C 489.992188 141.640625 490.222656 141.832031 490.496094 141.832031 C 490.726562 141.832031 490.839844 141.679688 490.957031 141.488281 Z M 491.496094 132.351562 C 490.996094 132.351562 489.570312 132.082031 489.570312 128.460938 C 489.570312 124.835938 490.996094 124.566406 491.496094 124.566406 C 492.652344 124.566406 493.769531 126.183594 493.769531 128.460938 C 493.769531 130.808594 492.613281 132.351562 491.496094 132.351562 Z M 504.484375 137.402344 C 504.484375 134.820312 503.136719 132.929688 501.515625 132.929688 C 499.820312 132.929688 498.164062 134.742188 498.164062 137.363281 C 498.164062 140.058594 499.859375 141.832031 501.515625 141.832031 C 503.175781 141.832031 504.484375 139.90625 504.484375 137.402344 Z M 501.554688 141.292969 C 501.09375 141.292969 499.628906 140.984375 499.628906 137.402344 C 499.628906 133.738281 501.09375 133.46875 501.554688 133.46875 C 502.75 133.46875 503.867188 135.128906 503.867188 137.363281 C 503.867188 139.714844 502.710938 141.292969 501.554688 141.292969 Z M 501.554688 141.292969 "/>
<path fill-rule="nonzero" fill="rgb(0%, 0%, 0%)" fill-opacity="1" d="M 563.011719 126.457031 C 563.011719 125.914062 563.011719 125.878906 562.472656 125.878906 C 561.085938 127.265625 559.042969 127.265625 558.351562 127.265625 L 558.351562 127.957031 C 558.773438 127.957031 560.121094 127.957031 561.316406 127.378906 L 561.316406 138.828125 C 561.316406 139.636719 561.277344 139.90625 559.199219 139.90625 L 558.503906 139.90625 L 558.503906 140.601562 C 559.273438 140.523438 561.277344 140.523438 562.164062 140.523438 C 563.089844 140.523438 565.054688 140.523438 565.867188 140.601562 L 565.867188 139.90625 L 565.171875 139.90625 C 563.089844 139.90625 563.011719 139.636719 563.011719 138.828125 Z M 563.011719 126.457031 "/>
<path fill-rule="nonzero" fill="rgb(0%, 0%, 0%)" fill-opacity="1" d="M 578.15625 133.507812 C 578.15625 132.042969 578.078125 130.117188 577.308594 128.460938 C 576.308594 126.378906 574.648438 125.878906 573.378906 125.878906 C 572.027344 125.878906 570.332031 126.378906 569.371094 128.535156 C 568.675781 130.039062 568.558594 131.851562 568.558594 133.507812 C 568.558594 134.972656 568.597656 137.09375 569.5625 138.867188 C 570.601562 140.714844 572.335938 141.101562 573.339844 141.101562 C 574.765625 141.101562 576.421875 140.484375 577.347656 138.441406 C 578.003906 136.9375 578.15625 135.28125 578.15625 133.507812 Z M 573.378906 140.523438 C 572.683594 140.523438 571.105469 140.214844 570.679688 137.710938 C 570.449219 136.4375 570.449219 134.511719 570.449219 133.238281 C 570.449219 131.734375 570.449219 130 570.71875 128.769531 C 571.179688 126.800781 572.566406 126.417969 573.339844 126.417969 C 574.1875 126.417969 575.574219 126.878906 576 128.921875 C 576.230469 130.117188 576.230469 131.851562 576.230469 133.238281 C 576.230469 134.625 576.230469 136.476562 576 137.785156 C 575.535156 140.332031 573.917969 140.523438 573.378906 140.523438 Z M 573.378906 140.523438 "/>
<path fill-rule="nonzero" fill="rgb(0%, 0%, 0%)" fill-opacity="1" d="M 589.523438 133.507812 C 589.523438 132.042969 589.445312 130.117188 588.675781 128.460938 C 587.671875 126.378906 586.015625 125.878906 584.742188 125.878906 C 583.394531 125.878906 581.699219 126.378906 580.734375 128.535156 C 580.042969 130.039062 579.925781 131.851562 579.925781 133.507812 C 579.925781 134.972656 579.964844 137.09375 580.929688 138.867188 C 581.96875 140.714844 583.703125 141.101562 584.703125 141.101562 C 586.132812 141.101562 587.789062 140.484375 588.714844 138.441406 C 589.367188 136.9375 589.523438 135.28125 589.523438 133.507812 Z M 584.742188 140.523438 C 584.050781 140.523438 582.46875 140.214844 582.046875 137.710938 C 581.8125 136.4375 581.8125 134.511719 581.8125 133.238281 C 581.8125 131.734375 581.8125 130 582.085938 128.769531 C 582.546875 126.800781 583.933594 126.417969 584.703125 126.417969 C 585.554688 126.417969 586.941406 126.878906 587.363281 128.921875 C 587.59375 130.117188 587.59375 131.851562 587.59375 133.238281 C 587.59375 134.625 587.59375 136.476562 587.363281 137.785156 C 586.902344 140.332031 585.28125 140.523438 584.742188 140.523438 Z M 584.742188 140.523438 "/>
<path fill-rule="nonzero" fill="rgb(0%, 0%, 0%)" fill-opacity="1" d="M 605.976562 124.875 C 606.089844 124.722656 606.167969 124.644531 606.167969 124.488281 C 606.167969 124.179688 605.898438 123.988281 605.707031 123.988281 C 605.4375 123.988281 605.320312 124.144531 605.207031 124.335938 C 603.777344 126.183594 601.929688 126.457031 600.925781 126.457031 C 598.769531 126.457031 597.34375 125.375 596.570312 124.644531 C 595.992188 124.105469 595.414062 123.988281 594.992188 123.988281 C 593.296875 123.988281 591.675781 125.839844 591.675781 128.460938 C 591.675781 131.15625 593.335938 132.929688 594.992188 132.929688 C 596.648438 132.929688 597.960938 130.964844 597.960938 128.460938 C 597.960938 128.152344 597.960938 127.148438 597.535156 126.070312 C 598.882812 126.839844 600.15625 126.996094 600.925781 126.996094 C 601.890625 126.996094 602.894531 126.761719 603.816406 126.261719 L 603.855469 126.300781 L 593.757812 140.910156 C 593.757812 140.945312 593.566406 141.179688 593.566406 141.371094 C 593.566406 141.640625 593.796875 141.832031 594.066406 141.832031 C 594.296875 141.832031 594.414062 141.679688 594.527344 141.488281 Z M 595.070312 132.351562 C 594.566406 132.351562 593.140625 132.082031 593.140625 128.460938 C 593.140625 124.835938 594.566406 124.566406 595.070312 124.566406 C 596.226562 124.566406 597.34375 126.183594 597.34375 128.460938 C 597.34375 130.808594 596.1875 132.351562 595.070312 132.351562 Z M 608.058594 137.402344 C 608.058594 134.820312 606.707031 132.929688 605.089844 132.929688 C 603.394531 132.929688 601.738281 134.742188 601.738281 137.363281 C 601.738281 140.058594 603.433594 141.832031 605.089844 141.832031 C 606.746094 141.832031 608.058594 139.90625 608.058594 137.402344 Z M 605.128906 141.292969 C 604.664062 141.292969 603.199219 140.984375 603.199219 137.402344 C 603.199219 133.738281 604.664062 133.46875 605.128906 133.46875 C 606.324219 133.46875 607.441406 135.128906 607.441406 137.363281 C 607.441406 139.714844 606.285156 141.292969 605.128906 141.292969 Z M 605.128906 141.292969 "/>
<g clip-path="url(#clip-0)">
<path fill="none" stroke-width="0.3985" stroke-linecap="butt" stroke-linejoin="miter" stroke="rgb(0%, 0%, 0%)" stroke-opacity="1" stroke-dasharray="2.98883 1.99255" stroke-miterlimit="10" d="M 134.700385 17.061277 L 120.419346 17.061277 C 116.868881 17.061277 113.985119 14.179098 113.985119 10.628634 L 113.985119 -36.363554 C 113.985119 -39.918769 116.868881 -42.797781 120.419346 -42.797781 L 134.700385 -42.797781 C 138.2556 -42.797781 141.134612 -39.918769 141.134612 -36.363554 L 141.134612 10.628634 C 141.134612 14.179098 138.2556 17.061277 134.700385 17.061277 Z M 134.700385 17.061277 " transform="matrix(2.466667, 0, 0, -2.466667, 170.293738, 47.490734)"/>
</g>
</svg>
