<svg version="1.1" xmlns="http://www.w3.org/2000/svg" xmlns:xlink="http://www.w3.org/1999/xlink" width="1200" height="800"><defs/><g transform="scale(2,2)"><g id="background-be9499f0"><rect fill="white" stroke="none" x="0" y="0" width="600" height="400" class="dcg-svg-background"/></g><g id="background-images-be9499f0"/><g id="graphpaper-be9499f0"><g id="axis-be9499f0"><g id="yaxis-be9499f0"><title>Y axis</title><g><path fill="none" stroke="rgb(0,0,0)" class="dcg-svg-axis-line" paint-order="fill stroke markers" d=" M 314 0 L 314 400" stroke-opacity="0.9" stroke-miterlimit="10" stroke-width="1.5" stroke-dasharray=""/></g></g><g id="xaxis-be9499f0"><title>X axis</title><g><path fill="none" stroke="rgb(0,0,0)" class="dcg-svg-axis-line" paint-order="fill stroke markers" d=" M 0 241 L 600 241" stroke-opacity="0.9" stroke-miterlimit="10" stroke-width="1.5" stroke-dasharray=""/></g></g><g><g class="dcg-svg-axis-value"><text fill="none" stroke="#ffffff" font-family="Arial" font-size="14px" font-style="normal" font-weight="normal" text-decoration="normal" x="304.9819480927934" y="256.9290066746626" text-anchor="middle" stroke-miterlimit="2" stroke-width="3" stroke-dasharray="">0</text><text fill="#000000" stroke="none" font-family="Arial" font-size="14px" font-style="normal" font-weight="normal" text-decoration="normal" x="304.9819480927934" y="256.9290066746626" text-anchor="middle">0</text></g><g><path fill="none" stroke="rgb(0,0,0)" class="dcg-svg-tickmark" paint-order="fill stroke markers" d=" M 74 238 L 74 244 M 194 238 L 194 244 M 434 238 L 434 244 M 553 238 L 553 244 M 311 361 L 317 361 M 311 121 L 317 121 M 311 2 L 317 2" stroke-opacity="0.9" stroke-miterlimit="2" stroke-width="1.5" stroke-dasharray=""/></g><g class="dcg-svg-axis-value"><text fill="none" stroke="#ffffff" font-family="Arial" font-size="14px" font-style="normal" font-weight="normal" text-decoration="normal" x="72.0737117459999" y="256.9290066746626" text-anchor="middle" stroke-miterlimit="2" stroke-width="3" stroke-dasharray="">-10</text><text fill="#000000" stroke="none" font-family="Arial" font-size="14px" font-style="normal" font-weight="normal" text-decoration="normal" x="72.0737117459999" y="256.9290066746626" text-anchor="middle">-10</text></g><g class="dcg-svg-axis-value"><text fill="none" stroke="#ffffff" font-family="Arial" font-size="14px" font-style="normal" font-weight="normal" text-decoration="normal" x="191.80883577877165" y="256.9290066746626" text-anchor="middle" stroke-miterlimit="2" stroke-width="3" stroke-dasharray="">-5</text><text fill="#000000" stroke="none" font-family="Arial" font-size="14px" font-style="normal" font-weight="normal" text-decoration="normal" x="191.80883577877165" y="256.9290066746626" text-anchor="middle">-5</text></g><g class="dcg-svg-axis-value"><text fill="none" stroke="#ffffff" font-family="Arial" font-size="14px" font-style="normal" font-weight="normal" text-decoration="normal" x="433.61013853181515" y="256.9290066746626" text-anchor="middle" stroke-miterlimit="2" stroke-width="3" stroke-dasharray="">5</text><text fill="#000000" stroke="none" font-family="Arial" font-size="14px" font-style="normal" font-weight="normal" text-decoration="normal" x="433.61013853181515" y="256.9290066746626" text-anchor="middle">5</text></g><g class="dcg-svg-axis-value"><text fill="none" stroke="#ffffff" font-family="Arial" font-size="14px" font-style="normal" font-weight="normal" text-decoration="normal" x="553.3452625645868" y="256.9290066746626" text-anchor="middle" stroke-miterlimit="2" stroke-width="3" stroke-dasharray="">10</text><text fill="#000000" stroke="none" font-family="Arial" font-size="14px" font-style="normal" font-weight="normal" text-decoration="normal" x="553.3452625645868" y="256.9290066746626" text-anchor="middle">10</text></g><g class="dcg-svg-axis-value"><text fill="none" stroke="#ffffff" font-family="Arial" font-size="14px" font-style="normal" font-weight="normal" text-decoration="normal" x="302.6508934052934" y="364.66413070743437" text-anchor="middle" stroke-miterlimit="2" stroke-width="3" stroke-dasharray="">-5</text><text fill="#000000" stroke="none" font-family="Arial" font-size="14px" font-style="normal" font-weight="normal" text-decoration="normal" x="302.6508934052934" y="364.66413070743437" text-anchor="middle">-5</text></g><g class="dcg-svg-axis-value"><text fill="none" stroke="#ffffff" font-family="Arial" font-size="14px" font-style="normal" font-weight="normal" text-decoration="normal" x="304.9819480927934" y="125.19388264189088" text-anchor="middle" stroke-miterlimit="2" stroke-width="3" stroke-dasharray="">5</text><text fill="#000000" stroke="none" font-family="Arial" font-size="14px" font-style="normal" font-weight="normal" text-decoration="normal" x="304.9819480927934" y="125.19388264189088" text-anchor="middle">5</text></g><g class="dcg-svg-axis-value dcg-svg-offcenter-axis-value"><text fill="none" stroke="#ffffff" font-family="Arial" font-size="14px" font-style="normal" font-weight="normal" text-decoration="normal" x="301.0888816865434" y="13.808" text-anchor="middle" stroke-miterlimit="2" stroke-width="3" stroke-dasharray="">10</text><text fill="#000000" stroke="none" font-family="Arial" font-size="14px" font-style="normal" font-weight="normal" text-decoration="normal" x="301.0888816865434" y="13.808" text-anchor="middle">10</text></g></g></g></g><g id="expressions-be9499f0"><g id="sketch-be9499f0"><title>Expression 4</title><path fill="#2d70b3" stroke="none" paint-order="stroke fill markers" d="" fill-opacity="0.4"/><g><path fill="none" stroke="#2d70b3" class="dcg-svg-curve" paint-order="fill stroke markers" d=" M 313.87501682289155 241.12100531006666 L 313.87501682289155 241.12100531006666 L 313.87501041413964 241.1210066312477 L 313.87502050047715 241.12100888047033 L 313.87500540039787 241.12100177689794 L 313.87502793899404 241.1210165856449 L 313.8749952567487 241.12098775294595 L 313.87504096952523 241.12104133595219 L 313.87498005374766 241.12094518314282 L 313.87505558434225 241.12111291064843 L 313.87497299483573 241.12082733761514 L 313.8749816778815 241.12129291264924 L 313.8752129811782 241.12060175491186 L 313.874440260563 241.12137754124547 L 313.8760502140077 241.1209736727973 L 313.8734697787801 241.12051230178807 L 313.8773731524677 241.12214991215367 L 313.8715016130529 241.11863969172867 L 313.88009495556975 241.12559476458406 L 313.86793263063566 241.11250753145433 L 313.8844064728819 241.13621956087644 L 313.86345772312154 241.09452561708403 L 313.88746492109834 241.16600940257166 L 313.86535839132006 241.04616729269074 L 313.78683301631656 241.17598773767358 L 313.97314995477586 241.21888247427137 L 313.9724048364774 240.96388130443756 L 313.70200889672617 240.96752599262987 L 313.62572550846585 241.24899914896142 L 313.8433420707633 241.44832711636747 L 314.11680355650617 241.40601638551504 L 314.3097610666398 241.06295652752652 L 314.17193695234846 240.72058538447706 L 313.7836620214918 240.56185063627905 L 313.44448594222416 240.6697946325301 L 313.1662238577905 241.1147327037007 L 313.2271817838089 241.5558452176618 L 313.55672880271896 241.91870651761832 L 314.0816519531858 242.0435393214094 L 314.6361303533807 241.83069110318183 L 315.00757888740344 241.2926915107286 L 315.0106525189588 240.57305283282335 L 314.7626522057897 240.11148413919207 L 314.0539755897005 239.65216164702116 L 313.4409431284988 239.60439792186412 L 312.81915501539135 239.81200105910705 L 312.29478647982825 240.2739931043919 L 311.9716888115786 240.94533449238483 L 311.93313890079907 241.73868476758156 L 312.2246494258311 242.53370828642227 L 312.84095287308446 243.19334827491392 L 313.71997694756806 243.5852105750931 L 314.74580640010487 243.60506226222677 L 315.7613469428558 243.19867616577204 L 316.58982928796763 242.37802329394302 L 317.06264712109845 241.22824523107224 L 317.04958684540014 239.90294348653552 L 316.4865556044184 238.60700387867374 L 315.3956778704928 237.56821972364125 L 314.68504672288634 237.2138810099787 L 313.89324820932956 237.0010844014968 L 313.0483479944367 236.94816915653462 L 312.1825086557585 237.0679363314635 L 311.3309025351748 237.36674227931798 L 310.53042566396243 237.84380433483628 L 309.8182539128817 238.49076202421534 L 309.2302918997657 239.29152921381083 L 308.79957305475796 240.22246266900467 L 308.55467516529677 241.25286081889223 L 308.51821932058965 242.3457934927354 L 308.7055211431159 243.45924947092908 L 309.12346131799336 244.54757440530815 L 309.76963760106185 245.56315759014254 L 310.6318527120155 246.45831281446692 L 311.68798193349556 247.18728671233157 L 312.906251101865 247.70831824385496 L 314.24594037649933 247.98566573390778 L 315.6585122147524 247.99151374143693 L 317.08914396558635 247.70767130797685 L 318.47862711705324 247.12697609602256 L 319.76557724329365 246.25432569525046 L 320.8888818806268 245.10726791284665 L 321.7902987072392 243.71609597772954 L 322.41710426367905 242.1234119176607 L 322.72468472394866 240.383141393993 L 322.6789555032581 238.55900533385008 L 322.25849623254976 236.72247698678396 L 321.456292147788 234.9502766506802 L 320.28098235851684 233.32147928454663 L 318.7575297015021 231.91433154127964 L 316.9272456690047 230.80289340207491 L 314.84712673453345 230.05363461220324 L 312.58848458541127 229.72212663139817 L 310.2348814271712 229.84997607949498 L 307.87941160300204 230.46214511009362 L 305.6214010963058 231.5647974206873 L 303.5626257918557 233.14379558258193 L 301.80317635644974 235.16395618152978 L 300.43712097052634 237.56914430301848 L 299.5481356723131 240.28325884728835 L 299.2052846634465 243.21212595056056 L 299.459138645417 246.2462805900067 L 300.33841741428245 249.26457763361537 L 301.84733311481136 252.13853469425788 L 303.9637926317301 254.73727179672866 L 306.63859179663075 256.93287874684495 L 309.79570098308676 258.6060118569 L 313.33370216444234 259.6514988890589 L 317.12839286375913 259.983716115753 L 321.0365241782886 259.54149541300666 L 324.9005900105234 258.29232314500746 L 328.55453477837744 256.2356067532676 L 331.83019932601394 253.40480951537126 L 334.5642816745342 249.8682885371223 L 336.6055527524394 245.72871489113984 L 337.82203930559774 241.12100667466262 L 338.10786855074656 236.20876396936532 L 337.3894632309492 231.17925720844653 L 335.63078258053906 226.2370849363663 L 332.83732486471933 221.59668079140704 L 329.05864065368513 217.4739100131514 L 324.3891522901887 214.0770500999084 L 318.9671330043966 211.59749571516534 L 316.02844130595304 210.75463094493253 L 312.9717671450997 210.2005620624734 L 309.8251030413467 209.9504494847331 L 306.61828882246095 210.01678152383744 L 303.3827609734949 210.40915745666035 L 300.1512772093495 211.13409362375285 L 296.9576183332147 212.19485532557457 L 293.8362697468167 213.59131710534902 L 290.82208526721854 215.31985379647293 L 287.9499361754898 217.37326446938542 L 282.76913313273184 222.4078137975181 L 280.5270087719218 225.35648299196603 L 278.559227450979 228.5651908508354 L 276.89520054231633 232.00898104764522 L 275.562132821345 235.6596378362929 L 274.5846674313034 239.4858738721948 L 273.98454597739226 243.45355612532217 L 273.78028778160893 247.52596877136403 L 273.9868922612428 251.66411152597934 L 274.6155682820768 255.8270314681173 L 275.67349418167754 259.97218598612545 L 277.16361195895604 264.0558340793384 L 279.08445888409733 268.03345286259173 L 281.43003949911196 271.86017575615136 L 284.1897406552663 275.49124850336295 L 287.348291871555 278.88249884724377 L 290.88577290072703 281.990815419447 L 294.7776699591544 284.7746311545142 L 298.99498161744924 287.19440634279374 L 303.5043748640392 289.2131062802681 L 308.2683913481189 290.7966683658474 L 313.2457032860833 291.9144534391227 L 318.3914179816373 292.5396761463594 L 323.6574293694175 292.64980917139707 L 328.9928144506111 292.2269562723712 L 334.3442719522742 291.2581892254821 L 339.6566000156224 289.7358439935807 L 344.87320920827204 287.6577717096703 L 349.9366666671019 285.0275403925398 L 354.789266717891 281.8545836920033 L 359.3736228908535 278.1542933924037 L 363.63327586318036 273.9480528823042 L 367.5133115160145 269.26320932221637 L 370.9609829989552 264.13298280679635 L 373.92633045487776 258.59631141861223 L 376.3627918758165 252.69763170228958 L 378.22779844070317 246.48659474497887 L 379.4833476311226 240.01771872566087 L 380.0965474346517 233.34997948540928 L 380.0401250288575 226.54634136657785 L 379.2928934940491 219.67323126395843 L 377.84017033012407 212.79995951798696 L 375.67414185230064 205.99809195164738 L 372.7941679114161 199.34077800134114 L 369.20702182525355 192.90204051014956 L 364.92706091573035 186.75603333220113 L 359.97632361962565 180.97627343197271 L 354.38454977399107 175.6348546452777 L 348.18912136684764 170.80165069270114 L 341.43492178385793 166.54351539498325 L 334.1741123663243 162.9234883274874 L 326.46582591837586 160.0000143621045 L 318.3757776542348 157.82618567505358 L 309.9757949521096 156.44901484405443 L 301.34326817115846 155.9087476150273 L 292.56052568331484 156.23822378440565 L 283.71413716339566 157.4622944167648 L 274.89415005943613 159.59730329813863 L 266.19326502104667 162.6506401134127 L 257.70595688708374 166.6203723328258 L 249.52754861547714 171.49496220015408 L 241.75324626813892 177.25307453686116 L 234.47714383322204 183.86348031665105 L 227.79120726665678 191.285060128711 L 221.78424765635964 199.46691074171375 L 216.54089384780747 208.3485570115116 L 212.1405752114647 217.86027035145312 L 208.65652547425412 227.92349391425145 L 206.1548186730783 238.45137352799844 L 204.69344831349244 249.3493922965775 L 204.32146072713755 260.51610562730866 L 205.07815341465073 271.8439722976628 L 206.99234883483928 283.22027603013254 L 210.08175365544463 294.52813092204127 L 214.35241291658787 305.6475629875465 L 219.79826787699164 316.45665902476566 L 226.40082551861465 326.83277303416986 L 234.1289467819815 336.65377949728054 L 242.93875959813175 345.79936198911605 L 252.7737016808603 354.15232485509256 L 263.5646968531323 361.5999150439363 L 269.2937803340754 364.9504996076362 L 275.2304674137936 368.0351406626704 L 281.36276565258567 370.8415779625566 L 287.67798371560605 373.3580724170305 L 294.1627528958981 375.5734448322378 L 300.8030507349421 377.4771138289426 L 307.58422671351116 379.05913282751203 L 314.4910299798398 380.31022598905383 L 321.5076390763122 381.2218230029964 L 328.6176936200881 381.78609261261215 L 335.80432788731616 381.995974771498 L 343.0502062448526 381.8452113258347 L 350.33756036772473 381.3283751193661 L 357.64822817497145 380.44089742044633 L 364.9636944109568 379.17909357322185 L 372.2651327938377 377.54018677801855 L 379.53344964754353 375.522329909312 L 386.74932892844606 373.1246252832514 L 393.8932785528662 370.3471422905819 L 400.9456779266809 367.1909328149768 L 407.8868265735999 363.6580443612161 L 414.6969937541742 359.7515308223512 L 421.3564689632956 355.4754608199519 L 427.84561318986823 350.834923556743 L 434.1449108184848 345.8360321263814 L 440.2350220493465 340.4859242308117 L 446.0968357093268 334.79276026153207 L 451.71152232402176 328.76571870721205 L 457.06058731785254 322.4149888564079 L 462.1259242068152 315.75176077060496 L 466.8898676463027 308.7882125094707 L 471.33524619458416 301.53749459701305 L 475.44543465101003 294.0137117242818 L 479.2044058268398 286.2319016913238 L 482.59678160575857 278.208011598283 L 485.6078831506861 269.9588713027982 L 488.2237801133688 261.5021641681964 L 490.43133870351005 252.85639513437576 L 492.2182684748325 244.04085615070196 L 493.5731676864765 235.07558901769573 L 494.4855670995436 225.98134569173814 L 494.9459720703687 216.77954611445057 L 494.94590280428133 207.49223363579765 L 494.47793263616495 198.14202810729302 L 493.5357242070726 188.75207672893924 L 492.11406340947997 179.34600274069092 L 490.20889097747164 169.9478520562542 L 487.8173316022431 160.582037943944 L 484.9377204577713 151.27328386604515 L 481.5696270263371 142.04656459468555 L 477.7138761187829 132.9270457285828 L 473.3725659899435 123.94002174116713 L 468.5490834555875 115.11085269647954 L 463.2481159234428 106.46489977489145 L 457.47566025744777 98.02745975605279 L 451.23902840124396 89.82369861155331 L 444.54684969411164 81.87858436453695 L 437.40906982001593 74.21681937794338 L 429.83694633817623 66.86277223713205 L 421.8430407515723 59.84040939636688 L 413.4412070780452 53.173226761984296 L 404.64657689711424 46.884181388013786 L 395.475540854314 40.995623462573946 L 385.9457266137037 35.52922876547993 L 376.07597325823787 30.5059317791995 L 365.8863021468603 25.945859636541428 L 355.39788424647367 21.868267089253436 L 344.6330039663527 18.291472682042922 L 333.61501953204026 15.23279631639366 L 322.368319945311 12.708498387931115 L 310.91827858635764 10.733720679991535 L 299.2912035239395 9.322429194453633 L 287.5142846087987 8.48735909880773 L 275.6155374351766 8.239961965855827 L 263.6237442647242 8.590355479354741 L 251.56839201647153 9.547275775340097 L 239.47960743577227 11.118032584793639 L 227.3880895642535 13.308467338751655 L 215.32503964174086 16.122914391891356 L 203.3220885798786 19.564165515097272 L 191.41122215569288 23.63343780148108 L 179.6247040816288 28.330345123846882 L 167.99499711660317 33.652873274633976 L 156.55468239033303 39.597358911973714 L 145.33637712059377 46.158472427651105 L 134.37265091010727 53.32920484449937 L 123.69594081645494 61.100858842069954 L 113.33846539468209 69.46304400035723 L 103.33213791814879 78.40367634189786 L 93.70847898861896 87.90898224275242 L 84.49852875155182 97.9635067727348 L 75.732758937076 108.55012651476738 L 67.44098495112542 119.65006690248326 L 59.65227824470722 131.24292410414574 L 52.394879192233134 143.30669146966187 L 45.696110712252505 155.8177905459457 L 39.582292865770626 168.751106654167 L 34.07865866860459 182.08002901052848 L 29.209271354903933 195.77649536017822 L 24.996943329036526 209.81104108171007 L 21.463157042507135 224.1528527074684 L 18.627988031415896 238.76982579257748 L 16.510030348179043 253.62862705329732 L 15.126324618817534 268.69476068299457 L 14.492288954068044 283.93263874174215 L 14.621652938871762 299.3056555033631 L 15.526394920470011 314.7762656316187 L 17.216682810358805 330.30606604529805 L 19.700818609748865 345.85588132015636 L 22.985186861935915 361.3858524640583 L 27.074207228121224 376.8555288903411 L 31.970291375734064 392.2239634033044 L 36.9434169511147 405.5 L 605.5 405.5 L 605.5 -5.5 L -5.5 -5.5 L -5.5 405.5 L 605.5 405.5 L 605.5 -5.5 L -5.5 -5.5 L -5.5 405.5 L 605.5 405.5 L 605.5 -5.5 L -5.5 -5.5 L -5.5 405.5 L 605.5 405.5 L 605.5 -5.5 L -5.5 -5.5 L -5.5 405.5 L 605.5 405.5 L 605.5 -5.5 L -5.5 -5.5 L -5.5 405.5 L 605.5 405.5 L 605.5 -5.5 L -5.5 -5.5 L -5.5 405.5 L 605.5 405.5 L 605.5 -5.5 L -5.5 -5.5 L -5.5 405.5 L 605.5 405.5 L 605.5 -5.5 L -5.5 -5.5 L -5.5 405.5 L 605.5 405.5 L 605.5 -5.5 L -5.5 -5.5 L -5.5 405.5 L 605.5 405.5 L 605.5 -5.5 L -5.5 -5.5 L -5.5 405.5 L 605.5 405.5 L 605.5 -5.5 L -5.5 -5.5 L -5.5 405.5 L 605.5 405.5 L 605.5 -5.5 L -5.5 -5.5 L -5.5 405.5 L 605.5 405.5 L 605.5 -5.5 L -5.5 -5.5 L -5.5 405.5" stroke-linecap="round" stroke-linejoin="round" stroke-miterlimit="10" stroke-width="2.5" stroke-opacity="0.9" stroke-dasharray=""/></g><path fill="#2d70b3" stroke="none" paint-order="stroke fill markers" d="" fill-opacity="0.4"/><g><path fill="none" stroke="#2d70b3" class="dcg-svg-curve" paint-order="fill stroke markers" d=" M 313.87501682289155 241.12100531006666 L 313.87501682289155 241.12100531006666 L 313.87501041413964 241.1210066312477 L 313.87502050047715 241.12100888047033 L 313.87500540039787 241.12100177689794 L 313.87502793899404 241.1210165856449 L 313.8749952567487 241.12098775294595 L 313.87504096952523 241.12104133595219 L 313.87498005374766 241.12094518314282 L 313.87505558434225 241.12111291064843 L 313.87497299483573 241.12082733761514 L 313.8749816778815 241.12129291264924 L 313.8752129811782 241.12060175491186 L 313.874440260563 241.12137754124547 L 313.8760502140077 241.1209736727973 L 313.8734697787801 241.12051230178807 L 313.8773731524677 241.12214991215367 L 313.8715016130529 241.11863969172867 L 313.88009495556975 241.12559476458406 L 313.86793263063566 241.11250753145433 L 313.8844064728819 241.13621956087644 L 313.86345772312154 241.09452561708403 L 313.88746492109834 241.16600940257166 L 313.86535839132006 241.04616729269074 L 313.78683301631656 241.17598773767358 L 313.97314995477586 241.21888247427137 L 313.9724048364774 240.96388130443756 L 313.70200889672617 240.96752599262987 L 313.62572550846585 241.24899914896142 L 313.8433420707633 241.44832711636747 L 314.11680355650617 241.40601638551504 L 314.3097610666398 241.06295652752652 L 314.17193695234846 240.72058538447706 L 313.7836620214918 240.56185063627905 L 313.44448594222416 240.6697946325301 L 313.1662238577905 241.1147327037007 L 313.2271817838089 241.5558452176618 L 313.55672880271896 241.91870651761832 L 314.0816519531858 242.0435393214094 L 314.6361303533807 241.83069110318183 L 315.00757888740344 241.2926915107286 L 315.0106525189588 240.57305283282335 L 314.7626522057897 240.11148413919207 L 314.0539755897005 239.65216164702116 L 313.4409431284988 239.60439792186412 L 312.81915501539135 239.81200105910705 L 312.29478647982825 240.2739931043919 L 311.9716888115786 240.94533449238483 L 311.93313890079907 241.73868476758156 L 312.2246494258311 242.53370828642227 L 312.84095287308446 243.19334827491392 L 313.71997694756806 243.5852105750931 L 314.74580640010487 243.60506226222677 L 315.7613469428558 243.19867616577204 L 316.58982928796763 242.37802329394302 L 317.06264712109845 241.22824523107224 L 317.04958684540014 239.90294348653552 L 316.4865556044184 238.60700387867374 L 315.3956778704928 237.56821972364125 L 314.68504672288634 237.2138810099787 L 313.89324820932956 237.0010844014968 L 313.0483479944367 236.94816915653462 L 312.1825086557585 237.0679363314635 L 311.3309025351748 237.36674227931798 L 310.53042566396243 237.84380433483628 L 309.8182539128817 238.49076202421534 L 309.2302918997657 239.29152921381083 L 308.79957305475796 240.22246266900467 L 308.55467516529677 241.25286081889223 L 308.51821932058965 242.3457934927354 L 308.7055211431159 243.45924947092908 L 309.12346131799336 244.54757440530815 L 309.76963760106185 245.56315759014254 L 310.6318527120155 246.45831281446692 L 311.68798193349556 247.18728671233157 L 312.906251101865 247.70831824385496 L 314.24594037649933 247.98566573390778 L 315.6585122147524 247.99151374143693 L 317.0891439655863 247.70767130797685 L 318.47862711705324 247.12697609602256 L 319.76557724329365 246.25432569525046 L 320.8888818806268 245.10726791284668 L 321.7902987072392 243.71609597772954 L 322.41710426367905 242.1234119176607 L 322.72468472394866 240.38314139399301 L 322.6789555032581 238.55900533385008 L 322.25849623254976 236.72247698678396 L 321.456292147788 234.9502766506802 L 320.2809823585169 233.32147928454663 L 318.7575297015021 231.91433154127964 L 316.9272456690047 230.80289340207491 L 314.84712673453345 230.05363461220324 L 312.58848458541127 229.72212663139817 L 310.2348814271712 229.84997607949498 L 307.87941160300204 230.46214511009362 L 305.6214010963058 231.5647974206873 L 303.5626257918557 233.14379558258193 L 301.80317635644974 235.16395618152976 L 300.43712097052634 237.56914430301848 L 299.5481356723131 240.28325884728832 L 299.2052846634465 243.21212595056056 L 299.459138645417 246.2462805900067 L 300.33841741428245 249.26457763361537 L 301.84733311481136 252.13853469425788 L 303.9637926317301 254.73727179672863 L 306.6385917966307 256.93287874684495 L 309.79570098308676 258.6060118569 L 313.3337021644423 259.6514988890589 L 317.12839286375913 259.983716115753 L 321.0365241782886 259.54149541300666 L 324.9005900105234 258.29232314500746 L 328.55453477837744 256.2356067532676 L 331.8301993260139 253.40480951537126 L 334.5642816745342 249.8682885371223 L 336.6055527524394 245.72871489113984 L 337.82203930559774 241.12100667466262 L 338.10786855074656 236.20876396936535 L 337.3894632309492 231.17925720844653 L 335.63078258053906 226.2370849363663 L 332.83732486471933 221.59668079140704 L 329.05864065368513 217.4739100131514 L 324.3891522901887 214.0770500999084 L 318.9671330043966 211.59749571516534 L 316.02844130595304 210.75463094493253 L 312.9717671450997 210.2005620624734 L 309.8251030413467 209.9504494847331 L 306.61828882246095 210.01678152383744 L 303.3827609734949 210.40915745666035 L 300.15127720934953 211.13409362375285 L 296.9576183332147 212.19485532557457 L 293.8362697468167 213.59131710534902 L 290.82208526721854 215.3198537964729 L 287.9499361754898 217.37326446938542 L 282.76913313273184 222.4078137975181 L 280.5270087719218 225.35648299196603 L 278.559227450979 228.5651908508354 L 276.89520054231633 232.00898104764522 L 275.562132821345 235.6596378362929 L 274.5846674313034 239.4858738721948 L 273.98454597739226 243.45355612532217 L 273.78028778160893 247.52596877136403 L 273.9868922612428 251.66411152597934 L 274.6155682820768 255.82703146811727 L 275.6734941816775 259.9721859861254 L 277.16361195895604 264.0558340793384 L 279.08445888409733 268.03345286259173 L 281.43003949911196 271.86017575615136 L 284.1897406552663 275.49124850336295 L 287.348291871555 278.88249884724377 L 290.88577290072703 281.990815419447 L 294.7776699591544 284.7746311545142 L 298.9949816174492 287.19440634279374 L 303.5043748640392 289.2131062802681 L 308.2683913481188 290.7966683658474 L 313.2457032860833 291.9144534391227 L 318.3914179816373 292.5396761463594 L 323.6574293694175 292.64980917139707 L 328.9928144506111 292.2269562723712 L 334.3442719522742 291.2581892254821 L 339.6566000156224 289.7358439935807 L 344.87320920827204 287.6577717096703 L 349.9366666671019 285.0275403925398 L 354.789266717891 281.8545836920033 L 359.3736228908535 278.15429339240376 L 363.63327586318036 273.9480528823042 L 367.5133115160145 269.26320932221637 L 370.9609829989552 264.1329828067964 L 373.92633045487776 258.59631141861223 L 376.3627918758165 252.69763170228958 L 378.22779844070317 246.4865947449789 L 379.4833476311226 240.0177187256609 L 380.0965474346517 233.3499794854093 L 380.0401250288575 226.54634136657788 L 379.2928934940491 219.67323126395846 L 377.84017033012407 212.799959517987 L 375.6741418523007 205.99809195164738 L 372.79416791141614 199.34077800134116 L 369.20702182525355 192.90204051014956 L 364.92706091573035 186.75603333220113 L 359.97632361962565 180.97627343197274 L 354.38454977399107 175.6348546452777 L 348.18912136684764 170.80165069270114 L 341.43492178385793 166.54351539498325 L 334.1741123663243 162.9234883274874 L 326.4658259183759 160.00001436210454 L 318.3757776542348 157.82618567505358 L 309.9757949521096 156.44901484405443 L 301.34326817115846 155.9087476150273 L 292.56052568331484 156.23822378440562 L 283.71413716339566 157.4622944167648 L 274.89415005943613 159.59730329813863 L 266.1932650210467 162.6506401134127 L 257.70595688708374 166.6203723328258 L 249.52754861547714 171.49496220015405 L 241.75324626813898 177.25307453686113 L 234.47714383322207 183.86348031665102 L 227.79120726665678 191.28506012871097 L 221.78424765635967 199.46691074171372 L 216.54089384780752 208.34855701151156 L 212.1405752114647 217.8602703514531 L 208.65652547425412 227.92349391425142 L 206.1548186730783 238.45137352799844 L 204.6934483134924 249.34939229657746 L 204.32146072713755 260.51610562730866 L 205.07815341465073 271.8439722976628 L 206.99234883483925 283.2202760301325 L 210.08175365544463 294.52813092204127 L 214.35241291658784 305.6475629875465 L 219.79826787699164 316.45665902476566 L 226.40082551861462 326.83277303416986 L 234.12894678198148 336.65377949728054 L 242.93875959813175 345.79936198911605 L 252.77370168086028 354.15232485509256 L 263.5646968531323 361.5999150439363 L 269.2937803340754 364.9504996076362 L 275.2304674137936 368.0351406626704 L 281.3627656525856 370.8415779625566 L 287.67798371560605 373.3580724170304 L 294.16275289589805 375.5734448322378 L 300.8030507349421 377.4771138289426 L 307.5842267135111 379.05913282751203 L 314.49102997983977 380.31022598905383 L 321.50763907631216 381.2218230029964 L 328.61769362008806 381.78609261261215 L 335.80432788731616 381.995974771498 L 343.0502062448526 381.8452113258347 L 350.33756036772473 381.3283751193661 L 357.6482281749714 380.4408974204464 L 364.96369441095675 379.17909357322185 L 372.26513279383767 377.54018677801855 L 379.53344964754353 375.522329909312 L 386.749328928446 373.1246252832515 L 393.89327855286615 370.3471422905819 L 400.94567792668084 367.1909328149768 L 407.8868265735999 363.6580443612162 L 414.6969937541742 359.7515308223512 L 421.3564689632956 355.47546081995193 L 427.84561318986823 350.834923556743 L 434.14491081848473 345.8360321263814 L 440.23502204934647 340.48592423081175 L 446.0968357093268 334.79276026153207 L 451.7115223240217 328.76571870721205 L 457.06058731785254 322.41498885640794 L 462.1259242068152 315.75176077060496 L 466.8898676463027 308.7882125094708 L 471.33524619458416 301.53749459701305 L 475.44543465101003 294.01371172428185 L 479.2044058268398 286.23190169132386 L 482.5967816057585 278.20801159828306 L 485.6078831506861 269.9588713027982 L 488.2237801133688 261.50216416819643 L 490.43133870351005 252.85639513437582 L 492.2182684748325 244.04085615070198 L 493.5731676864765 235.07558901769576 L 494.4855670995436 225.9813456917382 L 494.9459720703687 216.7795461144506 L 494.94590280428133 207.49223363579767 L 494.47793263616495 198.14202810729307 L 493.5357242070726 188.75207672893927 L 492.11406340947997 179.34600274069095 L 490.20889097747164 169.94785205625425 L 487.81733160224314 160.58203794394402 L 484.9377204577714 151.27328386604518 L 481.5696270263372 142.04656459468558 L 477.71387611878293 132.92704572858287 L 473.3725659899435 123.94002174116714 L 468.5490834555875 115.11085269647958 L 463.2481159234428 106.46489977489148 L 457.4756602574479 98.02745975605282 L 451.239028401244 89.82369861155334 L 444.54684969411164 81.87858436453698 L 437.409069820016 74.21681937794344 L 429.8369463381763 66.86277223713205 L 421.84304075157235 59.84040939636691 L 413.44120707804524 53.173226761984324 L 404.6465768971143 46.88418138801384 L 395.47554085431403 40.995623462573946 L 385.94572661370375 35.529228765479985 L 376.0759732582379 30.5059317791995 L 365.8863021468603 25.945859636541428 L 355.3978842464737 21.868267089253436 L 344.6330039663527 18.291472682042922 L 333.6150195320403 15.23279631639366 L 322.36831994531104 12.708498387931115 L 310.9182785863577 10.733720679991535 L 299.29120352393954 9.322429194453576 L 287.51428460879873 8.487359098807673 L 275.61553743517663 8.239961965855827 L 263.6237442647243 8.590355479354741 L 251.5683920164716 9.547275775340097 L 239.4796074357723 11.118032584793639 L 227.38808956425356 13.308467338751598 L 215.3250396417409 16.122914391891356 L 203.32208857987865 19.564165515097244 L 191.41122215569294 23.63343780148108 L 179.62470408162883 28.330345123846882 L 167.99499711660323 33.65287327463392 L 156.55468239033308 39.59735891197363 L 145.3363771205938 46.15847242765108 L 134.37265091010732 53.329204844499316 L 123.69594081645496 61.100858842069925 L 113.33846539468209 69.4630440003572 L 103.33213791814885 78.4036763418978 L 93.70847898861899 87.90898224275236 L 84.49852875155182 97.96350677273475 L 75.73275893707606 108.5501265147673 L 67.44098495112547 119.65006690248319 L 59.65227824470722 131.24292410414566 L 52.39487919223319 143.3066914696618 L 45.69611071225256 155.81779054594566 L 39.582292865770626 168.75110665416693 L 34.078658668604646 182.0800290105284 L 29.20927135490399 195.77649536017816 L 24.996943329036526 209.81104108171002 L 21.463157042507135 224.15285270746833 L 18.627988031415896 238.76982579257742 L 16.510030348179043 253.62862705329724 L 15.126324618817534 268.6947606829945 L 14.492288954068044 283.9326387417421 L 14.621652938871762 299.305655503363 L 15.526394920470011 314.7762656316186 L 17.216682810358805 330.306066045298 L 19.700818609748808 345.8558813201563 L 22.98518686193586 361.3858524640582 L 27.074207228121168 376.855528890341 L 31.970291375734007 392.2239634033043 L 36.94341695111467 405.5 L 605.5 405.5 L 605.5 -5.5 L -5.5 -5.5 L -5.5 405.5 L 605.5 405.5 L 605.5 -5.5 L -5.5 -5.5 L -5.5 405.5 L 605.5 405.5 L 605.5 -5.5 L -5.5 -5.5 L -5.5 405.5 L 605.5 405.5 L 605.5 -5.5 L -5.5 -5.5 L -5.5 405.5 L 605.5 405.5 L 605.5 -5.5 L -5.5 -5.5 L -5.5 405.5 L 605.5 405.5 L 605.5 -5.5 L -5.5 -5.5 L -5.5 405.5 L 605.5 405.5 L 605.5 -5.5 L -5.5 -5.5 L -5.5 405.5 L 605.5 405.5 L 605.5 -5.5 L -5.5 -5.5 L -5.5 405.5 L 605.5 405.5 L 605.5 -5.5 L -5.5 -5.5 L -5.5 405.5 L 605.5 405.5 L 605.5 -5.5 L -5.5 -5.5 L -5.5 405.5 L 605.5 405.5 L 605.5 -5.5 L -5.5 -5.5 L -5.5 405.5 L 605.5 405.5 L 605.5 -5.5 L -5.5 -5.5 L -5.5 405.5 L 605.5 405.5 L 605.5 -5.5 L -5.5 -5.5 L -5.5 405.5" stroke-linecap="round" stroke-linejoin="round" stroke-miterlimit="10" stroke-width="2.5" stroke-opacity="0.9" stroke-dasharray=""/></g></g></g><g id="labels-be9499f0"/></g></svg>