<svg version="1.1" xmlns="http://www.w3.org/2000/svg" xmlns:xlink="http://www.w3.org/1999/xlink" width="1200" height="800"><defs/><g transform="scale(2,2)"><g id="background-26405b64"><rect fill="white" stroke="none" x="0" y="0" width="600" height="400" class="dcg-svg-background"/></g><g id="background-images-26405b64"/><g id="graphpaper-26405b64"><g id="axis-26405b64"><g id="yaxis-26405b64"><title>Y axis</title><g><path fill="none" stroke="rgb(0,0,0)" class="dcg-svg-axis-line" paint-order="fill stroke markers" d=" M 303 0 L 303 400" stroke-opacity="0.9" stroke-miterlimit="10" stroke-width="1.5" stroke-dasharray=""/></g></g><g id="xaxis-26405b64"><title>X axis</title><g><path fill="none" stroke="rgb(0,0,0)" class="dcg-svg-axis-line" paint-order="fill stroke markers" d=" M 0 204 L 600 204" stroke-opacity="0.9" stroke-miterlimit="10" stroke-width="1.5" stroke-dasharray=""/></g></g><g><g class="dcg-svg-axis-value"><text fill="none" stroke="#ffffff" font-family="Arial" font-size="14px" font-style="normal" font-weight="normal" text-decoration="normal" x="294.20487616784516" y="220.1552500800469" text-anchor="middle" stroke-miterlimit="2" stroke-width="3" stroke-dasharray="">0</text><text fill="#000000" stroke="none" font-family="Arial" font-size="14px" font-style="normal" font-weight="normal" text-decoration="normal" x="294.20487616784516" y="220.1552500800469" text-anchor="middle">0</text></g><g><path fill="none" stroke="rgb(0,0,0)" class="dcg-svg-tickmark" paint-order="fill stroke markers" d=" M 13 201 L 13 207 M 110 201 L 110 207 M 207 201 L 207 207 M 400 201 L 400 207 M 496 201 L 496 207 M 593 201 L 593 207 M 300 397 L 306 397 M 300 301 L 306 301 M 300 108 L 306 108 M 300 11 L 306 11" stroke-opacity="0.9" stroke-miterlimit="2" stroke-width="1.5" stroke-dasharray=""/></g><g class="dcg-svg-axis-value"><text fill="none" stroke="#ffffff" font-family="Arial" font-size="14px" font-style="normal" font-weight="normal" text-decoration="normal" x="11.073615623086368" y="220.1552500800469" text-anchor="middle" stroke-miterlimit="2" stroke-width="3" stroke-dasharray="">-3</text><text fill="#000000" stroke="none" font-family="Arial" font-size="14px" font-style="normal" font-weight="normal" text-decoration="normal" x="11.073615623086368" y="220.1552500800469" text-anchor="middle">-3</text></g><g class="dcg-svg-axis-value"><text fill="none" stroke="#ffffff" font-family="Arial" font-size="14px" font-style="normal" font-weight="normal" text-decoration="normal" x="107.63803971092264" y="220.1552500800469" text-anchor="middle" stroke-miterlimit="2" stroke-width="3" stroke-dasharray="">-2</text><text fill="#000000" stroke="none" font-family="Arial" font-size="14px" font-style="normal" font-weight="normal" text-decoration="normal" x="107.63803971092264" y="220.1552500800469" text-anchor="middle">-2</text></g><g class="dcg-svg-axis-value"><text fill="none" stroke="#ffffff" font-family="Arial" font-size="14px" font-style="normal" font-weight="normal" text-decoration="normal" x="204.2024637987589" y="220.1552500800469" text-anchor="middle" stroke-miterlimit="2" stroke-width="3" stroke-dasharray="">-1</text><text fill="#000000" stroke="none" font-family="Arial" font-size="14px" font-style="normal" font-weight="normal" text-decoration="normal" x="204.2024637987589" y="220.1552500800469" text-anchor="middle">-1</text></g><g class="dcg-svg-axis-value"><text fill="none" stroke="#ffffff" font-family="Arial" font-size="14px" font-style="normal" font-weight="normal" text-decoration="normal" x="399.6623666619314" y="220.1552500800469" text-anchor="middle" stroke-miterlimit="2" stroke-width="3" stroke-dasharray="">1</text><text fill="#000000" stroke="none" font-family="Arial" font-size="14px" font-style="normal" font-weight="normal" text-decoration="normal" x="399.6623666619314" y="220.1552500800469" text-anchor="middle">1</text></g><g class="dcg-svg-axis-value"><text fill="none" stroke="#ffffff" font-family="Arial" font-size="14px" font-style="normal" font-weight="normal" text-decoration="normal" x="496.2267907497677" y="220.1552500800469" text-anchor="middle" stroke-miterlimit="2" stroke-width="3" stroke-dasharray="">2</text><text fill="#000000" stroke="none" font-family="Arial" font-size="14px" font-style="normal" font-weight="normal" text-decoration="normal" x="496.2267907497677" y="220.1552500800469" text-anchor="middle">2</text></g><g class="dcg-svg-axis-value"><text fill="none" stroke="#ffffff" font-family="Arial" font-size="14px" font-style="normal" font-weight="normal" text-decoration="normal" x="592.791214837604" y="220.1552500800469" text-anchor="middle" stroke-miterlimit="2" stroke-width="3" stroke-dasharray="">3</text><text fill="#000000" stroke="none" font-family="Arial" font-size="14px" font-style="normal" font-weight="normal" text-decoration="normal" x="592.791214837604" y="220.1552500800469" text-anchor="middle">3</text></g><g class="dcg-svg-axis-value dcg-svg-offcenter-axis-value"><text fill="none" stroke="#ffffff" font-family="Arial" font-size="14px" font-style="normal" font-weight="normal" text-decoration="normal" x="291.87382148034516" y="393.808" text-anchor="middle" stroke-miterlimit="2" stroke-width="3" stroke-dasharray="">-2</text><text fill="#000000" stroke="none" font-family="Arial" font-size="14px" font-style="normal" font-weight="normal" text-decoration="normal" x="291.87382148034516" y="393.808" text-anchor="middle">-2</text></g><g class="dcg-svg-axis-value"><text fill="none" stroke="#ffffff" font-family="Arial" font-size="14px" font-style="normal" font-weight="normal" text-decoration="normal" x="291.87382148034516" y="304.71967416788317" text-anchor="middle" stroke-miterlimit="2" stroke-width="3" stroke-dasharray="">-1</text><text fill="#000000" stroke="none" font-family="Arial" font-size="14px" font-style="normal" font-weight="normal" text-decoration="normal" x="291.87382148034516" y="304.71967416788317" text-anchor="middle">-1</text></g><g class="dcg-svg-axis-value"><text fill="none" stroke="#ffffff" font-family="Arial" font-size="14px" font-style="normal" font-weight="normal" text-decoration="normal" x="294.20487616784516" y="111.59082599221065" text-anchor="middle" stroke-miterlimit="2" stroke-width="3" stroke-dasharray="">1</text><text fill="#000000" stroke="none" font-family="Arial" font-size="14px" font-style="normal" font-weight="normal" text-decoration="normal" x="294.20487616784516" y="111.59082599221065" text-anchor="middle">1</text></g><g class="dcg-svg-axis-value"><text fill="none" stroke="#ffffff" font-family="Arial" font-size="14px" font-style="normal" font-weight="normal" text-decoration="normal" x="294.20487616784516" y="15.026401904374389" text-anchor="middle" stroke-miterlimit="2" stroke-width="3" stroke-dasharray="">2</text><text fill="#000000" stroke="none" font-family="Arial" font-size="14px" font-style="normal" font-weight="normal" text-decoration="normal" x="294.20487616784516" y="15.026401904374389" text-anchor="middle">2</text></g></g></g></g><g id="expressions-26405b64"><g id="sketch-26405b64"><title>Expression 3</title><path fill="#6042a6" stroke="none" paint-order="stroke fill markers" d="" fill-opacity="0.4"/><g><path fill="none" stroke="#6042a6" class="dcg-svg-curve" paint-order="fill stroke markers" d=" M 206.53351848607508 204.3472500797339 L 206.53351848607508 204.3472500797339 L 206.53351848643496 204.34725008080784 L 206.53351848658963 204.3472500784579 L 206.53351848399882 204.3472500823926 L 206.53351849260503 204.3472500784778 L 206.53351847291918 204.34725007747863 L 206.53351851199733 204.34725009390118 L 206.53351844232193 204.34725003504357 L 206.53351854752628 204.34725020071497 L 206.53351843807843 204.34724979286835 L 206.53351832697518 204.34725066381836 L 206.53351938073746 204.34724925864623 L 206.53351608895895 204.3472505193593 L 206.53352339177948 204.34725133969172 L 206.53350922400634 204.34724433812275 L 206.53353381096474 204.3472678279262 L 206.53349843637415 204.34720378058873 L 206.53352987257992 204.34735804400344 L 206.5335910601355 204.3470364733857 L 206.5331669141696 204.34753536546276 L 206.53442058583232 204.3471412204415 L 206.5317217042944 204.3466695601795 L 206.53683435157257 204.34959773626898 L 206.52822024386057 204.34029612414426 L 206.53992610132832 204.36493488213853 L 206.53174960200334 204.30681385133198 L 206.5016714795829 204.42511069088752 L 206.67519129292958 204.35071389035727 L 206.57020623576892 204.1425206345359 L 206.29623109153766 204.1894459825488 L 206.19376066282155 204.51002722396885 L 206.37507187499844 204.78321594413137 L 206.76919033164222 204.86681098705665 L 207.1280142630772 204.67276377583596 L 207.33129766229737 204.23339298041472 L 207.26815378713403 203.78247205243113 L 206.9505151032704 203.36517988949976 L 206.39454216430244 203.12514805424183 L 205.8767025830502 203.14597618384153 L 205.3505736714162 203.38636489583575 L 204.79991808904592 204.0626764551344 L 204.632058416888 204.78849899140224 L 204.77007522740445 205.60408177801673 L 205.25850135254876 206.3782717869781 L 206.0836017997723 206.95978841627368 L 206.7840711499113 207.16815384290825 L 207.5612848668263 207.19133799872708 L 208.36679662739863 207.0049008952888 L 209.1455644310337 206.5970367365296 L 210.13591275702038 205.57849068014517 L 210.5934152917242 204.6571889390064 L 210.82618385561622 203.5833045115346 L 210.78777943740974 202.40698726820585 L 210.4407293845165 201.19094665480884 L 209.75916963490775 200.01001817718952 L 208.73220703093057 198.95063883026725 L 207.36838739277772 198.1097277466122 L 205.70145623609648 197.59210991813083 L 203.79715027396014 197.50526455127053 L 202.7869680411086 197.65549969169905 L 201.75995645410012 197.9499791832261 L 200.73597896738266 198.39785971482644 L 199.73759716791312 199.00575470041457 L 197.91968364555692 200.71098211450484 L 197.15554870599885 201.80231093399905 L 196.5262522385313 203.04036009616453 L 196.0599816201355 204.4087994647114 L 195.78300132879042 205.88547205510295 L 195.71827789112513 207.4425939154498 L 195.88411080228423 209.0473350964343 L 196.2928929081496 210.66278978828748 L 196.95012835928247 212.24929773969023 L 197.85382154598287 213.76603139083733 L 198.9943161283622 215.17272277281413 L 200.35461369821573 216.43137982937816 L 201.91114508801854 217.50783926416315 L 203.6349142883182 218.37302347814583 L 205.49289509232977 219.0038086346341 L 207.44954046314936 219.38346131378435 L 209.46826599915994 219.5016527967454 L 211.51278885492502 219.3541038395212 L 213.54823584112756 218.94194286507735 L 215.54197169544236 218.270874618931 L 217.46413389317286 217.3502557748755 L 219.28788904690782 216.19216236989047 L 220.98944556439136 214.81051587621243 L 222.5478676117849 213.22031453722082 L 223.94473790225388 211.43699767819618 L 225.1637134948889 209.47595518198267 L 226.1900118727802 207.35218316646316 L 227.00985601734163 205.08008022359843 L 227.60989848764132 202.67337596714705 L 227.97663664644972 200.14518446521907 L 228.0958247590411 197.5081787990052 L 227.9518840957453 194.77488904670687 L 227.5273096922524 191.95813423446052 L 226.80207246955445 189.07160927473973 L 225.75301870790514 186.13066091636014 L 224.3532766902985 183.15330271690624 L 222.57169486634135 180.16153849197372 L 220.37236069268852 177.18308676497688 L 217.71428994319854 174.25362464867527 L 214.55144110765434 171.419695308393 L 210.83331043137662 168.7424409935075 L 206.50651582716984 166.3023168296425 L 201.5179996833357 164.20487588568943 L 195.82078296611178 162.58753222800593 L 189.38357123261858 161.62680182738538 L 182.20586117271716 161.5447340344211 L 178.3529092338212 161.91591063833351 L 174.34028149449446 162.61188589081854 L 170.1878866931954 163.6732317901339 L 165.9231971511653 165.14213384023054 L 161.5825179673731 167.0612491361375 L 157.21218988089547 169.4721059300973 L 152.86958779228294 172.41298518591014 L 148.62373163140177 175.9162593180455 L 144.55528555401625 180.00522250196482 L 140.75569735407575 184.6905335481199 L 137.32523847409973 189.96650365787184 L 134.36976354768723 195.8075856757303 L 131.9961307670014 202.16553545113686 L 130.3064129047246 208.96778547350064 L 129.39126635361518 216.11755697685535 L 129.32307061800077 223.49610740893695 L 130.14964116531877 230.96725705941952 L 131.88938663517743 238.38399036391405 L 134.52867797956648 245.5965524014001 L 138.0219163561339 252.46115320830188 L 142.2943781455764 258.84824087898494 L 147.24747443211245 264.64935927926496 L 152.7656983383035 269.78185720283994 L 158.7243321725037 274.1910945001325 L 164.99698026013266 277.850196734987 L 171.46215734370972 280.75774761385344 L 178.0084304027105 282.9340165989005 L 184.53790523049983 284.4163826371978 L 190.9681033307644 285.25455766282954 L 197.2324525911546 285.50608041748285 L 203.27970826400633 285.23238957362673 L 209.07264119578338 284.4956321991729 L 214.58630013355804 283.35624108508665 L 219.80609743661094 281.87123007942944 L 224.72590140911285 280.09310816626487 L 229.34625623604808 278.0692932497444 L 237.71490209464724 273.44784098705054 L 244.99542371238368 268.28272261460125 L 251.2999443032299 262.77647029443403 L 256.74858610133305 257.0716459138712 L 261.45766461588636 251.26427438041208 L 265.53379542731614 245.41544285324318 L 269.07161720565017 239.56052947777908 L 272.15357016901294 233.71617729131466 L 274.85074629150387 227.88536968159372 L 277.22422848097386 222.06100228917637 L 279.3265953637874 216.22829997236474 L 281.20342866470264 210.366355114181 L 282.89475659660576 204.44899098407157 L 285.86142046561844 192.3184745645795 L 288.4871628540298 179.52351157794715 L 292.37117432285595 158.12176549465556 L 295.4456490115027 141.442515850814 L 297.3376008101516 132.02911744856442 L 299.61838189950083 121.67791490278466 L 302.4620382019167 110.16934859147483 L 306.12263685741664 97.22630383413954 L 310.98150853585923 82.49890084299992 L 317.6271960382405 65.55035519574304 L 321.8928727570811 56.08181291913482 L 326.99382987754774 45.85535105333577 L 333.14042536311126 34.79862172342831 L 340.60406605760693 22.845918883967727 L 349.73619813022384 9.950548771692354 L 360.9923339234184 -3.8933200350862194 L 362.66840932427175 -5.5 L 605.5 -5.5 L 605.5 364.59211673184564 L 599.0468453427081 366.2756072472937 L 590.0123082910657 368.2301785903357 L 581.2656106745965 369.7543774066347 L 572.8124637969465 370.88982823421225 L 564.6552485616529 371.67519373095683 L 556.7935942898465 372.14619558296533 L 541.9447074223582 372.2737701248568 L 528.2254693885336 371.5031577413248 L 515.5775389085928 370.0255959908951 L 503.9327065151481 367.998110302818 L 493.21855395648413 365.54864291113734 L 483.3622567851662 362.7807970047294 L 474.29303552965877 359.77803568422826 L 465.9436467959193 356.6072927731916 L 458.25120761293056 353.32201738224546 L 444.60938240664467 346.56898778200565 L 432.95921949077336 339.76242967607726 L 422.96320078724847 333.05135586011636 L 414.3452127609107 326.5236203553366 L 406.8802973164781 320.22771413881463 L 400.3852403927966 314.1869742341636 L 394.7105410818406 308.40883813367304 L 385.3544321196124 297.624689092344 L 378.0696071417379 287.79879747052166 L 372.3457686935802 278.8218376197421 L 367.825555046074 270.58195714803094 L 364.25431307764126 262.9764174496627 L 361.4477967916213 255.91519200103417 L 359.2710400873115 249.321208075624 L 357.62428788158513 243.12930927795153 L 356.4334596757482 237.28485378092458 L 355.64357416617963 231.74233877734122 L 355.21414044381413 226.46420484115404 L 355.1158741518952 221.41986866737136 L 355.328315481323 216.5849880658648 L 355.8380626626023 211.9409462016069 L 356.63742069597527 207.47453733044583 L 357.7233189796111 203.1778361084787 L 359.09638449793346 199.04823305681666 L 360.76007633569327 195.0886176485722 L 362.71979713291034 191.3076860566999 L 364.9819011818868 187.72034128816645 L 367.55252042492555 184.34813762617136 L 370.43613236958913 181.21969748932491 L 373.6338027760118 178.37099602684313 L 377.14105739048375 175.84536751270886 L 380.94537914927116 173.69304138050217 L 385.0233990050219 171.96997311290892 L 389.33795673876244 170.7357119829976 L 393.8353527115679 170.05006808533787 L 398.4432778597874 169.96843583639543 L 403.07006003301046 170.53582903224287 L 407.6059360877454 171.7799942337098 L 411.92696883252995 173.70436406347912 L 415.9019041183798 176.2819983232669 L 419.4016925381977 179.45188805751985 L 422.3106759281299 183.11889887381597 L 424.5377743247965 187.15810569425963 L 426.0256778073979 191.42337958552218 L 426.7562565429731 195.75907376013882 L 426.7511602470861 200.012874567094 L 426.06765479537825 204.04763159061355 L 424.79076529154366 207.75034345991114 L 423.0234271315208 211.03728453822245 L 420.8764459133613 213.85519204612658 L 418.4597124088762 216.17918710812015 L 415.87552730026533 218.00850876775223 L 413.2142918043794 219.3611934779505 L 410.5523679270748 220.2686399611683 L 407.9516586995717 220.7706976207497 L 405.4603814691692 220.9116162446672 L 403.11454843346166 220.73695755608537 L 400.9397684879874 220.29141388969833 L 398.95309847058553 219.6173974739501 L 397.16477403491297 218.75423574437767 L 395.5797298128656 217.73781324513666 L 394.1988739767928 216.60052258245915 L 393.02011731306436 215.37141451450958 L 392.0391765439187 214.07646418979635 L 391.2501807556103 212.73889371615383 L 390.64611234738675 211.3795096780424 L 390.21911277516773 210.01702808461698 L 389.96068045177685 208.6683692045618 L 389.9129161575143 206.0726998128924 L 390.42482787478593 203.70041587597353 L 391.4102894392262 201.64193260166525 L 392.7737840338155 199.97130109124961 L 394.40953677595866 198.74458602410564 L 396.2023198534649 197.9962220229312 L 398.0308811971358 197.73453021474407 L 399.7743755272738 197.93798622261718 L 401.32132764879776 198.55398356808857 L 402.57969792720223 199.50149418120685 L 403.48590751664085 200.67810873714905 L 404.01060522398166 201.97066089136308 L 404.1596812920053 203.26748756901947 L 403.9703241131189 204.46986212939046 L 403.50323684264015 205.50047849835042 L 402.83294910314663 206.30785673602762 L 401.618006202356 207.05154198669032 L 400.774670223637 207.24012588114522 L 399.9760340694846 207.2090158569997 L 398.9595710597421 206.8292435580692 L 398.2438266260654 206.17660896774015 L 397.8650124215426 205.39619544808752 L 397.8081323814447 204.6186594569143 L 398.02013162498497 203.94857176740732 L 398.5844924302495 203.34108819302332 L 399.275866674932 203.11926392898593 L 399.89852204162275 203.24878450056178 L 400.31535728548755 203.6171088286164 L 400.47068486232223 204.1891377602313 L 400.28359922870595 204.65057441523717 L 399.84976787493224 204.8746418401533 L 399.47259915674204 204.75887045667133 L 399.3216293522024 204.3844527009147 L 399.5054728694648 204.1403572630713 L 399.7555324160452 204.18162678037524 L 399.7478365090056 204.42669385153465 L 399.61140062839775 204.4046653149969" stroke-linecap="round" stroke-linejoin="round" stroke-miterlimit="10" stroke-width="2.5" stroke-opacity="0.9" stroke-dasharray=""/></g></g><g id="sketch-26405b64"><title>Expression 4</title><path fill="#2d70b3" stroke="none" paint-order="stroke fill markers" d="" fill-opacity="0.4"/><g><path fill="none" stroke="#2d70b3" class="dcg-svg-curve" paint-order="fill stroke markers" d=" M 206.53351848594588 204.3472500802307 L 206.53351848594588 204.3472500802307 L 206.53351848698705 204.34725008006922 L 206.53351848477814 204.3472500795327 L 206.5335184889686 204.3472500820552 L 206.5335184819869 204.34725007418024 L 206.53351849125687 204.34725009484094 L 206.53351848971778 204.347250047782 L 206.53351844590017 204.34725013115767 L 206.5335186094399 204.34725003636007 L 206.5335182158038 204.3472500551556 L 206.53351902557387 204.34725030512732 L 206.53351752366524 204.34724927097264 L 206.5335199423164 204.347252360513 L 206.5335169634477 204.3472444609447 L 206.53351646402376 204.34726200781205 L 206.53353466921544 204.34723197997153 L 206.53347165220217 204.3472635305411 L 206.53361856214437 204.34726550455966 L 206.5333229217178 204.34715403447845 L 206.53385825777235 204.3475730865684 L 206.5330286105198 204.34636828379047 L 206.5339571627934 204.34937577227075 L 206.53454285872505 204.3428575828307 L 206.5270840229863 204.35361729099105 L 206.5512514944577 204.34331257764055 L 206.49662245682111 204.3392271053543 L 206.60408718160352 204.38741717967568 L 206.53709139500543 204.2054785022824 L 206.34172613797006 204.28674885100074 L 206.35334838619215 204.55518539809188 L 206.64726559643412 204.6919576948507 L 206.92999020438566 204.55304498853633 L 207.06017154656342 204.1881824409833 L 206.92189228470278 203.81946364098985 L 206.52624567219394 203.5657420727266 L 206.08194943789834 203.56822361689177 L 205.63744744049615 203.82446504937718 L 205.3392339899337 204.33590107244947 L 205.33531498665064 205.0174833654548 L 205.58695438252352 205.53933158968462 L 206.2689396600859 206.07068453586098 L 206.98348800459163 206.2225599607827 L 207.77547386095566 206.08033239530747 L 208.52550370409602 205.6084748254842 L 209.10008242976977 204.81843507489032 L 209.3686823125385 203.7726992344085 L 209.32182151391538 202.98719202524097 L 209.06463120831245 202.1822071371336 L 208.58219122750126 201.41103676641555 L 207.87162067825116 200.73398372893402 L 206.9449108671614 200.216454531996 L 205.83198697577188 199.92600727073122 L 204.58366629789703 199.92787726413476 L 203.27381384464016 200.27855624406027 L 201.99957221126925 201.01729437873217 L 200.87821421137065 202.1560293346258 L 200.0392067453535 203.66922601794843 L 199.61081015288642 205.48620649708906 L 199.70213647603413 207.4892185659339 L 199.96673613550524 208.51224023115046 L 200.38374362418955 209.52001279578886 L 201.6716023686505 211.39564395982308 L 203.51940119052398 212.93103696785036 L 204.62240086029124 213.51871113154758 L 205.82200649227264 213.96301294620764 L 207.09815360680358 214.25014792572026 L 208.42918912773862 214.36962228962742 L 209.79253490469227 214.31431607620104 L 211.1653074587224 214.08040424899914 L 212.52485903497032 213.66715169868692 L 213.84921602883045 213.07661473584116 L 215.11740223434958 212.31328418827837 L 216.30964472556064 211.38370414489066 L 218.3936926206415 209.06001781308677 L 219.2523420423367 207.6860637984475 L 219.96849514918512 206.18564239327168 L 220.52808165784697 204.5708181441865 L 220.91764890428587 202.85423841571253 L 221.1241110927769 201.0491445219195 L 221.1344956036035 199.1694718370106 L 220.9356999656254 197.2300432579081 L 220.51427382910495 195.24686180239732 L 219.8562426096887 193.2375101230665 L 218.94699392571096 191.22166688009403 L 217.77125510869251 189.2217516392372 L 216.313200614955 187.26371032294176 L 214.55674284106436 185.3779508033072 L 212.48607929071332 183.60043074714028 L 210.08659346613956 181.97388390276748 L 207.34623536296368 180.54914168661304 L 204.25753679802787 179.3864573578926 L 200.82043940425126 178.55666175688222 L 197.0461140463936 178.1418637328565 L 192.96190362854702 178.23524983097096 L 188.61738654812012 178.93934334436887 L 184.09128210266306 180.361885979833 L 179.49844842683314 182.60838730706143 L 174.9955398153837 185.77049667938027 L 170.7830781873652 189.90990320764584 L 167.10102972029497 195.0386746689767 L 164.21498371675585 201.09884636916016 L 163.15457793373366 204.43677770422104 L 162.3913638990976 207.9462694946206 L 161.95312998589432 211.59493383887258 L 161.86315622678646 215.3452003727224 L 162.13907574257024 219.1551137128577 L 162.7919125118196 222.97942097649275 L 163.82537949238852 226.77090105341213 L 165.2355048852978 230.48186015999156 L 167.0106285183731 234.0656975631992 L 169.13177792988225 237.47843484430572 L 171.57339916876714 240.68010374875465 L 174.30438557064468 243.6359015301414 L 180.4898585425123 248.70129750326493 L 183.8660883022078 250.77312990855228 L 187.377885954619 252.5235956526866 L 190.98608809119875 253.94991033219873 L 194.6534915844365 255.05483090999232 L 198.34563221595792 255.8458907863968 L 202.03133762910954 256.3345583667076 L 205.6830649347387 256.5353779012717 L 209.2770460843925 256.46514048785315 L 216.21534922217475 255.5854017893566 L 222.72808618384886 253.84790502407827 L 228.74612025206 251.40225290719692 L 234.23878216297305 248.38458825192623 L 239.2033252258602 244.91222610842257 L 243.65574719421818 241.0819461511648 L 247.62348673482617 236.97056943999195 L 251.13998697103048 232.63674966820125 L 254.2408671288274 228.12324396386472 L 256.9613620100182 223.4592083339007 L 259.33469958646896 218.66226508654802 L 261.3911371090912 213.7402206961304 L 263.1574358530901 208.69238905457362 L 264.65660940406957 203.51051341831962 L 265.9078246445176 198.17929354117697 L 266.9263673224008 192.67652115878266 L 267.7236061714581 186.97281203578473 L 268.30690232726363 181.03089790223103 L 268.6794151995606 174.804405645311 L 268.83975213685983 168.2359998919676 L 268.7813959960827 161.2546903710123 L 268.49181901847226 153.77199259810914 L 267.9511469738112 145.67645399705788 L 267.1301625933185 136.8257721985634 L 265.9873097515063 127.03525477600705 L 264.46413722616927 116.06054196590509 L 262.4782187122554 103.57102257518835 L 259.9118283048516 89.10756681402593 L 256.59315164875665 72.01264736148553 L 252.2636674896732 51.30926993739595 L 246.51825383396695 25.47891050922732 L 239.26670960660024 -5.5" stroke-linecap="round" stroke-linejoin="round" stroke-miterlimit="10" stroke-width="2.5" stroke-opacity="0.9" stroke-dasharray=""/></g><g><path fill="none" stroke="#2d70b3" class="dcg-svg-curve" paint-order="fill stroke markers" d=" M 364.8942360684763 405.5 L 364.8942360684763 405.5 L 362.41565137376904 395.0925016773301 L 355.96195520212393 366.67970935060146 L 351.14274431171793 344.210029244399 L 347.46927349305764 325.8557204783447 L 344.63552568835684 310.4644613569428 L 342.44103675539975 297.27329076951355 L 340.7499157004295 285.7565816531434 L 339.4677141025332 275.5400937533095 L 338.52771210141907 266.3498700492348 L 337.8824572469414 257.9805521296677 L 337.498375401481 250.27503421417043 L 337.35225353791225 243.11100837377685 L 337.4289055332643 236.39184857330645 L 337.7196107777294 230.04031605283961 L 338.221073149211 223.99415697057754 L 338.9347398009539 218.20301019889777 L 339.86637364987956 212.62625489632921 L 341.0258054496832 207.23156111723313 L 342.42680889240387 201.99399403970205 L 344.08704942468466 196.8955814795935 L 346.02805619733886 191.92529555018632 L 348.2751571082109 187.07942821260954 L 350.85729856964974 182.3623593084816 L 353.8066431847724 177.78772389104287 L 357.1577987610333 173.37997969346452 L 360.9464810529405 169.17634826732282 L 365.2073536991447 165.22904341986418 L 369.9707324400723 161.6075927239502 L 375.25780997744636 158.40088483560388 L 381.07409564614255 155.7183249606233 L 387.40093879409824 153.68916136471603 L 394.18540694878817 152.4587131739757 L 401.3295051006675 152.18002355846096 L 404.99107696436 152.44415736378107 L 408.68076165036723 152.9996332926629 L 412.37018128625164 153.86037808218128 L 416.0273866982265 155.03705059621126 L 419.61724178906724 156.536182052293 L 423.10202687819094 158.35934633547294 L 426.44226777450683 160.50242119992262 L 429.5977788051572 162.95500729104145 L 432.52888615962104 165.700071808975 L 435.19777506084904 168.7138756235893 L 437.569883604521 171.9662260580477 L 439.6152511495307 175.42107310087303 L 441.30972312258757 179.03743679105054 L 442.635919160623 182.77062166472126 L 443.5838880699175 186.57364500616708 L 444.1513995075089 190.39878371237995 L 444.34385510381475 194.1991333436287 L 444.1738362514536 197.9300740748982 L 443.66033704829204 201.55055130406495 L 442.8277547390459 205.02410113135664 L 441.70472383682215 208.3195789465461 L 440.322883216078 211.41157860385496 L 436.91713172398056 216.91269328215287 L 432.8799506289879 221.43755238098151 L 428.4634694485614 224.97340074205408 L 423.88448175747004 227.56515468819492 L 419.3166866552609 229.29499469472591 L 414.8906094629345 230.26468652307227 L 410.69817975548267 230.58220484012185 L 406.7994233496273 230.35274583450038 L 403.22952556812197 229.67343169035396 L 400.00527516755835 228.6307569337356 L 397.1304532387107 227.29987825857896 L 394.60007731710937 225.74502876519904 L 392.4035935918133 224.02053901872267 L 390.52718536903427 222.17212168055187 L 388.9553796968767 220.23820866734252 L 387.6721175628783 218.25122168566648 L 386.6614251125226 216.23871662583812 L 385.9077939351183 214.22437855958933 L 385.3963522557502 212.2288645169964 L 385.11288748032223 210.27050148759997 L 385.04376407993203 208.36585116230012 L 385.17576874029635 206.53015344910852 L 385.4959063159136 204.777659467777 L 385.9911647037093 203.12186265015998 L 386.64826365962733 201.57563445425765 L 387.45340128645233 200.15126952046478 L 388.3920119455656 198.86044420555103 L 390.6063169366627 196.72220540932653 L 391.847344030274 195.89356021106207 L 393.1523561981805 195.23539479159282 L 394.50082550167315 194.75304135678314 L 395.871133054359 194.4495442475122 L 397.2408465280114 194.32528971368944 L 398.5871148220379 194.3776805942426 L 399.88717154601284 194.60089097978081 L 401.1189278331892 194.98573490444002 L 402.26162367211407 195.51967807271618 L 404.2074234709178 196.9691996930799 L 405.60936384242643 198.79299599296917 L 406.40910702328847 200.8084216120538 L 406.6108271629422 202.83022306343636 L 406.2755596254343 204.6938647875965 L 405.50643077188084 206.2729380640635 L 404.4294939739103 207.48755929448612 L 403.17519581674816 208.30391245427762 L 401.8639600464607 208.72743184332057 L 400.59720750896776 208.7928917839811 L 399.45337977937663 208.55416761415245 L 398.4876338837079 208.07536731806755 L 397.44160659510044 207.0544175999031 L 396.9068636401733 205.86333833940532 L 396.851372303545 204.69233127136187 L 397.1923104719419 203.6912304863839 L 397.81365672186405 202.9627453719992 L 398.58288132940834 202.55887483370373 L 399.3680037365517 202.4809601198256 L 400.05448501201636 202.68492334644506 L 400.67909523345185 203.25723607448148 L 400.90239346577073 203.96294035451226 L 400.7640591169659 204.59211202434028 L 400.3880821882865 205.00570110061932 L 399.8159268494193 205.15362189878556 L 399.3594754258908 204.96502660607698 L 399.13724873839186 204.53488128284593 L 399.25063300094837 204.1589809511169 L 399.6244367240077 204.00605074407474 L 399.8696906851008 204.1901139726011 L 399.8093007861379 204.45729624902478 L 399.57574109725897 204.41917760493206 L 399.6049247627572 204.29631798291018" stroke-linecap="round" stroke-linejoin="round" stroke-miterlimit="10" stroke-width="2.5" stroke-opacity="0.9" stroke-dasharray=""/></g></g><g id="sketch-26405b64"><title>Expression 5</title><path fill="#388c46" stroke="none" paint-order="stroke fill markers" d="" fill-opacity="0.4"/><g><path fill="none" stroke="#388c46" class="dcg-svg-curve" paint-order="fill stroke markers" d=" M 206.5335184864427 204.3472500803599 L 206.5335184864427 204.3472500803599 L 206.53351848608284 204.34725007928597 L 206.53351848592814 204.3472500816359 L 206.533518488519 204.3472500777012 L 206.5335184799128 204.347250081616 L 206.53351849959859 204.34725008261518 L 206.5335184605205 204.34725006619263 L 206.53351853019586 204.34725012505024 L 206.5335184249915 204.34724995937884 L 206.53351853443934 204.34725036722546 L 206.53351864554264 204.34724949627545 L 206.5335175917803 204.34725090144758 L 206.53352088355882 204.3472496407345 L 206.5335135807381 204.34724882040194 L 206.5335277485109 204.34725582196995 L 206.53350316155385 204.34723233216198 L 206.5335385361617 204.34729637948587 L 206.53350710005725 204.3471421160649 L 206.53344591280026 204.34746368702915 L 206.533870057911 204.34696479670836 L 206.53261637838074 204.34735894168625 L 206.53531523828087 204.34783057831135 L 206.53020256416158 204.3449022625885 L 206.53881693866944 204.35420327288483 L 206.52711368541662 204.32956293133458 L 206.5353042697978 204.38768482027652 L 206.56541771070886 204.26944085131905 L 206.39163764620793 204.34377608359236 L 206.4733086686247 204.5389907359287 L 206.74101097964166 204.52708861269014 L 206.8780817961465 204.23445579336015 L 206.6936641253913 203.91272022943815 L 206.300086023101 203.82515900157375 L 205.9364578384994 204.01769482725837 L 205.7292310806419 204.46301187890472 L 205.79663110102607 204.92070060596174 L 206.12483054898618 205.33775398753156 L 206.6876927369351 205.5656473766784 L 207.2005379427128 205.53216655414388 L 207.7113648762296 205.28492799722687 L 208.23733985077297 204.62187233944405 L 208.4001614141756 203.9228869292741 L 208.28082688857708 203.13529298467478 L 207.83297195292886 202.36967109118467 L 207.0510011734998 201.76076323198293 L 205.98310948011104 201.45457301702513 L 205.16521913502498 201.48739916591933 L 204.31956604578795 201.7487554177362 L 203.50965694931025 202.25856223391025 L 202.80911944249056 203.01896937212044 L 202.29656997826808 204.00951242199116 L 202.0480764490007 205.18387223288298 L 202.12780137626572 206.46953654792372 L 202.57818735619307 207.77138552268332 L 203.41164031139994 208.97943664985903 L 204.60571968137288 209.97984791886248 L 206.1031630537613 210.66721158345865 L 207.81681374820698 210.95567512908633 L 209.63817636556564 210.78677944441344 L 211.4474613177821 210.13296754759529 L 213.12290168916124 208.99701458383657 L 214.5477418047755 207.40864567339446 L 215.61424103447848 205.4200638163692 L 216.22492678601697 203.10203687511998 L 216.33155033732095 201.84610781886377 L 216.2919589869916 200.54181288926657 L 216.09646115660317 199.20272449547505 L 215.7358375277749 197.84368217495805 L 215.20137181464602 196.4809809729057 L 214.48493784471395 195.1326079424647 L 213.57916227305725 193.81852215196457 L 212.47768546658762 192.5609696049187 L 211.17554659106702 191.38481852644583 L 209.66972217670587 190.3178917811225 L 207.9598494491712 189.39126092570604 L 206.04916487354643 188.63944979452103 L 203.9456821899359 188.10047414440808 L 201.66361920055454 187.81561819085783 L 199.22505414372975 187.8288209682474 L 196.6617455232295 188.18552029473335 L 194.01697933155003 188.93078883556785 L 191.3472136246773 190.10660967744863 L 188.72317885385843 191.7481972394561 L 186.22998275090168 193.87939421884445 L 183.9656982087747 196.5073810430348 L 182.03793646934042 199.6172149007268 L 180.55808753951118 203.167027214424 L 179.63328625524406 207.08495900562878 L 179.35671686985023 211.2689714645137 L 179.79748766190926 215.59040726940364 L 180.99178263085514 219.90154888213522 L 182.93709366518345 224.04652505587146 L 185.59090683420933 227.87401853552663 L 188.8743142606399 231.24966081060347 L 192.67992133199124 234.06600885414235 L 196.88249891191901 236.24860100273833 L 201.3503959324011 237.7575557076933 L 205.9558656719395 238.58515377522255 L 210.58302645552862 238.75052877811737 L 215.13290942423572 238.29284915583568 L 219.52569436323074 237.26425640089798 L 223.70065750452883 235.72347885688484 L 227.6145295029951 233.7306346129426 L 231.23894306169353 231.34338639899144 L 234.5575207360634 228.61436891437342 L 237.56298723506512 225.58967717343998 L 240.25453469838254 222.3081590146857 L 242.63554649532085 218.80126453979403 L 244.71169979744485 215.09324268865606 L 246.48941458743346 211.20152135377108 L 247.97458835265834 207.13715126079552 L 249.1715428664209 202.90523009812063 L 250.08210500588848 198.5052506106317 L 250.70474202530332 193.93133511633434 L 251.0336689925019 189.17233054182034 L 251.05783886359302 184.21174420636265 L 250.75971061933612 179.02750279588363 L 250.11366394177873 173.5915168675359 L 249.08388414951497 167.8690327915886 L 247.6214692069533 161.8177563758315 L 245.66039634038037 155.38674332237747 L 243.1118037591178 148.51508286059766 L 239.85575038166112 141.13047695316976 L 235.72914036509803 133.14799095715483 L 230.5077148706444 124.46963718933598 L 223.87870919892953 114.98630590054981 L 215.3986027642978 104.58546138694777 L 204.42684530235013 93.17233734079268 L 197.72787016464963 87.07313424148187 L 190.02104897658654 80.72235727172229 L 181.11453513452076 74.14804808346935 L 170.77273410059996 67.40608799789257 L 158.7066294476275 60.59584387166714 L 144.5635161822184 53.884155587995366 L 136.5831867418795 50.64451555157788 L 127.91820650797038 47.54194393786929 L 118.50366310245582 44.635610276245416 L 108.27058717971187 41.999470603174444 L 97.1470457454065 39.725561291244986 L 85.06002320346443 37.92787451231288 L 71.93842519099212 36.74681316821645 L 57.717646300611506 36.35413747365661 L 50.17824163249574 36.51697503264853 L 42.34626080004415 36.95816590849341 L 34.21888865655535 37.71028120496317 L 25.795506543085594 38.80874958022105 L 17.078193053764835 40.29193535902243 L 8.072295545326142 42.20116552144873 L -1.2129250423361668 44.580687854922786 L -5.5 45.88102002998275 L -5.5 405.5 L 251.01332711692163 405.5 L 258.67963398000643 395.7616435986166 L 267.40111473138955 383.08061024129455 L 274.54124268545615 371.3343349715949 L 280.4315612861835 360.47036266705754 L 285.3282682694366 350.420663277212 L 289.43014530919277 341.11247319606696 L 292.8922743292704 332.4741737882805 L 298.3587852298932 316.9427825580928 L 302.4294319670578 303.35415874140705 L 305.55390023317057 291.3261258727912 L 308.02858518217346 280.5552332929828 L 311.77118747264865 261.8734275866198 L 318.49160717652785 225.1598563202224 L 321.195036239425 212.60734193584184 L 322.68768096591856 206.56046184009614 L 324.31693288772567 200.61352020982412 L 326.1173735020976 194.73347519631332 L 328.12725047543796 188.89222211787103 L 330.3898259558467 183.0667404523739 L 332.95479047500606 177.23973639618393 L 335.8797496131747 171.400899116301 L 339.2317427395129 165.54894848663744 L 343.08867417917116 159.69472173889406 L 347.5404052037444 153.86562076719395 L 352.6890390040352 148.11180290311637 L 358.6475898467546 142.5145023528578 L 365.53572108999896 137.1967261943831 L 373.47055378712304 132.33610813777508 L 377.86244394911057 130.1510880254241 L 382.54978375743644 128.17864726389146 L 387.5371916369962 126.46210012164332 L 392.8238566581741 125.05003865864279 L 398.4019072362593 123.99605150805283 L 404.25459470419025 123.35803593173115 L 410.3543715371373 123.19698284475864 L 416.6609984418294 123.57511817718783 L 423.1198783943977 124.553309392771 L 429.6608812043034 126.18770195238659 L 436.1979753681154 128.52564354708107 L 442.6300048241724 131.60108440196447 L 448.84291321050614 135.42979929272423 L 454.71360657998673 140.0049358099978 L 460.1154487987118 145.29351376850448 L 464.92511648881765 151.2345342624541 L 469.03024617619377 157.73926176273835 L 472.3370548398025 164.69400240864198 L 474.776984556942 171.9653417083181 L 476.3114716706352 179.40739590651145 L 476.93418387181896 186.87027311250554 L 476.6704587494272 194.20872919982668 L 475.57412072368663 201.28999646154116 L 473.72224005909027 207.99995602914163 L 471.20864087864766 214.24715653942522 L 468.1370275984352 219.96455818715035 L 464.61449822798534 225.10921282822702 L 460.74600419123857 229.66031709352734 L 456.63006811366756 233.61617701847433 L 452.35584177039493 236.99061461411216 L 448.00141204384613 239.80926388325585 L 443.63315547180673 242.10608483247572 L 439.30589610540574 243.9203010522967 L 435.06362175857464 245.2938600193821 L 430.9405428330961 246.26943485119858 L 426.96232052808296 246.88893294897983 L 423.14733638698465 247.19244707270025 L 419.50791613002787 247.21757219364147 L 412.78141265282693 246.56839908916726 L 406.79980316879534 245.1822295868059 L 401.5415739501961 243.25257764941082 L 396.96442265083067 240.93115839331483 L 393.0167862135093 238.33502800298277 L 389.6449124551937 235.55362417247386 L 386.79692189387856 232.65495729866868 L 384.42492958399987 229.6907353400271 L 382.4859645201143 226.70046035131958 L 380.9421717087704 223.7146362832296 L 379.7606045389606 220.75725168201603 L 378.91279612399575 217.84768994519646 L 378.37422109450574 215.0021958392632 L 378.123710482577 212.23500060568097 L 378.14285219035634 209.55918363316184 L 378.41539153664996 206.98732781215014 L 378.9266362740866 204.5320084099779 L 379.662865614884 202.20614120516368 L 380.61074160789656 200.02320420773313 L 381.7567227685827 197.99733820302555 L 383.08648367476746 196.14332444137088 L 384.58434998708856 194.476433162806 L 386.23276571312243 193.01213465232976 L 388.01181801075387 191.76566572274402 L 389.89885358678794 190.75144955738142 L 391.8682285042214 189.9823762400254 L 393.8912381899773 189.46896518781432 L 395.93627448103007 189.21844848714056 L 397.9692494494827 189.2338341569246 L 399.9543097881466 189.51302772683377 L 401.85484022039 190.04810518455736 L 403.63472117902893 190.82483570081848 L 405.2597687468449 191.8225444229304 L 406.6992496966786 193.01438168980724 L 407.92733883209803 194.36802602252473 L 408.9243766719965 195.84679874184383 L 409.6777972485569 197.41111602251678 L 410.1826285179108 199.02015936565917 L 410.44151684377175 200.63361690169268 L 410.4642834545306 202.21334141726607 L 410.2670742018164 203.7247873967657 L 409.87120492847276 205.1381244818248 L 409.3018272633968 206.42897071202444 L 408.5865422244244 207.5787365316511 L 406.83309313489565 209.40925696852605 L 404.8343598792899 210.58955669399083 L 402.78712991057 211.14745479937224 L 400.8476028088872 211.15617361530053 L 399.1284178996775 210.7136895101626 L 397.7023245368714 209.9270658997994 L 396.6087173590138 208.90215953968354 L 395.86053630021433 207.7376870503524 L 395.45026693722264 206.52223515989485 L 395.35465425147663 205.33293803598002 L 395.5382525987367 204.234887353192 L 395.9561737808107 203.28070521424962 L 396.5564608340615 202.51002763092407 L 397.6742877954244 201.75120988759429 L 398.47906534158477 201.5223628364277 L 399.2657984107593 201.5064645688109 L 399.984510725947 201.6813792111965 L 400.84869031618695 202.22701251545243 L 401.38276190054194 202.98495687570983 L 401.5646328808954 203.80323242535852 L 401.4321644278565 204.54677381655773 L 401.06594648849403 205.11804843398895 L 400.38850476684286 205.53040913445295 L 399.70367152295546 205.54995295370605 L 399.1800087884892 205.27320651298234 L 398.87315241743283 204.72690679881757 L 398.9400984060836 204.2054123939096 L 399.3221444025068 203.85493224271892 L 399.7443952712929 203.86757038008795 L 399.9980407293902 204.16522555255852 L 399.9105944325323 204.49497386988435 L 399.58849709421895 204.5294381462565 L 399.5769072126311 204.26794680812318 L 399.71332541716436 204.28977421069618" stroke-linecap="round" stroke-linejoin="round" stroke-miterlimit="10" stroke-width="2.5" stroke-opacity="0.9" stroke-dasharray=""/></g></g><g id="sketch-26405b64"><title>Expression 6</title><path fill="#fa7e19" stroke="none" paint-order="stroke fill markers" d="" fill-opacity="0.4"/><g><path fill="none" stroke="#fa7e19" class="dcg-svg-curve" paint-order="fill stroke markers" d=" M 206.5335184865719 204.3472500798631 L 206.5335184865719 204.3472500798631 L 206.53351848553075 204.3472500800246 L 206.53351848773968 204.3472500805611 L 206.5335184835492 204.3472500780386 L 206.53351849053092 204.34725008591357 L 206.53351848126093 204.34725006525287 L 206.53351848280002 204.3472501123118 L 206.53351852661763 204.34725002893614 L 206.53351836307786 204.34725012373374 L 206.533518756714 204.3472501049382 L 206.53351794694396 204.3472498549665 L 206.53351944885253 204.34725088912117 L 206.53351703020147 204.34724779958074 L 206.53352000907037 204.34725569914895 L 206.53352050849549 204.34723815228227 L 206.53350230330307 204.34726818012834 L 206.53356532029477 204.34723662956574 L 206.5334184102722 204.34723465550218 L 206.5337140504995 204.34734612522635 L 206.53317871463037 204.34692707125237 L 206.53400836756498 204.34813186735653 L 206.53307985452548 204.34512436851062 L 206.53249430273706 204.35164267044829 L 206.53995294056045 204.3408837175897 L 206.5157823816313 204.3511890290043 L 206.57040108939958 204.35526692724457 L 206.46291492667933 204.3070242152252 L 206.5301536106691 204.48903184393365 L 206.72496834074366 204.40751166945913 L 206.71379830552326 204.1400894850678 L 206.4208720821194 204.0017333514995 L 206.13585626187415 204.13975576215964 L 206.00424372065797 204.50806665543516 L 206.14649606509133 204.8792916700316 L 206.5471137520762 205.1285892120958 L 206.98918265777291 205.11899157230508 L 207.42410372598482 204.86045135927225 L 207.71321410547398 204.3583234874573 L 207.7215192791536 203.69337594518646 L 207.35667140811034 203.0200175379229 L 206.60841269124694 202.54654370047203 L 205.85420491917463 202.45701353109132 L 205.03489089140788 202.68343377199358 L 204.28389471448628 203.2673085056914 L 203.76019465969185 204.19226020329236 L 203.6163334660822 204.9570622398674 L 203.68322043309905 205.7890861475399 L 203.98681554819558 206.62920572975182 L 204.53556116499078 207.40917544585582 L 205.31739270894644 208.05743402485467 L 206.29901963398703 208.50579352728684 L 207.42766169868764 208.69596118645276 L 208.6348793049673 208.58488456003786 L 209.84170252549268 208.14824583009627 L 210.9640871909581 207.3819345751196 L 211.91784209895138 206.301821188099 L 212.62250312275225 204.94248855724774 L 213.0040493027962 203.35569668131126 L 212.99675065317132 201.60927533774537 L 212.54475116328769 199.78692466145785 L 211.604221690484 197.9891010922421 L 210.1470867640366 196.33477745063635 L 208.16742993217431 194.9633332030099 L 206.98826918967785 194.43301706198065 L 205.69161758881737 194.0350572072106 L 204.28818083288712 193.79219822465654 L 202.7926926828546 193.7276647725931 L 201.22451702042702 193.86455183665652 L 199.6082080040955 194.2249809322098 L 197.97395476062565 194.82899446031982 L 196.3578144378065 195.6931800369021 L 194.80161813060326 196.82904889410727 L 193.35242461124994 198.24123844326058 L 192.06140521126383 199.92566669535523 L 190.98207823709393 201.86782853241937 L 190.16787904875895 204.0414780295026 L 189.66915197990295 206.40796926059522 L 189.52977177223846 208.91651088656818 L 189.78372209461338 211.50551302665662 L 190.45204463313746 214.1050673919698 L 191.5405910494889 216.64042171468378 L 193.03894058000571 219.036124677778 L 194.92069047866528 221.22037564222802 L 197.14511487639567 223.1290565434788 L 199.65997035711774 224.70897117146927 L 202.40505759795505 225.9199583323631 L 205.31606620732134 226.7357414928057 L 208.32824502182768 227.1435772614311 L 211.37953504951855 227.14292305045285 L 214.41294153208005 226.7434342234934 L 217.3780664707881 225.9626197085158 L 220.2318433727142 224.8234471886104 L 222.93859628886537 223.35211797075192 L 225.4695835623336 221.57615055260445 L 227.8021905179007 219.5228379094423 L 229.91891603535655 217.21808605524043 L 231.80626680890782 214.68560323884515 L 233.45363885419937 211.94638850754944 L 234.8522340396764 209.0184614409804 L 235.99403279333825 205.91677733767634 L 236.87082329406877 202.6532803289193 L 237.4732717538492 199.2370581342791 L 237.79000656273695 195.67457489910365 L 237.80667963516828 191.9699722142091 L 237.50495984545773 188.12544335897795 L 236.8614047317207 184.14170324139312 L 235.84614670952482 180.0185986160426 L 234.42131831658548 175.75593341770033 L 232.5391277189238 171.3546278215328 L 230.13948260610886 166.81839519726617 L 227.1470526833051 162.15622117490304 L 223.46766997292028 157.38608293732483 L 218.98401770409214 152.540583277498 L 213.55070648878328 147.67553289055377 L 206.98919048982611 142.8830441335472 L 199.08375388621772 138.3114360186102 L 194.54930376036822 136.17727386137827 L 189.5814134443263 134.1951439880513 L 184.14421138762694 132.41498589887482 L 178.2017730892893 130.89853278677356 L 171.71989749759905 129.72164358583223 L 164.6687665911892 128.97684584639808 L 157.0267904492238 128.77593011439967 L 148.78598962888896 129.25229165308735 L 139.9592800050464 130.56249876761905 L 130.58995527716036 132.8862659462887 L 120.76343442975386 136.42363159560063 L 115.72026153451574 138.71382675111386 L 110.62085302959247 141.38773800695247 L 105.4938878995876 144.47184486751786 L 100.3732175650247 147.99132564259247 L 95.29814220569432 151.96917120347456 L 90.31355250733455 156.42515436510627 L 85.46988874217831 161.37466785852212 L 80.82286631814404 166.8274581947576 L 76.43291815944659 172.78629987056217 L 72.36431106762859 179.24567332750232 L 68.68390694050674 186.19052908902447 L 65.45956124990025 193.59523701043338 L 62.758180390483176 201.42283037443883 L 60.643494934320614 209.62465615339354 L 59.173644345227046 218.14053197257527 L 58.39870560541229 226.89948511723688 L 58.35832761432553 235.82110927737156 L 59.079649031753064 244.81752318077716 L 60.575674388364064 253.79585717023747 L 62.84425911065176 262.6611367488195 L 65.8678093976485 271.31938481526225 L 69.61374227152567 279.68073473390655 L 74.03568251258051 287.66234004463456 L 79.07530633329853 295.19088518066735 L 84.66468615443608 302.204542342209 L 90.72895419252833 308.6542762009129 L 97.18908865591837 314.5044615818774 L 103.96463499304537 319.73284046938113 L 110.97620204386027 324.32989580514663 L 118.14761291053122 328.29775547580135 L 125.40763581510487 331.64875867557714 L 132.69126462863807 334.4038194404319 L 139.94055716555874 336.59071164384534 L 147.10506876298984 338.2423802749132 L 154.14193808135144 339.3953596791804 L 161.01569200436367 340.08835436559224 L 167.69783853632475 340.3610147559565 L 174.16631272434444 340.25292061425864 L 180.40483295033445 339.802769633038 L 186.40221527555474 339.0477578307353 L 192.1516833213606 338.02313159839184 L 197.65020144724448 336.76188773484853 L 207.89725709210396 333.649326332448 L 217.17158886729084 329.92466288159073 L 225.5273233115918 325.76373595827687 L 233.03300820612304 321.3071437677119 L 239.76346629649169 316.6650049673149 L 245.7943374480368 311.9219769082348 L 256.04478769201603 302.3723445772037 L 264.30783070730126 292.9911528293887 L 271.0149044988423 283.94423491223966 L 276.50889950993457 275.29859527302415 L 281.05781440600555 267.0649087761779 L 284.8699722403378 259.2230549842315 L 288.1075807382345 251.73706771339323 L 290.89780268720864 244.56367079878768 L 293.34144023976285 237.65699169244385 L 297.499030589186 224.46075717998534 L 301.0787141877434 211.79420223953665 L 307.97082083862097 186.71923235057628 L 311.9826119836891 173.65266484433076 L 314.31463116752434 166.83695234216583 L 316.9597638466793 159.77242344328087 L 320.0104908507779 152.4129488834284 L 323.5828458804743 144.71383702134273 L 327.82427772339395 136.63552946399975 L 332.92375831640805 128.15041450763516 L 339.12440464374924 119.25489652100627 L 346.73825839183723 109.99020460886581 L 356.16118045075416 100.47739772212721 L 361.70019453654754 95.70105471424088 L 367.8818414977829 90.97447010782895 L 374.7799472165592 86.36583884175249 L 382.4703293367105 81.96511441777176 L 391.02696019744656 77.88882805889622 L 400.5159647957771 74.2851105185704 L 410.9867754440192 71.33827705993806 L 416.5982862291678 70.1794890407316 L 422.45980383528905 69.27186221701066 L 428.56669088342494 68.64943349081477 L 434.9102737354092 68.34837122245602 L 441.47716234408983 68.40661176691356 L 448.2485581450043 68.86333713093518 L 455.1995820149366 69.75827130239739 L 462.29866435855365 71.13077769924917 L 469.5070494927958 73.01874872826895 L 476.7784754746246 75.45729123240577 L 484.0590967327365 78.47722887975655 L 491.2877183485863 82.10346394981913 L 498.39640548481225 86.35326530871389 L 505.3115174017748 91.23457442762418 L 511.95519157054423 96.74444384694142 L 518.247269688232 102.86773847044707 L 524.1076157996678 109.57623515518178 L 529.4587311227956 116.82824645396195 L 534.2285263215726 124.56886783152949 L 538.3530767920134 132.73090448386424 L 541.7791668970171 141.23647742234354 L 544.466430306527 149.99924517559904 L 546.3889179580963 158.92711595102824 L 547.5359709962667 167.92527465941447 L 547.91233774472 176.89931781599248 L 547.5375426567925 185.7582818917626 L 546.4445813448983 194.41736793521133 L 544.6780700599329 202.80020370110194 L 542.2920138143515 210.8405372724369 L 539.3473718030583 218.48331471667916 L 535.9095927314979 225.68515029339818 L 532.046270014477 232.41424442425628 L 527.8250332661723 238.6498379352048 L 523.311754200964 244.38130965269403 L 518.5691074446729 249.60702931928196 L 513.6554938419424 254.33307163644247 L 508.624307998374 258.5718834491095 L 503.52351383171776 262.340978087222 L 498.39548144596654 265.6617116203243 L 493.2770345437194 268.5581774646581 L 488.19965835620235 271.0562398148798 L 483.18982215582184 273.182713453754 L 473.45599179951046 276.42898611606046 L 464.2029101680689 278.5081143019128 L 455.5053947460715 279.6160115933468 L 447.3989649093633 279.9273129816513 L 439.89109440482935 279.59330683455755 L 432.97018252181203 278.7423567977705 L 426.61238116459947 277.4817035072936 L 420.78659938773615 275.8998995005266 L 415.45805273678866 274.0694123579576 L 410.5907000228658 272.0491301041195 L 402.0982150053259 267.62018560959564 L 395.04351255633674 262.89176925714804 L 389.1960778348852 258.0413553618302 L 384.36330670130127 253.18001059897693 L 380.387542231445 248.3757480935463 L 377.14119556768094 243.66894111256624 L 374.5216762555386 239.0824327421958 L 372.44681870861336 234.62816523636428 L 370.8510074402478 230.31154490828686 L 369.68199336019126 226.1343391240152 L 368.898313167012 222.0966234181713 L 368.4672025332001 218.19811487005884 L 368.3628970836731 214.43910970453464 L 368.56522712045563 210.8211659735685 L 369.05842559970944 207.3476211422217 L 369.83008128213373 204.0239996759931 L 370.8701795719104 200.8583409596922 L 372.17018264758167 197.86145895398127 L 373.72210890432626 195.0471292819111 L 375.51758061889956 192.43218536934774 L 377.54681947694513 190.0364921611542 L 379.7975836369675 187.88275399206876 L 382.2540587324287 185.9961035629836 L 384.8957395851077 184.40341389277026 L 387.6963693758366 183.13227790633022 L 390.6230367959831 182.20961512569886 L 393.6355649094012 181.6598959484527 L 396.6863505668844 181.50302402145692 L 399.7208197765153 181.75198552029994 L 402.67864068529616 182.41045409534465 L 405.49577218797305 183.4706176549127 L 408.1073202774315 184.91154679932757 L 410.4510360335997 186.6984304086243 L 412.4711433665466 188.78294233794858 L 414.12206779751216 191.10486972146265 L 415.3715881328489 193.59494527673704 L 416.2029769584795 196.17862233927795 L 416.6158344033801 198.78036314698008 L 416.6255241034549 201.32792376772423 L 416.2613407330924 203.75613609247694 L 415.5637207363443 206.00980037441212 L 414.5809125777909 208.04547574401914 L 413.3655368254259 209.83214327952751 L 411.97140289476215 211.35087349801853 L 410.4508384241685 212.59373131492768 L 408.8526630050377 213.56219063058717 L 407.2208276719203 214.26531785784007 L 405.5936607433735 214.7179372463987 L 404.00361335252654 214.93892985864073 L 402.47738023521646 214.94975749280806 L 401.03627499616425 214.77325187792633 L 399.6967554973079 214.4326718615194 L 398.4710169689147 213.9510070416609 L 396.3919234918981 212.65230012743666 L 394.8331511682855 211.04125132764045 L 393.7941188648424 209.2613328389485 L 393.2504428019064 207.43534066510492 L 393.1609882685227 205.6671637705924 L 393.4720278921184 204.0436475347683 L 394.11961678067365 202.6356796097734 L 395.0312147401701 201.49819766045474 L 396.12742739239866 200.66922884796767 L 397.32452033171035 200.16838828049046 L 398.5380638629693 199.99549846721396 L 399.687684452046 200.1301027087431 L 400.70247716598897 200.5325700771528 L 401.5262742877077 201.1471947090698 L 402.12179914731087 201.90722057814534 L 402.4728526675789 202.74120736304982 L 402.5840727299195 203.5797725176004 L 402.47834592029074 204.36164034491378 L 401.9959308083078 205.32574072584555 L 401.2650652639646 205.95605058050768 L 400.4463400266378 206.22733901550677 L 399.67753159297166 206.17480036776033 L 399.0580161778002 205.87289165099494 L 398.5560387378876 205.2435215382685 L 398.441989834413 204.55481981340856 L 398.64765793675673 203.9831086940254 L 399.16216034922303 203.58922060673265 L 399.70954542673167 203.58349998603134 L 400.0813183672376 203.8579718078661 L 400.1833516957704 204.30213431431966 L 399.989494516658 204.6168254904002 L 399.6142991009086 204.6638052725096 L 399.4364422855001 204.40745465496468 L 399.57712911297614 204.205781667446 L 399.7576693576907 204.30289888309147 L 399.7198158393876 204.39824281158894" stroke-linecap="round" stroke-linejoin="round" stroke-miterlimit="10" stroke-width="2.5" stroke-opacity="0.9" stroke-dasharray=""/></g></g></g><g id="labels-26405b64"/></g></svg>