<?xml version="1.0" encoding="UTF-8" standalone="no"?>
<!-- Created with Inkscape (http://www.inkscape.org/) -->

<svg
   xmlns:dc="http://purl.org/dc/elements/1.1/"
   xmlns:cc="http://creativecommons.org/ns#"
   xmlns:rdf="http://www.w3.org/1999/02/22-rdf-syntax-ns#"
   xmlns:svg="http://www.w3.org/2000/svg"
   xmlns="http://www.w3.org/2000/svg"
   xmlns:xlink="http://www.w3.org/1999/xlink"
   version="1.1"
   width="800"
   height="800"
   id="Sphere_wireframe_15deg_4r">
  <title
     id="title3">Sphere wireframe</title>
  <desc
     id="desc5">
     Sphere wireframe
     depicted with perspective projection

     viewer distance from center: 4r
     line distancd: 15°
     line width: 2°
     axial tilt: 37.5°
     rotation: 11.25°
     base color: #22326b

     plotted with several adapted cubic bezier-curves
     The plotcurves were calculated by some fancy python code. The bezier-curve
     controlpoints are placed on tangents of the function-curve. They are
     furthermore positioned in a way to minimize the average quadratic distance
     between the bezier-curve and the function. This gives an accuracy, so that
     the deviation is in no point greater than 0.00001.

     about: http://commons.wikimedia.org/wiki/Image:Sphere_wireframe_15deg_4r.svg
     source: http://commons.wikimedia.org/
     rights: GNU Free Documentation license,
             Creative Commons Attribution ShareAlike license
  </desc>
  <metadata
     id="metadata96">
    <rdf:RDF>
      <cc:Work
         rdf:about="">
        <dc:format>image/svg+xml</dc:format>
        <dc:type
           rdf:resource="http://purl.org/dc/dcmitype/StillImage" />
        <dc:title>Sphere wireframe</dc:title>
      </cc:Work>
    </rdf:RDF>
  </metadata>
  <defs
     id="defs7">
    <linearGradient
       id="linearGradient5378">
      <stop
         id="stop5380"
         style="stop-color:#6395e8;stop-opacity:1"
         offset="0" />
      <stop
         id="stop5382"
         style="stop-color:#1b55b4;stop-opacity:1"
         offset="1" />
    </linearGradient>
    <radialGradient
       cx="-0.1"
       cy="0.1"
       r="1.2"
       fx="-0.30000001"
       fy="0.60000002"
       id="LightSpot_front"
       gradientUnits="userSpaceOnUse">
      <stop
         id="stop10"
         style="stop-color:#b6bbce;stop-opacity:1"
         offset="0" />
      <stop
         id="stop12"
         style="stop-color:#8a94ba;stop-opacity:1"
         offset="0.1" />
      <stop
         id="stop14"
         style="stop-color:#5f6c99;stop-opacity:1"
         offset="0.30000001" />
      <stop
         id="stop16"
         style="stop-color:#22326b;stop-opacity:1"
         offset="1" />
    </radialGradient>
    <radialGradient
       cx="0.1"
       cy="-0.1"
       r="1.2"
       fx="0.30000001"
       fy="-0.60000002"
       id="LightSpot_back"
       gradientUnits="userSpaceOnUse">
      <stop
         id="stop19"
         style="stop-color:#b6bbce;stop-opacity:1"
         offset="0" />
      <stop
         id="stop21"
         style="stop-color:#8a94ba;stop-opacity:1"
         offset="0.1" />
      <stop
         id="stop23"
         style="stop-color:#5f6c99;stop-opacity:1"
         offset="0.30000001" />
      <stop
         id="stop25"
         style="stop-color:#22326b;stop-opacity:1"
         offset="1" />
    </radialGradient>
    <radialGradient
       cx="0.1"
       cy="-0.1"
       r="1.2"
       fx="0.30000001"
       fy="-0.60000002"
       id="radialGradient3207"
       xlink:href="#LightSpot_back"
       gradientUnits="userSpaceOnUse" />
    <radialGradient
       cx="-0.1"
       cy="0.1"
       r="1.2"
       fx="-0.30000001"
       fy="0.60000002"
       id="radialGradient3249"
       xlink:href="#LightSpot_front"
       gradientUnits="userSpaceOnUse" />
    <radialGradient
       cx="110.4511"
       cy="65.189087"
       r="218.64407"
       fx="110.4511"
       fy="65.189087"
       id="radialGradient5384"
       xlink:href="#linearGradient5378"
       gradientUnits="userSpaceOnUse"
       gradientTransform="matrix(1,0,0,1.1550387,0,-31.270524)" />
    <radialGradient
       cx="-0.13049494"
       cy="0.62298417"
       r="0.99728251"
       fx="-0.13049494"
       fy="0.62298417"
       id="radialGradient5414"
       xlink:href="#linearGradient5378"
       gradientUnits="userSpaceOnUse"
       gradientTransform="matrix(0,1,-1.0027249,0,0.49418681,0.75482389)" />
    <radialGradient
       cx="110.4511"
       cy="65.189087"
       r="218.64407"
       fx="110.4511"
       fy="65.189087"
       id="radialGradient5416"
       xlink:href="#linearGradient5378"
       gradientUnits="userSpaceOnUse"
       gradientTransform="matrix(1,0,0,1.1550387,0,-31.270524)" />
  </defs>
  <path
     d="m 357.62712,201.69492 a 218.64407,252.54237 0 1 1 -437.288146,0 218.64407,252.54237 0 1 1 437.288146,0 z"
     transform="matrix(1.7671201,-0.4734984,0.40994158,1.5299228,71.751594,157.16011)"
     id="path3379"
     style="fill:url(#radialGradient5416);fill-opacity:1;stroke:none" />
  <g
     transform="matrix(386.37033,-103.52762,-103.52762,-386.37033,400.03446,399.9295)"
     id="front"
     style="fill:#739fec;fill-opacity:0.67647059;stroke:url(#radialGradient5414);stroke-width:0.0025;stroke-miterlimit:4;stroke-opacity:1;stroke-dasharray:none">
    <path
       d="M 0.51224,-0.85884 C 0.36984,-0.94377 0.18805,-0.9905 0,-0.9905 c -0.18805,0 -0.36984,0.04673 -0.51224,0.13166 -0.01067,0.00636 -0.02121,0.01292 -0.03164,0.01967 C -0.39661,-0.93461 -0.2021,-0.98776 0,-0.98776 c 0.20211,0 0.39661,0.05315 0.54388,0.14859 C 0.53345,-0.84592 0.52291,-0.85248 0.51224,-0.85884 z"
       id="parallel_-30.0_front"
       style="fill:#739fec;fill-opacity:0.67647059;stroke:url(#radialGradient5414);stroke-width:0.0025;stroke-miterlimit:4;stroke-opacity:1;stroke-dasharray:none" />
    <path
       d="m 0.83777,-0.54602 c -0.09323,-0.14304 -0.26676,-0.25671 -0.48419,-0.3171 -0.22612,-0.0628 -0.48103,-0.0628 -0.70715,0 -0.21744,0.06038 -0.39097,0.17405 -0.4842,0.3171 -0.00473,0.00726 -0.00937,0.01458 -0.01391,0.02195 0.09083,-0.14761 0.26651,-0.26571 0.48891,-0.3286 0.2316,-0.06549 0.49394,-0.06549 0.72554,0 0.22239,0.06289 0.39808,0.18099 0.48891,0.3286 C 0.84714,-0.53145 0.8425,-0.53876 0.83777,-0.54602 z"
       id="parallel_-15.0_front"
       style="fill:#739fec;fill-opacity:0.67647059;stroke:url(#radialGradient5414);stroke-width:0.0025;stroke-miterlimit:4;stroke-opacity:1;stroke-dasharray:none" />
    <path
       d="M 0.97781,-0.20948 C 0.94699,-0.35335 0.83527,-0.48582 0.66242,-0.58332 0.48098,-0.68567 0.24485,-0.74236 1e-5,-0.74236 c -0.24485,0 -0.48097,0.05668 -0.66242,0.15904 -0.17286,0.0975 -0.28458,0.22996 -0.3154,0.37384 -0.00165,0.0077 -0.00318,0.01528 -0.0046,0.02272 0.02765,-0.14542 0.13839,-0.27995 0.31224,-0.37919 C -0.48753,-0.6702 -0.24829,-0.72807 0,-0.72807 c 0.24828,0 0.48752,0.05787 0.67016,0.16212 0.17386,0.09924 0.2846,0.23377 0.31225,0.37919 C 0.98099,-0.1942 0.97946,-0.20178 0.97781,-0.20948 z"
       id="parallel_0.0_front"
       style="fill:#739fec;fill-opacity:0.67647059;stroke:url(#radialGradient5414);stroke-width:0.0025;stroke-miterlimit:4;stroke-opacity:1;stroke-dasharray:none" />
    <path
       d="M 0.9918,0.12782 C 1.01179,-0.02732 0.92267,-0.18063 0.74459,-0.29717 0.55582,-0.42069 0.28472,-0.49141 1e-5,-0.49141 c -0.28471,0 -0.55581,0.07071 -0.74458,0.19423 -0.1781,0.11654 -0.26722,0.26985 -0.24723,0.425 9.7e-4,0.00747 0.00199,0.01479 0.00308,0.02195 -0.02349,-0.15504 0.06361,-0.30896 0.24131,-0.42622 0.18847,-0.12435 0.46098,-0.1957 0.7474,-0.1957 0.28643,-1e-5 0.55893,0.07134 0.7474,0.19569 0.17772,0.11726 0.26482,0.27119 0.24133,0.42623 C 0.98985,0.14233 0.99087,0.13501 0.9918,0.12782 z"
       id="parallel_15.0_front"
       style="fill:#739fec;fill-opacity:0.67647059;stroke:url(#radialGradient5414);stroke-width:0.0025;stroke-miterlimit:4;stroke-opacity:1;stroke-dasharray:none" />
    <path
       d="M 0.89656,0.44292 C 0.9522,0.3303 0.93182,0.21079 0.83898,0.10539 0.73962,-0.0074 0.56432,-0.09607 0.34801,-0.14287 c -0.22319,-0.04829 -0.47281,-0.04829 -0.69601,0 -0.21631,0.0468 -0.39162,0.13547 -0.49098,0.24826 -0.09284,0.1054 -0.11322,0.22491 -0.05758,0.33753 0.00332,0.00672 0.00665,0.01328 0.00999,0.01968 -0.05818,-0.11151 -0.04005,-0.23039 0.05119,-0.33547 0.09762,-0.11243 0.27191,-0.20101 0.48771,-0.24782 0.22284,-0.04833 0.47248,-0.04834 0.69533,0 0.2158,0.0468 0.3901,0.13539 0.48772,0.24782 C 0.92662,0.23221 0.94475,0.35109 0.88657,0.4626 0.88991,0.4562 0.89324,0.44964 0.89656,0.44292 z"
       id="parallel_30.0_front"
       style="fill:#739fec;fill-opacity:0.67647059;stroke:url(#radialGradient5414);stroke-width:0.0025;stroke-miterlimit:4;stroke-opacity:1;stroke-dasharray:none" />
    <path
       d="M 0.69981,0.71433 C 0.79156,0.62445 0.80807,0.52048 0.74584,0.4247 0.679,0.32181 0.5272,0.23742 0.32747,0.19222 c -0.20782,-0.04703 -0.44713,-0.04703 -0.65494,0 -0.19973,0.0452 -0.35152,0.12959 -0.41837,0.23248 -0.06223,0.09578 -0.04572,0.19975 0.04603,0.28963 0.00564,0.00553 0.01124,0.01088 0.01678,0.01606 -0.09409,-0.08799 -0.11332,-0.19058 -0.05353,-0.28546 0.06419,-0.10186 0.2137,-0.18572 0.41153,-0.2307 0.20608,-0.04685 0.44398,-0.04685 0.65006,0 0.19783,0.04498 0.34734,0.12884 0.41153,0.2307 C 0.79635,0.53981 0.77712,0.6424 0.68303,0.73039 0.68857,0.72521 0.69417,0.71986 0.69981,0.71433 z"
       id="parallel_45.0_front"
       style="fill:#739fec;fill-opacity:0.67647059;stroke:url(#radialGradient5414);stroke-width:0.0025;stroke-miterlimit:4;stroke-opacity:1;stroke-dasharray:none" />
    <path
       d="M 0.38347,0.92355 C 0.49343,0.8779 0.5598,0.81445 0.56846,0.7468 0.57712,0.67914 0.52735,0.61259 0.42972,0.56141 0.32159,0.50472 0.16484,0.47216 0,0.47215 c -0.16484,0 -0.32159,0.03257 -0.42972,0.08926 -0.09763,0.05118 -0.1474,0.11773 -0.13874,0.18539 0.00866,0.06765 0.07503,0.1311 0.18499,0.17675 0.00948,0.00394 0.01901,0.00773 0.0286,0.01137 C -0.46806,0.89195 -0.5387,0.83025 -0.55113,0.76356 -0.56349,0.69727 -0.51734,0.63142 -0.42273,0.58054 -0.31766,0.52403 -0.16298,0.49141 -1e-5,0.49141 c 0.16298,0 0.31766,0.03262 0.42274,0.08913 0.09461,0.05088 0.14076,0.11672 0.1284,0.18302 C 0.5387,0.83025 0.46806,0.89195 0.35487,0.93492 0.36446,0.93128 0.37399,0.92749 0.38347,0.92355 z"
       id="parallel_60.0_front"
       style="fill:#739fec;fill-opacity:0.67647059;stroke:url(#radialGradient5414);stroke-width:0.0025;stroke-miterlimit:4;stroke-opacity:1;stroke-dasharray:none" />
    <path
       d="M 0.01867,0.99026 C 0.12814,0.98734 0.22545,0.95917 0.27331,0.91659 0.31779,0.87701 0.31339,0.83042 0.26156,0.79254 0.20334,0.74998 0.09461,0.72514 -0.01967,0.72835 -0.13087,0.73146 -0.22918,0.76063 -0.27585,0.8043 -0.31892,0.84461 -0.31188,0.89161 -0.2571,0.9292 -0.19795,0.96977 -0.0922,0.99321 0.01867,0.99026 z M 0.01757,0.98753 C -0.08636,0.9903 -0.18549,0.9684 -0.24097,0.93047 -0.29241,0.89529 -0.299,0.85128 -0.25849,0.81355 -0.21456,0.77263 -0.12202,0.74536 -0.0175,0.74259 0.08927,0.73976 0.19071,0.76295 0.24513,0.80259 0.29374,0.838 0.29793,0.88155 0.2563,0.91856 0.21149,0.95841 0.12025,0.98479 0.01757,0.98753 z"
       id="parallel_75.0_front"
       style="fill:#739fec;fill-opacity:0.67647059;stroke:url(#radialGradient5414);stroke-width:0.0025;stroke-miterlimit:4;stroke-opacity:1;stroke-dasharray:none" />
    <path
       d="M 0.01744,0.99985 C -0.00138,1.00018 -0.02571,0.83081 -0.04727,0.54875 -0.0726,0.21747 -0.0897,-0.21112 -0.09084,-0.54334 c -9.8e-4,-0.28282 0.00978,-0.45355 0.02856,-0.45472 0.00603,-3.7e-4 0.01204,-7e-4 0.01802,-9.6e-4 -0.01729,7.7e-4 -0.02666,0.17134 -0.02487,0.45425 0.00211,0.33248 0.01923,0.76165 0.04362,1.09326 0.02076,0.28219 0.04369,0.45149 0.06099,0.45088 -0.00601,2.1e-4 -0.01203,3.7e-4 -0.01804,4.8e-4 z"
       id="meridian_75.0_front"
       style="fill:#739fec;fill-opacity:0.67647059;stroke:url(#radialGradient5414);stroke-width:0.0025;stroke-miterlimit:4;stroke-opacity:1;stroke-dasharray:none" />
    <path
       d="M 0.12595,0.99204 C 0.06234,1.00011 -0.01641,0.92208 -0.09568,0.7722 -0.18764,0.59833 -0.27242,0.34273 -0.32919,0.06801 -0.38596,-0.2067 -0.40943,-0.47496 -0.39392,-0.67104 c 0.01337,-0.16901 0.05474,-0.27186 0.11634,-0.28966 0.00589,-0.0017 0.01189,-0.00338 0.018,-0.00502 -0.06108,0.01642 -0.10196,0.11845 -0.11492,0.28728 -0.01508,0.19631 0.00885,0.46592 0.06595,0.74222 0.05709,0.27629 0.14199,0.5333 0.23364,0.70754 C 0.00391,0.92118 0.08188,0.99865 0.14446,0.98951 0.1384,0.9904 0.13223,0.99124 0.12595,0.99204 z"
       id="path72"
       style="fill:#739fec;fill-opacity:0.67647059;stroke:url(#radialGradient5414);stroke-width:0.0025;stroke-miterlimit:4;stroke-opacity:1;stroke-dasharray:none" />
    <path
       d="M 0.2465,0.96914 C 0.1395,0.99636 0.00537,0.94041 -0.13079,0.81166 -0.27936,0.67116 -0.41873,0.45498 -0.51808,0.21073 -0.61744,-0.03352 -0.66854,-0.2856 -0.66022,-0.48991 c 0.00763,-0.18724 0.06463,-0.32093 0.16024,-0.37613 0.00574,-0.00331 0.01162,-0.00663 0.01763,-0.00994 -0.09651,0.05314 -0.15421,0.18613 -0.16209,0.37389 -0.00861,0.20517 0.04293,0.45944 0.14321,0.70598 0.10028,0.24653 0.24086,0.46458 0.39024,0.60548 0.1367,0.12895 0.27085,0.1839 0.37706,0.15458 C 0.25945,0.96578 0.25292,0.96751 0.2465,0.96914 z"
       id="path74"
       style="fill:#739fec;fill-opacity:0.67647059;stroke:url(#radialGradient5414);stroke-width:0.0025;stroke-miterlimit:4;stroke-opacity:1;stroke-dasharray:none" />
    <path
       d="M 0.3915,0.92018 C 0.25828,0.97686 0.08751,0.96022 -0.0903,0.87316 -0.27736,0.78158 -0.459,0.61854 -0.5995,0.41614 -0.73999,0.21374 -0.82922,-0.01344 -0.84962,-0.2207 c -0.01939,-0.19703 0.02474,-0.36285 0.12442,-0.46784 0.00535,-0.00564 0.01067,-0.01111 0.01594,-0.01641 -0.10261,0.10324 -0.14886,0.26933 -0.13026,0.46807 0.01958,0.20923 0.10962,0.43953 0.25203,0.64469 0.14241,0.20516 0.3267,0.37004 0.51587,0.46155 C 0.10807,0.95627 0.27985,0.97101 0.41245,0.91098 0.40538,0.91418 0.3984,0.91724 0.3915,0.92018 z"
       id="path76"
       style="fill:#739fec;fill-opacity:0.67647059;stroke:url(#radialGradient5414);stroke-width:0.0025;stroke-miterlimit:4;stroke-opacity:1;stroke-dasharray:none" />
    <path
       d="M 0.57458,0.81845 C 0.44048,0.91259 0.2599,0.9489 0.06234,0.92139 -0.14173,0.89298 -0.35118,0.79827 -0.52958,0.65374 -0.70799,0.50922 -0.84412,0.32399 -0.91426,0.13027 c -0.06792,-0.18755 -0.06988,-0.37174 -0.00563,-0.52245 0.00348,-0.00815 0.00706,-0.01626 0.01075,-0.02431 -0.06905,0.15072 -0.07003,0.33715 -0.00272,0.52793 0.06956,0.19717 0.2076,0.38632 0.38936,0.53356 0.18177,0.14724 0.39544,0.24301 0.60276,0.27013 C 0.28085,0.94138 0.46301,0.90172 0.59612,0.80289 0.58901,0.80817 0.58183,0.81336 0.57458,0.81845 z"
       id="path78"
       style="fill:#739fec;fill-opacity:0.67647059;stroke:url(#radialGradient5414);stroke-width:0.0025;stroke-miterlimit:4;stroke-opacity:1;stroke-dasharray:none" />
    <path
       d="M 0.79209,0.6104 C 0.68858,0.74472 0.53021,0.8415 0.34045,0.88636 0.14496,0.93257 -0.07292,0.9211 -0.27897,0.85377 -0.48502,0.78645 -0.66764,0.66705 -0.79812,0.51433 -0.92479,0.36608 -0.99546,0.19446 -0.99969,0.02494 c -2.5e-4,-0.0101 -3.5e-4,-0.02019 -3e-4,-0.03029 -9.2e-4,0.1729 0.06791,0.3494 0.19591,0.5022 0.13136,0.15683 0.3174,0.27959 0.5279,0.34837 0.21049,0.06879 0.43313,0.07956 0.63175,0.03055 C 0.5491,0.82803 0.70887,0.72622 0.81021,0.58613 0.8043,0.59431 0.79826,0.6024 0.79209,0.6104 z"
       id="path80"
       style="fill:#739fec;fill-opacity:0.67647059;stroke:url(#radialGradient5414);stroke-width:0.0025;stroke-miterlimit:4;stroke-opacity:1;stroke-dasharray:none" />
    <path
       d="M 0.96902,0.247 C 0.91233,0.4694 0.74111,0.6661 0.4987,0.78722 0.24959,0.91169 -0.0498,0.94393 -0.3197,0.87534 -0.58233,0.80859 -0.7915,0.65284 -0.89423,0.44761 -0.8989,0.43828 -0.90343,0.42887 -0.9078,0.41939 c 0.07269,0.15736 0.20815,0.28903 0.38601,0.37518 0.18304,0.08866 0.40063,0.12408 0.61818,0.10066 C 0.31393,0.87181 0.51899,0.79088 0.67897,0.66528 0.83442,0.54325 0.93874,0.38577 0.97627,0.21654 0.97401,0.22673 0.97159,0.23688 0.96902,0.247 z"
       id="path82"
       style="fill:#739fec;fill-opacity:0.67647059;stroke:url(#radialGradient5414);stroke-width:0.0025;stroke-miterlimit:4;stroke-opacity:1;stroke-dasharray:none" />
    <path
       d="M 0.98084,-0.19481 C 1.01358,-0.02995 0.97856,0.15269 0.88117,0.32469 0.781,0.50162 0.62072,0.65693 0.42665,0.76514 0.23259,0.87335 0.01622,0.92807 -0.18695,0.92029 -0.38447,0.91273 -0.55825,0.84653 -0.68128,0.73202 -0.68826,0.72553 -0.69513,0.71894 -0.70192,0.71226 -0.58042,0.83199 -0.40519,0.90237 -0.20436,0.91203 0.00234,0.92197 0.22358,0.867 0.42181,0.75646 0.62004,0.64592 0.7831,0.4866 0.88329,0.30554 0.98063,0.12961 1.01287,-0.05645 0.97488,-0.22275 c 0.00212,0.00929 0.00411,0.0186 0.00596,0.02794 z"
       id="path84"
       style="fill:#739fec;fill-opacity:0.67647059;stroke:url(#radialGradient5414);stroke-width:0.0025;stroke-miterlimit:4;stroke-opacity:1;stroke-dasharray:none" />
    <path
       d="M 0.83041,-0.55716 C 0.91752,-0.42733 0.94253,-0.24931 0.9011,-0.05369 0.85804,0.14958 0.74611,0.35835 0.58601,0.53406 0.42593,0.70972 0.22849,0.8405 0.03014,0.90221 -0.16076,0.96161 -0.3403,0.95322 -0.47764,0.87856 -0.48485,0.87464 -0.49201,0.87063 -0.49913,0.86653 -0.3626,0.94517 -0.18185,0.95617 0.0114,0.89753 0.21268,0.83645 0.41379,0.704 0.57658,0.52531 c 0.1628,-0.17868 0.276,-0.39122 0.31813,-0.5973 0.04044,-0.19786 0.01271,-0.37681 -0.07827,-0.50545 0.00474,0.00671 0.00939,0.01347 0.01397,0.02028 z"
       id="path86"
       style="fill:#739fec;fill-opacity:0.67647059;stroke:url(#radialGradient5414);stroke-width:0.0025;stroke-miterlimit:4;stroke-opacity:1;stroke-dasharray:none" />
    <path
       d="m 0.6133,-0.78985 c 0.10235,0.07947 0.15702,0.23016 0.15384,0.42432 C 0.76376,-0.15854 0.6949,0.08238 0.57492,0.30708 0.45497,0.53174 0.29311,0.72293 0.12304,0.84086 -0.0365,0.95149 -0.19209,0.98989 -0.31505,0.94907 -0.32171,0.94687 -0.32846,0.94455 -0.33531,0.94211 -0.21302,0.98563 -0.05689,0.9486 0.10385,0.83785 0.2754,0.71965 0.43917,0.52647 0.56049,0.29922 0.68181,0.07197 0.7512,-0.17158 0.75396,-0.37989 0.75656,-0.57507 0.70045,-0.72541 0.59625,-0.8028 c 0.00583,0.00433 0.01152,0.00865 0.01705,0.01295 z"
       id="path88"
       style="fill:#739fec;fill-opacity:0.67647059;stroke:url(#radialGradient5414);stroke-width:0.0025;stroke-miterlimit:4;stroke-opacity:1;stroke-dasharray:none" />
    <path
       d="m 0.38778,-0.92175 c 0.0814,0.03424 0.13347,0.15148 0.14639,0.32989 C 0.54868,-0.39152 0.51262,-0.13053 0.43433,0.13029 0.35603,0.39115 0.24236,0.6289 0.11989,0.78817 0.01084,0.92999 -0.09721,0.99917 -0.18401,0.98292 -0.19046,0.98172 -0.19678,0.98047 -0.20299,0.97918 -0.11712,0.99698 -0.00951,0.92854 0.09952,0.78662 0.22219,0.62692 0.33647,0.3875 0.41536,0.1247 0.49426,-0.1381 0.53075,-0.40088 0.51631,-0.60173 0.50348,-0.78024 0.45136,-0.89664 0.36988,-0.92908 c 0.00589,0.00235 0.01186,0.00479 0.0179,0.00733 z"
       id="path90"
       style="fill:#739fec;fill-opacity:0.67647059;stroke:url(#radialGradient5414);stroke-width:0.0025;stroke-miterlimit:4;stroke-opacity:1;stroke-dasharray:none" />
    <path
       d="m 0.16928,-0.98557 c 0.04084,0.00702 0.06823,0.11108 0.0765,0.29078 C 0.25497,-0.49519 0.23977,-0.2201 0.20395,0.06166 0.1686,0.33974 0.11645,0.59839 0.06027,0.77436 0.01336,0.92131 -0.03304,1.00017 -0.07085,0.99749 -0.07692,0.99706 -0.08299,0.99657 -0.08905,0.99603 -0.05145,0.99939 -0.00478,0.91721 0.04245,0.76415 0.09931,0.57991 0.1519,0.30951 0.18664,0.02261 0.22138,-0.26429 0.23485,-0.53943 0.22361,-0.73192 0.21428,-0.89184 0.18857,-0.98278 0.15125,-0.9885 c 0.00592,9.1e-4 0.01193,0.00188 0.01803,0.00293 z"
       id="path92"
       style="fill:#739fec;fill-opacity:0.67647059;stroke:url(#radialGradient5414);stroke-width:0.0025;stroke-miterlimit:4;stroke-opacity:1;stroke-dasharray:none" />
  </g>
  <path
     d="m -377.65865,242.64507 c 56.55316,-14.18378 26.88799,98.41961 -5.58992,100.17197 -54.5376,2.94261 -55.14397,-81.99108 -28.61584,-125.86797 47.45261,-78.48546 157.23907,-80.73147 225.42385,-29.66092 94.539189,70.81006 288.03225,449.86543 41.27809,596.15996"
     transform="matrix(0.70710678,0.53116649,-0.70710678,0.53116649,750.89192,118.22947)"
     id="path4173"
     style="fill:none;stroke:#ffffff;stroke-width:3.46137309;stroke-linecap:butt;stroke-linejoin:miter;stroke-miterlimit:4;stroke-opacity:1;stroke-dasharray:10.38411948, 10.38411948;stroke-dashoffset:0" />
  <g
     transform="matrix(0.93904164,0.34380344,-0.34380344,0.93904164,-43.959845,36.324862)"
     id="g5350">
    <path
       d="m 270.9444,297.88228 a 30.508474,29.449152 0 0 1 28.3142,17.91647"
       transform="matrix(1.6180555,0,0,1.7553957,-170.36252,-225.01829)"
       id="path4176"
       style="fill:none;stroke:#ffffff;stroke-width:1.18671322;stroke-linecap:butt;stroke-linejoin:round;stroke-miterlimit:4;stroke-opacity:1;stroke-dasharray:none;stroke-dashoffset:0;marker-start:none;marker-mid:none" />
    <path
       d="m 315.88983,333.8983 0.84746,-11.44067 -10.06356,4.76695 z"
       id="path5348"
       style="fill:#ffffff;fill-opacity:1;stroke:none" />
  </g>
  <text
     x="130.92828"
     y="411.37402"
     id="text5354"
     xml:space="preserve"
     style="font-size:20px;font-style:normal;font-variant:normal;font-weight:normal;font-stretch:normal;line-height:125%;letter-spacing:0px;word-spacing:0px;fill:#ffffff;fill-opacity:1;stroke:none;font-family:Arial;-inkscape-font-specification:Arial"><tspan
       x="130.92828"
       y="411.37402"
       id="tspan5356"
       style="font-size:28px">β</tspan></text>
  <g
     transform="matrix(0.76537268,-0.64358733,0.64358733,0.76537268,29.643138,85.504193)"
     id="g5358">
    <path
       d="m 270.9444,297.88228 a 30.508474,29.449152 0 0 1 28.3142,17.91647"
       transform="matrix(1.6180555,0,0,1.7553957,-170.36252,-225.01829)"
       id="path5360"
       style="fill:none;stroke:#ffffff;stroke-width:1.18671322;stroke-linecap:butt;stroke-linejoin:round;stroke-miterlimit:4;stroke-opacity:1;stroke-dasharray:none;stroke-dashoffset:0;marker-start:none;marker-mid:none" />
    <path
       d="m 315.88983,333.8983 0.84746,-11.44067 -10.06356,4.76695 z"
       id="path5362"
       style="fill:#ffffff;fill-opacity:1;stroke:none" />
  </g>
  <text
     x="422.88135"
     y="127.9661"
     id="text5364"
     xml:space="preserve"
     style="font-size:20px;font-style:normal;font-variant:normal;font-weight:normal;font-stretch:normal;line-height:125%;letter-spacing:0px;word-spacing:0px;fill:#ffffff;fill-opacity:1;stroke:none;font-family:Arial;-inkscape-font-specification:Arial"><tspan
       x="422.88135"
       y="127.9661"
       id="tspan5366"
       style="font-size:28px">β</tspan></text>
  <g
     transform="matrix(0.75090357,0.66041185,-0.66041185,0.75090357,239.56455,-284.36068)"
     id="g5368">
    <path
       d="m 258.53281,300.53378 a 30.508474,29.449152 0 0 1 40.72579,15.26497"
       transform="matrix(0.52151851,0.42264031,-0.45843293,0.56586982,237.66643,-23.134229)"
       id="path5370"
       style="fill:none;stroke:#ffffff;stroke-width:2.860461;stroke-linecap:butt;stroke-linejoin:round;stroke-miterlimit:4;stroke-opacity:1;stroke-dasharray:none;stroke-dashoffset:0;marker-start:none;marker-mid:none" />
    <path
       d="m 249.27283,285.39269 4.79114,-7.41681 -8.55667,-0.49026 z"
       id="path5372"
       style="fill:#ffffff;fill-opacity:1;stroke:none" />
  </g>
  <text
     x="256.77966"
     y="83.05085"
     id="text5374"
     xml:space="preserve"
     style="font-size:20px;font-style:normal;font-variant:normal;font-weight:normal;font-stretch:normal;line-height:125%;letter-spacing:0px;word-spacing:0px;fill:#ffffff;fill-opacity:1;stroke:none;font-family:Arial;-inkscape-font-specification:Arial"><tspan
       x="256.77966"
       y="83.05085"
       id="tspan5376"
       style="font-size:28px">β</tspan></text>
</svg>
