<svg version="1.1" xmlns="http://www.w3.org/2000/svg" xmlns:xlink="http://www.w3.org/1999/xlink" width="800" height="800"><defs/><g transform="scale(2,2)"><g id="background-3ef252e0"><rect fill="white" stroke="none" x="0" y="0" width="400" height="400" class="dcg-svg-background"/></g><g id="background-images-3ef252e0"/><g id="graphpaper-3ef252e0"><g id="axis-3ef252e0"><g id="yaxis-3ef252e0"><title>Y axis</title><g><path fill="none" stroke="rgb(0,0,0)" class="dcg-svg-axis-line" paint-order="fill stroke markers" d=" M 202 0 L 202 400" stroke-opacity="0.9" stroke-miterlimit="10" stroke-width="1.5" stroke-dasharray=""/></g></g><g id="xaxis-3ef252e0"><title>X axis</title><g><path fill="none" stroke="rgb(0,0,0)" class="dcg-svg-axis-line" paint-order="fill stroke markers" d=" M 0 201 L 400 201" stroke-opacity="0.9" stroke-miterlimit="10" stroke-width="1.5" stroke-dasharray=""/></g></g><g><g class="dcg-svg-axis-value"><text fill="none" stroke="#ffffff" font-family="Arial" font-size="14px" font-style="normal" font-weight="normal" text-decoration="normal" x="192.74319517856293" y="216.37064687483448" text-anchor="middle" stroke-miterlimit="2" stroke-width="3" stroke-dasharray="">0</text><text fill="#000000" stroke="none" font-family="Arial" font-size="14px" font-style="normal" font-weight="normal" text-decoration="normal" x="192.74319517856293" y="216.37064687483448" text-anchor="middle">0</text></g><g><path fill="none" stroke="rgb(0,0,0)" class="dcg-svg-tickmark" paint-order="fill stroke markers" d=" M 16 198 L 16 204 M 109 198 L 109 204 M 294 198 L 294 204 M 387 198 L 387 204 M 199 386 L 205 386 M 199 293 L 205 293 M 199 108 L 205 108 M 199 15 L 205 15" stroke-opacity="0.9" stroke-miterlimit="2" stroke-width="1.5" stroke-dasharray=""/></g><g class="dcg-svg-axis-value"><text fill="none" stroke="#ffffff" font-family="Arial" font-size="14px" font-style="normal" font-weight="normal" text-decoration="normal" x="13.871137200684188" y="216.37064687483448" text-anchor="middle" stroke-miterlimit="2" stroke-width="3" stroke-dasharray="">-1</text><text fill="#000000" stroke="none" font-family="Arial" font-size="14px" font-style="normal" font-weight="normal" text-decoration="normal" x="13.871137200684188" y="216.37064687483448" text-anchor="middle">-1</text></g><g class="dcg-svg-axis-value"><text fill="none" stroke="#ffffff" font-family="Arial" font-size="14px" font-style="normal" font-weight="normal" text-decoration="normal" x="106.58817204899856" y="216.37064687483448" text-anchor="middle" stroke-miterlimit="2" stroke-width="3" stroke-dasharray="">-0.5</text><text fill="#000000" stroke="none" font-family="Arial" font-size="14px" font-style="normal" font-weight="normal" text-decoration="normal" x="106.58817204899856" y="216.37064687483448" text-anchor="middle">-0.5</text></g><g class="dcg-svg-axis-value"><text fill="none" stroke="#ffffff" font-family="Arial" font-size="14px" font-style="normal" font-weight="normal" text-decoration="normal" x="294.3532964331273" y="216.37064687483448" text-anchor="middle" stroke-miterlimit="2" stroke-width="3" stroke-dasharray="">0.5</text><text fill="#000000" stroke="none" font-family="Arial" font-size="14px" font-style="normal" font-weight="normal" text-decoration="normal" x="294.3532964331273" y="216.37064687483448" text-anchor="middle">0.5</text></g><g class="dcg-svg-axis-value"><text fill="none" stroke="#ffffff" font-family="Arial" font-size="14px" font-style="normal" font-weight="normal" text-decoration="normal" x="387.07033128144167" y="216.37064687483448" text-anchor="middle" stroke-miterlimit="2" stroke-width="3" stroke-dasharray="">1</text><text fill="#000000" stroke="none" font-family="Arial" font-size="14px" font-style="normal" font-weight="normal" text-decoration="normal" x="387.07033128144167" y="216.37064687483448" text-anchor="middle">1</text></g><g class="dcg-svg-axis-value"><text fill="none" stroke="#ffffff" font-family="Arial" font-size="14px" font-style="normal" font-weight="normal" text-decoration="normal" x="190.41214049106293" y="389.80471657146325" text-anchor="middle" stroke-miterlimit="2" stroke-width="3" stroke-dasharray="">-1</text><text fill="#000000" stroke="none" font-family="Arial" font-size="14px" font-style="normal" font-weight="normal" text-decoration="normal" x="190.41214049106293" y="389.80471657146325" text-anchor="middle">-1</text></g><g class="dcg-svg-axis-value"><text fill="none" stroke="#ffffff" font-family="Arial" font-size="14px" font-style="normal" font-weight="normal" text-decoration="normal" x="184.57424986606293" y="297.0876817231489" text-anchor="middle" stroke-miterlimit="2" stroke-width="3" stroke-dasharray="">-0.5</text><text fill="#000000" stroke="none" font-family="Arial" font-size="14px" font-style="normal" font-weight="normal" text-decoration="normal" x="184.57424986606293" y="297.0876817231489" text-anchor="middle">-0.5</text></g><g class="dcg-svg-axis-value"><text fill="none" stroke="#ffffff" font-family="Arial" font-size="14px" font-style="normal" font-weight="normal" text-decoration="normal" x="186.90530455356293" y="111.65361202652012" text-anchor="middle" stroke-miterlimit="2" stroke-width="3" stroke-dasharray="">0.5</text><text fill="#000000" stroke="none" font-family="Arial" font-size="14px" font-style="normal" font-weight="normal" text-decoration="normal" x="186.90530455356293" y="111.65361202652012" text-anchor="middle">0.5</text></g><g class="dcg-svg-axis-value"><text fill="none" stroke="#ffffff" font-family="Arial" font-size="14px" font-style="normal" font-weight="normal" text-decoration="normal" x="192.74319517856293" y="18.936577178205745" text-anchor="middle" stroke-miterlimit="2" stroke-width="3" stroke-dasharray="">1</text><text fill="#000000" stroke="none" font-family="Arial" font-size="14px" font-style="normal" font-weight="normal" text-decoration="normal" x="192.74319517856293" y="18.936577178205745" text-anchor="middle">1</text></g></g></g></g><g id="expressions-3ef252e0"><g id="sketch-3ef252e0"><title>Expression 1</title><path fill="#2d70b3" stroke="none" paint-order="stroke fill markers" d="" fill-opacity="0.4"/><g><path fill="none" stroke="#2d70b3" class="dcg-svg-curve" paint-order="fill stroke markers" d=" M 191.6090408312942 136.71875 L 191.6090408312942 136.71875 L 185.9375 139.88059749777437 L 183.56472748026394 141.37722748026394 L 178.90625 144.6592873550467 L 175.50792628496092 147.38292628496092 L 171.75056436355655 150.78125 L 168.34707442213983 154.2845744221398 L 164.84375 158.42435026840894 L 162.12338964897776 162.12338964897776 L 160.34234952378046 164.84375 L 156.92852844236626 170.99102844236626 L 155.42693027839675 174.26056972160322 L 153.63604834186108 178.90625 L 152.93520950653954 181.06020950653954 L 151.6366130225684 185.9375 L 150.78125 190.42829009861657 L 150.39377935372107 193.35622064627893 L 150.00184810431688 200 L 150.35983873487956 207.4526612651204 L 150.78125 210.69693290564257 L 151.39217163885985 214.06249999999997 L 152.67580007227622 219.19919992772378 L 153.25994702730262 221.09375 L 154.64404455326095 224.95654455326095 L 156.56168630354188 229.37581369645812 L 157.8125 231.87182046915757 L 159.65616805508125 235.15624999999997 L 161.66816572467434 238.3318342753256 L 164.84375 242.70094503925282 L 167.81370833190886 246.24879166809112 L 171.875 250.46392319790635 L 174.901642126565 253.22335787343496 L 178.90625 256.46600895941464 L 182.88733933550392 259.30016066449605 L 185.9375 261.2446957711468 L 191.7644241620984 264.4855758379016 L 196.3307525974001 266.6432525974001 L 201.56041868595244 268.75208131404753 L 207.03125 270.586366032152 L 214.0625 272.44183622846464 L 216.76660381575627 273.0166038157563 L 224.20775961645197 274.229740383548 L 228.125 274.6628526768778 L 234.83465663221978 275.09523393029247 L 237.33962533119626 275.16037466880374 L 242.1875 275.1433556326644 L 249.21875 274.79452260850513 L 256.25 274.076703795188 L 263.28125 273.0032539243959 L 271.3474533610982 271.34745336109813 L 277.34375 269.829805472949 L 284.375 267.7447708926379 L 292.9045118714235 264.7795118714235 L 298.4375 262.60318464363803 L 305.46875 259.5526850390652 L 312.6314003533962 256.11859964660374 L 321.6429960077548 251.33049600775476 L 330.49425498627505 246.11925498627502 L 339.04275593456555 240.60525593456552 L 346.8452789469077 235.15624999999997 L 349.8948969168961 232.91760308310396 L 356.1598414394205 228.12499999999997 L 364.78761488815576 221.09374999999997 L 372.85267420226285 214.06249999999997 L 380.4448543470685 207.03125 L 386.98054742342185 200.65242242342188 L 386.328125 199.8243813980271 L 378.52915299632184 192.28177425091954 L 371.59572901697595 185.9375 L 363.4473788220208 178.90625 L 361.71875 177.4729105441061 L 354.57805029115497 171.76555029115494 L 345.2798483288839 164.84375 L 338.3691781784039 160.06832182159616 L 329.797500529389 154.577499470611 L 323.3862501887285 150.78125 L 319.53125 148.62602758139153 L 310.0888680374957 143.75 L 302.11123752824676 140.0762624717532 L 293.8895776967034 136.71875 L 289.9538132014484 135.26631320144838 L 281.5569364623948 132.5055635376052 L 277.34375 131.29548792920508 L 270.12274641597025 129.49774641597025 L 263.28125 128.12203762368682 L 256.25 127.04858487496772 L 249.21875 126.33077315075525 L 242.1875 125.98194125673076 L 235.32562731847807 126.01325545551482 L 228.125 126.46244096634433 L 221.09375 127.33933376725221 L 213.24658125476307 128.87158125476304 L 207.03125 130.53892768571583 L 200 132.96436446622073 L 192.5138892395507 136.26388923955068 L 191.6090408312942 136.71875" stroke-linecap="round" stroke-linejoin="round" stroke-miterlimit="10" stroke-width="2.5" stroke-opacity="0.9" stroke-dasharray=""/></g></g></g><g id="labels-3ef252e0"/></g></svg>