<?xml version="1.0" encoding="UTF-8"?>
<svg xmlns="http://www.w3.org/2000/svg" xmlns:xlink="http://www.w3.org/1999/xlink" width="667.551528" height="153.848463" viewBox="0 0 667.551528 153.848463">
<path fill="none" stroke-width="0.3985" stroke-linecap="butt" stroke-linejoin="miter" stroke="rgb(0%, 0%, 0%)" stroke-opacity="1" stroke-miterlimit="10" d="M -0.0000243316 -0.00145026 L 178.007788 -0.00145026 " transform="matrix(2.466667, 0, 0, -2.466667, 218.144591, 43.230798)"/>
<path fill-rule="nonzero" fill="rgb(0%, 0%, 0%)" fill-opacity="1" d="M 662.144531 43.234375 L 654.285156 39.304688 L 657.230469 43.234375 L 654.285156 47.164062 "/>
<path fill-rule="nonzero" fill="rgb(0%, 0%, 0%)" fill-opacity="1" d="M 15.804688 43.324219 L 15.804688 49.914062 C 15.804688 50.992188 15.535156 50.992188 13.875 50.992188 L 13.875 51.761719 C 14.761719 51.722656 15.996094 51.6875 16.691406 51.6875 C 17.304688 51.6875 18.578125 51.722656 19.425781 51.761719 L 19.425781 50.992188 C 17.769531 50.992188 17.5 50.992188 17.5 49.914062 L 17.5 45.363281 C 17.5 42.820312 19.273438 41.433594 20.8125 41.433594 C 22.394531 41.433594 22.664062 42.746094 22.664062 44.171875 L 22.664062 49.914062 C 22.664062 50.992188 22.394531 50.992188 20.738281 50.992188 L 20.738281 51.761719 C 21.585938 51.722656 22.855469 51.6875 23.511719 51.6875 C 24.128906 51.6875 25.4375 51.722656 26.25 51.761719 L 26.25 50.992188 C 24.976562 50.992188 24.359375 50.992188 24.359375 50.261719 L 24.359375 45.558594 C 24.359375 43.4375 24.359375 42.707031 23.589844 41.820312 C 23.242188 41.394531 22.433594 40.894531 21.007812 40.894531 C 19.195312 40.894531 18.039062 41.933594 17.34375 43.476562 L 17.34375 40.894531 L 13.875 41.164062 L 13.875 41.933594 C 15.609375 41.933594 15.804688 42.089844 15.804688 43.324219 Z M 15.804688 43.324219 "/>
<path fill-rule="nonzero" fill="rgb(0%, 0%, 0%)" fill-opacity="1" d="M 36.660156 36.230469 C 36.890625 36.039062 37.082031 35.769531 37.082031 35.5 C 37.082031 35.035156 36.660156 34.613281 36.195312 34.613281 C 35.847656 34.613281 35.578125 34.882812 35.464844 35.035156 L 32.496094 38.773438 L 32.921875 39.238281 Z M 36.660156 36.230469 "/>
<path fill-rule="nonzero" fill="rgb(0%, 0%, 0%)" fill-opacity="1" d="M 36.355469 49.835938 L 36.355469 52.03125 L 39.902344 51.761719 L 39.902344 50.992188 C 38.207031 50.992188 38.011719 50.839844 38.011719 49.605469 L 38.011719 40.894531 L 34.390625 41.164062 L 34.390625 41.933594 C 36.085938 41.933594 36.316406 42.089844 36.316406 43.324219 L 36.316406 47.675781 C 36.316406 49.835938 35.121094 51.492188 33.3125 51.492188 C 31.269531 51.492188 31.152344 50.335938 31.152344 49.066406 L 31.152344 40.894531 L 27.53125 41.164062 L 27.53125 41.933594 C 29.457031 41.933594 29.457031 42.011719 29.457031 44.171875 L 29.457031 47.871094 C 29.457031 49.796875 29.457031 52.03125 33.195312 52.03125 C 34.582031 52.03125 35.660156 51.339844 36.355469 49.835938 Z M 36.355469 49.835938 "/>
<path fill-rule="nonzero" fill="rgb(0%, 0%, 0%)" fill-opacity="1" d="M 43.109375 43.324219 L 43.109375 49.914062 C 43.109375 50.992188 42.839844 50.992188 41.183594 50.992188 L 41.183594 51.761719 C 42.070312 51.722656 43.304688 51.6875 43.996094 51.6875 C 44.613281 51.6875 45.886719 51.722656 46.734375 51.761719 L 46.734375 50.992188 C 45.074219 50.992188 44.804688 50.992188 44.804688 49.914062 L 44.804688 45.363281 C 44.804688 42.820312 46.578125 41.433594 48.121094 41.433594 C 49.699219 41.433594 49.972656 42.746094 49.972656 44.171875 L 49.972656 49.914062 C 49.972656 50.992188 49.699219 50.992188 48.042969 50.992188 L 48.042969 51.761719 C 48.890625 51.722656 50.164062 51.6875 50.820312 51.6875 C 51.433594 51.6875 52.746094 51.722656 53.554688 51.761719 L 53.554688 50.992188 C 51.9375 50.992188 51.667969 50.992188 51.667969 49.914062 L 51.667969 45.363281 C 51.667969 42.820312 53.402344 41.433594 54.980469 41.433594 C 56.523438 41.433594 56.792969 42.746094 56.792969 44.171875 L 56.792969 49.914062 C 56.792969 50.992188 56.523438 50.992188 54.867188 50.992188 L 54.867188 51.761719 C 55.714844 51.722656 56.984375 51.6875 57.640625 51.6875 C 58.296875 51.6875 59.566406 51.722656 60.414062 51.761719 L 60.414062 50.992188 C 59.144531 50.992188 58.527344 50.992188 58.488281 50.261719 L 58.488281 45.558594 C 58.488281 43.4375 58.488281 42.707031 57.71875 41.820312 C 57.371094 41.394531 56.5625 40.894531 55.136719 40.894531 C 53.09375 40.894531 51.976562 42.359375 51.589844 43.324219 C 51.242188 41.164062 49.429688 40.894531 48.3125 40.894531 C 46.503906 40.894531 45.347656 41.933594 44.652344 43.476562 L 44.652344 40.894531 L 41.183594 41.164062 L 41.183594 41.933594 C 42.917969 41.933594 43.109375 42.089844 43.109375 43.324219 Z M 43.109375 43.324219 "/>
<path fill-rule="nonzero" fill="rgb(0%, 0%, 0%)" fill-opacity="1" d="M 63.625 45.558594 C 63.78125 41.894531 65.863281 41.28125 66.710938 41.28125 C 69.214844 41.28125 69.484375 44.59375 69.484375 45.558594 Z M 63.625 46.097656 L 70.488281 46.097656 C 71.027344 46.097656 71.105469 46.097656 71.105469 45.558594 C 71.105469 43.128906 69.753906 40.738281 66.710938 40.738281 C 63.859375 40.738281 61.585938 43.285156 61.585938 46.367188 C 61.585938 49.644531 64.167969 52.03125 66.980469 52.03125 C 69.984375 52.03125 71.105469 49.296875 71.105469 48.832031 C 71.105469 48.601562 70.910156 48.527344 70.757812 48.527344 C 70.5625 48.527344 70.488281 48.679688 70.449219 48.871094 C 69.601562 51.417969 67.367188 51.417969 67.132812 51.417969 C 65.902344 51.417969 64.9375 50.683594 64.359375 49.757812 C 63.625 48.601562 63.625 46.984375 63.625 46.097656 Z M 63.625 46.097656 "/>
<path fill-rule="nonzero" fill="rgb(0%, 0%, 0%)" fill-opacity="1" d="M 75.933594 43.59375 L 75.933594 40.894531 L 72.503906 41.164062 L 72.503906 41.933594 C 74.238281 41.933594 74.433594 42.089844 74.433594 43.324219 L 74.433594 49.914062 C 74.433594 50.992188 74.164062 50.992188 72.503906 50.992188 L 72.503906 51.761719 C 73.46875 51.722656 74.625 51.6875 75.320312 51.6875 C 76.28125 51.6875 77.4375 51.6875 78.441406 51.761719 L 78.441406 50.992188 L 77.902344 50.992188 C 76.089844 50.992188 76.050781 50.722656 76.050781 49.835938 L 76.050781 46.058594 C 76.050781 43.628906 77.089844 41.433594 78.941406 41.433594 C 79.09375 41.433594 79.171875 41.433594 79.210938 41.472656 C 79.132812 41.472656 78.632812 41.78125 78.632812 42.4375 C 78.632812 43.089844 79.171875 43.476562 79.710938 43.476562 C 80.136719 43.476562 80.753906 43.167969 80.753906 42.398438 C 80.753906 41.625 79.980469 40.894531 78.941406 40.894531 C 77.128906 40.894531 76.242188 42.550781 75.933594 43.59375 Z M 75.933594 43.59375 "/>
<path fill-rule="nonzero" fill="rgb(0%, 0%, 0%)" fill-opacity="1" d="M 93 46.484375 C 93 43.359375 90.570312 40.738281 87.605469 40.738281 C 84.519531 40.738281 82.128906 43.4375 82.128906 46.484375 C 82.128906 49.683594 84.675781 52.03125 87.566406 52.03125 C 90.53125 52.03125 93 49.605469 93 46.484375 Z M 87.605469 51.417969 C 86.523438 51.417969 85.445312 50.914062 84.789062 49.757812 C 84.171875 48.679688 84.171875 47.175781 84.171875 46.289062 C 84.171875 45.328125 84.171875 44.015625 84.75 42.9375 C 85.40625 41.820312 86.5625 41.28125 87.566406 41.28125 C 88.644531 41.28125 89.683594 41.820312 90.339844 42.898438 C 90.996094 43.9375 90.996094 45.363281 90.996094 46.289062 C 90.996094 47.175781 90.996094 48.527344 90.457031 49.605469 C 89.878906 50.722656 88.796875 51.417969 87.605469 51.417969 Z M 87.605469 51.417969 "/>
<path fill-rule="nonzero" fill="rgb(0%, 0%, 0%)" fill-opacity="1" d="M 111.234375 50.414062 L 111.234375 52.03125 L 114.859375 51.761719 L 114.859375 50.992188 C 113.160156 50.992188 112.929688 50.839844 112.929688 49.605469 L 112.929688 34.6875 L 109.421875 34.957031 L 109.421875 35.730469 C 111.117188 35.730469 111.3125 35.882812 111.3125 37.117188 L 111.3125 42.4375 C 110.617188 41.550781 109.539062 40.894531 108.226562 40.894531 C 105.335938 40.894531 102.753906 43.324219 102.753906 46.484375 C 102.753906 49.605469 105.144531 52.03125 107.957031 52.03125 C 109.539062 52.03125 110.617188 51.183594 111.234375 50.414062 Z M 111.234375 43.824219 L 111.234375 48.871094 C 111.234375 49.296875 111.234375 49.335938 110.964844 49.757812 C 110.234375 50.953125 109.152344 51.492188 108.074219 51.492188 C 106.957031 51.492188 106.070312 50.839844 105.492188 49.914062 C 104.875 48.910156 104.796875 47.523438 104.796875 46.484375 C 104.796875 45.597656 104.835938 44.132812 105.53125 43.015625 C 106.070312 42.242188 106.996094 41.433594 108.34375 41.433594 C 109.191406 41.433594 110.234375 41.820312 110.964844 42.898438 C 111.234375 43.324219 111.234375 43.359375 111.234375 43.824219 Z M 111.234375 43.824219 "/>
<path fill-rule="nonzero" fill="rgb(0%, 0%, 0%)" fill-opacity="1" d="M 118.296875 45.558594 C 118.453125 41.894531 120.53125 41.28125 121.378906 41.28125 C 123.886719 41.28125 124.15625 44.59375 124.15625 45.558594 Z M 118.296875 46.097656 L 125.15625 46.097656 C 125.699219 46.097656 125.773438 46.097656 125.773438 45.558594 C 125.773438 43.128906 124.425781 40.738281 121.378906 40.738281 C 118.527344 40.738281 116.253906 43.285156 116.253906 46.367188 C 116.253906 49.644531 118.835938 52.03125 121.652344 52.03125 C 124.65625 52.03125 125.773438 49.296875 125.773438 48.832031 C 125.773438 48.601562 125.582031 48.527344 125.425781 48.527344 C 125.234375 48.527344 125.15625 48.679688 125.121094 48.871094 C 124.269531 51.417969 122.035156 51.417969 121.804688 51.417969 C 120.570312 51.417969 119.609375 50.683594 119.03125 49.757812 C 118.296875 48.601562 118.296875 46.984375 118.296875 46.097656 Z M 118.296875 46.097656 "/>
<path fill-rule="nonzero" fill="rgb(0%, 0%, 0%)" fill-opacity="1" d="M 139.046875 34.6875 L 135.5 34.957031 L 135.5 35.730469 C 137.234375 35.730469 137.425781 35.882812 137.425781 37.117188 L 137.425781 49.914062 C 137.425781 50.992188 137.15625 50.992188 135.5 50.992188 L 135.5 51.761719 C 136.308594 51.722656 137.617188 51.6875 138.234375 51.6875 C 138.851562 51.6875 140.046875 51.722656 140.972656 51.761719 L 140.972656 50.992188 C 139.316406 50.992188 139.046875 50.992188 139.046875 49.914062 Z M 139.046875 34.6875 "/>
<path fill-rule="nonzero" fill="rgb(0%, 0%, 0%)" fill-opacity="1" d="M 145.871094 40.894531 L 142.441406 41.164062 L 142.441406 41.933594 C 144.023438 41.933594 144.253906 42.089844 144.253906 43.285156 L 144.253906 49.914062 C 144.253906 50.992188 143.984375 50.992188 142.324219 50.992188 L 142.324219 51.761719 C 143.097656 51.722656 144.445312 51.6875 145.023438 51.6875 C 145.910156 51.6875 146.757812 51.722656 147.605469 51.761719 L 147.605469 50.992188 C 145.949219 50.992188 145.871094 50.875 145.871094 49.914062 Z M 145.949219 36.617188 C 145.949219 35.84375 145.371094 35.304688 144.675781 35.304688 C 143.90625 35.304688 143.367188 35.960938 143.367188 36.617188 C 143.367188 37.269531 143.90625 37.925781 144.675781 37.925781 C 145.371094 37.925781 145.949219 37.386719 145.949219 36.617188 Z M 145.949219 36.617188 "/>
<path fill-rule="nonzero" fill="rgb(0%, 0%, 0%)" fill-opacity="1" d="M 152.582031 42.472656 L 152.582031 34.6875 L 149.035156 34.957031 L 149.035156 35.730469 C 150.769531 35.730469 150.964844 35.882812 150.964844 37.117188 L 150.964844 51.761719 L 151.582031 51.761719 C 151.582031 51.722656 151.773438 51.378906 152.46875 50.222656 C 152.8125 50.800781 153.855469 52.03125 155.667969 52.03125 C 158.59375 52.03125 161.140625 49.605469 161.140625 46.445312 C 161.140625 43.324219 158.75 40.894531 155.9375 40.894531 C 154.007812 40.894531 152.96875 42.050781 152.582031 42.472656 Z M 152.660156 48.949219 L 152.660156 43.902344 C 152.660156 43.4375 152.660156 43.398438 152.929688 43.015625 C 153.894531 41.625 155.242188 41.433594 155.820312 41.433594 C 156.9375 41.433594 157.824219 42.089844 158.402344 43.015625 C 159.058594 44.015625 159.097656 45.402344 159.097656 46.445312 C 159.097656 47.332031 159.058594 48.796875 158.363281 49.914062 C 157.824219 50.683594 156.898438 51.492188 155.589844 51.492188 C 154.472656 51.492188 153.585938 50.914062 153.007812 49.988281 C 152.660156 49.488281 152.660156 49.410156 152.660156 48.949219 Z M 152.660156 48.949219 "/>
<path fill-rule="nonzero" fill="rgb(0%, 0%, 0%)" fill-opacity="1" d="M 166.121094 43.59375 L 166.121094 40.894531 L 162.691406 41.164062 L 162.691406 41.933594 C 164.425781 41.933594 164.617188 42.089844 164.617188 43.324219 L 164.617188 49.914062 C 164.617188 50.992188 164.347656 50.992188 162.691406 50.992188 L 162.691406 51.761719 C 163.652344 51.722656 164.808594 51.6875 165.503906 51.6875 C 166.46875 51.6875 167.625 51.6875 168.625 51.761719 L 168.625 50.992188 L 168.085938 50.992188 C 166.273438 50.992188 166.238281 50.722656 166.238281 49.835938 L 166.238281 46.058594 C 166.238281 43.628906 167.277344 41.433594 169.128906 41.433594 C 169.28125 41.433594 169.359375 41.433594 169.398438 41.472656 C 169.320312 41.472656 168.820312 41.78125 168.820312 42.4375 C 168.820312 43.089844 169.359375 43.476562 169.898438 43.476562 C 170.320312 43.476562 170.9375 43.167969 170.9375 42.398438 C 170.9375 41.625 170.167969 40.894531 169.128906 40.894531 C 167.316406 40.894531 166.429688 42.550781 166.121094 43.59375 Z M 166.121094 43.59375 "/>
<path fill-rule="nonzero" fill="rgb(0%, 0%, 0%)" fill-opacity="1" d="M 183.183594 46.484375 C 183.183594 43.359375 180.757812 40.738281 177.789062 40.738281 C 174.707031 40.738281 172.316406 43.4375 172.316406 46.484375 C 172.316406 49.683594 174.859375 52.03125 177.75 52.03125 C 180.71875 52.03125 183.183594 49.605469 183.183594 46.484375 Z M 177.789062 51.417969 C 176.710938 51.417969 175.632812 50.914062 174.976562 49.757812 C 174.359375 48.679688 174.359375 47.175781 174.359375 46.289062 C 174.359375 45.328125 174.359375 44.015625 174.9375 42.9375 C 175.59375 41.820312 176.75 41.28125 177.75 41.28125 C 178.828125 41.28125 179.871094 41.820312 180.527344 42.898438 C 181.179688 43.9375 181.179688 45.363281 181.179688 46.289062 C 181.179688 47.175781 181.179688 48.527344 180.640625 49.605469 C 180.0625 50.722656 178.984375 51.417969 177.789062 51.417969 Z M 177.789062 51.417969 "/>
<path fill-rule="nonzero" fill="rgb(0%, 0%, 0%)" fill-opacity="1" d="M 189.035156 46.984375 C 189.574219 47.097656 191.578125 47.484375 191.578125 49.257812 C 191.578125 50.492188 190.730469 51.492188 188.804688 51.492188 C 186.722656 51.492188 185.835938 50.105469 185.375 47.984375 C 185.296875 47.675781 185.296875 47.601562 185.027344 47.601562 C 184.71875 47.601562 184.71875 47.753906 184.71875 48.179688 L 184.71875 51.453125 C 184.71875 51.878906 184.71875 52.03125 184.988281 52.03125 C 185.105469 52.03125 185.144531 51.996094 185.605469 51.53125 C 185.644531 51.492188 185.644531 51.453125 186.105469 50.992188 C 187.1875 51.996094 188.304688 52.03125 188.804688 52.03125 C 191.617188 52.03125 192.773438 50.375 192.773438 48.601562 C 192.773438 47.332031 192.042969 46.558594 191.734375 46.289062 C 190.925781 45.480469 189.960938 45.289062 188.921875 45.09375 C 187.53125 44.824219 185.914062 44.515625 185.914062 43.089844 C 185.914062 42.203125 186.53125 41.203125 188.652344 41.203125 C 191.347656 41.203125 191.503906 43.4375 191.542969 44.171875 C 191.542969 44.402344 191.773438 44.402344 191.8125 44.402344 C 192.15625 44.402344 192.15625 44.285156 192.15625 43.824219 L 192.15625 41.316406 C 192.15625 40.933594 192.15625 40.738281 191.886719 40.738281 C 191.773438 40.738281 191.695312 40.738281 191.386719 41.046875 C 191.308594 41.125 191.078125 41.355469 190.964844 41.433594 C 190.039062 40.738281 189.035156 40.738281 188.652344 40.738281 C 185.644531 40.738281 184.71875 42.398438 184.71875 43.785156 C 184.71875 44.632812 185.105469 45.328125 185.761719 45.867188 C 186.570312 46.484375 187.261719 46.636719 189.035156 46.984375 Z M 189.035156 46.984375 "/>
<path fill="none" stroke-width="0.3487" stroke-linecap="round" stroke-linejoin="miter" stroke="rgb(0%, 0%, 0%)" stroke-opacity="1" stroke-miterlimit="10" d="M 8.503987 -3.485403 L 8.503987 3.487253 Z M 8.503987 -3.485403 " transform="matrix(2.466667, 0, 0, -2.466667, 218.144591, 43.230798)"/>
<path fill="none" stroke-width="0.3487" stroke-linecap="round" stroke-linejoin="miter" stroke="rgb(0%, 0%, 0%)" stroke-opacity="1" stroke-miterlimit="10" d="M 34.961441 -3.485403 L 34.961441 3.487253 Z M 34.961441 -3.485403 " transform="matrix(2.466667, 0, 0, -2.466667, 218.144591, 43.230798)"/>
<path fill="none" stroke-width="0.3487" stroke-linecap="round" stroke-linejoin="miter" stroke="rgb(0%, 0%, 0%)" stroke-opacity="1" stroke-miterlimit="10" d="M 61.418895 -3.485403 L 61.418895 3.487253 Z M 61.418895 -3.485403 " transform="matrix(2.466667, 0, 0, -2.466667, 218.144591, 43.230798)"/>
<path fill="none" stroke-width="0.3487" stroke-linecap="round" stroke-linejoin="miter" stroke="rgb(0%, 0%, 0%)" stroke-opacity="1" stroke-miterlimit="10" d="M 87.874765 -3.485403 L 87.874765 3.487253 Z M 87.874765 -3.485403 " transform="matrix(2.466667, 0, 0, -2.466667, 218.144591, 43.230798)"/>
<path fill="none" stroke-width="0.3487" stroke-linecap="round" stroke-linejoin="miter" stroke="rgb(0%, 0%, 0%)" stroke-opacity="1" stroke-miterlimit="10" d="M 114.332218 -3.485403 L 114.332218 3.487253 Z M 114.332218 -3.485403 " transform="matrix(2.466667, 0, 0, -2.466667, 218.144591, 43.230798)"/>
<path fill="none" stroke-width="0.3487" stroke-linecap="round" stroke-linejoin="miter" stroke="rgb(0%, 0%, 0%)" stroke-opacity="1" stroke-miterlimit="10" d="M 140.789672 -3.485403 L 140.789672 3.487253 Z M 140.789672 -3.485403 " transform="matrix(2.466667, 0, 0, -2.466667, 218.144591, 43.230798)"/>
<path fill="none" stroke-width="0.3487" stroke-linecap="round" stroke-linejoin="miter" stroke="rgb(0%, 0%, 0%)" stroke-opacity="1" stroke-miterlimit="10" d="M 167.247125 -3.485403 L 167.247125 3.487253 Z M 167.247125 -3.485403 " transform="matrix(2.466667, 0, 0, -2.466667, 218.144591, 43.230798)"/>
<path fill-rule="nonzero" fill="rgb(0%, 0%, 0%)" fill-opacity="1" d="M 243.921875 20.269531 C 243.921875 18.804688 243.84375 16.875 243.074219 15.21875 C 242.070312 13.136719 240.414062 12.636719 239.140625 12.636719 C 237.792969 12.636719 236.097656 13.136719 235.132812 15.296875 C 234.441406 16.800781 234.324219 18.609375 234.324219 20.269531 C 234.324219 21.734375 234.363281 23.851562 235.328125 25.625 C 236.367188 27.476562 238.101562 27.859375 239.105469 27.859375 C 240.53125 27.859375 242.1875 27.246094 243.113281 25.203125 C 243.765625 23.699219 243.921875 22.042969 243.921875 20.269531 Z M 239.140625 27.28125 C 238.449219 27.28125 236.867188 26.976562 236.445312 24.46875 C 236.214844 23.199219 236.214844 21.269531 236.214844 20 C 236.214844 18.496094 236.214844 16.761719 236.484375 15.527344 C 236.945312 13.5625 238.332031 13.175781 239.105469 13.175781 C 239.953125 13.175781 241.339844 13.640625 241.761719 15.683594 C 241.996094 16.875 241.996094 18.609375 241.996094 20 C 241.996094 21.386719 241.996094 23.234375 241.761719 24.546875 C 241.300781 27.089844 239.683594 27.28125 239.140625 27.28125 Z M 239.140625 27.28125 "/>
<path fill-rule="nonzero" fill="rgb(0%, 0%, 0%)" fill-opacity="1" d="M 305.40625 13.214844 C 305.40625 12.675781 305.40625 12.636719 304.863281 12.636719 C 303.476562 14.023438 301.433594 14.023438 300.742188 14.023438 L 300.742188 14.71875 C 301.164062 14.71875 302.515625 14.71875 303.707031 14.140625 L 303.707031 25.585938 C 303.707031 26.398438 303.671875 26.667969 301.589844 26.667969 L 300.894531 26.667969 L 300.894531 27.359375 C 301.667969 27.28125 303.671875 27.28125 304.558594 27.28125 C 305.480469 27.28125 307.449219 27.28125 308.257812 27.359375 L 308.257812 26.667969 L 307.5625 26.667969 C 305.480469 26.667969 305.40625 26.398438 305.40625 25.585938 Z M 305.40625 13.214844 "/>
<path fill-rule="nonzero" fill="rgb(0%, 0%, 0%)" fill-opacity="1" d="M 374.171875 23.429688 L 373.554688 23.429688 C 373.515625 23.738281 373.324219 25.046875 373.054688 25.394531 C 372.902344 25.585938 371.398438 25.585938 370.933594 25.585938 L 367.003906 25.585938 L 369.199219 23.507812 C 372.824219 20.382812 374.171875 19.1875 374.171875 16.953125 C 374.171875 14.410156 372.089844 12.636719 369.355469 12.636719 C 366.8125 12.636719 365.078125 14.640625 365.078125 16.644531 C 365.078125 17.761719 366.039062 17.878906 366.234375 17.878906 C 366.734375 17.878906 367.390625 17.53125 367.390625 16.722656 C 367.390625 16.066406 366.925781 15.566406 366.234375 15.566406 C 366.117188 15.566406 366.078125 15.566406 365.964844 15.605469 C 366.503906 14.023438 367.929688 13.332031 369.125 13.332031 C 371.359375 13.332031 372.128906 15.414062 372.128906 16.953125 C 372.128906 19.1875 370.433594 21.039062 369.394531 22.195312 L 365.347656 26.550781 C 365.078125 26.820312 365.078125 26.859375 365.078125 27.359375 L 373.554688 27.359375 Z M 374.171875 23.429688 "/>
<path fill-rule="nonzero" fill="rgb(0%, 0%, 0%)" fill-opacity="1" d="M 435.960938 19.574219 C 438.003906 18.804688 439.007812 17.183594 439.007812 15.644531 C 439.007812 13.949219 437.117188 12.636719 434.804688 12.636719 C 432.53125 12.636719 430.796875 13.949219 430.796875 15.605469 C 430.796875 16.335938 431.261719 16.761719 431.914062 16.761719 C 432.570312 16.761719 433.03125 16.296875 433.03125 15.644531 C 433.03125 14.871094 432.492188 14.5625 431.722656 14.5625 C 432.300781 13.640625 433.648438 13.175781 434.765625 13.175781 C 436.578125 13.175781 436.925781 14.640625 436.925781 15.683594 C 436.925781 16.335938 436.808594 17.417969 436.269531 18.265625 C 435.578125 19.226562 434.804688 19.265625 434.152344 19.34375 C 433.609375 19.382812 433.574219 19.382812 433.378906 19.382812 C 433.1875 19.382812 432.996094 19.421875 432.996094 19.652344 C 432.996094 19.960938 433.1875 19.960938 433.574219 19.960938 L 434.574219 19.960938 C 436.5 19.960938 437.347656 21.5 437.347656 23.582031 C 437.347656 26.433594 435.847656 27.246094 434.730469 27.246094 C 434.304688 27.246094 432.144531 27.128906 431.183594 25.472656 C 431.953125 25.585938 432.570312 25.046875 432.570312 24.277344 C 432.570312 23.542969 432.03125 23.082031 431.375 23.082031 C 430.835938 23.082031 430.179688 23.429688 430.179688 24.355469 C 430.179688 26.320312 432.222656 27.859375 434.804688 27.859375 C 437.542969 27.859375 439.625 25.855469 439.625 23.582031 C 439.625 21.65625 438.082031 20.039062 435.960938 19.574219 Z M 435.960938 19.574219 "/>
<path fill-rule="nonzero" fill="rgb(0%, 0%, 0%)" fill-opacity="1" d="M 495.132812 23.003906 L 495.132812 23.699219 L 501.144531 23.699219 L 501.144531 25.625 C 501.144531 26.433594 501.105469 26.667969 499.449219 26.667969 L 498.949219 26.667969 L 498.949219 27.359375 C 500.335938 27.28125 501.878906 27.28125 502.03125 27.28125 C 502.148438 27.28125 503.765625 27.28125 505.152344 27.359375 L 505.152344 26.667969 L 504.652344 26.667969 C 502.996094 26.667969 502.917969 26.433594 502.917969 25.625 L 502.917969 23.699219 L 505.191406 23.699219 L 505.191406 23.003906 L 502.917969 23.003906 L 502.917969 12.984375 C 502.917969 12.523438 502.917969 12.367188 502.496094 12.367188 C 502.226562 12.367188 502.226562 12.40625 502.03125 12.714844 Z M 495.828125 23.003906 L 501.300781 14.835938 L 501.300781 23.003906 Z M 495.828125 23.003906 "/>
<path fill-rule="nonzero" fill="rgb(0%, 0%, 0%)" fill-opacity="1" d="M 562.050781 19.730469 C 562.050781 20.113281 562.050781 20.382812 562.359375 20.382812 C 562.511719 20.382812 562.589844 20.269531 562.707031 20.074219 C 563.398438 19.152344 564.441406 18.609375 565.597656 18.609375 C 567.988281 18.609375 567.988281 22.042969 567.988281 22.8125 C 567.988281 23.507812 567.988281 24.894531 567.332031 25.894531 C 566.753906 26.820312 565.828125 27.246094 564.941406 27.246094 C 563.667969 27.246094 562.167969 26.398438 561.628906 24.777344 C 561.664062 24.777344 561.78125 24.816406 561.933594 24.816406 C 562.398438 24.816406 563.054688 24.546875 563.054688 23.738281 C 563.054688 23.042969 562.550781 22.65625 561.933594 22.65625 C 561.472656 22.65625 560.855469 22.929688 560.855469 23.8125 C 560.855469 25.820312 562.550781 27.859375 565.019531 27.859375 C 567.679688 27.859375 569.953125 25.664062 569.953125 22.929688 C 569.953125 20.269531 568.0625 18.070312 565.636719 18.070312 C 564.59375 18.070312 563.515625 18.417969 562.707031 19.226562 L 562.707031 14.871094 C 563.398438 15.066406 564.09375 15.179688 564.75 15.179688 C 567.484375 15.179688 569.066406 13.214844 569.066406 12.90625 C 569.066406 12.714844 568.949219 12.636719 568.835938 12.636719 C 568.796875 12.636719 568.757812 12.636719 568.527344 12.753906 C 567.484375 13.136719 566.484375 13.332031 565.558594 13.332031 C 564.59375 13.332031 563.59375 13.136719 562.589844 12.753906 C 562.359375 12.636719 562.320312 12.636719 562.320312 12.636719 C 562.050781 12.636719 562.050781 12.828125 562.050781 13.214844 Z M 562.050781 19.730469 "/>
<path fill-rule="nonzero" fill="rgb(0%, 0%, 0%)" fill-opacity="1" d="M 627.964844 20.039062 C 627.964844 17.761719 628.195312 16.53125 628.8125 15.375 C 629.234375 14.449219 630.316406 13.175781 631.972656 13.175781 C 632.398438 13.175781 633.4375 13.253906 633.9375 14.0625 C 633.128906 14.0625 632.742188 14.488281 632.742188 15.066406 C 632.742188 15.644531 633.167969 16.105469 633.785156 16.105469 C 634.402344 16.105469 634.824219 15.683594 634.824219 15.027344 C 634.824219 13.792969 633.9375 12.636719 631.933594 12.636719 C 629.082031 12.636719 625.960938 15.449219 625.960938 20.382812 C 625.960938 26.359375 628.65625 27.859375 630.738281 27.859375 C 633.167969 27.859375 635.402344 25.78125 635.402344 22.851562 C 635.402344 20.074219 633.359375 17.917969 630.855469 17.917969 C 629.542969 17.917969 628.582031 18.726562 627.964844 20.039062 Z M 630.699219 27.246094 C 629.429688 27.246094 628.695312 26.203125 628.464844 25.546875 C 628.042969 24.546875 628.003906 22.695312 628.003906 22.351562 C 628.003906 20.886719 628.695312 18.496094 630.816406 18.496094 C 631.164062 18.496094 632.242188 18.496094 632.976562 19.84375 C 633.398438 20.691406 633.398438 21.773438 633.398438 22.851562 C 633.398438 23.890625 633.398438 25.007812 632.976562 25.820312 C 632.28125 27.089844 631.316406 27.246094 630.699219 27.246094 Z M 630.699219 27.246094 "/>
<path fill="none" stroke-width="0.3985" stroke-linecap="butt" stroke-linejoin="miter" stroke="rgb(0%, 0%, 0%)" stroke-opacity="1" stroke-miterlimit="10" d="M -0.0000243316 -25.735192 L 178.007788 -25.735192 " transform="matrix(2.466667, 0, 0, -2.466667, 218.144591, 43.230798)"/>
<path fill-rule="nonzero" fill="rgb(0%, 0%, 0%)" fill-opacity="1" d="M 662.144531 106.710938 L 654.285156 102.78125 L 657.230469 106.710938 L 654.285156 110.644531 "/>
<path fill-rule="nonzero" fill="rgb(0%, 0%, 0%)" fill-opacity="1" d="M 83.03125 109.890625 C 83.03125 105.882812 85.035156 104.839844 86.34375 104.839844 C 86.574219 104.839844 88.117188 104.878906 88.964844 105.765625 C 87.964844 105.84375 87.808594 106.574219 87.808594 106.882812 C 87.808594 107.539062 88.273438 108 88.925781 108 C 89.582031 108 90.082031 107.617188 90.082031 106.84375 C 90.082031 105.1875 88.195312 104.226562 86.304688 104.226562 C 83.222656 104.226562 80.988281 106.882812 80.988281 109.929688 C 80.988281 113.089844 83.414062 115.515625 86.269531 115.515625 C 89.542969 115.515625 90.351562 112.550781 90.351562 112.320312 C 90.351562 112.085938 90.082031 112.085938 90.007812 112.085938 C 89.8125 112.085938 89.738281 112.164062 89.699219 112.320312 C 89.003906 114.59375 87.386719 114.902344 86.5 114.902344 C 85.1875 114.902344 83.03125 113.859375 83.03125 109.890625 Z M 83.03125 109.890625 "/>
<path fill-rule="nonzero" fill="rgb(0%, 0%, 0%)" fill-opacity="1" d="M 102.621094 109.96875 C 102.621094 106.84375 100.195312 104.226562 97.226562 104.226562 C 94.144531 104.226562 91.753906 106.921875 91.753906 109.96875 C 91.753906 113.167969 94.296875 115.515625 97.1875 115.515625 C 100.15625 115.515625 102.621094 113.089844 102.621094 109.96875 Z M 97.226562 114.902344 C 96.148438 114.902344 95.070312 114.398438 94.414062 113.242188 C 93.796875 112.164062 93.796875 110.660156 93.796875 109.773438 C 93.796875 108.8125 93.796875 107.5 94.375 106.421875 C 95.03125 105.304688 96.1875 104.765625 97.1875 104.765625 C 98.269531 104.765625 99.308594 105.304688 99.964844 106.382812 C 100.617188 107.421875 100.617188 108.851562 100.617188 109.773438 C 100.617188 110.660156 100.617188 112.011719 100.078125 113.089844 C 99.5 114.207031 98.421875 114.902344 97.226562 114.902344 Z M 97.226562 114.902344 "/>
<path fill-rule="nonzero" fill="rgb(0%, 0%, 0%)" fill-opacity="1" d="M 108.472656 110.46875 C 109.011719 110.585938 111.015625 110.96875 111.015625 112.742188 C 111.015625 113.976562 110.167969 114.976562 108.242188 114.976562 C 106.160156 114.976562 105.273438 113.589844 104.8125 111.46875 C 104.734375 111.164062 104.734375 111.085938 104.464844 111.085938 C 104.15625 111.085938 104.15625 111.238281 104.15625 111.664062 L 104.15625 114.9375 C 104.15625 115.363281 104.15625 115.515625 104.425781 115.515625 C 104.542969 115.515625 104.582031 115.480469 105.042969 115.015625 C 105.082031 114.976562 105.082031 114.9375 105.542969 114.476562 C 106.625 115.480469 107.742188 115.515625 108.242188 115.515625 C 111.054688 115.515625 112.210938 113.859375 112.210938 112.085938 C 112.210938 110.816406 111.480469 110.042969 111.171875 109.773438 C 110.363281 108.964844 109.398438 108.773438 108.359375 108.578125 C 106.96875 108.308594 105.351562 108 105.351562 106.574219 C 105.351562 105.6875 105.96875 104.6875 108.089844 104.6875 C 110.785156 104.6875 110.941406 106.921875 110.980469 107.65625 C 110.980469 107.886719 111.210938 107.886719 111.25 107.886719 C 111.59375 107.886719 111.59375 107.769531 111.59375 107.308594 L 111.59375 104.804688 C 111.59375 104.417969 111.59375 104.226562 111.324219 104.226562 C 111.210938 104.226562 111.132812 104.226562 110.824219 104.53125 C 110.746094 104.609375 110.515625 104.839844 110.402344 104.917969 C 109.476562 104.226562 108.472656 104.226562 108.089844 104.226562 C 105.082031 104.226562 104.15625 105.882812 104.15625 107.269531 C 104.15625 108.117188 104.542969 108.8125 105.199219 109.351562 C 106.007812 109.96875 106.699219 110.121094 108.472656 110.46875 Z M 108.472656 110.46875 "/>
<path fill-rule="nonzero" fill="rgb(0%, 0%, 0%)" fill-opacity="1" d="M 117.28125 105.417969 L 120.824219 105.417969 L 120.824219 104.648438 L 117.28125 104.648438 L 117.28125 100.140625 L 116.664062 100.140625 C 116.664062 102.144531 115.929688 104.765625 113.503906 104.878906 L 113.503906 105.417969 L 115.582031 105.417969 L 115.582031 112.203125 C 115.582031 115.210938 117.894531 115.515625 118.78125 115.515625 C 120.515625 115.515625 121.210938 113.78125 121.210938 112.203125 L 121.210938 110.816406 L 120.59375 110.816406 L 120.59375 112.164062 C 120.59375 113.976562 119.863281 114.902344 118.9375 114.902344 C 117.28125 114.902344 117.28125 112.664062 117.28125 112.242188 Z M 117.28125 105.417969 "/>
<path fill-rule="nonzero" fill="rgb(0%, 0%, 0%)" fill-opacity="1" d="M 134.160156 109.96875 C 134.160156 106.84375 131.730469 104.226562 128.761719 104.226562 C 125.679688 104.226562 123.289062 106.921875 123.289062 109.96875 C 123.289062 113.167969 125.835938 115.515625 128.726562 115.515625 C 131.691406 115.515625 134.160156 113.089844 134.160156 109.96875 Z M 128.761719 114.902344 C 127.683594 114.902344 126.605469 114.398438 125.949219 113.242188 C 125.332031 112.164062 125.332031 110.660156 125.332031 109.773438 C 125.332031 108.8125 125.332031 107.5 125.910156 106.421875 C 126.566406 105.304688 127.722656 104.765625 128.726562 104.765625 C 129.804688 104.765625 130.84375 105.304688 131.5 106.382812 C 132.15625 107.421875 132.15625 108.851562 132.15625 109.773438 C 132.15625 110.660156 132.15625 112.011719 131.617188 113.089844 C 131.039062 114.207031 129.957031 114.902344 128.761719 114.902344 Z M 128.761719 114.902344 "/>
<path fill-rule="nonzero" fill="rgb(0%, 0%, 0%)" fill-opacity="1" d="M 147.308594 105.417969 L 150.851562 105.417969 L 150.851562 104.648438 L 147.308594 104.648438 L 147.308594 100.140625 L 146.691406 100.140625 C 146.691406 102.144531 145.957031 104.765625 143.53125 104.878906 L 143.53125 105.417969 L 145.609375 105.417969 L 145.609375 112.203125 C 145.609375 115.210938 147.921875 115.515625 148.808594 115.515625 C 150.542969 115.515625 151.238281 113.78125 151.238281 112.203125 L 151.238281 110.816406 L 150.621094 110.816406 L 150.621094 112.164062 C 150.621094 113.976562 149.890625 114.902344 148.964844 114.902344 C 147.308594 114.902344 147.308594 112.664062 147.308594 112.242188 Z M 147.308594 105.417969 "/>
<path fill-rule="nonzero" fill="rgb(0%, 0%, 0%)" fill-opacity="1" d="M 164.1875 109.96875 C 164.1875 106.84375 161.757812 104.226562 158.789062 104.226562 C 155.707031 104.226562 153.316406 106.921875 153.316406 109.96875 C 153.316406 113.167969 155.863281 115.515625 158.753906 115.515625 C 161.71875 115.515625 164.1875 113.089844 164.1875 109.96875 Z M 158.789062 114.902344 C 157.710938 114.902344 156.632812 114.398438 155.976562 113.242188 C 155.359375 112.164062 155.359375 110.660156 155.359375 109.773438 C 155.359375 108.8125 155.359375 107.5 155.9375 106.421875 C 156.59375 105.304688 157.75 104.765625 158.753906 104.765625 C 159.832031 104.765625 160.871094 105.304688 161.527344 106.382812 C 162.183594 107.421875 162.183594 108.851562 162.183594 109.773438 C 162.183594 110.660156 162.183594 112.011719 161.644531 113.089844 C 161.066406 114.207031 159.984375 114.902344 158.789062 114.902344 Z M 158.789062 114.902344 "/>
<path fill-rule="nonzero" fill="rgb(0%, 0%, 0%)" fill-opacity="1" d="M 169.152344 105.417969 L 172.695312 105.417969 L 172.695312 104.648438 L 169.152344 104.648438 L 169.152344 100.140625 L 168.535156 100.140625 C 168.535156 102.144531 167.800781 104.765625 165.375 104.878906 L 165.375 105.417969 L 167.457031 105.417969 L 167.457031 112.203125 C 167.457031 115.210938 169.769531 115.515625 170.652344 115.515625 C 172.386719 115.515625 173.082031 113.78125 173.082031 112.203125 L 173.082031 110.816406 L 172.464844 110.816406 L 172.464844 112.164062 C 172.464844 113.976562 171.734375 114.902344 170.808594 114.902344 C 169.152344 114.902344 169.152344 112.664062 169.152344 112.242188 Z M 169.152344 105.417969 "/>
<path fill-rule="nonzero" fill="rgb(0%, 0%, 0%)" fill-opacity="1" d="M 182.640625 113.398438 C 182.753906 114.359375 183.410156 115.402344 184.566406 115.402344 C 185.105469 115.402344 186.609375 115.054688 186.609375 113.050781 L 186.609375 111.664062 L 185.992188 111.664062 L 185.992188 113.050781 C 185.992188 114.476562 185.375 114.632812 185.105469 114.632812 C 184.296875 114.632812 184.179688 113.511719 184.179688 113.398438 L 184.179688 108.503906 C 184.179688 107.460938 184.179688 106.5 183.292969 105.574219 C 182.332031 104.609375 181.097656 104.226562 179.941406 104.226562 C 177.898438 104.226562 176.203125 105.382812 176.203125 107 C 176.203125 107.730469 176.703125 108.15625 177.359375 108.15625 C 178.054688 108.15625 178.476562 107.65625 178.476562 107.039062 C 178.476562 106.730469 178.359375 105.921875 177.203125 105.921875 C 177.898438 105.035156 179.09375 104.765625 179.863281 104.765625 C 181.097656 104.765625 182.484375 105.726562 182.484375 107.925781 L 182.484375 108.8125 C 181.214844 108.886719 179.515625 108.964844 177.976562 109.699219 C 176.125 110.546875 175.507812 111.816406 175.507812 112.898438 C 175.507812 114.902344 177.898438 115.515625 179.441406 115.515625 C 181.058594 115.515625 182.175781 114.515625 182.640625 113.398438 Z M 182.484375 109.351562 L 182.484375 111.816406 C 182.484375 114.128906 180.710938 114.976562 179.59375 114.976562 C 178.398438 114.976562 177.398438 114.128906 177.398438 112.898438 C 177.398438 111.546875 178.4375 109.503906 182.484375 109.351562 Z M 182.484375 109.351562 "/>
<path fill-rule="nonzero" fill="rgb(0%, 0%, 0%)" fill-opacity="1" d="M 191.109375 98.171875 L 187.566406 98.445312 L 187.566406 99.214844 C 189.300781 99.214844 189.492188 99.367188 189.492188 100.601562 L 189.492188 113.398438 C 189.492188 114.476562 189.222656 114.476562 187.566406 114.476562 L 187.566406 115.246094 C 188.375 115.210938 189.683594 115.171875 190.300781 115.171875 C 190.917969 115.171875 192.113281 115.210938 193.039062 115.246094 L 193.039062 114.476562 C 191.378906 114.476562 191.109375 114.476562 191.109375 113.398438 Z M 191.109375 98.171875 "/>
<path fill="none" stroke-width="0.3487" stroke-linecap="round" stroke-linejoin="miter" stroke="rgb(0%, 0%, 0%)" stroke-opacity="1" stroke-miterlimit="10" d="M 8.503987 -29.223895 L 8.503987 -22.251239 Z M 8.503987 -29.223895 " transform="matrix(2.466667, 0, 0, -2.466667, 218.144591, 43.230798)"/>
<path fill="none" stroke-width="0.3487" stroke-linecap="round" stroke-linejoin="miter" stroke="rgb(0%, 0%, 0%)" stroke-opacity="1" stroke-miterlimit="10" d="M 34.961441 -29.223895 L 34.961441 -22.251239 Z M 34.961441 -29.223895 " transform="matrix(2.466667, 0, 0, -2.466667, 218.144591, 43.230798)"/>
<path fill="none" stroke-width="0.3487" stroke-linecap="round" stroke-linejoin="miter" stroke="rgb(0%, 0%, 0%)" stroke-opacity="1" stroke-miterlimit="10" d="M 61.418895 -29.223895 L 61.418895 -22.251239 Z M 61.418895 -29.223895 " transform="matrix(2.466667, 0, 0, -2.466667, 218.144591, 43.230798)"/>
<path fill="none" stroke-width="0.3487" stroke-linecap="round" stroke-linejoin="miter" stroke="rgb(0%, 0%, 0%)" stroke-opacity="1" stroke-miterlimit="10" d="M 87.874765 -29.223895 L 87.874765 -22.251239 Z M 87.874765 -29.223895 " transform="matrix(2.466667, 0, 0, -2.466667, 218.144591, 43.230798)"/>
<path fill="none" stroke-width="0.3487" stroke-linecap="round" stroke-linejoin="miter" stroke="rgb(0%, 0%, 0%)" stroke-opacity="1" stroke-miterlimit="10" d="M 114.332218 -29.223895 L 114.332218 -22.251239 Z M 114.332218 -29.223895 " transform="matrix(2.466667, 0, 0, -2.466667, 218.144591, 43.230798)"/>
<path fill="none" stroke-width="0.3487" stroke-linecap="round" stroke-linejoin="miter" stroke="rgb(0%, 0%, 0%)" stroke-opacity="1" stroke-miterlimit="10" d="M 140.789672 -29.223895 L 140.789672 -22.251239 Z M 140.789672 -29.223895 " transform="matrix(2.466667, 0, 0, -2.466667, 218.144591, 43.230798)"/>
<path fill="none" stroke-width="0.3487" stroke-linecap="round" stroke-linejoin="miter" stroke="rgb(0%, 0%, 0%)" stroke-opacity="1" stroke-miterlimit="10" d="M 167.247125 -29.223895 L 167.247125 -22.251239 Z M 167.247125 -29.223895 " transform="matrix(2.466667, 0, 0, -2.466667, 218.144591, 43.230798)"/>
<path fill-rule="nonzero" fill="rgb(0%, 0%, 0%)" fill-opacity="1" d="M 233.074219 122.902344 L 233.074219 123.90625 C 230.839844 123.90625 229.027344 126.023438 229.027344 128.183594 C 229.027344 129.996094 230.261719 131.613281 232.035156 132.191406 C 232.613281 132.347656 233.074219 132.308594 233.074219 132.730469 L 233.074219 139.011719 C 231.535156 139.011719 230.148438 138.050781 229.761719 136.429688 C 229.839844 136.46875 229.953125 136.46875 230.070312 136.46875 C 230.726562 136.46875 231.070312 135.96875 231.070312 135.429688 C 231.070312 134.851562 230.609375 134.425781 230.03125 134.425781 C 229.453125 134.425781 229.027344 134.8125 229.027344 135.582031 C 229.027344 137.511719 230.222656 139.285156 232.382812 139.628906 L 232.84375 139.707031 C 233 139.707031 233.074219 139.785156 233.074219 139.9375 L 233.074219 140.746094 L 233.769531 140.746094 L 233.769531 139.707031 C 234.15625 139.707031 234.503906 139.589844 234.847656 139.476562 C 236.699219 138.859375 237.855469 137.007812 237.855469 135.121094 C 237.855469 132.886719 236.199219 130.882812 233.769531 130.574219 L 233.769531 124.597656 C 234.195312 124.675781 234.578125 124.675781 235.003906 124.792969 C 236.003906 125.136719 236.816406 125.871094 237.085938 126.871094 C 237.007812 126.871094 236.929688 126.871094 236.816406 126.871094 C 236.199219 126.871094 235.773438 127.335938 235.773438 127.875 C 235.773438 128.453125 236.238281 128.878906 236.816406 128.878906 C 237.664062 128.878906 237.855469 128.261719 237.855469 127.722656 C 237.855469 125.910156 236.660156 124.597656 235.117188 124.097656 C 234.695312 123.980469 234.230469 123.945312 233.769531 123.90625 L 233.769531 122.902344 Z M 233.769531 139.011719 L 233.769531 132.617188 C 234.078125 132.730469 234.425781 132.769531 234.734375 132.886719 C 235.890625 133.425781 236.699219 134.582031 236.699219 135.851562 L 236.699219 135.96875 C 236.507812 137.625 235.351562 138.859375 233.769531 139.011719 Z M 233.074219 124.597656 L 233.074219 130.417969 C 231.726562 130.035156 230.648438 129.570312 230.222656 127.953125 C 230.183594 127.796875 230.183594 127.644531 230.183594 127.488281 C 230.183594 125.988281 231.574219 124.675781 233.074219 124.597656 Z M 233.074219 124.597656 "/>
<path fill-rule="nonzero" fill="rgb(0%, 0%, 0%)" fill-opacity="1" d="M 249.605469 132.421875 C 249.605469 130.957031 249.527344 129.03125 248.757812 127.375 C 247.753906 125.292969 246.097656 124.792969 244.824219 124.792969 C 243.476562 124.792969 241.78125 125.292969 240.816406 127.449219 C 240.125 128.953125 240.007812 130.765625 240.007812 132.421875 C 240.007812 133.886719 240.046875 136.007812 241.007812 137.78125 C 242.050781 139.628906 243.785156 140.015625 244.785156 140.015625 C 246.210938 140.015625 247.871094 139.398438 248.796875 137.355469 C 249.449219 135.851562 249.605469 134.195312 249.605469 132.421875 Z M 244.824219 139.4375 C 244.132812 139.4375 242.550781 139.128906 242.128906 136.625 C 241.894531 135.351562 241.894531 133.425781 241.894531 132.152344 C 241.894531 130.648438 241.894531 128.914062 242.164062 127.683594 C 242.628906 125.714844 244.015625 125.332031 244.785156 125.332031 C 245.632812 125.332031 247.023438 125.792969 247.445312 127.835938 C 247.675781 129.03125 247.675781 130.765625 247.675781 132.152344 C 247.675781 133.539062 247.675781 135.390625 247.445312 136.699219 C 246.984375 139.246094 245.363281 139.4375 244.824219 139.4375 Z M 244.824219 139.4375 "/>
<path fill-rule="nonzero" fill="rgb(0%, 0%, 0%)" fill-opacity="1" d="M 292.652344 122.902344 L 292.652344 123.90625 C 290.417969 123.90625 288.605469 126.023438 288.605469 128.183594 C 288.605469 129.996094 289.839844 131.613281 291.613281 132.191406 C 292.191406 132.347656 292.652344 132.308594 292.652344 132.730469 L 292.652344 139.011719 C 291.113281 139.011719 289.722656 138.050781 289.339844 136.429688 C 289.414062 136.46875 289.53125 136.46875 289.648438 136.46875 C 290.300781 136.46875 290.648438 135.96875 290.648438 135.429688 C 290.648438 134.851562 290.1875 134.425781 289.609375 134.425781 C 289.03125 134.425781 288.605469 134.8125 288.605469 135.582031 C 288.605469 137.511719 289.800781 139.285156 291.960938 139.628906 L 292.421875 139.707031 C 292.578125 139.707031 292.652344 139.785156 292.652344 139.9375 L 292.652344 140.746094 L 293.347656 140.746094 L 293.347656 139.707031 C 293.734375 139.707031 294.078125 139.589844 294.425781 139.476562 C 296.277344 138.859375 297.433594 137.007812 297.433594 135.121094 C 297.433594 132.886719 295.773438 130.882812 293.347656 130.574219 L 293.347656 124.597656 C 293.769531 124.675781 294.15625 124.675781 294.582031 124.792969 C 295.582031 125.136719 296.390625 125.871094 296.660156 126.871094 C 296.585938 126.871094 296.507812 126.871094 296.390625 126.871094 C 295.773438 126.871094 295.351562 127.335938 295.351562 127.875 C 295.351562 128.453125 295.8125 128.878906 296.390625 128.878906 C 297.238281 128.878906 297.433594 128.261719 297.433594 127.722656 C 297.433594 125.910156 296.238281 124.597656 294.695312 124.097656 C 294.273438 123.980469 293.808594 123.945312 293.347656 123.90625 L 293.347656 122.902344 Z M 293.347656 139.011719 L 293.347656 132.617188 C 293.65625 132.730469 294.003906 132.769531 294.3125 132.886719 C 295.46875 133.425781 296.277344 134.582031 296.277344 135.851562 L 296.277344 135.96875 C 296.082031 137.625 294.925781 138.859375 293.347656 139.011719 Z M 292.652344 124.597656 L 292.652344 130.417969 C 291.304688 130.035156 290.226562 129.570312 289.800781 127.953125 C 289.761719 127.796875 289.761719 127.644531 289.761719 127.488281 C 289.761719 125.988281 291.148438 124.675781 292.652344 124.597656 Z M 292.652344 124.597656 "/>
<path fill-rule="nonzero" fill="rgb(0%, 0%, 0%)" fill-opacity="1" d="M 305.402344 125.371094 C 305.402344 124.832031 305.402344 124.792969 304.863281 124.792969 C 303.476562 126.179688 301.433594 126.179688 300.738281 126.179688 L 300.738281 126.871094 C 301.164062 126.871094 302.511719 126.871094 303.707031 126.292969 L 303.707031 137.742188 C 303.707031 138.550781 303.667969 138.820312 301.585938 138.820312 L 300.894531 138.820312 L 300.894531 139.515625 C 301.664062 139.4375 303.667969 139.4375 304.554688 139.4375 C 305.480469 139.4375 307.445312 139.4375 308.253906 139.515625 L 308.253906 138.820312 L 307.5625 138.820312 C 305.480469 138.820312 305.402344 138.550781 305.402344 137.742188 Z M 305.402344 125.371094 "/>
<path fill-rule="nonzero" fill="rgb(0%, 0%, 0%)" fill-opacity="1" d="M 312.375 131.882812 C 312.375 132.269531 312.375 132.539062 312.683594 132.539062 C 312.835938 132.539062 312.914062 132.421875 313.03125 132.230469 C 313.722656 131.304688 314.765625 130.765625 315.921875 130.765625 C 318.308594 130.765625 318.308594 134.195312 318.308594 134.964844 C 318.308594 135.660156 318.308594 137.046875 317.65625 138.050781 C 317.078125 138.976562 316.152344 139.398438 315.265625 139.398438 C 313.992188 139.398438 312.488281 138.550781 311.949219 136.933594 C 311.988281 136.933594 312.105469 136.972656 312.257812 136.972656 C 312.722656 136.972656 313.375 136.699219 313.375 135.890625 C 313.375 135.199219 312.875 134.8125 312.257812 134.8125 C 311.796875 134.8125 311.179688 135.082031 311.179688 135.96875 C 311.179688 137.972656 312.875 140.015625 315.34375 140.015625 C 318 140.015625 320.277344 137.820312 320.277344 135.082031 C 320.277344 132.421875 318.386719 130.226562 315.957031 130.226562 C 314.917969 130.226562 313.839844 130.574219 313.03125 131.382812 L 313.03125 127.027344 C 313.722656 127.21875 314.417969 127.335938 315.074219 127.335938 C 317.808594 127.335938 319.390625 125.371094 319.390625 125.0625 C 319.390625 124.867188 319.273438 124.792969 319.15625 124.792969 C 319.121094 124.792969 319.082031 124.792969 318.847656 124.90625 C 317.808594 125.292969 316.808594 125.484375 315.882812 125.484375 C 314.917969 125.484375 313.917969 125.292969 312.914062 124.90625 C 312.683594 124.792969 312.644531 124.792969 312.644531 124.792969 C 312.375 124.792969 312.375 124.984375 312.375 125.371094 Z M 312.375 131.882812 "/>
<path fill-rule="nonzero" fill="rgb(0%, 0%, 0%)" fill-opacity="1" d="M 357.910156 122.902344 L 357.910156 123.90625 C 355.675781 123.90625 353.863281 126.023438 353.863281 128.183594 C 353.863281 129.996094 355.097656 131.613281 356.871094 132.191406 C 357.449219 132.347656 357.910156 132.308594 357.910156 132.730469 L 357.910156 139.011719 C 356.371094 139.011719 354.980469 138.050781 354.597656 136.429688 C 354.675781 136.46875 354.789062 136.46875 354.90625 136.46875 C 355.558594 136.46875 355.90625 135.96875 355.90625 135.429688 C 355.90625 134.851562 355.445312 134.425781 354.867188 134.425781 C 354.289062 134.425781 353.863281 134.8125 353.863281 135.582031 C 353.863281 137.511719 355.058594 139.285156 357.21875 139.628906 L 357.679688 139.707031 C 357.835938 139.707031 357.910156 139.785156 357.910156 139.9375 L 357.910156 140.746094 L 358.605469 140.746094 L 358.605469 139.707031 C 358.992188 139.707031 359.335938 139.589844 359.683594 139.476562 C 361.535156 138.859375 362.691406 137.007812 362.691406 135.121094 C 362.691406 132.886719 361.035156 130.882812 358.605469 130.574219 L 358.605469 124.597656 C 359.027344 124.675781 359.414062 124.675781 359.839844 124.792969 C 360.839844 125.136719 361.648438 125.871094 361.917969 126.871094 C 361.84375 126.871094 361.765625 126.871094 361.648438 126.871094 C 361.035156 126.871094 360.609375 127.335938 360.609375 127.875 C 360.609375 128.453125 361.070312 128.878906 361.648438 128.878906 C 362.496094 128.878906 362.691406 128.261719 362.691406 127.722656 C 362.691406 125.910156 361.496094 124.597656 359.953125 124.097656 C 359.53125 123.980469 359.066406 123.945312 358.605469 123.90625 L 358.605469 122.902344 Z M 358.605469 139.011719 L 358.605469 132.617188 C 358.914062 132.730469 359.261719 132.769531 359.570312 132.886719 C 360.726562 133.425781 361.535156 134.582031 361.535156 135.851562 L 361.535156 135.96875 C 361.339844 137.625 360.183594 138.859375 358.605469 139.011719 Z M 357.910156 124.597656 L 357.910156 130.417969 C 356.5625 130.035156 355.484375 129.570312 355.058594 127.953125 C 355.019531 127.796875 355.019531 127.644531 355.019531 127.488281 C 355.019531 125.988281 356.410156 124.675781 357.910156 124.597656 Z M 357.910156 124.597656 "/>
<path fill-rule="nonzero" fill="rgb(0%, 0%, 0%)" fill-opacity="1" d="M 370.703125 131.730469 C 372.746094 130.957031 373.746094 129.339844 373.746094 127.796875 C 373.746094 126.101562 371.859375 124.792969 369.546875 124.792969 C 367.269531 124.792969 365.535156 126.101562 365.535156 127.757812 C 365.535156 128.492188 366 128.914062 366.65625 128.914062 C 367.308594 128.914062 367.773438 128.453125 367.773438 127.796875 C 367.773438 127.027344 367.234375 126.71875 366.460938 126.71875 C 367.039062 125.792969 368.390625 125.332031 369.507812 125.332031 C 371.316406 125.332031 371.664062 126.796875 371.664062 127.835938 C 371.664062 128.492188 371.550781 129.570312 371.011719 130.417969 C 370.316406 131.382812 369.546875 131.421875 368.890625 131.496094 C 368.351562 131.535156 368.3125 131.535156 368.121094 131.535156 C 367.925781 131.535156 367.734375 131.574219 367.734375 131.804688 C 367.734375 132.113281 367.925781 132.113281 368.3125 132.113281 L 369.3125 132.113281 C 371.242188 132.113281 372.089844 133.65625 372.089844 135.738281 C 372.089844 138.589844 370.585938 139.398438 369.46875 139.398438 C 369.042969 139.398438 366.886719 139.285156 365.921875 137.625 C 366.691406 137.742188 367.308594 137.203125 367.308594 136.429688 C 367.308594 135.699219 366.769531 135.238281 366.113281 135.238281 C 365.574219 135.238281 364.921875 135.582031 364.921875 136.507812 C 364.921875 138.472656 366.964844 140.015625 369.546875 140.015625 C 372.28125 140.015625 374.363281 138.011719 374.363281 135.738281 C 374.363281 133.808594 372.820312 132.191406 370.703125 131.730469 Z M 370.703125 131.730469 "/>
<path fill-rule="nonzero" fill="rgb(0%, 0%, 0%)" fill-opacity="1" d="M 385.804688 132.421875 C 385.804688 130.957031 385.730469 129.03125 384.957031 127.375 C 383.957031 125.292969 382.296875 124.792969 381.027344 124.792969 C 379.679688 124.792969 377.980469 125.292969 377.019531 127.449219 C 376.324219 128.953125 376.210938 130.765625 376.210938 132.421875 C 376.210938 133.886719 376.246094 136.007812 377.210938 137.78125 C 378.25 139.628906 379.984375 140.015625 380.988281 140.015625 C 382.414062 140.015625 384.070312 139.398438 384.996094 137.355469 C 385.652344 135.851562 385.804688 134.195312 385.804688 132.421875 Z M 381.027344 139.4375 C 380.332031 139.4375 378.753906 139.128906 378.328125 136.625 C 378.097656 135.351562 378.097656 133.425781 378.097656 132.152344 C 378.097656 130.648438 378.097656 128.914062 378.367188 127.683594 C 378.828125 125.714844 380.21875 125.332031 380.988281 125.332031 C 381.835938 125.332031 383.222656 125.792969 383.648438 127.835938 C 383.878906 129.03125 383.878906 130.765625 383.878906 132.152344 C 383.878906 133.539062 383.878906 135.390625 383.648438 136.699219 C 383.183594 139.246094 381.566406 139.4375 381.027344 139.4375 Z M 381.027344 139.4375 "/>
<path fill-rule="nonzero" fill="rgb(0%, 0%, 0%)" fill-opacity="1" d="M 423.171875 122.902344 L 423.171875 123.90625 C 420.9375 123.90625 419.125 126.023438 419.125 128.183594 C 419.125 129.996094 420.359375 131.613281 422.132812 132.191406 C 422.710938 132.347656 423.171875 132.308594 423.171875 132.730469 L 423.171875 139.011719 C 421.628906 139.011719 420.242188 138.050781 419.859375 136.429688 C 419.933594 136.46875 420.050781 136.46875 420.164062 136.46875 C 420.820312 136.46875 421.167969 135.96875 421.167969 135.429688 C 421.167969 134.851562 420.707031 134.425781 420.128906 134.425781 C 419.550781 134.425781 419.125 134.8125 419.125 135.582031 C 419.125 137.511719 420.320312 139.285156 422.476562 139.628906 L 422.941406 139.707031 C 423.09375 139.707031 423.171875 139.785156 423.171875 139.9375 L 423.171875 140.746094 L 423.867188 140.746094 L 423.867188 139.707031 C 424.25 139.707031 424.597656 139.589844 424.945312 139.476562 C 426.796875 138.859375 427.953125 137.007812 427.953125 135.121094 C 427.953125 132.886719 426.292969 130.882812 423.867188 130.574219 L 423.867188 124.597656 C 424.289062 124.675781 424.675781 124.675781 425.097656 124.792969 C 426.101562 125.136719 426.910156 125.871094 427.179688 126.871094 C 427.101562 126.871094 427.027344 126.871094 426.910156 126.871094 C 426.292969 126.871094 425.871094 127.335938 425.871094 127.875 C 425.871094 128.453125 426.332031 128.878906 426.910156 128.878906 C 427.757812 128.878906 427.953125 128.261719 427.953125 127.722656 C 427.953125 125.910156 426.757812 124.597656 425.214844 124.097656 C 424.789062 123.980469 424.328125 123.945312 423.867188 123.90625 L 423.867188 122.902344 Z M 423.867188 139.011719 L 423.867188 132.617188 C 424.175781 132.730469 424.519531 132.769531 424.828125 132.886719 C 425.984375 133.425781 426.796875 134.582031 426.796875 135.851562 L 426.796875 135.96875 C 426.601562 137.625 425.445312 138.859375 423.867188 139.011719 Z M 423.171875 124.597656 L 423.171875 130.417969 C 421.824219 130.035156 420.742188 129.570312 420.320312 127.953125 C 420.28125 127.796875 420.28125 127.644531 420.28125 127.488281 C 420.28125 125.988281 421.667969 124.675781 423.171875 124.597656 Z M 423.171875 124.597656 "/>
<path fill-rule="nonzero" fill="rgb(0%, 0%, 0%)" fill-opacity="1" d="M 429.871094 135.160156 L 429.871094 135.851562 L 435.886719 135.851562 L 435.886719 137.78125 C 435.886719 138.589844 435.847656 138.820312 434.1875 138.820312 L 433.6875 138.820312 L 433.6875 139.515625 C 435.074219 139.4375 436.617188 139.4375 436.769531 139.4375 C 436.886719 139.4375 438.503906 139.4375 439.894531 139.515625 L 439.894531 138.820312 L 439.390625 138.820312 C 437.734375 138.820312 437.65625 138.589844 437.65625 137.78125 L 437.65625 135.851562 L 439.933594 135.851562 L 439.933594 135.160156 L 437.65625 135.160156 L 437.65625 125.136719 C 437.65625 124.675781 437.65625 124.523438 437.234375 124.523438 C 436.964844 124.523438 436.964844 124.558594 436.769531 124.867188 Z M 430.566406 135.160156 L 436.039062 126.988281 L 436.039062 135.160156 Z M 430.566406 135.160156 "/>
<path fill-rule="nonzero" fill="rgb(0%, 0%, 0%)" fill-opacity="1" d="M 442.894531 131.882812 C 442.894531 132.269531 442.894531 132.539062 443.203125 132.539062 C 443.359375 132.539062 443.433594 132.421875 443.550781 132.230469 C 444.246094 131.304688 445.285156 130.765625 446.441406 130.765625 C 448.832031 130.765625 448.832031 134.195312 448.832031 134.964844 C 448.832031 135.660156 448.832031 137.046875 448.175781 138.050781 C 447.597656 138.976562 446.671875 139.398438 445.785156 139.398438 C 444.515625 139.398438 443.011719 138.550781 442.472656 136.933594 C 442.511719 136.933594 442.625 136.972656 442.78125 136.972656 C 443.242188 136.972656 443.898438 136.699219 443.898438 135.890625 C 443.898438 135.199219 443.398438 134.8125 442.78125 134.8125 C 442.316406 134.8125 441.699219 135.082031 441.699219 135.96875 C 441.699219 137.972656 443.398438 140.015625 445.863281 140.015625 C 448.523438 140.015625 450.796875 137.820312 450.796875 135.082031 C 450.796875 132.421875 448.910156 130.226562 446.480469 130.226562 C 445.441406 130.226562 444.359375 130.574219 443.550781 131.382812 L 443.550781 127.027344 C 444.246094 127.21875 444.9375 127.335938 445.59375 127.335938 C 448.332031 127.335938 449.910156 125.371094 449.910156 125.0625 C 449.910156 124.867188 449.792969 124.792969 449.679688 124.792969 C 449.640625 124.792969 449.601562 124.792969 449.371094 124.90625 C 448.332031 125.292969 447.328125 125.484375 446.402344 125.484375 C 445.441406 125.484375 444.4375 125.292969 443.433594 124.90625 C 443.203125 124.792969 443.164062 124.792969 443.164062 124.792969 C 442.894531 124.792969 442.894531 124.984375 442.894531 125.371094 Z M 442.894531 131.882812 "/>
<path fill-rule="nonzero" fill="rgb(0%, 0%, 0%)" fill-opacity="1" d="M 488.433594 122.902344 L 488.433594 123.90625 C 486.195312 123.90625 484.386719 126.023438 484.386719 128.183594 C 484.386719 129.996094 485.617188 131.613281 487.390625 132.191406 C 487.96875 132.347656 488.433594 132.308594 488.433594 132.730469 L 488.433594 139.011719 C 486.890625 139.011719 485.503906 138.050781 485.117188 136.429688 C 485.195312 136.46875 485.3125 136.46875 485.425781 136.46875 C 486.082031 136.46875 486.429688 135.96875 486.429688 135.429688 C 486.429688 134.851562 485.964844 134.425781 485.386719 134.425781 C 484.808594 134.425781 484.386719 134.8125 484.386719 135.582031 C 484.386719 137.511719 485.582031 139.285156 487.738281 139.628906 L 488.203125 139.707031 C 488.355469 139.707031 488.433594 139.785156 488.433594 139.9375 L 488.433594 140.746094 L 489.125 140.746094 L 489.125 139.707031 C 489.511719 139.707031 489.859375 139.589844 490.207031 139.476562 C 492.054688 138.859375 493.210938 137.007812 493.210938 135.121094 C 493.210938 132.886719 491.554688 130.882812 489.125 130.574219 L 489.125 124.597656 C 489.550781 124.675781 489.9375 124.675781 490.359375 124.792969 C 491.363281 125.136719 492.171875 125.871094 492.441406 126.871094 C 492.363281 126.871094 492.285156 126.871094 492.171875 126.871094 C 491.554688 126.871094 491.128906 127.335938 491.128906 127.875 C 491.128906 128.453125 491.59375 128.878906 492.171875 128.878906 C 493.019531 128.878906 493.210938 128.261719 493.210938 127.722656 C 493.210938 125.910156 492.015625 124.597656 490.476562 124.097656 C 490.050781 123.980469 489.589844 123.945312 489.125 123.90625 L 489.125 122.902344 Z M 489.125 139.011719 L 489.125 132.617188 C 489.433594 132.730469 489.78125 132.769531 490.089844 132.886719 C 491.246094 133.425781 492.054688 134.582031 492.054688 135.851562 L 492.054688 135.96875 C 491.863281 137.625 490.707031 138.859375 489.125 139.011719 Z M 488.433594 124.597656 L 488.433594 130.417969 C 487.082031 130.035156 486.003906 129.570312 485.582031 127.953125 C 485.542969 127.796875 485.542969 127.644531 485.542969 127.488281 C 485.542969 125.988281 486.929688 124.675781 488.433594 124.597656 Z M 488.433594 124.597656 "/>
<path fill-rule="nonzero" fill="rgb(0%, 0%, 0%)" fill-opacity="1" d="M 497.441406 132.191406 C 497.441406 129.917969 497.675781 128.683594 498.292969 127.527344 C 498.714844 126.601562 499.792969 125.332031 501.453125 125.332031 C 501.875 125.332031 502.917969 125.410156 503.417969 126.21875 C 502.609375 126.21875 502.222656 126.640625 502.222656 127.21875 C 502.222656 127.796875 502.644531 128.261719 503.261719 128.261719 C 503.878906 128.261719 504.304688 127.835938 504.304688 127.179688 C 504.304688 125.949219 503.417969 124.792969 501.414062 124.792969 C 498.5625 124.792969 495.4375 127.605469 495.4375 132.539062 C 495.4375 138.511719 498.136719 140.015625 500.21875 140.015625 C 502.644531 140.015625 504.882812 137.933594 504.882812 135.003906 C 504.882812 132.230469 502.839844 130.070312 500.332031 130.070312 C 499.023438 130.070312 498.058594 130.882812 497.441406 132.191406 Z M 500.179688 139.398438 C 498.90625 139.398438 498.175781 138.359375 497.945312 137.703125 C 497.519531 136.699219 497.480469 134.851562 497.480469 134.503906 C 497.480469 133.039062 498.175781 130.648438 500.296875 130.648438 C 500.640625 130.648438 501.722656 130.648438 502.453125 132 C 502.878906 132.847656 502.878906 133.925781 502.878906 135.003906 C 502.878906 136.046875 502.878906 137.164062 502.453125 137.972656 C 501.761719 139.246094 500.796875 139.398438 500.179688 139.398438 Z M 500.179688 139.398438 "/>
<path fill-rule="nonzero" fill="rgb(0%, 0%, 0%)" fill-opacity="1" d="M 516.324219 132.421875 C 516.324219 130.957031 516.246094 129.03125 515.476562 127.375 C 514.476562 125.292969 512.816406 124.792969 511.546875 124.792969 C 510.195312 124.792969 508.5 125.292969 507.539062 127.449219 C 506.84375 128.953125 506.726562 130.765625 506.726562 132.421875 C 506.726562 133.886719 506.765625 136.007812 507.730469 137.78125 C 508.769531 139.628906 510.503906 140.015625 511.507812 140.015625 C 512.933594 140.015625 514.589844 139.398438 515.515625 137.355469 C 516.171875 135.851562 516.324219 134.195312 516.324219 132.421875 Z M 511.546875 139.4375 C 510.851562 139.4375 509.273438 139.128906 508.847656 136.625 C 508.617188 135.351562 508.617188 133.425781 508.617188 132.152344 C 508.617188 130.648438 508.617188 128.914062 508.886719 127.683594 C 509.347656 125.714844 510.734375 125.332031 511.507812 125.332031 C 512.355469 125.332031 513.742188 125.792969 514.167969 127.835938 C 514.398438 129.03125 514.398438 130.765625 514.398438 132.152344 C 514.398438 133.539062 514.398438 135.390625 514.167969 136.699219 C 513.703125 139.246094 512.085938 139.4375 511.546875 139.4375 Z M 511.546875 139.4375 "/>
<path fill-rule="nonzero" fill="rgb(0%, 0%, 0%)" fill-opacity="1" d="M 553.691406 122.902344 L 553.691406 123.90625 C 551.457031 123.90625 549.644531 126.023438 549.644531 128.183594 C 549.644531 129.996094 550.878906 131.613281 552.648438 132.191406 C 553.226562 132.347656 553.691406 132.308594 553.691406 132.730469 L 553.691406 139.011719 C 552.148438 139.011719 550.761719 138.050781 550.375 136.429688 C 550.453125 136.46875 550.570312 136.46875 550.683594 136.46875 C 551.339844 136.46875 551.6875 135.96875 551.6875 135.429688 C 551.6875 134.851562 551.222656 134.425781 550.644531 134.425781 C 550.066406 134.425781 549.644531 134.8125 549.644531 135.582031 C 549.644531 137.511719 550.839844 139.285156 552.996094 139.628906 L 553.460938 139.707031 C 553.613281 139.707031 553.691406 139.785156 553.691406 139.9375 L 553.691406 140.746094 L 554.382812 140.746094 L 554.382812 139.707031 C 554.769531 139.707031 555.117188 139.589844 555.464844 139.476562 C 557.3125 138.859375 558.46875 137.007812 558.46875 135.121094 C 558.46875 132.886719 556.8125 130.882812 554.382812 130.574219 L 554.382812 124.597656 C 554.808594 124.675781 555.195312 124.675781 555.617188 124.792969 C 556.621094 125.136719 557.429688 125.871094 557.699219 126.871094 C 557.621094 126.871094 557.546875 126.871094 557.429688 126.871094 C 556.8125 126.871094 556.390625 127.335938 556.390625 127.875 C 556.390625 128.453125 556.851562 128.878906 557.429688 128.878906 C 558.277344 128.878906 558.46875 128.261719 558.46875 127.722656 C 558.46875 125.910156 557.273438 124.597656 555.734375 124.097656 C 555.308594 123.980469 554.847656 123.945312 554.382812 123.90625 L 554.382812 122.902344 Z M 554.382812 139.011719 L 554.382812 132.617188 C 554.691406 132.730469 555.039062 132.769531 555.347656 132.886719 C 556.503906 133.425781 557.3125 134.582031 557.3125 135.851562 L 557.3125 135.96875 C 557.121094 137.625 555.964844 138.859375 554.382812 139.011719 Z M 553.691406 124.597656 L 553.691406 130.417969 C 552.34375 130.035156 551.261719 129.570312 550.839844 127.953125 C 550.800781 127.796875 550.800781 127.644531 550.800781 127.488281 C 550.800781 125.988281 552.1875 124.675781 553.691406 124.597656 Z M 553.691406 124.597656 "/>
<path fill-rule="nonzero" fill="rgb(0%, 0%, 0%)" fill-opacity="1" d="M 570.566406 126.023438 C 570.757812 125.792969 570.757812 125.714844 570.757812 125.253906 L 565.285156 125.253906 C 562.472656 125.253906 562.394531 124.984375 562.355469 124.558594 L 561.738281 124.558594 L 561.007812 129.183594 L 561.625 129.183594 C 561.703125 128.683594 561.894531 127.449219 562.164062 127.179688 C 562.316406 127.027344 564.089844 127.027344 564.398438 127.027344 L 569.023438 127.027344 L 566.90625 129.917969 C 564.015625 133.886719 563.746094 137.511719 563.746094 138.742188 C 563.746094 139.011719 563.746094 140.015625 564.785156 140.015625 C 565.824219 140.015625 565.824219 139.011719 565.824219 138.742188 L 565.824219 137.664062 C 565.824219 134.386719 566.289062 131.84375 567.484375 130.226562 Z M 570.566406 126.023438 "/>
<path fill-rule="nonzero" fill="rgb(0%, 0%, 0%)" fill-opacity="1" d="M 573.414062 131.882812 C 573.414062 132.269531 573.414062 132.539062 573.722656 132.539062 C 573.878906 132.539062 573.953125 132.421875 574.070312 132.230469 C 574.761719 131.304688 575.804688 130.765625 576.960938 130.765625 C 579.351562 130.765625 579.351562 134.195312 579.351562 134.964844 C 579.351562 135.660156 579.351562 137.046875 578.695312 138.050781 C 578.117188 138.976562 577.191406 139.398438 576.304688 139.398438 C 575.035156 139.398438 573.53125 138.550781 572.992188 136.933594 C 573.027344 136.933594 573.144531 136.972656 573.300781 136.972656 C 573.761719 136.972656 574.417969 136.699219 574.417969 135.890625 C 574.417969 135.199219 573.914062 134.8125 573.300781 134.8125 C 572.835938 134.8125 572.21875 135.082031 572.21875 135.96875 C 572.21875 137.972656 573.914062 140.015625 576.382812 140.015625 C 579.042969 140.015625 581.316406 137.820312 581.316406 135.082031 C 581.316406 132.421875 579.425781 130.226562 577 130.226562 C 575.957031 130.226562 574.878906 130.574219 574.070312 131.382812 L 574.070312 127.027344 C 574.761719 127.21875 575.457031 127.335938 576.113281 127.335938 C 578.847656 127.335938 580.429688 125.371094 580.429688 125.0625 C 580.429688 124.867188 580.3125 124.792969 580.199219 124.792969 C 580.160156 124.792969 580.121094 124.792969 579.890625 124.90625 C 578.847656 125.292969 577.847656 125.484375 576.921875 125.484375 C 575.957031 125.484375 574.957031 125.292969 573.953125 124.90625 C 573.722656 124.792969 573.683594 124.792969 573.683594 124.792969 C 573.414062 124.792969 573.414062 124.984375 573.414062 125.371094 Z M 573.414062 131.882812 "/>
<path fill-rule="nonzero" fill="rgb(0%, 0%, 0%)" fill-opacity="1" d="M 618.953125 122.902344 L 618.953125 123.90625 C 616.714844 123.90625 614.90625 126.023438 614.90625 128.183594 C 614.90625 129.996094 616.136719 131.613281 617.910156 132.191406 C 618.488281 132.347656 618.953125 132.308594 618.953125 132.730469 L 618.953125 139.011719 C 617.410156 139.011719 616.023438 138.050781 615.636719 136.429688 C 615.714844 136.46875 615.828125 136.46875 615.945312 136.46875 C 616.601562 136.46875 616.945312 135.96875 616.945312 135.429688 C 616.945312 134.851562 616.484375 134.425781 615.90625 134.425781 C 615.328125 134.425781 614.90625 134.8125 614.90625 135.582031 C 614.90625 137.511719 616.097656 139.285156 618.257812 139.628906 L 618.71875 139.707031 C 618.875 139.707031 618.953125 139.785156 618.953125 139.9375 L 618.953125 140.746094 L 619.644531 140.746094 L 619.644531 139.707031 C 620.03125 139.707031 620.378906 139.589844 620.722656 139.476562 C 622.574219 138.859375 623.730469 137.007812 623.730469 135.121094 C 623.730469 132.886719 622.074219 130.882812 619.644531 130.574219 L 619.644531 124.597656 C 620.070312 124.675781 620.453125 124.675781 620.878906 124.792969 C 621.878906 125.136719 622.691406 125.871094 622.960938 126.871094 C 622.882812 126.871094 622.804688 126.871094 622.691406 126.871094 C 622.074219 126.871094 621.648438 127.335938 621.648438 127.875 C 621.648438 128.453125 622.113281 128.878906 622.691406 128.878906 C 623.539062 128.878906 623.730469 128.261719 623.730469 127.722656 C 623.730469 125.910156 622.535156 124.597656 620.992188 124.097656 C 620.570312 123.980469 620.109375 123.945312 619.644531 123.90625 L 619.644531 122.902344 Z M 619.644531 139.011719 L 619.644531 132.617188 C 619.953125 132.730469 620.300781 132.769531 620.609375 132.886719 C 621.765625 133.425781 622.574219 134.582031 622.574219 135.851562 L 622.574219 135.96875 C 622.382812 137.625 621.226562 138.859375 619.644531 139.011719 Z M 618.953125 124.597656 L 618.953125 130.417969 C 617.601562 130.035156 616.523438 129.570312 616.097656 127.953125 C 616.0625 127.796875 616.0625 127.644531 616.0625 127.488281 C 616.0625 125.988281 617.449219 124.675781 618.953125 124.597656 Z M 618.953125 124.597656 "/>
<path fill-rule="nonzero" fill="rgb(0%, 0%, 0%)" fill-opacity="1" d="M 633.398438 132.539062 L 633.398438 133.039062 C 633.398438 138.433594 630.933594 139.398438 629.660156 139.398438 C 629.160156 139.398438 628.042969 139.285156 627.464844 138.550781 L 627.539062 138.550781 C 627.734375 138.589844 628.582031 138.433594 628.582031 137.550781 C 628.582031 136.972656 628.195312 136.546875 627.578125 136.546875 C 626.960938 136.546875 626.539062 136.933594 626.539062 137.585938 C 626.539062 139.050781 627.695312 140.015625 629.699219 140.015625 C 632.550781 140.015625 635.402344 137.085938 635.402344 132.230469 C 635.402344 126.257812 632.742188 124.792969 630.738281 124.792969 C 628.195312 124.792969 625.960938 126.835938 625.960938 129.726562 C 625.960938 132.539062 627.964844 134.660156 630.46875 134.660156 C 632.089844 134.660156 632.976562 133.503906 633.398438 132.539062 Z M 630.546875 134.117188 C 630.160156 134.117188 629.082031 134.117188 628.386719 132.730469 C 627.964844 131.921875 627.964844 130.804688 627.964844 129.761719 C 627.964844 128.683594 627.964844 127.605469 628.425781 126.757812 C 629.082031 125.640625 629.96875 125.332031 630.738281 125.332031 C 632.242188 125.332031 632.859375 126.871094 632.9375 127.066406 C 633.246094 127.914062 633.320312 129.261719 633.320312 130.1875 C 633.320312 131.804688 632.589844 134.117188 630.546875 134.117188 Z M 630.546875 134.117188 "/>
<path fill-rule="nonzero" fill="rgb(0%, 0%, 0%)" fill-opacity="1" d="M 646.847656 132.421875 C 646.847656 130.957031 646.769531 129.03125 645.996094 127.375 C 644.996094 125.292969 643.339844 124.792969 642.066406 124.792969 C 640.71875 124.792969 639.023438 125.292969 638.058594 127.449219 C 637.363281 128.953125 637.25 130.765625 637.25 132.421875 C 637.25 133.886719 637.289062 136.007812 638.25 137.78125 C 639.292969 139.628906 641.027344 140.015625 642.027344 140.015625 C 643.453125 140.015625 645.113281 139.398438 646.035156 137.355469 C 646.691406 135.851562 646.847656 134.195312 646.847656 132.421875 Z M 642.066406 139.4375 C 641.371094 139.4375 639.792969 139.128906 639.367188 136.625 C 639.136719 135.351562 639.136719 133.425781 639.136719 132.152344 C 639.136719 130.648438 639.136719 128.914062 639.40625 127.683594 C 639.871094 125.714844 641.257812 125.332031 642.027344 125.332031 C 642.875 125.332031 644.261719 125.792969 644.6875 127.835938 C 644.917969 129.03125 644.917969 130.765625 644.917969 132.152344 C 644.917969 133.539062 644.917969 135.390625 644.6875 136.699219 C 644.226562 139.246094 642.605469 139.4375 642.066406 139.4375 Z M 642.066406 139.4375 "/>
</svg>
