<?xml version="1.0" encoding="UTF-8"?>
<svg xmlns="http://www.w3.org/2000/svg" xmlns:xlink="http://www.w3.org/1999/xlink" width="666.801697" height="153.848463" viewBox="0 0 666.801697 153.848463">
<path fill="none" stroke-width="0.3985" stroke-linecap="butt" stroke-linejoin="miter" stroke="rgb(0%, 0%, 0%)" stroke-opacity="1" stroke-miterlimit="10" d="M -0.0000851605 -0.00145026 L 178.010895 -0.00145026 " transform="matrix(2.466667, 0, 0, -2.466667, 217.394741, 43.230798)"/>
<path fill-rule="nonzero" fill="rgb(0%, 0%, 0%)" fill-opacity="1" d="M 661.402344 43.234375 L 653.542969 39.304688 L 656.488281 43.234375 L 653.542969 47.164062 "/>
<path fill-rule="nonzero" fill="rgb(0%, 0%, 0%)" fill-opacity="1" d="M 15.804688 43.324219 L 15.804688 49.914062 C 15.804688 50.992188 15.535156 50.992188 13.875 50.992188 L 13.875 51.761719 C 14.761719 51.722656 15.996094 51.6875 16.691406 51.6875 C 17.304688 51.6875 18.578125 51.722656 19.425781 51.761719 L 19.425781 50.992188 C 17.769531 50.992188 17.5 50.992188 17.5 49.914062 L 17.5 45.363281 C 17.5 42.820312 19.273438 41.433594 20.8125 41.433594 C 22.394531 41.433594 22.664062 42.746094 22.664062 44.171875 L 22.664062 49.914062 C 22.664062 50.992188 22.394531 50.992188 20.738281 50.992188 L 20.738281 51.761719 C 21.585938 51.722656 22.855469 51.6875 23.511719 51.6875 C 24.128906 51.6875 25.4375 51.722656 26.25 51.761719 L 26.25 50.992188 C 24.976562 50.992188 24.359375 50.992188 24.359375 50.261719 L 24.359375 45.558594 C 24.359375 43.4375 24.359375 42.707031 23.589844 41.820312 C 23.242188 41.394531 22.433594 40.894531 21.007812 40.894531 C 19.195312 40.894531 18.039062 41.933594 17.34375 43.476562 L 17.34375 40.894531 L 13.875 41.164062 L 13.875 41.933594 C 15.609375 41.933594 15.804688 42.089844 15.804688 43.324219 Z M 15.804688 43.324219 "/>
<path fill-rule="nonzero" fill="rgb(0%, 0%, 0%)" fill-opacity="1" d="M 35.667969 49.835938 L 35.667969 52.03125 L 39.214844 51.761719 L 39.214844 50.992188 C 37.519531 50.992188 37.324219 50.839844 37.324219 49.605469 L 37.324219 40.894531 L 33.703125 41.164062 L 33.703125 41.933594 C 35.398438 41.933594 35.628906 42.089844 35.628906 43.324219 L 35.628906 47.675781 C 35.628906 49.835938 34.433594 51.492188 32.621094 51.492188 C 30.582031 51.492188 30.464844 50.335938 30.464844 49.066406 L 30.464844 40.894531 L 26.839844 41.164062 L 26.839844 41.933594 C 28.769531 41.933594 28.769531 42.011719 28.769531 44.171875 L 28.769531 47.871094 C 28.769531 49.796875 28.769531 52.03125 32.507812 52.03125 C 33.894531 52.03125 34.972656 51.339844 35.667969 49.835938 Z M 35.667969 49.835938 "/>
<path fill-rule="nonzero" fill="rgb(0%, 0%, 0%)" fill-opacity="1" d="M 42.421875 43.324219 L 42.421875 49.914062 C 42.421875 50.992188 42.152344 50.992188 40.496094 50.992188 L 40.496094 51.761719 C 41.382812 51.722656 42.613281 51.6875 43.308594 51.6875 C 43.925781 51.6875 45.199219 51.722656 46.046875 51.761719 L 46.046875 50.992188 C 44.386719 50.992188 44.117188 50.992188 44.117188 49.914062 L 44.117188 45.363281 C 44.117188 42.820312 45.890625 41.433594 47.433594 41.433594 C 49.011719 41.433594 49.28125 42.746094 49.28125 44.171875 L 49.28125 49.914062 C 49.28125 50.992188 49.011719 50.992188 47.355469 50.992188 L 47.355469 51.761719 C 48.203125 51.722656 49.476562 51.6875 50.128906 51.6875 C 50.746094 51.6875 52.058594 51.722656 52.867188 51.761719 L 52.867188 50.992188 C 51.25 50.992188 50.980469 50.992188 50.980469 49.914062 L 50.980469 45.363281 C 50.980469 42.820312 52.714844 41.433594 54.292969 41.433594 C 55.835938 41.433594 56.105469 42.746094 56.105469 44.171875 L 56.105469 49.914062 C 56.105469 50.992188 55.835938 50.992188 54.175781 50.992188 L 54.175781 51.761719 C 55.027344 51.722656 56.296875 51.6875 56.953125 51.6875 C 57.609375 51.6875 58.878906 51.722656 59.726562 51.761719 L 59.726562 50.992188 C 58.457031 50.992188 57.839844 50.992188 57.800781 50.261719 L 57.800781 45.558594 C 57.800781 43.4375 57.800781 42.707031 57.03125 41.820312 C 56.683594 41.394531 55.875 40.894531 54.449219 40.894531 C 52.40625 40.894531 51.285156 42.359375 50.902344 43.324219 C 50.554688 41.164062 48.742188 40.894531 47.625 40.894531 C 45.8125 40.894531 44.65625 41.933594 43.964844 43.476562 L 43.964844 40.894531 L 40.496094 41.164062 L 40.496094 41.933594 C 42.230469 41.933594 42.421875 42.089844 42.421875 43.324219 Z M 42.421875 43.324219 "/>
<path fill-rule="nonzero" fill="rgb(0%, 0%, 0%)" fill-opacity="1" d="M 63.753906 42.472656 L 63.753906 34.6875 L 60.207031 34.957031 L 60.207031 35.730469 C 61.941406 35.730469 62.136719 35.882812 62.136719 37.117188 L 62.136719 51.761719 L 62.75 51.761719 C 62.75 51.722656 62.945312 51.378906 63.636719 50.222656 C 63.984375 50.800781 65.027344 52.03125 66.835938 52.03125 C 69.765625 52.03125 72.308594 49.605469 72.308594 46.445312 C 72.308594 43.324219 69.921875 40.894531 67.105469 40.894531 C 65.179688 40.894531 64.140625 42.050781 63.753906 42.472656 Z M 63.832031 48.949219 L 63.832031 43.902344 C 63.832031 43.4375 63.832031 43.398438 64.101562 43.015625 C 65.0625 41.625 66.414062 41.433594 66.992188 41.433594 C 68.109375 41.433594 68.996094 42.089844 69.574219 43.015625 C 70.230469 44.015625 70.265625 45.402344 70.265625 46.445312 C 70.265625 47.332031 70.230469 48.796875 69.535156 49.914062 C 68.996094 50.683594 68.070312 51.492188 66.761719 51.492188 C 65.640625 51.492188 64.753906 50.914062 64.175781 49.988281 C 63.832031 49.488281 63.832031 49.410156 63.832031 48.949219 Z M 63.832031 48.949219 "/>
<path fill-rule="nonzero" fill="rgb(0%, 0%, 0%)" fill-opacity="1" d="M 76.59375 45.558594 C 76.746094 41.894531 78.828125 41.28125 79.675781 41.28125 C 82.179688 41.28125 82.449219 44.59375 82.449219 45.558594 Z M 76.59375 46.097656 L 83.453125 46.097656 C 83.992188 46.097656 84.070312 46.097656 84.070312 45.558594 C 84.070312 43.128906 82.71875 40.738281 79.675781 40.738281 C 76.824219 40.738281 74.550781 43.285156 74.550781 46.367188 C 74.550781 49.644531 77.132812 52.03125 79.945312 52.03125 C 82.953125 52.03125 84.070312 49.296875 84.070312 48.832031 C 84.070312 48.601562 83.875 48.527344 83.722656 48.527344 C 83.53125 48.527344 83.453125 48.679688 83.414062 48.871094 C 82.566406 51.417969 80.332031 51.417969 80.097656 51.417969 C 78.867188 51.417969 77.902344 50.683594 77.324219 49.757812 C 76.59375 48.601562 76.59375 46.984375 76.59375 46.097656 Z M 76.59375 46.097656 "/>
<path fill-rule="nonzero" fill="rgb(0%, 0%, 0%)" fill-opacity="1" d="M 88.902344 43.59375 L 88.902344 40.894531 L 85.46875 41.164062 L 85.46875 41.933594 C 87.203125 41.933594 87.398438 42.089844 87.398438 43.324219 L 87.398438 49.914062 C 87.398438 50.992188 87.128906 50.992188 85.46875 50.992188 L 85.46875 51.761719 C 86.433594 51.722656 87.589844 51.6875 88.285156 51.6875 C 89.246094 51.6875 90.402344 51.6875 91.40625 51.761719 L 91.40625 50.992188 L 90.867188 50.992188 C 89.054688 50.992188 89.015625 50.722656 89.015625 49.835938 L 89.015625 46.058594 C 89.015625 43.628906 90.058594 41.433594 91.90625 41.433594 C 92.0625 41.433594 92.136719 41.433594 92.175781 41.472656 C 92.097656 41.472656 91.597656 41.78125 91.597656 42.4375 C 91.597656 43.089844 92.136719 43.476562 92.675781 43.476562 C 93.101562 43.476562 93.71875 43.167969 93.71875 42.398438 C 93.71875 41.625 92.949219 40.894531 91.90625 40.894531 C 90.09375 40.894531 89.207031 42.550781 88.902344 43.59375 Z M 88.902344 43.59375 "/>
<path fill-rule="nonzero" fill="rgb(0%, 0%, 0%)" fill-opacity="1" d="M 114.148438 46.484375 C 114.148438 43.359375 111.71875 40.738281 108.753906 40.738281 C 105.667969 40.738281 103.28125 43.4375 103.28125 46.484375 C 103.28125 49.683594 105.824219 52.03125 108.714844 52.03125 C 111.679688 52.03125 114.148438 49.605469 114.148438 46.484375 Z M 108.753906 51.417969 C 107.671875 51.417969 106.59375 50.914062 105.9375 49.757812 C 105.320312 48.679688 105.320312 47.175781 105.320312 46.289062 C 105.320312 45.328125 105.320312 44.015625 105.898438 42.9375 C 106.554688 41.820312 107.710938 41.28125 108.714844 41.28125 C 109.792969 41.28125 110.832031 41.820312 111.488281 42.898438 C 112.144531 43.9375 112.144531 45.363281 112.144531 46.289062 C 112.144531 47.175781 112.144531 48.527344 111.605469 49.605469 C 111.027344 50.722656 109.945312 51.417969 108.753906 51.417969 Z M 108.753906 51.417969 "/>
<path fill-rule="nonzero" fill="rgb(0%, 0%, 0%)" fill-opacity="1" d="M 119.191406 41.164062 L 119.191406 38.3125 C 119.191406 36.152344 120.347656 34.957031 121.425781 34.957031 C 121.503906 34.957031 121.886719 34.957031 122.234375 35.152344 C 121.964844 35.230469 121.503906 35.574219 121.503906 36.191406 C 121.503906 36.730469 121.886719 37.234375 122.582031 37.234375 C 123.273438 37.234375 123.660156 36.730469 123.660156 36.152344 C 123.660156 35.230469 122.734375 34.417969 121.425781 34.417969 C 119.730469 34.417969 117.609375 35.730469 117.609375 38.351562 L 117.609375 41.164062 L 115.683594 41.164062 L 115.683594 41.933594 L 117.609375 41.933594 L 117.609375 49.914062 C 117.609375 50.992188 117.339844 50.992188 115.722656 50.992188 L 115.722656 51.761719 C 116.683594 51.722656 117.839844 51.6875 118.496094 51.6875 C 119.496094 51.6875 120.652344 51.6875 121.617188 51.761719 L 121.617188 50.992188 L 121.117188 50.992188 C 119.304688 50.992188 119.265625 50.722656 119.265625 49.835938 L 119.265625 41.933594 L 122.042969 41.933594 L 122.042969 41.164062 Z M 119.191406 41.164062 "/>
<path fill-rule="nonzero" fill="rgb(0%, 0%, 0%)" fill-opacity="1" d="M 134.832031 42.472656 L 134.832031 34.6875 L 131.285156 34.957031 L 131.285156 35.730469 C 133.019531 35.730469 133.210938 35.882812 133.210938 37.117188 L 133.210938 51.761719 L 133.828125 51.761719 C 133.828125 51.722656 134.019531 51.378906 134.714844 50.222656 C 135.0625 50.800781 136.101562 52.03125 137.914062 52.03125 C 140.84375 52.03125 143.386719 49.605469 143.386719 46.445312 C 143.386719 43.324219 140.996094 40.894531 138.183594 40.894531 C 136.257812 40.894531 135.214844 42.050781 134.832031 42.472656 Z M 134.90625 48.949219 L 134.90625 43.902344 C 134.90625 43.4375 134.90625 43.398438 135.175781 43.015625 C 136.140625 41.625 137.488281 41.433594 138.066406 41.433594 C 139.1875 41.433594 140.070312 42.089844 140.648438 43.015625 C 141.304688 44.015625 141.34375 45.402344 141.34375 46.445312 C 141.34375 47.332031 141.304688 48.796875 140.613281 49.914062 C 140.070312 50.683594 139.148438 51.492188 137.835938 51.492188 C 136.71875 51.492188 135.832031 50.914062 135.253906 49.988281 C 134.90625 49.488281 134.90625 49.410156 134.90625 48.949219 Z M 134.90625 48.949219 "/>
<path fill-rule="nonzero" fill="rgb(0%, 0%, 0%)" fill-opacity="1" d="M 156.496094 46.484375 C 156.496094 43.359375 154.066406 40.738281 151.097656 40.738281 C 148.015625 40.738281 145.625 43.4375 145.625 46.484375 C 145.625 49.683594 148.167969 52.03125 151.058594 52.03125 C 154.027344 52.03125 156.496094 49.605469 156.496094 46.484375 Z M 151.097656 51.417969 C 150.019531 51.417969 148.941406 50.914062 148.285156 49.757812 C 147.667969 48.679688 147.667969 47.175781 147.667969 46.289062 C 147.667969 45.328125 147.667969 44.015625 148.246094 42.9375 C 148.902344 41.820312 150.058594 41.28125 151.058594 41.28125 C 152.140625 41.28125 153.179688 41.820312 153.835938 42.898438 C 154.492188 43.9375 154.492188 45.363281 154.492188 46.289062 C 154.492188 47.175781 154.492188 48.527344 153.949219 49.605469 C 153.371094 50.722656 152.292969 51.417969 151.097656 51.417969 Z M 151.097656 51.417969 "/>
<path fill-rule="nonzero" fill="rgb(0%, 0%, 0%)" fill-opacity="1" d="M 169.445312 46.484375 C 169.445312 43.359375 167.015625 40.738281 164.050781 40.738281 C 160.964844 40.738281 158.578125 43.4375 158.578125 46.484375 C 158.578125 49.683594 161.121094 52.03125 164.011719 52.03125 C 166.980469 52.03125 169.445312 49.605469 169.445312 46.484375 Z M 164.050781 51.417969 C 162.96875 51.417969 161.890625 50.914062 161.234375 49.757812 C 160.621094 48.679688 160.621094 47.175781 160.621094 46.289062 C 160.621094 45.328125 160.621094 44.015625 161.199219 42.9375 C 161.851562 41.820312 163.007812 41.28125 164.011719 41.28125 C 165.089844 41.28125 166.132812 41.820312 166.785156 42.898438 C 167.441406 43.9375 167.441406 45.363281 167.441406 46.289062 C 167.441406 47.175781 167.441406 48.527344 166.902344 49.605469 C 166.324219 50.722656 165.246094 51.417969 164.050781 51.417969 Z M 164.050781 51.417969 "/>
<path fill-rule="nonzero" fill="rgb(0%, 0%, 0%)" fill-opacity="1" d="M 172.792969 49.914062 C 172.792969 50.992188 172.519531 50.992188 170.863281 50.992188 L 170.863281 51.761719 C 171.671875 51.722656 172.828125 51.6875 173.523438 51.6875 C 174.292969 51.6875 175.257812 51.722656 176.261719 51.761719 L 176.261719 50.992188 C 174.601562 50.992188 174.332031 50.992188 174.332031 49.914062 L 174.332031 47.371094 L 175.914062 46.019531 C 177.800781 48.601562 178.84375 49.988281 178.84375 50.453125 C 178.84375 50.914062 178.417969 50.992188 177.957031 50.992188 L 177.957031 51.761719 C 178.609375 51.722656 180.074219 51.6875 180.613281 51.6875 C 181.308594 51.6875 182.042969 51.722656 182.734375 51.761719 L 182.734375 50.992188 C 181.808594 50.992188 181.269531 50.992188 180.34375 49.683594 L 177.222656 45.289062 C 177.183594 45.25 177.070312 45.09375 177.070312 45.019531 C 177.070312 44.941406 178.84375 43.4375 179.074219 43.246094 C 180.613281 42.011719 181.65625 41.933594 182.15625 41.933594 L 182.15625 41.164062 C 181.464844 41.242188 181.15625 41.242188 180.460938 41.242188 C 179.574219 41.242188 178.03125 41.203125 177.6875 41.164062 L 177.6875 41.933594 C 178.148438 41.933594 178.417969 42.203125 178.417969 42.550781 C 178.417969 43.050781 178.070312 43.324219 177.878906 43.515625 L 174.410156 46.484375 L 174.410156 34.6875 L 170.863281 34.957031 L 170.863281 35.730469 C 172.597656 35.730469 172.792969 35.882812 172.792969 37.117188 Z M 172.792969 49.914062 "/>
<path fill-rule="nonzero" fill="rgb(0%, 0%, 0%)" fill-opacity="1" d="M 188.265625 46.984375 C 188.804688 47.097656 190.808594 47.484375 190.808594 49.257812 C 190.808594 50.492188 189.960938 51.492188 188.035156 51.492188 C 185.953125 51.492188 185.066406 50.105469 184.605469 47.984375 C 184.527344 47.675781 184.527344 47.601562 184.257812 47.601562 C 183.949219 47.601562 183.949219 47.753906 183.949219 48.179688 L 183.949219 51.453125 C 183.949219 51.878906 183.949219 52.03125 184.21875 52.03125 C 184.335938 52.03125 184.375 51.996094 184.835938 51.53125 C 184.875 51.492188 184.875 51.453125 185.335938 50.992188 C 186.417969 51.996094 187.535156 52.03125 188.035156 52.03125 C 190.847656 52.03125 192.003906 50.375 192.003906 48.601562 C 192.003906 47.332031 191.273438 46.558594 190.964844 46.289062 C 190.15625 45.480469 189.191406 45.289062 188.152344 45.09375 C 186.761719 44.824219 185.144531 44.515625 185.144531 43.089844 C 185.144531 42.203125 185.761719 41.203125 187.882812 41.203125 C 190.578125 41.203125 190.734375 43.4375 190.773438 44.171875 C 190.773438 44.402344 191.003906 44.402344 191.042969 44.402344 C 191.386719 44.402344 191.386719 44.285156 191.386719 43.824219 L 191.386719 41.316406 C 191.386719 40.933594 191.386719 40.738281 191.117188 40.738281 C 191.003906 40.738281 190.925781 40.738281 190.617188 41.046875 C 190.539062 41.125 190.308594 41.355469 190.195312 41.433594 C 189.269531 40.738281 188.265625 40.738281 187.882812 40.738281 C 184.875 40.738281 183.949219 42.398438 183.949219 43.785156 C 183.949219 44.632812 184.335938 45.328125 184.992188 45.867188 C 185.800781 46.484375 186.492188 46.636719 188.265625 46.984375 Z M 188.265625 46.984375 "/>
<path fill="none" stroke-width="0.3487" stroke-linecap="round" stroke-linejoin="miter" stroke="rgb(0%, 0%, 0%)" stroke-opacity="1" stroke-miterlimit="10" d="M 8.503927 -3.485403 L 8.503927 3.487253 Z M 8.503927 -3.485403 " transform="matrix(2.466667, 0, 0, -2.466667, 217.394741, 43.230798)"/>
<path fill="none" stroke-width="0.3487" stroke-linecap="round" stroke-linejoin="miter" stroke="rgb(0%, 0%, 0%)" stroke-opacity="1" stroke-miterlimit="10" d="M 34.96138 -3.485403 L 34.96138 3.487253 Z M 34.96138 -3.485403 " transform="matrix(2.466667, 0, 0, -2.466667, 217.394741, 43.230798)"/>
<path fill="none" stroke-width="0.3487" stroke-linecap="round" stroke-linejoin="miter" stroke="rgb(0%, 0%, 0%)" stroke-opacity="1" stroke-miterlimit="10" d="M 61.41725 -3.485403 L 61.41725 3.487253 Z M 61.41725 -3.485403 " transform="matrix(2.466667, 0, 0, -2.466667, 217.394741, 43.230798)"/>
<path fill="none" stroke-width="0.3487" stroke-linecap="round" stroke-linejoin="miter" stroke="rgb(0%, 0%, 0%)" stroke-opacity="1" stroke-miterlimit="10" d="M 87.874704 -3.485403 L 87.874704 3.487253 Z M 87.874704 -3.485403 " transform="matrix(2.466667, 0, 0, -2.466667, 217.394741, 43.230798)"/>
<path fill="none" stroke-width="0.3487" stroke-linecap="round" stroke-linejoin="miter" stroke="rgb(0%, 0%, 0%)" stroke-opacity="1" stroke-miterlimit="10" d="M 114.332157 -3.485403 L 114.332157 3.487253 Z M 114.332157 -3.485403 " transform="matrix(2.466667, 0, 0, -2.466667, 217.394741, 43.230798)"/>
<path fill="none" stroke-width="0.3487" stroke-linecap="round" stroke-linejoin="miter" stroke="rgb(0%, 0%, 0%)" stroke-opacity="1" stroke-miterlimit="10" d="M 140.789611 -3.485403 L 140.789611 3.487253 Z M 140.789611 -3.485403 " transform="matrix(2.466667, 0, 0, -2.466667, 217.394741, 43.230798)"/>
<path fill="none" stroke-width="0.3487" stroke-linecap="round" stroke-linejoin="miter" stroke="rgb(0%, 0%, 0%)" stroke-opacity="1" stroke-miterlimit="10" d="M 167.245481 -3.485403 L 167.245481 3.487253 Z M 167.245481 -3.485403 " transform="matrix(2.466667, 0, 0, -2.466667, 217.394741, 43.230798)"/>
<path fill-rule="nonzero" fill="rgb(0%, 0%, 0%)" fill-opacity="1" d="M 243.171875 20.269531 C 243.171875 18.804688 243.09375 16.875 242.324219 15.21875 C 241.320312 13.136719 239.664062 12.636719 238.390625 12.636719 C 237.042969 12.636719 235.347656 13.136719 234.382812 15.296875 C 233.691406 16.800781 233.574219 18.609375 233.574219 20.269531 C 233.574219 21.734375 233.613281 23.851562 234.578125 25.625 C 235.617188 27.476562 237.351562 27.859375 238.355469 27.859375 C 239.78125 27.859375 241.4375 27.246094 242.363281 25.203125 C 243.015625 23.699219 243.171875 22.042969 243.171875 20.269531 Z M 238.390625 27.28125 C 237.699219 27.28125 236.117188 26.976562 235.695312 24.46875 C 235.464844 23.199219 235.464844 21.269531 235.464844 20 C 235.464844 18.496094 235.464844 16.761719 235.734375 15.527344 C 236.195312 13.5625 237.582031 13.175781 238.355469 13.175781 C 239.203125 13.175781 240.589844 13.640625 241.011719 15.683594 C 241.246094 16.875 241.246094 18.609375 241.246094 20 C 241.246094 21.386719 241.246094 23.234375 241.011719 24.546875 C 240.550781 27.089844 238.933594 27.28125 238.390625 27.28125 Z M 238.390625 27.28125 "/>
<path fill-rule="nonzero" fill="rgb(0%, 0%, 0%)" fill-opacity="1" d="M 304.65625 13.214844 C 304.65625 12.675781 304.65625 12.636719 304.117188 12.636719 C 302.726562 14.023438 300.683594 14.023438 299.992188 14.023438 L 299.992188 14.71875 C 300.414062 14.71875 301.765625 14.71875 302.960938 14.140625 L 302.960938 25.585938 C 302.960938 26.398438 302.921875 26.667969 300.839844 26.667969 L 300.144531 26.667969 L 300.144531 27.359375 C 300.917969 27.28125 302.921875 27.28125 303.808594 27.28125 C 304.730469 27.28125 306.699219 27.28125 307.507812 27.359375 L 307.507812 26.667969 L 306.8125 26.667969 C 304.730469 26.667969 304.65625 26.398438 304.65625 25.585938 Z M 304.65625 13.214844 "/>
<path fill-rule="nonzero" fill="rgb(0%, 0%, 0%)" fill-opacity="1" d="M 373.421875 23.429688 L 372.804688 23.429688 C 372.765625 23.738281 372.574219 25.046875 372.300781 25.394531 C 372.148438 25.585938 370.644531 25.585938 370.183594 25.585938 L 366.25 25.585938 L 368.449219 23.507812 C 372.070312 20.382812 373.421875 19.1875 373.421875 16.953125 C 373.421875 14.410156 371.339844 12.636719 368.601562 12.636719 C 366.058594 12.636719 364.324219 14.640625 364.324219 16.644531 C 364.324219 17.761719 365.289062 17.878906 365.480469 17.878906 C 365.980469 17.878906 366.636719 17.53125 366.636719 16.722656 C 366.636719 16.066406 366.175781 15.566406 365.480469 15.566406 C 365.363281 15.566406 365.328125 15.566406 365.210938 15.605469 C 365.75 14.023438 367.175781 13.332031 368.371094 13.332031 C 370.605469 13.332031 371.378906 15.414062 371.378906 16.953125 C 371.378906 19.1875 369.683594 21.039062 368.640625 22.195312 L 364.59375 26.550781 C 364.324219 26.820312 364.324219 26.859375 364.324219 27.359375 L 372.804688 27.359375 Z M 373.421875 23.429688 "/>
<path fill-rule="nonzero" fill="rgb(0%, 0%, 0%)" fill-opacity="1" d="M 435.210938 19.574219 C 437.253906 18.804688 438.257812 17.183594 438.257812 15.644531 C 438.257812 13.949219 436.367188 12.636719 434.054688 12.636719 C 431.78125 12.636719 430.046875 13.949219 430.046875 15.605469 C 430.046875 16.335938 430.511719 16.761719 431.164062 16.761719 C 431.820312 16.761719 432.28125 16.296875 432.28125 15.644531 C 432.28125 14.871094 431.742188 14.5625 430.972656 14.5625 C 431.550781 13.640625 432.898438 13.175781 434.015625 13.175781 C 435.828125 13.175781 436.175781 14.640625 436.175781 15.683594 C 436.175781 16.335938 436.058594 17.417969 435.519531 18.265625 C 434.828125 19.226562 434.054688 19.265625 433.402344 19.34375 C 432.859375 19.382812 432.824219 19.382812 432.628906 19.382812 C 432.4375 19.382812 432.246094 19.421875 432.246094 19.652344 C 432.246094 19.960938 432.4375 19.960938 432.824219 19.960938 L 433.824219 19.960938 C 435.75 19.960938 436.601562 21.5 436.601562 23.582031 C 436.601562 26.433594 435.097656 27.246094 433.980469 27.246094 C 433.554688 27.246094 431.398438 27.128906 430.433594 25.472656 C 431.203125 25.585938 431.820312 25.046875 431.820312 24.277344 C 431.820312 23.542969 431.28125 23.082031 430.625 23.082031 C 430.085938 23.082031 429.429688 23.429688 429.429688 24.355469 C 429.429688 26.320312 431.472656 27.859375 434.054688 27.859375 C 436.792969 27.859375 438.875 25.855469 438.875 23.582031 C 438.875 21.65625 437.332031 20.039062 435.210938 19.574219 Z M 435.210938 19.574219 "/>
<path fill-rule="nonzero" fill="rgb(0%, 0%, 0%)" fill-opacity="1" d="M 494.382812 23.003906 L 494.382812 23.699219 L 500.394531 23.699219 L 500.394531 25.625 C 500.394531 26.433594 500.355469 26.667969 498.699219 26.667969 L 498.199219 26.667969 L 498.199219 27.359375 C 499.585938 27.28125 501.128906 27.28125 501.28125 27.28125 C 501.398438 27.28125 503.015625 27.28125 504.402344 27.359375 L 504.402344 26.667969 L 503.902344 26.667969 C 502.246094 26.667969 502.167969 26.433594 502.167969 25.625 L 502.167969 23.699219 L 504.441406 23.699219 L 504.441406 23.003906 L 502.167969 23.003906 L 502.167969 12.984375 C 502.167969 12.523438 502.167969 12.367188 501.746094 12.367188 C 501.476562 12.367188 501.476562 12.40625 501.28125 12.714844 Z M 495.078125 23.003906 L 500.550781 14.835938 L 500.550781 23.003906 Z M 495.078125 23.003906 "/>
<path fill-rule="nonzero" fill="rgb(0%, 0%, 0%)" fill-opacity="1" d="M 561.296875 19.730469 C 561.296875 20.113281 561.296875 20.382812 561.605469 20.382812 C 561.761719 20.382812 561.839844 20.269531 561.953125 20.074219 C 562.648438 19.152344 563.6875 18.609375 564.84375 18.609375 C 567.234375 18.609375 567.234375 22.042969 567.234375 22.8125 C 567.234375 23.507812 567.234375 24.894531 566.578125 25.894531 C 566 26.820312 565.074219 27.246094 564.1875 27.246094 C 562.917969 27.246094 561.414062 26.398438 560.875 24.777344 C 560.914062 24.777344 561.027344 24.816406 561.183594 24.816406 C 561.644531 24.816406 562.300781 24.546875 562.300781 23.738281 C 562.300781 23.042969 561.800781 22.65625 561.183594 22.65625 C 560.71875 22.65625 560.105469 22.929688 560.105469 23.8125 C 560.105469 25.820312 561.800781 27.859375 564.265625 27.859375 C 566.925781 27.859375 569.199219 25.664062 569.199219 22.929688 C 569.199219 20.269531 567.3125 18.070312 564.882812 18.070312 C 563.84375 18.070312 562.761719 18.417969 561.953125 19.226562 L 561.953125 14.871094 C 562.648438 15.066406 563.339844 15.179688 563.996094 15.179688 C 566.734375 15.179688 568.3125 13.214844 568.3125 12.90625 C 568.3125 12.714844 568.199219 12.636719 568.082031 12.636719 C 568.042969 12.636719 568.003906 12.636719 567.773438 12.753906 C 566.734375 13.136719 565.730469 13.332031 564.804688 13.332031 C 563.84375 13.332031 562.839844 13.136719 561.839844 12.753906 C 561.605469 12.636719 561.570312 12.636719 561.570312 12.636719 C 561.296875 12.636719 561.296875 12.828125 561.296875 13.214844 Z M 561.296875 19.730469 "/>
<path fill-rule="nonzero" fill="rgb(0%, 0%, 0%)" fill-opacity="1" d="M 627.214844 20.039062 C 627.214844 17.761719 627.445312 16.53125 628.0625 15.375 C 628.484375 14.449219 629.566406 13.175781 631.222656 13.175781 C 631.648438 13.175781 632.6875 13.253906 633.1875 14.0625 C 632.378906 14.0625 631.992188 14.488281 631.992188 15.066406 C 631.992188 15.644531 632.417969 16.105469 633.035156 16.105469 C 633.652344 16.105469 634.074219 15.683594 634.074219 15.027344 C 634.074219 13.792969 633.1875 12.636719 631.183594 12.636719 C 628.332031 12.636719 625.210938 15.449219 625.210938 20.382812 C 625.210938 26.359375 627.90625 27.859375 629.988281 27.859375 C 632.417969 27.859375 634.652344 25.78125 634.652344 22.851562 C 634.652344 20.074219 632.609375 17.917969 630.105469 17.917969 C 628.792969 17.917969 627.832031 18.726562 627.214844 20.039062 Z M 629.949219 27.246094 C 628.679688 27.246094 627.945312 26.203125 627.714844 25.546875 C 627.292969 24.546875 627.253906 22.695312 627.253906 22.351562 C 627.253906 20.886719 627.945312 18.496094 630.066406 18.496094 C 630.414062 18.496094 631.492188 18.496094 632.226562 19.84375 C 632.648438 20.691406 632.648438 21.773438 632.648438 22.851562 C 632.648438 23.890625 632.648438 25.007812 632.226562 25.820312 C 631.53125 27.089844 630.566406 27.246094 629.949219 27.246094 Z M 629.949219 27.246094 "/>
<path fill="none" stroke-width="0.3985" stroke-linecap="butt" stroke-linejoin="miter" stroke="rgb(0%, 0%, 0%)" stroke-opacity="1" stroke-miterlimit="10" d="M -0.0000851605 -25.735192 L 178.010895 -25.735192 " transform="matrix(2.466667, 0, 0, -2.466667, 217.394741, 43.230798)"/>
<path fill-rule="nonzero" fill="rgb(0%, 0%, 0%)" fill-opacity="1" d="M 661.402344 106.710938 L 653.542969 102.78125 L 656.488281 106.710938 L 653.542969 110.644531 "/>
<path fill-rule="nonzero" fill="rgb(0%, 0%, 0%)" fill-opacity="1" d="M 95.914062 105.417969 L 99.460938 105.417969 L 99.460938 104.648438 L 95.914062 104.648438 L 95.914062 100.140625 L 95.300781 100.140625 C 95.300781 102.144531 94.566406 104.765625 92.136719 104.878906 L 92.136719 105.417969 L 94.21875 105.417969 L 94.21875 112.203125 C 94.21875 115.210938 96.53125 115.515625 97.417969 115.515625 C 99.152344 115.515625 99.847656 113.78125 99.847656 112.203125 L 99.847656 110.816406 L 99.230469 110.816406 L 99.230469 112.164062 C 99.230469 113.976562 98.496094 114.902344 97.574219 114.902344 C 95.914062 114.902344 95.914062 112.664062 95.914062 112.242188 Z M 95.914062 105.417969 "/>
<path fill-rule="nonzero" fill="rgb(0%, 0%, 0%)" fill-opacity="1" d="M 112.796875 109.96875 C 112.796875 106.84375 110.367188 104.226562 107.398438 104.226562 C 104.316406 104.226562 101.925781 106.921875 101.925781 109.96875 C 101.925781 113.167969 104.46875 115.515625 107.359375 115.515625 C 110.328125 115.515625 112.796875 113.089844 112.796875 109.96875 Z M 107.398438 114.902344 C 106.320312 114.902344 105.242188 114.398438 104.585938 113.242188 C 103.96875 112.164062 103.96875 110.660156 103.96875 109.773438 C 103.96875 108.8125 103.96875 107.5 104.546875 106.421875 C 105.203125 105.304688 106.359375 104.765625 107.359375 104.765625 C 108.441406 104.765625 109.480469 105.304688 110.136719 106.382812 C 110.792969 107.421875 110.792969 108.851562 110.792969 109.773438 C 110.792969 110.660156 110.792969 112.011719 110.25 113.089844 C 109.671875 114.207031 108.59375 114.902344 107.398438 114.902344 Z M 107.398438 114.902344 "/>
<path fill-rule="nonzero" fill="rgb(0%, 0%, 0%)" fill-opacity="1" d="M 117.761719 105.417969 L 121.304688 105.417969 L 121.304688 104.648438 L 117.761719 104.648438 L 117.761719 100.140625 L 117.144531 100.140625 C 117.144531 102.144531 116.410156 104.765625 113.984375 104.878906 L 113.984375 105.417969 L 116.0625 105.417969 L 116.0625 112.203125 C 116.0625 115.210938 118.375 115.515625 119.261719 115.515625 C 120.996094 115.515625 121.691406 113.78125 121.691406 112.203125 L 121.691406 110.816406 L 121.074219 110.816406 L 121.074219 112.164062 C 121.074219 113.976562 120.34375 114.902344 119.417969 114.902344 C 117.761719 114.902344 117.761719 112.664062 117.761719 112.242188 Z M 117.761719 105.417969 "/>
<path fill-rule="nonzero" fill="rgb(0%, 0%, 0%)" fill-opacity="1" d="M 131.25 113.398438 C 131.363281 114.359375 132.019531 115.402344 133.175781 115.402344 C 133.714844 115.402344 135.21875 115.054688 135.21875 113.050781 L 135.21875 111.664062 L 134.601562 111.664062 L 134.601562 113.050781 C 134.601562 114.476562 133.984375 114.632812 133.714844 114.632812 C 132.90625 114.632812 132.789062 113.511719 132.789062 113.398438 L 132.789062 108.503906 C 132.789062 107.460938 132.789062 106.5 131.902344 105.574219 C 130.941406 104.609375 129.707031 104.226562 128.550781 104.226562 C 126.507812 104.226562 124.8125 105.382812 124.8125 107 C 124.8125 107.730469 125.3125 108.15625 125.96875 108.15625 C 126.660156 108.15625 127.085938 107.65625 127.085938 107.039062 C 127.085938 106.730469 126.96875 105.921875 125.8125 105.921875 C 126.507812 105.035156 127.703125 104.765625 128.472656 104.765625 C 129.707031 104.765625 131.09375 105.726562 131.09375 107.925781 L 131.09375 108.8125 C 129.820312 108.886719 128.125 108.964844 126.585938 109.699219 C 124.734375 110.546875 124.117188 111.816406 124.117188 112.898438 C 124.117188 114.902344 126.507812 115.515625 128.050781 115.515625 C 129.667969 115.515625 130.785156 114.515625 131.25 113.398438 Z M 131.09375 109.351562 L 131.09375 111.816406 C 131.09375 114.128906 129.320312 114.976562 128.203125 114.976562 C 127.007812 114.976562 126.007812 114.128906 126.007812 112.898438 C 126.007812 111.546875 127.046875 109.503906 131.09375 109.351562 Z M 131.09375 109.351562 "/>
<path fill-rule="nonzero" fill="rgb(0%, 0%, 0%)" fill-opacity="1" d="M 139.71875 98.171875 L 136.175781 98.445312 L 136.175781 99.214844 C 137.910156 99.214844 138.101562 99.367188 138.101562 100.601562 L 138.101562 113.398438 C 138.101562 114.476562 137.832031 114.476562 136.175781 114.476562 L 136.175781 115.246094 C 136.984375 115.210938 138.292969 115.171875 138.910156 115.171875 C 139.527344 115.171875 140.722656 115.210938 141.648438 115.246094 L 141.648438 114.476562 C 139.988281 114.476562 139.71875 114.476562 139.71875 113.398438 Z M 139.71875 98.171875 "/>
<path fill-rule="nonzero" fill="rgb(0%, 0%, 0%)" fill-opacity="1" d="M 153.265625 109.890625 C 153.265625 105.882812 155.269531 104.839844 156.578125 104.839844 C 156.8125 104.839844 158.351562 104.878906 159.199219 105.765625 C 158.199219 105.84375 158.042969 106.574219 158.042969 106.882812 C 158.042969 107.539062 158.507812 108 159.160156 108 C 159.816406 108 160.316406 107.617188 160.316406 106.84375 C 160.316406 105.1875 158.429688 104.226562 156.542969 104.226562 C 153.457031 104.226562 151.222656 106.882812 151.222656 109.929688 C 151.222656 113.089844 153.652344 115.515625 156.503906 115.515625 C 159.777344 115.515625 160.589844 112.550781 160.589844 112.320312 C 160.589844 112.085938 160.316406 112.085938 160.242188 112.085938 C 160.046875 112.085938 159.972656 112.164062 159.933594 112.320312 C 159.238281 114.59375 157.621094 114.902344 156.734375 114.902344 C 155.421875 114.902344 153.265625 113.859375 153.265625 109.890625 Z M 153.265625 109.890625 "/>
<path fill-rule="nonzero" fill="rgb(0%, 0%, 0%)" fill-opacity="1" d="M 172.859375 109.96875 C 172.859375 106.84375 170.429688 104.226562 167.460938 104.226562 C 164.378906 104.226562 161.988281 106.921875 161.988281 109.96875 C 161.988281 113.167969 164.53125 115.515625 167.421875 115.515625 C 170.390625 115.515625 172.859375 113.089844 172.859375 109.96875 Z M 167.460938 114.902344 C 166.382812 114.902344 165.304688 114.398438 164.648438 113.242188 C 164.03125 112.164062 164.03125 110.660156 164.03125 109.773438 C 164.03125 108.8125 164.03125 107.5 164.609375 106.421875 C 165.265625 105.304688 166.421875 104.765625 167.421875 104.765625 C 168.503906 104.765625 169.542969 105.304688 170.199219 106.382812 C 170.855469 107.421875 170.855469 108.851562 170.855469 109.773438 C 170.855469 110.660156 170.855469 112.011719 170.3125 113.089844 C 169.734375 114.207031 168.65625 114.902344 167.460938 114.902344 Z M 167.460938 114.902344 "/>
<path fill-rule="nonzero" fill="rgb(0%, 0%, 0%)" fill-opacity="1" d="M 178.707031 110.46875 C 179.25 110.585938 181.253906 110.96875 181.253906 112.742188 C 181.253906 113.976562 180.40625 114.976562 178.476562 114.976562 C 176.394531 114.976562 175.507812 113.589844 175.046875 111.46875 C 174.96875 111.164062 174.96875 111.085938 174.699219 111.085938 C 174.390625 111.085938 174.390625 111.238281 174.390625 111.664062 L 174.390625 114.9375 C 174.390625 115.363281 174.390625 115.515625 174.660156 115.515625 C 174.777344 115.515625 174.816406 115.480469 175.277344 115.015625 C 175.316406 114.976562 175.316406 114.9375 175.78125 114.476562 C 176.859375 115.480469 177.976562 115.515625 178.476562 115.515625 C 181.289062 115.515625 182.445312 113.859375 182.445312 112.085938 C 182.445312 110.816406 181.714844 110.042969 181.40625 109.773438 C 180.597656 108.964844 179.632812 108.773438 178.59375 108.578125 C 177.207031 108.308594 175.585938 108 175.585938 106.574219 C 175.585938 105.6875 176.203125 104.6875 178.324219 104.6875 C 181.019531 104.6875 181.175781 106.921875 181.214844 107.65625 C 181.214844 107.886719 181.445312 107.886719 181.484375 107.886719 C 181.832031 107.886719 181.832031 107.769531 181.832031 107.308594 L 181.832031 104.804688 C 181.832031 104.417969 181.832031 104.226562 181.5625 104.226562 C 181.445312 104.226562 181.367188 104.226562 181.058594 104.53125 C 180.984375 104.609375 180.75 104.839844 180.636719 104.917969 C 179.710938 104.226562 178.707031 104.226562 178.324219 104.226562 C 175.316406 104.226562 174.390625 105.882812 174.390625 107.269531 C 174.390625 108.117188 174.777344 108.8125 175.433594 109.351562 C 176.242188 109.96875 176.9375 110.121094 178.707031 110.46875 Z M 178.707031 110.46875 "/>
<path fill-rule="nonzero" fill="rgb(0%, 0%, 0%)" fill-opacity="1" d="M 187.515625 105.417969 L 191.058594 105.417969 L 191.058594 104.648438 L 187.515625 104.648438 L 187.515625 100.140625 L 186.898438 100.140625 C 186.898438 102.144531 186.164062 104.765625 183.738281 104.878906 L 183.738281 105.417969 L 185.820312 105.417969 L 185.820312 112.203125 C 185.820312 115.210938 188.132812 115.515625 189.015625 115.515625 C 190.75 115.515625 191.445312 113.78125 191.445312 112.203125 L 191.445312 110.816406 L 190.828125 110.816406 L 190.828125 112.164062 C 190.828125 113.976562 190.097656 114.902344 189.171875 114.902344 C 187.515625 114.902344 187.515625 112.664062 187.515625 112.242188 Z M 187.515625 105.417969 "/>
<path fill="none" stroke-width="0.3487" stroke-linecap="round" stroke-linejoin="miter" stroke="rgb(0%, 0%, 0%)" stroke-opacity="1" stroke-miterlimit="10" d="M 8.503927 -29.223895 L 8.503927 -22.251239 Z M 8.503927 -29.223895 " transform="matrix(2.466667, 0, 0, -2.466667, 217.394741, 43.230798)"/>
<path fill="none" stroke-width="0.3487" stroke-linecap="round" stroke-linejoin="miter" stroke="rgb(0%, 0%, 0%)" stroke-opacity="1" stroke-miterlimit="10" d="M 34.96138 -29.223895 L 34.96138 -22.251239 Z M 34.96138 -29.223895 " transform="matrix(2.466667, 0, 0, -2.466667, 217.394741, 43.230798)"/>
<path fill="none" stroke-width="0.3487" stroke-linecap="round" stroke-linejoin="miter" stroke="rgb(0%, 0%, 0%)" stroke-opacity="1" stroke-miterlimit="10" d="M 61.41725 -29.223895 L 61.41725 -22.251239 Z M 61.41725 -29.223895 " transform="matrix(2.466667, 0, 0, -2.466667, 217.394741, 43.230798)"/>
<path fill="none" stroke-width="0.3487" stroke-linecap="round" stroke-linejoin="miter" stroke="rgb(0%, 0%, 0%)" stroke-opacity="1" stroke-miterlimit="10" d="M 87.874704 -29.223895 L 87.874704 -22.251239 Z M 87.874704 -29.223895 " transform="matrix(2.466667, 0, 0, -2.466667, 217.394741, 43.230798)"/>
<path fill="none" stroke-width="0.3487" stroke-linecap="round" stroke-linejoin="miter" stroke="rgb(0%, 0%, 0%)" stroke-opacity="1" stroke-miterlimit="10" d="M 114.332157 -29.223895 L 114.332157 -22.251239 Z M 114.332157 -29.223895 " transform="matrix(2.466667, 0, 0, -2.466667, 217.394741, 43.230798)"/>
<path fill="none" stroke-width="0.3487" stroke-linecap="round" stroke-linejoin="miter" stroke="rgb(0%, 0%, 0%)" stroke-opacity="1" stroke-miterlimit="10" d="M 140.789611 -29.223895 L 140.789611 -22.251239 Z M 140.789611 -29.223895 " transform="matrix(2.466667, 0, 0, -2.466667, 217.394741, 43.230798)"/>
<path fill="none" stroke-width="0.3487" stroke-linecap="round" stroke-linejoin="miter" stroke="rgb(0%, 0%, 0%)" stroke-opacity="1" stroke-miterlimit="10" d="M 167.245481 -29.223895 L 167.245481 -22.251239 Z M 167.245481 -29.223895 " transform="matrix(2.466667, 0, 0, -2.466667, 217.394741, 43.230798)"/>
<path fill-rule="nonzero" fill="rgb(0%, 0%, 0%)" fill-opacity="1" d="M 232.324219 122.902344 L 232.324219 123.90625 C 230.089844 123.90625 228.277344 126.023438 228.277344 128.183594 C 228.277344 129.996094 229.511719 131.613281 231.285156 132.191406 C 231.863281 132.347656 232.324219 132.308594 232.324219 132.730469 L 232.324219 139.011719 C 230.785156 139.011719 229.398438 138.050781 229.011719 136.429688 C 229.089844 136.46875 229.203125 136.46875 229.320312 136.46875 C 229.976562 136.46875 230.320312 135.96875 230.320312 135.429688 C 230.320312 134.851562 229.859375 134.425781 229.28125 134.425781 C 228.703125 134.425781 228.277344 134.8125 228.277344 135.582031 C 228.277344 137.511719 229.472656 139.285156 231.632812 139.628906 L 232.09375 139.707031 C 232.25 139.707031 232.324219 139.785156 232.324219 139.9375 L 232.324219 140.746094 L 233.019531 140.746094 L 233.019531 139.707031 C 233.40625 139.707031 233.753906 139.589844 234.097656 139.476562 C 235.949219 138.859375 237.105469 137.007812 237.105469 135.121094 C 237.105469 132.886719 235.449219 130.882812 233.019531 130.574219 L 233.019531 124.597656 C 233.445312 124.675781 233.828125 124.675781 234.253906 124.792969 C 235.253906 125.136719 236.066406 125.871094 236.335938 126.871094 C 236.257812 126.871094 236.179688 126.871094 236.066406 126.871094 C 235.449219 126.871094 235.023438 127.335938 235.023438 127.875 C 235.023438 128.453125 235.488281 128.878906 236.066406 128.878906 C 236.914062 128.878906 237.105469 128.261719 237.105469 127.722656 C 237.105469 125.910156 235.910156 124.597656 234.367188 124.097656 C 233.945312 123.980469 233.480469 123.945312 233.019531 123.90625 L 233.019531 122.902344 Z M 233.019531 139.011719 L 233.019531 132.617188 C 233.328125 132.730469 233.675781 132.769531 233.984375 132.886719 C 235.140625 133.425781 235.949219 134.582031 235.949219 135.851562 L 235.949219 135.96875 C 235.757812 137.625 234.601562 138.859375 233.019531 139.011719 Z M 232.324219 124.597656 L 232.324219 130.417969 C 230.976562 130.035156 229.898438 129.570312 229.472656 127.953125 C 229.433594 127.796875 229.433594 127.644531 229.433594 127.488281 C 229.433594 125.988281 230.824219 124.675781 232.324219 124.597656 Z M 232.324219 124.597656 "/>
<path fill-rule="nonzero" fill="rgb(0%, 0%, 0%)" fill-opacity="1" d="M 248.851562 132.421875 C 248.851562 130.957031 248.773438 129.03125 248.003906 127.375 C 247.003906 125.292969 245.34375 124.792969 244.074219 124.792969 C 242.722656 124.792969 241.027344 125.292969 240.066406 127.449219 C 239.371094 128.953125 239.253906 130.765625 239.253906 132.421875 C 239.253906 133.886719 239.292969 136.007812 240.257812 137.78125 C 241.296875 139.628906 243.03125 140.015625 244.035156 140.015625 C 245.460938 140.015625 247.117188 139.398438 248.042969 137.355469 C 248.699219 135.851562 248.851562 134.195312 248.851562 132.421875 Z M 244.074219 139.4375 C 243.378906 139.4375 241.800781 139.128906 241.375 136.625 C 241.144531 135.351562 241.144531 133.425781 241.144531 132.152344 C 241.144531 130.648438 241.144531 128.914062 241.414062 127.683594 C 241.875 125.714844 243.261719 125.332031 244.035156 125.332031 C 244.882812 125.332031 246.269531 125.792969 246.695312 127.835938 C 246.925781 129.03125 246.925781 130.765625 246.925781 132.152344 C 246.925781 133.539062 246.925781 135.390625 246.695312 136.699219 C 246.230469 139.246094 244.613281 139.4375 244.074219 139.4375 Z M 244.074219 139.4375 "/>
<path fill-rule="nonzero" fill="rgb(0%, 0%, 0%)" fill-opacity="1" d="M 291.902344 122.902344 L 291.902344 123.90625 C 289.667969 123.90625 287.855469 126.023438 287.855469 128.183594 C 287.855469 129.996094 289.089844 131.613281 290.863281 132.191406 C 291.441406 132.347656 291.902344 132.308594 291.902344 132.730469 L 291.902344 139.011719 C 290.363281 139.011719 288.972656 138.050781 288.589844 136.429688 C 288.664062 136.46875 288.78125 136.46875 288.898438 136.46875 C 289.550781 136.46875 289.898438 135.96875 289.898438 135.429688 C 289.898438 134.851562 289.4375 134.425781 288.859375 134.425781 C 288.28125 134.425781 287.855469 134.8125 287.855469 135.582031 C 287.855469 137.511719 289.050781 139.285156 291.210938 139.628906 L 291.671875 139.707031 C 291.828125 139.707031 291.902344 139.785156 291.902344 139.9375 L 291.902344 140.746094 L 292.597656 140.746094 L 292.597656 139.707031 C 292.984375 139.707031 293.328125 139.589844 293.675781 139.476562 C 295.527344 138.859375 296.683594 137.007812 296.683594 135.121094 C 296.683594 132.886719 295.023438 130.882812 292.597656 130.574219 L 292.597656 124.597656 C 293.019531 124.675781 293.40625 124.675781 293.832031 124.792969 C 294.832031 125.136719 295.640625 125.871094 295.910156 126.871094 C 295.835938 126.871094 295.757812 126.871094 295.640625 126.871094 C 295.023438 126.871094 294.601562 127.335938 294.601562 127.875 C 294.601562 128.453125 295.0625 128.878906 295.640625 128.878906 C 296.488281 128.878906 296.683594 128.261719 296.683594 127.722656 C 296.683594 125.910156 295.488281 124.597656 293.945312 124.097656 C 293.523438 123.980469 293.058594 123.945312 292.597656 123.90625 L 292.597656 122.902344 Z M 292.597656 139.011719 L 292.597656 132.617188 C 292.90625 132.730469 293.253906 132.769531 293.5625 132.886719 C 294.71875 133.425781 295.527344 134.582031 295.527344 135.851562 L 295.527344 135.96875 C 295.332031 137.625 294.175781 138.859375 292.597656 139.011719 Z M 291.902344 124.597656 L 291.902344 130.417969 C 290.554688 130.035156 289.476562 129.570312 289.050781 127.953125 C 289.011719 127.796875 289.011719 127.644531 289.011719 127.488281 C 289.011719 125.988281 290.398438 124.675781 291.902344 124.597656 Z M 291.902344 124.597656 "/>
<path fill-rule="nonzero" fill="rgb(0%, 0%, 0%)" fill-opacity="1" d="M 304.652344 125.371094 C 304.652344 124.832031 304.652344 124.792969 304.113281 124.792969 C 302.726562 126.179688 300.683594 126.179688 299.988281 126.179688 L 299.988281 126.871094 C 300.414062 126.871094 301.761719 126.871094 302.957031 126.292969 L 302.957031 137.742188 C 302.957031 138.550781 302.917969 138.820312 300.835938 138.820312 L 300.144531 138.820312 L 300.144531 139.515625 C 300.914062 139.4375 302.917969 139.4375 303.804688 139.4375 C 304.730469 139.4375 306.695312 139.4375 307.503906 139.515625 L 307.503906 138.820312 L 306.8125 138.820312 C 304.730469 138.820312 304.652344 138.550781 304.652344 137.742188 Z M 304.652344 125.371094 "/>
<path fill-rule="nonzero" fill="rgb(0%, 0%, 0%)" fill-opacity="1" d="M 311.625 131.882812 C 311.625 132.269531 311.625 132.539062 311.933594 132.539062 C 312.085938 132.539062 312.164062 132.421875 312.28125 132.230469 C 312.972656 131.304688 314.015625 130.765625 315.171875 130.765625 C 317.558594 130.765625 317.558594 134.195312 317.558594 134.964844 C 317.558594 135.660156 317.558594 137.046875 316.90625 138.050781 C 316.328125 138.976562 315.402344 139.398438 314.515625 139.398438 C 313.242188 139.398438 311.742188 138.550781 311.199219 136.933594 C 311.238281 136.933594 311.355469 136.972656 311.507812 136.972656 C 311.972656 136.972656 312.625 136.699219 312.625 135.890625 C 312.625 135.199219 312.125 134.8125 311.507812 134.8125 C 311.046875 134.8125 310.429688 135.082031 310.429688 135.96875 C 310.429688 137.972656 312.125 140.015625 314.59375 140.015625 C 317.25 140.015625 319.527344 137.820312 319.527344 135.082031 C 319.527344 132.421875 317.636719 130.226562 315.210938 130.226562 C 314.167969 130.226562 313.089844 130.574219 312.28125 131.382812 L 312.28125 127.027344 C 312.972656 127.21875 313.667969 127.335938 314.324219 127.335938 C 317.058594 127.335938 318.640625 125.371094 318.640625 125.0625 C 318.640625 124.867188 318.523438 124.792969 318.40625 124.792969 C 318.371094 124.792969 318.332031 124.792969 318.101562 124.90625 C 317.058594 125.292969 316.058594 125.484375 315.132812 125.484375 C 314.167969 125.484375 313.167969 125.292969 312.164062 124.90625 C 311.933594 124.792969 311.894531 124.792969 311.894531 124.792969 C 311.625 124.792969 311.625 124.984375 311.625 125.371094 Z M 311.625 131.882812 "/>
<path fill-rule="nonzero" fill="rgb(0%, 0%, 0%)" fill-opacity="1" d="M 357.160156 122.902344 L 357.160156 123.90625 C 354.925781 123.90625 353.113281 126.023438 353.113281 128.183594 C 353.113281 129.996094 354.347656 131.613281 356.121094 132.191406 C 356.699219 132.347656 357.160156 132.308594 357.160156 132.730469 L 357.160156 139.011719 C 355.621094 139.011719 354.234375 138.050781 353.847656 136.429688 C 353.925781 136.46875 354.039062 136.46875 354.15625 136.46875 C 354.8125 136.46875 355.15625 135.96875 355.15625 135.429688 C 355.15625 134.851562 354.695312 134.425781 354.117188 134.425781 C 353.539062 134.425781 353.113281 134.8125 353.113281 135.582031 C 353.113281 137.511719 354.308594 139.285156 356.46875 139.628906 L 356.929688 139.707031 C 357.085938 139.707031 357.160156 139.785156 357.160156 139.9375 L 357.160156 140.746094 L 357.855469 140.746094 L 357.855469 139.707031 C 358.242188 139.707031 358.585938 139.589844 358.933594 139.476562 C 360.785156 138.859375 361.941406 137.007812 361.941406 135.121094 C 361.941406 132.886719 360.285156 130.882812 357.855469 130.574219 L 357.855469 124.597656 C 358.28125 124.675781 358.664062 124.675781 359.089844 124.792969 C 360.089844 125.136719 360.898438 125.871094 361.171875 126.871094 C 361.09375 126.871094 361.015625 126.871094 360.898438 126.871094 C 360.285156 126.871094 359.859375 127.335938 359.859375 127.875 C 359.859375 128.453125 360.320312 128.878906 360.898438 128.878906 C 361.75 128.878906 361.941406 128.261719 361.941406 127.722656 C 361.941406 125.910156 360.746094 124.597656 359.203125 124.097656 C 358.78125 123.980469 358.316406 123.945312 357.855469 123.90625 L 357.855469 122.902344 Z M 357.855469 139.011719 L 357.855469 132.617188 C 358.164062 132.730469 358.511719 132.769531 358.820312 132.886719 C 359.976562 133.425781 360.785156 134.582031 360.785156 135.851562 L 360.785156 135.96875 C 360.59375 137.625 359.4375 138.859375 357.855469 139.011719 Z M 357.160156 124.597656 L 357.160156 130.417969 C 355.8125 130.035156 354.734375 129.570312 354.308594 127.953125 C 354.269531 127.796875 354.269531 127.644531 354.269531 127.488281 C 354.269531 125.988281 355.660156 124.675781 357.160156 124.597656 Z M 357.160156 124.597656 "/>
<path fill-rule="nonzero" fill="rgb(0%, 0%, 0%)" fill-opacity="1" d="M 369.953125 131.730469 C 371.996094 130.957031 372.996094 129.339844 372.996094 127.796875 C 372.996094 126.101562 371.109375 124.792969 368.796875 124.792969 C 366.519531 124.792969 364.785156 126.101562 364.785156 127.757812 C 364.785156 128.492188 365.25 128.914062 365.90625 128.914062 C 366.558594 128.914062 367.023438 128.453125 367.023438 127.796875 C 367.023438 127.027344 366.484375 126.71875 365.710938 126.71875 C 366.289062 125.792969 367.640625 125.332031 368.757812 125.332031 C 370.566406 125.332031 370.914062 126.796875 370.914062 127.835938 C 370.914062 128.492188 370.800781 129.570312 370.261719 130.417969 C 369.566406 131.382812 368.796875 131.421875 368.140625 131.496094 C 367.601562 131.535156 367.5625 131.535156 367.371094 131.535156 C 367.175781 131.535156 366.984375 131.574219 366.984375 131.804688 C 366.984375 132.113281 367.175781 132.113281 367.5625 132.113281 L 368.5625 132.113281 C 370.492188 132.113281 371.339844 133.65625 371.339844 135.738281 C 371.339844 138.589844 369.835938 139.398438 368.71875 139.398438 C 368.292969 139.398438 366.136719 139.285156 365.171875 137.625 C 365.941406 137.742188 366.558594 137.203125 366.558594 136.429688 C 366.558594 135.699219 366.019531 135.238281 365.363281 135.238281 C 364.824219 135.238281 364.171875 135.582031 364.171875 136.507812 C 364.171875 138.472656 366.214844 140.015625 368.796875 140.015625 C 371.53125 140.015625 373.613281 138.011719 373.613281 135.738281 C 373.613281 133.808594 372.070312 132.191406 369.953125 131.730469 Z M 369.953125 131.730469 "/>
<path fill-rule="nonzero" fill="rgb(0%, 0%, 0%)" fill-opacity="1" d="M 385.054688 132.421875 C 385.054688 130.957031 384.980469 129.03125 384.207031 127.375 C 383.207031 125.292969 381.550781 124.792969 380.277344 124.792969 C 378.929688 124.792969 377.230469 125.292969 376.269531 127.449219 C 375.574219 128.953125 375.460938 130.765625 375.460938 132.421875 C 375.460938 133.886719 375.496094 136.007812 376.460938 137.78125 C 377.503906 139.628906 379.238281 140.015625 380.238281 140.015625 C 381.664062 140.015625 383.320312 139.398438 384.246094 137.355469 C 384.902344 135.851562 385.054688 134.195312 385.054688 132.421875 Z M 380.277344 139.4375 C 379.582031 139.4375 378.003906 139.128906 377.578125 136.625 C 377.347656 135.351562 377.347656 133.425781 377.347656 132.152344 C 377.347656 130.648438 377.347656 128.914062 377.617188 127.683594 C 378.082031 125.714844 379.46875 125.332031 380.238281 125.332031 C 381.085938 125.332031 382.472656 125.792969 382.898438 127.835938 C 383.128906 129.03125 383.128906 130.765625 383.128906 132.152344 C 383.128906 133.539062 383.128906 135.390625 382.898438 136.699219 C 382.433594 139.246094 380.816406 139.4375 380.277344 139.4375 Z M 380.277344 139.4375 "/>
<path fill-rule="nonzero" fill="rgb(0%, 0%, 0%)" fill-opacity="1" d="M 422.421875 122.902344 L 422.421875 123.90625 C 420.1875 123.90625 418.375 126.023438 418.375 128.183594 C 418.375 129.996094 419.609375 131.613281 421.382812 132.191406 C 421.960938 132.347656 422.421875 132.308594 422.421875 132.730469 L 422.421875 139.011719 C 420.878906 139.011719 419.492188 138.050781 419.109375 136.429688 C 419.183594 136.46875 419.300781 136.46875 419.414062 136.46875 C 420.070312 136.46875 420.417969 135.96875 420.417969 135.429688 C 420.417969 134.851562 419.957031 134.425781 419.378906 134.425781 C 418.800781 134.425781 418.375 134.8125 418.375 135.582031 C 418.375 137.511719 419.570312 139.285156 421.726562 139.628906 L 422.191406 139.707031 C 422.34375 139.707031 422.421875 139.785156 422.421875 139.9375 L 422.421875 140.746094 L 423.117188 140.746094 L 423.117188 139.707031 C 423.5 139.707031 423.847656 139.589844 424.195312 139.476562 C 426.046875 138.859375 427.203125 137.007812 427.203125 135.121094 C 427.203125 132.886719 425.542969 130.882812 423.117188 130.574219 L 423.117188 124.597656 C 423.539062 124.675781 423.925781 124.675781 424.347656 124.792969 C 425.351562 125.136719 426.160156 125.871094 426.429688 126.871094 C 426.351562 126.871094 426.277344 126.871094 426.160156 126.871094 C 425.542969 126.871094 425.121094 127.335938 425.121094 127.875 C 425.121094 128.453125 425.582031 128.878906 426.160156 128.878906 C 427.007812 128.878906 427.203125 128.261719 427.203125 127.722656 C 427.203125 125.910156 426.007812 124.597656 424.464844 124.097656 C 424.039062 123.980469 423.578125 123.945312 423.117188 123.90625 L 423.117188 122.902344 Z M 423.117188 139.011719 L 423.117188 132.617188 C 423.425781 132.730469 423.769531 132.769531 424.078125 132.886719 C 425.234375 133.425781 426.046875 134.582031 426.046875 135.851562 L 426.046875 135.96875 C 425.851562 137.625 424.695312 138.859375 423.117188 139.011719 Z M 422.421875 124.597656 L 422.421875 130.417969 C 421.074219 130.035156 419.992188 129.570312 419.570312 127.953125 C 419.53125 127.796875 419.53125 127.644531 419.53125 127.488281 C 419.53125 125.988281 420.917969 124.675781 422.421875 124.597656 Z M 422.421875 124.597656 "/>
<path fill-rule="nonzero" fill="rgb(0%, 0%, 0%)" fill-opacity="1" d="M 429.121094 135.160156 L 429.121094 135.851562 L 435.136719 135.851562 L 435.136719 137.78125 C 435.136719 138.589844 435.097656 138.820312 433.4375 138.820312 L 432.9375 138.820312 L 432.9375 139.515625 C 434.324219 139.4375 435.867188 139.4375 436.023438 139.4375 C 436.136719 139.4375 437.757812 139.4375 439.144531 139.515625 L 439.144531 138.820312 L 438.640625 138.820312 C 436.984375 138.820312 436.90625 138.589844 436.90625 137.78125 L 436.90625 135.851562 L 439.183594 135.851562 L 439.183594 135.160156 L 436.90625 135.160156 L 436.90625 125.136719 C 436.90625 124.675781 436.90625 124.523438 436.484375 124.523438 C 436.214844 124.523438 436.214844 124.558594 436.023438 124.867188 Z M 429.816406 135.160156 L 435.289062 126.988281 L 435.289062 135.160156 Z M 429.816406 135.160156 "/>
<path fill-rule="nonzero" fill="rgb(0%, 0%, 0%)" fill-opacity="1" d="M 442.144531 131.882812 C 442.144531 132.269531 442.144531 132.539062 442.453125 132.539062 C 442.609375 132.539062 442.683594 132.421875 442.800781 132.230469 C 443.496094 131.304688 444.535156 130.765625 445.691406 130.765625 C 448.082031 130.765625 448.082031 134.195312 448.082031 134.964844 C 448.082031 135.660156 448.082031 137.046875 447.425781 138.050781 C 446.847656 138.976562 445.921875 139.398438 445.035156 139.398438 C 443.765625 139.398438 442.261719 138.550781 441.722656 136.933594 C 441.761719 136.933594 441.875 136.972656 442.03125 136.972656 C 442.492188 136.972656 443.148438 136.699219 443.148438 135.890625 C 443.148438 135.199219 442.648438 134.8125 442.03125 134.8125 C 441.566406 134.8125 440.949219 135.082031 440.949219 135.96875 C 440.949219 137.972656 442.648438 140.015625 445.113281 140.015625 C 447.773438 140.015625 450.046875 137.820312 450.046875 135.082031 C 450.046875 132.421875 448.160156 130.226562 445.730469 130.226562 C 444.691406 130.226562 443.609375 130.574219 442.800781 131.382812 L 442.800781 127.027344 C 443.496094 127.21875 444.1875 127.335938 444.84375 127.335938 C 447.582031 127.335938 449.160156 125.371094 449.160156 125.0625 C 449.160156 124.867188 449.042969 124.792969 448.929688 124.792969 C 448.890625 124.792969 448.851562 124.792969 448.621094 124.90625 C 447.582031 125.292969 446.578125 125.484375 445.652344 125.484375 C 444.691406 125.484375 443.6875 125.292969 442.683594 124.90625 C 442.453125 124.792969 442.414062 124.792969 442.414062 124.792969 C 442.144531 124.792969 442.144531 124.984375 442.144531 125.371094 Z M 442.144531 131.882812 "/>
<path fill-rule="nonzero" fill="rgb(0%, 0%, 0%)" fill-opacity="1" d="M 487.683594 122.902344 L 487.683594 123.90625 C 485.449219 123.90625 483.636719 126.023438 483.636719 128.183594 C 483.636719 129.996094 484.871094 131.613281 486.640625 132.191406 C 487.21875 132.347656 487.683594 132.308594 487.683594 132.730469 L 487.683594 139.011719 C 486.140625 139.011719 484.753906 138.050781 484.367188 136.429688 C 484.445312 136.46875 484.5625 136.46875 484.675781 136.46875 C 485.332031 136.46875 485.679688 135.96875 485.679688 135.429688 C 485.679688 134.851562 485.214844 134.425781 484.636719 134.425781 C 484.058594 134.425781 483.636719 134.8125 483.636719 135.582031 C 483.636719 137.511719 484.832031 139.285156 486.988281 139.628906 L 487.453125 139.707031 C 487.605469 139.707031 487.683594 139.785156 487.683594 139.9375 L 487.683594 140.746094 L 488.375 140.746094 L 488.375 139.707031 C 488.761719 139.707031 489.109375 139.589844 489.457031 139.476562 C 491.304688 138.859375 492.460938 137.007812 492.460938 135.121094 C 492.460938 132.886719 490.804688 130.882812 488.375 130.574219 L 488.375 124.597656 C 488.800781 124.675781 489.1875 124.675781 489.609375 124.792969 C 490.613281 125.136719 491.421875 125.871094 491.691406 126.871094 C 491.613281 126.871094 491.535156 126.871094 491.421875 126.871094 C 490.804688 126.871094 490.378906 127.335938 490.378906 127.875 C 490.378906 128.453125 490.84375 128.878906 491.421875 128.878906 C 492.269531 128.878906 492.460938 128.261719 492.460938 127.722656 C 492.460938 125.910156 491.265625 124.597656 489.726562 124.097656 C 489.300781 123.980469 488.839844 123.945312 488.375 123.90625 L 488.375 122.902344 Z M 488.375 139.011719 L 488.375 132.617188 C 488.683594 132.730469 489.03125 132.769531 489.339844 132.886719 C 490.496094 133.425781 491.304688 134.582031 491.304688 135.851562 L 491.304688 135.96875 C 491.113281 137.625 489.957031 138.859375 488.375 139.011719 Z M 487.683594 124.597656 L 487.683594 130.417969 C 486.332031 130.035156 485.253906 129.570312 484.832031 127.953125 C 484.792969 127.796875 484.792969 127.644531 484.792969 127.488281 C 484.792969 125.988281 486.179688 124.675781 487.683594 124.597656 Z M 487.683594 124.597656 "/>
<path fill-rule="nonzero" fill="rgb(0%, 0%, 0%)" fill-opacity="1" d="M 496.691406 132.191406 C 496.691406 129.917969 496.925781 128.683594 497.542969 127.527344 C 497.964844 126.601562 499.042969 125.332031 500.703125 125.332031 C 501.125 125.332031 502.167969 125.410156 502.667969 126.21875 C 501.859375 126.21875 501.472656 126.640625 501.472656 127.21875 C 501.472656 127.796875 501.894531 128.261719 502.511719 128.261719 C 503.128906 128.261719 503.554688 127.835938 503.554688 127.179688 C 503.554688 125.949219 502.667969 124.792969 500.664062 124.792969 C 497.8125 124.792969 494.6875 127.605469 494.6875 132.539062 C 494.6875 138.511719 497.386719 140.015625 499.46875 140.015625 C 501.894531 140.015625 504.132812 137.933594 504.132812 135.003906 C 504.132812 132.230469 502.089844 130.070312 499.582031 130.070312 C 498.273438 130.070312 497.308594 130.882812 496.691406 132.191406 Z M 499.429688 139.398438 C 498.15625 139.398438 497.425781 138.359375 497.195312 137.703125 C 496.769531 136.699219 496.730469 134.851562 496.730469 134.503906 C 496.730469 133.039062 497.425781 130.648438 499.546875 130.648438 C 499.890625 130.648438 500.972656 130.648438 501.703125 132 C 502.128906 132.847656 502.128906 133.925781 502.128906 135.003906 C 502.128906 136.046875 502.128906 137.164062 501.703125 137.972656 C 501.011719 139.246094 500.046875 139.398438 499.429688 139.398438 Z M 499.429688 139.398438 "/>
<path fill-rule="nonzero" fill="rgb(0%, 0%, 0%)" fill-opacity="1" d="M 515.574219 132.421875 C 515.574219 130.957031 515.496094 129.03125 514.726562 127.375 C 513.726562 125.292969 512.066406 124.792969 510.796875 124.792969 C 509.445312 124.792969 507.75 125.292969 506.789062 127.449219 C 506.09375 128.953125 505.976562 130.765625 505.976562 132.421875 C 505.976562 133.886719 506.015625 136.007812 506.980469 137.78125 C 508.019531 139.628906 509.753906 140.015625 510.757812 140.015625 C 512.183594 140.015625 513.839844 139.398438 514.765625 137.355469 C 515.421875 135.851562 515.574219 134.195312 515.574219 132.421875 Z M 510.796875 139.4375 C 510.101562 139.4375 508.523438 139.128906 508.097656 136.625 C 507.867188 135.351562 507.867188 133.425781 507.867188 132.152344 C 507.867188 130.648438 507.867188 128.914062 508.136719 127.683594 C 508.597656 125.714844 509.984375 125.332031 510.757812 125.332031 C 511.605469 125.332031 512.992188 125.792969 513.417969 127.835938 C 513.648438 129.03125 513.648438 130.765625 513.648438 132.152344 C 513.648438 133.539062 513.648438 135.390625 513.417969 136.699219 C 512.953125 139.246094 511.335938 139.4375 510.796875 139.4375 Z M 510.796875 139.4375 "/>
<path fill-rule="nonzero" fill="rgb(0%, 0%, 0%)" fill-opacity="1" d="M 552.941406 122.902344 L 552.941406 123.90625 C 550.707031 123.90625 548.894531 126.023438 548.894531 128.183594 C 548.894531 129.996094 550.128906 131.613281 551.898438 132.191406 C 552.476562 132.347656 552.941406 132.308594 552.941406 132.730469 L 552.941406 139.011719 C 551.398438 139.011719 550.011719 138.050781 549.625 136.429688 C 549.703125 136.46875 549.820312 136.46875 549.933594 136.46875 C 550.589844 136.46875 550.9375 135.96875 550.9375 135.429688 C 550.9375 134.851562 550.472656 134.425781 549.894531 134.425781 C 549.316406 134.425781 548.894531 134.8125 548.894531 135.582031 C 548.894531 137.511719 550.089844 139.285156 552.246094 139.628906 L 552.710938 139.707031 C 552.863281 139.707031 552.941406 139.785156 552.941406 139.9375 L 552.941406 140.746094 L 553.632812 140.746094 L 553.632812 139.707031 C 554.019531 139.707031 554.367188 139.589844 554.714844 139.476562 C 556.5625 138.859375 557.71875 137.007812 557.71875 135.121094 C 557.71875 132.886719 556.0625 130.882812 553.632812 130.574219 L 553.632812 124.597656 C 554.058594 124.675781 554.445312 124.675781 554.867188 124.792969 C 555.871094 125.136719 556.679688 125.871094 556.949219 126.871094 C 556.871094 126.871094 556.796875 126.871094 556.679688 126.871094 C 556.0625 126.871094 555.640625 127.335938 555.640625 127.875 C 555.640625 128.453125 556.101562 128.878906 556.679688 128.878906 C 557.527344 128.878906 557.71875 128.261719 557.71875 127.722656 C 557.71875 125.910156 556.523438 124.597656 554.984375 124.097656 C 554.558594 123.980469 554.097656 123.945312 553.632812 123.90625 L 553.632812 122.902344 Z M 553.632812 139.011719 L 553.632812 132.617188 C 553.941406 132.730469 554.289062 132.769531 554.597656 132.886719 C 555.753906 133.425781 556.5625 134.582031 556.5625 135.851562 L 556.5625 135.96875 C 556.371094 137.625 555.214844 138.859375 553.632812 139.011719 Z M 552.941406 124.597656 L 552.941406 130.417969 C 551.59375 130.035156 550.511719 129.570312 550.089844 127.953125 C 550.050781 127.796875 550.050781 127.644531 550.050781 127.488281 C 550.050781 125.988281 551.4375 124.675781 552.941406 124.597656 Z M 552.941406 124.597656 "/>
<path fill-rule="nonzero" fill="rgb(0%, 0%, 0%)" fill-opacity="1" d="M 569.816406 126.023438 C 570.007812 125.792969 570.007812 125.714844 570.007812 125.253906 L 564.535156 125.253906 C 561.722656 125.253906 561.644531 124.984375 561.605469 124.558594 L 560.992188 124.558594 L 560.257812 129.183594 L 560.875 129.183594 C 560.953125 128.683594 561.144531 127.449219 561.414062 127.179688 C 561.570312 127.027344 563.339844 127.027344 563.648438 127.027344 L 568.273438 127.027344 L 566.15625 129.917969 C 563.265625 133.886719 562.996094 137.511719 562.996094 138.742188 C 562.996094 139.011719 562.996094 140.015625 564.035156 140.015625 C 565.074219 140.015625 565.074219 139.011719 565.074219 138.742188 L 565.074219 137.664062 C 565.074219 134.386719 565.539062 131.84375 566.734375 130.226562 Z M 569.816406 126.023438 "/>
<path fill-rule="nonzero" fill="rgb(0%, 0%, 0%)" fill-opacity="1" d="M 572.664062 131.882812 C 572.664062 132.269531 572.664062 132.539062 572.972656 132.539062 C 573.128906 132.539062 573.203125 132.421875 573.320312 132.230469 C 574.011719 131.304688 575.054688 130.765625 576.210938 130.765625 C 578.601562 130.765625 578.601562 134.195312 578.601562 134.964844 C 578.601562 135.660156 578.601562 137.046875 577.945312 138.050781 C 577.367188 138.976562 576.441406 139.398438 575.554688 139.398438 C 574.285156 139.398438 572.78125 138.550781 572.242188 136.933594 C 572.277344 136.933594 572.394531 136.972656 572.550781 136.972656 C 573.011719 136.972656 573.667969 136.699219 573.667969 135.890625 C 573.667969 135.199219 573.164062 134.8125 572.550781 134.8125 C 572.085938 134.8125 571.46875 135.082031 571.46875 135.96875 C 571.46875 137.972656 573.164062 140.015625 575.632812 140.015625 C 578.292969 140.015625 580.566406 137.820312 580.566406 135.082031 C 580.566406 132.421875 578.675781 130.226562 576.25 130.226562 C 575.207031 130.226562 574.128906 130.574219 573.320312 131.382812 L 573.320312 127.027344 C 574.011719 127.21875 574.707031 127.335938 575.363281 127.335938 C 578.097656 127.335938 579.679688 125.371094 579.679688 125.0625 C 579.679688 124.867188 579.5625 124.792969 579.449219 124.792969 C 579.410156 124.792969 579.371094 124.792969 579.140625 124.90625 C 578.097656 125.292969 577.097656 125.484375 576.171875 125.484375 C 575.207031 125.484375 574.207031 125.292969 573.203125 124.90625 C 572.972656 124.792969 572.933594 124.792969 572.933594 124.792969 C 572.664062 124.792969 572.664062 124.984375 572.664062 125.371094 Z M 572.664062 131.882812 "/>
<path fill-rule="nonzero" fill="rgb(0%, 0%, 0%)" fill-opacity="1" d="M 618.203125 122.902344 L 618.203125 123.90625 C 615.964844 123.90625 614.15625 126.023438 614.15625 128.183594 C 614.15625 129.996094 615.386719 131.613281 617.160156 132.191406 C 617.738281 132.347656 618.203125 132.308594 618.203125 132.730469 L 618.203125 139.011719 C 616.660156 139.011719 615.273438 138.050781 614.886719 136.429688 C 614.964844 136.46875 615.078125 136.46875 615.195312 136.46875 C 615.851562 136.46875 616.199219 135.96875 616.199219 135.429688 C 616.199219 134.851562 615.734375 134.425781 615.15625 134.425781 C 614.578125 134.425781 614.15625 134.8125 614.15625 135.582031 C 614.15625 137.511719 615.347656 139.285156 617.507812 139.628906 L 617.96875 139.707031 C 618.125 139.707031 618.203125 139.785156 618.203125 139.9375 L 618.203125 140.746094 L 618.894531 140.746094 L 618.894531 139.707031 C 619.28125 139.707031 619.628906 139.589844 619.972656 139.476562 C 621.824219 138.859375 622.980469 137.007812 622.980469 135.121094 C 622.980469 132.886719 621.324219 130.882812 618.894531 130.574219 L 618.894531 124.597656 C 619.320312 124.675781 619.703125 124.675781 620.128906 124.792969 C 621.128906 125.136719 621.941406 125.871094 622.210938 126.871094 C 622.132812 126.871094 622.054688 126.871094 621.941406 126.871094 C 621.324219 126.871094 620.898438 127.335938 620.898438 127.875 C 620.898438 128.453125 621.363281 128.878906 621.941406 128.878906 C 622.789062 128.878906 622.980469 128.261719 622.980469 127.722656 C 622.980469 125.910156 621.785156 124.597656 620.246094 124.097656 C 619.820312 123.980469 619.359375 123.945312 618.894531 123.90625 L 618.894531 122.902344 Z M 618.894531 139.011719 L 618.894531 132.617188 C 619.203125 132.730469 619.550781 132.769531 619.859375 132.886719 C 621.015625 133.425781 621.824219 134.582031 621.824219 135.851562 L 621.824219 135.96875 C 621.632812 137.625 620.476562 138.859375 618.894531 139.011719 Z M 618.203125 124.597656 L 618.203125 130.417969 C 616.851562 130.035156 615.773438 129.570312 615.347656 127.953125 C 615.3125 127.796875 615.3125 127.644531 615.3125 127.488281 C 615.3125 125.988281 616.699219 124.675781 618.203125 124.597656 Z M 618.203125 124.597656 "/>
<path fill-rule="nonzero" fill="rgb(0%, 0%, 0%)" fill-opacity="1" d="M 632.648438 132.539062 L 632.648438 133.039062 C 632.648438 138.433594 630.183594 139.398438 628.910156 139.398438 C 628.410156 139.398438 627.292969 139.285156 626.714844 138.550781 L 626.789062 138.550781 C 626.984375 138.589844 627.832031 138.433594 627.832031 137.550781 C 627.832031 136.972656 627.445312 136.546875 626.828125 136.546875 C 626.210938 136.546875 625.789062 136.933594 625.789062 137.585938 C 625.789062 139.050781 626.945312 140.015625 628.949219 140.015625 C 631.800781 140.015625 634.652344 137.085938 634.652344 132.230469 C 634.652344 126.257812 631.992188 124.792969 629.988281 124.792969 C 627.445312 124.792969 625.210938 126.835938 625.210938 129.726562 C 625.210938 132.539062 627.214844 134.660156 629.71875 134.660156 C 631.339844 134.660156 632.226562 133.503906 632.648438 132.539062 Z M 629.796875 134.117188 C 629.410156 134.117188 628.332031 134.117188 627.636719 132.730469 C 627.214844 131.921875 627.214844 130.804688 627.214844 129.761719 C 627.214844 128.683594 627.214844 127.605469 627.675781 126.757812 C 628.332031 125.640625 629.21875 125.332031 629.988281 125.332031 C 631.492188 125.332031 632.109375 126.871094 632.1875 127.066406 C 632.496094 127.914062 632.570312 129.261719 632.570312 130.1875 C 632.570312 131.804688 631.839844 134.117188 629.796875 134.117188 Z M 629.796875 134.117188 "/>
<path fill-rule="nonzero" fill="rgb(0%, 0%, 0%)" fill-opacity="1" d="M 646.097656 132.421875 C 646.097656 130.957031 646.019531 129.03125 645.25 127.375 C 644.246094 125.292969 642.589844 124.792969 641.316406 124.792969 C 639.96875 124.792969 638.273438 125.292969 637.308594 127.449219 C 636.613281 128.953125 636.5 130.765625 636.5 132.421875 C 636.5 133.886719 636.539062 136.007812 637.5 137.78125 C 638.542969 139.628906 640.277344 140.015625 641.277344 140.015625 C 642.703125 140.015625 644.363281 139.398438 645.285156 137.355469 C 645.941406 135.851562 646.097656 134.195312 646.097656 132.421875 Z M 641.316406 139.4375 C 640.625 139.4375 639.042969 139.128906 638.617188 136.625 C 638.386719 135.351562 638.386719 133.425781 638.386719 132.152344 C 638.386719 130.648438 638.386719 128.914062 638.65625 127.683594 C 639.121094 125.714844 640.507812 125.332031 641.277344 125.332031 C 642.125 125.332031 643.515625 125.792969 643.9375 127.835938 C 644.167969 129.03125 644.167969 130.765625 644.167969 132.152344 C 644.167969 133.539062 644.167969 135.390625 643.9375 136.699219 C 643.476562 139.246094 641.855469 139.4375 641.316406 139.4375 Z M 641.316406 139.4375 "/>
</svg>
