<?xml version="1.0" encoding="UTF-8"?>
<svg xmlns="http://www.w3.org/2000/svg" xmlns:xlink="http://www.w3.org/1999/xlink" width="671.451312" height="80.489801" viewBox="0 0 671.451312 80.489801">
<path fill="none" stroke-width="0.3985" stroke-linecap="butt" stroke-linejoin="miter" stroke="rgb(0%, 0%, 0%)" stroke-opacity="1" stroke-miterlimit="10" d="M 0.00100564 -0.000137046 L 178.008818 -0.000137046 " transform="matrix(2.466667, 0, 0, -2.466667, 222.044394, 36.585599)"/>
<path fill-rule="nonzero" fill="rgb(0%, 0%, 0%)" fill-opacity="1" d="M 666.046875 36.585938 L 658.1875 32.65625 L 661.132812 36.585938 L 658.1875 40.515625 "/>
<path fill-rule="nonzero" fill="rgb(0%, 0%, 0%)" fill-opacity="1" d="M 21.277344 40.878906 C 21.390625 41.839844 22.046875 42.882812 23.203125 42.882812 C 23.742188 42.882812 25.246094 42.535156 25.246094 40.53125 L 25.246094 39.144531 L 24.628906 39.144531 L 24.628906 40.53125 C 24.628906 41.957031 24.011719 42.109375 23.742188 42.109375 C 22.933594 42.109375 22.816406 40.992188 22.816406 40.878906 L 22.816406 35.984375 C 22.816406 34.941406 22.816406 33.980469 21.929688 33.054688 C 20.96875 32.089844 19.734375 31.703125 18.578125 31.703125 C 16.535156 31.703125 14.839844 32.859375 14.839844 34.480469 C 14.839844 35.210938 15.339844 35.636719 15.996094 35.636719 C 16.691406 35.636719 17.113281 35.136719 17.113281 34.519531 C 17.113281 34.210938 17 33.402344 15.84375 33.402344 C 16.535156 32.515625 17.730469 32.246094 18.5 32.246094 C 19.734375 32.246094 21.121094 33.207031 21.121094 35.40625 L 21.121094 36.292969 C 19.851562 36.367188 18.15625 36.445312 16.613281 37.175781 C 14.761719 38.027344 14.144531 39.296875 14.144531 40.375 C 14.144531 42.378906 16.535156 42.996094 18.078125 42.996094 C 19.695312 42.996094 20.8125 41.996094 21.277344 40.878906 Z M 21.121094 36.832031 L 21.121094 39.296875 C 21.121094 41.609375 19.347656 42.457031 18.230469 42.457031 C 17.035156 42.457031 16.035156 41.609375 16.035156 40.375 C 16.035156 39.027344 17.074219 36.984375 21.121094 36.832031 Z M 21.121094 36.832031 "/>
<path fill-rule="nonzero" fill="rgb(0%, 0%, 0%)" fill-opacity="1" d="M 28.285156 37.371094 C 28.285156 33.363281 30.289062 32.320312 31.597656 32.320312 C 31.828125 32.320312 33.371094 32.359375 34.21875 33.246094 C 33.214844 33.324219 33.0625 34.054688 33.0625 34.363281 C 33.0625 35.019531 33.523438 35.480469 34.179688 35.480469 C 34.835938 35.480469 35.335938 35.097656 35.335938 34.324219 C 35.335938 32.667969 33.449219 31.703125 31.558594 31.703125 C 28.476562 31.703125 26.242188 34.363281 26.242188 37.410156 C 26.242188 40.570312 28.667969 42.996094 31.519531 42.996094 C 34.796875 42.996094 35.605469 40.03125 35.605469 39.796875 C 35.605469 39.566406 35.335938 39.566406 35.257812 39.566406 C 35.066406 39.566406 34.988281 39.644531 34.949219 39.796875 C 34.257812 42.074219 32.636719 42.378906 31.753906 42.378906 C 30.441406 42.378906 28.285156 41.339844 28.285156 37.371094 Z M 28.285156 37.371094 "/>
<path fill-rule="nonzero" fill="rgb(0%, 0%, 0%)" fill-opacity="1" d="M 45.523438 27.195312 C 45.757812 27.003906 45.949219 26.734375 45.949219 26.464844 C 45.949219 26 45.523438 25.578125 45.0625 25.578125 C 44.714844 25.578125 44.445312 25.847656 44.332031 26 L 41.363281 29.738281 L 41.785156 30.203125 Z M 45.523438 27.195312 "/>
<path fill-rule="nonzero" fill="rgb(0%, 0%, 0%)" fill-opacity="1" d="M 44.484375 40.878906 C 44.601562 41.839844 45.253906 42.882812 46.410156 42.882812 C 46.949219 42.882812 48.453125 42.535156 48.453125 40.53125 L 48.453125 39.144531 L 47.835938 39.144531 L 47.835938 40.53125 C 47.835938 41.957031 47.222656 42.109375 46.949219 42.109375 C 46.140625 42.109375 46.027344 40.992188 46.027344 40.878906 L 46.027344 35.984375 C 46.027344 34.941406 46.027344 33.980469 45.140625 33.054688 C 44.175781 32.089844 42.941406 31.703125 41.785156 31.703125 C 39.742188 31.703125 38.046875 32.859375 38.046875 34.480469 C 38.046875 35.210938 38.550781 35.636719 39.203125 35.636719 C 39.898438 35.636719 40.320312 35.136719 40.320312 34.519531 C 40.320312 34.210938 40.207031 33.402344 39.050781 33.402344 C 39.742188 32.515625 40.9375 32.246094 41.710938 32.246094 C 42.941406 32.246094 44.332031 33.207031 44.332031 35.40625 L 44.332031 36.292969 C 43.058594 36.367188 41.363281 36.445312 39.820312 37.175781 C 37.972656 38.027344 37.355469 39.296875 37.355469 40.375 C 37.355469 42.378906 39.742188 42.996094 41.285156 42.996094 C 42.902344 42.996094 44.023438 41.996094 44.484375 40.878906 Z M 44.332031 36.832031 L 44.332031 39.296875 C 44.332031 41.609375 42.558594 42.457031 41.441406 42.457031 C 40.246094 42.457031 39.242188 41.609375 39.242188 40.375 C 39.242188 39.027344 40.285156 36.984375 44.332031 36.832031 Z M 44.332031 36.832031 "/>
<path fill-rule="nonzero" fill="rgb(0%, 0%, 0%)" fill-opacity="1" d="M 66.996094 34.558594 C 67.230469 33.980469 67.652344 32.898438 69.269531 32.898438 L 69.269531 32.128906 C 68.691406 32.167969 68 32.207031 67.421875 32.207031 C 66.84375 32.207031 65.726562 32.167969 65.300781 32.128906 L 65.300781 32.898438 C 66.1875 32.898438 66.457031 33.476562 66.457031 33.941406 C 66.457031 34.171875 66.417969 34.285156 66.34375 34.558594 L 63.796875 40.800781 L 61.0625 33.941406 C 60.90625 33.632812 60.90625 33.59375 60.90625 33.515625 C 60.90625 32.898438 61.871094 32.898438 62.332031 32.898438 L 62.332031 32.128906 C 61.5625 32.167969 60.214844 32.207031 59.636719 32.207031 C 58.980469 32.207031 57.980469 32.167969 57.246094 32.128906 L 57.246094 32.898438 C 58.789062 32.898438 58.902344 33.054688 59.210938 33.785156 L 62.757812 42.535156 C 62.910156 42.882812 62.949219 42.996094 63.257812 42.996094 C 63.605469 42.996094 63.683594 42.765625 63.796875 42.535156 Z M 66.996094 34.558594 "/>
<path fill-rule="nonzero" fill="rgb(0%, 0%, 0%)" fill-opacity="1" d="M 76.574219 40.878906 C 76.6875 41.839844 77.34375 42.882812 78.5 42.882812 C 79.039062 42.882812 80.542969 42.535156 80.542969 40.53125 L 80.542969 39.144531 L 79.925781 39.144531 L 79.925781 40.53125 C 79.925781 41.957031 79.308594 42.109375 79.039062 42.109375 C 78.230469 42.109375 78.117188 40.992188 78.117188 40.878906 L 78.117188 35.984375 C 78.117188 34.941406 78.117188 33.980469 77.230469 33.054688 C 76.265625 32.089844 75.03125 31.703125 73.875 31.703125 C 71.832031 31.703125 70.136719 32.859375 70.136719 34.480469 C 70.136719 35.210938 70.636719 35.636719 71.292969 35.636719 C 71.988281 35.636719 72.410156 35.136719 72.410156 34.519531 C 72.410156 34.210938 72.296875 33.402344 71.140625 33.402344 C 71.832031 32.515625 73.027344 32.246094 73.796875 32.246094 C 75.03125 32.246094 76.417969 33.207031 76.417969 35.40625 L 76.417969 36.292969 C 75.148438 36.367188 73.453125 36.445312 71.910156 37.175781 C 70.058594 38.027344 69.445312 39.296875 69.445312 40.375 C 69.445312 42.378906 71.832031 42.996094 73.375 42.996094 C 74.992188 42.996094 76.109375 41.996094 76.574219 40.878906 Z M 76.417969 36.832031 L 76.417969 39.296875 C 76.417969 41.609375 74.648438 42.457031 73.527344 42.457031 C 72.335938 42.457031 71.332031 41.609375 71.332031 40.375 C 71.332031 39.027344 72.371094 36.984375 76.417969 36.832031 Z M 76.417969 36.832031 "/>
<path fill-rule="nonzero" fill="rgb(0%, 0%, 0%)" fill-opacity="1" d="M 93.226562 25.652344 L 89.683594 25.921875 L 89.683594 26.695312 C 91.417969 26.695312 91.609375 26.847656 91.609375 28.082031 L 91.609375 40.878906 C 91.609375 41.957031 91.339844 41.957031 89.683594 41.957031 L 89.683594 42.726562 C 90.492188 42.6875 91.800781 42.652344 92.417969 42.652344 C 93.035156 42.652344 94.230469 42.6875 95.15625 42.726562 L 95.15625 41.957031 C 93.5 41.957031 93.226562 41.957031 93.226562 40.878906 Z M 93.226562 25.652344 "/>
<path fill-rule="nonzero" fill="rgb(0%, 0%, 0%)" fill-opacity="1" d="M 103.871094 40.878906 C 103.988281 41.839844 104.640625 42.882812 105.796875 42.882812 C 106.335938 42.882812 107.839844 42.535156 107.839844 40.53125 L 107.839844 39.144531 L 107.222656 39.144531 L 107.222656 40.53125 C 107.222656 41.957031 106.605469 42.109375 106.335938 42.109375 C 105.527344 42.109375 105.414062 40.992188 105.414062 40.878906 L 105.414062 35.984375 C 105.414062 34.941406 105.414062 33.980469 104.527344 33.054688 C 103.5625 32.089844 102.328125 31.703125 101.171875 31.703125 C 99.128906 31.703125 97.433594 32.859375 97.433594 34.480469 C 97.433594 35.210938 97.933594 35.636719 98.589844 35.636719 C 99.285156 35.636719 99.707031 35.136719 99.707031 34.519531 C 99.707031 34.210938 99.59375 33.402344 98.4375 33.402344 C 99.128906 32.515625 100.324219 32.246094 101.097656 32.246094 C 102.328125 32.246094 103.714844 33.207031 103.714844 35.40625 L 103.714844 36.292969 C 102.445312 36.367188 100.75 36.445312 99.207031 37.175781 C 97.355469 38.027344 96.742188 39.296875 96.742188 40.375 C 96.742188 42.378906 99.128906 42.996094 100.671875 42.996094 C 102.289062 42.996094 103.410156 41.996094 103.871094 40.878906 Z M 103.714844 36.832031 L 103.714844 39.296875 C 103.714844 41.609375 101.945312 42.457031 100.824219 42.457031 C 99.632812 42.457031 98.628906 41.609375 98.628906 40.375 C 98.628906 39.027344 99.667969 36.984375 103.714844 36.832031 Z M 103.714844 36.832031 "/>
<path fill-rule="nonzero" fill="rgb(0%, 0%, 0%)" fill-opacity="1" d="M 118.90625 36.523438 C 119.0625 32.859375 121.140625 32.246094 121.992188 32.246094 C 124.496094 32.246094 124.765625 35.558594 124.765625 36.523438 Z M 118.90625 37.0625 L 125.765625 37.0625 C 126.308594 37.0625 126.382812 37.0625 126.382812 36.523438 C 126.382812 34.09375 125.035156 31.703125 121.992188 31.703125 C 119.136719 31.703125 116.863281 34.25 116.863281 37.332031 C 116.863281 40.609375 119.445312 42.996094 122.261719 42.996094 C 125.265625 42.996094 126.382812 40.261719 126.382812 39.796875 C 126.382812 39.566406 126.191406 39.488281 126.039062 39.488281 C 125.84375 39.488281 125.765625 39.644531 125.730469 39.835938 C 124.882812 42.378906 122.644531 42.378906 122.414062 42.378906 C 121.179688 42.378906 120.21875 41.648438 119.640625 40.722656 C 118.90625 39.566406 118.90625 37.949219 118.90625 37.0625 Z M 118.90625 37.0625 "/>
<path fill-rule="nonzero" fill="rgb(0%, 0%, 0%)" fill-opacity="1" d="M 131.355469 32.898438 L 134.902344 32.898438 L 134.902344 32.128906 L 131.355469 32.128906 L 131.355469 27.621094 L 130.738281 27.621094 C 130.738281 29.625 130.007812 32.246094 127.578125 32.359375 L 127.578125 32.898438 L 129.660156 32.898438 L 129.660156 39.683594 C 129.660156 42.6875 131.972656 42.996094 132.859375 42.996094 C 134.59375 42.996094 135.285156 41.261719 135.285156 39.683594 L 135.285156 38.296875 L 134.671875 38.296875 L 134.671875 39.644531 C 134.671875 41.457031 133.9375 42.378906 133.011719 42.378906 C 131.355469 42.378906 131.355469 40.144531 131.355469 39.722656 Z M 131.355469 32.898438 "/>
<path fill-rule="nonzero" fill="rgb(0%, 0%, 0%)" fill-opacity="1" d="M 141.027344 31.859375 L 137.597656 32.128906 L 137.597656 32.898438 C 139.179688 32.898438 139.410156 33.054688 139.410156 34.25 L 139.410156 40.878906 C 139.410156 41.957031 139.140625 41.957031 137.480469 41.957031 L 137.480469 42.726562 C 138.253906 42.6875 139.601562 42.652344 140.179688 42.652344 C 141.066406 42.652344 141.914062 42.6875 142.761719 42.726562 L 142.761719 41.957031 C 141.105469 41.957031 141.027344 41.839844 141.027344 40.878906 Z M 141.105469 27.582031 C 141.105469 26.808594 140.527344 26.269531 139.832031 26.269531 C 139.0625 26.269531 138.523438 26.925781 138.523438 27.582031 C 138.523438 28.234375 139.0625 28.890625 139.832031 28.890625 C 140.527344 28.890625 141.105469 28.351562 141.105469 27.582031 Z M 141.105469 27.582031 "/>
<path fill-rule="nonzero" fill="rgb(0%, 0%, 0%)" fill-opacity="1" d="M 152.800781 41.222656 L 152.800781 45.617188 C 152.800781 46.734375 152.53125 46.734375 150.914062 46.734375 L 150.914062 47.507812 C 151.722656 47.46875 153.035156 47.429688 153.648438 47.429688 C 154.304688 47.429688 155.578125 47.46875 156.425781 47.507812 L 156.425781 46.734375 C 154.769531 46.734375 154.496094 46.734375 154.496094 45.617188 L 154.496094 31.859375 L 153.957031 31.859375 L 153.035156 34.09375 C 152.726562 33.402344 151.722656 31.859375 149.757812 31.859375 C 146.90625 31.859375 144.324219 34.25 144.324219 37.449219 C 144.324219 40.53125 146.710938 42.996094 149.566406 42.996094 C 151.261719 42.996094 152.261719 41.957031 152.800781 41.222656 Z M 152.878906 35.90625 L 152.878906 39.375 C 152.878906 40.183594 152.457031 40.878906 151.914062 41.457031 C 151.605469 41.800781 150.796875 42.457031 149.640625 42.457031 C 147.867188 42.457031 146.367188 40.261719 146.367188 37.449219 C 146.367188 34.519531 148.0625 32.476562 149.910156 32.476562 C 151.878906 32.476562 152.878906 34.59375 152.878906 35.90625 Z M 152.878906 35.90625 "/>
<path fill-rule="nonzero" fill="rgb(0%, 0%, 0%)" fill-opacity="1" d="M 166.042969 40.800781 L 166.042969 42.996094 L 169.589844 42.726562 L 169.589844 41.957031 C 167.890625 41.957031 167.699219 41.800781 167.699219 40.570312 L 167.699219 31.859375 L 164.078125 32.128906 L 164.078125 32.898438 C 165.773438 32.898438 166.003906 33.054688 166.003906 34.285156 L 166.003906 38.640625 C 166.003906 40.800781 164.808594 42.457031 162.996094 42.457031 C 160.953125 42.457031 160.839844 41.300781 160.839844 40.03125 L 160.839844 31.859375 L 157.214844 32.128906 L 157.214844 32.898438 C 159.144531 32.898438 159.144531 32.976562 159.144531 35.136719 L 159.144531 38.835938 C 159.144531 40.761719 159.144531 42.996094 162.882812 42.996094 C 164.269531 42.996094 165.347656 42.304688 166.042969 40.800781 Z M 166.042969 40.800781 "/>
<path fill-rule="nonzero" fill="rgb(0%, 0%, 0%)" fill-opacity="1" d="M 172.835938 36.523438 C 172.988281 32.859375 175.070312 32.246094 175.917969 32.246094 C 178.425781 32.246094 178.695312 35.558594 178.695312 36.523438 Z M 172.835938 37.0625 L 179.695312 37.0625 C 180.234375 37.0625 180.3125 37.0625 180.3125 36.523438 C 180.3125 34.09375 178.964844 31.703125 175.917969 31.703125 C 173.066406 31.703125 170.792969 34.25 170.792969 37.332031 C 170.792969 40.609375 173.375 42.996094 176.1875 42.996094 C 179.195312 42.996094 180.3125 40.261719 180.3125 39.796875 C 180.3125 39.566406 180.121094 39.488281 179.964844 39.488281 C 179.773438 39.488281 179.695312 39.644531 179.65625 39.835938 C 178.808594 42.378906 176.574219 42.378906 176.34375 42.378906 C 175.109375 42.378906 174.144531 41.648438 173.566406 40.722656 C 172.835938 39.566406 172.835938 37.949219 172.835938 37.0625 Z M 172.835938 37.0625 "/>
<path fill-rule="nonzero" fill="rgb(0%, 0%, 0%)" fill-opacity="1" d="M 185.257812 32.898438 L 188.804688 32.898438 L 188.804688 32.128906 L 185.257812 32.128906 L 185.257812 27.621094 L 184.644531 27.621094 C 184.644531 29.625 183.910156 32.246094 181.480469 32.359375 L 181.480469 32.898438 L 183.5625 32.898438 L 183.5625 39.683594 C 183.5625 42.6875 185.875 42.996094 186.761719 42.996094 C 188.496094 42.996094 189.191406 41.261719 189.191406 39.683594 L 189.191406 38.296875 L 188.574219 38.296875 L 188.574219 39.644531 C 188.574219 41.457031 187.839844 42.378906 186.917969 42.378906 C 185.257812 42.378906 185.257812 40.144531 185.257812 39.722656 Z M 185.257812 32.898438 "/>
<path fill-rule="nonzero" fill="rgb(0%, 0%, 0%)" fill-opacity="1" d="M 198.746094 40.878906 C 198.863281 41.839844 199.519531 42.882812 200.675781 42.882812 C 201.214844 42.882812 202.71875 42.535156 202.71875 40.53125 L 202.71875 39.144531 L 202.101562 39.144531 L 202.101562 40.53125 C 202.101562 41.957031 201.484375 42.109375 201.214844 42.109375 C 200.40625 42.109375 200.289062 40.992188 200.289062 40.878906 L 200.289062 35.984375 C 200.289062 34.941406 200.289062 33.980469 199.402344 33.054688 C 198.4375 32.089844 197.207031 31.703125 196.050781 31.703125 C 194.007812 31.703125 192.3125 32.859375 192.3125 34.480469 C 192.3125 35.210938 192.8125 35.636719 193.46875 35.636719 C 194.160156 35.636719 194.585938 35.136719 194.585938 34.519531 C 194.585938 34.210938 194.46875 33.402344 193.3125 33.402344 C 194.007812 32.515625 195.203125 32.246094 195.972656 32.246094 C 197.207031 32.246094 198.59375 33.207031 198.59375 35.40625 L 198.59375 36.292969 C 197.320312 36.367188 195.625 36.445312 194.085938 37.175781 C 192.234375 38.027344 191.617188 39.296875 191.617188 40.375 C 191.617188 42.378906 194.007812 42.996094 195.546875 42.996094 C 197.167969 42.996094 198.285156 41.996094 198.746094 40.878906 Z M 198.59375 36.832031 L 198.59375 39.296875 C 198.59375 41.609375 196.820312 42.457031 195.703125 42.457031 C 194.507812 42.457031 193.507812 41.609375 193.507812 40.375 C 193.507812 39.027344 194.546875 36.984375 198.59375 36.832031 Z M 198.59375 36.832031 "/>
<path fill="none" stroke-width="0.3487" stroke-linecap="round" stroke-linejoin="miter" stroke="rgb(0%, 0%, 0%)" stroke-opacity="1" stroke-miterlimit="10" d="M 8.505017 -3.488841 L 8.505017 3.488567 Z M 8.505017 -3.488841 " transform="matrix(2.466667, 0, 0, -2.466667, 222.044394, 36.585599)"/>
<path fill="none" stroke-width="0.3487" stroke-linecap="round" stroke-linejoin="miter" stroke="rgb(0%, 0%, 0%)" stroke-opacity="1" stroke-miterlimit="10" d="M 28.344544 -3.488841 L 28.344544 3.488567 Z M 28.344544 -3.488841 " transform="matrix(2.466667, 0, 0, -2.466667, 222.044394, 36.585599)"/>
<path fill="none" stroke-width="0.3487" stroke-linecap="round" stroke-linejoin="miter" stroke="rgb(0%, 0%, 0%)" stroke-opacity="1" stroke-miterlimit="10" d="M 48.188822 -3.488841 L 48.188822 3.488567 Z M 48.188822 -3.488841 " transform="matrix(2.466667, 0, 0, -2.466667, 222.044394, 36.585599)"/>
<path fill="none" stroke-width="0.3487" stroke-linecap="round" stroke-linejoin="miter" stroke="rgb(0%, 0%, 0%)" stroke-opacity="1" stroke-miterlimit="10" d="M 68.0331 -3.488841 L 68.0331 3.488567 Z M 68.0331 -3.488841 " transform="matrix(2.466667, 0, 0, -2.466667, 222.044394, 36.585599)"/>
<path fill="none" stroke-width="0.3487" stroke-linecap="round" stroke-linejoin="miter" stroke="rgb(0%, 0%, 0%)" stroke-opacity="1" stroke-miterlimit="10" d="M 87.875794 -3.488841 L 87.875794 3.488567 Z M 87.875794 -3.488841 " transform="matrix(2.466667, 0, 0, -2.466667, 222.044394, 36.585599)"/>
<path fill="none" stroke-width="0.3487" stroke-linecap="round" stroke-linejoin="miter" stroke="rgb(0%, 0%, 0%)" stroke-opacity="1" stroke-miterlimit="10" d="M 107.716905 -3.488841 L 107.716905 3.488567 Z M 107.716905 -3.488841 " transform="matrix(2.466667, 0, 0, -2.466667, 222.044394, 36.585599)"/>
<path fill="none" stroke-width="0.3487" stroke-linecap="round" stroke-linejoin="miter" stroke="rgb(0%, 0%, 0%)" stroke-opacity="1" stroke-miterlimit="10" d="M 127.559599 -3.488841 L 127.559599 3.488567 Z M 127.559599 -3.488841 " transform="matrix(2.466667, 0, 0, -2.466667, 222.044394, 36.585599)"/>
<path fill="none" stroke-width="0.3487" stroke-linecap="round" stroke-linejoin="miter" stroke="rgb(0%, 0%, 0%)" stroke-opacity="1" stroke-miterlimit="10" d="M 147.403877 -3.488841 L 147.403877 3.488567 Z M 147.403877 -3.488841 " transform="matrix(2.466667, 0, 0, -2.466667, 222.044394, 36.585599)"/>
<path fill="none" stroke-width="0.3487" stroke-linecap="round" stroke-linejoin="miter" stroke="rgb(0%, 0%, 0%)" stroke-opacity="1" stroke-miterlimit="10" d="M 167.248155 -3.488841 L 167.248155 3.488567 Z M 167.248155 -3.488841 " transform="matrix(2.466667, 0, 0, -2.466667, 222.044394, 36.585599)"/>
<path fill-rule="nonzero" fill="rgb(0%, 0%, 0%)" fill-opacity="1" d="M 363.988281 22.855469 C 364.449219 22.855469 364.566406 22.855469 364.566406 22.351562 C 364.566406 20.078125 363.332031 17.996094 360.480469 17.996094 C 357.859375 17.996094 355.777344 20.308594 355.777344 23.046875 C 355.777344 25.9375 358.089844 28.132812 360.789062 28.132812 C 363.488281 28.132812 364.566406 25.78125 364.566406 25.28125 C 364.566406 25.128906 364.449219 24.972656 364.257812 24.972656 C 364.027344 24.972656 363.988281 25.128906 363.949219 25.242188 C 363.21875 27.480469 361.214844 27.515625 360.90625 27.515625 C 359.824219 27.515625 358.9375 26.9375 358.4375 26.167969 C 357.707031 25.089844 357.667969 23.777344 357.667969 22.855469 Z M 357.707031 22.3125 C 357.898438 18.882812 359.863281 18.539062 360.480469 18.539062 C 361.714844 18.539062 363.023438 19.460938 363.0625 22.3125 Z M 357.707031 22.3125 "/>
<path fill-rule="nonzero" fill="rgb(0%, 0%, 0%)" fill-opacity="1" d="M 369.359375 22.160156 C 369.359375 19.808594 371.015625 18.691406 372.402344 18.691406 C 373.714844 18.691406 373.984375 19.769531 373.984375 21.082031 L 373.984375 26.207031 C 373.984375 27.210938 373.753906 27.210938 372.289062 27.210938 L 372.289062 27.902344 C 373.328125 27.863281 373.753906 27.824219 374.832031 27.824219 C 375.871094 27.824219 376.179688 27.863281 377.335938 27.902344 L 377.335938 27.210938 C 376.21875 27.210938 375.640625 27.210938 375.640625 26.515625 L 375.640625 22.277344 C 375.640625 20.464844 375.640625 19.808594 375.023438 19.039062 C 374.523438 18.421875 373.675781 18.113281 372.558594 18.113281 C 370.515625 18.113281 369.550781 19.65625 369.242188 20.273438 L 369.207031 20.273438 L 369.207031 18.113281 L 366.007812 18.382812 L 366.007812 19.039062 C 367.507812 19.039062 367.703125 19.191406 367.703125 20.308594 L 367.703125 26.207031 C 367.703125 27.210938 367.472656 27.210938 366.007812 27.210938 L 366.007812 27.902344 C 367.046875 27.863281 367.472656 27.824219 368.550781 27.824219 C 369.589844 27.824219 369.898438 27.863281 371.054688 27.902344 L 371.054688 27.210938 C 369.589844 27.210938 369.359375 27.210938 369.359375 26.207031 Z M 369.359375 22.160156 "/>
<path fill-rule="nonzero" fill="rgb(0%, 0%, 0%)" fill-opacity="1" d="M 385.917969 19.191406 C 385.457031 19.308594 384.996094 19.617188 384.996094 20.234375 C 384.996094 20.8125 385.457031 21.273438 386.035156 21.273438 C 386.613281 21.273438 387.074219 20.886719 387.074219 20.195312 C 387.074219 18.84375 385.535156 17.996094 383.570312 17.996094 C 380.753906 17.996094 378.636719 20.347656 378.636719 23.125 C 378.636719 25.976562 380.910156 28.132812 383.53125 28.132812 C 386.613281 28.132812 387.308594 25.476562 387.308594 25.28125 C 387.308594 25.011719 387.074219 25.011719 387 25.011719 C 386.765625 25.011719 386.765625 25.050781 386.613281 25.4375 C 386.113281 26.9375 384.878906 27.515625 383.761719 27.515625 C 382.335938 27.515625 380.523438 26.359375 380.523438 23.085938 C 380.523438 19.65625 382.296875 18.613281 383.605469 18.613281 C 383.914062 18.613281 385.109375 18.652344 385.917969 19.191406 Z M 385.917969 19.191406 "/>
<path fill-rule="nonzero" fill="rgb(0%, 0%, 0%)" fill-opacity="1" d="M 392.054688 18.113281 L 388.855469 18.382812 L 388.855469 19.039062 C 390.28125 19.039062 390.472656 19.191406 390.472656 20.273438 L 390.472656 26.207031 C 390.472656 27.210938 390.242188 27.210938 388.777344 27.210938 L 388.777344 27.902344 C 389.742188 27.863281 390.242188 27.824219 391.203125 27.824219 C 391.550781 27.824219 392.476562 27.824219 393.554688 27.902344 L 393.554688 27.210938 C 392.128906 27.210938 392.054688 27.09375 392.054688 26.246094 Z M 392.089844 14.257812 C 392.089844 13.605469 391.589844 13.0625 390.898438 13.0625 C 390.242188 13.0625 389.703125 13.640625 389.703125 14.257812 C 389.703125 14.914062 390.242188 15.453125 390.898438 15.453125 C 391.589844 15.453125 392.089844 14.953125 392.089844 14.257812 Z M 392.089844 14.257812 "/>
<path fill-rule="nonzero" fill="rgb(0%, 0%, 0%)" fill-opacity="1" d="M 398.40625 22.160156 C 398.40625 19.769531 400.140625 18.691406 401.449219 18.691406 C 402.683594 18.691406 403.070312 19.539062 403.070312 21.082031 L 403.070312 26.207031 C 403.070312 27.210938 402.839844 27.210938 401.375 27.210938 L 401.375 27.902344 C 402.414062 27.863281 402.839844 27.824219 403.878906 27.824219 C 404.957031 27.824219 405.226562 27.863281 406.421875 27.902344 L 406.421875 27.210938 C 404.957031 27.210938 404.6875 27.210938 404.6875 26.207031 L 404.6875 22.160156 C 404.6875 19.769531 406.421875 18.691406 407.769531 18.691406 C 408.964844 18.691406 409.351562 19.539062 409.351562 21.082031 L 409.351562 26.207031 C 409.351562 27.210938 409.121094 27.210938 407.65625 27.210938 L 407.65625 27.902344 C 408.695312 27.863281 409.121094 27.824219 410.199219 27.824219 C 411.238281 27.824219 411.546875 27.863281 412.703125 27.902344 L 412.703125 27.210938 C 411.585938 27.210938 411.046875 27.210938 411.007812 26.515625 L 411.007812 22.277344 C 411.007812 20.347656 411.007812 19.730469 410.277344 18.921875 C 409.8125 18.382812 408.925781 18.113281 407.925781 18.113281 C 406.308594 18.113281 405.226562 19.039062 404.609375 20.234375 C 404.339844 18.921875 403.453125 18.113281 401.605469 18.113281 C 399.832031 18.113281 398.753906 19.269531 398.289062 20.308594 L 398.25 20.308594 L 398.25 18.113281 L 395.050781 18.382812 L 395.050781 19.039062 C 396.554688 19.039062 396.75 19.191406 396.75 20.308594 L 396.75 26.207031 C 396.75 27.210938 396.515625 27.210938 395.050781 27.210938 L 395.050781 27.902344 C 396.09375 27.863281 396.515625 27.824219 397.597656 27.824219 C 398.636719 27.824219 398.945312 27.863281 400.101562 27.902344 L 400.101562 27.210938 C 398.636719 27.210938 398.40625 27.210938 398.40625 26.207031 Z M 398.40625 22.160156 "/>
<path fill-rule="nonzero" fill="rgb(0%, 0%, 0%)" fill-opacity="1" d="M 420.78125 26.324219 C 420.894531 27.246094 421.550781 28.019531 422.515625 28.019531 C 423.054688 28.019531 424.441406 27.710938 424.441406 25.9375 L 424.441406 24.703125 L 423.824219 24.703125 L 423.824219 25.898438 C 423.824219 26.167969 423.824219 27.246094 423.015625 27.246094 C 422.242188 27.246094 422.242188 26.207031 422.242188 25.859375 L 422.242188 21.96875 C 422.242188 20.695312 422.242188 19.964844 421.242188 19.039062 C 420.433594 18.304688 419.351562 17.996094 418.234375 17.996094 C 416.386719 17.996094 414.84375 18.921875 414.84375 20.347656 C 414.84375 21.003906 415.304688 21.390625 415.882812 21.390625 C 416.460938 21.390625 416.886719 20.964844 416.886719 20.386719 C 416.886719 19.421875 415.921875 19.308594 415.882812 19.308594 C 416.5 18.730469 417.582031 18.539062 418.195312 18.539062 C 419.316406 18.539062 420.585938 19.386719 420.585938 21.351562 L 420.585938 22.042969 C 419.390625 22.121094 417.734375 22.199219 416.269531 22.929688 C 414.652344 23.703125 414.1875 24.859375 414.1875 25.746094 C 414.1875 27.554688 416.308594 28.132812 417.8125 28.132812 C 419.625 28.132812 420.472656 26.9375 420.78125 26.324219 Z M 420.585938 24.78125 C 420.585938 26.9375 418.929688 27.59375 417.964844 27.59375 C 416.925781 27.59375 415.960938 26.824219 415.960938 25.746094 C 415.960938 24.28125 417.195312 22.738281 420.585938 22.585938 Z M 420.585938 24.78125 "/>
<path fill-rule="nonzero" fill="rgb(0%, 0%, 0%)" fill-opacity="1" d="M 353.5 67.132812 C 353.5 67.019531 353.425781 66.941406 353.308594 66.789062 C 350.457031 64.167969 349.570312 60.195312 349.570312 56.304688 C 349.570312 52.914062 350.226562 48.75 353.347656 45.78125 C 353.464844 45.667969 353.5 45.628906 353.5 45.511719 C 353.5 45.359375 353.386719 45.242188 353.230469 45.242188 C 352.960938 45.242188 350.957031 46.863281 349.761719 49.25 C 348.722656 51.371094 348.183594 53.683594 348.183594 56.304688 C 348.183594 57.882812 348.375 60.429688 349.609375 63.011719 C 350.917969 65.746094 352.960938 67.367188 353.230469 67.367188 C 353.386719 67.367188 353.5 67.289062 353.5 67.132812 Z M 353.5 67.132812 "/>
<path fill-rule="nonzero" fill="rgb(0%, 0%, 0%)" fill-opacity="1" d="M 358.910156 56.113281 C 358.910156 53.722656 360.644531 52.644531 361.957031 52.644531 C 363.191406 52.644531 363.574219 53.492188 363.574219 55.03125 L 363.574219 60.160156 C 363.574219 61.160156 363.34375 61.160156 361.878906 61.160156 L 361.878906 61.855469 C 362.921875 61.816406 363.34375 61.777344 364.382812 61.777344 C 365.464844 61.777344 365.734375 61.816406 366.929688 61.855469 L 366.929688 61.160156 C 365.464844 61.160156 365.195312 61.160156 365.195312 60.160156 L 365.195312 56.113281 C 365.195312 53.722656 366.929688 52.644531 368.277344 52.644531 C 369.472656 52.644531 369.859375 53.492188 369.859375 55.03125 L 369.859375 60.160156 C 369.859375 61.160156 369.625 61.160156 368.160156 61.160156 L 368.160156 61.855469 C 369.203125 61.816406 369.625 61.777344 370.707031 61.777344 C 371.746094 61.777344 372.054688 61.816406 373.210938 61.855469 L 373.210938 61.160156 C 372.09375 61.160156 371.554688 61.160156 371.515625 60.464844 L 371.515625 56.226562 C 371.515625 54.300781 371.515625 53.683594 370.78125 52.875 C 370.320312 52.335938 369.433594 52.066406 368.429688 52.066406 C 366.8125 52.066406 365.734375 52.988281 365.117188 54.183594 C 364.847656 52.875 363.960938 52.066406 362.109375 52.066406 C 360.335938 52.066406 359.257812 53.222656 358.796875 54.261719 L 358.757812 54.261719 L 358.757812 52.066406 L 355.558594 52.335938 L 355.558594 52.988281 C 357.0625 52.988281 357.253906 53.144531 357.253906 54.261719 L 357.253906 60.160156 C 357.253906 61.160156 357.023438 61.160156 355.558594 61.160156 L 355.558594 61.855469 C 356.597656 61.816406 357.023438 61.777344 358.101562 61.777344 C 359.144531 61.777344 359.453125 61.816406 360.609375 61.855469 L 360.609375 61.160156 C 359.144531 61.160156 358.910156 61.160156 358.910156 60.160156 Z M 358.910156 56.113281 "/>
<path fill-rule="nonzero" fill="rgb(0%, 0%, 0%)" fill-opacity="1" d="M 381.285156 60.273438 C 381.402344 61.199219 382.054688 61.96875 383.019531 61.96875 C 383.558594 61.96875 384.945312 61.660156 384.945312 59.886719 L 384.945312 58.65625 L 384.328125 58.65625 L 384.328125 59.851562 C 384.328125 60.121094 384.328125 61.199219 383.519531 61.199219 C 382.75 61.199219 382.75 60.160156 382.75 59.8125 L 382.75 55.917969 C 382.75 54.648438 382.75 53.914062 381.746094 52.988281 C 380.9375 52.257812 379.859375 51.949219 378.742188 51.949219 C 376.890625 51.949219 375.351562 52.875 375.351562 54.300781 C 375.351562 54.957031 375.8125 55.339844 376.390625 55.339844 C 376.96875 55.339844 377.390625 54.917969 377.390625 54.339844 C 377.390625 53.375 376.429688 53.257812 376.390625 53.257812 C 377.007812 52.679688 378.085938 52.488281 378.703125 52.488281 C 379.820312 52.488281 381.09375 53.335938 381.09375 55.300781 L 381.09375 55.996094 C 379.898438 56.074219 378.242188 56.148438 376.777344 56.882812 C 375.15625 57.652344 374.695312 58.808594 374.695312 59.695312 C 374.695312 61.507812 376.8125 62.085938 378.316406 62.085938 C 380.128906 62.085938 380.976562 60.890625 381.285156 60.273438 Z M 381.09375 58.730469 C 381.09375 60.890625 379.433594 61.546875 378.472656 61.546875 C 377.429688 61.546875 376.46875 60.773438 376.46875 59.695312 C 376.46875 58.230469 377.699219 56.691406 381.09375 56.535156 Z M 381.09375 58.730469 "/>
<path fill-rule="nonzero" fill="rgb(0%, 0%, 0%)" fill-opacity="1" d="M 389.027344 56.804688 C 389.027344 55.878906 389.257812 52.644531 391.804688 52.644531 C 391.765625 52.679688 391.417969 52.949219 391.417969 53.453125 C 391.417969 54.070312 391.878906 54.453125 392.382812 54.453125 C 392.84375 54.453125 393.34375 54.105469 393.34375 53.453125 C 393.34375 52.757812 392.691406 52.066406 391.6875 52.066406 C 390.378906 52.066406 389.453125 52.988281 388.914062 54.378906 L 388.914062 52.066406 L 385.753906 52.335938 L 385.753906 52.988281 C 387.253906 52.988281 387.449219 53.144531 387.449219 54.261719 L 387.449219 60.160156 C 387.449219 61.160156 387.21875 61.160156 385.753906 61.160156 L 385.753906 61.855469 C 386.945312 61.816406 387.21875 61.777344 388.335938 61.777344 C 389.222656 61.777344 389.761719 61.816406 391.148438 61.855469 L 391.148438 61.160156 L 390.722656 61.160156 C 389.105469 61.160156 389.027344 60.929688 389.027344 60.121094 Z M 389.027344 56.804688 "/>
<path fill-rule="nonzero" fill="rgb(0%, 0%, 0%)" fill-opacity="1" d="M 397.917969 57.035156 L 397.917969 46.515625 L 394.644531 46.746094 L 394.644531 47.441406 C 396.144531 47.441406 396.339844 47.59375 396.339844 48.671875 L 396.339844 60.160156 C 396.339844 61.160156 396.109375 61.160156 394.644531 61.160156 L 394.644531 61.855469 C 395.605469 61.816406 396.183594 61.777344 397.109375 61.777344 C 397.996094 61.777344 398.574219 61.816406 399.578125 61.855469 L 399.578125 61.160156 C 398.113281 61.160156 397.84375 61.160156 397.84375 60.160156 L 397.84375 57.921875 L 399.269531 56.726562 L 401.425781 59.617188 C 401.773438 60.121094 401.964844 60.390625 401.964844 60.699219 C 401.964844 60.890625 401.890625 61.160156 401.195312 61.160156 L 401.195312 61.855469 C 402.199219 61.816406 402.738281 61.777344 403.585938 61.777344 C 404.238281 61.777344 404.933594 61.777344 405.589844 61.855469 L 405.589844 61.160156 C 404.855469 61.160156 404.316406 61.160156 403.507812 60.082031 L 400.386719 55.804688 C 402.542969 53.953125 403.585938 53.066406 405.089844 52.988281 L 405.089844 52.335938 C 404.277344 52.371094 404.238281 52.371094 403.429688 52.371094 C 402.777344 52.371094 402.199219 52.371094 401.003906 52.335938 L 401.003906 52.988281 C 401.347656 53.027344 401.582031 53.183594 401.582031 53.527344 C 401.582031 53.953125 401.234375 54.261719 401.042969 54.414062 Z M 397.917969 57.035156 "/>
<path fill-rule="nonzero" fill="rgb(0%, 0%, 0%)" fill-opacity="1" d="M 412.304688 57.769531 L 412.304688 56.382812 L 406.214844 56.382812 L 406.214844 57.769531 Z M 412.304688 57.769531 "/>
<path fill-rule="nonzero" fill="rgb(0%, 0%, 0%)" fill-opacity="1" d="M 414.21875 57.5 L 414.21875 58.191406 L 420.230469 58.191406 L 420.230469 60.121094 C 420.230469 60.929688 420.191406 61.160156 418.535156 61.160156 L 418.03125 61.160156 L 418.03125 61.855469 C 419.421875 61.777344 420.960938 61.777344 421.117188 61.777344 C 421.230469 61.777344 422.851562 61.777344 424.238281 61.855469 L 424.238281 61.160156 L 423.738281 61.160156 C 422.078125 61.160156 422.003906 60.929688 422.003906 60.121094 L 422.003906 58.191406 L 424.277344 58.191406 L 424.277344 57.5 L 422.003906 57.5 L 422.003906 47.476562 C 422.003906 47.015625 422.003906 46.863281 421.578125 46.863281 C 421.308594 46.863281 421.308594 46.898438 421.117188 47.207031 Z M 414.910156 57.5 L 420.382812 49.328125 L 420.382812 57.5 Z M 414.910156 57.5 "/>
<path fill-rule="nonzero" fill="rgb(0%, 0%, 0%)" fill-opacity="1" d="M 431.519531 56.304688 C 431.519531 54.492188 431.25 52.066406 430.09375 49.597656 C 428.78125 46.863281 426.738281 45.242188 426.46875 45.242188 C 426.238281 45.242188 426.199219 45.433594 426.199219 45.511719 C 426.199219 45.628906 426.238281 45.667969 426.390625 45.820312 C 427.703125 46.976562 430.132812 49.984375 430.132812 56.304688 C 430.132812 59.464844 429.554688 63.859375 426.355469 66.863281 C 426.316406 66.902344 426.199219 67.019531 426.199219 67.132812 C 426.199219 67.171875 426.238281 67.367188 426.46875 67.367188 C 426.738281 67.367188 428.742188 65.785156 429.9375 63.355469 C 430.980469 61.238281 431.519531 58.964844 431.519531 56.304688 Z M 431.519531 56.304688 "/>
</svg>
