<?xml version="1.0" encoding="UTF-8"?>
<svg xmlns="http://www.w3.org/2000/svg" xmlns:xlink="http://www.w3.org/1999/xlink" width="640.255371" height="67.044001" viewBox="0 0 640.255371 67.044001">
<path fill="none" stroke-width="0.3985" stroke-linecap="butt" stroke-linejoin="miter" stroke="rgb(0%, 0%, 0%)" stroke-opacity="1" stroke-miterlimit="10" d="M -0.000330745 0.0018159 L 178.007482 0.0018159 " transform="matrix(2.466667, 0, 0, -2.466667, 190.848472, 43.016198)"/>
<path fill-rule="nonzero" fill="rgb(0%, 0%, 0%)" fill-opacity="1" d="M 634.859375 43.011719 L 626.984375 39.082031 L 629.933594 43.011719 L 626.984375 46.945312 "/>
<path fill-rule="nonzero" fill="rgb(0%, 0%, 0%)" fill-opacity="1" d="M 17.460938 32.085938 L 13.914062 32.355469 L 13.914062 33.128906 C 15.648438 33.128906 15.84375 33.28125 15.84375 34.515625 L 15.84375 47.3125 C 15.84375 48.390625 15.570312 48.390625 13.914062 48.390625 L 13.914062 49.160156 C 14.722656 49.121094 16.035156 49.082031 16.652344 49.082031 C 17.269531 49.082031 18.460938 49.121094 19.386719 49.160156 L 19.386719 48.390625 C 17.730469 48.390625 17.460938 48.390625 17.460938 47.3125 Z M 17.460938 32.085938 "/>
<path fill-rule="nonzero" fill="rgb(0%, 0%, 0%)" fill-opacity="1" d="M 28.101562 47.3125 C 28.21875 48.273438 28.875 49.316406 30.03125 49.316406 C 30.570312 49.316406 32.074219 48.96875 32.074219 46.964844 L 32.074219 45.578125 L 31.457031 45.578125 L 31.457031 46.964844 C 31.457031 48.390625 30.839844 48.542969 30.570312 48.542969 C 29.761719 48.542969 29.644531 47.425781 29.644531 47.3125 L 29.644531 42.414062 C 29.644531 41.375 29.644531 40.410156 28.757812 39.488281 C 27.792969 38.523438 26.5625 38.136719 25.40625 38.136719 C 23.363281 38.136719 21.667969 39.292969 21.667969 40.914062 C 21.667969 41.644531 22.167969 42.070312 22.824219 42.070312 C 23.515625 42.070312 23.941406 41.566406 23.941406 40.953125 C 23.941406 40.644531 23.824219 39.832031 22.667969 39.832031 C 23.363281 38.945312 24.558594 38.675781 25.328125 38.675781 C 26.5625 38.675781 27.949219 39.640625 27.949219 41.835938 L 27.949219 42.722656 C 26.675781 42.800781 24.980469 42.878906 23.441406 43.609375 C 21.589844 44.457031 20.972656 45.730469 20.972656 46.808594 C 20.972656 48.8125 23.363281 49.429688 24.902344 49.429688 C 26.523438 49.429688 27.640625 48.429688 28.101562 47.3125 Z M 27.949219 43.265625 L 27.949219 45.730469 C 27.949219 48.042969 26.175781 48.890625 25.058594 48.890625 C 23.863281 48.890625 22.863281 48.042969 22.863281 46.808594 C 22.863281 45.460938 23.902344 43.417969 27.949219 43.265625 Z M 27.949219 43.265625 "/>
<path fill-rule="nonzero" fill="rgb(0%, 0%, 0%)" fill-opacity="1" d="M 36.457031 39.871094 L 36.457031 32.085938 L 32.914062 32.355469 L 32.914062 33.128906 C 34.648438 33.128906 34.839844 33.28125 34.839844 34.515625 L 34.839844 49.160156 L 35.457031 49.160156 C 35.457031 49.121094 35.648438 48.773438 36.34375 47.617188 C 36.691406 48.195312 37.730469 49.429688 39.542969 49.429688 C 42.472656 49.429688 45.015625 47.003906 45.015625 43.84375 C 45.015625 40.71875 42.625 38.292969 39.8125 38.292969 C 37.886719 38.292969 36.84375 39.449219 36.457031 39.871094 Z M 36.535156 46.347656 L 36.535156 41.296875 C 36.535156 40.835938 36.535156 40.796875 36.804688 40.410156 C 37.769531 39.023438 39.117188 38.832031 39.695312 38.832031 C 40.8125 38.832031 41.699219 39.488281 42.277344 40.410156 C 42.933594 41.414062 42.972656 42.800781 42.972656 43.84375 C 42.972656 44.726562 42.933594 46.191406 42.238281 47.3125 C 41.699219 48.082031 40.777344 48.890625 39.464844 48.890625 C 38.347656 48.890625 37.460938 48.3125 36.882812 47.386719 C 36.535156 46.886719 36.535156 46.808594 36.535156 46.347656 Z M 36.535156 46.347656 "/>
<path fill-rule="nonzero" fill="rgb(0%, 0%, 0%)" fill-opacity="1" d="M 49.296875 42.957031 C 49.453125 39.292969 51.53125 38.675781 52.378906 38.675781 C 54.886719 38.675781 55.15625 41.992188 55.15625 42.957031 Z M 49.296875 43.496094 L 56.15625 43.496094 C 56.699219 43.496094 56.773438 43.496094 56.773438 42.957031 C 56.773438 40.527344 55.425781 38.136719 52.378906 38.136719 C 49.527344 38.136719 47.253906 40.679688 47.253906 43.765625 C 47.253906 47.039062 49.835938 49.429688 52.652344 49.429688 C 55.65625 49.429688 56.773438 46.695312 56.773438 46.230469 C 56.773438 46 56.582031 45.921875 56.425781 45.921875 C 56.234375 45.921875 56.15625 46.078125 56.121094 46.269531 C 55.269531 48.8125 53.035156 48.8125 52.804688 48.8125 C 51.570312 48.8125 50.609375 48.082031 50.03125 47.15625 C 49.296875 46 49.296875 44.382812 49.296875 43.496094 Z M 49.296875 43.496094 "/>
<path fill-rule="nonzero" fill="rgb(0%, 0%, 0%)" fill-opacity="1" d="M 61.835938 32.085938 L 58.292969 32.355469 L 58.292969 33.128906 C 60.027344 33.128906 60.21875 33.28125 60.21875 34.515625 L 60.21875 47.3125 C 60.21875 48.390625 59.949219 48.390625 58.292969 48.390625 L 58.292969 49.160156 C 59.101562 49.121094 60.410156 49.082031 61.027344 49.082031 C 61.644531 49.082031 62.839844 49.121094 63.765625 49.160156 L 63.765625 48.390625 C 62.105469 48.390625 61.835938 48.390625 61.835938 47.3125 Z M 61.835938 32.085938 "/>
<path fill-rule="nonzero" fill="rgb(0%, 0%, 0%)" fill-opacity="1" d="M 77.964844 44.921875 C 75.804688 44.921875 75.804688 42.453125 75.804688 41.914062 C 75.804688 41.257812 75.84375 40.449219 76.191406 39.832031 C 76.382812 39.5625 76.960938 38.871094 77.964844 38.871094 C 80.085938 38.871094 80.085938 41.296875 80.085938 41.875 C 80.085938 42.53125 80.085938 43.339844 79.699219 43.957031 C 79.507812 44.226562 78.929688 44.921875 77.964844 44.921875 Z M 75.113281 45.882812 C 75.113281 45.808594 75.113281 45.230469 75.5 44.726562 C 76.460938 45.421875 77.503906 45.5 77.964844 45.5 C 80.238281 45.5 81.933594 43.804688 81.933594 41.914062 C 81.933594 40.988281 81.550781 40.101562 80.933594 39.523438 C 81.820312 38.675781 82.707031 38.5625 83.128906 38.5625 C 83.207031 38.5625 83.320312 38.5625 83.398438 38.601562 C 83.128906 38.675781 82.976562 38.945312 82.976562 39.253906 C 82.976562 39.679688 83.320312 39.949219 83.707031 39.949219 C 83.9375 39.949219 84.402344 39.796875 84.402344 39.21875 C 84.402344 38.792969 84.132812 38.023438 83.167969 38.023438 C 82.667969 38.023438 81.585938 38.175781 80.546875 39.179688 C 79.507812 38.367188 78.503906 38.292969 77.964844 38.292969 C 75.652344 38.292969 73.957031 39.988281 73.957031 41.875 C 73.957031 42.957031 74.496094 43.878906 75.113281 44.421875 C 74.804688 44.765625 74.34375 45.578125 74.34375 46.460938 C 74.34375 47.234375 74.6875 48.160156 75.460938 48.660156 C 73.957031 49.046875 73.1875 50.125 73.1875 51.085938 C 73.1875 52.859375 75.613281 54.210938 78.621094 54.210938 C 81.511719 54.210938 84.054688 52.976562 84.054688 51.050781 C 84.054688 50.203125 83.746094 48.929688 82.472656 48.234375 C 81.164062 47.582031 79.738281 47.582031 78.234375 47.582031 C 77.617188 47.582031 76.578125 47.582031 76.382812 47.542969 C 75.613281 47.425781 75.113281 46.695312 75.113281 45.882812 Z M 78.660156 53.671875 C 76.152344 53.671875 74.457031 52.398438 74.457031 51.085938 C 74.457031 49.96875 75.382812 49.046875 76.460938 49.007812 L 77.925781 49.007812 C 80.046875 49.007812 82.78125 49.007812 82.78125 51.085938 C 82.78125 52.4375 81.046875 53.671875 78.660156 53.671875 Z M 78.660156 53.671875 "/>
<path fill-rule="nonzero" fill="rgb(0%, 0%, 0%)" fill-opacity="1" d="M 96.339844 43.878906 C 96.339844 40.757812 93.914062 38.136719 90.945312 38.136719 C 87.863281 38.136719 85.472656 40.835938 85.472656 43.878906 C 85.472656 47.078125 88.015625 49.429688 90.90625 49.429688 C 93.875 49.429688 96.339844 47.003906 96.339844 43.878906 Z M 90.945312 48.8125 C 89.867188 48.8125 88.789062 48.3125 88.132812 47.15625 C 87.515625 46.078125 87.515625 44.574219 87.515625 43.6875 C 87.515625 42.722656 87.515625 41.414062 88.09375 40.335938 C 88.75 39.21875 89.90625 38.675781 90.90625 38.675781 C 91.988281 38.675781 93.027344 39.21875 93.683594 40.296875 C 94.335938 41.335938 94.335938 42.761719 94.335938 43.6875 C 94.335938 44.574219 94.335938 45.921875 93.796875 47.003906 C 93.21875 48.121094 92.140625 48.8125 90.945312 48.8125 Z M 90.945312 48.8125 "/>
<path fill-rule="nonzero" fill="rgb(0%, 0%, 0%)" fill-opacity="1" d="M 100.492188 42.957031 C 100.644531 39.292969 102.726562 38.675781 103.574219 38.675781 C 106.078125 38.675781 106.347656 41.992188 106.347656 42.957031 Z M 100.492188 43.496094 L 107.351562 43.496094 C 107.890625 43.496094 107.96875 43.496094 107.96875 42.957031 C 107.96875 40.527344 106.617188 38.136719 103.574219 38.136719 C 100.722656 38.136719 98.449219 40.679688 98.449219 43.765625 C 98.449219 47.039062 101.03125 49.429688 103.84375 49.429688 C 106.851562 49.429688 107.96875 46.695312 107.96875 46.230469 C 107.96875 46 107.773438 45.921875 107.621094 45.921875 C 107.429688 45.921875 107.351562 46.078125 107.3125 46.269531 C 106.464844 48.8125 104.230469 48.8125 104 48.8125 C 102.765625 48.8125 101.800781 48.082031 101.222656 47.15625 C 100.492188 46 100.492188 44.382812 100.492188 43.496094 Z M 100.492188 43.496094 "/>
<path fill-rule="nonzero" fill="rgb(0%, 0%, 0%)" fill-opacity="1" d="M 113.800781 44.382812 C 114.339844 44.496094 116.34375 44.882812 116.34375 46.65625 C 116.34375 47.890625 115.496094 48.890625 113.570312 48.890625 C 111.488281 48.890625 110.601562 47.503906 110.140625 45.382812 C 110.0625 45.074219 110.0625 45 109.792969 45 C 109.484375 45 109.484375 45.152344 109.484375 45.578125 L 109.484375 48.851562 C 109.484375 49.277344 109.484375 49.429688 109.753906 49.429688 C 109.871094 49.429688 109.910156 49.390625 110.371094 48.929688 C 110.410156 48.890625 110.410156 48.851562 110.871094 48.390625 C 111.953125 49.390625 113.070312 49.429688 113.570312 49.429688 C 116.382812 49.429688 117.539062 47.773438 117.539062 46 C 117.539062 44.726562 116.808594 43.957031 116.5 43.6875 C 115.691406 42.878906 114.726562 42.6875 113.6875 42.492188 C 112.296875 42.222656 110.679688 41.914062 110.679688 40.488281 C 110.679688 39.601562 111.296875 38.601562 113.414062 38.601562 C 116.113281 38.601562 116.269531 40.835938 116.304688 41.566406 C 116.304688 41.800781 116.539062 41.800781 116.578125 41.800781 C 116.921875 41.800781 116.921875 41.683594 116.921875 41.222656 L 116.921875 38.714844 C 116.921875 38.332031 116.921875 38.136719 116.652344 38.136719 C 116.539062 38.136719 116.460938 38.136719 116.152344 38.445312 C 116.074219 38.523438 115.84375 38.753906 115.726562 38.832031 C 114.804688 38.136719 113.800781 38.136719 113.414062 38.136719 C 110.410156 38.136719 109.484375 39.796875 109.484375 41.183594 C 109.484375 42.03125 109.871094 42.722656 110.523438 43.265625 C 111.335938 43.878906 112.027344 44.035156 113.800781 44.382812 Z M 113.800781 44.382812 "/>
<path fill-rule="nonzero" fill="rgb(0%, 0%, 0%)" fill-opacity="1" d="M 129.25 47.3125 C 129.25 48.390625 128.980469 48.390625 127.320312 48.390625 L 127.320312 49.160156 C 128.207031 49.121094 129.441406 49.082031 130.136719 49.082031 C 130.75 49.082031 132.023438 49.121094 132.871094 49.160156 L 132.871094 48.390625 C 131.214844 48.390625 130.945312 48.390625 130.945312 47.3125 L 130.945312 42.761719 C 130.945312 40.21875 132.71875 38.832031 134.257812 38.832031 C 135.839844 38.832031 136.109375 40.140625 136.109375 41.566406 L 136.109375 47.3125 C 136.109375 48.390625 135.839844 48.390625 134.183594 48.390625 L 134.183594 49.160156 C 135.03125 49.121094 136.300781 49.082031 136.957031 49.082031 C 137.574219 49.082031 138.882812 49.121094 139.695312 49.160156 L 139.695312 48.390625 C 138.421875 48.390625 137.804688 48.390625 137.804688 47.65625 L 137.804688 42.957031 C 137.804688 40.835938 137.804688 40.101562 137.035156 39.21875 C 136.6875 38.792969 135.878906 38.292969 134.453125 38.292969 C 132.371094 38.292969 131.292969 39.757812 130.867188 40.71875 L 130.867188 32.085938 L 127.320312 32.355469 L 127.320312 33.128906 C 129.054688 33.128906 129.25 33.28125 129.25 34.515625 Z M 129.25 47.3125 "/>
<path fill-rule="nonzero" fill="rgb(0%, 0%, 0%)" fill-opacity="1" d="M 142.941406 42.957031 C 143.09375 39.292969 145.175781 38.675781 146.023438 38.675781 C 148.527344 38.675781 148.800781 41.992188 148.800781 42.957031 Z M 142.941406 43.496094 L 149.800781 43.496094 C 150.339844 43.496094 150.417969 43.496094 150.417969 42.957031 C 150.417969 40.527344 149.070312 38.136719 146.023438 38.136719 C 143.171875 38.136719 140.898438 40.679688 140.898438 43.765625 C 140.898438 47.039062 143.480469 49.429688 146.292969 49.429688 C 149.300781 49.429688 150.417969 46.695312 150.417969 46.230469 C 150.417969 46 150.226562 45.921875 150.070312 45.921875 C 149.878906 45.921875 149.800781 46.078125 149.761719 46.269531 C 148.914062 48.8125 146.679688 48.8125 146.449219 48.8125 C 145.214844 48.8125 144.25 48.082031 143.671875 47.15625 C 142.941406 46 142.941406 44.382812 142.941406 43.496094 Z M 142.941406 43.496094 "/>
<path fill-rule="nonzero" fill="rgb(0%, 0%, 0%)" fill-opacity="1" d="M 155.25 40.988281 L 155.25 38.292969 L 151.820312 38.5625 L 151.820312 39.332031 C 153.554688 39.332031 153.746094 39.488281 153.746094 40.71875 L 153.746094 47.3125 C 153.746094 48.390625 153.476562 48.390625 151.820312 48.390625 L 151.820312 49.160156 C 152.78125 49.121094 153.9375 49.082031 154.632812 49.082031 C 155.597656 49.082031 156.753906 49.082031 157.753906 49.160156 L 157.753906 48.390625 L 157.214844 48.390625 C 155.402344 48.390625 155.363281 48.121094 155.363281 47.234375 L 155.363281 43.457031 C 155.363281 41.027344 156.40625 38.832031 158.253906 38.832031 C 158.410156 38.832031 158.488281 38.832031 158.523438 38.871094 C 158.449219 38.871094 157.945312 39.179688 157.945312 39.832031 C 157.945312 40.488281 158.488281 40.875 159.027344 40.875 C 159.449219 40.875 160.066406 40.566406 160.066406 39.796875 C 160.066406 39.023438 159.296875 38.292969 158.253906 38.292969 C 156.445312 38.292969 155.558594 39.949219 155.25 40.988281 Z M 155.25 40.988281 "/>
<path fill-rule="nonzero" fill="rgb(0%, 0%, 0%)" fill-opacity="1" d="M 163.488281 42.957031 C 163.640625 39.292969 165.722656 38.675781 166.570312 38.675781 C 169.074219 38.675781 169.347656 41.992188 169.347656 42.957031 Z M 163.488281 43.496094 L 170.347656 43.496094 C 170.886719 43.496094 170.964844 43.496094 170.964844 42.957031 C 170.964844 40.527344 169.617188 38.136719 166.570312 38.136719 C 163.71875 38.136719 161.445312 40.679688 161.445312 43.765625 C 161.445312 47.039062 164.027344 49.429688 166.839844 49.429688 C 169.847656 49.429688 170.964844 46.695312 170.964844 46.230469 C 170.964844 46 170.773438 45.921875 170.617188 45.921875 C 170.425781 45.921875 170.347656 46.078125 170.308594 46.269531 C 169.460938 48.8125 167.226562 48.8125 166.996094 48.8125 C 165.761719 48.8125 164.796875 48.082031 164.21875 47.15625 C 163.488281 46 163.488281 44.382812 163.488281 43.496094 Z M 163.488281 43.496094 "/>
<path fill="none" stroke-width="0.3487" stroke-linecap="round" stroke-linejoin="miter" stroke="rgb(0%, 0%, 0%)" stroke-opacity="1" stroke-miterlimit="10" d="M 8.503681 -3.486888 L 8.503681 3.485769 Z M 8.503681 -3.486888 " transform="matrix(2.466667, 0, 0, -2.466667, 190.848472, 43.016198)"/>
<path fill="none" stroke-width="0.3487" stroke-linecap="round" stroke-linejoin="miter" stroke="rgb(0%, 0%, 0%)" stroke-opacity="1" stroke-miterlimit="10" d="M 40.253576 -3.486888 L 40.253576 3.485769 Z M 40.253576 -3.486888 " transform="matrix(2.466667, 0, 0, -2.466667, 190.848472, 43.016198)"/>
<path fill="none" stroke-width="0.3487" stroke-linecap="round" stroke-linejoin="miter" stroke="rgb(0%, 0%, 0%)" stroke-opacity="1" stroke-miterlimit="10" d="M 72.000303 -3.486888 L 72.000303 3.485769 Z M 72.000303 -3.486888 " transform="matrix(2.466667, 0, 0, -2.466667, 190.848472, 43.016198)"/>
<path fill="none" stroke-width="0.3487" stroke-linecap="round" stroke-linejoin="miter" stroke="rgb(0%, 0%, 0%)" stroke-opacity="1" stroke-miterlimit="10" d="M 103.750197 -3.486888 L 103.750197 3.485769 Z M 103.750197 -3.486888 " transform="matrix(2.466667, 0, 0, -2.466667, 190.848472, 43.016198)"/>
<path fill="none" stroke-width="0.3487" stroke-linecap="round" stroke-linejoin="miter" stroke="rgb(0%, 0%, 0%)" stroke-opacity="1" stroke-miterlimit="10" d="M 135.496924 -3.486888 L 135.496924 3.485769 Z M 135.496924 -3.486888 " transform="matrix(2.466667, 0, 0, -2.466667, 190.848472, 43.016198)"/>
<path fill="none" stroke-width="0.3487" stroke-linecap="round" stroke-linejoin="miter" stroke="rgb(0%, 0%, 0%)" stroke-opacity="1" stroke-miterlimit="10" d="M 167.246819 -3.486888 L 167.246819 3.485769 Z M 167.246819 -3.486888 " transform="matrix(2.466667, 0, 0, -2.466667, 190.848472, 43.016198)"/>
<path fill-rule="nonzero" fill="rgb(0%, 0%, 0%)" fill-opacity="1" d="M 207.71875 20.53125 C 207.71875 18.644531 207.488281 17.257812 206.71875 16.0625 C 206.179688 15.292969 205.097656 14.597656 203.75 14.597656 C 199.742188 14.597656 199.742188 19.300781 199.742188 20.53125 C 199.742188 21.765625 199.742188 26.351562 203.75 26.351562 C 207.71875 26.351562 207.71875 21.765625 207.71875 20.53125 Z M 203.75 25.851562 C 202.941406 25.851562 201.898438 25.390625 201.554688 24 C 201.320312 23 201.320312 21.574219 201.320312 20.300781 C 201.320312 19.03125 201.320312 17.71875 201.554688 16.792969 C 201.9375 15.445312 203.019531 15.058594 203.75 15.058594 C 204.675781 15.058594 205.5625 15.636719 205.871094 16.640625 C 206.140625 17.566406 206.179688 18.796875 206.179688 20.300781 C 206.179688 21.574219 206.179688 22.84375 205.945312 23.925781 C 205.601562 25.503906 204.445312 25.851562 203.75 25.851562 Z M 203.75 25.851562 "/>
<path fill-rule="nonzero" fill="rgb(0%, 0%, 0%)" fill-opacity="1" d="M 223.566406 23.5 C 223.566406 21.535156 222.449219 20.03125 221.0625 20.03125 C 219.636719 20.03125 218.289062 21.496094 218.289062 23.5 C 218.289062 25.582031 219.675781 26.96875 221.0625 26.96875 C 222.449219 26.96875 223.566406 25.429688 223.566406 23.5 Z M 221.101562 26.46875 C 220.792969 26.46875 219.519531 26.351562 219.519531 23.5 C 219.519531 20.609375 220.792969 20.53125 221.101562 20.53125 C 222.027344 20.53125 222.988281 21.765625 222.988281 23.5 C 222.988281 25.273438 222.027344 26.46875 221.101562 26.46875 Z M 221.792969 13.902344 C 221.988281 13.710938 221.988281 13.59375 221.988281 13.558594 C 221.988281 13.25 221.71875 13.132812 221.5625 13.132812 C 221.523438 13.132812 221.371094 13.132812 221.214844 13.289062 C 220.832031 13.75 219.789062 15.023438 217.59375 15.023438 C 216.359375 15.023438 215.164062 14.636719 213.933594 13.632812 C 213.507812 13.289062 213.121094 13.132812 212.621094 13.132812 C 211.195312 13.132812 209.847656 14.558594 209.847656 16.5625 C 209.847656 18.644531 211.234375 20.03125 212.621094 20.03125 C 214.007812 20.03125 215.125 18.527344 215.125 16.601562 C 215.125 16.253906 215.089844 15.523438 214.78125 14.789062 C 215.820312 15.328125 216.785156 15.484375 217.632812 15.484375 C 218.441406 15.484375 219.210938 15.328125 219.90625 14.984375 L 219.945312 15.023438 L 211.621094 26.160156 C 211.503906 26.351562 211.425781 26.390625 211.425781 26.546875 C 211.425781 26.816406 211.621094 26.96875 211.851562 26.96875 C 212.082031 26.96875 212.160156 26.816406 212.273438 26.699219 Z M 212.660156 19.570312 C 212.351562 19.570312 211.078125 19.453125 211.078125 16.601562 C 211.078125 13.710938 212.351562 13.59375 212.660156 13.59375 C 213.585938 13.59375 214.546875 14.828125 214.546875 16.5625 C 214.546875 18.375 213.585938 19.570312 212.660156 19.570312 Z M 212.660156 19.570312 "/>
<path fill-rule="nonzero" fill="rgb(0%, 0%, 0%)" fill-opacity="1" d="M 280.941406 22.882812 L 280.363281 22.882812 C 280.324219 23.269531 280.132812 24.273438 279.902344 24.425781 C 279.785156 24.542969 278.476562 24.542969 278.207031 24.542969 L 275.046875 24.542969 C 276.855469 22.960938 277.472656 22.460938 278.476562 21.652344 C 279.746094 20.648438 280.941406 19.570312 280.941406 17.949219 C 280.941406 15.871094 279.132812 14.597656 276.933594 14.597656 C 274.8125 14.597656 273.351562 16.101562 273.351562 17.679688 C 273.351562 18.527344 274.082031 18.644531 274.273438 18.644531 C 274.660156 18.644531 275.160156 18.335938 275.160156 17.71875 C 275.160156 17.410156 275.046875 16.792969 274.160156 16.792969 C 274.699219 15.601562 275.855469 15.214844 276.664062 15.214844 C 278.398438 15.214844 279.285156 16.5625 279.285156 17.949219 C 279.285156 19.453125 278.207031 20.609375 277.667969 21.226562 L 273.542969 25.351562 C 273.351562 25.503906 273.351562 25.542969 273.351562 26.007812 L 280.441406 26.007812 Z M 280.941406 22.882812 "/>
<path fill-rule="nonzero" fill="rgb(0%, 0%, 0%)" fill-opacity="1" d="M 290.933594 20.53125 C 290.933594 18.644531 290.699219 17.257812 289.929688 16.0625 C 289.390625 15.292969 288.3125 14.597656 286.960938 14.597656 C 282.953125 14.597656 282.953125 19.300781 282.953125 20.53125 C 282.953125 21.765625 282.953125 26.351562 286.960938 26.351562 C 290.933594 26.351562 290.933594 21.765625 290.933594 20.53125 Z M 286.960938 25.851562 C 286.152344 25.851562 285.113281 25.390625 284.765625 24 C 284.535156 23 284.535156 21.574219 284.535156 20.300781 C 284.535156 19.03125 284.535156 17.71875 284.765625 16.792969 C 285.152344 15.445312 286.230469 15.058594 286.960938 15.058594 C 287.886719 15.058594 288.773438 15.636719 289.082031 16.640625 C 289.351562 17.566406 289.390625 18.796875 289.390625 20.300781 C 289.390625 21.574219 289.390625 22.84375 289.160156 23.925781 C 288.8125 25.503906 287.65625 25.851562 286.960938 25.851562 Z M 286.960938 25.851562 "/>
<path fill-rule="nonzero" fill="rgb(0%, 0%, 0%)" fill-opacity="1" d="M 306.78125 23.5 C 306.78125 21.535156 305.660156 20.03125 304.273438 20.03125 C 302.847656 20.03125 301.5 21.496094 301.5 23.5 C 301.5 25.582031 302.886719 26.96875 304.273438 26.96875 C 305.660156 26.96875 306.78125 25.429688 306.78125 23.5 Z M 304.3125 26.46875 C 304.003906 26.46875 302.734375 26.351562 302.734375 23.5 C 302.734375 20.609375 304.003906 20.53125 304.3125 20.53125 C 305.238281 20.53125 306.203125 21.765625 306.203125 23.5 C 306.203125 25.273438 305.238281 26.46875 304.3125 26.46875 Z M 305.007812 13.902344 C 305.199219 13.710938 305.199219 13.59375 305.199219 13.558594 C 305.199219 13.25 304.929688 13.132812 304.773438 13.132812 C 304.738281 13.132812 304.582031 13.132812 304.429688 13.289062 C 304.042969 13.75 303.003906 15.023438 300.804688 15.023438 C 299.570312 15.023438 298.378906 14.636719 297.144531 13.632812 C 296.71875 13.289062 296.335938 13.132812 295.832031 13.132812 C 294.40625 13.132812 293.058594 14.558594 293.058594 16.5625 C 293.058594 18.644531 294.445312 20.03125 295.832031 20.03125 C 297.222656 20.03125 298.339844 18.527344 298.339844 16.601562 C 298.339844 16.253906 298.300781 15.523438 297.992188 14.789062 C 299.03125 15.328125 299.996094 15.484375 300.84375 15.484375 C 301.652344 15.484375 302.425781 15.328125 303.117188 14.984375 L 303.15625 15.023438 L 294.832031 26.160156 C 294.714844 26.351562 294.640625 26.390625 294.640625 26.546875 C 294.640625 26.816406 294.832031 26.96875 295.0625 26.96875 C 295.292969 26.96875 295.371094 26.816406 295.488281 26.699219 Z M 295.871094 19.570312 C 295.5625 19.570312 294.292969 19.453125 294.292969 16.601562 C 294.292969 13.710938 295.5625 13.59375 295.871094 13.59375 C 296.796875 13.59375 297.761719 14.828125 297.761719 16.5625 C 297.761719 18.375 296.796875 19.570312 295.871094 19.570312 Z M 295.871094 19.570312 "/>
<path fill-rule="nonzero" fill="rgb(0%, 0%, 0%)" fill-opacity="1" d="M 359.679688 23.191406 L 359.679688 22.574219 L 357.75 22.574219 L 357.75 14.90625 C 357.75 14.558594 357.75 14.40625 357.402344 14.40625 C 357.171875 14.40625 357.097656 14.40625 356.941406 14.675781 L 351.238281 22.574219 L 351.238281 23.191406 L 356.324219 23.191406 L 356.324219 24.578125 C 356.324219 25.195312 356.324219 25.390625 354.898438 25.390625 L 354.4375 25.390625 L 354.4375 26.007812 C 355.324219 25.96875 356.402344 25.929688 357.019531 25.929688 C 357.675781 25.929688 358.753906 25.96875 359.640625 26.007812 L 359.640625 25.390625 L 359.175781 25.390625 C 357.75 25.390625 357.75 25.195312 357.75 24.578125 L 357.75 23.191406 Z M 356.441406 16.292969 L 356.441406 22.574219 L 351.894531 22.574219 Z M 356.441406 16.292969 "/>
<path fill-rule="nonzero" fill="rgb(0%, 0%, 0%)" fill-opacity="1" d="M 369.242188 20.53125 C 369.242188 18.644531 369.011719 17.257812 368.242188 16.0625 C 367.703125 15.292969 366.621094 14.597656 365.273438 14.597656 C 361.265625 14.597656 361.265625 19.300781 361.265625 20.53125 C 361.265625 21.765625 361.265625 26.351562 365.273438 26.351562 C 369.242188 26.351562 369.242188 21.765625 369.242188 20.53125 Z M 365.273438 25.851562 C 364.464844 25.851562 363.421875 25.390625 363.078125 24 C 362.84375 23 362.84375 21.574219 362.84375 20.300781 C 362.84375 19.03125 362.84375 17.71875 363.078125 16.792969 C 363.460938 15.445312 364.542969 15.058594 365.273438 15.058594 C 366.199219 15.058594 367.085938 15.636719 367.394531 16.640625 C 367.664062 17.566406 367.703125 18.796875 367.703125 20.300781 C 367.703125 21.574219 367.703125 22.84375 367.46875 23.925781 C 367.125 25.503906 365.96875 25.851562 365.273438 25.851562 Z M 365.273438 25.851562 "/>
<path fill-rule="nonzero" fill="rgb(0%, 0%, 0%)" fill-opacity="1" d="M 385.089844 23.5 C 385.089844 21.535156 383.972656 20.03125 382.585938 20.03125 C 381.160156 20.03125 379.8125 21.496094 379.8125 23.5 C 379.8125 25.582031 381.199219 26.96875 382.585938 26.96875 C 383.972656 26.96875 385.089844 25.429688 385.089844 23.5 Z M 382.625 26.46875 C 382.316406 26.46875 381.042969 26.351562 381.042969 23.5 C 381.042969 20.609375 382.316406 20.53125 382.625 20.53125 C 383.550781 20.53125 384.511719 21.765625 384.511719 23.5 C 384.511719 25.273438 383.550781 26.46875 382.625 26.46875 Z M 383.316406 13.902344 C 383.511719 13.710938 383.511719 13.59375 383.511719 13.558594 C 383.511719 13.25 383.242188 13.132812 383.085938 13.132812 C 383.046875 13.132812 382.894531 13.132812 382.738281 13.289062 C 382.355469 13.75 381.3125 15.023438 379.117188 15.023438 C 377.882812 15.023438 376.6875 14.636719 375.457031 13.632812 C 375.03125 13.289062 374.644531 13.132812 374.144531 13.132812 C 372.71875 13.132812 371.371094 14.558594 371.371094 16.5625 C 371.371094 18.644531 372.757812 20.03125 374.144531 20.03125 C 375.53125 20.03125 376.652344 18.527344 376.652344 16.601562 C 376.652344 16.253906 376.613281 15.523438 376.304688 14.789062 C 377.34375 15.328125 378.308594 15.484375 379.15625 15.484375 C 379.964844 15.484375 380.734375 15.328125 381.429688 14.984375 L 381.46875 15.023438 L 373.144531 26.160156 C 373.027344 26.351562 372.949219 26.390625 372.949219 26.546875 C 372.949219 26.816406 373.144531 26.96875 373.375 26.96875 C 373.605469 26.96875 373.683594 26.816406 373.796875 26.699219 Z M 374.183594 19.570312 C 373.875 19.570312 372.605469 19.453125 372.605469 16.601562 C 372.605469 13.710938 373.875 13.59375 374.183594 13.59375 C 375.109375 13.59375 376.074219 14.828125 376.074219 16.5625 C 376.074219 18.375 375.109375 19.570312 374.183594 19.570312 Z M 374.183594 19.570312 "/>
<path fill-rule="nonzero" fill="rgb(0%, 0%, 0%)" fill-opacity="1" d="M 431.476562 20.378906 C 431.476562 18.992188 431.59375 17.71875 432.246094 16.640625 C 432.824219 15.714844 433.75 15.097656 434.867188 15.097656 C 435.371094 15.097656 436.0625 15.214844 436.410156 15.675781 C 435.984375 15.714844 435.601562 16.023438 435.601562 16.523438 C 435.601562 16.949219 435.910156 17.335938 436.410156 17.335938 C 436.949219 17.335938 437.257812 16.988281 437.257812 16.484375 C 437.257812 15.484375 436.527344 14.597656 434.828125 14.597656 C 432.363281 14.597656 429.820312 16.871094 429.820312 20.570312 C 429.820312 25.003906 431.902344 26.351562 433.828125 26.351562 C 435.910156 26.351562 437.71875 24.734375 437.71875 22.5 C 437.71875 20.300781 435.984375 18.683594 433.980469 18.683594 C 432.59375 18.683594 431.863281 19.609375 431.476562 20.378906 Z M 433.828125 25.8125 C 432.941406 25.8125 432.285156 25.3125 431.902344 24.542969 C 431.667969 24.039062 431.515625 23.152344 431.515625 22.152344 C 431.515625 20.457031 432.515625 19.183594 433.90625 19.183594 C 434.675781 19.183594 435.214844 19.492188 435.640625 20.109375 C 436.0625 20.765625 436.0625 21.496094 436.0625 22.5 C 436.0625 23.460938 436.0625 24.195312 435.601562 24.886719 C 435.214844 25.464844 434.636719 25.8125 433.828125 25.8125 Z M 433.828125 25.8125 "/>
<path fill-rule="nonzero" fill="rgb(0%, 0%, 0%)" fill-opacity="1" d="M 447.554688 20.53125 C 447.554688 18.644531 447.324219 17.257812 446.554688 16.0625 C 446.011719 15.292969 444.933594 14.597656 443.585938 14.597656 C 439.578125 14.597656 439.578125 19.300781 439.578125 20.53125 C 439.578125 21.765625 439.578125 26.351562 443.585938 26.351562 C 447.554688 26.351562 447.554688 21.765625 447.554688 20.53125 Z M 443.585938 25.851562 C 442.777344 25.851562 441.734375 25.390625 441.386719 24 C 441.15625 23 441.15625 21.574219 441.15625 20.300781 C 441.15625 19.03125 441.15625 17.71875 441.386719 16.792969 C 441.773438 15.445312 442.851562 15.058594 443.585938 15.058594 C 444.511719 15.058594 445.398438 15.636719 445.707031 16.640625 C 445.976562 17.566406 446.011719 18.796875 446.011719 20.300781 C 446.011719 21.574219 446.011719 22.84375 445.78125 23.925781 C 445.433594 25.503906 444.277344 25.851562 443.585938 25.851562 Z M 443.585938 25.851562 "/>
<path fill-rule="nonzero" fill="rgb(0%, 0%, 0%)" fill-opacity="1" d="M 463.402344 23.5 C 463.402344 21.535156 462.285156 20.03125 460.898438 20.03125 C 459.472656 20.03125 458.121094 21.496094 458.121094 23.5 C 458.121094 25.582031 459.511719 26.96875 460.898438 26.96875 C 462.285156 26.96875 463.402344 25.429688 463.402344 23.5 Z M 460.9375 26.46875 C 460.628906 26.46875 459.355469 26.351562 459.355469 23.5 C 459.355469 20.609375 460.628906 20.53125 460.9375 20.53125 C 461.859375 20.53125 462.824219 21.765625 462.824219 23.5 C 462.824219 25.273438 461.859375 26.46875 460.9375 26.46875 Z M 461.628906 13.902344 C 461.824219 13.710938 461.824219 13.59375 461.824219 13.558594 C 461.824219 13.25 461.554688 13.132812 461.398438 13.132812 C 461.359375 13.132812 461.207031 13.132812 461.050781 13.289062 C 460.667969 13.75 459.625 15.023438 457.429688 15.023438 C 456.195312 15.023438 455 14.636719 453.765625 13.632812 C 453.34375 13.289062 452.957031 13.132812 452.457031 13.132812 C 451.03125 13.132812 449.683594 14.558594 449.683594 16.5625 C 449.683594 18.644531 451.070312 20.03125 452.457031 20.03125 C 453.84375 20.03125 454.960938 18.527344 454.960938 16.601562 C 454.960938 16.253906 454.921875 15.523438 454.617188 14.789062 C 455.65625 15.328125 456.621094 15.484375 457.46875 15.484375 C 458.277344 15.484375 459.046875 15.328125 459.742188 14.984375 L 459.78125 15.023438 L 451.453125 26.160156 C 451.339844 26.351562 451.261719 26.390625 451.261719 26.546875 C 451.261719 26.816406 451.453125 26.96875 451.6875 26.96875 C 451.917969 26.96875 451.996094 26.816406 452.109375 26.699219 Z M 452.496094 19.570312 C 452.1875 19.570312 450.914062 19.453125 450.914062 16.601562 C 450.914062 13.710938 452.1875 13.59375 452.496094 13.59375 C 453.421875 13.59375 454.382812 14.828125 454.382812 16.5625 C 454.382812 18.375 453.421875 19.570312 452.496094 19.570312 Z M 452.496094 19.570312 "/>
<path fill-rule="nonzero" fill="rgb(0%, 0%, 0%)" fill-opacity="1" d="M 513.296875 19.800781 C 514.644531 19.144531 515.492188 18.335938 515.492188 17.140625 C 515.492188 15.484375 513.757812 14.597656 512.101562 14.597656 C 510.210938 14.597656 508.671875 15.832031 508.671875 17.449219 C 508.671875 18.257812 509.054688 18.835938 509.363281 19.183594 C 509.671875 19.570312 509.789062 19.648438 510.789062 20.226562 C 509.828125 20.648438 508.128906 21.574219 508.128906 23.386719 C 508.128906 25.273438 510.097656 26.351562 512.0625 26.351562 C 514.257812 26.351562 516.03125 24.964844 516.03125 23.117188 C 516.03125 21.960938 515.375 20.996094 514.375 20.417969 C 514.144531 20.261719 513.566406 19.953125 513.296875 19.800781 Z M 510.519531 18.183594 C 510.058594 17.914062 509.59375 17.449219 509.59375 16.792969 C 509.59375 15.714844 510.828125 15.097656 512.0625 15.097656 C 513.410156 15.097656 514.605469 15.945312 514.605469 17.140625 C 514.605469 18.683594 512.792969 19.453125 512.792969 19.453125 C 512.753906 19.453125 512.71875 19.453125 512.601562 19.375 Z M 511.328125 20.570312 L 513.71875 21.921875 C 514.144531 22.191406 514.992188 22.691406 514.992188 23.695312 C 514.992188 25.003906 513.566406 25.8125 512.101562 25.8125 C 510.519531 25.8125 509.171875 24.773438 509.171875 23.386719 C 509.171875 22.113281 510.097656 21.109375 511.328125 20.570312 Z M 511.328125 20.570312 "/>
<path fill-rule="nonzero" fill="rgb(0%, 0%, 0%)" fill-opacity="1" d="M 525.867188 20.53125 C 525.867188 18.644531 525.636719 17.257812 524.863281 16.0625 C 524.324219 15.292969 523.246094 14.597656 521.898438 14.597656 C 517.890625 14.597656 517.890625 19.300781 517.890625 20.53125 C 517.890625 21.765625 517.890625 26.351562 521.898438 26.351562 C 525.867188 26.351562 525.867188 21.765625 525.867188 20.53125 Z M 521.898438 25.851562 C 521.085938 25.851562 520.046875 25.390625 519.699219 24 C 519.46875 23 519.46875 21.574219 519.46875 20.300781 C 519.46875 19.03125 519.46875 17.71875 519.699219 16.792969 C 520.085938 15.445312 521.164062 15.058594 521.898438 15.058594 C 522.820312 15.058594 523.707031 15.636719 524.015625 16.640625 C 524.285156 17.566406 524.324219 18.796875 524.324219 20.300781 C 524.324219 21.574219 524.324219 22.84375 524.09375 23.925781 C 523.746094 25.503906 522.589844 25.851562 521.898438 25.851562 Z M 521.898438 25.851562 "/>
<path fill-rule="nonzero" fill="rgb(0%, 0%, 0%)" fill-opacity="1" d="M 541.714844 23.5 C 541.714844 21.535156 540.597656 20.03125 539.210938 20.03125 C 537.785156 20.03125 536.433594 21.496094 536.433594 23.5 C 536.433594 25.582031 537.820312 26.96875 539.210938 26.96875 C 540.597656 26.96875 541.714844 25.429688 541.714844 23.5 Z M 539.246094 26.46875 C 538.941406 26.46875 537.667969 26.351562 537.667969 23.5 C 537.667969 20.609375 538.941406 20.53125 539.246094 20.53125 C 540.171875 20.53125 541.136719 21.765625 541.136719 23.5 C 541.136719 25.273438 540.171875 26.46875 539.246094 26.46875 Z M 539.941406 13.902344 C 540.132812 13.710938 540.132812 13.59375 540.132812 13.558594 C 540.132812 13.25 539.863281 13.132812 539.710938 13.132812 C 539.671875 13.132812 539.519531 13.132812 539.363281 13.289062 C 538.976562 13.75 537.9375 15.023438 535.742188 15.023438 C 534.507812 15.023438 533.3125 14.636719 532.078125 13.632812 C 531.65625 13.289062 531.269531 13.132812 530.769531 13.132812 C 529.34375 13.132812 527.992188 14.558594 527.992188 16.5625 C 527.992188 18.644531 529.382812 20.03125 530.769531 20.03125 C 532.15625 20.03125 533.273438 18.527344 533.273438 16.601562 C 533.273438 16.253906 533.234375 15.523438 532.925781 14.789062 C 533.96875 15.328125 534.929688 15.484375 535.777344 15.484375 C 536.589844 15.484375 537.359375 15.328125 538.054688 14.984375 L 538.089844 15.023438 L 529.765625 26.160156 C 529.652344 26.351562 529.574219 26.390625 529.574219 26.546875 C 529.574219 26.816406 529.765625 26.96875 529.996094 26.96875 C 530.230469 26.96875 530.304688 26.816406 530.421875 26.699219 Z M 530.808594 19.570312 C 530.5 19.570312 529.226562 19.453125 529.226562 16.601562 C 529.226562 13.710938 530.5 13.59375 530.808594 13.59375 C 531.730469 13.59375 532.695312 14.828125 532.695312 16.5625 C 532.695312 18.375 531.730469 19.570312 530.808594 19.570312 Z M 530.808594 19.570312 "/>
<path fill-rule="nonzero" fill="rgb(0%, 0%, 0%)" fill-opacity="1" d="M 586.363281 15.058594 C 586.363281 14.597656 586.363281 14.597656 585.859375 14.597656 C 584.742188 15.675781 583.199219 15.675781 582.507812 15.675781 L 582.507812 16.292969 C 582.894531 16.292969 584.050781 16.292969 584.972656 15.832031 L 584.972656 24.578125 C 584.972656 25.15625 584.972656 25.390625 583.277344 25.390625 L 582.621094 25.390625 L 582.621094 26.007812 C 582.929688 26.007812 585.050781 25.929688 585.667969 25.929688 C 586.207031 25.929688 588.367188 26.007812 588.75 26.007812 L 588.75 25.390625 L 588.097656 25.390625 C 586.363281 25.390625 586.363281 25.15625 586.363281 24.578125 Z M 586.363281 15.058594 "/>
<path fill-rule="nonzero" fill="rgb(0%, 0%, 0%)" fill-opacity="1" d="M 599.28125 20.53125 C 599.28125 18.644531 599.046875 17.257812 598.277344 16.0625 C 597.738281 15.292969 596.660156 14.597656 595.308594 14.597656 C 591.300781 14.597656 591.300781 19.300781 591.300781 20.53125 C 591.300781 21.765625 591.300781 26.351562 595.308594 26.351562 C 599.28125 26.351562 599.28125 21.765625 599.28125 20.53125 Z M 595.308594 25.851562 C 594.5 25.851562 593.460938 25.390625 593.113281 24 C 592.882812 23 592.882812 21.574219 592.882812 20.300781 C 592.882812 19.03125 592.882812 17.71875 593.113281 16.792969 C 593.5 15.445312 594.578125 15.058594 595.308594 15.058594 C 596.234375 15.058594 597.121094 15.636719 597.429688 16.640625 C 597.699219 17.566406 597.738281 18.796875 597.738281 20.300781 C 597.738281 21.574219 597.738281 22.84375 597.507812 23.925781 C 597.160156 25.503906 596.003906 25.851562 595.308594 25.851562 Z M 595.308594 25.851562 "/>
<path fill-rule="nonzero" fill="rgb(0%, 0%, 0%)" fill-opacity="1" d="M 609.078125 20.53125 C 609.078125 18.644531 608.84375 17.257812 608.074219 16.0625 C 607.535156 15.292969 606.457031 14.597656 605.105469 14.597656 C 601.097656 14.597656 601.097656 19.300781 601.097656 20.53125 C 601.097656 21.765625 601.097656 26.351562 605.105469 26.351562 C 609.078125 26.351562 609.078125 21.765625 609.078125 20.53125 Z M 605.105469 25.851562 C 604.296875 25.851562 603.257812 25.390625 602.910156 24 C 602.679688 23 602.679688 21.574219 602.679688 20.300781 C 602.679688 19.03125 602.679688 17.71875 602.910156 16.792969 C 603.296875 15.445312 604.375 15.058594 605.105469 15.058594 C 606.03125 15.058594 606.917969 15.636719 607.226562 16.640625 C 607.496094 17.566406 607.535156 18.796875 607.535156 20.300781 C 607.535156 21.574219 607.535156 22.84375 607.304688 23.925781 C 606.957031 25.503906 605.800781 25.851562 605.105469 25.851562 Z M 605.105469 25.851562 "/>
<path fill-rule="nonzero" fill="rgb(0%, 0%, 0%)" fill-opacity="1" d="M 624.925781 23.5 C 624.925781 21.535156 623.804688 20.03125 622.417969 20.03125 C 620.992188 20.03125 619.644531 21.496094 619.644531 23.5 C 619.644531 25.582031 621.03125 26.96875 622.417969 26.96875 C 623.804688 26.96875 624.925781 25.429688 624.925781 23.5 Z M 622.457031 26.46875 C 622.148438 26.46875 620.878906 26.351562 620.878906 23.5 C 620.878906 20.609375 622.148438 20.53125 622.457031 20.53125 C 623.382812 20.53125 624.347656 21.765625 624.347656 23.5 C 624.347656 25.273438 623.382812 26.46875 622.457031 26.46875 Z M 623.152344 13.902344 C 623.34375 13.710938 623.34375 13.59375 623.34375 13.558594 C 623.34375 13.25 623.074219 13.132812 622.921875 13.132812 C 622.882812 13.132812 622.726562 13.132812 622.574219 13.289062 C 622.1875 13.75 621.148438 15.023438 618.949219 15.023438 C 617.71875 15.023438 616.523438 14.636719 615.289062 13.632812 C 614.863281 13.289062 614.480469 13.132812 613.976562 13.132812 C 612.550781 13.132812 611.203125 14.558594 611.203125 16.5625 C 611.203125 18.644531 612.589844 20.03125 613.976562 20.03125 C 615.367188 20.03125 616.484375 18.527344 616.484375 16.601562 C 616.484375 16.253906 616.445312 15.523438 616.136719 14.789062 C 617.175781 15.328125 618.140625 15.484375 618.988281 15.484375 C 619.796875 15.484375 620.570312 15.328125 621.261719 14.984375 L 621.300781 15.023438 L 612.976562 26.160156 C 612.859375 26.351562 612.785156 26.390625 612.785156 26.546875 C 612.785156 26.816406 612.976562 26.96875 613.207031 26.96875 C 613.4375 26.96875 613.515625 26.816406 613.632812 26.699219 Z M 614.015625 19.570312 C 613.707031 19.570312 612.4375 19.453125 612.4375 16.601562 C 612.4375 13.710938 613.707031 13.59375 614.015625 13.59375 C 614.941406 13.59375 615.90625 14.828125 615.90625 16.5625 C 615.90625 18.375 614.941406 19.570312 614.015625 19.570312 Z M 614.015625 19.570312 "/>
</svg>
