<?xml version="1.0" encoding="UTF-8"?>
<svg xmlns="http://www.w3.org/2000/svg" xmlns:xlink="http://www.w3.org/1999/xlink" width="606.464529" height="158.463592" viewBox="0 0 606.464529 158.463592">
<defs>
<clipPath id="clip-0">
<path clip-rule="nonzero" d="M 422 0 L 518 0 L 518 158.464844 L 422 158.464844 Z M 422 0 "/>
</clipPath>
</defs>
<path fill="none" stroke-width="0.3985" stroke-linecap="butt" stroke-linejoin="miter" stroke="rgb(0%, 0%, 0%)" stroke-opacity="1" stroke-miterlimit="10" d="M 0.000290123 -0.000589268 L 176.593935 -0.000589268 " transform="matrix(2.466667, 0, 0, -2.466667, 157.800066, 47.490734)"/>
<path fill-rule="nonzero" fill="rgb(0%, 0%, 0%)" fill-opacity="1" d="M 598.3125 47.492188 L 590.449219 43.5625 L 593.398438 47.492188 L 590.449219 51.425781 "/>
<path fill-rule="nonzero" fill="rgb(0%, 0%, 0%)" fill-opacity="1" d="M 15.996094 48.277344 C 15.996094 44.265625 18 43.226562 19.3125 43.226562 C 19.542969 43.226562 21.082031 43.265625 21.929688 44.152344 C 20.929688 44.230469 20.773438 44.960938 20.773438 45.269531 C 20.773438 45.925781 21.238281 46.386719 21.894531 46.386719 C 22.546875 46.386719 23.050781 46 23.050781 45.230469 C 23.050781 43.574219 21.160156 42.609375 19.273438 42.609375 C 16.1875 42.609375 13.953125 45.269531 13.953125 48.3125 C 13.953125 51.472656 16.382812 53.902344 19.234375 53.902344 C 22.507812 53.902344 23.320312 50.933594 23.320312 50.703125 C 23.320312 50.472656 23.050781 50.472656 22.972656 50.472656 C 22.78125 50.472656 22.703125 50.550781 22.664062 50.703125 C 21.96875 52.976562 20.351562 53.285156 19.464844 53.285156 C 18.15625 53.285156 15.996094 52.246094 15.996094 48.277344 Z M 15.996094 48.277344 "/>
<path fill-rule="nonzero" fill="rgb(0%, 0%, 0%)" fill-opacity="1" d="M 32.195312 51.78125 C 32.3125 52.746094 32.96875 53.785156 34.125 53.785156 C 34.664062 53.785156 36.167969 53.441406 36.167969 51.4375 L 36.167969 50.046875 L 35.550781 50.046875 L 35.550781 51.4375 C 35.550781 52.863281 34.933594 53.015625 34.664062 53.015625 C 33.855469 53.015625 33.738281 51.898438 33.738281 51.78125 L 33.738281 46.886719 C 33.738281 45.847656 33.738281 44.882812 32.851562 43.957031 C 31.890625 42.996094 30.65625 42.609375 29.5 42.609375 C 27.457031 42.609375 25.761719 43.765625 25.761719 45.386719 C 25.761719 46.117188 26.261719 46.542969 26.917969 46.542969 C 27.609375 46.542969 28.035156 46.039062 28.035156 45.421875 C 28.035156 45.113281 27.917969 44.304688 26.761719 44.304688 C 27.457031 43.417969 28.652344 43.148438 29.421875 43.148438 C 30.65625 43.148438 32.042969 44.113281 32.042969 46.308594 L 32.042969 47.195312 C 30.769531 47.273438 29.074219 47.351562 27.535156 48.082031 C 25.683594 48.929688 25.066406 50.203125 25.066406 51.28125 C 25.066406 53.285156 27.457031 53.902344 29 53.902344 C 30.617188 53.902344 31.734375 52.902344 32.195312 51.78125 Z M 32.042969 47.734375 L 32.042969 50.203125 C 32.042969 52.515625 30.269531 53.363281 29.152344 53.363281 C 27.957031 53.363281 26.957031 52.515625 26.957031 51.28125 C 26.957031 49.933594 27.996094 47.890625 32.042969 47.734375 Z M 32.042969 47.734375 "/>
<path fill-rule="nonzero" fill="rgb(0%, 0%, 0%)" fill-opacity="1" d="M 40.667969 36.558594 L 37.121094 36.828125 L 37.121094 37.597656 C 38.855469 37.597656 39.050781 37.753906 39.050781 38.988281 L 39.050781 51.78125 C 39.050781 52.863281 38.78125 52.863281 37.121094 52.863281 L 37.121094 53.632812 C 37.933594 53.59375 39.242188 53.554688 39.859375 53.554688 C 40.476562 53.554688 41.671875 53.59375 42.597656 53.632812 L 42.597656 52.863281 C 40.9375 52.863281 40.667969 52.863281 40.667969 51.78125 Z M 40.667969 36.558594 "/>
<path fill-rule="nonzero" fill="rgb(0%, 0%, 0%)" fill-opacity="1" d="M 46.03125 48.277344 C 46.03125 44.265625 48.035156 43.226562 49.34375 43.226562 C 49.578125 43.226562 51.117188 43.265625 51.964844 44.152344 C 50.964844 44.230469 50.808594 44.960938 50.808594 45.269531 C 50.808594 45.925781 51.273438 46.386719 51.929688 46.386719 C 52.582031 46.386719 53.085938 46 53.085938 45.230469 C 53.085938 43.574219 51.195312 42.609375 49.308594 42.609375 C 46.222656 42.609375 43.988281 45.269531 43.988281 48.3125 C 43.988281 51.472656 46.417969 53.902344 49.269531 53.902344 C 52.542969 53.902344 53.355469 50.933594 53.355469 50.703125 C 53.355469 50.472656 53.085938 50.472656 53.007812 50.472656 C 52.8125 50.472656 52.738281 50.550781 52.699219 50.703125 C 52.003906 52.976562 50.386719 53.285156 49.5 53.285156 C 48.1875 53.285156 46.03125 52.246094 46.03125 48.277344 Z M 46.03125 48.277344 "/>
<path fill-rule="nonzero" fill="rgb(0%, 0%, 0%)" fill-opacity="1" d="M 58.417969 42.765625 L 54.984375 43.035156 L 54.984375 43.804688 C 56.566406 43.804688 56.796875 43.957031 56.796875 45.152344 L 56.796875 51.78125 C 56.796875 52.863281 56.527344 52.863281 54.871094 52.863281 L 54.871094 53.632812 C 55.640625 53.59375 56.992188 53.554688 57.570312 53.554688 C 58.453125 53.554688 59.304688 53.59375 60.152344 53.632812 L 60.152344 52.863281 C 58.492188 52.863281 58.417969 52.746094 58.417969 51.78125 Z M 58.492188 38.484375 C 58.492188 37.714844 57.914062 37.175781 57.222656 37.175781 C 56.449219 37.175781 55.910156 37.832031 55.910156 38.484375 C 55.910156 39.140625 56.449219 39.796875 57.222656 39.796875 C 57.914062 39.796875 58.492188 39.257812 58.492188 38.484375 Z M 58.492188 38.484375 "/>
<path fill-rule="nonzero" fill="rgb(0%, 0%, 0%)" fill-opacity="1" d="M 72.449219 48.351562 C 72.449219 45.230469 70.023438 42.609375 67.054688 42.609375 C 63.972656 42.609375 61.582031 45.308594 61.582031 48.351562 C 61.582031 51.550781 64.125 53.902344 67.015625 53.902344 C 69.984375 53.902344 72.449219 51.472656 72.449219 48.351562 Z M 67.054688 53.285156 C 65.976562 53.285156 64.894531 52.785156 64.242188 51.628906 C 63.625 50.550781 63.625 49.046875 63.625 48.160156 C 63.625 47.195312 63.625 45.886719 64.203125 44.808594 C 64.859375 43.6875 66.015625 43.148438 67.015625 43.148438 C 68.09375 43.148438 69.136719 43.6875 69.789062 44.769531 C 70.445312 45.808594 70.445312 47.234375 70.445312 48.160156 C 70.445312 49.046875 70.445312 50.394531 69.90625 51.472656 C 69.328125 52.59375 68.25 53.285156 67.054688 53.285156 Z M 67.054688 53.285156 "/>
<path fill-rule="nonzero" fill="rgb(0%, 0%, 0%)" fill-opacity="1" d="M 89.492188 59.53125 C 89.492188 59.453125 89.492188 59.414062 89.066406 58.988281 C 86.023438 55.90625 85.210938 51.242188 85.210938 47.464844 C 85.210938 43.1875 86.136719 38.910156 89.183594 35.863281 C 89.492188 35.558594 89.492188 35.519531 89.492188 35.441406 C 89.492188 35.25 89.414062 35.171875 89.257812 35.171875 C 88.988281 35.171875 86.792969 36.867188 85.328125 39.988281 C 84.09375 42.6875 83.785156 45.421875 83.785156 47.464844 C 83.785156 49.394531 84.054688 52.359375 85.40625 55.175781 C 86.910156 58.179688 88.988281 59.800781 89.257812 59.800781 C 89.414062 59.800781 89.492188 59.722656 89.492188 59.53125 Z M 89.492188 59.53125 "/>
<path fill-rule="nonzero" fill="rgb(0%, 0%, 0%)" fill-opacity="1" d="M 93.613281 45.191406 L 93.613281 51.78125 C 93.613281 52.863281 93.34375 52.863281 91.6875 52.863281 L 91.6875 53.632812 C 92.574219 53.59375 93.804688 53.554688 94.5 53.554688 C 95.117188 53.554688 96.386719 53.59375 97.234375 53.632812 L 97.234375 52.863281 C 95.578125 52.863281 95.308594 52.863281 95.308594 51.78125 L 95.308594 47.234375 C 95.308594 44.691406 97.082031 43.304688 98.625 43.304688 C 100.203125 43.304688 100.472656 44.613281 100.472656 46.039062 L 100.472656 51.78125 C 100.472656 52.863281 100.203125 52.863281 98.546875 52.863281 L 98.546875 53.632812 C 99.394531 53.59375 100.667969 53.554688 101.320312 53.554688 C 101.9375 53.554688 103.25 53.59375 104.058594 53.632812 L 104.058594 52.863281 C 102.4375 52.863281 102.167969 52.863281 102.167969 51.78125 L 102.167969 47.234375 C 102.167969 44.691406 103.902344 43.304688 105.484375 43.304688 C 107.027344 43.304688 107.296875 44.613281 107.296875 46.039062 L 107.296875 51.78125 C 107.296875 52.863281 107.027344 52.863281 105.367188 52.863281 L 105.367188 53.632812 C 106.214844 53.59375 107.488281 53.554688 108.144531 53.554688 C 108.796875 53.554688 110.070312 53.59375 110.917969 53.632812 L 110.917969 52.863281 C 109.648438 52.863281 109.03125 52.863281 108.992188 52.128906 L 108.992188 47.425781 C 108.992188 45.308594 108.992188 44.574219 108.21875 43.6875 C 107.875 43.265625 107.0625 42.765625 105.636719 42.765625 C 103.59375 42.765625 102.476562 44.230469 102.09375 45.191406 C 101.746094 43.035156 99.933594 42.765625 98.816406 42.765625 C 97.003906 42.765625 95.847656 43.804688 95.15625 45.347656 L 95.15625 42.765625 L 91.6875 43.035156 L 91.6875 43.804688 C 93.421875 43.804688 93.613281 43.957031 93.613281 45.191406 Z M 93.613281 45.191406 "/>
<path fill-rule="nonzero" fill="rgb(0%, 0%, 0%)" fill-opacity="1" d="M 116.867188 49.394531 C 114.707031 49.394531 114.707031 46.925781 114.707031 46.386719 C 114.707031 45.730469 114.746094 44.921875 115.09375 44.304688 C 115.285156 44.035156 115.863281 43.34375 116.867188 43.34375 C 118.984375 43.34375 118.984375 45.769531 118.984375 46.347656 C 118.984375 47.003906 118.984375 47.8125 118.601562 48.429688 C 118.40625 48.699219 117.828125 49.394531 116.867188 49.394531 Z M 114.015625 50.355469 C 114.015625 50.28125 114.015625 49.703125 114.398438 49.199219 C 115.363281 49.894531 116.402344 49.972656 116.867188 49.972656 C 119.140625 49.972656 120.835938 48.277344 120.835938 46.386719 C 120.835938 45.460938 120.449219 44.574219 119.832031 43.996094 C 120.71875 43.148438 121.605469 43.035156 122.03125 43.035156 C 122.109375 43.035156 122.222656 43.035156 122.300781 43.074219 C 122.03125 43.148438 121.875 43.417969 121.875 43.726562 C 121.875 44.152344 122.222656 44.421875 122.609375 44.421875 C 122.839844 44.421875 123.300781 44.265625 123.300781 43.6875 C 123.300781 43.265625 123.03125 42.496094 122.070312 42.496094 C 121.566406 42.496094 120.488281 42.648438 119.449219 43.652344 C 118.40625 42.839844 117.40625 42.765625 116.867188 42.765625 C 114.554688 42.765625 112.859375 44.460938 112.859375 46.347656 C 112.859375 47.425781 113.398438 48.351562 114.015625 48.890625 C 113.707031 49.238281 113.242188 50.046875 113.242188 50.933594 C 113.242188 51.707031 113.589844 52.628906 114.359375 53.132812 C 112.859375 53.515625 112.085938 54.597656 112.085938 55.558594 C 112.085938 57.332031 114.515625 58.683594 117.519531 58.683594 C 120.410156 58.683594 122.957031 57.449219 122.957031 55.519531 C 122.957031 54.671875 122.648438 53.402344 121.375 52.707031 C 120.066406 52.050781 118.640625 52.050781 117.136719 52.050781 C 116.519531 52.050781 115.480469 52.050781 115.285156 52.015625 C 114.515625 51.898438 114.015625 51.167969 114.015625 50.355469 Z M 117.558594 58.140625 C 115.054688 58.140625 113.359375 56.871094 113.359375 55.558594 C 113.359375 54.441406 114.285156 53.515625 115.363281 53.480469 L 116.828125 53.480469 C 118.949219 53.480469 121.683594 53.480469 121.683594 55.558594 C 121.683594 56.910156 119.949219 58.140625 117.558594 58.140625 Z M 117.558594 58.140625 "/>
<path fill-rule="nonzero" fill="rgb(0%, 0%, 0%)" fill-opacity="1" d="M 130.773438 47.464844 C 130.773438 45.578125 130.503906 42.609375 129.152344 39.796875 C 127.6875 36.789062 125.570312 35.171875 125.335938 35.171875 C 125.183594 35.171875 125.066406 35.285156 125.066406 35.441406 C 125.066406 35.519531 125.066406 35.558594 125.53125 36.019531 C 127.957031 38.449219 129.347656 42.339844 129.347656 47.464844 C 129.347656 51.707031 128.460938 56.023438 125.414062 59.105469 C 125.066406 59.414062 125.066406 59.453125 125.066406 59.53125 C 125.066406 59.683594 125.183594 59.800781 125.335938 59.800781 C 125.570312 59.800781 127.804688 58.105469 129.230469 54.980469 C 130.503906 52.285156 130.773438 49.546875 130.773438 47.464844 Z M 130.773438 47.464844 "/>
<path fill="none" stroke-width="0.3487" stroke-linecap="round" stroke-linejoin="miter" stroke="rgb(0%, 0%, 0%)" stroke-opacity="1" stroke-miterlimit="10" d="M 8.504302 -3.484542 L 8.504302 3.488114 Z M 8.504302 -3.484542 " transform="matrix(2.466667, 0, 0, -2.466667, 157.800066, 47.490734)"/>
<path fill="none" stroke-width="0.3487" stroke-linecap="round" stroke-linejoin="miter" stroke="rgb(0%, 0%, 0%)" stroke-opacity="1" stroke-miterlimit="10" d="M 47.834961 -3.484542 L 47.834961 3.488114 Z M 47.834961 -3.484542 " transform="matrix(2.466667, 0, 0, -2.466667, 157.800066, 47.490734)"/>
<path fill="none" stroke-width="0.3487" stroke-linecap="round" stroke-linejoin="miter" stroke="rgb(0%, 0%, 0%)" stroke-opacity="1" stroke-miterlimit="10" d="M 87.167203 -3.484542 L 87.167203 3.488114 Z M 87.167203 -3.484542 " transform="matrix(2.466667, 0, 0, -2.466667, 157.800066, 47.490734)"/>
<path fill="none" stroke-width="0.3487" stroke-linecap="round" stroke-linejoin="miter" stroke="rgb(0%, 0%, 0%)" stroke-opacity="1" stroke-miterlimit="10" d="M 126.496278 -3.484542 L 126.496278 3.488114 Z M 126.496278 -3.484542 " transform="matrix(2.466667, 0, 0, -2.466667, 157.800066, 47.490734)"/>
<path fill="none" stroke-width="0.3487" stroke-linecap="round" stroke-linejoin="miter" stroke="rgb(0%, 0%, 0%)" stroke-opacity="1" stroke-miterlimit="10" d="M 165.828521 -3.484542 L 165.828521 3.488114 Z M 165.828521 -3.484542 " transform="matrix(2.466667, 0, 0, -2.466667, 157.800066, 47.490734)"/>
<path fill-rule="nonzero" fill="rgb(0%, 0%, 0%)" fill-opacity="1" d="M 183.578125 24.527344 C 183.578125 23.0625 183.5 21.132812 182.730469 19.476562 C 181.726562 17.394531 180.070312 16.894531 178.796875 16.894531 C 177.449219 16.894531 175.753906 17.394531 174.789062 19.554688 C 174.09375 21.058594 173.980469 22.867188 173.980469 24.527344 C 173.980469 25.992188 174.019531 28.109375 174.980469 29.882812 C 176.023438 31.734375 177.757812 32.117188 178.757812 32.117188 C 180.183594 32.117188 181.84375 31.503906 182.765625 29.460938 C 183.421875 27.957031 183.578125 26.300781 183.578125 24.527344 Z M 178.796875 31.539062 C 178.105469 31.539062 176.523438 31.230469 176.101562 28.726562 C 175.867188 27.457031 175.867188 25.527344 175.867188 24.257812 C 175.867188 22.753906 175.867188 21.019531 176.136719 19.785156 C 176.601562 17.820312 177.988281 17.433594 178.757812 17.433594 C 179.605469 17.433594 180.996094 17.898438 181.417969 19.941406 C 181.648438 21.132812 181.648438 22.867188 181.648438 24.257812 C 181.648438 25.644531 181.648438 27.492188 181.417969 28.804688 C 180.957031 31.347656 179.335938 31.539062 178.796875 31.539062 Z M 178.796875 31.539062 "/>
<path fill-rule="nonzero" fill="rgb(0%, 0%, 0%)" fill-opacity="1" d="M 265.488281 23.832031 C 267.53125 23.0625 268.53125 21.441406 268.53125 19.902344 C 268.53125 18.207031 266.644531 16.894531 264.332031 16.894531 C 262.058594 16.894531 260.324219 18.207031 260.324219 19.863281 C 260.324219 20.59375 260.785156 21.019531 261.441406 21.019531 C 262.097656 21.019531 262.558594 20.554688 262.558594 19.902344 C 262.558594 19.128906 262.019531 18.820312 261.25 18.820312 C 261.828125 17.898438 263.175781 17.433594 264.292969 17.433594 C 266.105469 17.433594 266.453125 18.898438 266.453125 19.941406 C 266.453125 20.59375 266.335938 21.675781 265.796875 22.523438 C 265.101562 23.484375 264.332031 23.523438 263.675781 23.601562 C 263.136719 23.640625 263.097656 23.640625 262.90625 23.640625 C 262.714844 23.640625 262.519531 23.679688 262.519531 23.910156 C 262.519531 24.21875 262.714844 24.21875 263.097656 24.21875 L 264.101562 24.21875 C 266.027344 24.21875 266.875 25.757812 266.875 27.839844 C 266.875 30.691406 265.371094 31.503906 264.253906 31.503906 C 263.832031 31.503906 261.671875 31.386719 260.710938 29.730469 C 261.480469 29.84375 262.097656 29.304688 262.097656 28.535156 C 262.097656 27.800781 261.558594 27.339844 260.902344 27.339844 C 260.363281 27.339844 259.707031 27.6875 259.707031 28.613281 C 259.707031 30.578125 261.75 32.117188 264.332031 32.117188 C 267.070312 32.117188 269.148438 30.113281 269.148438 27.839844 C 269.148438 25.914062 267.609375 24.292969 265.488281 23.832031 Z M 265.488281 23.832031 "/>
<path fill-rule="nonzero" fill="rgb(0%, 0%, 0%)" fill-opacity="1" d="M 280.59375 24.527344 C 280.59375 23.0625 280.515625 21.132812 279.746094 19.476562 C 278.742188 17.394531 277.085938 16.894531 275.8125 16.894531 C 274.464844 16.894531 272.769531 17.394531 271.804688 19.554688 C 271.113281 21.058594 270.996094 22.867188 270.996094 24.527344 C 270.996094 25.992188 271.035156 28.109375 271.996094 29.882812 C 273.039062 31.734375 274.773438 32.117188 275.773438 32.117188 C 277.199219 32.117188 278.859375 31.503906 279.785156 29.460938 C 280.4375 27.957031 280.59375 26.300781 280.59375 24.527344 Z M 275.8125 31.539062 C 275.121094 31.539062 273.539062 31.230469 273.117188 28.726562 C 272.882812 27.457031 272.882812 25.527344 272.882812 24.257812 C 272.882812 22.753906 272.882812 21.019531 273.152344 19.785156 C 273.617188 17.820312 275.003906 17.433594 275.773438 17.433594 C 276.621094 17.433594 278.011719 17.898438 278.433594 19.941406 C 278.664062 21.132812 278.664062 22.867188 278.664062 24.257812 C 278.664062 25.644531 278.664062 27.492188 278.433594 28.804688 C 277.972656 31.347656 276.351562 31.539062 275.8125 31.539062 Z M 275.8125 31.539062 "/>
<path fill-rule="nonzero" fill="rgb(0%, 0%, 0%)" fill-opacity="1" d="M 291.957031 24.527344 C 291.957031 23.0625 291.882812 21.132812 291.109375 19.476562 C 290.109375 17.394531 288.453125 16.894531 287.179688 16.894531 C 285.832031 16.894531 284.136719 17.394531 283.171875 19.554688 C 282.476562 21.058594 282.363281 22.867188 282.363281 24.527344 C 282.363281 25.992188 282.402344 28.109375 283.363281 29.882812 C 284.40625 31.734375 286.140625 32.117188 287.140625 32.117188 C 288.566406 32.117188 290.222656 31.503906 291.148438 29.460938 C 291.804688 27.957031 291.957031 26.300781 291.957031 24.527344 Z M 287.179688 31.539062 C 286.484375 31.539062 284.90625 31.230469 284.480469 28.726562 C 284.25 27.457031 284.25 25.527344 284.25 24.257812 C 284.25 22.753906 284.25 21.019531 284.519531 19.785156 C 284.984375 17.820312 286.371094 17.433594 287.140625 17.433594 C 287.988281 17.433594 289.375 17.898438 289.800781 19.941406 C 290.03125 21.132812 290.03125 22.867188 290.03125 24.257812 C 290.03125 25.644531 290.03125 27.492188 289.800781 28.804688 C 289.339844 31.347656 287.71875 31.539062 287.179688 31.539062 Z M 287.179688 31.539062 "/>
<path fill-rule="nonzero" fill="rgb(0%, 0%, 0%)" fill-opacity="1" d="M 358.726562 24.292969 C 358.726562 22.019531 358.957031 20.789062 359.574219 19.632812 C 360 18.707031 361.078125 17.433594 362.734375 17.433594 C 363.160156 17.433594 364.199219 17.511719 364.703125 18.320312 C 363.890625 18.320312 363.507812 18.746094 363.507812 19.324219 C 363.507812 19.902344 363.929688 20.363281 364.546875 20.363281 C 365.164062 20.363281 365.589844 19.941406 365.589844 19.285156 C 365.589844 18.050781 364.703125 16.894531 362.699219 16.894531 C 359.84375 16.894531 356.722656 19.707031 356.722656 24.640625 C 356.722656 30.617188 359.421875 32.117188 361.503906 32.117188 C 363.929688 32.117188 366.167969 30.039062 366.167969 27.109375 C 366.167969 24.332031 364.125 22.175781 361.617188 22.175781 C 360.308594 22.175781 359.34375 22.984375 358.726562 24.292969 Z M 361.464844 31.503906 C 360.191406 31.503906 359.460938 30.460938 359.230469 29.804688 C 358.804688 28.804688 358.765625 26.953125 358.765625 26.605469 C 358.765625 25.144531 359.460938 22.753906 361.578125 22.753906 C 361.925781 22.753906 363.003906 22.753906 363.738281 24.101562 C 364.160156 24.949219 364.160156 26.027344 364.160156 27.109375 C 364.160156 28.148438 364.160156 29.265625 363.738281 30.074219 C 363.042969 31.347656 362.082031 31.503906 361.464844 31.503906 Z M 361.464844 31.503906 "/>
<path fill-rule="nonzero" fill="rgb(0%, 0%, 0%)" fill-opacity="1" d="M 377.609375 24.527344 C 377.609375 23.0625 377.53125 21.132812 376.761719 19.476562 C 375.757812 17.394531 374.101562 16.894531 372.832031 16.894531 C 371.480469 16.894531 369.785156 17.394531 368.820312 19.554688 C 368.128906 21.058594 368.011719 22.867188 368.011719 24.527344 C 368.011719 25.992188 368.050781 28.109375 369.015625 29.882812 C 370.054688 31.734375 371.789062 32.117188 372.792969 32.117188 C 374.21875 32.117188 375.875 31.503906 376.800781 29.460938 C 377.457031 27.957031 377.609375 26.300781 377.609375 24.527344 Z M 372.832031 31.539062 C 372.136719 31.539062 370.554688 31.230469 370.132812 28.726562 C 369.902344 27.457031 369.902344 25.527344 369.902344 24.257812 C 369.902344 22.753906 369.902344 21.019531 370.171875 19.785156 C 370.632812 17.820312 372.019531 17.433594 372.792969 17.433594 C 373.640625 17.433594 375.027344 17.898438 375.449219 19.941406 C 375.683594 21.132812 375.683594 22.867188 375.683594 24.257812 C 375.683594 25.644531 375.683594 27.492188 375.449219 28.804688 C 374.988281 31.347656 373.371094 31.539062 372.832031 31.539062 Z M 372.832031 31.539062 "/>
<path fill-rule="nonzero" fill="rgb(0%, 0%, 0%)" fill-opacity="1" d="M 388.976562 24.527344 C 388.976562 23.0625 388.898438 21.132812 388.128906 19.476562 C 387.125 17.394531 385.46875 16.894531 384.195312 16.894531 C 382.847656 16.894531 381.152344 17.394531 380.1875 19.554688 C 379.492188 21.058594 379.378906 22.867188 379.378906 24.527344 C 379.378906 25.992188 379.417969 28.109375 380.378906 29.882812 C 381.421875 31.734375 383.15625 32.117188 384.15625 32.117188 C 385.582031 32.117188 387.242188 31.503906 388.164062 29.460938 C 388.820312 27.957031 388.976562 26.300781 388.976562 24.527344 Z M 384.195312 31.539062 C 383.503906 31.539062 381.921875 31.230469 381.5 28.726562 C 381.265625 27.457031 381.265625 25.527344 381.265625 24.257812 C 381.265625 22.753906 381.265625 21.019531 381.535156 19.785156 C 382 17.820312 383.386719 17.433594 384.15625 17.433594 C 385.003906 17.433594 386.394531 17.898438 386.816406 19.941406 C 387.046875 21.132812 387.046875 22.867188 387.046875 24.257812 C 387.046875 25.644531 387.046875 27.492188 386.816406 28.804688 C 386.355469 31.347656 384.734375 31.539062 384.195312 31.539062 Z M 384.195312 31.539062 "/>
<path fill-rule="nonzero" fill="rgb(0%, 0%, 0%)" fill-opacity="1" d="M 461.179688 24.640625 L 461.179688 25.144531 C 461.179688 30.539062 458.710938 31.503906 457.441406 31.503906 C 456.9375 31.503906 455.820312 31.386719 455.242188 30.652344 L 455.320312 30.652344 C 455.511719 30.691406 456.359375 30.539062 456.359375 29.652344 C 456.359375 29.074219 455.976562 28.648438 455.359375 28.648438 C 454.742188 28.648438 454.316406 29.035156 454.316406 29.691406 C 454.316406 31.15625 455.472656 32.117188 457.476562 32.117188 C 460.332031 32.117188 463.183594 29.191406 463.183594 24.332031 C 463.183594 18.359375 460.523438 16.894531 458.519531 16.894531 C 455.976562 16.894531 453.738281 18.9375 453.738281 21.828125 C 453.738281 24.640625 455.742188 26.761719 458.25 26.761719 C 459.867188 26.761719 460.753906 25.605469 461.179688 24.640625 Z M 458.328125 26.222656 C 457.941406 26.222656 456.863281 26.222656 456.167969 24.835938 C 455.742188 24.023438 455.742188 22.90625 455.742188 21.867188 C 455.742188 20.789062 455.742188 19.707031 456.207031 18.859375 C 456.863281 17.742188 457.75 17.433594 458.519531 17.433594 C 460.023438 17.433594 460.640625 18.976562 460.714844 19.167969 C 461.023438 20.015625 461.101562 21.367188 461.101562 22.289062 C 461.101562 23.910156 460.367188 26.222656 458.328125 26.222656 Z M 458.328125 26.222656 "/>
<path fill-rule="nonzero" fill="rgb(0%, 0%, 0%)" fill-opacity="1" d="M 474.625 24.527344 C 474.625 23.0625 474.546875 21.132812 473.777344 19.476562 C 472.777344 17.394531 471.117188 16.894531 469.847656 16.894531 C 468.496094 16.894531 466.800781 17.394531 465.839844 19.554688 C 465.144531 21.058594 465.027344 22.867188 465.027344 24.527344 C 465.027344 25.992188 465.066406 28.109375 466.03125 29.882812 C 467.070312 31.734375 468.804688 32.117188 469.808594 32.117188 C 471.234375 32.117188 472.890625 31.503906 473.816406 29.460938 C 474.472656 27.957031 474.625 26.300781 474.625 24.527344 Z M 469.847656 31.539062 C 469.152344 31.539062 467.574219 31.230469 467.148438 28.726562 C 466.917969 27.457031 466.917969 25.527344 466.917969 24.257812 C 466.917969 22.753906 466.917969 21.019531 467.1875 19.785156 C 467.648438 17.820312 469.039062 17.433594 469.808594 17.433594 C 470.65625 17.433594 472.042969 17.898438 472.46875 19.941406 C 472.699219 21.132812 472.699219 22.867188 472.699219 24.257812 C 472.699219 25.644531 472.699219 27.492188 472.46875 28.804688 C 472.003906 31.347656 470.386719 31.539062 469.847656 31.539062 Z M 469.847656 31.539062 "/>
<path fill-rule="nonzero" fill="rgb(0%, 0%, 0%)" fill-opacity="1" d="M 485.992188 24.527344 C 485.992188 23.0625 485.914062 21.132812 485.144531 19.476562 C 484.140625 17.394531 482.484375 16.894531 481.210938 16.894531 C 479.863281 16.894531 478.167969 17.394531 477.203125 19.554688 C 476.511719 21.058594 476.394531 22.867188 476.394531 24.527344 C 476.394531 25.992188 476.433594 28.109375 477.398438 29.882812 C 478.4375 31.734375 480.171875 32.117188 481.175781 32.117188 C 482.601562 32.117188 484.257812 31.503906 485.183594 29.460938 C 485.835938 27.957031 485.992188 26.300781 485.992188 24.527344 Z M 481.210938 31.539062 C 480.519531 31.539062 478.9375 31.230469 478.515625 28.726562 C 478.285156 27.457031 478.285156 25.527344 478.285156 24.257812 C 478.285156 22.753906 478.285156 21.019531 478.554688 19.785156 C 479.015625 17.820312 480.402344 17.433594 481.175781 17.433594 C 482.023438 17.433594 483.410156 17.898438 483.832031 19.941406 C 484.066406 21.132812 484.066406 22.867188 484.066406 24.257812 C 484.066406 25.644531 484.066406 27.492188 483.832031 28.804688 C 483.371094 31.347656 481.753906 31.539062 481.210938 31.539062 Z M 481.210938 31.539062 "/>
<path fill-rule="nonzero" fill="rgb(0%, 0%, 0%)" fill-opacity="1" d="M 550.816406 17.472656 C 550.816406 16.933594 550.816406 16.894531 550.277344 16.894531 C 548.890625 18.28125 546.847656 18.28125 546.152344 18.28125 L 546.152344 18.976562 C 546.578125 18.976562 547.925781 18.976562 549.121094 18.398438 L 549.121094 29.84375 C 549.121094 30.652344 549.082031 30.925781 547 30.925781 L 546.304688 30.925781 L 546.304688 31.617188 C 547.078125 31.539062 549.082031 31.539062 549.96875 31.539062 C 550.894531 31.539062 552.859375 31.539062 553.667969 31.617188 L 553.667969 30.925781 L 552.972656 30.925781 C 550.894531 30.925781 550.816406 30.652344 550.816406 29.84375 Z M 550.816406 17.472656 "/>
<path fill-rule="nonzero" fill="rgb(0%, 0%, 0%)" fill-opacity="1" d="M 565.6875 27.6875 L 565.074219 27.6875 C 565.035156 27.996094 564.839844 29.304688 564.570312 29.652344 C 564.417969 29.84375 562.914062 29.84375 562.453125 29.84375 L 558.519531 29.84375 L 560.71875 27.761719 C 564.339844 24.640625 565.6875 23.445312 565.6875 21.210938 C 565.6875 18.667969 563.609375 16.894531 560.871094 16.894531 C 558.328125 16.894531 556.59375 18.898438 556.59375 20.902344 C 556.59375 22.019531 557.558594 22.136719 557.75 22.136719 C 558.25 22.136719 558.90625 21.789062 558.90625 20.980469 C 558.90625 20.324219 558.445312 19.824219 557.75 19.824219 C 557.632812 19.824219 557.59375 19.824219 557.480469 19.863281 C 558.019531 18.28125 559.445312 17.589844 560.640625 17.589844 C 562.875 17.589844 563.648438 19.667969 563.648438 21.210938 C 563.648438 23.445312 561.949219 25.296875 560.910156 26.453125 L 556.863281 30.808594 C 556.59375 31.078125 556.59375 31.117188 556.59375 31.617188 L 565.074219 31.617188 Z M 565.6875 27.6875 "/>
<path fill-rule="nonzero" fill="rgb(0%, 0%, 0%)" fill-opacity="1" d="M 577.324219 24.527344 C 577.324219 23.0625 577.246094 21.132812 576.476562 19.476562 C 575.476562 17.394531 573.816406 16.894531 572.546875 16.894531 C 571.195312 16.894531 569.5 17.394531 568.539062 19.554688 C 567.84375 21.058594 567.726562 22.867188 567.726562 24.527344 C 567.726562 25.992188 567.765625 28.109375 568.730469 29.882812 C 569.769531 31.734375 571.503906 32.117188 572.507812 32.117188 C 573.933594 32.117188 575.589844 31.503906 576.515625 29.460938 C 577.171875 27.957031 577.324219 26.300781 577.324219 24.527344 Z M 572.546875 31.539062 C 571.851562 31.539062 570.273438 31.230469 569.847656 28.726562 C 569.617188 27.457031 569.617188 25.527344 569.617188 24.257812 C 569.617188 22.753906 569.617188 21.019531 569.886719 19.785156 C 570.347656 17.820312 571.738281 17.433594 572.507812 17.433594 C 573.355469 17.433594 574.742188 17.898438 575.167969 19.941406 C 575.398438 21.132812 575.398438 22.867188 575.398438 24.257812 C 575.398438 25.644531 575.398438 27.492188 575.167969 28.804688 C 574.703125 31.347656 573.085938 31.539062 572.546875 31.539062 Z M 572.546875 31.539062 "/>
<path fill-rule="nonzero" fill="rgb(0%, 0%, 0%)" fill-opacity="1" d="M 588.691406 24.527344 C 588.691406 23.0625 588.613281 21.132812 587.84375 19.476562 C 586.839844 17.394531 585.183594 16.894531 583.910156 16.894531 C 582.5625 16.894531 580.867188 17.394531 579.902344 19.554688 C 579.210938 21.058594 579.09375 22.867188 579.09375 24.527344 C 579.09375 25.992188 579.132812 28.109375 580.097656 29.882812 C 581.136719 31.734375 582.871094 32.117188 583.875 32.117188 C 585.300781 32.117188 586.957031 31.503906 587.882812 29.460938 C 588.535156 27.957031 588.691406 26.300781 588.691406 24.527344 Z M 583.910156 31.539062 C 583.21875 31.539062 581.636719 31.230469 581.214844 28.726562 C 580.984375 27.457031 580.984375 25.527344 580.984375 24.257812 C 580.984375 22.753906 580.984375 21.019531 581.253906 19.785156 C 581.714844 17.820312 583.101562 17.433594 583.875 17.433594 C 584.722656 17.433594 586.109375 17.898438 586.53125 19.941406 C 586.765625 21.132812 586.765625 22.867188 586.765625 24.257812 C 586.765625 25.644531 586.765625 27.492188 586.53125 28.804688 C 586.070312 31.347656 584.453125 31.539062 583.910156 31.539062 Z M 583.910156 31.539062 "/>
<path fill="none" stroke-width="0.3985" stroke-linecap="butt" stroke-linejoin="miter" stroke="rgb(0%, 0%, 0%)" stroke-opacity="1" stroke-miterlimit="10" d="M 0.000290123 -25.735914 L 176.593935 -25.735914 " transform="matrix(2.466667, 0, 0, -2.466667, 157.800066, 47.490734)"/>
<path fill-rule="nonzero" fill="rgb(0%, 0%, 0%)" fill-opacity="1" d="M 598.3125 110.972656 L 590.449219 107.039062 L 593.398438 110.972656 L 590.449219 114.910156 "/>
<path fill="none" stroke-width="0.3487" stroke-linecap="round" stroke-linejoin="miter" stroke="rgb(0%, 0%, 0%)" stroke-opacity="1" stroke-miterlimit="10" d="M 8.504302 -29.223034 L 8.504302 -22.250378 Z M 8.504302 -29.223034 " transform="matrix(2.466667, 0, 0, -2.466667, 157.800066, 47.490734)"/>
<path fill="none" stroke-width="0.3487" stroke-linecap="round" stroke-linejoin="miter" stroke="rgb(0%, 0%, 0%)" stroke-opacity="1" stroke-miterlimit="10" d="M 47.834961 -29.223034 L 47.834961 -22.250378 Z M 47.834961 -29.223034 " transform="matrix(2.466667, 0, 0, -2.466667, 157.800066, 47.490734)"/>
<path fill="none" stroke-width="0.3487" stroke-linecap="round" stroke-linejoin="miter" stroke="rgb(0%, 0%, 0%)" stroke-opacity="1" stroke-miterlimit="10" d="M 87.167203 -29.223034 L 87.167203 -22.250378 Z M 87.167203 -29.223034 " transform="matrix(2.466667, 0, 0, -2.466667, 157.800066, 47.490734)"/>
<path fill="none" stroke-width="0.3487" stroke-linecap="round" stroke-linejoin="miter" stroke="rgb(0%, 0%, 0%)" stroke-opacity="1" stroke-miterlimit="10" d="M 126.496278 -29.223034 L 126.496278 -22.250378 Z M 126.496278 -29.223034 " transform="matrix(2.466667, 0, 0, -2.466667, 157.800066, 47.490734)"/>
<path fill="none" stroke-width="0.3487" stroke-linecap="round" stroke-linejoin="miter" stroke="rgb(0%, 0%, 0%)" stroke-opacity="1" stroke-miterlimit="10" d="M 165.828521 -29.223034 L 165.828521 -22.250378 Z M 165.828521 -29.223034 " transform="matrix(2.466667, 0, 0, -2.466667, 157.800066, 47.490734)"/>
<path fill-rule="nonzero" fill="rgb(0%, 0%, 0%)" fill-opacity="1" d="M 174.105469 133.507812 C 174.105469 132.042969 174.03125 130.117188 173.257812 128.460938 C 172.257812 126.378906 170.601562 125.878906 169.328125 125.878906 C 167.980469 125.878906 166.285156 126.378906 165.320312 128.535156 C 164.625 130.039062 164.511719 131.851562 164.511719 133.507812 C 164.511719 134.972656 164.550781 137.09375 165.511719 138.867188 C 166.554688 140.714844 168.289062 141.101562 169.289062 141.101562 C 170.714844 141.101562 172.371094 140.484375 173.296875 138.441406 C 173.953125 136.9375 174.105469 135.28125 174.105469 133.507812 Z M 169.328125 140.523438 C 168.632812 140.523438 167.054688 140.214844 166.628906 137.710938 C 166.398438 136.4375 166.398438 134.511719 166.398438 133.238281 C 166.398438 131.734375 166.398438 130 166.667969 128.769531 C 167.132812 126.800781 168.519531 126.417969 169.289062 126.417969 C 170.136719 126.417969 171.523438 126.878906 171.949219 128.921875 C 172.179688 130.117188 172.179688 131.851562 172.179688 133.238281 C 172.179688 134.625 172.179688 136.476562 171.949219 137.785156 C 171.488281 140.332031 169.867188 140.523438 169.328125 140.523438 Z M 169.328125 140.523438 "/>
<path fill-rule="nonzero" fill="rgb(0%, 0%, 0%)" fill-opacity="1" d="M 190.5625 124.875 C 190.675781 124.722656 190.753906 124.644531 190.753906 124.488281 C 190.753906 124.179688 190.484375 123.988281 190.289062 123.988281 C 190.019531 123.988281 189.90625 124.144531 189.789062 124.335938 C 188.363281 126.183594 186.515625 126.457031 185.511719 126.457031 C 183.351562 126.457031 181.925781 125.375 181.15625 124.644531 C 180.578125 124.105469 180 123.988281 179.578125 123.988281 C 177.878906 123.988281 176.261719 125.839844 176.261719 128.460938 C 176.261719 131.15625 177.917969 132.929688 179.578125 132.929688 C 181.234375 132.929688 182.542969 130.964844 182.542969 128.460938 C 182.542969 128.152344 182.542969 127.148438 182.121094 126.070312 C 183.46875 126.839844 184.742188 126.996094 185.511719 126.996094 C 186.476562 126.996094 187.476562 126.761719 188.402344 126.261719 L 188.441406 126.300781 L 178.34375 140.910156 C 178.34375 140.945312 178.148438 141.179688 178.148438 141.371094 C 178.148438 141.640625 178.382812 141.832031 178.652344 141.832031 C 178.882812 141.832031 179 141.679688 179.113281 141.488281 Z M 179.652344 132.351562 C 179.152344 132.351562 177.726562 132.082031 177.726562 128.460938 C 177.726562 124.835938 179.152344 124.566406 179.652344 124.566406 C 180.808594 124.566406 181.925781 126.183594 181.925781 128.460938 C 181.925781 130.808594 180.769531 132.351562 179.652344 132.351562 Z M 192.640625 137.402344 C 192.640625 134.820312 191.292969 132.929688 189.675781 132.929688 C 187.976562 132.929688 186.320312 134.742188 186.320312 137.363281 C 186.320312 140.058594 188.015625 141.832031 189.675781 141.832031 C 191.332031 141.832031 192.640625 139.90625 192.640625 137.402344 Z M 189.710938 141.292969 C 189.25 141.292969 187.785156 140.984375 187.785156 137.402344 C 187.785156 133.738281 189.25 133.46875 189.710938 133.46875 C 190.90625 133.46875 192.023438 135.128906 192.023438 137.363281 C 192.023438 139.714844 190.867188 141.292969 189.710938 141.292969 Z M 189.710938 141.292969 "/>
<path fill-rule="nonzero" fill="rgb(0%, 0%, 0%)" fill-opacity="1" d="M 265.167969 136.667969 L 264.550781 136.667969 C 264.511719 136.976562 264.320312 138.289062 264.050781 138.632812 C 263.894531 138.828125 262.394531 138.828125 261.929688 138.828125 L 258 138.828125 L 260.195312 136.746094 C 263.820312 133.625 265.167969 132.429688 265.167969 130.195312 C 265.167969 127.648438 263.085938 125.878906 260.351562 125.878906 C 257.808594 125.878906 256.074219 127.882812 256.074219 129.886719 C 256.074219 131.003906 257.035156 131.117188 257.230469 131.117188 C 257.730469 131.117188 258.386719 130.773438 258.386719 129.960938 C 258.386719 129.308594 257.921875 128.804688 257.230469 128.804688 C 257.113281 128.804688 257.074219 128.804688 256.957031 128.84375 C 257.5 127.265625 258.925781 126.570312 260.121094 126.570312 C 262.355469 126.570312 263.125 128.652344 263.125 130.195312 C 263.125 132.429688 261.429688 134.277344 260.390625 135.433594 L 256.34375 139.789062 C 256.074219 140.058594 256.074219 140.097656 256.074219 140.601562 L 264.550781 140.601562 Z M 265.167969 136.667969 "/>
<path fill-rule="nonzero" fill="rgb(0%, 0%, 0%)" fill-opacity="1" d="M 268.632812 132.96875 C 268.632812 133.355469 268.632812 133.625 268.941406 133.625 C 269.09375 133.625 269.171875 133.507812 269.289062 133.316406 C 269.980469 132.390625 271.023438 131.851562 272.179688 131.851562 C 274.570312 131.851562 274.570312 135.28125 274.570312 136.050781 C 274.570312 136.746094 274.570312 138.132812 273.914062 139.136719 C 273.335938 140.058594 272.410156 140.484375 271.523438 140.484375 C 270.25 140.484375 268.75 139.636719 268.210938 138.019531 C 268.246094 138.019531 268.363281 138.054688 268.515625 138.054688 C 268.980469 138.054688 269.636719 137.785156 269.636719 136.976562 C 269.636719 136.285156 269.132812 135.898438 268.515625 135.898438 C 268.054688 135.898438 267.4375 136.167969 267.4375 137.054688 C 267.4375 139.058594 269.132812 141.101562 271.601562 141.101562 C 274.261719 141.101562 276.535156 138.902344 276.535156 136.167969 C 276.535156 133.507812 274.644531 131.3125 272.21875 131.3125 C 271.175781 131.3125 270.097656 131.660156 269.289062 132.46875 L 269.289062 128.113281 C 269.980469 128.304688 270.675781 128.421875 271.332031 128.421875 C 274.066406 128.421875 275.648438 126.457031 275.648438 126.148438 C 275.648438 125.953125 275.53125 125.878906 275.417969 125.878906 C 275.378906 125.878906 275.339844 125.878906 275.109375 125.992188 C 274.066406 126.378906 273.066406 126.570312 272.140625 126.570312 C 271.175781 126.570312 270.175781 126.378906 269.171875 125.992188 C 268.941406 125.878906 268.902344 125.878906 268.902344 125.878906 C 268.632812 125.878906 268.632812 126.070312 268.632812 126.457031 Z M 268.632812 132.96875 "/>
<path fill-rule="nonzero" fill="rgb(0%, 0%, 0%)" fill-opacity="1" d="M 293.257812 124.875 C 293.375 124.722656 293.449219 124.644531 293.449219 124.488281 C 293.449219 124.179688 293.179688 123.988281 292.988281 123.988281 C 292.71875 123.988281 292.601562 124.144531 292.488281 124.335938 C 291.0625 126.183594 289.210938 126.457031 288.207031 126.457031 C 286.050781 126.457031 284.625 125.375 283.851562 124.644531 C 283.273438 124.105469 282.695312 123.988281 282.273438 123.988281 C 280.578125 123.988281 278.957031 125.839844 278.957031 128.460938 C 278.957031 131.15625 280.617188 132.929688 282.273438 132.929688 C 283.929688 132.929688 285.242188 130.964844 285.242188 128.460938 C 285.242188 128.152344 285.242188 127.148438 284.816406 126.070312 C 286.164062 126.839844 287.4375 126.996094 288.207031 126.996094 C 289.171875 126.996094 290.175781 126.761719 291.097656 126.261719 L 291.136719 126.300781 L 281.039062 140.910156 C 281.039062 140.945312 280.847656 141.179688 280.847656 141.371094 C 280.847656 141.640625 281.078125 141.832031 281.347656 141.832031 C 281.578125 141.832031 281.695312 141.679688 281.8125 141.488281 Z M 282.351562 132.351562 C 281.847656 132.351562 280.421875 132.082031 280.421875 128.460938 C 280.421875 124.835938 281.847656 124.566406 282.351562 124.566406 C 283.507812 124.566406 284.625 126.183594 284.625 128.460938 C 284.625 130.808594 283.46875 132.351562 282.351562 132.351562 Z M 295.339844 137.402344 C 295.339844 134.820312 293.988281 132.929688 292.371094 132.929688 C 290.675781 132.929688 289.019531 134.742188 289.019531 137.363281 C 289.019531 140.058594 290.714844 141.832031 292.371094 141.832031 C 294.027344 141.832031 295.339844 139.90625 295.339844 137.402344 Z M 292.410156 141.292969 C 291.945312 141.292969 290.484375 140.984375 290.484375 137.402344 C 290.484375 133.738281 291.945312 133.46875 292.410156 133.46875 C 293.605469 133.46875 294.722656 135.128906 294.722656 137.363281 C 294.722656 139.714844 293.566406 141.292969 292.410156 141.292969 Z M 292.410156 141.292969 "/>
<path fill-rule="nonzero" fill="rgb(0%, 0%, 0%)" fill-opacity="1" d="M 354.285156 132.96875 C 354.285156 133.355469 354.285156 133.625 354.59375 133.625 C 354.746094 133.625 354.824219 133.507812 354.9375 133.316406 C 355.632812 132.390625 356.671875 131.851562 357.828125 131.851562 C 360.21875 131.851562 360.21875 135.28125 360.21875 136.050781 C 360.21875 136.746094 360.21875 138.132812 359.5625 139.136719 C 358.984375 140.058594 358.0625 140.484375 357.175781 140.484375 C 355.902344 140.484375 354.398438 139.636719 353.859375 138.019531 C 353.898438 138.019531 354.015625 138.054688 354.167969 138.054688 C 354.628906 138.054688 355.285156 137.785156 355.285156 136.976562 C 355.285156 136.285156 354.785156 135.898438 354.167969 135.898438 C 353.707031 135.898438 353.089844 136.167969 353.089844 137.054688 C 353.089844 139.058594 354.785156 141.101562 357.25 141.101562 C 359.910156 141.101562 362.183594 138.902344 362.183594 136.167969 C 362.183594 133.507812 360.296875 131.3125 357.867188 131.3125 C 356.828125 131.3125 355.75 131.660156 354.9375 132.46875 L 354.9375 128.113281 C 355.632812 128.304688 356.328125 128.421875 356.980469 128.421875 C 359.71875 128.421875 361.296875 126.457031 361.296875 126.148438 C 361.296875 125.953125 361.183594 125.878906 361.066406 125.878906 C 361.027344 125.878906 360.988281 125.878906 360.757812 125.992188 C 359.71875 126.378906 358.714844 126.570312 357.789062 126.570312 C 356.828125 126.570312 355.824219 126.378906 354.824219 125.992188 C 354.59375 125.878906 354.554688 125.878906 354.554688 125.878906 C 354.285156 125.878906 354.285156 126.070312 354.285156 126.457031 Z M 354.285156 132.96875 "/>
<path fill-rule="nonzero" fill="rgb(0%, 0%, 0%)" fill-opacity="1" d="M 373.820312 133.507812 C 373.820312 132.042969 373.742188 130.117188 372.972656 128.460938 C 371.96875 126.378906 370.3125 125.878906 369.042969 125.878906 C 367.691406 125.878906 365.996094 126.378906 365.03125 128.535156 C 364.339844 130.039062 364.222656 131.851562 364.222656 133.507812 C 364.222656 134.972656 364.261719 137.09375 365.226562 138.867188 C 366.265625 140.714844 368 141.101562 369.003906 141.101562 C 370.429688 141.101562 372.085938 140.484375 373.011719 138.441406 C 373.667969 136.9375 373.820312 135.28125 373.820312 133.507812 Z M 369.042969 140.523438 C 368.347656 140.523438 366.765625 140.214844 366.34375 137.710938 C 366.113281 136.4375 366.113281 134.511719 366.113281 133.238281 C 366.113281 131.734375 366.113281 130 366.382812 128.769531 C 366.84375 126.800781 368.230469 126.417969 369.003906 126.417969 C 369.851562 126.417969 371.238281 126.878906 371.660156 128.921875 C 371.894531 130.117188 371.894531 131.851562 371.894531 133.238281 C 371.894531 134.625 371.894531 136.476562 371.660156 137.785156 C 371.199219 140.332031 369.582031 140.523438 369.042969 140.523438 Z M 369.042969 140.523438 "/>
<path fill-rule="nonzero" fill="rgb(0%, 0%, 0%)" fill-opacity="1" d="M 390.273438 124.875 C 390.390625 124.722656 390.464844 124.644531 390.464844 124.488281 C 390.464844 124.179688 390.195312 123.988281 390.003906 123.988281 C 389.734375 123.988281 389.617188 124.144531 389.503906 124.335938 C 388.078125 126.183594 386.226562 126.457031 385.226562 126.457031 C 383.066406 126.457031 381.640625 125.375 380.871094 124.644531 C 380.292969 124.105469 379.714844 123.988281 379.289062 123.988281 C 377.59375 123.988281 375.976562 125.839844 375.976562 128.460938 C 375.976562 131.15625 377.632812 132.929688 379.289062 132.929688 C 380.945312 132.929688 382.257812 130.964844 382.257812 128.460938 C 382.257812 128.152344 382.257812 127.148438 381.832031 126.070312 C 383.183594 126.839844 384.453125 126.996094 385.226562 126.996094 C 386.1875 126.996094 387.191406 126.761719 388.117188 126.261719 L 388.152344 126.300781 L 378.054688 140.910156 C 378.054688 140.945312 377.863281 141.179688 377.863281 141.371094 C 377.863281 141.640625 378.09375 141.832031 378.363281 141.832031 C 378.597656 141.832031 378.710938 141.679688 378.828125 141.488281 Z M 379.367188 132.351562 C 378.867188 132.351562 377.441406 132.082031 377.441406 128.460938 C 377.441406 124.835938 378.867188 124.566406 379.367188 124.566406 C 380.523438 124.566406 381.640625 126.183594 381.640625 128.460938 C 381.640625 130.808594 380.484375 132.351562 379.367188 132.351562 Z M 392.355469 137.402344 C 392.355469 134.820312 391.007812 132.929688 389.386719 132.929688 C 387.691406 132.929688 386.035156 134.742188 386.035156 137.363281 C 386.035156 140.058594 387.730469 141.832031 389.386719 141.832031 C 391.042969 141.832031 392.355469 139.90625 392.355469 137.402344 Z M 389.425781 141.292969 C 388.964844 141.292969 387.5 140.984375 387.5 137.402344 C 387.5 133.738281 388.964844 133.46875 389.425781 133.46875 C 390.621094 133.46875 391.738281 135.128906 391.738281 137.363281 C 391.738281 139.714844 390.582031 141.292969 389.425781 141.292969 Z M 389.425781 141.292969 "/>
<path fill-rule="nonzero" fill="rgb(0%, 0%, 0%)" fill-opacity="1" d="M 459.816406 127.109375 C 460.011719 126.878906 460.011719 126.800781 460.011719 126.339844 L 454.539062 126.339844 C 451.722656 126.339844 451.648438 126.070312 451.609375 125.644531 L 450.992188 125.644531 L 450.257812 130.269531 L 450.875 130.269531 C 450.953125 129.769531 451.144531 128.535156 451.414062 128.265625 C 451.570312 128.113281 453.34375 128.113281 453.652344 128.113281 L 458.277344 128.113281 L 456.15625 131.003906 C 453.265625 134.972656 452.996094 138.597656 452.996094 139.828125 C 452.996094 140.097656 452.996094 141.101562 454.035156 141.101562 C 455.078125 141.101562 455.078125 140.097656 455.078125 139.828125 L 455.078125 138.75 C 455.078125 135.472656 455.539062 132.929688 456.734375 131.3125 Z M 459.816406 127.109375 "/>
<path fill-rule="nonzero" fill="rgb(0%, 0%, 0%)" fill-opacity="1" d="M 462.667969 132.96875 C 462.667969 133.355469 462.667969 133.625 462.972656 133.625 C 463.128906 133.625 463.207031 133.507812 463.320312 133.316406 C 464.015625 132.390625 465.054688 131.851562 466.210938 131.851562 C 468.601562 131.851562 468.601562 135.28125 468.601562 136.050781 C 468.601562 136.746094 468.601562 138.132812 467.945312 139.136719 C 467.367188 140.058594 466.441406 140.484375 465.558594 140.484375 C 464.285156 140.484375 462.78125 139.636719 462.242188 138.019531 C 462.28125 138.019531 462.394531 138.054688 462.550781 138.054688 C 463.011719 138.054688 463.667969 137.785156 463.667969 136.976562 C 463.667969 136.285156 463.167969 135.898438 462.550781 135.898438 C 462.089844 135.898438 461.472656 136.167969 461.472656 137.054688 C 461.472656 139.058594 463.167969 141.101562 465.632812 141.101562 C 468.292969 141.101562 470.566406 138.902344 470.566406 136.167969 C 470.566406 133.507812 468.679688 131.3125 466.25 131.3125 C 465.210938 131.3125 464.128906 131.660156 463.320312 132.46875 L 463.320312 128.113281 C 464.015625 128.304688 464.707031 128.421875 465.363281 128.421875 C 468.101562 128.421875 469.679688 126.457031 469.679688 126.148438 C 469.679688 125.953125 469.566406 125.878906 469.449219 125.878906 C 469.410156 125.878906 469.371094 125.878906 469.140625 125.992188 C 468.101562 126.378906 467.097656 126.570312 466.171875 126.570312 C 465.210938 126.570312 464.207031 126.378906 463.207031 125.992188 C 462.972656 125.878906 462.9375 125.878906 462.9375 125.878906 C 462.667969 125.878906 462.667969 126.070312 462.667969 126.457031 Z M 462.667969 132.96875 "/>
<path fill-rule="nonzero" fill="rgb(0%, 0%, 0%)" fill-opacity="1" d="M 487.289062 124.875 C 487.40625 124.722656 487.484375 124.644531 487.484375 124.488281 C 487.484375 124.179688 487.214844 123.988281 487.019531 123.988281 C 486.75 123.988281 486.636719 124.144531 486.519531 124.335938 C 485.09375 126.183594 483.242188 126.457031 482.242188 126.457031 C 480.082031 126.457031 478.65625 125.375 477.886719 124.644531 C 477.308594 124.105469 476.730469 123.988281 476.304688 123.988281 C 474.609375 123.988281 472.992188 125.839844 472.992188 128.460938 C 472.992188 131.15625 474.648438 132.929688 476.304688 132.929688 C 477.964844 132.929688 479.273438 130.964844 479.273438 128.460938 C 479.273438 128.152344 479.273438 127.148438 478.851562 126.070312 C 480.199219 126.839844 481.46875 126.996094 482.242188 126.996094 C 483.203125 126.996094 484.207031 126.761719 485.132812 126.261719 L 485.171875 126.300781 L 475.074219 140.910156 C 475.074219 140.945312 474.878906 141.179688 474.878906 141.371094 C 474.878906 141.640625 475.109375 141.832031 475.382812 141.832031 C 475.613281 141.832031 475.726562 141.679688 475.84375 141.488281 Z M 476.382812 132.351562 C 475.882812 132.351562 474.457031 132.082031 474.457031 128.460938 C 474.457031 124.835938 475.882812 124.566406 476.382812 124.566406 C 477.539062 124.566406 478.65625 126.183594 478.65625 128.460938 C 478.65625 130.808594 477.5 132.351562 476.382812 132.351562 Z M 489.371094 137.402344 C 489.371094 134.820312 488.023438 132.929688 486.402344 132.929688 C 484.707031 132.929688 483.050781 134.742188 483.050781 137.363281 C 483.050781 140.058594 484.746094 141.832031 486.402344 141.832031 C 488.0625 141.832031 489.371094 139.90625 489.371094 137.402344 Z M 486.441406 141.292969 C 485.980469 141.292969 484.515625 140.984375 484.515625 137.402344 C 484.515625 133.738281 485.980469 133.46875 486.441406 133.46875 C 487.636719 133.46875 488.753906 135.128906 488.753906 137.363281 C 488.753906 139.714844 487.597656 141.292969 486.441406 141.292969 Z M 486.441406 141.292969 "/>
<path fill-rule="nonzero" fill="rgb(0%, 0%, 0%)" fill-opacity="1" d="M 547.027344 126.457031 C 547.027344 125.914062 547.027344 125.878906 546.488281 125.878906 C 545.101562 127.265625 543.058594 127.265625 542.363281 127.265625 L 542.363281 127.957031 C 542.789062 127.957031 544.136719 127.957031 545.332031 127.378906 L 545.332031 138.828125 C 545.332031 139.636719 545.292969 139.90625 543.210938 139.90625 L 542.519531 139.90625 L 542.519531 140.601562 C 543.289062 140.523438 545.292969 140.523438 546.179688 140.523438 C 547.105469 140.523438 549.070312 140.523438 549.878906 140.601562 L 549.878906 139.90625 L 549.183594 139.90625 C 547.105469 139.90625 547.027344 139.636719 547.027344 138.828125 Z M 547.027344 126.457031 "/>
<path fill-rule="nonzero" fill="rgb(0%, 0%, 0%)" fill-opacity="1" d="M 562.171875 133.507812 C 562.171875 132.042969 562.09375 130.117188 561.320312 128.460938 C 560.320312 126.378906 558.664062 125.878906 557.390625 125.878906 C 556.042969 125.878906 554.347656 126.378906 553.382812 128.535156 C 552.6875 130.039062 552.574219 131.851562 552.574219 133.507812 C 552.574219 134.972656 552.613281 137.09375 553.574219 138.867188 C 554.617188 140.714844 556.351562 141.101562 557.351562 141.101562 C 558.777344 141.101562 560.4375 140.484375 561.359375 138.441406 C 562.015625 136.9375 562.171875 135.28125 562.171875 133.507812 Z M 557.390625 140.523438 C 556.695312 140.523438 555.117188 140.214844 554.691406 137.710938 C 554.460938 136.4375 554.460938 134.511719 554.460938 133.238281 C 554.460938 131.734375 554.460938 130 554.730469 128.769531 C 555.195312 126.800781 556.582031 126.417969 557.351562 126.417969 C 558.199219 126.417969 559.585938 126.878906 560.011719 128.921875 C 560.242188 130.117188 560.242188 131.851562 560.242188 133.238281 C 560.242188 134.625 560.242188 136.476562 560.011719 137.785156 C 559.550781 140.332031 557.929688 140.523438 557.390625 140.523438 Z M 557.390625 140.523438 "/>
<path fill-rule="nonzero" fill="rgb(0%, 0%, 0%)" fill-opacity="1" d="M 573.535156 133.507812 C 573.535156 132.042969 573.460938 130.117188 572.6875 128.460938 C 571.6875 126.378906 570.027344 125.878906 568.757812 125.878906 C 567.40625 125.878906 565.710938 126.378906 564.75 128.535156 C 564.054688 130.039062 563.9375 131.851562 563.9375 133.507812 C 563.9375 134.972656 563.976562 137.09375 564.941406 138.867188 C 565.980469 140.714844 567.714844 141.101562 568.71875 141.101562 C 570.144531 141.101562 571.800781 140.484375 572.726562 138.441406 C 573.382812 136.9375 573.535156 135.28125 573.535156 133.507812 Z M 568.757812 140.523438 C 568.0625 140.523438 566.484375 140.214844 566.058594 137.710938 C 565.828125 136.4375 565.828125 134.511719 565.828125 133.238281 C 565.828125 131.734375 565.828125 130 566.097656 128.769531 C 566.558594 126.800781 567.949219 126.417969 568.71875 126.417969 C 569.566406 126.417969 570.953125 126.878906 571.378906 128.921875 C 571.609375 130.117188 571.609375 131.851562 571.609375 133.238281 C 571.609375 134.625 571.609375 136.476562 571.378906 137.785156 C 570.914062 140.332031 569.296875 140.523438 568.757812 140.523438 Z M 568.757812 140.523438 "/>
<path fill-rule="nonzero" fill="rgb(0%, 0%, 0%)" fill-opacity="1" d="M 589.988281 124.875 C 590.105469 124.722656 590.183594 124.644531 590.183594 124.488281 C 590.183594 124.179688 589.914062 123.988281 589.71875 123.988281 C 589.449219 123.988281 589.335938 124.144531 589.21875 124.335938 C 587.792969 126.183594 585.941406 126.457031 584.941406 126.457031 C 582.78125 126.457031 581.355469 125.375 580.585938 124.644531 C 580.007812 124.105469 579.429688 123.988281 579.003906 123.988281 C 577.308594 123.988281 575.691406 125.839844 575.691406 128.460938 C 575.691406 131.15625 577.347656 132.929688 579.003906 132.929688 C 580.664062 132.929688 581.972656 130.964844 581.972656 128.460938 C 581.972656 128.152344 581.972656 127.148438 581.550781 126.070312 C 582.898438 126.839844 584.167969 126.996094 584.941406 126.996094 C 585.902344 126.996094 586.90625 126.761719 587.832031 126.261719 L 587.871094 126.300781 L 577.773438 140.910156 C 577.773438 140.945312 577.578125 141.179688 577.578125 141.371094 C 577.578125 141.640625 577.808594 141.832031 578.082031 141.832031 C 578.3125 141.832031 578.425781 141.679688 578.542969 141.488281 Z M 579.082031 132.351562 C 578.582031 132.351562 577.15625 132.082031 577.15625 128.460938 C 577.15625 124.835938 578.582031 124.566406 579.082031 124.566406 C 580.238281 124.566406 581.355469 126.183594 581.355469 128.460938 C 581.355469 130.808594 580.199219 132.351562 579.082031 132.351562 Z M 592.070312 137.402344 C 592.070312 134.820312 590.722656 132.929688 589.101562 132.929688 C 587.40625 132.929688 585.75 134.742188 585.75 137.363281 C 585.75 140.058594 587.445312 141.832031 589.101562 141.832031 C 590.761719 141.832031 592.070312 139.90625 592.070312 137.402344 Z M 589.140625 141.292969 C 588.679688 141.292969 587.214844 140.984375 587.214844 137.402344 C 587.214844 133.738281 588.679688 133.46875 589.140625 133.46875 C 590.335938 133.46875 591.453125 135.128906 591.453125 137.363281 C 591.453125 139.714844 590.296875 141.292969 589.140625 141.292969 Z M 589.140625 141.292969 "/>
<g clip-path="url(#clip-0)">
<path fill="none" stroke-width="0.3985" stroke-linecap="butt" stroke-linejoin="miter" stroke="rgb(0%, 0%, 0%)" stroke-opacity="1" stroke-dasharray="2.98883 1.99255" stroke-miterlimit="10" d="M 133.636798 17.061277 L 119.358926 17.061277 C 115.803711 17.061277 112.921532 14.179098 112.921532 10.628634 L 112.921532 -36.363554 C 112.921532 -39.918769 115.803711 -42.797781 119.358926 -42.797781 L 133.636798 -42.797781 C 137.190429 -42.797781 140.069441 -39.918769 140.069441 -36.363554 L 140.069441 10.628634 C 140.069441 14.179098 137.190429 17.061277 133.636798 17.061277 Z M 133.636798 17.061277 " transform="matrix(2.466667, 0, 0, -2.466667, 157.800066, 47.490734)"/>
</g>
</svg>
