<?xml version="1.0" encoding="UTF-8"?>
<svg xmlns="http://www.w3.org/2000/svg" xmlns:xlink="http://www.w3.org/1999/xlink" width="671.451312" height="67.044001" viewBox="0 0 671.451312 67.044001">
<path fill="none" stroke-width="0.3985" stroke-linecap="butt" stroke-linejoin="miter" stroke="rgb(0%, 0%, 0%)" stroke-opacity="1" stroke-miterlimit="10" d="M 0.00100564 0.0018159 L 178.008818 0.0018159 " transform="matrix(2.466667, 0, 0, -2.466667, 222.044394, 43.016198)"/>
<path fill-rule="nonzero" fill="rgb(0%, 0%, 0%)" fill-opacity="1" d="M 666.046875 43.011719 L 658.1875 39.082031 L 661.132812 43.011719 L 658.1875 46.945312 "/>
<path fill-rule="nonzero" fill="rgb(0%, 0%, 0%)" fill-opacity="1" d="M 21.277344 47.3125 C 21.390625 48.273438 22.046875 49.316406 23.203125 49.316406 C 23.742188 49.316406 25.246094 48.96875 25.246094 46.964844 L 25.246094 45.578125 L 24.628906 45.578125 L 24.628906 46.964844 C 24.628906 48.390625 24.011719 48.542969 23.742188 48.542969 C 22.933594 48.542969 22.816406 47.425781 22.816406 47.3125 L 22.816406 42.414062 C 22.816406 41.375 22.816406 40.410156 21.929688 39.488281 C 20.96875 38.523438 19.734375 38.136719 18.578125 38.136719 C 16.535156 38.136719 14.839844 39.292969 14.839844 40.914062 C 14.839844 41.644531 15.339844 42.070312 15.996094 42.070312 C 16.691406 42.070312 17.113281 41.566406 17.113281 40.953125 C 17.113281 40.644531 17 39.832031 15.84375 39.832031 C 16.535156 38.945312 17.730469 38.675781 18.5 38.675781 C 19.734375 38.675781 21.121094 39.640625 21.121094 41.835938 L 21.121094 42.722656 C 19.851562 42.800781 18.15625 42.878906 16.613281 43.609375 C 14.761719 44.457031 14.144531 45.730469 14.144531 46.808594 C 14.144531 48.8125 16.535156 49.429688 18.078125 49.429688 C 19.695312 49.429688 20.8125 48.429688 21.277344 47.3125 Z M 21.121094 43.265625 L 21.121094 45.730469 C 21.121094 48.042969 19.347656 48.890625 18.230469 48.890625 C 17.035156 48.890625 16.035156 48.042969 16.035156 46.808594 C 16.035156 45.460938 17.074219 43.417969 21.121094 43.265625 Z M 21.121094 43.265625 "/>
<path fill-rule="nonzero" fill="rgb(0%, 0%, 0%)" fill-opacity="1" d="M 28.285156 43.804688 C 28.285156 39.796875 30.289062 38.753906 31.597656 38.753906 C 31.828125 38.753906 33.371094 38.792969 34.21875 39.679688 C 33.214844 39.757812 33.0625 40.488281 33.0625 40.796875 C 33.0625 41.453125 33.523438 41.914062 34.179688 41.914062 C 34.835938 41.914062 35.335938 41.53125 35.335938 40.757812 C 35.335938 39.101562 33.449219 38.136719 31.558594 38.136719 C 28.476562 38.136719 26.242188 40.796875 26.242188 43.84375 C 26.242188 47.003906 28.667969 49.429688 31.519531 49.429688 C 34.796875 49.429688 35.605469 46.460938 35.605469 46.230469 C 35.605469 46 35.335938 46 35.257812 46 C 35.066406 46 34.988281 46.078125 34.949219 46.230469 C 34.257812 48.503906 32.636719 48.8125 31.753906 48.8125 C 30.441406 48.8125 28.285156 47.773438 28.285156 43.804688 Z M 28.285156 43.804688 "/>
<path fill-rule="nonzero" fill="rgb(0%, 0%, 0%)" fill-opacity="1" d="M 45.523438 33.628906 C 45.757812 33.4375 45.949219 33.164062 45.949219 32.894531 C 45.949219 32.433594 45.523438 32.007812 45.0625 32.007812 C 44.714844 32.007812 44.445312 32.28125 44.332031 32.433594 L 41.363281 36.171875 L 41.785156 36.632812 Z M 45.523438 33.628906 "/>
<path fill-rule="nonzero" fill="rgb(0%, 0%, 0%)" fill-opacity="1" d="M 44.484375 47.3125 C 44.601562 48.273438 45.253906 49.316406 46.410156 49.316406 C 46.949219 49.316406 48.453125 48.96875 48.453125 46.964844 L 48.453125 45.578125 L 47.835938 45.578125 L 47.835938 46.964844 C 47.835938 48.390625 47.222656 48.542969 46.949219 48.542969 C 46.140625 48.542969 46.027344 47.425781 46.027344 47.3125 L 46.027344 42.414062 C 46.027344 41.375 46.027344 40.410156 45.140625 39.488281 C 44.175781 38.523438 42.941406 38.136719 41.785156 38.136719 C 39.742188 38.136719 38.046875 39.292969 38.046875 40.914062 C 38.046875 41.644531 38.550781 42.070312 39.203125 42.070312 C 39.898438 42.070312 40.320312 41.566406 40.320312 40.953125 C 40.320312 40.644531 40.207031 39.832031 39.050781 39.832031 C 39.742188 38.945312 40.9375 38.675781 41.710938 38.675781 C 42.941406 38.675781 44.332031 39.640625 44.332031 41.835938 L 44.332031 42.722656 C 43.058594 42.800781 41.363281 42.878906 39.820312 43.609375 C 37.972656 44.457031 37.355469 45.730469 37.355469 46.808594 C 37.355469 48.8125 39.742188 49.429688 41.285156 49.429688 C 42.902344 49.429688 44.023438 48.429688 44.484375 47.3125 Z M 44.332031 43.265625 L 44.332031 45.730469 C 44.332031 48.042969 42.558594 48.890625 41.441406 48.890625 C 40.246094 48.890625 39.242188 48.042969 39.242188 46.808594 C 39.242188 45.460938 40.285156 43.417969 44.332031 43.265625 Z M 44.332031 43.265625 "/>
<path fill-rule="nonzero" fill="rgb(0%, 0%, 0%)" fill-opacity="1" d="M 66.996094 40.988281 C 67.230469 40.410156 67.652344 39.332031 69.269531 39.332031 L 69.269531 38.5625 C 68.691406 38.601562 68 38.640625 67.421875 38.640625 C 66.84375 38.640625 65.726562 38.601562 65.300781 38.5625 L 65.300781 39.332031 C 66.1875 39.332031 66.457031 39.910156 66.457031 40.375 C 66.457031 40.605469 66.417969 40.71875 66.34375 40.988281 L 63.796875 47.234375 L 61.0625 40.375 C 60.90625 40.066406 60.90625 40.027344 60.90625 39.949219 C 60.90625 39.332031 61.871094 39.332031 62.332031 39.332031 L 62.332031 38.5625 C 61.5625 38.601562 60.214844 38.640625 59.636719 38.640625 C 58.980469 38.640625 57.980469 38.601562 57.246094 38.5625 L 57.246094 39.332031 C 58.789062 39.332031 58.902344 39.488281 59.210938 40.21875 L 62.757812 48.96875 C 62.910156 49.316406 62.949219 49.429688 63.257812 49.429688 C 63.605469 49.429688 63.683594 49.199219 63.796875 48.96875 Z M 66.996094 40.988281 "/>
<path fill-rule="nonzero" fill="rgb(0%, 0%, 0%)" fill-opacity="1" d="M 76.574219 47.3125 C 76.6875 48.273438 77.34375 49.316406 78.5 49.316406 C 79.039062 49.316406 80.542969 48.96875 80.542969 46.964844 L 80.542969 45.578125 L 79.925781 45.578125 L 79.925781 46.964844 C 79.925781 48.390625 79.308594 48.542969 79.039062 48.542969 C 78.230469 48.542969 78.117188 47.425781 78.117188 47.3125 L 78.117188 42.414062 C 78.117188 41.375 78.117188 40.410156 77.230469 39.488281 C 76.265625 38.523438 75.03125 38.136719 73.875 38.136719 C 71.832031 38.136719 70.136719 39.292969 70.136719 40.914062 C 70.136719 41.644531 70.636719 42.070312 71.292969 42.070312 C 71.988281 42.070312 72.410156 41.566406 72.410156 40.953125 C 72.410156 40.644531 72.296875 39.832031 71.140625 39.832031 C 71.832031 38.945312 73.027344 38.675781 73.796875 38.675781 C 75.03125 38.675781 76.417969 39.640625 76.417969 41.835938 L 76.417969 42.722656 C 75.148438 42.800781 73.453125 42.878906 71.910156 43.609375 C 70.058594 44.457031 69.445312 45.730469 69.445312 46.808594 C 69.445312 48.8125 71.832031 49.429688 73.375 49.429688 C 74.992188 49.429688 76.109375 48.429688 76.574219 47.3125 Z M 76.417969 43.265625 L 76.417969 45.730469 C 76.417969 48.042969 74.648438 48.890625 73.527344 48.890625 C 72.335938 48.890625 71.332031 48.042969 71.332031 46.808594 C 71.332031 45.460938 72.371094 43.417969 76.417969 43.265625 Z M 76.417969 43.265625 "/>
<path fill-rule="nonzero" fill="rgb(0%, 0%, 0%)" fill-opacity="1" d="M 93.226562 32.085938 L 89.683594 32.355469 L 89.683594 33.128906 C 91.417969 33.128906 91.609375 33.28125 91.609375 34.515625 L 91.609375 47.3125 C 91.609375 48.390625 91.339844 48.390625 89.683594 48.390625 L 89.683594 49.160156 C 90.492188 49.121094 91.800781 49.082031 92.417969 49.082031 C 93.035156 49.082031 94.230469 49.121094 95.15625 49.160156 L 95.15625 48.390625 C 93.5 48.390625 93.226562 48.390625 93.226562 47.3125 Z M 93.226562 32.085938 "/>
<path fill-rule="nonzero" fill="rgb(0%, 0%, 0%)" fill-opacity="1" d="M 103.871094 47.3125 C 103.988281 48.273438 104.640625 49.316406 105.796875 49.316406 C 106.335938 49.316406 107.839844 48.96875 107.839844 46.964844 L 107.839844 45.578125 L 107.222656 45.578125 L 107.222656 46.964844 C 107.222656 48.390625 106.605469 48.542969 106.335938 48.542969 C 105.527344 48.542969 105.414062 47.425781 105.414062 47.3125 L 105.414062 42.414062 C 105.414062 41.375 105.414062 40.410156 104.527344 39.488281 C 103.5625 38.523438 102.328125 38.136719 101.171875 38.136719 C 99.128906 38.136719 97.433594 39.292969 97.433594 40.914062 C 97.433594 41.644531 97.933594 42.070312 98.589844 42.070312 C 99.285156 42.070312 99.707031 41.566406 99.707031 40.953125 C 99.707031 40.644531 99.59375 39.832031 98.4375 39.832031 C 99.128906 38.945312 100.324219 38.675781 101.097656 38.675781 C 102.328125 38.675781 103.714844 39.640625 103.714844 41.835938 L 103.714844 42.722656 C 102.445312 42.800781 100.75 42.878906 99.207031 43.609375 C 97.355469 44.457031 96.742188 45.730469 96.742188 46.808594 C 96.742188 48.8125 99.128906 49.429688 100.671875 49.429688 C 102.289062 49.429688 103.410156 48.429688 103.871094 47.3125 Z M 103.714844 43.265625 L 103.714844 45.730469 C 103.714844 48.042969 101.945312 48.890625 100.824219 48.890625 C 99.632812 48.890625 98.628906 48.042969 98.628906 46.808594 C 98.628906 45.460938 99.667969 43.417969 103.714844 43.265625 Z M 103.714844 43.265625 "/>
<path fill-rule="nonzero" fill="rgb(0%, 0%, 0%)" fill-opacity="1" d="M 118.90625 42.957031 C 119.0625 39.292969 121.140625 38.675781 121.992188 38.675781 C 124.496094 38.675781 124.765625 41.992188 124.765625 42.957031 Z M 118.90625 43.496094 L 125.765625 43.496094 C 126.308594 43.496094 126.382812 43.496094 126.382812 42.957031 C 126.382812 40.527344 125.035156 38.136719 121.992188 38.136719 C 119.136719 38.136719 116.863281 40.679688 116.863281 43.765625 C 116.863281 47.039062 119.445312 49.429688 122.261719 49.429688 C 125.265625 49.429688 126.382812 46.695312 126.382812 46.230469 C 126.382812 46 126.191406 45.921875 126.039062 45.921875 C 125.84375 45.921875 125.765625 46.078125 125.730469 46.269531 C 124.882812 48.8125 122.644531 48.8125 122.414062 48.8125 C 121.179688 48.8125 120.21875 48.082031 119.640625 47.15625 C 118.90625 46 118.90625 44.382812 118.90625 43.496094 Z M 118.90625 43.496094 "/>
<path fill-rule="nonzero" fill="rgb(0%, 0%, 0%)" fill-opacity="1" d="M 131.355469 39.332031 L 134.902344 39.332031 L 134.902344 38.5625 L 131.355469 38.5625 L 131.355469 34.050781 L 130.738281 34.050781 C 130.738281 36.054688 130.007812 38.675781 127.578125 38.792969 L 127.578125 39.332031 L 129.660156 39.332031 L 129.660156 46.117188 C 129.660156 49.121094 131.972656 49.429688 132.859375 49.429688 C 134.59375 49.429688 135.285156 47.695312 135.285156 46.117188 L 135.285156 44.726562 L 134.671875 44.726562 L 134.671875 46.078125 C 134.671875 47.890625 133.9375 48.8125 133.011719 48.8125 C 131.355469 48.8125 131.355469 46.578125 131.355469 46.15625 Z M 131.355469 39.332031 "/>
<path fill-rule="nonzero" fill="rgb(0%, 0%, 0%)" fill-opacity="1" d="M 141.027344 38.292969 L 137.597656 38.5625 L 137.597656 39.332031 C 139.179688 39.332031 139.410156 39.488281 139.410156 40.679688 L 139.410156 47.3125 C 139.410156 48.390625 139.140625 48.390625 137.480469 48.390625 L 137.480469 49.160156 C 138.253906 49.121094 139.601562 49.082031 140.179688 49.082031 C 141.066406 49.082031 141.914062 49.121094 142.761719 49.160156 L 142.761719 48.390625 C 141.105469 48.390625 141.027344 48.273438 141.027344 47.3125 Z M 141.105469 34.015625 C 141.105469 33.242188 140.527344 32.703125 139.832031 32.703125 C 139.0625 32.703125 138.523438 33.359375 138.523438 34.015625 C 138.523438 34.667969 139.0625 35.324219 139.832031 35.324219 C 140.527344 35.324219 141.105469 34.785156 141.105469 34.015625 Z M 141.105469 34.015625 "/>
<path fill-rule="nonzero" fill="rgb(0%, 0%, 0%)" fill-opacity="1" d="M 152.800781 47.65625 L 152.800781 52.050781 C 152.800781 53.167969 152.53125 53.167969 150.914062 53.167969 L 150.914062 53.941406 C 151.722656 53.902344 153.035156 53.863281 153.648438 53.863281 C 154.304688 53.863281 155.578125 53.902344 156.425781 53.941406 L 156.425781 53.167969 C 154.769531 53.167969 154.496094 53.167969 154.496094 52.050781 L 154.496094 38.292969 L 153.957031 38.292969 L 153.035156 40.527344 C 152.726562 39.832031 151.722656 38.292969 149.757812 38.292969 C 146.90625 38.292969 144.324219 40.679688 144.324219 43.878906 C 144.324219 46.964844 146.710938 49.429688 149.566406 49.429688 C 151.261719 49.429688 152.261719 48.390625 152.800781 47.65625 Z M 152.878906 42.339844 L 152.878906 45.808594 C 152.878906 46.617188 152.457031 47.3125 151.914062 47.890625 C 151.605469 48.234375 150.796875 48.890625 149.640625 48.890625 C 147.867188 48.890625 146.367188 46.695312 146.367188 43.878906 C 146.367188 40.953125 148.0625 38.910156 149.910156 38.910156 C 151.878906 38.910156 152.878906 41.027344 152.878906 42.339844 Z M 152.878906 42.339844 "/>
<path fill-rule="nonzero" fill="rgb(0%, 0%, 0%)" fill-opacity="1" d="M 166.042969 47.234375 L 166.042969 49.429688 L 169.589844 49.160156 L 169.589844 48.390625 C 167.890625 48.390625 167.699219 48.234375 167.699219 47.003906 L 167.699219 38.292969 L 164.078125 38.5625 L 164.078125 39.332031 C 165.773438 39.332031 166.003906 39.488281 166.003906 40.71875 L 166.003906 45.074219 C 166.003906 47.234375 164.808594 48.890625 162.996094 48.890625 C 160.953125 48.890625 160.839844 47.734375 160.839844 46.460938 L 160.839844 38.292969 L 157.214844 38.5625 L 157.214844 39.332031 C 159.144531 39.332031 159.144531 39.410156 159.144531 41.566406 L 159.144531 45.269531 C 159.144531 47.195312 159.144531 49.429688 162.882812 49.429688 C 164.269531 49.429688 165.347656 48.738281 166.042969 47.234375 Z M 166.042969 47.234375 "/>
<path fill-rule="nonzero" fill="rgb(0%, 0%, 0%)" fill-opacity="1" d="M 172.835938 42.957031 C 172.988281 39.292969 175.070312 38.675781 175.917969 38.675781 C 178.425781 38.675781 178.695312 41.992188 178.695312 42.957031 Z M 172.835938 43.496094 L 179.695312 43.496094 C 180.234375 43.496094 180.3125 43.496094 180.3125 42.957031 C 180.3125 40.527344 178.964844 38.136719 175.917969 38.136719 C 173.066406 38.136719 170.792969 40.679688 170.792969 43.765625 C 170.792969 47.039062 173.375 49.429688 176.1875 49.429688 C 179.195312 49.429688 180.3125 46.695312 180.3125 46.230469 C 180.3125 46 180.121094 45.921875 179.964844 45.921875 C 179.773438 45.921875 179.695312 46.078125 179.65625 46.269531 C 178.808594 48.8125 176.574219 48.8125 176.34375 48.8125 C 175.109375 48.8125 174.144531 48.082031 173.566406 47.15625 C 172.835938 46 172.835938 44.382812 172.835938 43.496094 Z M 172.835938 43.496094 "/>
<path fill-rule="nonzero" fill="rgb(0%, 0%, 0%)" fill-opacity="1" d="M 185.257812 39.332031 L 188.804688 39.332031 L 188.804688 38.5625 L 185.257812 38.5625 L 185.257812 34.050781 L 184.644531 34.050781 C 184.644531 36.054688 183.910156 38.675781 181.480469 38.792969 L 181.480469 39.332031 L 183.5625 39.332031 L 183.5625 46.117188 C 183.5625 49.121094 185.875 49.429688 186.761719 49.429688 C 188.496094 49.429688 189.191406 47.695312 189.191406 46.117188 L 189.191406 44.726562 L 188.574219 44.726562 L 188.574219 46.078125 C 188.574219 47.890625 187.839844 48.8125 186.917969 48.8125 C 185.257812 48.8125 185.257812 46.578125 185.257812 46.15625 Z M 185.257812 39.332031 "/>
<path fill-rule="nonzero" fill="rgb(0%, 0%, 0%)" fill-opacity="1" d="M 198.746094 47.3125 C 198.863281 48.273438 199.519531 49.316406 200.675781 49.316406 C 201.214844 49.316406 202.71875 48.96875 202.71875 46.964844 L 202.71875 45.578125 L 202.101562 45.578125 L 202.101562 46.964844 C 202.101562 48.390625 201.484375 48.542969 201.214844 48.542969 C 200.40625 48.542969 200.289062 47.425781 200.289062 47.3125 L 200.289062 42.414062 C 200.289062 41.375 200.289062 40.410156 199.402344 39.488281 C 198.4375 38.523438 197.207031 38.136719 196.050781 38.136719 C 194.007812 38.136719 192.3125 39.292969 192.3125 40.914062 C 192.3125 41.644531 192.8125 42.070312 193.46875 42.070312 C 194.160156 42.070312 194.585938 41.566406 194.585938 40.953125 C 194.585938 40.644531 194.46875 39.832031 193.3125 39.832031 C 194.007812 38.945312 195.203125 38.675781 195.972656 38.675781 C 197.207031 38.675781 198.59375 39.640625 198.59375 41.835938 L 198.59375 42.722656 C 197.320312 42.800781 195.625 42.878906 194.085938 43.609375 C 192.234375 44.457031 191.617188 45.730469 191.617188 46.808594 C 191.617188 48.8125 194.007812 49.429688 195.546875 49.429688 C 197.167969 49.429688 198.285156 48.429688 198.746094 47.3125 Z M 198.59375 43.265625 L 198.59375 45.730469 C 198.59375 48.042969 196.820312 48.890625 195.703125 48.890625 C 194.507812 48.890625 193.507812 48.042969 193.507812 46.808594 C 193.507812 45.460938 194.546875 43.417969 198.59375 43.265625 Z M 198.59375 43.265625 "/>
<path fill="none" stroke-width="0.3487" stroke-linecap="round" stroke-linejoin="miter" stroke="rgb(0%, 0%, 0%)" stroke-opacity="1" stroke-miterlimit="10" d="M 8.505017 -3.486888 L 8.505017 3.485769 Z M 8.505017 -3.486888 " transform="matrix(2.466667, 0, 0, -2.466667, 222.044394, 43.016198)"/>
<path fill="none" stroke-width="0.3487" stroke-linecap="round" stroke-linejoin="miter" stroke="rgb(0%, 0%, 0%)" stroke-opacity="1" stroke-miterlimit="10" d="M 40.251745 -3.486888 L 40.251745 3.485769 Z M 40.251745 -3.486888 " transform="matrix(2.466667, 0, 0, -2.466667, 222.044394, 43.016198)"/>
<path fill="none" stroke-width="0.3487" stroke-linecap="round" stroke-linejoin="miter" stroke="rgb(0%, 0%, 0%)" stroke-opacity="1" stroke-miterlimit="10" d="M 72.001639 -3.486888 L 72.001639 3.485769 Z M 72.001639 -3.486888 " transform="matrix(2.466667, 0, 0, -2.466667, 222.044394, 43.016198)"/>
<path fill="none" stroke-width="0.3487" stroke-linecap="round" stroke-linejoin="miter" stroke="rgb(0%, 0%, 0%)" stroke-opacity="1" stroke-miterlimit="10" d="M 103.748366 -3.486888 L 103.748366 3.485769 Z M 103.748366 -3.486888 " transform="matrix(2.466667, 0, 0, -2.466667, 222.044394, 43.016198)"/>
<path fill="none" stroke-width="0.3487" stroke-linecap="round" stroke-linejoin="miter" stroke="rgb(0%, 0%, 0%)" stroke-opacity="1" stroke-miterlimit="10" d="M 135.498261 -3.486888 L 135.498261 3.485769 Z M 135.498261 -3.486888 " transform="matrix(2.466667, 0, 0, -2.466667, 222.044394, 43.016198)"/>
<path fill="none" stroke-width="0.3487" stroke-linecap="round" stroke-linejoin="miter" stroke="rgb(0%, 0%, 0%)" stroke-opacity="1" stroke-miterlimit="10" d="M 167.248155 -3.486888 L 167.248155 3.485769 Z M 167.248155 -3.486888 " transform="matrix(2.466667, 0, 0, -2.466667, 222.044394, 43.016198)"/>
<path fill-rule="nonzero" fill="rgb(0%, 0%, 0%)" fill-opacity="1" d="M 238.914062 20.53125 C 238.914062 18.644531 238.683594 17.257812 237.914062 16.0625 C 237.375 15.292969 236.296875 14.597656 234.945312 14.597656 C 230.9375 14.597656 230.9375 19.300781 230.9375 20.53125 C 230.9375 21.765625 230.9375 26.351562 234.945312 26.351562 C 238.914062 26.351562 238.914062 21.765625 238.914062 20.53125 Z M 234.945312 25.851562 C 234.136719 25.851562 233.097656 25.390625 232.75 24 C 232.519531 23 232.519531 21.574219 232.519531 20.300781 C 232.519531 19.03125 232.519531 17.71875 232.75 16.792969 C 233.132812 15.445312 234.214844 15.058594 234.945312 15.058594 C 235.871094 15.058594 236.757812 15.636719 237.066406 16.640625 C 237.335938 17.566406 237.375 18.796875 237.375 20.300781 C 237.375 21.574219 237.375 22.84375 237.144531 23.925781 C 236.796875 25.503906 235.640625 25.851562 234.945312 25.851562 Z M 234.945312 25.851562 "/>
<path fill-rule="nonzero" fill="rgb(0%, 0%, 0%)" fill-opacity="1" d="M 254.761719 23.5 C 254.761719 21.535156 253.644531 20.03125 252.257812 20.03125 C 250.832031 20.03125 249.484375 21.496094 249.484375 23.5 C 249.484375 25.582031 250.871094 26.96875 252.257812 26.96875 C 253.644531 26.96875 254.761719 25.429688 254.761719 23.5 Z M 252.296875 26.46875 C 251.988281 26.46875 250.714844 26.351562 250.714844 23.5 C 250.714844 20.609375 251.988281 20.53125 252.296875 20.53125 C 253.222656 20.53125 254.183594 21.765625 254.183594 23.5 C 254.183594 25.273438 253.222656 26.46875 252.296875 26.46875 Z M 252.992188 13.902344 C 253.183594 13.710938 253.183594 13.59375 253.183594 13.558594 C 253.183594 13.25 252.914062 13.132812 252.757812 13.132812 C 252.71875 13.132812 252.566406 13.132812 252.414062 13.289062 C 252.027344 13.75 250.984375 15.023438 248.789062 15.023438 C 247.554688 15.023438 246.359375 14.636719 245.128906 13.632812 C 244.703125 13.289062 244.320312 13.132812 243.816406 13.132812 C 242.390625 13.132812 241.042969 14.558594 241.042969 16.5625 C 241.042969 18.644531 242.429688 20.03125 243.816406 20.03125 C 245.203125 20.03125 246.324219 18.527344 246.324219 16.601562 C 246.324219 16.253906 246.285156 15.523438 245.976562 14.789062 C 247.015625 15.328125 247.980469 15.484375 248.828125 15.484375 C 249.636719 15.484375 250.40625 15.328125 251.101562 14.984375 L 251.140625 15.023438 L 242.816406 26.160156 C 242.699219 26.351562 242.621094 26.390625 242.621094 26.546875 C 242.621094 26.816406 242.816406 26.96875 243.046875 26.96875 C 243.277344 26.96875 243.355469 26.816406 243.46875 26.699219 Z M 243.855469 19.570312 C 243.546875 19.570312 242.277344 19.453125 242.277344 16.601562 C 242.277344 13.710938 243.546875 13.59375 243.855469 13.59375 C 244.78125 13.59375 245.746094 14.828125 245.746094 16.5625 C 245.746094 18.375 244.78125 19.570312 243.855469 19.570312 Z M 243.855469 19.570312 "/>
<path fill-rule="nonzero" fill="rgb(0%, 0%, 0%)" fill-opacity="1" d="M 312.136719 22.882812 L 311.558594 22.882812 C 311.523438 23.269531 311.328125 24.273438 311.097656 24.425781 C 310.980469 24.542969 309.671875 24.542969 309.402344 24.542969 L 306.242188 24.542969 C 308.054688 22.960938 308.667969 22.460938 309.671875 21.652344 C 310.945312 20.648438 312.136719 19.570312 312.136719 17.949219 C 312.136719 15.871094 310.328125 14.597656 308.128906 14.597656 C 306.011719 14.597656 304.546875 16.101562 304.546875 17.679688 C 304.546875 18.527344 305.277344 18.644531 305.472656 18.644531 C 305.855469 18.644531 306.355469 18.335938 306.355469 17.71875 C 306.355469 17.410156 306.242188 16.792969 305.355469 16.792969 C 305.894531 15.601562 307.050781 15.214844 307.859375 15.214844 C 309.59375 15.214844 310.480469 16.5625 310.480469 17.949219 C 310.480469 19.453125 309.402344 20.609375 308.863281 21.226562 L 304.738281 25.351562 C 304.546875 25.503906 304.546875 25.542969 304.546875 26.007812 L 311.636719 26.007812 Z M 312.136719 22.882812 "/>
<path fill-rule="nonzero" fill="rgb(0%, 0%, 0%)" fill-opacity="1" d="M 322.128906 20.53125 C 322.128906 18.644531 321.898438 17.257812 321.125 16.0625 C 320.585938 15.292969 319.507812 14.597656 318.15625 14.597656 C 314.148438 14.597656 314.148438 19.300781 314.148438 20.53125 C 314.148438 21.765625 314.148438 26.351562 318.15625 26.351562 C 322.128906 26.351562 322.128906 21.765625 322.128906 20.53125 Z M 318.15625 25.851562 C 317.347656 25.851562 316.308594 25.390625 315.960938 24 C 315.730469 23 315.730469 21.574219 315.730469 20.300781 C 315.730469 19.03125 315.730469 17.71875 315.960938 16.792969 C 316.347656 15.445312 317.425781 15.058594 318.15625 15.058594 C 319.082031 15.058594 319.96875 15.636719 320.277344 16.640625 C 320.546875 17.566406 320.585938 18.796875 320.585938 20.300781 C 320.585938 21.574219 320.585938 22.84375 320.355469 23.925781 C 320.007812 25.503906 318.851562 25.851562 318.15625 25.851562 Z M 318.15625 25.851562 "/>
<path fill-rule="nonzero" fill="rgb(0%, 0%, 0%)" fill-opacity="1" d="M 337.976562 23.5 C 337.976562 21.535156 336.859375 20.03125 335.46875 20.03125 C 334.042969 20.03125 332.695312 21.496094 332.695312 23.5 C 332.695312 25.582031 334.082031 26.96875 335.46875 26.96875 C 336.859375 26.96875 337.976562 25.429688 337.976562 23.5 Z M 335.507812 26.46875 C 335.199219 26.46875 333.929688 26.351562 333.929688 23.5 C 333.929688 20.609375 335.199219 20.53125 335.507812 20.53125 C 336.433594 20.53125 337.398438 21.765625 337.398438 23.5 C 337.398438 25.273438 336.433594 26.46875 335.507812 26.46875 Z M 336.203125 13.902344 C 336.394531 13.710938 336.394531 13.59375 336.394531 13.558594 C 336.394531 13.25 336.125 13.132812 335.972656 13.132812 C 335.933594 13.132812 335.777344 13.132812 335.625 13.289062 C 335.238281 13.75 334.199219 15.023438 332 15.023438 C 330.769531 15.023438 329.574219 14.636719 328.339844 13.632812 C 327.914062 13.289062 327.53125 13.132812 327.03125 13.132812 C 325.601562 13.132812 324.253906 14.558594 324.253906 16.5625 C 324.253906 18.644531 325.640625 20.03125 327.03125 20.03125 C 328.417969 20.03125 329.535156 18.527344 329.535156 16.601562 C 329.535156 16.253906 329.496094 15.523438 329.1875 14.789062 C 330.226562 15.328125 331.191406 15.484375 332.039062 15.484375 C 332.847656 15.484375 333.621094 15.328125 334.3125 14.984375 L 334.351562 15.023438 L 326.027344 26.160156 C 325.910156 26.351562 325.835938 26.390625 325.835938 26.546875 C 325.835938 26.816406 326.027344 26.96875 326.257812 26.96875 C 326.488281 26.96875 326.566406 26.816406 326.683594 26.699219 Z M 327.066406 19.570312 C 326.757812 19.570312 325.488281 19.453125 325.488281 16.601562 C 325.488281 13.710938 326.757812 13.59375 327.066406 13.59375 C 327.992188 13.59375 328.957031 14.828125 328.957031 16.5625 C 328.957031 18.375 327.992188 19.570312 327.066406 19.570312 Z M 327.066406 19.570312 "/>
<path fill-rule="nonzero" fill="rgb(0%, 0%, 0%)" fill-opacity="1" d="M 462.671875 20.378906 C 462.671875 18.992188 462.789062 17.71875 463.441406 16.640625 C 464.019531 15.714844 464.945312 15.097656 466.0625 15.097656 C 466.566406 15.097656 467.257812 15.214844 467.605469 15.675781 C 467.183594 15.714844 466.796875 16.023438 466.796875 16.523438 C 466.796875 16.949219 467.105469 17.335938 467.605469 17.335938 C 468.144531 17.335938 468.453125 16.988281 468.453125 16.484375 C 468.453125 15.484375 467.722656 14.597656 466.027344 14.597656 C 463.558594 14.597656 461.015625 16.871094 461.015625 20.570312 C 461.015625 25.003906 463.097656 26.351562 465.023438 26.351562 C 467.105469 26.351562 468.917969 24.734375 468.917969 22.5 C 468.917969 20.300781 467.183594 18.683594 465.175781 18.683594 C 463.789062 18.683594 463.058594 19.609375 462.671875 20.378906 Z M 465.023438 25.8125 C 464.136719 25.8125 463.480469 25.3125 463.097656 24.542969 C 462.863281 24.039062 462.710938 23.152344 462.710938 22.152344 C 462.710938 20.457031 463.714844 19.183594 465.101562 19.183594 C 465.871094 19.183594 466.410156 19.492188 466.835938 20.109375 C 467.257812 20.765625 467.257812 21.496094 467.257812 22.5 C 467.257812 23.460938 467.257812 24.195312 466.796875 24.886719 C 466.410156 25.464844 465.832031 25.8125 465.023438 25.8125 Z M 465.023438 25.8125 "/>
<path fill-rule="nonzero" fill="rgb(0%, 0%, 0%)" fill-opacity="1" d="M 478.75 20.53125 C 478.75 18.644531 478.519531 17.257812 477.75 16.0625 C 477.210938 15.292969 476.128906 14.597656 474.78125 14.597656 C 470.773438 14.597656 470.773438 19.300781 470.773438 20.53125 C 470.773438 21.765625 470.773438 26.351562 474.78125 26.351562 C 478.75 26.351562 478.75 21.765625 478.75 20.53125 Z M 474.78125 25.851562 C 473.972656 25.851562 472.929688 25.390625 472.585938 24 C 472.351562 23 472.351562 21.574219 472.351562 20.300781 C 472.351562 19.03125 472.351562 17.71875 472.585938 16.792969 C 472.96875 15.445312 474.050781 15.058594 474.78125 15.058594 C 475.707031 15.058594 476.59375 15.636719 476.902344 16.640625 C 477.171875 17.566406 477.210938 18.796875 477.210938 20.300781 C 477.210938 21.574219 477.210938 22.84375 476.976562 23.925781 C 476.632812 25.503906 475.476562 25.851562 474.78125 25.851562 Z M 474.78125 25.851562 "/>
<path fill-rule="nonzero" fill="rgb(0%, 0%, 0%)" fill-opacity="1" d="M 494.597656 23.5 C 494.597656 21.535156 493.480469 20.03125 492.09375 20.03125 C 490.667969 20.03125 489.320312 21.496094 489.320312 23.5 C 489.320312 25.582031 490.707031 26.96875 492.09375 26.96875 C 493.480469 26.96875 494.597656 25.429688 494.597656 23.5 Z M 492.132812 26.46875 C 491.824219 26.46875 490.550781 26.351562 490.550781 23.5 C 490.550781 20.609375 491.824219 20.53125 492.132812 20.53125 C 493.058594 20.53125 494.019531 21.765625 494.019531 23.5 C 494.019531 25.273438 493.058594 26.46875 492.132812 26.46875 Z M 492.824219 13.902344 C 493.019531 13.710938 493.019531 13.59375 493.019531 13.558594 C 493.019531 13.25 492.75 13.132812 492.59375 13.132812 C 492.554688 13.132812 492.402344 13.132812 492.246094 13.289062 C 491.863281 13.75 490.820312 15.023438 488.625 15.023438 C 487.390625 15.023438 486.195312 14.636719 484.964844 13.632812 C 484.539062 13.289062 484.152344 13.132812 483.652344 13.132812 C 482.226562 13.132812 480.878906 14.558594 480.878906 16.5625 C 480.878906 18.644531 482.265625 20.03125 483.652344 20.03125 C 485.039062 20.03125 486.15625 18.527344 486.15625 16.601562 C 486.15625 16.253906 486.121094 15.523438 485.8125 14.789062 C 486.851562 15.328125 487.816406 15.484375 488.664062 15.484375 C 489.472656 15.484375 490.242188 15.328125 490.9375 14.984375 L 490.976562 15.023438 L 482.652344 26.160156 C 482.535156 26.351562 482.457031 26.390625 482.457031 26.546875 C 482.457031 26.816406 482.652344 26.96875 482.882812 26.96875 C 483.113281 26.96875 483.191406 26.816406 483.304688 26.699219 Z M 483.691406 19.570312 C 483.382812 19.570312 482.109375 19.453125 482.109375 16.601562 C 482.109375 13.710938 483.382812 13.59375 483.691406 13.59375 C 484.617188 13.59375 485.578125 14.828125 485.578125 16.5625 C 485.578125 18.375 484.617188 19.570312 483.691406 19.570312 Z M 483.691406 19.570312 "/>
<path fill-rule="nonzero" fill="rgb(0%, 0%, 0%)" fill-opacity="1" d="M 617.558594 15.058594 C 617.558594 14.597656 617.558594 14.597656 617.054688 14.597656 C 615.9375 15.675781 614.398438 15.675781 613.703125 15.675781 L 613.703125 16.292969 C 614.089844 16.292969 615.246094 16.292969 616.171875 15.832031 L 616.171875 24.578125 C 616.171875 25.15625 616.171875 25.390625 614.472656 25.390625 L 613.820312 25.390625 L 613.820312 26.007812 C 614.128906 26.007812 616.246094 25.929688 616.863281 25.929688 C 617.402344 25.929688 619.5625 26.007812 619.945312 26.007812 L 619.945312 25.390625 L 619.292969 25.390625 C 617.558594 25.390625 617.558594 25.15625 617.558594 24.578125 Z M 617.558594 15.058594 "/>
<path fill-rule="nonzero" fill="rgb(0%, 0%, 0%)" fill-opacity="1" d="M 630.476562 20.53125 C 630.476562 18.644531 630.246094 17.257812 629.472656 16.0625 C 628.933594 15.292969 627.855469 14.597656 626.507812 14.597656 C 622.496094 14.597656 622.496094 19.300781 622.496094 20.53125 C 622.496094 21.765625 622.496094 26.351562 626.507812 26.351562 C 630.476562 26.351562 630.476562 21.765625 630.476562 20.53125 Z M 626.507812 25.851562 C 625.695312 25.851562 624.65625 25.390625 624.308594 24 C 624.078125 23 624.078125 21.574219 624.078125 20.300781 C 624.078125 19.03125 624.078125 17.71875 624.308594 16.792969 C 624.695312 15.445312 625.773438 15.058594 626.507812 15.058594 C 627.429688 15.058594 628.316406 15.636719 628.625 16.640625 C 628.894531 17.566406 628.933594 18.796875 628.933594 20.300781 C 628.933594 21.574219 628.933594 22.84375 628.703125 23.925781 C 628.355469 25.503906 627.199219 25.851562 626.507812 25.851562 Z M 626.507812 25.851562 "/>
<path fill-rule="nonzero" fill="rgb(0%, 0%, 0%)" fill-opacity="1" d="M 640.273438 20.53125 C 640.273438 18.644531 640.042969 17.257812 639.269531 16.0625 C 638.730469 15.292969 637.652344 14.597656 636.300781 14.597656 C 632.292969 14.597656 632.292969 19.300781 632.292969 20.53125 C 632.292969 21.765625 632.292969 26.351562 636.300781 26.351562 C 640.273438 26.351562 640.273438 21.765625 640.273438 20.53125 Z M 636.300781 25.851562 C 635.492188 25.851562 634.453125 25.390625 634.105469 24 C 633.875 23 633.875 21.574219 633.875 20.300781 C 633.875 19.03125 633.875 17.71875 634.105469 16.792969 C 634.492188 15.445312 635.570312 15.058594 636.300781 15.058594 C 637.226562 15.058594 638.113281 15.636719 638.421875 16.640625 C 638.691406 17.566406 638.730469 18.796875 638.730469 20.300781 C 638.730469 21.574219 638.730469 22.84375 638.5 23.925781 C 638.152344 25.503906 636.996094 25.851562 636.300781 25.851562 Z M 636.300781 25.851562 "/>
<path fill-rule="nonzero" fill="rgb(0%, 0%, 0%)" fill-opacity="1" d="M 656.121094 23.5 C 656.121094 21.535156 655.003906 20.03125 653.613281 20.03125 C 652.1875 20.03125 650.839844 21.496094 650.839844 23.5 C 650.839844 25.582031 652.226562 26.96875 653.613281 26.96875 C 655.003906 26.96875 656.121094 25.429688 656.121094 23.5 Z M 653.652344 26.46875 C 653.34375 26.46875 652.074219 26.351562 652.074219 23.5 C 652.074219 20.609375 653.34375 20.53125 653.652344 20.53125 C 654.578125 20.53125 655.542969 21.765625 655.542969 23.5 C 655.542969 25.273438 654.578125 26.46875 653.652344 26.46875 Z M 654.347656 13.902344 C 654.539062 13.710938 654.539062 13.59375 654.539062 13.558594 C 654.539062 13.25 654.269531 13.132812 654.117188 13.132812 C 654.078125 13.132812 653.921875 13.132812 653.769531 13.289062 C 653.382812 13.75 652.34375 15.023438 650.144531 15.023438 C 648.914062 15.023438 647.71875 14.636719 646.484375 13.632812 C 646.0625 13.289062 645.675781 13.132812 645.175781 13.132812 C 643.75 13.132812 642.398438 14.558594 642.398438 16.5625 C 642.398438 18.644531 643.785156 20.03125 645.175781 20.03125 C 646.5625 20.03125 647.679688 18.527344 647.679688 16.601562 C 647.679688 16.253906 647.640625 15.523438 647.332031 14.789062 C 648.375 15.328125 649.335938 15.484375 650.183594 15.484375 C 650.992188 15.484375 651.765625 15.328125 652.457031 14.984375 L 652.496094 15.023438 L 644.171875 26.160156 C 644.054688 26.351562 643.980469 26.390625 643.980469 26.546875 C 643.980469 26.816406 644.171875 26.96875 644.402344 26.96875 C 644.632812 26.96875 644.710938 26.816406 644.828125 26.699219 Z M 645.210938 19.570312 C 644.90625 19.570312 643.632812 19.453125 643.632812 16.601562 C 643.632812 13.710938 644.90625 13.59375 645.210938 13.59375 C 646.136719 13.59375 647.101562 14.828125 647.101562 16.5625 C 647.101562 18.375 646.136719 19.570312 645.210938 19.570312 Z M 645.210938 19.570312 "/>
</svg>
