<?xml version="1.0" encoding="UTF-8"?>
<svg xmlns="http://www.w3.org/2000/svg" xmlns:xlink="http://www.w3.org/1999/xlink" width="640.255371" height="65.906866" viewBox="0 0 640.255371 65.906866">
<path fill="none" stroke-width="0.3985" stroke-linecap="butt" stroke-linejoin="miter" stroke="rgb(0%, 0%, 0%)" stroke-opacity="1" stroke-miterlimit="10" d="M -0.000330745 0.00164929 L 178.007482 0.00164929 " transform="matrix(2.466667, 0, 0, -2.466667, 190.848472, 41.879068)"/>
<path fill-rule="nonzero" fill="rgb(0%, 0%, 0%)" fill-opacity="1" d="M 634.859375 41.875 L 626.984375 37.945312 L 629.933594 41.875 L 626.984375 45.808594 "/>
<path fill-rule="nonzero" fill="rgb(0%, 0%, 0%)" fill-opacity="1" d="M 17.460938 30.949219 L 13.914062 31.21875 L 13.914062 31.988281 C 15.648438 31.988281 15.84375 32.144531 15.84375 33.378906 L 15.84375 46.171875 C 15.84375 47.253906 15.570312 47.253906 13.914062 47.253906 L 13.914062 48.023438 C 14.722656 47.984375 16.035156 47.945312 16.652344 47.945312 C 17.269531 47.945312 18.460938 47.984375 19.386719 48.023438 L 19.386719 47.253906 C 17.730469 47.253906 17.460938 47.253906 17.460938 46.171875 Z M 17.460938 30.949219 "/>
<path fill-rule="nonzero" fill="rgb(0%, 0%, 0%)" fill-opacity="1" d="M 28.101562 46.171875 C 28.21875 47.136719 28.875 48.175781 30.03125 48.175781 C 30.570312 48.175781 32.074219 47.832031 32.074219 45.828125 L 32.074219 44.4375 L 31.457031 44.4375 L 31.457031 45.828125 C 31.457031 47.253906 30.839844 47.40625 30.570312 47.40625 C 29.761719 47.40625 29.644531 46.289062 29.644531 46.171875 L 29.644531 41.277344 C 29.644531 40.238281 29.644531 39.273438 28.757812 38.347656 C 27.792969 37.386719 26.5625 37 25.40625 37 C 23.363281 37 21.667969 38.15625 21.667969 39.777344 C 21.667969 40.507812 22.167969 40.933594 22.824219 40.933594 C 23.515625 40.933594 23.941406 40.429688 23.941406 39.8125 C 23.941406 39.503906 23.824219 38.695312 22.667969 38.695312 C 23.363281 37.808594 24.558594 37.539062 25.328125 37.539062 C 26.5625 37.539062 27.949219 38.503906 27.949219 40.699219 L 27.949219 41.585938 C 26.675781 41.664062 24.980469 41.742188 23.441406 42.472656 C 21.589844 43.320312 20.972656 44.59375 20.972656 45.671875 C 20.972656 47.675781 23.363281 48.292969 24.902344 48.292969 C 26.523438 48.292969 27.640625 47.292969 28.101562 46.171875 Z M 27.949219 42.125 L 27.949219 44.59375 C 27.949219 46.90625 26.175781 47.753906 25.058594 47.753906 C 23.863281 47.753906 22.863281 46.90625 22.863281 45.671875 C 22.863281 44.324219 23.902344 42.28125 27.949219 42.125 Z M 27.949219 42.125 "/>
<path fill-rule="nonzero" fill="rgb(0%, 0%, 0%)" fill-opacity="1" d="M 36.457031 38.734375 L 36.457031 30.949219 L 32.914062 31.21875 L 32.914062 31.988281 C 34.648438 31.988281 34.839844 32.144531 34.839844 33.378906 L 34.839844 48.023438 L 35.457031 48.023438 C 35.457031 47.984375 35.648438 47.636719 36.34375 46.480469 C 36.691406 47.058594 37.730469 48.292969 39.542969 48.292969 C 42.472656 48.292969 45.015625 45.863281 45.015625 42.703125 C 45.015625 39.582031 42.625 37.15625 39.8125 37.15625 C 37.886719 37.15625 36.84375 38.3125 36.457031 38.734375 Z M 36.535156 45.210938 L 36.535156 40.160156 C 36.535156 39.699219 36.535156 39.660156 36.804688 39.273438 C 37.769531 37.886719 39.117188 37.695312 39.695312 37.695312 C 40.8125 37.695312 41.699219 38.347656 42.277344 39.273438 C 42.933594 40.277344 42.972656 41.664062 42.972656 42.703125 C 42.972656 43.589844 42.933594 45.054688 42.238281 46.171875 C 41.699219 46.945312 40.777344 47.753906 39.464844 47.753906 C 38.347656 47.753906 37.460938 47.175781 36.882812 46.25 C 36.535156 45.75 36.535156 45.671875 36.535156 45.210938 Z M 36.535156 45.210938 "/>
<path fill-rule="nonzero" fill="rgb(0%, 0%, 0%)" fill-opacity="1" d="M 49.296875 41.816406 C 49.453125 38.15625 51.53125 37.539062 52.378906 37.539062 C 54.886719 37.539062 55.15625 40.855469 55.15625 41.816406 Z M 49.296875 42.359375 L 56.15625 42.359375 C 56.699219 42.359375 56.773438 42.359375 56.773438 41.816406 C 56.773438 39.390625 55.425781 37 52.378906 37 C 49.527344 37 47.253906 39.542969 47.253906 42.628906 C 47.253906 45.902344 49.835938 48.292969 52.652344 48.292969 C 55.65625 48.292969 56.773438 45.558594 56.773438 45.09375 C 56.773438 44.863281 56.582031 44.785156 56.425781 44.785156 C 56.234375 44.785156 56.15625 44.941406 56.121094 45.132812 C 55.269531 47.675781 53.035156 47.675781 52.804688 47.675781 C 51.570312 47.675781 50.609375 46.945312 50.03125 46.019531 C 49.296875 44.863281 49.296875 43.246094 49.296875 42.359375 Z M 49.296875 42.359375 "/>
<path fill-rule="nonzero" fill="rgb(0%, 0%, 0%)" fill-opacity="1" d="M 61.835938 30.949219 L 58.292969 31.21875 L 58.292969 31.988281 C 60.027344 31.988281 60.21875 32.144531 60.21875 33.378906 L 60.21875 46.171875 C 60.21875 47.253906 59.949219 47.253906 58.292969 47.253906 L 58.292969 48.023438 C 59.101562 47.984375 60.410156 47.945312 61.027344 47.945312 C 61.644531 47.945312 62.839844 47.984375 63.765625 48.023438 L 63.765625 47.253906 C 62.105469 47.253906 61.835938 47.253906 61.835938 46.171875 Z M 61.835938 30.949219 "/>
<path fill-rule="nonzero" fill="rgb(0%, 0%, 0%)" fill-opacity="1" d="M 77.964844 43.785156 C 75.804688 43.785156 75.804688 41.316406 75.804688 40.777344 C 75.804688 40.121094 75.84375 39.3125 76.191406 38.695312 C 76.382812 38.425781 76.960938 37.734375 77.964844 37.734375 C 80.085938 37.734375 80.085938 40.160156 80.085938 40.738281 C 80.085938 41.394531 80.085938 42.203125 79.699219 42.820312 C 79.507812 43.089844 78.929688 43.785156 77.964844 43.785156 Z M 75.113281 44.746094 C 75.113281 44.671875 75.113281 44.09375 75.5 43.589844 C 76.460938 44.285156 77.503906 44.363281 77.964844 44.363281 C 80.238281 44.363281 81.933594 42.667969 81.933594 40.777344 C 81.933594 39.851562 81.550781 38.964844 80.933594 38.386719 C 81.820312 37.539062 82.707031 37.425781 83.128906 37.425781 C 83.207031 37.425781 83.320312 37.425781 83.398438 37.464844 C 83.128906 37.539062 82.976562 37.808594 82.976562 38.117188 C 82.976562 38.542969 83.320312 38.8125 83.707031 38.8125 C 83.9375 38.8125 84.402344 38.65625 84.402344 38.078125 C 84.402344 37.65625 84.132812 36.886719 83.167969 36.886719 C 82.667969 36.886719 81.585938 37.039062 80.546875 38.042969 C 79.507812 37.230469 78.503906 37.15625 77.964844 37.15625 C 75.652344 37.15625 73.957031 38.851562 73.957031 40.738281 C 73.957031 41.816406 74.496094 42.742188 75.113281 43.28125 C 74.804688 43.628906 74.34375 44.4375 74.34375 45.324219 C 74.34375 46.097656 74.6875 47.019531 75.460938 47.523438 C 73.957031 47.90625 73.1875 48.988281 73.1875 49.949219 C 73.1875 51.722656 75.613281 53.074219 78.621094 53.074219 C 81.511719 53.074219 84.054688 51.839844 84.054688 49.910156 C 84.054688 49.0625 83.746094 47.792969 82.472656 47.097656 C 81.164062 46.441406 79.738281 46.441406 78.234375 46.441406 C 77.617188 46.441406 76.578125 46.441406 76.382812 46.40625 C 75.613281 46.289062 75.113281 45.558594 75.113281 44.746094 Z M 78.660156 52.53125 C 76.152344 52.53125 74.457031 51.261719 74.457031 49.949219 C 74.457031 48.832031 75.382812 47.90625 76.460938 47.871094 L 77.925781 47.871094 C 80.046875 47.871094 82.78125 47.871094 82.78125 49.949219 C 82.78125 51.300781 81.046875 52.53125 78.660156 52.53125 Z M 78.660156 52.53125 "/>
<path fill-rule="nonzero" fill="rgb(0%, 0%, 0%)" fill-opacity="1" d="M 96.339844 42.742188 C 96.339844 39.621094 93.914062 37 90.945312 37 C 87.863281 37 85.472656 39.699219 85.472656 42.742188 C 85.472656 45.941406 88.015625 48.292969 90.90625 48.292969 C 93.875 48.292969 96.339844 45.863281 96.339844 42.742188 Z M 90.945312 47.675781 C 89.867188 47.675781 88.789062 47.175781 88.132812 46.019531 C 87.515625 44.941406 87.515625 43.4375 87.515625 42.550781 C 87.515625 41.585938 87.515625 40.277344 88.09375 39.199219 C 88.75 38.078125 89.90625 37.539062 90.90625 37.539062 C 91.988281 37.539062 93.027344 38.078125 93.683594 39.160156 C 94.335938 40.199219 94.335938 41.625 94.335938 42.550781 C 94.335938 43.4375 94.335938 44.785156 93.796875 45.863281 C 93.21875 46.984375 92.140625 47.675781 90.945312 47.675781 Z M 90.945312 47.675781 "/>
<path fill-rule="nonzero" fill="rgb(0%, 0%, 0%)" fill-opacity="1" d="M 100.492188 41.816406 C 100.644531 38.15625 102.726562 37.539062 103.574219 37.539062 C 106.078125 37.539062 106.347656 40.855469 106.347656 41.816406 Z M 100.492188 42.359375 L 107.351562 42.359375 C 107.890625 42.359375 107.96875 42.359375 107.96875 41.816406 C 107.96875 39.390625 106.617188 37 103.574219 37 C 100.722656 37 98.449219 39.542969 98.449219 42.628906 C 98.449219 45.902344 101.03125 48.292969 103.84375 48.292969 C 106.851562 48.292969 107.96875 45.558594 107.96875 45.09375 C 107.96875 44.863281 107.773438 44.785156 107.621094 44.785156 C 107.429688 44.785156 107.351562 44.941406 107.3125 45.132812 C 106.464844 47.675781 104.230469 47.675781 104 47.675781 C 102.765625 47.675781 101.800781 46.945312 101.222656 46.019531 C 100.492188 44.863281 100.492188 43.246094 100.492188 42.359375 Z M 100.492188 42.359375 "/>
<path fill-rule="nonzero" fill="rgb(0%, 0%, 0%)" fill-opacity="1" d="M 113.800781 43.246094 C 114.339844 43.359375 116.34375 43.746094 116.34375 45.519531 C 116.34375 46.75 115.496094 47.753906 113.570312 47.753906 C 111.488281 47.753906 110.601562 46.367188 110.140625 44.246094 C 110.0625 43.9375 110.0625 43.859375 109.792969 43.859375 C 109.484375 43.859375 109.484375 44.015625 109.484375 44.4375 L 109.484375 47.714844 C 109.484375 48.140625 109.484375 48.292969 109.753906 48.292969 C 109.871094 48.292969 109.910156 48.253906 110.371094 47.792969 C 110.410156 47.753906 110.410156 47.714844 110.871094 47.253906 C 111.953125 48.253906 113.070312 48.292969 113.570312 48.292969 C 116.382812 48.292969 117.539062 46.636719 117.539062 44.863281 C 117.539062 43.589844 116.808594 42.820312 116.5 42.550781 C 115.691406 41.742188 114.726562 41.546875 113.6875 41.355469 C 112.296875 41.085938 110.679688 40.777344 110.679688 39.351562 C 110.679688 38.464844 111.296875 37.464844 113.414062 37.464844 C 116.113281 37.464844 116.269531 39.699219 116.304688 40.429688 C 116.304688 40.660156 116.539062 40.660156 116.578125 40.660156 C 116.921875 40.660156 116.921875 40.546875 116.921875 40.082031 L 116.921875 37.578125 C 116.921875 37.191406 116.921875 37 116.652344 37 C 116.539062 37 116.460938 37 116.152344 37.308594 C 116.074219 37.386719 115.84375 37.617188 115.726562 37.695312 C 114.804688 37 113.800781 37 113.414062 37 C 110.410156 37 109.484375 38.65625 109.484375 40.046875 C 109.484375 40.894531 109.871094 41.585938 110.523438 42.125 C 111.335938 42.742188 112.027344 42.898438 113.800781 43.246094 Z M 113.800781 43.246094 "/>
<path fill-rule="nonzero" fill="rgb(0%, 0%, 0%)" fill-opacity="1" d="M 129.25 46.171875 C 129.25 47.253906 128.980469 47.253906 127.320312 47.253906 L 127.320312 48.023438 C 128.207031 47.984375 129.441406 47.945312 130.136719 47.945312 C 130.75 47.945312 132.023438 47.984375 132.871094 48.023438 L 132.871094 47.253906 C 131.214844 47.253906 130.945312 47.253906 130.945312 46.171875 L 130.945312 41.625 C 130.945312 39.082031 132.71875 37.695312 134.257812 37.695312 C 135.839844 37.695312 136.109375 39.003906 136.109375 40.429688 L 136.109375 46.171875 C 136.109375 47.253906 135.839844 47.253906 134.183594 47.253906 L 134.183594 48.023438 C 135.03125 47.984375 136.300781 47.945312 136.957031 47.945312 C 137.574219 47.945312 138.882812 47.984375 139.695312 48.023438 L 139.695312 47.253906 C 138.421875 47.253906 137.804688 47.253906 137.804688 46.519531 L 137.804688 41.816406 C 137.804688 39.699219 137.804688 38.964844 137.035156 38.078125 C 136.6875 37.65625 135.878906 37.15625 134.453125 37.15625 C 132.371094 37.15625 131.292969 38.621094 130.867188 39.582031 L 130.867188 30.949219 L 127.320312 31.21875 L 127.320312 31.988281 C 129.054688 31.988281 129.25 32.144531 129.25 33.378906 Z M 129.25 46.171875 "/>
<path fill-rule="nonzero" fill="rgb(0%, 0%, 0%)" fill-opacity="1" d="M 142.941406 41.816406 C 143.09375 38.15625 145.175781 37.539062 146.023438 37.539062 C 148.527344 37.539062 148.800781 40.855469 148.800781 41.816406 Z M 142.941406 42.359375 L 149.800781 42.359375 C 150.339844 42.359375 150.417969 42.359375 150.417969 41.816406 C 150.417969 39.390625 149.070312 37 146.023438 37 C 143.171875 37 140.898438 39.542969 140.898438 42.628906 C 140.898438 45.902344 143.480469 48.292969 146.292969 48.292969 C 149.300781 48.292969 150.417969 45.558594 150.417969 45.09375 C 150.417969 44.863281 150.226562 44.785156 150.070312 44.785156 C 149.878906 44.785156 149.800781 44.941406 149.761719 45.132812 C 148.914062 47.675781 146.679688 47.675781 146.449219 47.675781 C 145.214844 47.675781 144.25 46.945312 143.671875 46.019531 C 142.941406 44.863281 142.941406 43.246094 142.941406 42.359375 Z M 142.941406 42.359375 "/>
<path fill-rule="nonzero" fill="rgb(0%, 0%, 0%)" fill-opacity="1" d="M 155.25 39.851562 L 155.25 37.15625 L 151.820312 37.425781 L 151.820312 38.195312 C 153.554688 38.195312 153.746094 38.347656 153.746094 39.582031 L 153.746094 46.171875 C 153.746094 47.253906 153.476562 47.253906 151.820312 47.253906 L 151.820312 48.023438 C 152.78125 47.984375 153.9375 47.945312 154.632812 47.945312 C 155.597656 47.945312 156.753906 47.945312 157.753906 48.023438 L 157.753906 47.253906 L 157.214844 47.253906 C 155.402344 47.253906 155.363281 46.984375 155.363281 46.097656 L 155.363281 42.320312 C 155.363281 39.890625 156.40625 37.695312 158.253906 37.695312 C 158.410156 37.695312 158.488281 37.695312 158.523438 37.734375 C 158.449219 37.734375 157.945312 38.042969 157.945312 38.695312 C 157.945312 39.351562 158.488281 39.738281 159.027344 39.738281 C 159.449219 39.738281 160.066406 39.429688 160.066406 38.65625 C 160.066406 37.886719 159.296875 37.15625 158.253906 37.15625 C 156.445312 37.15625 155.558594 38.8125 155.25 39.851562 Z M 155.25 39.851562 "/>
<path fill-rule="nonzero" fill="rgb(0%, 0%, 0%)" fill-opacity="1" d="M 163.488281 41.816406 C 163.640625 38.15625 165.722656 37.539062 166.570312 37.539062 C 169.074219 37.539062 169.347656 40.855469 169.347656 41.816406 Z M 163.488281 42.359375 L 170.347656 42.359375 C 170.886719 42.359375 170.964844 42.359375 170.964844 41.816406 C 170.964844 39.390625 169.617188 37 166.570312 37 C 163.71875 37 161.445312 39.542969 161.445312 42.628906 C 161.445312 45.902344 164.027344 48.292969 166.839844 48.292969 C 169.847656 48.292969 170.964844 45.558594 170.964844 45.09375 C 170.964844 44.863281 170.773438 44.785156 170.617188 44.785156 C 170.425781 44.785156 170.347656 44.941406 170.308594 45.132812 C 169.460938 47.675781 167.226562 47.675781 166.996094 47.675781 C 165.761719 47.675781 164.796875 46.945312 164.21875 46.019531 C 163.488281 44.863281 163.488281 43.246094 163.488281 42.359375 Z M 163.488281 42.359375 "/>
<path fill="none" stroke-width="0.3487" stroke-linecap="round" stroke-linejoin="miter" stroke="rgb(0%, 0%, 0%)" stroke-opacity="1" stroke-miterlimit="10" d="M 8.503681 -3.487054 L 8.503681 3.485602 Z M 8.503681 -3.487054 " transform="matrix(2.466667, 0, 0, -2.466667, 190.848472, 41.879068)"/>
<path fill="none" stroke-width="0.3487" stroke-linecap="round" stroke-linejoin="miter" stroke="rgb(0%, 0%, 0%)" stroke-opacity="1" stroke-miterlimit="10" d="M 40.253576 -3.487054 L 40.253576 3.485602 Z M 40.253576 -3.487054 " transform="matrix(2.466667, 0, 0, -2.466667, 190.848472, 41.879068)"/>
<path fill="none" stroke-width="0.3487" stroke-linecap="round" stroke-linejoin="miter" stroke="rgb(0%, 0%, 0%)" stroke-opacity="1" stroke-miterlimit="10" d="M 72.000303 -3.487054 L 72.000303 3.485602 Z M 72.000303 -3.487054 " transform="matrix(2.466667, 0, 0, -2.466667, 190.848472, 41.879068)"/>
<path fill="none" stroke-width="0.3487" stroke-linecap="round" stroke-linejoin="miter" stroke="rgb(0%, 0%, 0%)" stroke-opacity="1" stroke-miterlimit="10" d="M 103.750197 -3.487054 L 103.750197 3.485602 Z M 103.750197 -3.487054 " transform="matrix(2.466667, 0, 0, -2.466667, 190.848472, 41.879068)"/>
<path fill="none" stroke-width="0.3487" stroke-linecap="round" stroke-linejoin="miter" stroke="rgb(0%, 0%, 0%)" stroke-opacity="1" stroke-miterlimit="10" d="M 135.496924 -3.487054 L 135.496924 3.485602 Z M 135.496924 -3.487054 " transform="matrix(2.466667, 0, 0, -2.466667, 190.848472, 41.879068)"/>
<path fill="none" stroke-width="0.3487" stroke-linecap="round" stroke-linejoin="miter" stroke="rgb(0%, 0%, 0%)" stroke-opacity="1" stroke-miterlimit="10" d="M 167.246819 -3.487054 L 167.246819 3.485602 Z M 167.246819 -3.487054 " transform="matrix(2.466667, 0, 0, -2.466667, 190.848472, 41.879068)"/>
<path fill-rule="nonzero" fill="rgb(0%, 0%, 0%)" fill-opacity="1" d="M 207.71875 20.535156 C 207.71875 18.648438 207.488281 17.257812 206.71875 16.066406 C 206.179688 15.292969 205.097656 14.601562 203.75 14.601562 C 199.742188 14.601562 199.742188 19.300781 199.742188 20.535156 C 199.742188 21.769531 199.742188 26.355469 203.75 26.355469 C 207.71875 26.355469 207.71875 21.769531 207.71875 20.535156 Z M 203.75 25.855469 C 202.941406 25.855469 201.898438 25.390625 201.554688 24.003906 C 201.320312 23.003906 201.320312 21.578125 201.320312 20.304688 C 201.320312 19.03125 201.320312 17.722656 201.554688 16.796875 C 201.9375 15.449219 203.019531 15.0625 203.75 15.0625 C 204.675781 15.0625 205.5625 15.640625 205.871094 16.644531 C 206.140625 17.566406 206.179688 18.800781 206.179688 20.304688 C 206.179688 21.578125 206.179688 22.847656 205.945312 23.925781 C 205.601562 25.507812 204.445312 25.855469 203.75 25.855469 Z M 203.75 25.855469 "/>
<path fill-rule="nonzero" fill="rgb(0%, 0%, 0%)" fill-opacity="1" d="M 223.566406 23.503906 C 223.566406 21.539062 222.449219 20.035156 221.0625 20.035156 C 219.636719 20.035156 218.289062 21.5 218.289062 23.503906 C 218.289062 25.585938 219.675781 26.972656 221.0625 26.972656 C 222.449219 26.972656 223.566406 25.429688 223.566406 23.503906 Z M 221.101562 26.472656 C 220.792969 26.472656 219.519531 26.355469 219.519531 23.503906 C 219.519531 20.613281 220.792969 20.535156 221.101562 20.535156 C 222.027344 20.535156 222.988281 21.769531 222.988281 23.503906 C 222.988281 25.277344 222.027344 26.472656 221.101562 26.472656 Z M 221.792969 13.90625 C 221.988281 13.714844 221.988281 13.597656 221.988281 13.558594 C 221.988281 13.25 221.71875 13.136719 221.5625 13.136719 C 221.523438 13.136719 221.371094 13.136719 221.214844 13.289062 C 220.832031 13.753906 219.789062 15.023438 217.59375 15.023438 C 216.359375 15.023438 215.164062 14.640625 213.933594 13.636719 C 213.507812 13.289062 213.121094 13.136719 212.621094 13.136719 C 211.195312 13.136719 209.847656 14.5625 209.847656 16.566406 C 209.847656 18.648438 211.234375 20.035156 212.621094 20.035156 C 214.007812 20.035156 215.125 18.53125 215.125 16.605469 C 215.125 16.257812 215.089844 15.523438 214.78125 14.792969 C 215.820312 15.332031 216.785156 15.488281 217.632812 15.488281 C 218.441406 15.488281 219.210938 15.332031 219.90625 14.984375 L 219.945312 15.023438 L 211.621094 26.164062 C 211.503906 26.355469 211.425781 26.394531 211.425781 26.546875 C 211.425781 26.816406 211.621094 26.972656 211.851562 26.972656 C 212.082031 26.972656 212.160156 26.816406 212.273438 26.703125 Z M 212.660156 19.570312 C 212.351562 19.570312 211.078125 19.457031 211.078125 16.605469 C 211.078125 13.714844 212.351562 13.597656 212.660156 13.597656 C 213.585938 13.597656 214.546875 14.832031 214.546875 16.566406 C 214.546875 18.378906 213.585938 19.570312 212.660156 19.570312 Z M 212.660156 19.570312 "/>
<path fill-rule="nonzero" fill="rgb(0%, 0%, 0%)" fill-opacity="1" d="M 280.941406 22.886719 L 280.363281 22.886719 C 280.324219 23.273438 280.132812 24.273438 279.902344 24.429688 C 279.785156 24.542969 278.476562 24.542969 278.207031 24.542969 L 275.046875 24.542969 C 276.855469 22.964844 277.472656 22.460938 278.476562 21.652344 C 279.746094 20.652344 280.941406 19.570312 280.941406 17.953125 C 280.941406 15.871094 279.132812 14.601562 276.933594 14.601562 C 274.8125 14.601562 273.351562 16.101562 273.351562 17.683594 C 273.351562 18.53125 274.082031 18.648438 274.273438 18.648438 C 274.660156 18.648438 275.160156 18.339844 275.160156 17.722656 C 275.160156 17.414062 275.046875 16.796875 274.160156 16.796875 C 274.699219 15.601562 275.855469 15.21875 276.664062 15.21875 C 278.398438 15.21875 279.285156 16.566406 279.285156 17.953125 C 279.285156 19.457031 278.207031 20.613281 277.667969 21.230469 L 273.542969 25.351562 C 273.351562 25.507812 273.351562 25.546875 273.351562 26.007812 L 280.441406 26.007812 Z M 280.941406 22.886719 "/>
<path fill-rule="nonzero" fill="rgb(0%, 0%, 0%)" fill-opacity="1" d="M 290.933594 20.535156 C 290.933594 18.648438 290.699219 17.257812 289.929688 16.066406 C 289.390625 15.292969 288.3125 14.601562 286.960938 14.601562 C 282.953125 14.601562 282.953125 19.300781 282.953125 20.535156 C 282.953125 21.769531 282.953125 26.355469 286.960938 26.355469 C 290.933594 26.355469 290.933594 21.769531 290.933594 20.535156 Z M 286.960938 25.855469 C 286.152344 25.855469 285.113281 25.390625 284.765625 24.003906 C 284.535156 23.003906 284.535156 21.578125 284.535156 20.304688 C 284.535156 19.03125 284.535156 17.722656 284.765625 16.796875 C 285.152344 15.449219 286.230469 15.0625 286.960938 15.0625 C 287.886719 15.0625 288.773438 15.640625 289.082031 16.644531 C 289.351562 17.566406 289.390625 18.800781 289.390625 20.304688 C 289.390625 21.578125 289.390625 22.847656 289.160156 23.925781 C 288.8125 25.507812 287.65625 25.855469 286.960938 25.855469 Z M 286.960938 25.855469 "/>
<path fill-rule="nonzero" fill="rgb(0%, 0%, 0%)" fill-opacity="1" d="M 306.78125 23.503906 C 306.78125 21.539062 305.660156 20.035156 304.273438 20.035156 C 302.847656 20.035156 301.5 21.5 301.5 23.503906 C 301.5 25.585938 302.886719 26.972656 304.273438 26.972656 C 305.660156 26.972656 306.78125 25.429688 306.78125 23.503906 Z M 304.3125 26.472656 C 304.003906 26.472656 302.734375 26.355469 302.734375 23.503906 C 302.734375 20.613281 304.003906 20.535156 304.3125 20.535156 C 305.238281 20.535156 306.203125 21.769531 306.203125 23.503906 C 306.203125 25.277344 305.238281 26.472656 304.3125 26.472656 Z M 305.007812 13.90625 C 305.199219 13.714844 305.199219 13.597656 305.199219 13.558594 C 305.199219 13.25 304.929688 13.136719 304.773438 13.136719 C 304.738281 13.136719 304.582031 13.136719 304.429688 13.289062 C 304.042969 13.753906 303.003906 15.023438 300.804688 15.023438 C 299.570312 15.023438 298.378906 14.640625 297.144531 13.636719 C 296.71875 13.289062 296.335938 13.136719 295.832031 13.136719 C 294.40625 13.136719 293.058594 14.5625 293.058594 16.566406 C 293.058594 18.648438 294.445312 20.035156 295.832031 20.035156 C 297.222656 20.035156 298.339844 18.53125 298.339844 16.605469 C 298.339844 16.257812 298.300781 15.523438 297.992188 14.792969 C 299.03125 15.332031 299.996094 15.488281 300.84375 15.488281 C 301.652344 15.488281 302.425781 15.332031 303.117188 14.984375 L 303.15625 15.023438 L 294.832031 26.164062 C 294.714844 26.355469 294.640625 26.394531 294.640625 26.546875 C 294.640625 26.816406 294.832031 26.972656 295.0625 26.972656 C 295.292969 26.972656 295.371094 26.816406 295.488281 26.703125 Z M 295.871094 19.570312 C 295.5625 19.570312 294.292969 19.457031 294.292969 16.605469 C 294.292969 13.714844 295.5625 13.597656 295.871094 13.597656 C 296.796875 13.597656 297.761719 14.832031 297.761719 16.566406 C 297.761719 18.378906 296.796875 19.570312 295.871094 19.570312 Z M 295.871094 19.570312 "/>
<path fill-rule="nonzero" fill="rgb(0%, 0%, 0%)" fill-opacity="1" d="M 431.476562 20.382812 C 431.476562 18.992188 431.59375 17.722656 432.246094 16.644531 C 432.824219 15.71875 433.75 15.101562 434.867188 15.101562 C 435.371094 15.101562 436.0625 15.21875 436.410156 15.679688 C 435.984375 15.71875 435.601562 16.027344 435.601562 16.527344 C 435.601562 16.953125 435.910156 17.335938 436.410156 17.335938 C 436.949219 17.335938 437.257812 16.988281 437.257812 16.488281 C 437.257812 15.488281 436.527344 14.601562 434.828125 14.601562 C 432.363281 14.601562 429.820312 16.875 429.820312 20.574219 C 429.820312 25.007812 431.902344 26.355469 433.828125 26.355469 C 435.910156 26.355469 437.71875 24.738281 437.71875 22.5 C 437.71875 20.304688 435.984375 18.6875 433.980469 18.6875 C 432.59375 18.6875 431.863281 19.609375 431.476562 20.382812 Z M 433.828125 25.816406 C 432.941406 25.816406 432.285156 25.316406 431.902344 24.542969 C 431.667969 24.042969 431.515625 23.15625 431.515625 22.15625 C 431.515625 20.457031 432.515625 19.1875 433.90625 19.1875 C 434.675781 19.1875 435.214844 19.496094 435.640625 20.113281 C 436.0625 20.765625 436.0625 21.5 436.0625 22.5 C 436.0625 23.464844 436.0625 24.195312 435.601562 24.890625 C 435.214844 25.46875 434.636719 25.816406 433.828125 25.816406 Z M 433.828125 25.816406 "/>
<path fill-rule="nonzero" fill="rgb(0%, 0%, 0%)" fill-opacity="1" d="M 447.554688 20.535156 C 447.554688 18.648438 447.324219 17.257812 446.554688 16.066406 C 446.011719 15.292969 444.933594 14.601562 443.585938 14.601562 C 439.578125 14.601562 439.578125 19.300781 439.578125 20.535156 C 439.578125 21.769531 439.578125 26.355469 443.585938 26.355469 C 447.554688 26.355469 447.554688 21.769531 447.554688 20.535156 Z M 443.585938 25.855469 C 442.777344 25.855469 441.734375 25.390625 441.386719 24.003906 C 441.15625 23.003906 441.15625 21.578125 441.15625 20.304688 C 441.15625 19.03125 441.15625 17.722656 441.386719 16.796875 C 441.773438 15.449219 442.851562 15.0625 443.585938 15.0625 C 444.511719 15.0625 445.398438 15.640625 445.707031 16.644531 C 445.976562 17.566406 446.011719 18.800781 446.011719 20.304688 C 446.011719 21.578125 446.011719 22.847656 445.78125 23.925781 C 445.433594 25.507812 444.277344 25.855469 443.585938 25.855469 Z M 443.585938 25.855469 "/>
<path fill-rule="nonzero" fill="rgb(0%, 0%, 0%)" fill-opacity="1" d="M 463.402344 23.503906 C 463.402344 21.539062 462.285156 20.035156 460.898438 20.035156 C 459.472656 20.035156 458.121094 21.5 458.121094 23.503906 C 458.121094 25.585938 459.511719 26.972656 460.898438 26.972656 C 462.285156 26.972656 463.402344 25.429688 463.402344 23.503906 Z M 460.9375 26.472656 C 460.628906 26.472656 459.355469 26.355469 459.355469 23.503906 C 459.355469 20.613281 460.628906 20.535156 460.9375 20.535156 C 461.859375 20.535156 462.824219 21.769531 462.824219 23.503906 C 462.824219 25.277344 461.859375 26.472656 460.9375 26.472656 Z M 461.628906 13.90625 C 461.824219 13.714844 461.824219 13.597656 461.824219 13.558594 C 461.824219 13.25 461.554688 13.136719 461.398438 13.136719 C 461.359375 13.136719 461.207031 13.136719 461.050781 13.289062 C 460.667969 13.753906 459.625 15.023438 457.429688 15.023438 C 456.195312 15.023438 455 14.640625 453.765625 13.636719 C 453.34375 13.289062 452.957031 13.136719 452.457031 13.136719 C 451.03125 13.136719 449.683594 14.5625 449.683594 16.566406 C 449.683594 18.648438 451.070312 20.035156 452.457031 20.035156 C 453.84375 20.035156 454.960938 18.53125 454.960938 16.605469 C 454.960938 16.257812 454.921875 15.523438 454.617188 14.792969 C 455.65625 15.332031 456.621094 15.488281 457.46875 15.488281 C 458.277344 15.488281 459.046875 15.332031 459.742188 14.984375 L 459.78125 15.023438 L 451.453125 26.164062 C 451.339844 26.355469 451.261719 26.394531 451.261719 26.546875 C 451.261719 26.816406 451.453125 26.972656 451.6875 26.972656 C 451.917969 26.972656 451.996094 26.816406 452.109375 26.703125 Z M 452.496094 19.570312 C 452.1875 19.570312 450.914062 19.457031 450.914062 16.605469 C 450.914062 13.714844 452.1875 13.597656 452.496094 13.597656 C 453.421875 13.597656 454.382812 14.832031 454.382812 16.566406 C 454.382812 18.378906 453.421875 19.570312 452.496094 19.570312 Z M 452.496094 19.570312 "/>
<path fill-rule="nonzero" fill="rgb(0%, 0%, 0%)" fill-opacity="1" d="M 586.363281 15.0625 C 586.363281 14.601562 586.363281 14.601562 585.859375 14.601562 C 584.742188 15.679688 583.199219 15.679688 582.507812 15.679688 L 582.507812 16.296875 C 582.894531 16.296875 584.050781 16.296875 584.972656 15.832031 L 584.972656 24.582031 C 584.972656 25.160156 584.972656 25.390625 583.277344 25.390625 L 582.621094 25.390625 L 582.621094 26.007812 C 582.929688 26.007812 585.050781 25.929688 585.667969 25.929688 C 586.207031 25.929688 588.367188 26.007812 588.75 26.007812 L 588.75 25.390625 L 588.097656 25.390625 C 586.363281 25.390625 586.363281 25.160156 586.363281 24.582031 Z M 586.363281 15.0625 "/>
<path fill-rule="nonzero" fill="rgb(0%, 0%, 0%)" fill-opacity="1" d="M 599.28125 20.535156 C 599.28125 18.648438 599.046875 17.257812 598.277344 16.066406 C 597.738281 15.292969 596.660156 14.601562 595.308594 14.601562 C 591.300781 14.601562 591.300781 19.300781 591.300781 20.535156 C 591.300781 21.769531 591.300781 26.355469 595.308594 26.355469 C 599.28125 26.355469 599.28125 21.769531 599.28125 20.535156 Z M 595.308594 25.855469 C 594.5 25.855469 593.460938 25.390625 593.113281 24.003906 C 592.882812 23.003906 592.882812 21.578125 592.882812 20.304688 C 592.882812 19.03125 592.882812 17.722656 593.113281 16.796875 C 593.5 15.449219 594.578125 15.0625 595.308594 15.0625 C 596.234375 15.0625 597.121094 15.640625 597.429688 16.644531 C 597.699219 17.566406 597.738281 18.800781 597.738281 20.304688 C 597.738281 21.578125 597.738281 22.847656 597.507812 23.925781 C 597.160156 25.507812 596.003906 25.855469 595.308594 25.855469 Z M 595.308594 25.855469 "/>
<path fill-rule="nonzero" fill="rgb(0%, 0%, 0%)" fill-opacity="1" d="M 609.078125 20.535156 C 609.078125 18.648438 608.84375 17.257812 608.074219 16.066406 C 607.535156 15.292969 606.457031 14.601562 605.105469 14.601562 C 601.097656 14.601562 601.097656 19.300781 601.097656 20.535156 C 601.097656 21.769531 601.097656 26.355469 605.105469 26.355469 C 609.078125 26.355469 609.078125 21.769531 609.078125 20.535156 Z M 605.105469 25.855469 C 604.296875 25.855469 603.257812 25.390625 602.910156 24.003906 C 602.679688 23.003906 602.679688 21.578125 602.679688 20.304688 C 602.679688 19.03125 602.679688 17.722656 602.910156 16.796875 C 603.296875 15.449219 604.375 15.0625 605.105469 15.0625 C 606.03125 15.0625 606.917969 15.640625 607.226562 16.644531 C 607.496094 17.566406 607.535156 18.800781 607.535156 20.304688 C 607.535156 21.578125 607.535156 22.847656 607.304688 23.925781 C 606.957031 25.507812 605.800781 25.855469 605.105469 25.855469 Z M 605.105469 25.855469 "/>
<path fill-rule="nonzero" fill="rgb(0%, 0%, 0%)" fill-opacity="1" d="M 624.925781 23.503906 C 624.925781 21.539062 623.804688 20.035156 622.417969 20.035156 C 620.992188 20.035156 619.644531 21.5 619.644531 23.503906 C 619.644531 25.585938 621.03125 26.972656 622.417969 26.972656 C 623.804688 26.972656 624.925781 25.429688 624.925781 23.503906 Z M 622.457031 26.472656 C 622.148438 26.472656 620.878906 26.355469 620.878906 23.503906 C 620.878906 20.613281 622.148438 20.535156 622.457031 20.535156 C 623.382812 20.535156 624.347656 21.769531 624.347656 23.503906 C 624.347656 25.277344 623.382812 26.472656 622.457031 26.472656 Z M 623.152344 13.90625 C 623.34375 13.714844 623.34375 13.597656 623.34375 13.558594 C 623.34375 13.25 623.074219 13.136719 622.921875 13.136719 C 622.882812 13.136719 622.726562 13.136719 622.574219 13.289062 C 622.1875 13.753906 621.148438 15.023438 618.949219 15.023438 C 617.71875 15.023438 616.523438 14.640625 615.289062 13.636719 C 614.863281 13.289062 614.480469 13.136719 613.976562 13.136719 C 612.550781 13.136719 611.203125 14.5625 611.203125 16.566406 C 611.203125 18.648438 612.589844 20.035156 613.976562 20.035156 C 615.367188 20.035156 616.484375 18.53125 616.484375 16.605469 C 616.484375 16.257812 616.445312 15.523438 616.136719 14.792969 C 617.175781 15.332031 618.140625 15.488281 618.988281 15.488281 C 619.796875 15.488281 620.570312 15.332031 621.261719 14.984375 L 621.300781 15.023438 L 612.976562 26.164062 C 612.859375 26.355469 612.785156 26.394531 612.785156 26.546875 C 612.785156 26.816406 612.976562 26.972656 613.207031 26.972656 C 613.4375 26.972656 613.515625 26.816406 613.632812 26.703125 Z M 614.015625 19.570312 C 613.707031 19.570312 612.4375 19.457031 612.4375 16.605469 C 612.4375 13.714844 613.707031 13.597656 614.015625 13.597656 C 614.941406 13.597656 615.90625 14.832031 615.90625 16.566406 C 615.90625 18.378906 614.941406 19.570312 614.015625 19.570312 Z M 614.015625 19.570312 "/>
</svg>
