<?xml version="1.0" encoding="UTF-8"?>
<svg xmlns="http://www.w3.org/2000/svg" xmlns:xlink="http://www.w3.org/1999/xlink" width="571.926265" height="153.848463" viewBox="0 0 571.926265 153.848463">
<path fill="none" stroke-width="0.3985" stroke-linecap="butt" stroke-linejoin="miter" stroke="rgb(0%, 0%, 0%)" stroke-opacity="1" stroke-miterlimit="10" d="M 0.00198241 -0.00145026 L 142.009478 -0.00145026 " transform="matrix(2.466667, 0, 0, -2.466667, 211.319329, 43.230798)"/>
<path fill-rule="nonzero" fill="rgb(0%, 0%, 0%)" fill-opacity="1" d="M 566.523438 43.234375 L 558.660156 39.304688 L 561.609375 43.234375 L 558.660156 47.164062 "/>
<path fill-rule="nonzero" fill="rgb(0%, 0%, 0%)" fill-opacity="1" d="M 15.804688 43.324219 L 15.804688 49.914062 C 15.804688 50.992188 15.535156 50.992188 13.875 50.992188 L 13.875 51.761719 C 14.761719 51.722656 15.996094 51.6875 16.691406 51.6875 C 17.304688 51.6875 18.578125 51.722656 19.425781 51.761719 L 19.425781 50.992188 C 17.769531 50.992188 17.5 50.992188 17.5 49.914062 L 17.5 45.363281 C 17.5 42.820312 19.273438 41.433594 20.8125 41.433594 C 22.394531 41.433594 22.664062 42.746094 22.664062 44.171875 L 22.664062 49.914062 C 22.664062 50.992188 22.394531 50.992188 20.738281 50.992188 L 20.738281 51.761719 C 21.585938 51.722656 22.855469 51.6875 23.511719 51.6875 C 24.128906 51.6875 25.4375 51.722656 26.25 51.761719 L 26.25 50.992188 C 24.976562 50.992188 24.359375 50.992188 24.359375 50.261719 L 24.359375 45.558594 C 24.359375 43.4375 24.359375 42.707031 23.589844 41.820312 C 23.242188 41.394531 22.433594 40.894531 21.007812 40.894531 C 19.195312 40.894531 18.039062 41.933594 17.34375 43.476562 L 17.34375 40.894531 L 13.875 41.164062 L 13.875 41.933594 C 15.609375 41.933594 15.804688 42.089844 15.804688 43.324219 Z M 15.804688 43.324219 "/>
<path fill-rule="nonzero" fill="rgb(0%, 0%, 0%)" fill-opacity="1" d="M 35.667969 49.835938 L 35.667969 52.03125 L 39.214844 51.761719 L 39.214844 50.992188 C 37.519531 50.992188 37.324219 50.839844 37.324219 49.605469 L 37.324219 40.894531 L 33.703125 41.164062 L 33.703125 41.933594 C 35.398438 41.933594 35.628906 42.089844 35.628906 43.324219 L 35.628906 47.675781 C 35.628906 49.835938 34.433594 51.492188 32.621094 51.492188 C 30.582031 51.492188 30.464844 50.335938 30.464844 49.066406 L 30.464844 40.894531 L 26.839844 41.164062 L 26.839844 41.933594 C 28.769531 41.933594 28.769531 42.011719 28.769531 44.171875 L 28.769531 47.871094 C 28.769531 49.796875 28.769531 52.03125 32.507812 52.03125 C 33.894531 52.03125 34.972656 51.339844 35.667969 49.835938 Z M 35.667969 49.835938 "/>
<path fill-rule="nonzero" fill="rgb(0%, 0%, 0%)" fill-opacity="1" d="M 42.421875 43.324219 L 42.421875 49.914062 C 42.421875 50.992188 42.152344 50.992188 40.496094 50.992188 L 40.496094 51.761719 C 41.382812 51.722656 42.613281 51.6875 43.308594 51.6875 C 43.925781 51.6875 45.199219 51.722656 46.046875 51.761719 L 46.046875 50.992188 C 44.386719 50.992188 44.117188 50.992188 44.117188 49.914062 L 44.117188 45.363281 C 44.117188 42.820312 45.890625 41.433594 47.433594 41.433594 C 49.011719 41.433594 49.28125 42.746094 49.28125 44.171875 L 49.28125 49.914062 C 49.28125 50.992188 49.011719 50.992188 47.355469 50.992188 L 47.355469 51.761719 C 48.203125 51.722656 49.476562 51.6875 50.128906 51.6875 C 50.746094 51.6875 52.058594 51.722656 52.867188 51.761719 L 52.867188 50.992188 C 51.25 50.992188 50.980469 50.992188 50.980469 49.914062 L 50.980469 45.363281 C 50.980469 42.820312 52.714844 41.433594 54.292969 41.433594 C 55.835938 41.433594 56.105469 42.746094 56.105469 44.171875 L 56.105469 49.914062 C 56.105469 50.992188 55.835938 50.992188 54.175781 50.992188 L 54.175781 51.761719 C 55.027344 51.722656 56.296875 51.6875 56.953125 51.6875 C 57.609375 51.6875 58.878906 51.722656 59.726562 51.761719 L 59.726562 50.992188 C 58.457031 50.992188 57.839844 50.992188 57.800781 50.261719 L 57.800781 45.558594 C 57.800781 43.4375 57.800781 42.707031 57.03125 41.820312 C 56.683594 41.394531 55.875 40.894531 54.449219 40.894531 C 52.40625 40.894531 51.285156 42.359375 50.902344 43.324219 C 50.554688 41.164062 48.742188 40.894531 47.625 40.894531 C 45.8125 40.894531 44.65625 41.933594 43.964844 43.476562 L 43.964844 40.894531 L 40.496094 41.164062 L 40.496094 41.933594 C 42.230469 41.933594 42.421875 42.089844 42.421875 43.324219 Z M 42.421875 43.324219 "/>
<path fill-rule="nonzero" fill="rgb(0%, 0%, 0%)" fill-opacity="1" d="M 63.753906 42.472656 L 63.753906 34.6875 L 60.207031 34.957031 L 60.207031 35.730469 C 61.941406 35.730469 62.136719 35.882812 62.136719 37.117188 L 62.136719 51.761719 L 62.75 51.761719 C 62.75 51.722656 62.945312 51.378906 63.636719 50.222656 C 63.984375 50.800781 65.027344 52.03125 66.835938 52.03125 C 69.765625 52.03125 72.308594 49.605469 72.308594 46.445312 C 72.308594 43.324219 69.921875 40.894531 67.105469 40.894531 C 65.179688 40.894531 64.140625 42.050781 63.753906 42.472656 Z M 63.832031 48.949219 L 63.832031 43.902344 C 63.832031 43.4375 63.832031 43.398438 64.101562 43.015625 C 65.0625 41.625 66.414062 41.433594 66.992188 41.433594 C 68.109375 41.433594 68.996094 42.089844 69.574219 43.015625 C 70.230469 44.015625 70.265625 45.402344 70.265625 46.445312 C 70.265625 47.332031 70.230469 48.796875 69.535156 49.914062 C 68.996094 50.683594 68.070312 51.492188 66.761719 51.492188 C 65.640625 51.492188 64.753906 50.914062 64.175781 49.988281 C 63.832031 49.488281 63.832031 49.410156 63.832031 48.949219 Z M 63.832031 48.949219 "/>
<path fill-rule="nonzero" fill="rgb(0%, 0%, 0%)" fill-opacity="1" d="M 76.59375 45.558594 C 76.746094 41.894531 78.828125 41.28125 79.675781 41.28125 C 82.179688 41.28125 82.449219 44.59375 82.449219 45.558594 Z M 76.59375 46.097656 L 83.453125 46.097656 C 83.992188 46.097656 84.070312 46.097656 84.070312 45.558594 C 84.070312 43.128906 82.71875 40.738281 79.675781 40.738281 C 76.824219 40.738281 74.550781 43.285156 74.550781 46.367188 C 74.550781 49.644531 77.132812 52.03125 79.945312 52.03125 C 82.953125 52.03125 84.070312 49.296875 84.070312 48.832031 C 84.070312 48.601562 83.875 48.527344 83.722656 48.527344 C 83.53125 48.527344 83.453125 48.679688 83.414062 48.871094 C 82.566406 51.417969 80.332031 51.417969 80.097656 51.417969 C 78.867188 51.417969 77.902344 50.683594 77.324219 49.757812 C 76.59375 48.601562 76.59375 46.984375 76.59375 46.097656 Z M 76.59375 46.097656 "/>
<path fill-rule="nonzero" fill="rgb(0%, 0%, 0%)" fill-opacity="1" d="M 88.902344 43.59375 L 88.902344 40.894531 L 85.46875 41.164062 L 85.46875 41.933594 C 87.203125 41.933594 87.398438 42.089844 87.398438 43.324219 L 87.398438 49.914062 C 87.398438 50.992188 87.128906 50.992188 85.46875 50.992188 L 85.46875 51.761719 C 86.433594 51.722656 87.589844 51.6875 88.285156 51.6875 C 89.246094 51.6875 90.402344 51.6875 91.40625 51.761719 L 91.40625 50.992188 L 90.867188 50.992188 C 89.054688 50.992188 89.015625 50.722656 89.015625 49.835938 L 89.015625 46.058594 C 89.015625 43.628906 90.058594 41.433594 91.90625 41.433594 C 92.0625 41.433594 92.136719 41.433594 92.175781 41.472656 C 92.097656 41.472656 91.597656 41.78125 91.597656 42.4375 C 91.597656 43.089844 92.136719 43.476562 92.675781 43.476562 C 93.101562 43.476562 93.71875 43.167969 93.71875 42.398438 C 93.71875 41.625 92.949219 40.894531 91.90625 40.894531 C 90.09375 40.894531 89.207031 42.550781 88.902344 43.59375 Z M 88.902344 43.59375 "/>
<path fill-rule="nonzero" fill="rgb(0%, 0%, 0%)" fill-opacity="1" d="M 114.148438 46.484375 C 114.148438 43.359375 111.71875 40.738281 108.753906 40.738281 C 105.667969 40.738281 103.28125 43.4375 103.28125 46.484375 C 103.28125 49.683594 105.824219 52.03125 108.714844 52.03125 C 111.679688 52.03125 114.148438 49.605469 114.148438 46.484375 Z M 108.753906 51.417969 C 107.671875 51.417969 106.59375 50.914062 105.9375 49.757812 C 105.320312 48.679688 105.320312 47.175781 105.320312 46.289062 C 105.320312 45.328125 105.320312 44.015625 105.898438 42.9375 C 106.554688 41.820312 107.710938 41.28125 108.714844 41.28125 C 109.792969 41.28125 110.832031 41.820312 111.488281 42.898438 C 112.144531 43.9375 112.144531 45.363281 112.144531 46.289062 C 112.144531 47.175781 112.144531 48.527344 111.605469 49.605469 C 111.027344 50.722656 109.945312 51.417969 108.753906 51.417969 Z M 108.753906 51.417969 "/>
<path fill-rule="nonzero" fill="rgb(0%, 0%, 0%)" fill-opacity="1" d="M 119.191406 41.164062 L 119.191406 38.3125 C 119.191406 36.152344 120.347656 34.957031 121.425781 34.957031 C 121.503906 34.957031 121.886719 34.957031 122.234375 35.152344 C 121.964844 35.230469 121.503906 35.574219 121.503906 36.191406 C 121.503906 36.730469 121.886719 37.234375 122.582031 37.234375 C 123.273438 37.234375 123.660156 36.730469 123.660156 36.152344 C 123.660156 35.230469 122.734375 34.417969 121.425781 34.417969 C 119.730469 34.417969 117.609375 35.730469 117.609375 38.351562 L 117.609375 41.164062 L 115.683594 41.164062 L 115.683594 41.933594 L 117.609375 41.933594 L 117.609375 49.914062 C 117.609375 50.992188 117.339844 50.992188 115.722656 50.992188 L 115.722656 51.761719 C 116.683594 51.722656 117.839844 51.6875 118.496094 51.6875 C 119.496094 51.6875 120.652344 51.6875 121.617188 51.761719 L 121.617188 50.992188 L 121.117188 50.992188 C 119.304688 50.992188 119.265625 50.722656 119.265625 49.835938 L 119.265625 41.933594 L 122.042969 41.933594 L 122.042969 41.164062 Z M 119.191406 41.164062 "/>
<path fill-rule="nonzero" fill="rgb(0%, 0%, 0%)" fill-opacity="1" d="M 133.480469 46.40625 C 133.480469 42.398438 135.484375 41.355469 136.796875 41.355469 C 137.027344 41.355469 138.570312 41.394531 139.417969 42.28125 C 138.414062 42.359375 138.261719 43.089844 138.261719 43.398438 C 138.261719 44.054688 138.722656 44.515625 139.378906 44.515625 C 140.035156 44.515625 140.535156 44.132812 140.535156 43.359375 C 140.535156 41.703125 138.644531 40.738281 136.757812 40.738281 C 133.675781 40.738281 131.4375 43.398438 131.4375 46.445312 C 131.4375 49.605469 133.867188 52.03125 136.71875 52.03125 C 139.996094 52.03125 140.804688 49.066406 140.804688 48.832031 C 140.804688 48.601562 140.535156 48.601562 140.457031 48.601562 C 140.265625 48.601562 140.1875 48.679688 140.148438 48.832031 C 139.457031 51.109375 137.835938 51.417969 136.949219 51.417969 C 135.640625 51.417969 133.480469 50.375 133.480469 46.40625 Z M 133.480469 46.40625 "/>
<path fill-rule="nonzero" fill="rgb(0%, 0%, 0%)" fill-opacity="1" d="M 149.683594 49.914062 C 149.796875 50.875 150.453125 51.917969 151.609375 51.917969 C 152.148438 51.917969 153.652344 51.570312 153.652344 49.566406 L 153.652344 48.179688 L 153.035156 48.179688 L 153.035156 49.566406 C 153.035156 50.992188 152.417969 51.144531 152.148438 51.144531 C 151.339844 51.144531 151.222656 50.027344 151.222656 49.914062 L 151.222656 45.019531 C 151.222656 43.976562 151.222656 43.015625 150.335938 42.089844 C 149.375 41.125 148.140625 40.738281 146.984375 40.738281 C 144.941406 40.738281 143.246094 41.894531 143.246094 43.515625 C 143.246094 44.246094 143.746094 44.671875 144.402344 44.671875 C 145.097656 44.671875 145.519531 44.171875 145.519531 43.554688 C 145.519531 43.246094 145.40625 42.4375 144.25 42.4375 C 144.941406 41.550781 146.136719 41.28125 146.90625 41.28125 C 148.140625 41.28125 149.527344 42.242188 149.527344 44.441406 L 149.527344 45.328125 C 148.257812 45.402344 146.5625 45.480469 145.019531 46.214844 C 143.167969 47.0625 142.550781 48.332031 142.550781 49.410156 C 142.550781 51.417969 144.941406 52.03125 146.484375 52.03125 C 148.101562 52.03125 149.21875 51.03125 149.683594 49.914062 Z M 149.527344 45.867188 L 149.527344 48.332031 C 149.527344 50.644531 147.753906 51.492188 146.636719 51.492188 C 145.441406 51.492188 144.441406 50.644531 144.441406 49.410156 C 144.441406 48.0625 145.480469 46.019531 149.527344 45.867188 Z M 149.527344 45.867188 "/>
<path fill-rule="nonzero" fill="rgb(0%, 0%, 0%)" fill-opacity="1" d="M 157.921875 43.59375 L 157.921875 40.894531 L 154.492188 41.164062 L 154.492188 41.933594 C 156.226562 41.933594 156.417969 42.089844 156.417969 43.324219 L 156.417969 49.914062 C 156.417969 50.992188 156.148438 50.992188 154.492188 50.992188 L 154.492188 51.761719 C 155.457031 51.722656 156.613281 51.6875 157.304688 51.6875 C 158.269531 51.6875 159.425781 51.6875 160.429688 51.761719 L 160.429688 50.992188 L 159.886719 50.992188 C 158.078125 50.992188 158.039062 50.722656 158.039062 49.835938 L 158.039062 46.058594 C 158.039062 43.628906 159.078125 41.433594 160.929688 41.433594 C 161.082031 41.433594 161.160156 41.433594 161.199219 41.472656 C 161.121094 41.472656 160.621094 41.78125 160.621094 42.4375 C 160.621094 43.089844 161.160156 43.476562 161.699219 43.476562 C 162.125 43.476562 162.742188 43.167969 162.742188 42.398438 C 162.742188 41.625 161.96875 40.894531 160.929688 40.894531 C 159.117188 40.894531 158.230469 42.550781 157.921875 43.59375 Z M 157.921875 43.59375 "/>
<path fill-rule="nonzero" fill="rgb(0%, 0%, 0%)" fill-opacity="1" d="M 172.75 50.414062 L 172.75 52.03125 L 176.375 51.761719 L 176.375 50.992188 C 174.679688 50.992188 174.449219 50.839844 174.449219 49.605469 L 174.449219 34.6875 L 170.941406 34.957031 L 170.941406 35.730469 C 172.636719 35.730469 172.828125 35.882812 172.828125 37.117188 L 172.828125 42.4375 C 172.136719 41.550781 171.054688 40.894531 169.746094 40.894531 C 166.855469 40.894531 164.273438 43.324219 164.273438 46.484375 C 164.273438 49.605469 166.664062 52.03125 169.476562 52.03125 C 171.054688 52.03125 172.136719 51.183594 172.75 50.414062 Z M 172.75 43.824219 L 172.75 48.871094 C 172.75 49.296875 172.75 49.335938 172.480469 49.757812 C 171.75 50.953125 170.671875 51.492188 169.589844 51.492188 C 168.472656 51.492188 167.585938 50.839844 167.007812 49.914062 C 166.390625 48.910156 166.316406 47.523438 166.316406 46.484375 C 166.316406 45.597656 166.355469 44.132812 167.046875 43.015625 C 167.585938 42.242188 168.511719 41.433594 169.859375 41.433594 C 170.710938 41.433594 171.75 41.820312 172.480469 42.898438 C 172.75 43.324219 172.75 43.359375 172.75 43.824219 Z M 172.75 43.824219 "/>
<path fill-rule="nonzero" fill="rgb(0%, 0%, 0%)" fill-opacity="1" d="M 182.203125 46.984375 C 182.742188 47.097656 184.746094 47.484375 184.746094 49.257812 C 184.746094 50.492188 183.898438 51.492188 181.972656 51.492188 C 179.890625 51.492188 179.003906 50.105469 178.542969 47.984375 C 178.464844 47.675781 178.464844 47.601562 178.195312 47.601562 C 177.886719 47.601562 177.886719 47.753906 177.886719 48.179688 L 177.886719 51.453125 C 177.886719 51.878906 177.886719 52.03125 178.15625 52.03125 C 178.273438 52.03125 178.3125 51.996094 178.773438 51.53125 C 178.8125 51.492188 178.8125 51.453125 179.273438 50.992188 C 180.355469 51.996094 181.472656 52.03125 181.972656 52.03125 C 184.785156 52.03125 185.941406 50.375 185.941406 48.601562 C 185.941406 47.332031 185.210938 46.558594 184.902344 46.289062 C 184.09375 45.480469 183.128906 45.289062 182.089844 45.09375 C 180.699219 44.824219 179.082031 44.515625 179.082031 43.089844 C 179.082031 42.203125 179.699219 41.203125 181.820312 41.203125 C 184.515625 41.203125 184.671875 43.4375 184.710938 44.171875 C 184.710938 44.402344 184.941406 44.402344 184.980469 44.402344 C 185.324219 44.402344 185.324219 44.285156 185.324219 43.824219 L 185.324219 41.316406 C 185.324219 40.933594 185.324219 40.738281 185.054688 40.738281 C 184.941406 40.738281 184.863281 40.738281 184.554688 41.046875 C 184.476562 41.125 184.246094 41.355469 184.132812 41.433594 C 183.207031 40.738281 182.203125 40.738281 181.820312 40.738281 C 178.8125 40.738281 177.886719 42.398438 177.886719 43.785156 C 177.886719 44.632812 178.273438 45.328125 178.929688 45.867188 C 179.738281 46.484375 180.429688 46.636719 182.203125 46.984375 Z M 182.203125 46.984375 "/>
<path fill="none" stroke-width="0.3487" stroke-linecap="round" stroke-linejoin="miter" stroke="rgb(0%, 0%, 0%)" stroke-opacity="1" stroke-miterlimit="10" d="M 8.505994 -3.485403 L 8.505994 3.487253 Z M 8.505994 -3.485403 " transform="matrix(2.466667, 0, 0, -2.466667, 211.319329, 43.230798)"/>
<path fill="none" stroke-width="0.3487" stroke-linecap="round" stroke-linejoin="miter" stroke="rgb(0%, 0%, 0%)" stroke-opacity="1" stroke-miterlimit="10" d="M 39.190116 -3.485403 L 39.190116 3.487253 Z M 39.190116 -3.485403 " transform="matrix(2.466667, 0, 0, -2.466667, 211.319329, 43.230798)"/>
<path fill="none" stroke-width="0.3487" stroke-linecap="round" stroke-linejoin="miter" stroke="rgb(0%, 0%, 0%)" stroke-opacity="1" stroke-miterlimit="10" d="M 69.872654 -3.485403 L 69.872654 3.487253 Z M 69.872654 -3.485403 " transform="matrix(2.466667, 0, 0, -2.466667, 211.319329, 43.230798)"/>
<path fill="none" stroke-width="0.3487" stroke-linecap="round" stroke-linejoin="miter" stroke="rgb(0%, 0%, 0%)" stroke-opacity="1" stroke-miterlimit="10" d="M 100.559943 -3.485403 L 100.559943 3.487253 Z M 100.559943 -3.485403 " transform="matrix(2.466667, 0, 0, -2.466667, 211.319329, 43.230798)"/>
<path fill="none" stroke-width="0.3487" stroke-linecap="round" stroke-linejoin="miter" stroke="rgb(0%, 0%, 0%)" stroke-opacity="1" stroke-miterlimit="10" d="M 131.244064 -3.485403 L 131.244064 3.487253 Z M 131.244064 -3.485403 " transform="matrix(2.466667, 0, 0, -2.466667, 211.319329, 43.230798)"/>
<path fill-rule="nonzero" fill="rgb(0%, 0%, 0%)" fill-opacity="1" d="M 237.097656 20.269531 C 237.097656 18.804688 237.019531 16.875 236.25 15.21875 C 235.246094 13.136719 233.589844 12.636719 232.316406 12.636719 C 230.96875 12.636719 229.273438 13.136719 228.308594 15.296875 C 227.613281 16.800781 227.5 18.609375 227.5 20.269531 C 227.5 21.734375 227.539062 23.851562 228.5 25.625 C 229.542969 27.476562 231.277344 27.859375 232.277344 27.859375 C 233.703125 27.859375 235.363281 27.246094 236.285156 25.203125 C 236.941406 23.699219 237.097656 22.042969 237.097656 20.269531 Z M 232.316406 27.28125 C 231.625 27.28125 230.042969 26.976562 229.617188 24.46875 C 229.386719 23.199219 229.386719 21.269531 229.386719 20 C 229.386719 18.496094 229.386719 16.761719 229.65625 15.527344 C 230.121094 13.5625 231.507812 13.175781 232.277344 13.175781 C 233.125 13.175781 234.515625 13.640625 234.9375 15.683594 C 235.167969 16.875 235.167969 18.609375 235.167969 20 C 235.167969 21.386719 235.167969 23.234375 234.9375 24.546875 C 234.476562 27.089844 232.855469 27.28125 232.316406 27.28125 Z M 232.316406 27.28125 "/>
<path fill-rule="nonzero" fill="rgb(0%, 0%, 0%)" fill-opacity="1" d="M 298.929688 19.730469 C 298.929688 20.113281 298.929688 20.382812 299.238281 20.382812 C 299.394531 20.382812 299.472656 20.269531 299.585938 20.074219 C 300.28125 19.152344 301.320312 18.609375 302.476562 18.609375 C 304.867188 18.609375 304.867188 22.042969 304.867188 22.8125 C 304.867188 23.507812 304.867188 24.894531 304.210938 25.894531 C 303.632812 26.820312 302.707031 27.246094 301.820312 27.246094 C 300.550781 27.246094 299.046875 26.398438 298.507812 24.777344 C 298.546875 24.777344 298.660156 24.816406 298.816406 24.816406 C 299.277344 24.816406 299.933594 24.546875 299.933594 23.738281 C 299.933594 23.042969 299.433594 22.65625 298.816406 22.65625 C 298.351562 22.65625 297.738281 22.929688 297.738281 23.8125 C 297.738281 25.820312 299.433594 27.859375 301.898438 27.859375 C 304.558594 27.859375 306.832031 25.664062 306.832031 22.929688 C 306.832031 20.269531 304.945312 18.070312 302.515625 18.070312 C 301.476562 18.070312 300.394531 18.417969 299.585938 19.226562 L 299.585938 14.871094 C 300.28125 15.066406 300.972656 15.179688 301.628906 15.179688 C 304.367188 15.179688 305.945312 13.214844 305.945312 12.90625 C 305.945312 12.714844 305.832031 12.636719 305.714844 12.636719 C 305.675781 12.636719 305.636719 12.636719 305.40625 12.753906 C 304.367188 13.136719 303.363281 13.332031 302.4375 13.332031 C 301.476562 13.332031 300.472656 13.136719 299.472656 12.753906 C 299.238281 12.636719 299.203125 12.636719 299.203125 12.636719 C 298.929688 12.636719 298.929688 12.828125 298.929688 13.214844 Z M 298.929688 19.730469 "/>
<path fill-rule="nonzero" fill="rgb(0%, 0%, 0%)" fill-opacity="1" d="M 318.46875 20.269531 C 318.46875 18.804688 318.390625 16.875 317.621094 15.21875 C 316.617188 13.136719 314.960938 12.636719 313.6875 12.636719 C 312.339844 12.636719 310.644531 13.136719 309.679688 15.296875 C 308.988281 16.800781 308.871094 18.609375 308.871094 20.269531 C 308.871094 21.734375 308.910156 23.851562 309.875 25.625 C 310.914062 27.476562 312.648438 27.859375 313.652344 27.859375 C 315.078125 27.859375 316.734375 27.246094 317.660156 25.203125 C 318.3125 23.699219 318.46875 22.042969 318.46875 20.269531 Z M 313.6875 27.28125 C 312.996094 27.28125 311.414062 26.976562 310.992188 24.46875 C 310.761719 23.199219 310.761719 21.269531 310.761719 20 C 310.761719 18.496094 310.761719 16.761719 311.03125 15.527344 C 311.492188 13.5625 312.878906 13.175781 313.652344 13.175781 C 314.5 13.175781 315.886719 13.640625 316.308594 15.683594 C 316.542969 16.875 316.542969 18.609375 316.542969 20 C 316.542969 21.386719 316.542969 23.234375 316.308594 24.546875 C 315.847656 27.089844 314.230469 27.28125 313.6875 27.28125 Z M 313.6875 27.28125 "/>
<path fill-rule="nonzero" fill="rgb(0%, 0%, 0%)" fill-opacity="1" d="M 528.21875 23.429688 L 527.601562 23.429688 C 527.5625 23.738281 527.371094 25.046875 527.101562 25.394531 C 526.945312 25.585938 525.445312 25.585938 524.980469 25.585938 L 521.050781 25.585938 L 523.246094 23.507812 C 526.871094 20.382812 528.21875 19.1875 528.21875 16.953125 C 528.21875 14.410156 526.136719 12.636719 523.402344 12.636719 C 520.855469 12.636719 519.121094 14.640625 519.121094 16.644531 C 519.121094 17.761719 520.085938 17.878906 520.277344 17.878906 C 520.78125 17.878906 521.433594 17.53125 521.433594 16.722656 C 521.433594 16.066406 520.972656 15.566406 520.277344 15.566406 C 520.164062 15.566406 520.125 15.566406 520.007812 15.605469 C 520.546875 14.023438 521.976562 13.332031 523.167969 13.332031 C 525.40625 13.332031 526.175781 15.414062 526.175781 16.953125 C 526.175781 19.1875 524.480469 21.039062 523.4375 22.195312 L 519.390625 26.550781 C 519.121094 26.820312 519.121094 26.859375 519.121094 27.359375 L 527.601562 27.359375 Z M 528.21875 23.429688 "/>
<path fill-rule="nonzero" fill="rgb(0%, 0%, 0%)" fill-opacity="1" d="M 539.855469 20.269531 C 539.855469 18.804688 539.777344 16.875 539.007812 15.21875 C 538.003906 13.136719 536.347656 12.636719 535.074219 12.636719 C 533.726562 12.636719 532.03125 13.136719 531.066406 15.296875 C 530.371094 16.800781 530.257812 18.609375 530.257812 20.269531 C 530.257812 21.734375 530.296875 23.851562 531.257812 25.625 C 532.300781 27.476562 534.035156 27.859375 535.035156 27.859375 C 536.460938 27.859375 538.121094 27.246094 539.042969 25.203125 C 539.699219 23.699219 539.855469 22.042969 539.855469 20.269531 Z M 535.074219 27.28125 C 534.382812 27.28125 532.800781 26.976562 532.378906 24.46875 C 532.144531 23.199219 532.144531 21.269531 532.144531 20 C 532.144531 18.496094 532.144531 16.761719 532.414062 15.527344 C 532.878906 13.5625 534.265625 13.175781 535.035156 13.175781 C 535.882812 13.175781 537.273438 13.640625 537.695312 15.683594 C 537.925781 16.875 537.925781 18.609375 537.925781 20 C 537.925781 21.386719 537.925781 23.234375 537.695312 24.546875 C 537.234375 27.089844 535.613281 27.28125 535.074219 27.28125 Z M 535.074219 27.28125 "/>
<path fill-rule="nonzero" fill="rgb(0%, 0%, 0%)" fill-opacity="1" d="M 551.21875 20.269531 C 551.21875 18.804688 551.144531 16.875 550.371094 15.21875 C 549.371094 13.136719 547.714844 12.636719 546.441406 12.636719 C 545.09375 12.636719 543.394531 13.136719 542.433594 15.296875 C 541.738281 16.800781 541.625 18.609375 541.625 20.269531 C 541.625 21.734375 541.660156 23.851562 542.625 25.625 C 543.667969 27.476562 545.402344 27.859375 546.402344 27.859375 C 547.828125 27.859375 549.484375 27.246094 550.410156 25.203125 C 551.066406 23.699219 551.21875 22.042969 551.21875 20.269531 Z M 546.441406 27.28125 C 545.746094 27.28125 544.167969 26.976562 543.742188 24.46875 C 543.511719 23.199219 543.511719 21.269531 543.511719 20 C 543.511719 18.496094 543.511719 16.761719 543.78125 15.527344 C 544.246094 13.5625 545.632812 13.175781 546.402344 13.175781 C 547.25 13.175781 548.636719 13.640625 549.0625 15.683594 C 549.292969 16.875 549.292969 18.609375 549.292969 20 C 549.292969 21.386719 549.292969 23.234375 549.0625 24.546875 C 548.597656 27.089844 546.980469 27.28125 546.441406 27.28125 Z M 546.441406 27.28125 "/>
<path fill="none" stroke-width="0.3985" stroke-linecap="butt" stroke-linejoin="miter" stroke="rgb(0%, 0%, 0%)" stroke-opacity="1" stroke-miterlimit="10" d="M 0.00198241 -25.735192 L 142.009478 -25.735192 " transform="matrix(2.466667, 0, 0, -2.466667, 211.319329, 43.230798)"/>
<path fill-rule="nonzero" fill="rgb(0%, 0%, 0%)" fill-opacity="1" d="M 566.523438 106.710938 L 558.660156 102.78125 L 561.609375 106.710938 L 558.660156 110.644531 "/>
<path fill-rule="nonzero" fill="rgb(0%, 0%, 0%)" fill-opacity="1" d="M 76.257812 102.632812 L 76.257812 101.015625 L 72.710938 101.285156 L 72.710938 102.054688 C 74.445312 102.054688 74.636719 102.210938 74.636719 103.289062 L 74.636719 114.773438 C 74.636719 115.890625 74.367188 115.890625 72.710938 115.890625 L 72.710938 116.664062 C 73.558594 116.625 74.832031 116.585938 75.445312 116.585938 C 76.140625 116.585938 77.375 116.625 78.222656 116.664062 L 78.222656 115.890625 C 76.601562 115.890625 76.332031 115.890625 76.332031 114.773438 L 76.332031 110.417969 C 76.449219 110.84375 77.488281 112.152344 79.339844 112.152344 C 82.269531 112.152344 84.8125 109.726562 84.8125 106.5625 C 84.8125 103.441406 82.460938 101.015625 79.6875 101.015625 C 77.757812 101.015625 76.71875 102.09375 76.257812 102.632812 Z M 76.332031 109.070312 L 76.332031 103.597656 C 77.027344 102.324219 78.222656 101.632812 79.492188 101.632812 C 81.304688 101.632812 82.769531 103.789062 82.769531 106.5625 C 82.769531 109.53125 81.074219 111.613281 79.261719 111.613281 C 78.261719 111.613281 77.335938 111.113281 76.679688 110.109375 C 76.332031 109.609375 76.332031 109.570312 76.332031 109.070312 Z M 76.332031 109.070312 "/>
<path fill-rule="nonzero" fill="rgb(0%, 0%, 0%)" fill-opacity="1" d="M 89.09375 105.679688 C 89.25 102.015625 91.332031 101.398438 92.179688 101.398438 C 94.683594 101.398438 94.953125 104.714844 94.953125 105.679688 Z M 89.09375 106.21875 L 95.957031 106.21875 C 96.496094 106.21875 96.570312 106.21875 96.570312 105.679688 C 96.570312 103.25 95.222656 100.859375 92.179688 100.859375 C 89.324219 100.859375 87.050781 103.402344 87.050781 106.488281 C 87.050781 109.761719 89.632812 112.152344 92.449219 112.152344 C 95.453125 112.152344 96.570312 109.417969 96.570312 108.953125 C 96.570312 108.722656 96.378906 108.644531 96.226562 108.644531 C 96.03125 108.644531 95.957031 108.800781 95.917969 108.992188 C 95.070312 111.535156 92.832031 111.535156 92.601562 111.535156 C 91.367188 111.535156 90.40625 110.804688 89.828125 109.878906 C 89.09375 108.722656 89.09375 107.105469 89.09375 106.21875 Z M 89.09375 106.21875 "/>
<path fill-rule="nonzero" fill="rgb(0%, 0%, 0%)" fill-opacity="1" d="M 101.402344 103.710938 L 101.402344 101.015625 L 97.972656 101.285156 L 97.972656 102.054688 C 99.707031 102.054688 99.898438 102.210938 99.898438 103.441406 L 99.898438 110.03125 C 99.898438 111.113281 99.628906 111.113281 97.972656 111.113281 L 97.972656 111.882812 C 98.9375 111.84375 100.09375 111.804688 100.785156 111.804688 C 101.75 111.804688 102.90625 111.804688 103.910156 111.882812 L 103.910156 111.113281 L 103.367188 111.113281 C 101.558594 111.113281 101.519531 110.84375 101.519531 109.957031 L 101.519531 106.179688 C 101.519531 103.75 102.558594 101.554688 104.410156 101.554688 C 104.5625 101.554688 104.640625 101.554688 104.679688 101.59375 C 104.601562 101.59375 104.101562 101.902344 104.101562 102.554688 C 104.101562 103.210938 104.640625 103.597656 105.179688 103.597656 C 105.605469 103.597656 106.222656 103.289062 106.222656 102.515625 C 106.222656 101.746094 105.449219 101.015625 104.410156 101.015625 C 102.597656 101.015625 101.710938 102.671875 101.402344 103.710938 Z M 101.402344 103.710938 "/>
<path fill-rule="nonzero" fill="rgb(0%, 0%, 0%)" fill-opacity="1" d="M 109.796875 106.527344 C 109.796875 102.515625 111.800781 101.476562 113.109375 101.476562 C 113.339844 101.476562 114.882812 101.515625 115.730469 102.402344 C 114.730469 102.480469 114.574219 103.210938 114.574219 103.519531 C 114.574219 104.175781 115.039062 104.636719 115.691406 104.636719 C 116.347656 104.636719 116.847656 104.25 116.847656 103.480469 C 116.847656 101.824219 114.960938 100.859375 113.070312 100.859375 C 109.988281 100.859375 107.753906 103.519531 107.753906 106.5625 C 107.753906 109.726562 110.179688 112.152344 113.035156 112.152344 C 116.308594 112.152344 117.117188 109.183594 117.117188 108.953125 C 117.117188 108.722656 116.847656 108.722656 116.773438 108.722656 C 116.578125 108.722656 116.503906 108.800781 116.464844 108.953125 C 115.769531 111.226562 114.152344 111.535156 113.265625 111.535156 C 111.953125 111.535156 109.796875 110.496094 109.796875 106.527344 Z M 109.796875 106.527344 "/>
<path fill-rule="nonzero" fill="rgb(0%, 0%, 0%)" fill-opacity="1" d="M 120.5625 105.679688 C 120.714844 102.015625 122.796875 101.398438 123.644531 101.398438 C 126.152344 101.398438 126.421875 104.714844 126.421875 105.679688 Z M 120.5625 106.21875 L 127.421875 106.21875 C 127.960938 106.21875 128.039062 106.21875 128.039062 105.679688 C 128.039062 103.25 126.691406 100.859375 123.644531 100.859375 C 120.792969 100.859375 118.519531 103.402344 118.519531 106.488281 C 118.519531 109.761719 121.101562 112.152344 123.914062 112.152344 C 126.921875 112.152344 128.039062 109.417969 128.039062 108.953125 C 128.039062 108.722656 127.847656 108.644531 127.691406 108.644531 C 127.5 108.644531 127.421875 108.800781 127.382812 108.992188 C 126.535156 111.535156 124.300781 111.535156 124.070312 111.535156 C 122.835938 111.535156 121.871094 110.804688 121.292969 109.878906 C 120.5625 108.722656 120.5625 107.105469 120.5625 106.21875 Z M 120.5625 106.21875 "/>
<path fill-rule="nonzero" fill="rgb(0%, 0%, 0%)" fill-opacity="1" d="M 131.445312 103.441406 L 131.445312 110.03125 C 131.445312 111.113281 131.175781 111.113281 129.519531 111.113281 L 129.519531 111.882812 C 130.402344 111.84375 131.636719 111.804688 132.332031 111.804688 C 132.949219 111.804688 134.21875 111.84375 135.066406 111.882812 L 135.066406 111.113281 C 133.410156 111.113281 133.140625 111.113281 133.140625 110.03125 L 133.140625 105.484375 C 133.140625 102.941406 134.914062 101.554688 136.457031 101.554688 C 138.035156 101.554688 138.304688 102.863281 138.304688 104.289062 L 138.304688 110.03125 C 138.304688 111.113281 138.035156 111.113281 136.378906 111.113281 L 136.378906 111.882812 C 137.226562 111.84375 138.496094 111.804688 139.152344 111.804688 C 139.769531 111.804688 141.082031 111.84375 141.890625 111.882812 L 141.890625 111.113281 C 140.617188 111.113281 140 111.113281 140 110.378906 L 140 105.679688 C 140 103.558594 140 102.824219 139.230469 101.9375 C 138.882812 101.515625 138.074219 101.015625 136.648438 101.015625 C 134.835938 101.015625 133.679688 102.054688 132.988281 103.597656 L 132.988281 101.015625 L 129.519531 101.285156 L 129.519531 102.054688 C 131.253906 102.054688 131.445312 102.210938 131.445312 103.441406 Z M 131.445312 103.441406 "/>
<path fill-rule="nonzero" fill="rgb(0%, 0%, 0%)" fill-opacity="1" d="M 145.953125 102.054688 L 149.496094 102.054688 L 149.496094 101.285156 L 145.953125 101.285156 L 145.953125 96.773438 L 145.335938 96.773438 C 145.335938 98.777344 144.601562 101.398438 142.175781 101.515625 L 142.175781 102.054688 L 144.257812 102.054688 L 144.257812 108.839844 C 144.257812 111.84375 146.570312 112.152344 147.453125 112.152344 C 149.1875 112.152344 149.882812 110.417969 149.882812 108.839844 L 149.882812 107.449219 L 149.265625 107.449219 L 149.265625 108.800781 C 149.265625 110.609375 148.535156 111.535156 147.609375 111.535156 C 145.953125 111.535156 145.953125 109.300781 145.953125 108.875 Z M 145.953125 102.054688 "/>
<path fill-rule="nonzero" fill="rgb(0%, 0%, 0%)" fill-opacity="1" d="M 159.441406 110.03125 C 159.554688 110.996094 160.210938 112.039062 161.367188 112.039062 C 161.90625 112.039062 163.410156 111.691406 163.410156 109.6875 L 163.410156 108.296875 L 162.792969 108.296875 L 162.792969 109.6875 C 162.792969 111.113281 162.175781 111.265625 161.90625 111.265625 C 161.097656 111.265625 160.980469 110.148438 160.980469 110.03125 L 160.980469 105.136719 C 160.980469 104.097656 160.980469 103.132812 160.09375 102.210938 C 159.132812 101.246094 157.898438 100.859375 156.742188 100.859375 C 154.699219 100.859375 153.003906 102.015625 153.003906 103.636719 C 153.003906 104.367188 153.503906 104.792969 154.160156 104.792969 C 154.855469 104.792969 155.277344 104.289062 155.277344 103.671875 C 155.277344 103.367188 155.160156 102.554688 154.003906 102.554688 C 154.699219 101.667969 155.894531 101.398438 156.664062 101.398438 C 157.898438 101.398438 159.285156 102.363281 159.285156 104.558594 L 159.285156 105.445312 C 158.015625 105.523438 156.316406 105.601562 154.777344 106.332031 C 152.925781 107.179688 152.308594 108.453125 152.308594 109.53125 C 152.308594 111.535156 154.699219 112.152344 156.242188 112.152344 C 157.859375 112.152344 158.976562 111.152344 159.441406 110.03125 Z M 159.285156 105.984375 L 159.285156 108.453125 C 159.285156 110.765625 157.511719 111.613281 156.394531 111.613281 C 155.199219 111.613281 154.199219 110.765625 154.199219 109.53125 C 154.199219 108.183594 155.238281 106.140625 159.285156 105.984375 Z M 159.285156 105.984375 "/>
<path fill-rule="nonzero" fill="rgb(0%, 0%, 0%)" fill-opacity="1" d="M 169.03125 107.644531 C 166.871094 107.644531 166.871094 105.175781 166.871094 104.636719 C 166.871094 103.980469 166.910156 103.171875 167.257812 102.554688 C 167.449219 102.285156 168.027344 101.59375 169.03125 101.59375 C 171.148438 101.59375 171.148438 104.019531 171.148438 104.597656 C 171.148438 105.253906 171.148438 106.0625 170.765625 106.679688 C 170.570312 106.949219 169.992188 107.644531 169.03125 107.644531 Z M 166.175781 108.605469 C 166.175781 108.53125 166.175781 107.953125 166.5625 107.449219 C 167.527344 108.144531 168.566406 108.222656 169.03125 108.222656 C 171.304688 108.222656 173 106.527344 173 104.636719 C 173 103.710938 172.613281 102.824219 171.996094 102.246094 C 172.882812 101.398438 173.769531 101.285156 174.195312 101.285156 C 174.269531 101.285156 174.386719 101.285156 174.464844 101.324219 C 174.195312 101.398438 174.039062 101.667969 174.039062 101.976562 C 174.039062 102.402344 174.386719 102.671875 174.773438 102.671875 C 175.003906 102.671875 175.464844 102.515625 175.464844 101.9375 C 175.464844 101.515625 175.195312 100.746094 174.234375 100.746094 C 173.730469 100.746094 172.652344 100.898438 171.613281 101.902344 C 170.570312 101.089844 169.570312 101.015625 169.03125 101.015625 C 166.71875 101.015625 165.019531 102.710938 165.019531 104.597656 C 165.019531 105.679688 165.5625 106.601562 166.175781 107.140625 C 165.867188 107.488281 165.40625 108.296875 165.40625 109.183594 C 165.40625 109.957031 165.753906 110.882812 166.523438 111.382812 C 165.019531 111.765625 164.25 112.847656 164.25 113.808594 C 164.25 115.582031 166.679688 116.933594 169.683594 116.933594 C 172.574219 116.933594 175.117188 115.699219 175.117188 113.773438 C 175.117188 112.921875 174.8125 111.652344 173.539062 110.957031 C 172.226562 110.304688 170.800781 110.304688 169.300781 110.304688 C 168.683594 110.304688 167.640625 110.304688 167.449219 110.265625 C 166.679688 110.148438 166.175781 109.417969 166.175781 108.605469 Z M 169.722656 116.390625 C 167.21875 116.390625 165.523438 115.121094 165.523438 113.808594 C 165.523438 112.691406 166.445312 111.765625 167.527344 111.730469 L 168.992188 111.730469 C 171.109375 111.730469 173.847656 111.730469 173.847656 113.808594 C 173.847656 115.160156 172.113281 116.390625 169.722656 116.390625 Z M 169.722656 116.390625 "/>
<path fill-rule="nonzero" fill="rgb(0%, 0%, 0%)" fill-opacity="1" d="M 178.582031 105.679688 C 178.734375 102.015625 180.816406 101.398438 181.664062 101.398438 C 184.167969 101.398438 184.4375 104.714844 184.4375 105.679688 Z M 178.582031 106.21875 L 185.441406 106.21875 C 185.980469 106.21875 186.058594 106.21875 186.058594 105.679688 C 186.058594 103.25 184.707031 100.859375 181.664062 100.859375 C 178.8125 100.859375 176.539062 103.402344 176.539062 106.488281 C 176.539062 109.761719 179.121094 112.152344 181.933594 112.152344 C 184.941406 112.152344 186.058594 109.417969 186.058594 108.953125 C 186.058594 108.722656 185.863281 108.644531 185.710938 108.644531 C 185.519531 108.644531 185.441406 108.800781 185.402344 108.992188 C 184.554688 111.535156 182.320312 111.535156 182.085938 111.535156 C 180.855469 111.535156 179.890625 110.804688 179.3125 109.878906 C 178.582031 108.722656 178.582031 107.105469 178.582031 106.21875 Z M 178.582031 106.21875 "/>
<path fill="none" stroke-width="0.3487" stroke-linecap="round" stroke-linejoin="miter" stroke="rgb(0%, 0%, 0%)" stroke-opacity="1" stroke-miterlimit="10" d="M 8.505994 -29.223895 L 8.505994 -22.251239 Z M 8.505994 -29.223895 " transform="matrix(2.466667, 0, 0, -2.466667, 211.319329, 43.230798)"/>
<path fill="none" stroke-width="0.3487" stroke-linecap="round" stroke-linejoin="miter" stroke="rgb(0%, 0%, 0%)" stroke-opacity="1" stroke-miterlimit="10" d="M 39.190116 -29.223895 L 39.190116 -22.251239 Z M 39.190116 -29.223895 " transform="matrix(2.466667, 0, 0, -2.466667, 211.319329, 43.230798)"/>
<path fill="none" stroke-width="0.3487" stroke-linecap="round" stroke-linejoin="miter" stroke="rgb(0%, 0%, 0%)" stroke-opacity="1" stroke-miterlimit="10" d="M 69.872654 -29.223895 L 69.872654 -22.251239 Z M 69.872654 -29.223895 " transform="matrix(2.466667, 0, 0, -2.466667, 211.319329, 43.230798)"/>
<path fill="none" stroke-width="0.3487" stroke-linecap="round" stroke-linejoin="miter" stroke="rgb(0%, 0%, 0%)" stroke-opacity="1" stroke-miterlimit="10" d="M 100.559943 -29.223895 L 100.559943 -22.251239 Z M 100.559943 -29.223895 " transform="matrix(2.466667, 0, 0, -2.466667, 211.319329, 43.230798)"/>
<path fill="none" stroke-width="0.3487" stroke-linecap="round" stroke-linejoin="miter" stroke="rgb(0%, 0%, 0%)" stroke-opacity="1" stroke-miterlimit="10" d="M 131.244064 -29.223895 L 131.244064 -22.251239 Z M 131.244064 -29.223895 " transform="matrix(2.466667, 0, 0, -2.466667, 211.319329, 43.230798)"/>
<path fill-rule="nonzero" fill="rgb(0%, 0%, 0%)" fill-opacity="1" d="M 227.625 132.421875 C 227.625 130.957031 227.546875 129.03125 226.777344 127.375 C 225.773438 125.292969 224.117188 124.792969 222.84375 124.792969 C 221.496094 124.792969 219.800781 125.292969 218.835938 127.449219 C 218.144531 128.953125 218.027344 130.765625 218.027344 132.421875 C 218.027344 133.886719 218.066406 136.007812 219.027344 137.78125 C 220.070312 139.628906 221.804688 140.015625 222.804688 140.015625 C 224.230469 140.015625 225.890625 139.398438 226.816406 137.355469 C 227.46875 135.851562 227.625 134.195312 227.625 132.421875 Z M 222.84375 139.4375 C 222.152344 139.4375 220.570312 139.128906 220.148438 136.625 C 219.914062 135.351562 219.914062 133.425781 219.914062 132.152344 C 219.914062 130.648438 219.914062 128.914062 220.183594 127.683594 C 220.648438 125.714844 222.035156 125.332031 222.804688 125.332031 C 223.652344 125.332031 225.042969 125.792969 225.464844 127.835938 C 225.695312 129.03125 225.695312 130.765625 225.695312 132.152344 C 225.695312 133.539062 225.695312 135.390625 225.464844 136.699219 C 225.003906 139.246094 223.382812 139.4375 222.84375 139.4375 Z M 222.84375 139.4375 "/>
<path fill-rule="nonzero" fill="rgb(0%, 0%, 0%)" fill-opacity="1" d="M 244.078125 123.789062 C 244.191406 123.636719 244.269531 123.558594 244.269531 123.402344 C 244.269531 123.097656 244 122.902344 243.808594 122.902344 C 243.539062 122.902344 243.421875 123.058594 243.308594 123.25 C 241.878906 125.101562 240.03125 125.371094 239.027344 125.371094 C 236.871094 125.371094 235.445312 124.289062 234.671875 123.558594 C 234.09375 123.019531 233.515625 122.902344 233.09375 122.902344 C 231.398438 122.902344 229.777344 124.753906 229.777344 127.375 C 229.777344 130.070312 231.4375 131.84375 233.09375 131.84375 C 234.75 131.84375 236.0625 129.878906 236.0625 127.375 C 236.0625 127.066406 236.0625 126.0625 235.636719 124.984375 C 236.984375 125.753906 238.257812 125.910156 239.027344 125.910156 C 239.992188 125.910156 240.996094 125.679688 241.917969 125.175781 L 241.957031 125.214844 L 231.859375 139.824219 C 231.859375 139.863281 231.667969 140.09375 231.667969 140.285156 C 231.667969 140.554688 231.898438 140.746094 232.167969 140.746094 C 232.398438 140.746094 232.515625 140.59375 232.628906 140.402344 Z M 233.171875 131.265625 C 232.667969 131.265625 231.242188 130.996094 231.242188 127.375 C 231.242188 123.75 232.667969 123.480469 233.171875 123.480469 C 234.328125 123.480469 235.445312 125.101562 235.445312 127.375 C 235.445312 129.726562 234.289062 131.265625 233.171875 131.265625 Z M 246.160156 136.316406 C 246.160156 133.734375 244.808594 131.84375 243.191406 131.84375 C 241.496094 131.84375 239.839844 133.65625 239.839844 136.277344 C 239.839844 138.976562 241.535156 140.746094 243.191406 140.746094 C 244.847656 140.746094 246.160156 138.820312 246.160156 136.316406 Z M 243.230469 140.207031 C 242.765625 140.207031 241.300781 139.898438 241.300781 136.316406 C 241.300781 132.652344 242.765625 132.382812 243.230469 132.382812 C 244.425781 132.382812 245.542969 134.042969 245.542969 136.277344 C 245.542969 138.628906 244.386719 140.207031 243.230469 140.207031 Z M 243.230469 140.207031 "/>
<path fill-rule="nonzero" fill="rgb(0%, 0%, 0%)" fill-opacity="1" d="M 293.851562 125.371094 C 293.851562 124.832031 293.851562 124.792969 293.3125 124.792969 C 291.925781 126.179688 289.882812 126.179688 289.191406 126.179688 L 289.191406 126.871094 C 289.613281 126.871094 290.960938 126.871094 292.15625 126.292969 L 292.15625 137.742188 C 292.15625 138.550781 292.117188 138.820312 290.039062 138.820312 L 289.34375 138.820312 L 289.34375 139.515625 C 290.113281 139.4375 292.117188 139.4375 293.003906 139.4375 C 293.929688 139.4375 295.894531 139.4375 296.707031 139.515625 L 296.707031 138.820312 L 296.011719 138.820312 C 293.929688 138.820312 293.851562 138.550781 293.851562 137.742188 Z M 293.851562 125.371094 "/>
<path fill-rule="nonzero" fill="rgb(0%, 0%, 0%)" fill-opacity="1" d="M 308.996094 132.421875 C 308.996094 130.957031 308.917969 129.03125 308.148438 127.375 C 307.144531 125.292969 305.488281 124.792969 304.21875 124.792969 C 302.867188 124.792969 301.171875 125.292969 300.207031 127.449219 C 299.515625 128.953125 299.398438 130.765625 299.398438 132.421875 C 299.398438 133.886719 299.4375 136.007812 300.402344 137.78125 C 301.441406 139.628906 303.175781 140.015625 304.179688 140.015625 C 305.605469 140.015625 307.261719 139.398438 308.1875 137.355469 C 308.84375 135.851562 308.996094 134.195312 308.996094 132.421875 Z M 304.21875 139.4375 C 303.523438 139.4375 301.941406 139.128906 301.519531 136.625 C 301.289062 135.351562 301.289062 133.425781 301.289062 132.152344 C 301.289062 130.648438 301.289062 128.914062 301.558594 127.683594 C 302.019531 125.714844 303.40625 125.332031 304.179688 125.332031 C 305.027344 125.332031 306.414062 125.792969 306.839844 127.835938 C 307.070312 129.03125 307.070312 130.765625 307.070312 132.152344 C 307.070312 133.539062 307.070312 135.390625 306.839844 136.699219 C 306.375 139.246094 304.757812 139.4375 304.21875 139.4375 Z M 304.21875 139.4375 "/>
<path fill-rule="nonzero" fill="rgb(0%, 0%, 0%)" fill-opacity="1" d="M 325.449219 123.789062 C 325.566406 123.636719 325.644531 123.558594 325.644531 123.402344 C 325.644531 123.097656 325.371094 122.902344 325.179688 122.902344 C 324.910156 122.902344 324.792969 123.058594 324.679688 123.25 C 323.253906 125.101562 321.402344 125.371094 320.402344 125.371094 C 318.242188 125.371094 316.816406 124.289062 316.046875 123.558594 C 315.46875 123.019531 314.890625 122.902344 314.464844 122.902344 C 312.769531 122.902344 311.152344 124.753906 311.152344 127.375 C 311.152344 130.070312 312.808594 131.84375 314.464844 131.84375 C 316.121094 131.84375 317.433594 129.878906 317.433594 127.375 C 317.433594 127.066406 317.433594 126.0625 317.007812 124.984375 C 318.359375 125.753906 319.628906 125.910156 320.402344 125.910156 C 321.363281 125.910156 322.367188 125.679688 323.292969 125.175781 L 323.332031 125.214844 L 313.230469 139.824219 C 313.230469 139.863281 313.039062 140.09375 313.039062 140.285156 C 313.039062 140.554688 313.269531 140.746094 313.539062 140.746094 C 313.773438 140.746094 313.886719 140.59375 314.003906 140.402344 Z M 314.542969 131.265625 C 314.042969 131.265625 312.617188 130.996094 312.617188 127.375 C 312.617188 123.75 314.042969 123.480469 314.542969 123.480469 C 315.699219 123.480469 316.816406 125.101562 316.816406 127.375 C 316.816406 129.726562 315.660156 131.265625 314.542969 131.265625 Z M 327.53125 136.316406 C 327.53125 133.734375 326.183594 131.84375 324.5625 131.84375 C 322.867188 131.84375 321.210938 133.65625 321.210938 136.277344 C 321.210938 138.976562 322.90625 140.746094 324.5625 140.746094 C 326.222656 140.746094 327.53125 138.820312 327.53125 136.316406 Z M 324.601562 140.207031 C 324.140625 140.207031 322.675781 139.898438 322.675781 136.316406 C 322.675781 132.652344 324.140625 132.382812 324.601562 132.382812 C 325.796875 132.382812 326.914062 134.042969 326.914062 136.277344 C 326.914062 138.628906 325.757812 140.207031 324.601562 140.207031 Z M 324.601562 140.207031 "/>
<path fill-rule="nonzero" fill="rgb(0%, 0%, 0%)" fill-opacity="1" d="M 534.425781 134.964844 C 534.425781 135.121094 534.425781 135.351562 534.734375 135.351562 C 535.042969 135.351562 535.042969 135.160156 535.042969 134.773438 L 535.042969 134.117188 C 535.042969 132 536.199219 130.378906 537.859375 129.222656 C 538.550781 128.722656 539.128906 128.066406 539.128906 126.910156 C 539.128906 125.5625 538.167969 123.90625 534.8125 123.90625 C 532.347656 123.90625 530.957031 125.410156 530.957031 126.871094 C 530.957031 127.644531 531.460938 127.953125 532 127.953125 C 532.578125 127.953125 533 127.527344 533 126.910156 C 533 126.566406 532.847656 125.871094 531.84375 125.871094 C 532.617188 124.636719 534.121094 124.484375 534.773438 124.484375 C 537.203125 124.484375 537.242188 125.949219 537.242188 126.835938 C 537.242188 128.066406 536.816406 128.492188 536.46875 128.878906 C 534.425781 130.957031 534.425781 133.464844 534.425781 134.351562 Z M 535.929688 138.320312 C 535.929688 137.664062 535.390625 137.125 534.734375 137.125 C 534.082031 137.125 533.542969 137.664062 533.542969 138.320312 C 533.542969 138.976562 534.082031 139.515625 534.734375 139.515625 C 535.390625 139.515625 535.929688 138.976562 535.929688 138.320312 Z M 535.929688 138.320312 "/>
</svg>
