<?xml version="1.0" encoding="UTF-8" standalone="no"?>
<!-- Created with Inkscape (http://www.inkscape.org/) -->
<svg
   xmlns:dc="http://purl.org/dc/elements/1.1/"
   xmlns:cc="http://creativecommons.org/ns#"
   xmlns:rdf="http://www.w3.org/1999/02/22-rdf-syntax-ns#"
   xmlns:svg="http://www.w3.org/2000/svg"
   xmlns="http://www.w3.org/2000/svg"
   xmlns:sodipodi="http://sodipodi.sourceforge.net/DTD/sodipodi-0.dtd"
   xmlns:inkscape="http://www.inkscape.org/namespaces/inkscape"
   id="svg2403"
   sodipodi:version="0.32"
   inkscape:version="0.46"
   width="619.79999"
   height="386.10016"
   xml:space="preserve"
   sodipodi:docname="SterProj2.svg"
   version="1.0"
   inkscape:output_extension="org.inkscape.output.svg.inkscape"><metadata
     id="metadata2408"><rdf:RDF><cc:Work
         rdf:about=""><dc:format>image/svg+xml</dc:format><dc:type
           rdf:resource="http://purl.org/dc/dcmitype/StillImage" /></cc:Work></rdf:RDF></metadata><defs
     id="defs2406"><inkscape:perspective
       sodipodi:type="inkscape:persp3d"
       inkscape:vp_x="0 : 526.18109 : 1"
       inkscape:vp_y="0 : 1000 : 0"
       inkscape:vp_z="744.09448 : 526.18109 : 1"
       inkscape:persp3d-origin="372.04724 : 350.78739 : 1"
       id="perspective2410" /></defs><sodipodi:namedview
     inkscape:window-height="952"
     inkscape:window-width="1280"
     inkscape:pageshadow="2"
     inkscape:pageopacity="0.0"
     guidetolerance="10.0"
     gridtolerance="10.0"
     objecttolerance="10.0"
     borderopacity="1.0"
     bordercolor="#666666"
     pagecolor="#ffffff"
     id="base"
     showgrid="false"
     inkscape:zoom="1.9102937"
     inkscape:cx="309.89999"
     inkscape:cy="193.05008"
     inkscape:window-x="-4"
     inkscape:window-y="-4"
     inkscape:current-layer="g2412" /><g
     id="g2412"
     inkscape:groupmode="layer"
     inkscape:label="SterProj2"
     transform="matrix(1.25,0,0,-1.25,-25.425,422.3535)"><g
       id="g2414"
       transform="scale(0.12,0.12)"><g
         id="g2416"><path
           d="M 3439,1960.19 L 3437,2018.19 L 3437,1902.19"
           style="fill:#dcdcdc;fill-opacity:1;fill-rule:evenodd;stroke:none"
           id="path2418" /><path
           d="M 3431,2076.19 L 3437,1902.19 L 3437,2018.19"
           style="fill:#dcdcdc;fill-opacity:1;fill-rule:evenodd;stroke:none"
           id="path2420" /><path
           d="M 3437,1902.19 L 3431,2076.19 L 3431,1844.19"
           style="fill:#dcdcdc;fill-opacity:1;fill-rule:evenodd;stroke:none"
           id="path2422" /><path
           d="M 3422,2134.19 L 3431,1844.19 L 3431,2076.19"
           style="fill:#dcdcdc;fill-opacity:1;fill-rule:evenodd;stroke:none"
           id="path2424" /><path
           d="M 3431,1844.19 L 3422,2134.19 L 3422,1786.19"
           style="fill:#dcdcdc;fill-opacity:1;fill-rule:evenodd;stroke:none"
           id="path2426" /><path
           d="M 3408,2191.19 L 3422,1786.19 L 3422,2134.19"
           style="fill:#dcdcdc;fill-opacity:1;fill-rule:evenodd;stroke:none"
           id="path2428" /><path
           d="M 3422,1786.19 L 3408,2191.19 L 3408,1730.19"
           style="fill:#dcdcdc;fill-opacity:1;fill-rule:evenodd;stroke:none"
           id="path2430" /><path
           d="M 3390,2246.19 L 3408,1730.19 L 3408,2191.19"
           style="fill:#dcdcdc;fill-opacity:1;fill-rule:evenodd;stroke:none"
           id="path2432" /><path
           d="M 3408,1730.19 L 3390,2246.19 L 3390,1674.19"
           style="fill:#dcdcdc;fill-opacity:1;fill-rule:evenodd;stroke:none"
           id="path2434" /><path
           d="M 3369,2300.19 L 3390,1674.19 L 3390,2246.19"
           style="fill:#dcdcdc;fill-opacity:1;fill-rule:evenodd;stroke:none"
           id="path2436" /><path
           d="M 3390,1674.19 L 3369,2300.19 L 3369,1620.19"
           style="fill:#dcdcdc;fill-opacity:1;fill-rule:evenodd;stroke:none"
           id="path2438" /><path
           d="M 3344,2353.19 L 3369,1620.19 L 3369,2300.19"
           style="fill:#dcdcdc;fill-opacity:1;fill-rule:evenodd;stroke:none"
           id="path2440" /><path
           d="M 3369,1620.19 L 3344,2353.19 L 3344,1567.19"
           style="fill:#dcdcdc;fill-opacity:1;fill-rule:evenodd;stroke:none"
           id="path2442" /><path
           d="M 3315,2404.19 L 3344,1567.19 L 3344,2353.19"
           style="fill:#dcdcdc;fill-opacity:1;fill-rule:evenodd;stroke:none"
           id="path2444" /><path
           d="M 3344,1567.19 L 3315,2404.19 L 3315,1516.19"
           style="fill:#dcdcdc;fill-opacity:1;fill-rule:evenodd;stroke:none"
           id="path2446" /><path
           d="M 3283,2453.19 L 3315,1516.19 L 3315,2404.19"
           style="fill:#dcdcdc;fill-opacity:1;fill-rule:evenodd;stroke:none"
           id="path2448" /><path
           d="M 3315,1516.19 L 3283,2453.19 L 3283,1467.19"
           style="fill:#dcdcdc;fill-opacity:1;fill-rule:evenodd;stroke:none"
           id="path2450" /><path
           d="M 3248,2499.19 L 3283,1467.19 L 3283,2453.19"
           style="fill:#dcdcdc;fill-opacity:1;fill-rule:evenodd;stroke:none"
           id="path2452" /><path
           d="M 3283,1467.19 L 3248,2499.19 L 3248,1421.19"
           style="fill:#dcdcdc;fill-opacity:1;fill-rule:evenodd;stroke:none"
           id="path2454" /><path
           d="M 3210,2543.19 L 3248,1421.19 L 3248,2499.19"
           style="fill:#dcdcdc;fill-opacity:1;fill-rule:evenodd;stroke:none"
           id="path2456" /><path
           d="M 3248,1421.19 L 3210,2543.19 L 3210,1377.19"
           style="fill:#dcdcdc;fill-opacity:1;fill-rule:evenodd;stroke:none"
           id="path2458" /><path
           d="M 3168,2584.19 L 3210,1377.19 L 3210,2543.19"
           style="fill:#dcdcdc;fill-opacity:1;fill-rule:evenodd;stroke:none"
           id="path2460" /><path
           d="M 3210,1377.19 L 3168,2584.19 L 3168,1336.19"
           style="fill:#dcdcdc;fill-opacity:1;fill-rule:evenodd;stroke:none"
           id="path2462" /><path
           d="M 3124,2623.19 L 3168,1336.19 L 3168,2584.19"
           style="fill:#dcdcdc;fill-opacity:1;fill-rule:evenodd;stroke:none"
           id="path2464" /><path
           d="M 3168,1336.19 L 3124,2623.19 L 3124,1297.19"
           style="fill:#dcdcdc;fill-opacity:1;fill-rule:evenodd;stroke:none"
           id="path2466" /><path
           d="M 3078,2658.19 L 3124,1297.19 L 3124,2623.19"
           style="fill:#dcdcdc;fill-opacity:1;fill-rule:evenodd;stroke:none"
           id="path2468" /><path
           d="M 3124,1297.19 L 3078,2658.19 L 3078,1262.19"
           style="fill:#dcdcdc;fill-opacity:1;fill-rule:evenodd;stroke:none"
           id="path2470" /><path
           d="M 3029,2690.19 L 3078,1262.19 L 3078,2658.19"
           style="fill:#dcdcdc;fill-opacity:1;fill-rule:evenodd;stroke:none"
           id="path2472" /><path
           d="M 3078,1262.19 L 3029,2690.19 L 3029,1230.19"
           style="fill:#dcdcdc;fill-opacity:1;fill-rule:evenodd;stroke:none"
           id="path2474" /><path
           d="M 2978,2718.19 L 3029,1230.19 L 3029,2690.19"
           style="fill:#dcdcdc;fill-opacity:1;fill-rule:evenodd;stroke:none"
           id="path2476" /><path
           d="M 3029,1230.19 L 2978,2718.19 L 2978,1202.19"
           style="fill:#dcdcdc;fill-opacity:1;fill-rule:evenodd;stroke:none"
           id="path2478" /><path
           d="M 2926,2744.19 L 2978,1202.19 L 2978,2718.19"
           style="fill:#dcdcdc;fill-opacity:1;fill-rule:evenodd;stroke:none"
           id="path2480" /><path
           d="M 2978,1202.19 L 2926,2744.19 L 2926,1177.19"
           style="fill:#dcdcdc;fill-opacity:1;fill-rule:evenodd;stroke:none"
           id="path2482" /><path
           d="M 2871,2765.19 L 2926,1177.19 L 2926,2744.19"
           style="fill:#dcdcdc;fill-opacity:1;fill-rule:evenodd;stroke:none"
           id="path2484" /><path
           d="M 2926,1177.19 L 2871,2765.19 L 2871,1155.19"
           style="fill:#dcdcdc;fill-opacity:1;fill-rule:evenodd;stroke:none"
           id="path2486" /><path
           d="M 2816,2783.19 L 2871,1155.19 L 2871,2765.19"
           style="fill:#dcdcdc;fill-opacity:1;fill-rule:evenodd;stroke:none"
           id="path2488" /><path
           d="M 2871,1155.19 L 2816,2783.19 L 2816,1138.19"
           style="fill:#dcdcdc;fill-opacity:1;fill-rule:evenodd;stroke:none"
           id="path2490" /><path
           d="M 2759,2796.19 L 2816,1138.19 L 2816,2783.19"
           style="fill:#dcdcdc;fill-opacity:1;fill-rule:evenodd;stroke:none"
           id="path2492" /><path
           d="M 2816,1138.19 L 2759,2796.19 L 2759,1124.19"
           style="fill:#dcdcdc;fill-opacity:1;fill-rule:evenodd;stroke:none"
           id="path2494" /><path
           d="M 2702,2806.19 L 2759,1124.19 L 2759,2796.19"
           style="fill:#dcdcdc;fill-opacity:1;fill-rule:evenodd;stroke:none"
           id="path2496" /><path
           d="M 2759,1124.19 L 2702,2806.19 L 2702,1114.19"
           style="fill:#dcdcdc;fill-opacity:1;fill-rule:evenodd;stroke:none"
           id="path2498" /><path
           d="M 2644,2812.19 L 2702,1114.19 L 2702,2806.19"
           style="fill:#dcdcdc;fill-opacity:1;fill-rule:evenodd;stroke:none"
           id="path2500" /><path
           d="M 2702,1114.19 L 2644,2812.19 L 2644,1108.19"
           style="fill:#dcdcdc;fill-opacity:1;fill-rule:evenodd;stroke:none"
           id="path2502" /><path
           d="M 2585,2814.19 L 2644,1108.19 L 2644,2812.19"
           style="fill:#dcdcdc;fill-opacity:1;fill-rule:evenodd;stroke:none"
           id="path2504" /><path
           d="M 2644,1108.19 L 2585,2814.19 L 2585,1106.19"
           style="fill:#dcdcdc;fill-opacity:1;fill-rule:evenodd;stroke:none"
           id="path2506" /><path
           d="M 2527,2812.19 L 2585,1106.19 L 2585,2814.19"
           style="fill:#dcdcdc;fill-opacity:1;fill-rule:evenodd;stroke:none"
           id="path2508" /><path
           d="M 2585,1106.19 L 2527,2812.19 L 2527,1108.19"
           style="fill:#dcdcdc;fill-opacity:1;fill-rule:evenodd;stroke:none"
           id="path2510" /><path
           d="M 2469,2806.19 L 2527,1108.19 L 2527,2812.19"
           style="fill:#dcdcdc;fill-opacity:1;fill-rule:evenodd;stroke:none"
           id="path2512" /><path
           d="M 2527,1108.19 L 2469,2806.19 L 2469,1114.19"
           style="fill:#dcdcdc;fill-opacity:1;fill-rule:evenodd;stroke:none"
           id="path2514" /><path
           d="M 2412,2796.19 L 2469,1114.19 L 2469,2806.19"
           style="fill:#dcdcdc;fill-opacity:1;fill-rule:evenodd;stroke:none"
           id="path2516" /><path
           d="M 2469,1114.19 L 2412,2796.19 L 2412,1124.19"
           style="fill:#dcdcdc;fill-opacity:1;fill-rule:evenodd;stroke:none"
           id="path2518" /><path
           d="M 2355,2783.19 L 2412,1124.19 L 2412,2796.19"
           style="fill:#dcdcdc;fill-opacity:1;fill-rule:evenodd;stroke:none"
           id="path2520" /><path
           d="M 2412,1124.19 L 2355,2783.19 L 2355,1138.19"
           style="fill:#dcdcdc;fill-opacity:1;fill-rule:evenodd;stroke:none"
           id="path2522" /><path
           d="M 2299,2765.19 L 2355,1138.19 L 2355,2783.19"
           style="fill:#dcdcdc;fill-opacity:1;fill-rule:evenodd;stroke:none"
           id="path2524" /><path
           d="M 2355,1138.19 L 2299,2765.19 L 2299,1155.19"
           style="fill:#dcdcdc;fill-opacity:1;fill-rule:evenodd;stroke:none"
           id="path2526" /><path
           d="M 2245,2744.19 L 2299,1155.19 L 2299,2765.19"
           style="fill:#dcdcdc;fill-opacity:1;fill-rule:evenodd;stroke:none"
           id="path2528" /><path
           d="M 2299,1155.19 L 2245,2744.19 L 2245,1177.19"
           style="fill:#dcdcdc;fill-opacity:1;fill-rule:evenodd;stroke:none"
           id="path2530" /><path
           d="M 2192,2718.19 L 2245,1177.19 L 2245,2744.19"
           style="fill:#dcdcdc;fill-opacity:1;fill-rule:evenodd;stroke:none"
           id="path2532" /><path
           d="M 2245,1177.19 L 2192,2718.19 L 2192,1202.19"
           style="fill:#dcdcdc;fill-opacity:1;fill-rule:evenodd;stroke:none"
           id="path2534" /><path
           d="M 2142,2690.19 L 2192,1202.19 L 2192,2718.19"
           style="fill:#dcdcdc;fill-opacity:1;fill-rule:evenodd;stroke:none"
           id="path2536" /><path
           d="M 2192,1202.19 L 2142,2690.19 L 2142,1230.19"
           style="fill:#dcdcdc;fill-opacity:1;fill-rule:evenodd;stroke:none"
           id="path2538" /><path
           d="M 2093,2658.19 L 2142,1230.19 L 2142,2690.19"
           style="fill:#dcdcdc;fill-opacity:1;fill-rule:evenodd;stroke:none"
           id="path2540" /><path
           d="M 2142,1230.19 L 2093,2658.19 L 2093,1262.19"
           style="fill:#dcdcdc;fill-opacity:1;fill-rule:evenodd;stroke:none"
           id="path2542" /><path
           d="M 2046,2623.19 L 2093,1262.19 L 2093,2658.19"
           style="fill:#dcdcdc;fill-opacity:1;fill-rule:evenodd;stroke:none"
           id="path2544" /><path
           d="M 2093,1262.19 L 2046,2623.19 L 2046,1297.19"
           style="fill:#dcdcdc;fill-opacity:1;fill-rule:evenodd;stroke:none"
           id="path2546" /><path
           d="M 2002,2584.19 L 2046,1297.19 L 2046,2623.19"
           style="fill:#dcdcdc;fill-opacity:1;fill-rule:evenodd;stroke:none"
           id="path2548" /><path
           d="M 2046,1297.19 L 2002,2584.19 L 2002,1336.19"
           style="fill:#dcdcdc;fill-opacity:1;fill-rule:evenodd;stroke:none"
           id="path2550" /><path
           d="M 1961,2543.19 L 2002,1336.19 L 2002,2584.19"
           style="fill:#dcdcdc;fill-opacity:1;fill-rule:evenodd;stroke:none"
           id="path2552" /><path
           d="M 2002,1336.19 L 1961,2543.19 L 1961,1377.19"
           style="fill:#dcdcdc;fill-opacity:1;fill-rule:evenodd;stroke:none"
           id="path2554" /><path
           d="M 1923,2499.19 L 1961,1377.19 L 1961,2543.19"
           style="fill:#dcdcdc;fill-opacity:1;fill-rule:evenodd;stroke:none"
           id="path2556" /><path
           d="M 1961,1377.19 L 1923,2499.19 L 1923,1421.19"
           style="fill:#dcdcdc;fill-opacity:1;fill-rule:evenodd;stroke:none"
           id="path2558" /><path
           d="M 1887,2453.19 L 1923,1421.19 L 1923,2499.19"
           style="fill:#dcdcdc;fill-opacity:1;fill-rule:evenodd;stroke:none"
           id="path2560" /><path
           d="M 1923,1421.19 L 1887,2453.19 L 1887,1467.19"
           style="fill:#dcdcdc;fill-opacity:1;fill-rule:evenodd;stroke:none"
           id="path2562" /><path
           d="M 1856,2404.19 L 1887,1467.19 L 1887,2453.19"
           style="fill:#dcdcdc;fill-opacity:1;fill-rule:evenodd;stroke:none"
           id="path2564" /><path
           d="M 1887,1467.19 L 1856,2404.19 L 1856,1516.19"
           style="fill:#dcdcdc;fill-opacity:1;fill-rule:evenodd;stroke:none"
           id="path2566" /><path
           d="M 1827,2353.19 L 1856,1516.19 L 1856,2404.19"
           style="fill:#dcdcdc;fill-opacity:1;fill-rule:evenodd;stroke:none"
           id="path2568" /><path
           d="M 1856,1516.19 L 1827,2353.19 L 1827,1567.19"
           style="fill:#dcdcdc;fill-opacity:1;fill-rule:evenodd;stroke:none"
           id="path2570" /><path
           d="M 1802,2300.19 L 1827,1567.19 L 1827,2353.19"
           style="fill:#dcdcdc;fill-opacity:1;fill-rule:evenodd;stroke:none"
           id="path2572" /><path
           d="M 1827,1567.19 L 1802,2300.19 L 1802,1620.19"
           style="fill:#dcdcdc;fill-opacity:1;fill-rule:evenodd;stroke:none"
           id="path2574" /><path
           d="M 1780,2246.19 L 1802,1620.19 L 1802,2300.19"
           style="fill:#dcdcdc;fill-opacity:1;fill-rule:evenodd;stroke:none"
           id="path2576" /><path
           d="M 1802,1620.19 L 1780,2246.19 L 1780,1674.19"
           style="fill:#dcdcdc;fill-opacity:1;fill-rule:evenodd;stroke:none"
           id="path2578" /><path
           d="M 1763,2191.19 L 1780,1674.19 L 1780,2246.19"
           style="fill:#dcdcdc;fill-opacity:1;fill-rule:evenodd;stroke:none"
           id="path2580" /><path
           d="M 1780,1674.19 L 1763,2191.19 L 1763,1730.19"
           style="fill:#dcdcdc;fill-opacity:1;fill-rule:evenodd;stroke:none"
           id="path2582" /><path
           d="M 1749,2134.19 L 1763,1730.19 L 1763,2191.19"
           style="fill:#dcdcdc;fill-opacity:1;fill-rule:evenodd;stroke:none"
           id="path2584" /><path
           d="M 1763,1730.19 L 1749,2134.19 L 1749,1786.19"
           style="fill:#dcdcdc;fill-opacity:1;fill-rule:evenodd;stroke:none"
           id="path2586" /><path
           d="M 1739,2076.19 L 1749,1786.19 L 1749,2134.19"
           style="fill:#dcdcdc;fill-opacity:1;fill-rule:evenodd;stroke:none"
           id="path2588" /><path
           d="M 1749,1786.19 L 1739,2076.19 L 1739,1844.19"
           style="fill:#dcdcdc;fill-opacity:1;fill-rule:evenodd;stroke:none"
           id="path2590" /><path
           d="M 1733,2018.19 L 1739,1844.19 L 1739,2076.19"
           style="fill:#dcdcdc;fill-opacity:1;fill-rule:evenodd;stroke:none"
           id="path2592" /><path
           d="M 1739,1844.19 L 1733,2018.19 L 1733,1902.19"
           style="fill:#dcdcdc;fill-opacity:1;fill-rule:evenodd;stroke:none"
           id="path2594" /><path
           d="M 1731,1960.19 L 1733,1902.19 L 1733,2018.19"
           style="fill:#dcdcdc;fill-opacity:1;fill-rule:evenodd;stroke:none"
           id="path2596" /><path
           d="M 1700,1997.19 L 1654,1982.19 L 1609,1967.19 L 1565,1950.19 L 1522,1933.19 L 1481,1915.19 L 1440,1897.19 L 1400,1877.19 L 1362,1857.19 L 1325,1837.19 L 1289,1816.19 L 1254,1794.19 L 1221,1772.19 L 1189,1749.19 L 1158,1726.19 L 1129,1702.19 L 1101,1678.19 L 1075,1653.19 L 1050,1628.19 L 1027,1602.19 L 1006,1576.19 L 986,1550.19 L 967,1523.19 L 950,1496.19 L 935,1469.19 L 921,1442.19 L 910,1414.19 L 899,1386.19 L 891,1358.19 L 884,1330.19 L 879,1302.19 L 875,1274.19 L 873,1246.19 L 873,1217.19 L 875,1189.19 L 878,1161.19 L 883,1133.19 L 890,1104.19 L 898,1077.19 L 908,1049.19 L 920,1021.19 L 934,994.189 L 949,966.189 L 965,940.189 L 984,913.189 L 1003,887.189 L 1025,861.189 L 1048,835.189 L 1072,810.189 L 1099,785.189 L 1126,761.189 L 1155,737.189 L 1185,713.189 L 1217,690.189 L 1250,668.189 L 1285,646.189 L 1321,625.189 L 1358,604.189 L 1396,584.189 L 1436,565.189 L 1476,546.189 L 1518,528.189 L 1561,511.189 L 1604,494.189 L 1649,479.189 L 1695,463.189 L 1742,449.189 L 1789,436.189 L 1837,423.189 L 1886,411.189 L 1936,400.189 L 1986,389.189 L 2037,380.189 L 2088,371.189 L 2140,363.189 L 2193,356.189 L 2246,350.189 L 2299,345.189 L 2352,341.189 L 2406,337.189 L 2460,335.189 L 2513,333.189 L 2567,332.189 L 2622,333.189 L 2676,334.189 L 2729,336.189 L 2783,338.189 L 2837,342.189 L 2890,347.189 L 2943,352.189 L 2996,358.189 L 3048,366.189 L 3100,374.189 L 3151,383.189 L 3202,392.189 L 3252,403.189 L 3301,414.189 L 3350,427.189 L 3398,440.189 L 3445,453.189 L 3491,468.189 L 3537,483.189 L 3581,500.189 L 3624,516.189 L 3667,534.189 L 3708,552.189 L 3748,571.189 L 3787,591.189 L 3825,611.189 L 3862,632.189 L 3897,653.189 L 3931,675.189 L 3964,697.189 L 3995,721.189 L 4025,744.189 L 4054,768.189 L 4081,793.189 L 4106,818.189 L 4130,843.189 L 4153,869.189 L 4174,895.189 L 4193,921.189 L 4211,948.189 L 4227,975.189 L 4241,1002.19 L 4254,1030.19 L 4265,1057.19 L 4275,1085.19 L 4282,1113.19 L 4288,1141.19 L 4293,1170.19 L 4296,1198.19 L 4297,1226.19 L 4296,1255.19 L 4294,1283.19 L 4289,1311.19 L 4284,1339.19 L 4276,1367.19 L 4267,1395.19 L 4256,1423.19 L 4244,1450.19 L 4229,1478.19 L 4214,1505.19 L 4196,1532.19 L 4177,1558.19 L 4156,1584.19 L 4134,1610.19 L 4111,1636.19 L 4085,1661.19 L 4059,1685.19 L 4030,1709.19 L 4001,1733.19 L 3970,1756.19 L 3937,1779.19 L 3903,1801.19 L 3868,1822.19 L 3832,1843.19 L 3794,1864.19 L 3755,1883.19 L 3715,1902.19 L 3674,1921.19 L 3632,1939.19 L 3589,1955.19 L 3545,1972.19 L 3499,1987.19 L 3453,2002.19"
           style="fill:none;stroke:#000000;stroke-width:9;stroke-linecap:round;stroke-linejoin:round;stroke-miterlimit:10;stroke-dasharray:none;stroke-opacity:1"
           id="path2598" /><path
           d="M 873,1230.19 L 1731,1957.19"
           style="fill:none;stroke:#000000;stroke-width:5;stroke-linecap:round;stroke-linejoin:round;stroke-miterlimit:10;stroke-dasharray:none;stroke-opacity:1"
           id="path2600" /><path
           d="M 873,1230.19 L 2102,1230.19"
           style="fill:none;stroke:#000000;stroke-width:9;stroke-linecap:round;stroke-linejoin:round;stroke-miterlimit:10;stroke-dasharray:none;stroke-opacity:1"
           id="path2602" /><path
           d="M 1982,1642.19 L 1373,596.189"
           style="fill:none;stroke:#000000;stroke-width:5;stroke-linecap:round;stroke-linejoin:round;stroke-miterlimit:10;stroke-dasharray:none;stroke-opacity:1"
           id="path2604" /><path
           d="M 1374,1862.19 L 1765,1657.19 M 2361,1113.19 L 1373,596.189"
           style="fill:none;stroke:#000000;stroke-width:9;stroke-linecap:round;stroke-linejoin:round;stroke-miterlimit:10;stroke-dasharray:none;stroke-opacity:1"
           id="path2606" /><path
           d="M 1745,2113.19 L 1374,1862.19"
           style="fill:none;stroke:#000000;stroke-width:7;stroke-linecap:round;stroke-linejoin:round;stroke-miterlimit:10;stroke-dasharray:none;stroke-opacity:1"
           id="path2608" /><path
           d="M 4299,1223.19 L 3440,1957.19 M 3190,1642.19 L 3796,591.189"
           style="fill:none;stroke:#000000;stroke-width:5;stroke-linecap:round;stroke-linejoin:round;stroke-miterlimit:10;stroke-dasharray:none;stroke-opacity:1"
           id="path2610" /><path
           d="M 3801,1856.19 L 3403,1651.19 M 2809,1112.19 L 3796,591.189"
           style="fill:none;stroke:#000000;stroke-width:9;stroke-linecap:round;stroke-linejoin:round;stroke-miterlimit:10;stroke-dasharray:none;stroke-opacity:1"
           id="path2612" /><path
           d="M 3425,2113.19 L 3801,1856.19"
           style="fill:none;stroke:#000000;stroke-width:5;stroke-linecap:round;stroke-linejoin:round;stroke-miterlimit:10;stroke-dasharray:none;stroke-opacity:1"
           id="path2614" /><path
           d="M 3068,1229.19 L 4297,1228.19"
           style="fill:none;stroke:#000000;stroke-width:9;stroke-linecap:round;stroke-linejoin:round;stroke-miterlimit:10;stroke-dasharray:none;stroke-opacity:1"
           id="path2616" /><path
           d="M 2972,1196.19 L 2993,1207.19 L 3013,1220.19 L 3032,1234.19 L 3050,1250.19 L 3067,1268.19 L 3083,1286.19 L 3098,1307.19 L 3111,1328.19 L 3124,1351.19 L 3136,1375.19 L 3146,1401.19 L 3156,1427.19 L 3164,1455.19 L 3171,1483.19 L 3176,1513.19 L 3181,1544.19 L 3184,1575.19 L 3186,1608.19 L 3187,1641.19"
           style="fill:none;stroke:#000000;stroke-width:9;stroke-linecap:round;stroke-linejoin:round;stroke-miterlimit:10;stroke-dasharray:none;stroke-opacity:1"
           id="path2618" /><path
           d="M 2196,1196.19 L 2175,1207.19 L 2155,1220.19 L 2136,1234.19 L 2118,1250.19 L 2101,1267.19 L 2085,1286.19 L 2069,1307.19 L 2055,1328.19 L 2042,1351.19 L 2031,1376.19 L 2020,1401.19 L 2011,1428.19 L 2003,1456.19 L 1996,1485.19 L 1990,1515.19 L 1986,1546.19 L 1983,1577.19 L 1981,1610.19 L 1980,1643.19"
           style="fill:none;stroke:#000000;stroke-width:9;stroke-linecap:round;stroke-linejoin:round;stroke-miterlimit:10;stroke-dasharray:none;stroke-opacity:1"
           id="path2620" /><path
           d="M 2621,1227.19 L 2621,1228.19 L 2620,1230.19 L 2618,1231.19 L 2616,1232.19 L 2614,1233.19 L 2611,1235.19 L 2608,1235.19 L 2604,1236.19 L 2600,1237.19 L 2596,1237.19 L 2591,1238.19 L 2578,1238.19 L 2573,1237.19 L 2569,1237.19 L 2565,1236.19 L 2562,1235.19 L 2559,1234.19 L 2556,1233.19 L 2554,1232.19 L 2552,1230.19 L 2551,1229.19 L 2550,1228.19 L 2550,1226.19 L 2551,1225.19 L 2552,1223.19 L 2554,1222.19 L 2556,1221.19 L 2559,1220.19 L 2562,1219.19 L 2565,1218.19 L 2569,1217.19 L 2573,1217.19 L 2578,1216.19 L 2596,1216.19 L 2600,1217.19 L 2604,1218.19 L 2608,1218.19 L 2611,1219.19 L 2614,1220.19 L 2616,1222.19 L 2618,1223.19 L 2620,1224.19 L 2621,1226.19 L 2621,1227.19"
           style="fill:none;stroke:#7f7f7f;stroke-width:9;stroke-linecap:round;stroke-linejoin:round;stroke-miterlimit:10;stroke-dasharray:none;stroke-opacity:1"
           id="path2622" /><path
           d="M 2586,1340.19 L 2502,1340.19 L 2502,1332.19 L 2537,1332.19 L 2537,1269.19 L 2551,1269.19 L 2551,1332.19 L 2586,1332.19"
           style="fill:#7f7f7f;fill-opacity:1;fill-rule:evenodd;stroke:none"
           id="path2624" /><path
           d="M 2670,1336.19 L 2642,1332.19 L 2655,1331.19 L 2664,1327.19 L 2667,1319.19 L 2667,1318.19 L 2661,1310.19 L 2657,1308.19 L 2642,1306.19 L 2614,1306.19 L 2673,1304.19 L 2679,1310.19 L 2681,1320.19 L 2681,1320.19 L 2678,1329.19"
           style="fill:#7f7f7f;fill-opacity:1;fill-rule:evenodd;stroke:none"
           id="path2626" /><path
           d="M 2640,1340.19 L 2600,1340.19 L 2600,1269.19 L 2614,1269.19 L 2614,1298.19 L 2648,1298.19 L 2663,1300.19 L 2673,1304.19 L 2614,1306.19 L 2614,1332.19 L 2642,1332.19 L 2670,1336.19 L 2657,1339.19 L 2656,1339.19"
           style="fill:#7f7f7f;fill-opacity:1;fill-rule:evenodd;stroke:none"
           id="path2628" /><path
           d="M 2584,332.189 L 2584,1083.19"
           style="fill:none;stroke:#000000;stroke-width:9;stroke-linecap:round;stroke-linejoin:round;stroke-miterlimit:10;stroke-dasharray:none;stroke-opacity:1"
           id="path2630" /><path
           d="M 1800,2299.19 L 1795,2280.19 L 1792,2261.19 L 1790,2241.19 L 1790,2220.19 L 1792,2199.19 L 1796,2178.19 L 1801,2156.19 L 1808,2133.19 L 1816,2110.19 L 1826,2087.19 L 1838,2064.19 L 1851,2040.19 L 1866,2016.19 L 1882,1993.19 L 1900,1969.19 L 1919,1945.19 L 1940,1921.19 L 1961,1897.19 L 1985,1873.19 L 2009,1850.19 L 2035,1826.19 L 2062,1803.19 L 2089,1780.19 L 2118,1758.19 L 2148,1736.19 L 2179,1715.19 L 2211,1694.19 L 2243,1673.19 L 2276,1654.19 L 2310,1635.19 L 2345,1616.19 L 2380,1598.19 L 2415,1581.19 L 2451,1565.19 L 2487,1550.19 L 2523,1535.19 L 2559,1522.19 L 2595,1509.19 L 2632,1497.19 L 2668,1486.19 L 2704,1477.19 L 2740,1468.19 L 2775,1460.19 L 2810,1453.19 L 2845,1448.19 L 2879,1443.19 L 2913,1440.19 L 2945,1437.19 L 2977,1436.19 L 3009,1436.19 L 3039,1437.19 L 3068,1439.19 L 3097,1442.19 L 3124,1446.19 L 3150,1451.19 L 3175,1457.19 L 3199,1465.19 L 3221,1473.19 L 3243,1482.19 L 3262,1493.19 L 3281,1504.19 L 3298,1516.19 L 3313,1530.19 L 3327,1544.19 L 3339,1559.19"
           style="fill:none;stroke:#ff0000;stroke-width:9;stroke-linecap:round;stroke-linejoin:round;stroke-miterlimit:10;stroke-dasharray:none;stroke-opacity:1"
           id="path2632" /><path
           d="M 3361,1594.19 L 3619,1229.19"
           style="fill:none;stroke:#ff0000;stroke-width:5;stroke-linecap:round;stroke-linejoin:round;stroke-miterlimit:10;stroke-dasharray:none;stroke-opacity:1"
           id="path2634" /><path
           d="M 824,2000.19 L 781,1980.19 L 739,1959.19 L 698,1937.19 L 659,1915.19 L 621,1891.19 L 584,1867.19 L 549,1843.19 L 515,1818.19 L 482,1792.19 L 451,1765.19 L 422,1738.19 L 394,1711.19 L 367,1683.19 L 342,1655.19 L 319,1626.19 L 298,1596.19 L 278,1567.19 L 260,1536.19 L 243,1506.19 L 228,1475.19 L 215,1444.19 L 204,1413.19 L 195,1382.19 L 187,1350.19 L 181,1319.19 L 177,1287.19 L 175,1255.19 L 174,1224.19 L 175,1192.19 L 179,1160.19 L 183,1128.19 L 190,1097.19 L 199,1065.19 L 209,1034.19 L 221,1003.19 L 234,972.189 L 250,941.189 L 267,911.189 L 286,881.189 L 307,852.189 L 329,822.189 L 353,794.189 L 378,765.189 L 405,738.189 L 434,710.189 L 464,684.189 L 496,657.189 L 529,632.189 L 564,607.189 L 600,583.189 L 637,559.189 L 676,536.189 L 715,514.189 L 757,492.189 L 799,472.189 L 842,452.189 L 887,433.189 L 933,414.189 L 979,397.189 L 1027,381.189 L 1075,365.189 L 1125,350.189 L 1175,336.189 L 1226,324.189 L 1277,312.189 L 1330,301.189 L 1383,291.189 L 1436,282.189 L 1490,274.189 L 1544,267.189 L 1599,261.189 L 1654,255.189 L 1709,252.189 L 1765,249.189 L 1820,247.189 L 1876,246.189 L 1932,246.189 L 1987,247.189 L 2043,249.189 L 2098,252.189 L 2153,257.189 L 2208,262.189 L 2263,268.189 L 2317,275.189 L 2371,284.189 L 2424,293.189 L 2477,303.189 L 2529,314.189 L 2580,326.189 L 2631,339.189 L 2681,353.189 L 2730,368.189 L 2779,384.189 L 2826,401.189 L 2872,418.189 L 2918,437.189 L 2962,456.189 L 3005,476.189 L 3047,497.189 L 3088,519.189 L 3128,541.189 L 3166,564.189 L 3203,588.189 L 3238,612.189 L 3273,637.189 L 3305,663.189 L 3337,690.189 L 3367,716.189 L 3395,744.189 L 3421,772.189 L 3447,800.189 L 3470,829.189 L 3492,858.189 L 3512,888.189 L 3530,918.189 L 3547,948.189 L 3562,979.189 L 3575,1010.19 L 3587,1041.19 L 3597,1072.19 L 3605,1104.19 L 3611,1135.19 L 3615,1167.19 L 3618,1199.19 L 3619,1231.19 L 3618,1262.19 L 3615,1294.19 L 3610,1326.19 L 3604,1358.19 L 3596,1389.19 L 3586,1420.19 L 3574,1451.19 L 3561,1482.19 L 3546,1513.19 L 3529,1543.19 L 3510,1573.19 L 3490,1603.19 L 3468,1632.19 L 3444,1661.19 L 3419,1689.19"
           style="fill:none;stroke:#ff0000;stroke-width:9;stroke-linecap:round;stroke-linejoin:round;stroke-miterlimit:10;stroke-dasharray:none;stroke-opacity:1"
           id="path2636" /><path
           d="M 1745,2210.19 L 1692,2207.19 L 1639,2203.19 L 1587,2198.19 L 1535,2192.19 L 1483,2185.19 L 1432,2177.19 L 1381,2169.19 L 1330,2159.19 L 1280,2149.19 L 1231,2138.19 L 1182,2125.19 L 1134,2112.19 L 1087,2099.19 L 1040,2084.19 L 994,2068.19 L 950,2052.19 L 906,2035.19 L 863,2017.19 L 820,1998.19"
           style="fill:none;stroke:#ff0000;stroke-width:9;stroke-linecap:round;stroke-linejoin:round;stroke-miterlimit:10;stroke-dasharray:none;stroke-opacity:1"
           id="path2638" /><path
           d="M 3401,1708.19 L 3373,1736.19 L 3344,1763.19 L 3313,1789.19 L 3280,1815.19 L 3246,1841.19 L 3211,1865.19 L 3174,1889.19 L 3136,1913.19 L 3096,1935.19 L 3055,1957.19 L 3013,1979.19 L 2970,1999.19 L 2926,2018.19 L 2880,2037.19 L 2834,2055.19 L 2787,2072.19 L 2738,2088.19 L 2689,2103.19 L 2639,2117.19 L 2588,2131.19 L 2536,2143.19 L 2484,2155.19 L 2431,2165.19 L 2378,2174.19 L 2324,2183.19 L 2269,2190.19 L 2215,2197.19 L 2159,2202.19 L 2104,2207.19 L 2048,2210.19 L 1993,2212.19 L 1937,2214.19 L 1881,2214.19 L 1825,2213.19 L 1769,2211.19"
           style="fill:none;stroke:#ffbf00;stroke-width:5;stroke-linecap:round;stroke-linejoin:round;stroke-miterlimit:10;stroke-dasharray:none;stroke-opacity:1"
           id="path2640" /><path
           d="M 2585,1106.19 L 2586,1286.19 M 2586,1352.19 L 2586,1512.19"
           style="fill:none;stroke:#000000;stroke-width:9;stroke-linecap:round;stroke-linejoin:round;stroke-miterlimit:10;stroke-dasharray:none;stroke-opacity:1"
           id="path2642" /><path
           d="M 3439,1960.19 L 3437,2018.19 L 3431,2076.19 L 3422,2134.19 L 3408,2191.19 L 3390,2246.19 L 3369,2300.19 L 3344,2353.19 L 3315,2404.19 L 3283,2453.19 L 3248,2499.19 L 3210,2543.19 L 3168,2584.19 L 3124,2623.19 L 3078,2658.19 L 3029,2690.19 L 2978,2718.19 L 2926,2744.19 L 2871,2765.19 L 2816,2783.19 L 2759,2796.19 L 2702,2806.19 L 2644,2812.19 L 2585,2814.19 L 2527,2812.19 L 2469,2806.19 L 2412,2796.19 L 2355,2783.19 L 2299,2765.19 L 2245,2744.19 L 2192,2718.19 L 2142,2690.19 L 2093,2658.19 L 2046,2623.19 L 2002,2584.19 L 1961,2543.19 L 1923,2499.19 L 1887,2453.19 L 1856,2404.19 L 1827,2353.19 L 1802,2300.19 L 1780,2246.19 L 1763,2191.19 L 1749,2134.19 L 1739,2076.19 L 1733,2018.19 L 1731,1960.19 L 1733,1902.19 L 1739,1844.19 L 1749,1786.19 L 1763,1730.19 L 1780,1674.19 L 1802,1620.19 L 1827,1567.19 L 1856,1516.19 L 1887,1467.19 L 1923,1421.19 L 1961,1377.19 L 2002,1336.19 L 2046,1297.19 L 2093,1262.19 L 2142,1230.19 L 2192,1202.19 L 2245,1177.19 L 2299,1155.19 L 2355,1138.19 L 2412,1124.19 L 2469,1114.19 L 2527,1108.19 L 2585,1106.19 L 2644,1108.19 L 2702,1114.19 L 2759,1124.19 L 2816,1138.19 L 2871,1155.19 L 2926,1177.19 L 2978,1202.19 L 3029,1230.19 L 3078,1262.19 L 3124,1297.19 L 3168,1336.19 L 3210,1377.19 L 3248,1421.19 L 3283,1467.19 L 3315,1516.19 L 3344,1567.19 L 3369,1620.19 L 3390,1674.19 L 3408,1730.19 L 3422,1786.19 L 3431,1844.19 L 3437,1902.19 L 3439,1960.19"
           style="fill:none;stroke:#000000;stroke-width:3;stroke-linecap:round;stroke-linejoin:round;stroke-miterlimit:10;stroke-dasharray:none;stroke-opacity:1"
           id="path2644" /><path
           d="M 3377,1644.19 L 3379,1664.19 L 3381,1684.19 L 3380,1704.19 L 3378,1726.19 L 3374,1747.19 L 3368,1769.19 L 3361,1792.19 L 3352,1814.19 L 3342,1838.19 L 3330,1861.19 L 3317,1884.19 L 3302,1908.19 L 3285,1932.19 L 3267,1956.19 L 3248,1980.19 L 3227,2004.19 L 3205,2027.19 L 3182,2051.19 L 3157,2074.19 L 3132,2098.19 L 3105,2121.19 L 3077,2143.19 L 3048,2165.19 L 3018,2187.19 L 2987,2208.19 L 2955,2229.19 L 2923,2249.19 L 2890,2269.19 L 2856,2288.19 L 2822,2306.19 L 2787,2324.19 L 2752,2341.19 L 2716,2357.19 L 2680,2372.19 L 2644,2386.19 L 2608,2400.19 L 2572,2412.19 L 2535,2424.19 L 2499,2435.19 L 2463,2444.19 L 2428,2453.19 L 2392,2461.19 L 2358,2467.19 L 2323,2473.19 L 2289,2477.19 L 2256,2481.19 L 2223,2483.19 L 2191,2484.19 L 2130,2484.19 L 2101,2482.19 L 2073,2478.19 L 2045,2474.19 L 2019,2469.19 L 1995,2463.19 L 1971,2455.19 L 1949,2447.19 L 1928,2438.19 L 1908,2427.19 L 1890,2416.19 L 1873,2404.19 L 1857,2390.19 L 1844,2376.19 L 1831,2361.19"
           style="fill:none;stroke:#ffbf00;stroke-width:9;stroke-linecap:round;stroke-linejoin:round;stroke-miterlimit:10;stroke-dasharray:none;stroke-opacity:1"
           id="path2646" /><path
           d="M 2586,2689.19 L 3358,1595.19"
           style="fill:none;stroke:#ffbf00;stroke-width:5;stroke-linecap:round;stroke-linejoin:round;stroke-miterlimit:10;stroke-dasharray:none;stroke-opacity:1"
           id="path2648" /><path
           d="M 3418,1786.19 L 3425,1813.19 L 3431,1841.19 L 3436,1869.19 L 3440,1898.19 L 3442,1926.19 L 3443,1954.19"
           style="fill:none;stroke:#000000;stroke-width:9;stroke-linecap:round;stroke-linejoin:round;stroke-miterlimit:10;stroke-dasharray:none;stroke-opacity:1"
           id="path2650" /><path
           d="M 1728,1954.19 L 1729,1926.19 L 1731,1897.19 L 1734,1869.19 L 1739,1841.19 L 1745,1813.19 L 1753,1786.19"
           style="fill:none;stroke:#000000;stroke-width:9;stroke-linecap:round;stroke-linejoin:round;stroke-miterlimit:10;stroke-dasharray:none;stroke-opacity:1"
           id="path2652" /><path
           d="M 1732,2008.19 L 1731,1998.19 L 1729,1989.19 L 1728,1980.19 L 1728,1943.19 L 1729,1934.19 L 1730,1925.19 L 1732,1916.19 L 1734,1906.19 L 1736,1897.19 L 1739,1888.19 L 1742,1879.19 L 1745,1870.19 L 1749,1861.19 L 1753,1852.19 L 1757,1843.19 L 1762,1834.19 L 1767,1826.19 L 1773,1817.19 L 1779,1808.19 L 1785,1800.19 L 1791,1791.19 L 1798,1782.19 L 1805,1774.19 L 1813,1766.19 L 1820,1757.19 L 1829,1749.19 L 1837,1741.19 L 1846,1733.19 L 1855,1725.19 L 1864,1718.19 L 1874,1710.19 L 1884,1702.19 L 1894,1695.19 L 1905,1687.19 L 1916,1680.19 L 1927,1673.19 L 1938,1666.19 L 1950,1659.19 L 1962,1652.19 L 1974,1646.19 L 1987,1639.19 L 2000,1633.19 L 2013,1627.19 L 2026,1621.19 L 2039,1615.19 L 2053,1609.19 L 2067,1603.19 L 2081,1598.19 L 2095,1592.19 L 2110,1587.19 L 2125,1582.19 L 2140,1577.19 L 2155,1573.19 L 2170,1568.19 L 2186,1564.19 L 2201,1560.19 L 2217,1556.19 L 2233,1552.19 L 2249,1548.19 L 2266,1544.19 L 2282,1541.19 L 2299,1538.19 L 2315,1535.19 L 2332,1532.19 L 2349,1530.19 L 2366,1527.19 L 2383,1525.19 L 2400,1523.19 L 2418,1521.19 L 2435,1519.19 L 2452,1518.19 L 2470,1516.19 L 2487,1515.19 L 2505,1514.19 L 2522,1513.19 L 2540,1513.19 L 2558,1512.19 L 2610,1512.19 L 2628,1513.19 L 2646,1513.19 L 2663,1514.19 L 2681,1515.19 L 2698,1516.19 L 2716,1517.19 L 2733,1519.19 L 2751,1521.19 L 2768,1522.19 L 2785,1525.19 L 2802,1527.19 L 2819,1529.19 L 2836,1532.19 L 2853,1535.19 L 2870,1538.19 L 2886,1541.19 L 2903,1544.19 L 2919,1547.19 L 2935,1551.19 L 2951,1555.19 L 2967,1559.19 L 2983,1563.19 L 2998,1568.19 L 3014,1572.19 L 3029,1577.19 L 3044,1582.19 L 3059,1587.19 L 3073,1592.19 L 3088,1597.19 L 3102,1603.19 L 3116,1608.19 L 3129,1614.19 L 3143,1620.19 L 3156,1626.19 L 3169,1632.19 L 3182,1638.19 L 3195,1645.19 L 3207,1651.19 L 3219,1658.19 L 3231,1665.19 L 3242,1672.19 L 3253,1679.19 L 3264,1686.19 L 3275,1694.19 L 3285,1701.19 L 3295,1709.19 L 3305,1716.19 L 3314,1724.19 L 3324,1732.19 L 3332,1740.19 L 3341,1748.19 L 3349,1756.19 L 3357,1765.19 L 3364,1773.19 L 3372,1781.19 L 3379,1790.19 L 3385,1798.19 L 3391,1807.19 L 3397,1816.19 L 3403,1824.19 L 3408,1833.19 L 3413,1842.19 L 3417,1851.19 L 3421,1860.19 L 3425,1869.19 L 3428,1878.19 L 3431,1887.19 L 3434,1896.19 L 3436,1905.19 L 3438,1914.19 L 3440,1924.19 L 3441,1933.19 L 3442,1942.19 L 3443,1951.19 L 3443,1970.19 L 3442,1979.19 L 3441,1988.19 L 3440,1997.19 L 3438,2006.19"
           style="fill:none;stroke:#000000;stroke-width:9;stroke-linecap:round;stroke-linejoin:round;stroke-miterlimit:10;stroke-dasharray:none;stroke-opacity:1"
           id="path2654" /><path
           d="M 1729,2008.19 L 1728,1982.19 L 1728,1930.19 L 1730,1904.19 L 1733,1879.19 L 1737,1853.19 L 1742,1827.19"
           style="fill:none;stroke:#000000;stroke-width:3;stroke-linecap:round;stroke-linejoin:round;stroke-miterlimit:10;stroke-dasharray:none;stroke-opacity:1"
           id="path2656" /><path
           d="M 3429,1827.19 L 3434,1853.19 L 3438,1879.19 L 3440,1904.19 L 3442,1930.19 L 3443,1956.19 L 3443,1982.19 L 3441,2008.19"
           style="fill:none;stroke:#000000;stroke-width:3;stroke-linecap:round;stroke-linejoin:round;stroke-miterlimit:10;stroke-dasharray:none;stroke-opacity:1"
           id="path2658" /><path
           d="M 1376,1860.19 L 2586,2689.19"
           style="fill:none;stroke:#7f7f7f;stroke-width:5;stroke-linecap:round;stroke-linejoin:round;stroke-miterlimit:10;stroke-dasharray:none;stroke-opacity:1"
           id="path2660" /><path
           d="M 1731,1960.19 L 2586,2689.19 L 1980,1643.19"
           style="fill:none;stroke:#7f7f7f;stroke-width:3;stroke-linecap:round;stroke-linejoin:round;stroke-miterlimit:10;stroke-dasharray:none;stroke-opacity:1"
           id="path2662" /><path
           d="M 2586,2408.19 L 2586,2689.19 L 3187,1641.19"
           style="fill:none;stroke:#7f7f7f;stroke-width:3;stroke-linecap:round;stroke-linejoin:round;stroke-miterlimit:10;stroke-dasharray:none;stroke-opacity:1"
           id="path2664" /><path
           d="M 3439,1960.19 L 2586,2689.19 L 3426,2113.19"
           style="fill:none;stroke:#7f7f7f;stroke-width:3;stroke-linecap:round;stroke-linejoin:round;stroke-miterlimit:10;stroke-dasharray:none;stroke-opacity:1"
           id="path2666" /><path
           d="M 3435,2020.19 L 3433,2029.19 L 3430,2038.19 L 3427,2047.19 L 3423,2056.19 L 3419,2065.19 L 3415,2074.19 L 3410,2083.19 L 3405,2092.19 L 3400,2101.19 L 3394,2109.19 L 3388,2118.19 L 3382,2126.19 L 3375,2135.19 L 3368,2143.19 L 3360,2152.19 L 3353,2160.19 L 3345,2168.19 L 3336,2176.19 L 3328,2184.19 L 3319,2192.19 L 3309,2200.19 L 3300,2208.19 L 3290,2215.19 L 3280,2223.19 L 3269,2230.19 L 3259,2238.19 L 3247,2245.19 L 3236,2252.19 L 3224,2259.19 L 3213,2265.19 L 3200,2272.19 L 3188,2279.19 L 3175,2285.19 L 3162,2291.19 L 3149,2297.19 L 3136,2303.19 L 3122,2309.19 L 3108,2315.19 L 3094,2320.19 L 3080,2326.19 L 3066,2331.19 L 3051,2336.19 L 3036,2341.19 L 3021,2346.19 L 3006,2350.19 L 2990,2355.19 L 2975,2359.19 L 2959,2363.19 L 2943,2367.19 L 2927,2371.19 L 2911,2374.19 L 2894,2378.19 L 2878,2381.19 L 2861,2384.19 L 2844,2387.19 L 2828,2390.19 L 2811,2392.19 L 2794,2395.19 L 2776,2397.19 L 2759,2399.19 L 2742,2400.19 L 2725,2402.19 L 2707,2403.19 L 2690,2405.19 L 2672,2406.19 L 2655,2406.19 L 2637,2407.19 L 2619,2408.19 L 2549,2408.19 L 2531,2407.19 L 2514,2406.19 L 2496,2406.19 L 2479,2404.19 L 2461,2403.19 L 2444,2402.19 L 2427,2400.19 L 2409,2398.19 L 2392,2396.19 L 2375,2394.19 L 2358,2392.19 L 2341,2389.19 L 2324,2387.19 L 2307,2384.19 L 2291,2381.19 L 2274,2377.19 L 2258,2374.19 L 2242,2370.19 L 2226,2367.19 L 2210,2363.19 L 2194,2359.19 L 2178,2354.19 L 2163,2350.19 L 2148,2345.19 L 2133,2340.19 L 2118,2336.19 L 2103,2330.19 L 2089,2325.19 L 2074,2320.19 L 2060,2314.19 L 2047,2309.19 L 2033,2303.19 L 2020,2297.19 L 2006,2291.19 L 1994,2284.19 L 1981,2278.19 L 1969,2271.19 L 1956,2265.19 L 1945,2258.19 L 1933,2251.19 L 1922,2244.19 L 1911,2237.19 L 1900,2229.19 L 1890,2222.19 L 1879,2214.19 L 1870,2207.19 L 1860,2199.19 L 1851,2191.19 L 1842,2183.19 L 1833,2175.19 L 1825,2167.19 L 1817,2159.19 L 1809,2151.19 L 1802,2142.19 L 1795,2134.19 L 1788,2125.19 L 1782,2117.19 L 1776,2108.19 L 1770,2099.19 L 1765,2091.19 L 1760,2082.19 L 1755,2073.19 L 1751,2064.19 L 1747,2055.19 L 1744,2046.19 L 1740,2037.19 L 1738,2028.19 L 1735,2019.19 L 1733,2010.19"
           style="fill:none;stroke:#7f7f7f;stroke-width:9;stroke-linecap:round;stroke-linejoin:round;stroke-miterlimit:10;stroke-dasharray:none;stroke-opacity:1"
           id="path2668" /><path
           d="M 3426,2010.19 L 3379,2024.19 L 3331,2036.19 L 3282,2048.19 L 3233,2059.19 L 3183,2070.19 L 3132,2079.19 L 3081,2088.19 L 3030,2095.19 L 2978,2102.19 L 2925,2108.19 L 2872,2113.19 L 2819,2118.19 L 2766,2121.19 L 2713,2124.19 L 2659,2125.19 L 2605,2126.19 L 2552,2126.19 L 2498,2125.19 L 2444,2123.19 L 2391,2121.19 L 2338,2117.19 L 2285,2113.19 L 2232,2107.19 L 2180,2101.19 L 2128,2094.19 L 2076,2086.19 L 2025,2077.19 L 1975,2068.19 L 1925,2057.19 L 1876,2046.19 L 1827,2034.19 L 1779,2021.19 L 1732,2008.19"
           style="fill:none;stroke:#7f7f7f;stroke-width:5;stroke-linecap:round;stroke-linejoin:round;stroke-miterlimit:10;stroke-dasharray:none;stroke-opacity:1"
           id="path2670" /><path
           d="M 2809,1112.19 L 1765,1657.19 M 2102,1230.19 L 3068,1229.19 M 2361,1113.19 L 3403,1651.19"
           style="fill:none;stroke:#000000;stroke-width:3;stroke-linecap:round;stroke-linejoin:round;stroke-miterlimit:10;stroke-dasharray:none;stroke-opacity:1"
           id="path2672" /><path
           d="M 2195,1197.19 L 2216,1187.19 L 2238,1178.19 L 2261,1171.19 L 2285,1166.19 L 2309,1162.19 L 2334,1160.19 L 2360,1160.19 L 2385,1161.19 L 2412,1164.19 L 2438,1169.19 L 2465,1176.19 L 2492,1184.19 L 2520,1193.19 L 2547,1204.19 L 2575,1217.19 L 2603,1232.19 L 2630,1247.19 L 2658,1265.19 L 2685,1284.19 L 2712,1304.19 L 2739,1325.19 L 2765,1348.19 L 2792,1373.19 L 2817,1398.19 L 2842,1425.19 L 2867,1452.19 L 2891,1481.19 L 2915,1511.19 L 2937,1542.19 L 2960,1573.19 L 2981,1606.19 L 3001,1639.19 L 3021,1673.19 L 3039,1707.19 L 3057,1742.19 L 3074,1777.19 L 3089,1813.19 L 3104,1849.19 L 3117,1886.19 L 3130,1922.19 L 3141,1959.19 L 3151,1995.19 L 3160,2032.19 L 3168,2068.19 L 3174,2104.19 L 3180,2140.19 L 3184,2175.19 L 3186,2210.19 L 3188,2245.19 L 3188,2279.19"
           style="fill:none;stroke:#7f7f7f;stroke-width:9;stroke-linecap:round;stroke-linejoin:round;stroke-miterlimit:10;stroke-dasharray:none;stroke-opacity:1"
           id="path2674" /><path
           d="M 2974,1196.19 L 2953,1186.19 L 2931,1178.19 L 2908,1171.19 L 2884,1165.19 L 2860,1162.19 L 2835,1160.19 L 2809,1160.19 L 2783,1161.19 L 2757,1164.19 L 2731,1169.19 L 2704,1175.19 L 2676,1183.19 L 2649,1193.19 L 2622,1204.19 L 2594,1217.19 L 2566,1232.19 L 2539,1248.19 L 2511,1265.19 L 2484,1284.19 L 2457,1304.19 L 2430,1326.19 L 2404,1349.19 L 2378,1373.19 L 2352,1398.19 L 2327,1425.19 L 2302,1453.19 L 2278,1482.19 L 2255,1512.19 L 2232,1542.19 L 2210,1574.19 L 2189,1606.19 L 2168,1640.19 L 2149,1673.19 L 2130,1708.19 L 2113,1743.19 L 2096,1778.19 L 2081,1814.19 L 2066,1850.19 L 2053,1887.19 L 2040,1923.19 L 2029,1960.19 L 2019,1996.19 L 2010,2033.19 L 2002,2069.19 L 1996,2105.19 L 1991,2141.19 L 1987,2176.19 L 1984,2211.19 L 1983,2246.19 L 1983,2280.19"
           style="fill:none;stroke:#7f7f7f;stroke-width:9;stroke-linecap:round;stroke-linejoin:round;stroke-miterlimit:10;stroke-dasharray:none;stroke-opacity:1"
           id="path2676" /><path
           d="M 1733,2008.19 L 1732,1974.19 L 1731,1941.19 L 1733,1907.19 L 1736,1874.19 L 1742,1841.19 L 1749,1808.19 L 1757,1775.19 L 1768,1743.19 L 1780,1711.19 L 1794,1680.19 L 1809,1649.19 L 1826,1619.19 L 1845,1590.19 L 1865,1561.19 L 1887,1533.19 L 1910,1506.19 L 1934,1480.19 L 1960,1455.19 L 1987,1431.19 L 2016,1408.19 L 2045,1387.19 L 2076,1366.19 L 2108,1347.19 L 2141,1329.19 L 2175,1312.19 L 2209,1297.19 L 2245,1282.19 L 2281,1270.19 L 2317,1259.19 L 2355,1249.19 L 2392,1240.19 L 2431,1234.19 L 2469,1228.19 L 2508,1225.19 L 2547,1222.19 L 2586,1221.19 L 2625,1222.19 L 2663,1225.19 L 2702,1228.19 L 2741,1234.19 L 2779,1240.19 L 2817,1249.19 L 2854,1259.19 L 2891,1270.19 L 2927,1282.19 L 2962,1297.19 L 2997,1312.19 L 3030,1329.19 L 3063,1347.19 L 3095,1366.19 L 3126,1387.19 L 3155,1408.19 L 3184,1431.19 L 3211,1455.19 L 3237,1480.19 L 3261,1506.19 L 3285,1533.19 L 3306,1561.19 L 3326,1590.19 L 3345,1619.19 L 3362,1649.19 L 3378,1680.19 L 3391,1711.19 L 3403,1743.19 L 3414,1775.19 L 3423,1808.19 L 3429,1841.19 L 3435,1874.19 L 3438,1907.19 L 3440,1941.19 L 3440,1974.19 L 3438,2008.19"
           style="fill:none;stroke:#7f7f7f;stroke-width:9;stroke-linecap:round;stroke-linejoin:round;stroke-miterlimit:10;stroke-dasharray:none;stroke-opacity:1"
           id="path2678" /><path
           d="M 2585,2408.19 L 2585,1515.19"
           style="fill:none;stroke:#7f7f7f;stroke-width:9;stroke-linecap:round;stroke-linejoin:round;stroke-miterlimit:10;stroke-dasharray:none;stroke-opacity:1"
           id="path2680" /><path
           d="M 873,1230.19 L 780,1230.19 M 745,1230.19 L 739,1230.19 M 704,1230.19 L 562,1230.19 M 527,1230.19 L 521,1230.19 M 485,1230.19 L 343,1230.19 M 308,1231.19 L 302,1231.19"
           style="fill:none;stroke:#000000;stroke-width:3;stroke-linecap:round;stroke-linejoin:round;stroke-miterlimit:10;stroke-dasharray:none;stroke-opacity:1"
           id="path2682" /><path
           d="M 267,1231.19 L 174,1231.19"
           style="fill:none;stroke:#000000;stroke-width:3;stroke-linecap:round;stroke-linejoin:round;stroke-miterlimit:10;stroke-dasharray:none;stroke-opacity:1"
           id="path2684" /><path
           d="M 174,1231.19 L 1791,2209.19"
           style="fill:none;stroke:#ff0000;stroke-width:5;stroke-linecap:round;stroke-linejoin:round;stroke-miterlimit:10;stroke-dasharray:none;stroke-opacity:1"
           id="path2686" /><path
           d="M 1745,2113.19 L 2586,2689.19"
           style="fill:none;stroke:#000000;stroke-width:3;stroke-linecap:round;stroke-linejoin:round;stroke-miterlimit:10;stroke-dasharray:none;stroke-opacity:1"
           id="path2688" /><path
           d="M 1791,2209.19 L 2586,2689.19"
           style="fill:none;stroke:#ffbf00;stroke-width:5;stroke-linecap:round;stroke-linejoin:round;stroke-miterlimit:10;stroke-dasharray:none;stroke-opacity:1"
           id="path2690" /><path
           d="M 2621,2689.19 L 2621,2690.19 L 2620,2692.19 L 2618,2693.19 L 2616,2694.19 L 2614,2695.19 L 2611,2697.19 L 2608,2697.19 L 2604,2698.19 L 2600,2699.19 L 2596,2699.19 L 2591,2700.19 L 2578,2700.19 L 2573,2699.19 L 2569,2699.19 L 2565,2698.19 L 2562,2697.19 L 2559,2696.19 L 2556,2695.19 L 2554,2694.19 L 2552,2692.19 L 2551,2691.19 L 2550,2690.19 L 2550,2688.19 L 2551,2687.19 L 2552,2686.19 L 2554,2684.19 L 2556,2683.19 L 2559,2682.19 L 2562,2681.19 L 2565,2680.19 L 2569,2679.19 L 2573,2679.19 L 2578,2678.19 L 2596,2678.19 L 2600,2679.19 L 2604,2680.19 L 2608,2680.19 L 2611,2681.19 L 2614,2682.19 L 2616,2684.19 L 2618,2685.19 L 2620,2686.19 L 2621,2688.19 L 2621,2689.19"
           style="fill:none;stroke:#000000;stroke-width:7;stroke-linecap:round;stroke-linejoin:round;stroke-miterlimit:10;stroke-dasharray:none;stroke-opacity:1"
           id="path2692" /><path
           d="M 2576,2652.19 L 2548,2648.19 L 2561,2647.19 L 2570,2643.19 L 2574,2636.19 L 2573,2635.19 L 2568,2626.19 L 2564,2624.19 L 2548,2623.19 L 2521,2623.19 L 2579,2621.19 L 2585,2626.19 L 2588,2636.19 L 2588,2636.19 L 2585,2646.19"
           style="fill:#000000;fill-opacity:1;fill-rule:evenodd;stroke:none"
           id="path2694" /><path
           d="M 2547,2656.19 L 2507,2656.19 L 2507,2586.19 L 2521,2586.19 L 2521,2614.19 L 2548,2614.19 L 2554,2615.19 L 2569,2616.19 L 2579,2621.19 L 2521,2623.19 L 2521,2648.19 L 2548,2648.19 L 2576,2652.19 L 2563,2656.19 L 2562,2656.19"
           style="fill:#000000;fill-opacity:1;fill-rule:evenodd;stroke:none"
           id="path2696" /><path
           d="M 2680,2656.19 L 2604,2656.19 L 2604,2648.19 L 2663,2648.19 L 2662,2647.19 L 2652,2640.19 L 2597,2594.19 L 2597,2586.19 L 2681,2586.19 L 2681,2594.19 L 2614,2594.19 L 2620,2599.19 L 2680,2648.19"
           style="fill:#000000;fill-opacity:1;fill-rule:evenodd;stroke:none"
           id="path2698" /></g></g></g></svg>